<?xml version="1.0" encoding="utf-8" standalone="no"?>
<!DOCTYPE svg PUBLIC "-//W3C//DTD SVG 1.1//EN"
  "http://www.w3.org/Graphics/SVG/1.1/DTD/svg11.dtd">
<svg xmlns:xlink="http://www.w3.org/1999/xlink" width="708.48pt" height="420.48pt" viewBox="0 0 708.48 420.48" xmlns="http://www.w3.org/2000/svg" version="1.1">
 <metadata>
  <rdf:RDF xmlns:dc="http://purl.org/dc/elements/1.1/" xmlns:cc="http://creativecommons.org/ns#" xmlns:rdf="http://www.w3.org/1999/02/22-rdf-syntax-ns#">
   <cc:Work>
    <dc:type rdf:resource="http://purl.org/dc/dcmitype/StillImage"/>
    <dc:date>2025-01-10T12:17:16.671153</dc:date>
    <dc:format>image/svg+xml</dc:format>
    <dc:creator>
     <cc:Agent>
      <dc:title>Matplotlib v3.9.3, https://matplotlib.org/</dc:title>
     </cc:Agent>
    </dc:creator>
   </cc:Work>
  </rdf:RDF>
 </metadata>
 <defs>
  <style type="text/css">*{stroke-linejoin: round; stroke-linecap: butt}</style>
 </defs>
 <g id="figure_1">
  <g id="patch_1">
   <path d="M 0 420.48 
L 708.48 420.48 
L 708.48 -0 
L 0 -0 
z
" style="fill: #ffffff"/>
  </g>
  <g id="axes_1">
   <g id="patch_2">
    <path d="M 53.8475 372.1675 
L 701.28 372.1675 
L 701.28 24.6525 
L 53.8475 24.6525 
z
" style="fill: #ffffff"/>
   </g>
   <g id="matplotlib.axis_1">
    <g id="xtick_1">
     <g id="line2d_1">
      <path d="M 92.188842 372.1675 
L 92.188842 24.6525 
" clip-path="url(#pd97a14c904)" style="fill: none; stroke: #cccccc; stroke-opacity: 0.3; stroke-width: 0.5; stroke-linecap: round"/>
     </g>
     <g id="text_1">
      <!-- −2 -->
      <g style="fill: #262626" transform="translate(85.347904 387.756875) scale(0.12 -0.12)">
       <defs>
        <path id="ArialMT-2212" d="M 3381 1997 
L 356 1997 
L 356 2522 
L 3381 2522 
L 3381 1997 
z
" transform="scale(0.015625)"/>
        <path id="ArialMT-32" d="M 3222 541 
L 3222 0 
L 194 0 
Q 188 203 259 391 
Q 375 700 629 1000 
Q 884 1300 1366 1694 
Q 2113 2306 2375 2664 
Q 2638 3022 2638 3341 
Q 2638 3675 2398 3904 
Q 2159 4134 1775 4134 
Q 1369 4134 1125 3890 
Q 881 3647 878 3216 
L 300 3275 
Q 359 3922 746 4261 
Q 1134 4600 1788 4600 
Q 2447 4600 2831 4234 
Q 3216 3869 3216 3328 
Q 3216 3053 3103 2787 
Q 2991 2522 2730 2228 
Q 2469 1934 1863 1422 
Q 1356 997 1212 845 
Q 1069 694 975 541 
L 3222 541 
z
" transform="scale(0.015625)"/>
       </defs>
       <use xlink:href="#ArialMT-2212"/>
       <use xlink:href="#ArialMT-32" x="58.398438"/>
      </g>
     </g>
    </g>
    <g id="xtick_2">
     <g id="line2d_2">
      <path d="M 214.106263 372.1675 
L 214.106263 24.6525 
" clip-path="url(#pd97a14c904)" style="fill: none; stroke: #cccccc; stroke-opacity: 0.3; stroke-width: 0.5; stroke-linecap: round"/>
     </g>
     <g id="text_2">
      <!-- 0 -->
      <g style="fill: #262626" transform="translate(210.769701 387.756875) scale(0.12 -0.12)">
       <defs>
        <path id="ArialMT-30" d="M 266 2259 
Q 266 3072 433 3567 
Q 600 4063 929 4331 
Q 1259 4600 1759 4600 
Q 2128 4600 2406 4451 
Q 2684 4303 2865 4023 
Q 3047 3744 3150 3342 
Q 3253 2941 3253 2259 
Q 3253 1453 3087 958 
Q 2922 463 2592 192 
Q 2263 -78 1759 -78 
Q 1097 -78 719 397 
Q 266 969 266 2259 
z
M 844 2259 
Q 844 1131 1108 757 
Q 1372 384 1759 384 
Q 2147 384 2411 759 
Q 2675 1134 2675 2259 
Q 2675 3391 2411 3762 
Q 2147 4134 1753 4134 
Q 1366 4134 1134 3806 
Q 844 3388 844 2259 
z
" transform="scale(0.015625)"/>
       </defs>
       <use xlink:href="#ArialMT-30"/>
      </g>
     </g>
    </g>
    <g id="xtick_3">
     <g id="line2d_3">
      <path d="M 336.023685 372.1675 
L 336.023685 24.6525 
" clip-path="url(#pd97a14c904)" style="fill: none; stroke: #cccccc; stroke-opacity: 0.3; stroke-width: 0.5; stroke-linecap: round"/>
     </g>
     <g id="text_3">
      <!-- 2 -->
      <g style="fill: #262626" transform="translate(332.687123 387.756875) scale(0.12 -0.12)">
       <use xlink:href="#ArialMT-32"/>
      </g>
     </g>
    </g>
    <g id="xtick_4">
     <g id="line2d_4">
      <path d="M 457.941107 372.1675 
L 457.941107 24.6525 
" clip-path="url(#pd97a14c904)" style="fill: none; stroke: #cccccc; stroke-opacity: 0.3; stroke-width: 0.5; stroke-linecap: round"/>
     </g>
     <g id="text_4">
      <!-- 4 -->
      <g style="fill: #262626" transform="translate(454.604544 387.756875) scale(0.12 -0.12)">
       <defs>
        <path id="ArialMT-34" d="M 2069 0 
L 2069 1097 
L 81 1097 
L 81 1613 
L 2172 4581 
L 2631 4581 
L 2631 1613 
L 3250 1613 
L 3250 1097 
L 2631 1097 
L 2631 0 
L 2069 0 
z
M 2069 1613 
L 2069 3678 
L 634 1613 
L 2069 1613 
z
" transform="scale(0.015625)"/>
       </defs>
       <use xlink:href="#ArialMT-34"/>
      </g>
     </g>
    </g>
    <g id="xtick_5">
     <g id="line2d_5">
      <path d="M 579.858528 372.1675 
L 579.858528 24.6525 
" clip-path="url(#pd97a14c904)" style="fill: none; stroke: #cccccc; stroke-opacity: 0.3; stroke-width: 0.5; stroke-linecap: round"/>
     </g>
     <g id="text_5">
      <!-- 6 -->
      <g style="fill: #262626" transform="translate(576.521966 387.756875) scale(0.12 -0.12)">
       <defs>
        <path id="ArialMT-36" d="M 3184 3459 
L 2625 3416 
Q 2550 3747 2413 3897 
Q 2184 4138 1850 4138 
Q 1581 4138 1378 3988 
Q 1113 3794 959 3422 
Q 806 3050 800 2363 
Q 1003 2672 1297 2822 
Q 1591 2972 1913 2972 
Q 2475 2972 2870 2558 
Q 3266 2144 3266 1488 
Q 3266 1056 3080 686 
Q 2894 316 2569 119 
Q 2244 -78 1831 -78 
Q 1128 -78 684 439 
Q 241 956 241 2144 
Q 241 3472 731 4075 
Q 1159 4600 1884 4600 
Q 2425 4600 2770 4297 
Q 3116 3994 3184 3459 
z
M 888 1484 
Q 888 1194 1011 928 
Q 1134 663 1356 523 
Q 1578 384 1822 384 
Q 2178 384 2434 671 
Q 2691 959 2691 1453 
Q 2691 1928 2437 2201 
Q 2184 2475 1800 2475 
Q 1419 2475 1153 2201 
Q 888 1928 888 1484 
z
" transform="scale(0.015625)"/>
       </defs>
       <use xlink:href="#ArialMT-36"/>
      </g>
     </g>
    </g>
    <g id="text_6">
     <!-- Error (%) -->
     <g style="fill: #262626" transform="translate(349.17875 410.333438) scale(0.14 -0.14)">
      <defs>
       <path id="ArialMT-45" d="M 506 0 
L 506 4581 
L 3819 4581 
L 3819 4041 
L 1113 4041 
L 1113 2638 
L 3647 2638 
L 3647 2100 
L 1113 2100 
L 1113 541 
L 3925 541 
L 3925 0 
L 506 0 
z
" transform="scale(0.015625)"/>
       <path id="ArialMT-72" d="M 416 0 
L 416 3319 
L 922 3319 
L 922 2816 
Q 1116 3169 1280 3281 
Q 1444 3394 1641 3394 
Q 1925 3394 2219 3213 
L 2025 2691 
Q 1819 2813 1613 2813 
Q 1428 2813 1281 2702 
Q 1134 2591 1072 2394 
Q 978 2094 978 1738 
L 978 0 
L 416 0 
z
" transform="scale(0.015625)"/>
       <path id="ArialMT-6f" d="M 213 1659 
Q 213 2581 725 3025 
Q 1153 3394 1769 3394 
Q 2453 3394 2887 2945 
Q 3322 2497 3322 1706 
Q 3322 1066 3130 698 
Q 2938 331 2570 128 
Q 2203 -75 1769 -75 
Q 1072 -75 642 372 
Q 213 819 213 1659 
z
M 791 1659 
Q 791 1022 1069 705 
Q 1347 388 1769 388 
Q 2188 388 2466 706 
Q 2744 1025 2744 1678 
Q 2744 2294 2464 2611 
Q 2184 2928 1769 2928 
Q 1347 2928 1069 2612 
Q 791 2297 791 1659 
z
" transform="scale(0.015625)"/>
       <path id="ArialMT-20" transform="scale(0.015625)"/>
       <path id="ArialMT-28" d="M 1497 -1347 
Q 1031 -759 709 28 
Q 388 816 388 1659 
Q 388 2403 628 3084 
Q 909 3875 1497 4659 
L 1900 4659 
Q 1522 4009 1400 3731 
Q 1209 3300 1100 2831 
Q 966 2247 966 1656 
Q 966 153 1900 -1347 
L 1497 -1347 
z
" transform="scale(0.015625)"/>
       <path id="ArialMT-25" d="M 372 3481 
Q 372 3972 619 4315 
Q 866 4659 1334 4659 
Q 1766 4659 2048 4351 
Q 2331 4044 2331 3447 
Q 2331 2866 2045 2552 
Q 1759 2238 1341 2238 
Q 925 2238 648 2547 
Q 372 2856 372 3481 
z
M 1350 4272 
Q 1141 4272 1002 4090 
Q 863 3909 863 3425 
Q 863 2984 1003 2804 
Q 1144 2625 1350 2625 
Q 1563 2625 1702 2806 
Q 1841 2988 1841 3469 
Q 1841 3913 1700 4092 
Q 1559 4272 1350 4272 
z
M 1353 -169 
L 3859 4659 
L 4316 4659 
L 1819 -169 
L 1353 -169 
z
M 3334 1075 
Q 3334 1569 3581 1911 
Q 3828 2253 4300 2253 
Q 4731 2253 5014 1945 
Q 5297 1638 5297 1041 
Q 5297 459 5011 145 
Q 4725 -169 4303 -169 
Q 3888 -169 3611 142 
Q 3334 453 3334 1075 
z
M 4316 1866 
Q 4103 1866 3964 1684 
Q 3825 1503 3825 1019 
Q 3825 581 3965 400 
Q 4106 219 4313 219 
Q 4528 219 4667 400 
Q 4806 581 4806 1063 
Q 4806 1506 4665 1686 
Q 4525 1866 4316 1866 
z
" transform="scale(0.015625)"/>
       <path id="ArialMT-29" d="M 791 -1347 
L 388 -1347 
Q 1322 153 1322 1656 
Q 1322 2244 1188 2822 
Q 1081 3291 891 3722 
Q 769 4003 388 4659 
L 791 4659 
Q 1378 3875 1659 3084 
Q 1900 2403 1900 1659 
Q 1900 816 1576 28 
Q 1253 -759 791 -1347 
z
" transform="scale(0.015625)"/>
      </defs>
      <use xlink:href="#ArialMT-45"/>
      <use xlink:href="#ArialMT-72" x="66.699219"/>
      <use xlink:href="#ArialMT-72" x="100"/>
      <use xlink:href="#ArialMT-6f" x="133.300781"/>
      <use xlink:href="#ArialMT-72" x="188.916016"/>
      <use xlink:href="#ArialMT-20" x="222.216797"/>
      <use xlink:href="#ArialMT-28" x="250"/>
      <use xlink:href="#ArialMT-25" x="283.300781"/>
      <use xlink:href="#ArialMT-29" x="372.216797"/>
     </g>
    </g>
   </g>
   <g id="matplotlib.axis_2">
    <g id="ytick_1">
     <g id="line2d_6">
      <path d="M 53.8475 372.1675 
L 701.28 372.1675 
" clip-path="url(#pd97a14c904)" style="fill: none; stroke: #cccccc; stroke-opacity: 0.3; stroke-width: 0.5; stroke-linecap: round"/>
     </g>
     <g id="text_7">
      <!-- 0.0 -->
      <g style="fill: #262626" transform="translate(30.1675 376.462188) scale(0.12 -0.12)">
       <defs>
        <path id="ArialMT-2e" d="M 581 0 
L 581 641 
L 1222 641 
L 1222 0 
L 581 0 
z
" transform="scale(0.015625)"/>
       </defs>
       <use xlink:href="#ArialMT-30"/>
       <use xlink:href="#ArialMT-2e" x="55.615234"/>
       <use xlink:href="#ArialMT-30" x="83.398438"/>
      </g>
     </g>
    </g>
    <g id="ytick_2">
     <g id="line2d_7">
      <path d="M 53.8475 327.163814 
L 701.28 327.163814 
" clip-path="url(#pd97a14c904)" style="fill: none; stroke: #cccccc; stroke-opacity: 0.3; stroke-width: 0.5; stroke-linecap: round"/>
     </g>
     <g id="text_8">
      <!-- 0.2 -->
      <g style="fill: #262626" transform="translate(30.1675 331.458501) scale(0.12 -0.12)">
       <use xlink:href="#ArialMT-30"/>
       <use xlink:href="#ArialMT-2e" x="55.615234"/>
       <use xlink:href="#ArialMT-32" x="83.398438"/>
      </g>
     </g>
    </g>
    <g id="ytick_3">
     <g id="line2d_8">
      <path d="M 53.8475 282.160128 
L 701.28 282.160128 
" clip-path="url(#pd97a14c904)" style="fill: none; stroke: #cccccc; stroke-opacity: 0.3; stroke-width: 0.5; stroke-linecap: round"/>
     </g>
     <g id="text_9">
      <!-- 0.4 -->
      <g style="fill: #262626" transform="translate(30.1675 286.454815) scale(0.12 -0.12)">
       <use xlink:href="#ArialMT-30"/>
       <use xlink:href="#ArialMT-2e" x="55.615234"/>
       <use xlink:href="#ArialMT-34" x="83.398438"/>
      </g>
     </g>
    </g>
    <g id="ytick_4">
     <g id="line2d_9">
      <path d="M 53.8475 237.156442 
L 701.28 237.156442 
" clip-path="url(#pd97a14c904)" style="fill: none; stroke: #cccccc; stroke-opacity: 0.3; stroke-width: 0.5; stroke-linecap: round"/>
     </g>
     <g id="text_10">
      <!-- 0.6 -->
      <g style="fill: #262626" transform="translate(30.1675 241.451129) scale(0.12 -0.12)">
       <use xlink:href="#ArialMT-30"/>
       <use xlink:href="#ArialMT-2e" x="55.615234"/>
       <use xlink:href="#ArialMT-36" x="83.398438"/>
      </g>
     </g>
    </g>
    <g id="ytick_5">
     <g id="line2d_10">
      <path d="M 53.8475 192.152756 
L 701.28 192.152756 
" clip-path="url(#pd97a14c904)" style="fill: none; stroke: #cccccc; stroke-opacity: 0.3; stroke-width: 0.5; stroke-linecap: round"/>
     </g>
     <g id="text_11">
      <!-- 0.8 -->
      <g style="fill: #262626" transform="translate(30.1675 196.447443) scale(0.12 -0.12)">
       <defs>
        <path id="ArialMT-38" d="M 1131 2484 
Q 781 2613 612 2850 
Q 444 3088 444 3419 
Q 444 3919 803 4259 
Q 1163 4600 1759 4600 
Q 2359 4600 2725 4251 
Q 3091 3903 3091 3403 
Q 3091 3084 2923 2848 
Q 2756 2613 2416 2484 
Q 2838 2347 3058 2040 
Q 3278 1734 3278 1309 
Q 3278 722 2862 322 
Q 2447 -78 1769 -78 
Q 1091 -78 675 323 
Q 259 725 259 1325 
Q 259 1772 486 2073 
Q 713 2375 1131 2484 
z
M 1019 3438 
Q 1019 3113 1228 2906 
Q 1438 2700 1772 2700 
Q 2097 2700 2305 2904 
Q 2513 3109 2513 3406 
Q 2513 3716 2298 3927 
Q 2084 4138 1766 4138 
Q 1444 4138 1231 3931 
Q 1019 3725 1019 3438 
z
M 838 1322 
Q 838 1081 952 856 
Q 1066 631 1291 507 
Q 1516 384 1775 384 
Q 2178 384 2440 643 
Q 2703 903 2703 1303 
Q 2703 1709 2433 1975 
Q 2163 2241 1756 2241 
Q 1359 2241 1098 1978 
Q 838 1716 838 1322 
z
" transform="scale(0.015625)"/>
       </defs>
       <use xlink:href="#ArialMT-30"/>
       <use xlink:href="#ArialMT-2e" x="55.615234"/>
       <use xlink:href="#ArialMT-38" x="83.398438"/>
      </g>
     </g>
    </g>
    <g id="ytick_6">
     <g id="line2d_11">
      <path d="M 53.8475 147.149069 
L 701.28 147.149069 
" clip-path="url(#pd97a14c904)" style="fill: none; stroke: #cccccc; stroke-opacity: 0.3; stroke-width: 0.5; stroke-linecap: round"/>
     </g>
     <g id="text_12">
      <!-- 1.0 -->
      <g style="fill: #262626" transform="translate(30.1675 151.443757) scale(0.12 -0.12)">
       <defs>
        <path id="ArialMT-31" d="M 2384 0 
L 1822 0 
L 1822 3584 
Q 1619 3391 1289 3197 
Q 959 3003 697 2906 
L 697 3450 
Q 1169 3672 1522 3987 
Q 1875 4303 2022 4600 
L 2384 4600 
L 2384 0 
z
" transform="scale(0.015625)"/>
       </defs>
       <use xlink:href="#ArialMT-31"/>
       <use xlink:href="#ArialMT-2e" x="55.615234"/>
       <use xlink:href="#ArialMT-30" x="83.398438"/>
      </g>
     </g>
    </g>
    <g id="ytick_7">
     <g id="line2d_12">
      <path d="M 53.8475 102.145383 
L 701.28 102.145383 
" clip-path="url(#pd97a14c904)" style="fill: none; stroke: #cccccc; stroke-opacity: 0.3; stroke-width: 0.5; stroke-linecap: round"/>
     </g>
     <g id="text_13">
      <!-- 1.2 -->
      <g style="fill: #262626" transform="translate(30.1675 106.440071) scale(0.12 -0.12)">
       <use xlink:href="#ArialMT-31"/>
       <use xlink:href="#ArialMT-2e" x="55.615234"/>
       <use xlink:href="#ArialMT-32" x="83.398438"/>
      </g>
     </g>
    </g>
    <g id="ytick_8">
     <g id="line2d_13">
      <path d="M 53.8475 57.141697 
L 701.28 57.141697 
" clip-path="url(#pd97a14c904)" style="fill: none; stroke: #cccccc; stroke-opacity: 0.3; stroke-width: 0.5; stroke-linecap: round"/>
     </g>
     <g id="text_14">
      <!-- 1.4 -->
      <g style="fill: #262626" transform="translate(30.1675 61.436385) scale(0.12 -0.12)">
       <use xlink:href="#ArialMT-31"/>
       <use xlink:href="#ArialMT-2e" x="55.615234"/>
       <use xlink:href="#ArialMT-34" x="83.398438"/>
      </g>
     </g>
    </g>
    <g id="text_15">
     <!-- Density -->
     <g style="fill: #262626" transform="translate(17.220938 221.750625) rotate(-90) scale(0.14 -0.14)">
      <defs>
       <path id="ArialMT-44" d="M 494 0 
L 494 4581 
L 2072 4581 
Q 2606 4581 2888 4516 
Q 3281 4425 3559 4188 
Q 3922 3881 4101 3404 
Q 4281 2928 4281 2316 
Q 4281 1794 4159 1391 
Q 4038 988 3847 723 
Q 3656 459 3429 307 
Q 3203 156 2883 78 
Q 2563 0 2147 0 
L 494 0 
z
M 1100 541 
L 2078 541 
Q 2531 541 2789 625 
Q 3047 709 3200 863 
Q 3416 1078 3536 1442 
Q 3656 1806 3656 2325 
Q 3656 3044 3420 3430 
Q 3184 3816 2847 3947 
Q 2603 4041 2063 4041 
L 1100 4041 
L 1100 541 
z
" transform="scale(0.015625)"/>
       <path id="ArialMT-65" d="M 2694 1069 
L 3275 997 
Q 3138 488 2766 206 
Q 2394 -75 1816 -75 
Q 1088 -75 661 373 
Q 234 822 234 1631 
Q 234 2469 665 2931 
Q 1097 3394 1784 3394 
Q 2450 3394 2872 2941 
Q 3294 2488 3294 1666 
Q 3294 1616 3291 1516 
L 816 1516 
Q 847 969 1125 678 
Q 1403 388 1819 388 
Q 2128 388 2347 550 
Q 2566 713 2694 1069 
z
M 847 1978 
L 2700 1978 
Q 2663 2397 2488 2606 
Q 2219 2931 1791 2931 
Q 1403 2931 1139 2672 
Q 875 2413 847 1978 
z
" transform="scale(0.015625)"/>
       <path id="ArialMT-6e" d="M 422 0 
L 422 3319 
L 928 3319 
L 928 2847 
Q 1294 3394 1984 3394 
Q 2284 3394 2536 3286 
Q 2788 3178 2913 3003 
Q 3038 2828 3088 2588 
Q 3119 2431 3119 2041 
L 3119 0 
L 2556 0 
L 2556 2019 
Q 2556 2363 2490 2533 
Q 2425 2703 2258 2804 
Q 2091 2906 1866 2906 
Q 1506 2906 1245 2678 
Q 984 2450 984 1813 
L 984 0 
L 422 0 
z
" transform="scale(0.015625)"/>
       <path id="ArialMT-73" d="M 197 991 
L 753 1078 
Q 800 744 1014 566 
Q 1228 388 1613 388 
Q 2000 388 2187 545 
Q 2375 703 2375 916 
Q 2375 1106 2209 1216 
Q 2094 1291 1634 1406 
Q 1016 1563 777 1677 
Q 538 1791 414 1992 
Q 291 2194 291 2438 
Q 291 2659 392 2848 
Q 494 3038 669 3163 
Q 800 3259 1026 3326 
Q 1253 3394 1513 3394 
Q 1903 3394 2198 3281 
Q 2494 3169 2634 2976 
Q 2775 2784 2828 2463 
L 2278 2388 
Q 2241 2644 2061 2787 
Q 1881 2931 1553 2931 
Q 1166 2931 1000 2803 
Q 834 2675 834 2503 
Q 834 2394 903 2306 
Q 972 2216 1119 2156 
Q 1203 2125 1616 2013 
Q 2213 1853 2448 1751 
Q 2684 1650 2818 1456 
Q 2953 1263 2953 975 
Q 2953 694 2789 445 
Q 2625 197 2315 61 
Q 2006 -75 1616 -75 
Q 969 -75 630 194 
Q 291 463 197 991 
z
" transform="scale(0.015625)"/>
       <path id="ArialMT-69" d="M 425 3934 
L 425 4581 
L 988 4581 
L 988 3934 
L 425 3934 
z
M 425 0 
L 425 3319 
L 988 3319 
L 988 0 
L 425 0 
z
" transform="scale(0.015625)"/>
       <path id="ArialMT-74" d="M 1650 503 
L 1731 6 
Q 1494 -44 1306 -44 
Q 1000 -44 831 53 
Q 663 150 594 308 
Q 525 466 525 972 
L 525 2881 
L 113 2881 
L 113 3319 
L 525 3319 
L 525 4141 
L 1084 4478 
L 1084 3319 
L 1650 3319 
L 1650 2881 
L 1084 2881 
L 1084 941 
Q 1084 700 1114 631 
Q 1144 563 1211 522 
Q 1278 481 1403 481 
Q 1497 481 1650 503 
z
" transform="scale(0.015625)"/>
       <path id="ArialMT-79" d="M 397 -1278 
L 334 -750 
Q 519 -800 656 -800 
Q 844 -800 956 -737 
Q 1069 -675 1141 -563 
Q 1194 -478 1313 -144 
Q 1328 -97 1363 -6 
L 103 3319 
L 709 3319 
L 1400 1397 
Q 1534 1031 1641 628 
Q 1738 1016 1872 1384 
L 2581 3319 
L 3144 3319 
L 1881 -56 
Q 1678 -603 1566 -809 
Q 1416 -1088 1222 -1217 
Q 1028 -1347 759 -1347 
Q 597 -1347 397 -1278 
z
" transform="scale(0.015625)"/>
      </defs>
      <use xlink:href="#ArialMT-44"/>
      <use xlink:href="#ArialMT-65" x="72.216797"/>
      <use xlink:href="#ArialMT-6e" x="127.832031"/>
      <use xlink:href="#ArialMT-73" x="183.447266"/>
      <use xlink:href="#ArialMT-69" x="233.447266"/>
      <use xlink:href="#ArialMT-74" x="255.664062"/>
      <use xlink:href="#ArialMT-79" x="283.447266"/>
     </g>
    </g>
   </g>
   <g id="PolyCollection_1">
    <defs>
     <path id="mceb948c4c1" d="M 83.27625 -48.48113 
L 83.27625 -48.3125 
L 86.233913 -48.3125 
L 89.191577 -48.3125 
L 92.14924 -48.3125 
L 95.106903 -48.3125 
L 98.064567 -48.3125 
L 101.02223 -48.3125 
L 103.979893 -48.3125 
L 106.937557 -48.3125 
L 109.89522 -48.3125 
L 112.852883 -48.3125 
L 115.810546 -48.3125 
L 118.76821 -48.3125 
L 121.725873 -48.3125 
L 124.683536 -48.3125 
L 127.6412 -48.3125 
L 130.598863 -48.3125 
L 133.556526 -48.3125 
L 136.51419 -48.3125 
L 139.471853 -48.3125 
L 142.429516 -48.3125 
L 145.38718 -48.3125 
L 148.344843 -48.3125 
L 151.302506 -48.3125 
L 154.26017 -48.3125 
L 157.217833 -48.3125 
L 160.175496 -48.3125 
L 163.13316 -48.3125 
L 166.090823 -48.3125 
L 169.048486 -48.3125 
L 172.006149 -48.3125 
L 174.963813 -48.3125 
L 177.921476 -48.3125 
L 180.879139 -48.3125 
L 183.836803 -48.3125 
L 186.794466 -48.3125 
L 189.752129 -48.3125 
L 192.709793 -48.3125 
L 195.667456 -48.3125 
L 198.625119 -48.3125 
L 201.582783 -48.3125 
L 204.540446 -48.3125 
L 207.498109 -48.3125 
L 210.455773 -48.3125 
L 213.413436 -48.3125 
L 216.371099 -48.3125 
L 219.328763 -48.3125 
L 222.286426 -48.3125 
L 225.244089 -48.3125 
L 228.201753 -48.3125 
L 231.159416 -48.3125 
L 234.117079 -48.3125 
L 237.074742 -48.3125 
L 240.032406 -48.3125 
L 242.990069 -48.3125 
L 245.947732 -48.3125 
L 248.905396 -48.3125 
L 251.863059 -48.3125 
L 254.820722 -48.3125 
L 257.778386 -48.3125 
L 260.736049 -48.3125 
L 263.693712 -48.3125 
L 266.651376 -48.3125 
L 269.609039 -48.3125 
L 272.566702 -48.3125 
L 275.524366 -48.3125 
L 278.482029 -48.3125 
L 281.439692 -48.3125 
L 284.397356 -48.3125 
L 287.355019 -48.3125 
L 290.312682 -48.3125 
L 293.270345 -48.3125 
L 296.228009 -48.3125 
L 299.185672 -48.3125 
L 302.143335 -48.3125 
L 305.100999 -48.3125 
L 308.058662 -48.3125 
L 311.016325 -48.3125 
L 313.973989 -48.3125 
L 316.931652 -48.3125 
L 319.889315 -48.3125 
L 322.846979 -48.3125 
L 325.804642 -48.3125 
L 328.762305 -48.3125 
L 331.719969 -48.3125 
L 334.677632 -48.3125 
L 337.635295 -48.3125 
L 340.592959 -48.3125 
L 343.550622 -48.3125 
L 346.508285 -48.3125 
L 349.465948 -48.3125 
L 352.423612 -48.3125 
L 355.381275 -48.3125 
L 358.338938 -48.3125 
L 361.296602 -48.3125 
L 364.254265 -48.3125 
L 367.211928 -48.3125 
L 370.169592 -48.3125 
L 373.127255 -48.3125 
L 376.084918 -48.3125 
L 379.042582 -48.3125 
L 382.000245 -48.3125 
L 384.957908 -48.3125 
L 387.915572 -48.3125 
L 390.873235 -48.3125 
L 393.830898 -48.3125 
L 396.788562 -48.3125 
L 399.746225 -48.3125 
L 402.703888 -48.3125 
L 405.661552 -48.3125 
L 408.619215 -48.3125 
L 411.576878 -48.3125 
L 414.534541 -48.3125 
L 417.492205 -48.3125 
L 420.449868 -48.3125 
L 423.407531 -48.3125 
L 426.365195 -48.3125 
L 429.322858 -48.3125 
L 432.280521 -48.3125 
L 435.238185 -48.3125 
L 438.195848 -48.3125 
L 441.153511 -48.3125 
L 444.111175 -48.3125 
L 447.068838 -48.3125 
L 450.026501 -48.3125 
L 452.984165 -48.3125 
L 455.941828 -48.3125 
L 458.899491 -48.3125 
L 461.857155 -48.3125 
L 464.814818 -48.3125 
L 467.772481 -48.3125 
L 470.730144 -48.3125 
L 473.687808 -48.3125 
L 476.645471 -48.3125 
L 479.603134 -48.3125 
L 482.560798 -48.3125 
L 485.518461 -48.3125 
L 488.476124 -48.3125 
L 491.433788 -48.3125 
L 494.391451 -48.3125 
L 497.349114 -48.3125 
L 500.306778 -48.3125 
L 503.264441 -48.3125 
L 506.222104 -48.3125 
L 509.179768 -48.3125 
L 512.137431 -48.3125 
L 515.095094 -48.3125 
L 518.052758 -48.3125 
L 521.010421 -48.3125 
L 523.968084 -48.3125 
L 526.925747 -48.3125 
L 529.883411 -48.3125 
L 532.841074 -48.3125 
L 535.798737 -48.3125 
L 538.756401 -48.3125 
L 541.714064 -48.3125 
L 544.671727 -48.3125 
L 547.629391 -48.3125 
L 550.587054 -48.3125 
L 553.544717 -48.3125 
L 556.502381 -48.3125 
L 559.460044 -48.3125 
L 562.417707 -48.3125 
L 565.375371 -48.3125 
L 568.333034 -48.3125 
L 571.290697 -48.3125 
L 574.248361 -48.3125 
L 577.206024 -48.3125 
L 580.163687 -48.3125 
L 583.121351 -48.3125 
L 586.079014 -48.3125 
L 589.036677 -48.3125 
L 591.99434 -48.3125 
L 594.952004 -48.3125 
L 597.909667 -48.3125 
L 600.86733 -48.3125 
L 603.824994 -48.3125 
L 606.782657 -48.3125 
L 609.74032 -48.3125 
L 612.697984 -48.3125 
L 615.655647 -48.3125 
L 618.61331 -48.3125 
L 621.570974 -48.3125 
L 624.528637 -48.3125 
L 627.4863 -48.3125 
L 630.443964 -48.3125 
L 633.401627 -48.3125 
L 636.35929 -48.3125 
L 639.316954 -48.3125 
L 642.274617 -48.3125 
L 645.23228 -48.3125 
L 648.189943 -48.3125 
L 651.147607 -48.3125 
L 654.10527 -48.3125 
L 657.062933 -48.3125 
L 660.020597 -48.3125 
L 662.97826 -48.3125 
L 665.935923 -48.3125 
L 668.893587 -48.3125 
L 671.85125 -48.3125 
L 671.85125 -48.353066 
L 671.85125 -48.353066 
L 668.893587 -48.362238 
L 665.935923 -48.373224 
L 662.97826 -48.386324 
L 660.020597 -48.401873 
L 657.062933 -48.420244 
L 654.10527 -48.441851 
L 651.147607 -48.467151 
L 648.189943 -48.496641 
L 645.23228 -48.530861 
L 642.274617 -48.570396 
L 639.316954 -48.615869 
L 636.35929 -48.667944 
L 633.401627 -48.727322 
L 630.443964 -48.794737 
L 627.4863 -48.870952 
L 624.528637 -48.956754 
L 621.570974 -49.052949 
L 618.61331 -49.160354 
L 615.655647 -49.279792 
L 612.697984 -49.412082 
L 609.74032 -49.558035 
L 606.782657 -49.718442 
L 603.824994 -49.894068 
L 600.86733 -50.085642 
L 597.909667 -50.293851 
L 594.952004 -50.519334 
L 591.99434 -50.762666 
L 589.036677 -51.024361 
L 586.079014 -51.304858 
L 583.121351 -51.604514 
L 580.163687 -51.9236 
L 577.206024 -52.262291 
L 574.248361 -52.620661 
L 571.290697 -52.998674 
L 568.333034 -53.396175 
L 565.375371 -53.812883 
L 562.417707 -54.248381 
L 559.460044 -54.702107 
L 556.502381 -55.173345 
L 553.544717 -55.661214 
L 550.587054 -56.164656 
L 547.629391 -56.682432 
L 544.671727 -57.213109 
L 541.714064 -57.755057 
L 538.756401 -58.306441 
L 535.798737 -58.865224 
L 532.841074 -59.429169 
L 529.883411 -59.995847 
L 526.925747 -60.562648 
L 523.968084 -61.126802 
L 521.010421 -61.685407 
L 518.052758 -62.235458 
L 515.095094 -62.77389 
L 512.137431 -63.297623 
L 509.179768 -63.803617 
L 506.222104 -64.288932 
L 503.264441 -64.750788 
L 500.306778 -65.18664 
L 497.349114 -65.594244 
L 494.391451 -65.971728 
L 491.433788 -66.317662 
L 488.476124 -66.631126 
L 485.518461 -66.911765 
L 482.560798 -67.159848 
L 479.603134 -67.376305 
L 476.645471 -67.562762 
L 473.687808 -67.721553 
L 470.730144 -67.85573 
L 467.772481 -67.969043 
L 464.814818 -68.065913 
L 461.857155 -68.151386 
L 458.899491 -68.231069 
L 455.941828 -68.311054 
L 452.984165 -68.39782 
L 450.026501 -68.49813 
L 447.068838 -68.618918 
L 444.111175 -68.767155 
L 441.153511 -68.949725 
L 438.195848 -69.173287 
L 435.238185 -69.444142 
L 432.280521 -69.768101 
L 429.322858 -70.150357 
L 426.365195 -70.595369 
L 423.407531 -71.106761 
L 420.449868 -71.68722 
L 417.492205 -72.338432 
L 414.534541 -73.061015 
L 411.576878 -73.854487 
L 408.619215 -74.717249 
L 405.661552 -75.646588 
L 402.703888 -76.638702 
L 399.746225 -77.688756 
L 396.788562 -78.790942 
L 393.830898 -79.938577 
L 390.873235 -81.124206 
L 387.915572 -82.339733 
L 384.957908 -83.576557 
L 382.000245 -84.825724 
L 379.042582 -86.078091 
L 376.084918 -87.32449 
L 373.127255 -88.555897 
L 370.169592 -89.7636 
L 367.211928 -90.939358 
L 364.254265 -92.075555 
L 361.296602 -93.165336 
L 358.338938 -94.202735 
L 355.381275 -95.182769 
L 352.423612 -96.101526 
L 349.465948 -96.956212 
L 346.508285 -97.745182 
L 343.550622 -98.467938 
L 340.592959 -99.125099 
L 337.635295 -99.718344 
L 334.677632 -100.250325 
L 331.719969 -100.72456 
L 328.762305 -101.145296 
L 325.804642 -101.517359 
L 322.846979 -101.845987 
L 319.889315 -102.136651 
L 316.931652 -102.394868 
L 313.973989 -102.626022 
L 311.016325 -102.835175 
L 308.058662 -103.0269 
L 305.100999 -103.205118 
L 302.143335 -103.372962 
L 299.185672 -103.532656 
L 296.228009 -103.685421 
L 293.270345 -103.831412 
L 290.312682 -103.969682 
L 287.355019 -104.098178 
L 284.397356 -104.213767 
L 281.439692 -104.312294 
L 278.482029 -104.388665 
L 275.524366 -104.436962 
L 272.566702 -104.450578 
L 269.609039 -104.422376 
L 266.651376 -104.344855 
L 263.693712 -104.210343 
L 260.736049 -104.011184 
L 257.778386 -103.739935 
L 254.820722 -103.389557 
L 251.863059 -102.953604 
L 248.905396 -102.426393 
L 245.947732 -101.803165 
L 242.990069 -101.080226 
L 240.032406 -100.255059 
L 237.074742 -99.32642 
L 234.117079 -98.294395 
L 231.159416 -97.16044 
L 228.201753 -95.927382 
L 225.244089 -94.599395 
L 222.286426 -93.181945 
L 219.328763 -91.681708 
L 216.371099 -90.106466 
L 213.413436 -88.464976 
L 210.455773 -86.766821 
L 207.498109 -85.022252 
L 204.540446 -83.24201 
L 201.582783 -81.437148 
L 198.625119 -79.618847 
L 195.667456 -77.798239 
L 192.709793 -75.98623 
L 189.752129 -74.193336 
L 186.794466 -72.429537 
L 183.836803 -70.704141 
L 180.879139 -69.025669 
L 177.921476 -67.401764 
L 174.963813 -65.839118 
L 172.006149 -64.343421 
L 169.048486 -62.91934 
L 166.090823 -61.570506 
L 163.13316 -60.299535 
L 160.175496 -59.108059 
L 157.217833 -57.996772 
L 154.26017 -56.9655 
L 151.302506 -56.013272 
L 148.344843 -55.138403 
L 145.38718 -54.338583 
L 142.429516 -53.610973 
L 139.471853 -52.952294 
L 136.51419 -52.358925 
L 133.556526 -51.826984 
L 130.598863 -51.35242 
L 127.6412 -50.931083 
L 124.683536 -50.558802 
L 121.725873 -50.231439 
L 118.76821 -49.944951 
L 115.810546 -49.695427 
L 112.852883 -49.479131 
L 109.89522 -49.292527 
L 106.937557 -49.132301 
L 103.979893 -48.995373 
L 101.02223 -48.878906 
L 98.064567 -48.780309 
L 95.106903 -48.697232 
L 92.14924 -48.62756 
L 89.191577 -48.569404 
L 86.233913 -48.521086 
L 83.27625 -48.48113 
z
" style="stroke: #2ecc71"/>
    </defs>
    <g clip-path="url(#pd97a14c904)">
     <use xlink:href="#mceb948c4c1" x="0" y="420.48" style="fill: #2ecc71; fill-opacity: 0.3; stroke: #2ecc71"/>
    </g>
   </g>
   <g id="PolyCollection_2">
    <defs>
     <path id="md447a4d60e" d="M 184.107618 -50.208376 
L 184.107618 -48.3125 
L 184.655874 -48.3125 
L 185.204129 -48.3125 
L 185.752384 -48.3125 
L 186.30064 -48.3125 
L 186.848895 -48.3125 
L 187.397151 -48.3125 
L 187.945406 -48.3125 
L 188.493661 -48.3125 
L 189.041917 -48.3125 
L 189.590172 -48.3125 
L 190.138427 -48.3125 
L 190.686683 -48.3125 
L 191.234938 -48.3125 
L 191.783193 -48.3125 
L 192.331449 -48.3125 
L 192.879704 -48.3125 
L 193.42796 -48.3125 
L 193.976215 -48.3125 
L 194.52447 -48.3125 
L 195.072726 -48.3125 
L 195.620981 -48.3125 
L 196.169236 -48.3125 
L 196.717492 -48.3125 
L 197.265747 -48.3125 
L 197.814003 -48.3125 
L 198.362258 -48.3125 
L 198.910513 -48.3125 
L 199.458769 -48.3125 
L 200.007024 -48.3125 
L 200.555279 -48.3125 
L 201.103535 -48.3125 
L 201.65179 -48.3125 
L 202.200045 -48.3125 
L 202.748301 -48.3125 
L 203.296556 -48.3125 
L 203.844812 -48.3125 
L 204.393067 -48.3125 
L 204.941322 -48.3125 
L 205.489578 -48.3125 
L 206.037833 -48.3125 
L 206.586088 -48.3125 
L 207.134344 -48.3125 
L 207.682599 -48.3125 
L 208.230854 -48.3125 
L 208.77911 -48.3125 
L 209.327365 -48.3125 
L 209.875621 -48.3125 
L 210.423876 -48.3125 
L 210.972131 -48.3125 
L 211.520387 -48.3125 
L 212.068642 -48.3125 
L 212.616897 -48.3125 
L 213.165153 -48.3125 
L 213.713408 -48.3125 
L 214.261664 -48.3125 
L 214.809919 -48.3125 
L 215.358174 -48.3125 
L 215.90643 -48.3125 
L 216.454685 -48.3125 
L 217.00294 -48.3125 
L 217.551196 -48.3125 
L 218.099451 -48.3125 
L 218.647706 -48.3125 
L 219.195962 -48.3125 
L 219.744217 -48.3125 
L 220.292473 -48.3125 
L 220.840728 -48.3125 
L 221.388983 -48.3125 
L 221.937239 -48.3125 
L 222.485494 -48.3125 
L 223.033749 -48.3125 
L 223.582005 -48.3125 
L 224.13026 -48.3125 
L 224.678515 -48.3125 
L 225.226771 -48.3125 
L 225.775026 -48.3125 
L 226.323282 -48.3125 
L 226.871537 -48.3125 
L 227.419792 -48.3125 
L 227.968048 -48.3125 
L 228.516303 -48.3125 
L 229.064558 -48.3125 
L 229.612814 -48.3125 
L 230.161069 -48.3125 
L 230.709325 -48.3125 
L 231.25758 -48.3125 
L 231.805835 -48.3125 
L 232.354091 -48.3125 
L 232.902346 -48.3125 
L 233.450601 -48.3125 
L 233.998857 -48.3125 
L 234.547112 -48.3125 
L 235.095367 -48.3125 
L 235.643623 -48.3125 
L 236.191878 -48.3125 
L 236.740134 -48.3125 
L 237.288389 -48.3125 
L 237.836644 -48.3125 
L 238.3849 -48.3125 
L 238.933155 -48.3125 
L 239.48141 -48.3125 
L 240.029666 -48.3125 
L 240.577921 -48.3125 
L 241.126176 -48.3125 
L 241.674432 -48.3125 
L 242.222687 -48.3125 
L 242.770943 -48.3125 
L 243.319198 -48.3125 
L 243.867453 -48.3125 
L 244.415709 -48.3125 
L 244.963964 -48.3125 
L 245.512219 -48.3125 
L 246.060475 -48.3125 
L 246.60873 -48.3125 
L 247.156986 -48.3125 
L 247.705241 -48.3125 
L 248.253496 -48.3125 
L 248.801752 -48.3125 
L 249.350007 -48.3125 
L 249.898262 -48.3125 
L 250.446518 -48.3125 
L 250.994773 -48.3125 
L 251.543028 -48.3125 
L 252.091284 -48.3125 
L 252.639539 -48.3125 
L 253.187795 -48.3125 
L 253.73605 -48.3125 
L 254.284305 -48.3125 
L 254.832561 -48.3125 
L 255.380816 -48.3125 
L 255.929071 -48.3125 
L 256.477327 -48.3125 
L 257.025582 -48.3125 
L 257.573837 -48.3125 
L 258.122093 -48.3125 
L 258.670348 -48.3125 
L 259.218604 -48.3125 
L 259.766859 -48.3125 
L 260.315114 -48.3125 
L 260.86337 -48.3125 
L 261.411625 -48.3125 
L 261.95988 -48.3125 
L 262.508136 -48.3125 
L 263.056391 -48.3125 
L 263.604647 -48.3125 
L 264.152902 -48.3125 
L 264.701157 -48.3125 
L 265.249413 -48.3125 
L 265.797668 -48.3125 
L 266.345923 -48.3125 
L 266.894179 -48.3125 
L 267.442434 -48.3125 
L 267.990689 -48.3125 
L 268.538945 -48.3125 
L 269.0872 -48.3125 
L 269.635456 -48.3125 
L 270.183711 -48.3125 
L 270.731966 -48.3125 
L 271.280222 -48.3125 
L 271.828477 -48.3125 
L 272.376732 -48.3125 
L 272.924988 -48.3125 
L 273.473243 -48.3125 
L 274.021498 -48.3125 
L 274.569754 -48.3125 
L 275.118009 -48.3125 
L 275.666265 -48.3125 
L 276.21452 -48.3125 
L 276.762775 -48.3125 
L 277.311031 -48.3125 
L 277.859286 -48.3125 
L 278.407541 -48.3125 
L 278.955797 -48.3125 
L 279.504052 -48.3125 
L 280.052308 -48.3125 
L 280.600563 -48.3125 
L 281.148818 -48.3125 
L 281.697074 -48.3125 
L 282.245329 -48.3125 
L 282.793584 -48.3125 
L 283.34184 -48.3125 
L 283.890095 -48.3125 
L 284.43835 -48.3125 
L 284.986606 -48.3125 
L 285.534861 -48.3125 
L 286.083117 -48.3125 
L 286.631372 -48.3125 
L 287.179627 -48.3125 
L 287.727883 -48.3125 
L 288.276138 -48.3125 
L 288.824393 -48.3125 
L 289.372649 -48.3125 
L 289.920904 -48.3125 
L 290.469159 -48.3125 
L 291.017415 -48.3125 
L 291.56567 -48.3125 
L 292.113926 -48.3125 
L 292.662181 -48.3125 
L 293.210436 -48.3125 
L 293.210436 -49.550601 
L 293.210436 -49.550601 
L 292.662181 -49.726713 
L 292.113926 -49.924658 
L 291.56567 -50.146649 
L 291.017415 -50.395051 
L 290.469159 -50.672387 
L 289.920904 -50.981331 
L 289.372649 -51.324711 
L 288.824393 -51.705502 
L 288.276138 -52.126824 
L 287.727883 -52.591927 
L 287.179627 -53.104187 
L 286.631372 -53.667091 
L 286.083117 -54.284216 
L 285.534861 -54.959217 
L 284.986606 -55.695802 
L 284.43835 -56.497707 
L 283.890095 -57.368668 
L 283.34184 -58.312393 
L 282.793584 -59.332522 
L 282.245329 -60.4326 
L 281.697074 -61.61603 
L 281.148818 -62.886033 
L 280.600563 -64.245609 
L 280.052308 -65.697487 
L 279.504052 -67.244083 
L 278.955797 -68.887448 
L 278.407541 -70.629227 
L 277.859286 -72.470607 
L 277.311031 -74.412273 
L 276.762775 -76.454368 
L 276.21452 -78.596447 
L 275.666265 -80.837441 
L 275.118009 -83.175623 
L 274.569754 -85.608581 
L 274.021498 -88.133194 
L 273.473243 -90.745614 
L 272.924988 -93.44126 
L 272.376732 -96.214814 
L 271.828477 -99.060228 
L 271.280222 -101.970745 
L 270.731966 -104.938919 
L 270.183711 -107.956656 
L 269.635456 -111.015256 
L 269.0872 -114.105473 
L 268.538945 -117.217578 
L 267.990689 -120.341439 
L 267.442434 -123.466604 
L 266.894179 -126.582398 
L 266.345923 -129.678027 
L 265.797668 -132.742687 
L 265.249413 -135.765687 
L 264.701157 -138.736563 
L 264.152902 -141.645217 
L 263.604647 -144.482036 
L 263.056391 -147.238032 
L 262.508136 -149.904966 
L 261.95988 -152.475481 
L 261.411625 -154.943225 
L 260.86337 -157.30297 
L 260.315114 -159.550722 
L 259.766859 -161.683823 
L 259.218604 -163.701044 
L 258.670348 -165.602661 
L 258.122093 -167.390516 
L 257.573837 -169.068069 
L 257.025582 -170.640426 
L 256.477327 -172.114352 
L 255.929071 -173.498263 
L 255.380816 -174.802199 
L 254.832561 -176.037778 
L 254.284305 -177.218123 
L 253.73605 -178.357782 
L 253.187795 -179.472608 
L 252.639539 -180.579637 
L 252.091284 -181.696936 
L 251.543028 -182.843439 
L 250.994773 -184.038759 
L 250.446518 -185.302992 
L 249.898262 -186.656507 
L 249.350007 -188.119717 
L 248.801752 -189.71285 
L 248.253496 -191.455707 
L 247.705241 -193.36742 
L 247.156986 -195.466204 
L 246.60873 -197.769113 
L 246.060475 -200.291801 
L 245.512219 -203.048287 
L 244.963964 -206.05073 
L 244.415709 -209.30922 
L 243.867453 -212.831581 
L 243.319198 -216.62319 
L 242.770943 -220.686827 
L 242.222687 -225.022532 
L 241.674432 -229.627505 
L 241.126176 -234.496013 
L 240.577921 -239.619345 
L 240.029666 -244.985787 
L 239.48141 -250.580625 
L 238.933155 -256.386188 
L 238.3849 -262.38192 
L 237.836644 -268.544479 
L 237.288389 -274.847876 
L 236.740134 -281.263636 
L 236.191878 -287.760998 
L 235.643623 -294.307133 
L 235.095367 -300.867397 
L 234.547112 -307.405598 
L 233.998857 -313.884295 
L 233.450601 -320.265103 
L 232.902346 -326.509027 
L 232.354091 -332.57679 
L 231.805835 -338.429186 
L 231.25758 -344.027424 
L 230.709325 -349.333479 
L 230.161069 -354.310435 
L 229.612814 -358.922824 
L 229.064558 -363.13695 
L 228.516303 -366.921201 
L 227.968048 -370.246337 
L 227.419792 -373.085756 
L 226.871537 -375.415746 
L 226.323282 -377.215688 
L 225.775026 -378.468248 
L 225.226771 -379.159525 
L 224.678515 -379.279167 
L 224.13026 -378.820453 
L 223.582005 -377.780338 
L 223.033749 -376.159462 
L 222.485494 -373.962119 
L 221.937239 -371.196198 
L 221.388983 -367.873082 
L 220.840728 -364.007517 
L 220.292473 -359.617453 
L 219.744217 -354.72385 
L 219.195962 -349.350466 
L 218.647706 -343.523614 
L 218.099451 -337.271905 
L 217.551196 -330.625973 
L 217.00294 -323.618186 
L 216.454685 -316.282348 
L 215.90643 -308.653396 
L 215.358174 -300.767098 
L 214.809919 -292.659743 
L 214.261664 -284.367848 
L 213.713408 -275.927861 
L 213.165153 -267.375888 
L 212.616897 -258.747419 
L 212.068642 -250.077086 
L 211.520387 -241.398423 
L 210.972131 -232.743661 
L 210.423876 -224.143535 
L 209.875621 -215.627118 
L 209.327365 -207.221677 
L 208.77911 -198.952553 
L 208.230854 -190.843067 
L 207.682599 -182.914449 
L 207.134344 -175.18579 
L 206.586088 -167.674017 
L 206.037833 -160.393888 
L 205.489578 -153.358011 
L 204.941322 -146.576881 
L 204.393067 -140.058933 
L 203.844812 -133.810609 
L 203.296556 -127.836443 
L 202.748301 -122.139159 
L 202.200045 -116.719772 
L 201.65179 -111.577703 
L 201.103535 -106.710903 
L 200.555279 -102.115971 
L 200.007024 -97.78829 
L 199.458769 -93.722146 
L 198.910513 -89.910869 
L 198.362258 -86.346948 
L 197.814003 -83.022164 
L 197.265747 -79.927705 
L 196.717492 -77.054286 
L 196.169236 -74.392253 
L 195.620981 -71.931691 
L 195.072726 -69.662515 
L 194.52447 -67.574564 
L 193.976215 -65.657677 
L 193.42796 -63.901769 
L 192.879704 -62.296895 
L 192.331449 -60.833308 
L 191.783193 -59.501507 
L 191.234938 -58.292282 
L 190.686683 -57.196749 
L 190.138427 -56.206376 
L 189.590172 -55.313009 
L 189.041917 -54.508886 
L 188.493661 -53.786649 
L 187.945406 -53.139351 
L 187.397151 -52.560455 
L 186.848895 -52.043839 
L 186.30064 -51.583781 
L 185.752384 -51.174958 
L 185.204129 -50.812434 
L 184.655874 -50.491642 
L 184.107618 -50.208376 
z
" style="stroke: #e74c3c"/>
    </defs>
    <g clip-path="url(#pd97a14c904)">
     <use xlink:href="#md447a4d60e" x="0" y="420.48" style="fill: #e74c3c; fill-opacity: 0.3; stroke: #e74c3c"/>
    </g>
   </g>
   <g id="patch_3">
    <path d="M 53.8475 372.1675 
L 53.8475 24.6525 
" style="fill: none; stroke: #cccccc; stroke-width: 1.5; stroke-linejoin: miter; stroke-linecap: square"/>
   </g>
   <g id="patch_4">
    <path d="M 53.8475 372.1675 
L 701.28 372.1675 
" style="fill: none; stroke: #cccccc; stroke-width: 1.5; stroke-linejoin: miter; stroke-linecap: square"/>
   </g>
   <g id="text_16">
    <!-- Distribution of Absolute Errors -->
    <g style="fill: #262626" transform="translate(271.74375 18.6525) scale(0.16 -0.16)">
     <defs>
      <path id="ArialMT-62" d="M 941 0 
L 419 0 
L 419 4581 
L 981 4581 
L 981 2947 
Q 1338 3394 1891 3394 
Q 2197 3394 2470 3270 
Q 2744 3147 2920 2923 
Q 3097 2700 3197 2384 
Q 3297 2069 3297 1709 
Q 3297 856 2875 390 
Q 2453 -75 1863 -75 
Q 1275 -75 941 416 
L 941 0 
z
M 934 1684 
Q 934 1088 1097 822 
Q 1363 388 1816 388 
Q 2184 388 2453 708 
Q 2722 1028 2722 1663 
Q 2722 2313 2464 2622 
Q 2206 2931 1841 2931 
Q 1472 2931 1203 2611 
Q 934 2291 934 1684 
z
" transform="scale(0.015625)"/>
      <path id="ArialMT-75" d="M 2597 0 
L 2597 488 
Q 2209 -75 1544 -75 
Q 1250 -75 995 37 
Q 741 150 617 320 
Q 494 491 444 738 
Q 409 903 409 1263 
L 409 3319 
L 972 3319 
L 972 1478 
Q 972 1038 1006 884 
Q 1059 663 1231 536 
Q 1403 409 1656 409 
Q 1909 409 2131 539 
Q 2353 669 2445 892 
Q 2538 1116 2538 1541 
L 2538 3319 
L 3100 3319 
L 3100 0 
L 2597 0 
z
" transform="scale(0.015625)"/>
      <path id="ArialMT-66" d="M 556 0 
L 556 2881 
L 59 2881 
L 59 3319 
L 556 3319 
L 556 3672 
Q 556 4006 616 4169 
Q 697 4388 901 4523 
Q 1106 4659 1475 4659 
Q 1713 4659 2000 4603 
L 1916 4113 
Q 1741 4144 1584 4144 
Q 1328 4144 1222 4034 
Q 1116 3925 1116 3625 
L 1116 3319 
L 1763 3319 
L 1763 2881 
L 1116 2881 
L 1116 0 
L 556 0 
z
" transform="scale(0.015625)"/>
      <path id="ArialMT-41" d="M -9 0 
L 1750 4581 
L 2403 4581 
L 4278 0 
L 3588 0 
L 3053 1388 
L 1138 1388 
L 634 0 
L -9 0 
z
M 1313 1881 
L 2866 1881 
L 2388 3150 
Q 2169 3728 2063 4100 
Q 1975 3659 1816 3225 
L 1313 1881 
z
" transform="scale(0.015625)"/>
      <path id="ArialMT-6c" d="M 409 0 
L 409 4581 
L 972 4581 
L 972 0 
L 409 0 
z
" transform="scale(0.015625)"/>
     </defs>
     <use xlink:href="#ArialMT-44"/>
     <use xlink:href="#ArialMT-69" x="72.216797"/>
     <use xlink:href="#ArialMT-73" x="94.433594"/>
     <use xlink:href="#ArialMT-74" x="144.433594"/>
     <use xlink:href="#ArialMT-72" x="172.216797"/>
     <use xlink:href="#ArialMT-69" x="205.517578"/>
     <use xlink:href="#ArialMT-62" x="227.734375"/>
     <use xlink:href="#ArialMT-75" x="283.349609"/>
     <use xlink:href="#ArialMT-74" x="338.964844"/>
     <use xlink:href="#ArialMT-69" x="366.748047"/>
     <use xlink:href="#ArialMT-6f" x="388.964844"/>
     <use xlink:href="#ArialMT-6e" x="444.580078"/>
     <use xlink:href="#ArialMT-20" x="500.195312"/>
     <use xlink:href="#ArialMT-6f" x="527.978516"/>
     <use xlink:href="#ArialMT-66" x="583.59375"/>
     <use xlink:href="#ArialMT-20" x="611.376953"/>
     <use xlink:href="#ArialMT-41" x="633.660156"/>
     <use xlink:href="#ArialMT-62" x="700.359375"/>
     <use xlink:href="#ArialMT-73" x="755.974609"/>
     <use xlink:href="#ArialMT-6f" x="805.974609"/>
     <use xlink:href="#ArialMT-6c" x="861.589844"/>
     <use xlink:href="#ArialMT-75" x="883.806641"/>
     <use xlink:href="#ArialMT-74" x="939.421875"/>
     <use xlink:href="#ArialMT-65" x="967.205078"/>
     <use xlink:href="#ArialMT-20" x="1022.820312"/>
     <use xlink:href="#ArialMT-45" x="1050.603516"/>
     <use xlink:href="#ArialMT-72" x="1117.302734"/>
     <use xlink:href="#ArialMT-72" x="1150.603516"/>
     <use xlink:href="#ArialMT-6f" x="1183.904297"/>
     <use xlink:href="#ArialMT-72" x="1239.519531"/>
     <use xlink:href="#ArialMT-73" x="1272.820312"/>
    </g>
   </g>
   <g id="legend_1">
    <g id="patch_5">
     <path d="M 497.20125 68.775 
L 692.88 68.775 
Q 695.28 68.775 695.28 66.375 
L 695.28 33.0525 
Q 695.28 30.6525 692.88 30.6525 
L 497.20125 30.6525 
Q 494.80125 30.6525 494.80125 33.0525 
L 494.80125 66.375 
Q 494.80125 68.775 497.20125 68.775 
z
" style="fill: #ffffff; opacity: 0.8; stroke: #cccccc; stroke-linejoin: miter"/>
    </g>
    <g id="patch_6">
     <path d="M 499.60125 44.188125 
L 523.60125 44.188125 
L 523.60125 35.788125 
L 499.60125 35.788125 
z
" style="fill: #2ecc71; fill-opacity: 0.3; stroke: #2ecc71; stroke-linejoin: miter"/>
    </g>
    <g id="text_17">
     <!-- Training (μ=1.84%, σ=1.47%) -->
     <g style="fill: #262626" transform="translate(533.20125 44.188125) scale(0.12 -0.12)">
      <defs>
       <path id="ArialMT-54" d="M 1659 0 
L 1659 4041 
L 150 4041 
L 150 4581 
L 3781 4581 
L 3781 4041 
L 2266 4041 
L 2266 0 
L 1659 0 
z
" transform="scale(0.015625)"/>
       <path id="ArialMT-61" d="M 2588 409 
Q 2275 144 1986 34 
Q 1697 -75 1366 -75 
Q 819 -75 525 192 
Q 231 459 231 875 
Q 231 1119 342 1320 
Q 453 1522 633 1644 
Q 813 1766 1038 1828 
Q 1203 1872 1538 1913 
Q 2219 1994 2541 2106 
Q 2544 2222 2544 2253 
Q 2544 2597 2384 2738 
Q 2169 2928 1744 2928 
Q 1347 2928 1158 2789 
Q 969 2650 878 2297 
L 328 2372 
Q 403 2725 575 2942 
Q 747 3159 1072 3276 
Q 1397 3394 1825 3394 
Q 2250 3394 2515 3294 
Q 2781 3194 2906 3042 
Q 3031 2891 3081 2659 
Q 3109 2516 3109 2141 
L 3109 1391 
Q 3109 606 3145 398 
Q 3181 191 3288 0 
L 2700 0 
Q 2613 175 2588 409 
z
M 2541 1666 
Q 2234 1541 1622 1453 
Q 1275 1403 1131 1340 
Q 988 1278 909 1158 
Q 831 1038 831 891 
Q 831 666 1001 516 
Q 1172 366 1500 366 
Q 1825 366 2078 508 
Q 2331 650 2450 897 
Q 2541 1088 2541 1459 
L 2541 1666 
z
" transform="scale(0.015625)"/>
       <path id="ArialMT-67" d="M 319 -275 
L 866 -356 
Q 900 -609 1056 -725 
Q 1266 -881 1628 -881 
Q 2019 -881 2231 -725 
Q 2444 -569 2519 -288 
Q 2563 -116 2559 434 
Q 2191 0 1641 0 
Q 956 0 581 494 
Q 206 988 206 1678 
Q 206 2153 378 2554 
Q 550 2956 876 3175 
Q 1203 3394 1644 3394 
Q 2231 3394 2613 2919 
L 2613 3319 
L 3131 3319 
L 3131 450 
Q 3131 -325 2973 -648 
Q 2816 -972 2473 -1159 
Q 2131 -1347 1631 -1347 
Q 1038 -1347 672 -1080 
Q 306 -813 319 -275 
z
M 784 1719 
Q 784 1066 1043 766 
Q 1303 466 1694 466 
Q 2081 466 2343 764 
Q 2606 1063 2606 1700 
Q 2606 2309 2336 2618 
Q 2066 2928 1684 2928 
Q 1309 2928 1046 2623 
Q 784 2319 784 1719 
z
" transform="scale(0.015625)"/>
       <path id="ArialMT-3bc" d="M 3181 3319 
L 3181 0 
L 2678 0 
L 2678 394 
Q 2516 144 2356 50 
Q 2138 -78 1847 -78 
Q 1588 -78 1388 25 
Q 1238 103 1056 334 
L 1056 -1272 
L 500 -1272 
L 500 3319 
L 1056 3319 
L 1056 1913 
Q 1056 1147 1137 920 
Q 1219 694 1401 562 
Q 1584 431 1822 431 
Q 2072 431 2269 568 
Q 2466 706 2547 923 
Q 2628 1141 2628 1903 
L 2628 3319 
L 3181 3319 
z
" transform="scale(0.015625)"/>
       <path id="ArialMT-3d" d="M 3381 2694 
L 356 2694 
L 356 3219 
L 3381 3219 
L 3381 2694 
z
M 3381 1303 
L 356 1303 
L 356 1828 
L 3381 1828 
L 3381 1303 
z
" transform="scale(0.015625)"/>
       <path id="ArialMT-2c" d="M 569 0 
L 569 641 
L 1209 641 
L 1209 0 
Q 1209 -353 1084 -570 
Q 959 -788 688 -906 
L 531 -666 
Q 709 -588 793 -436 
Q 878 -284 888 0 
L 569 0 
z
" transform="scale(0.015625)"/>
       <path id="ArialMT-3c3" d="M 3809 3319 
L 3809 2863 
L 2906 2863 
Q 3322 2475 3322 1656 
Q 3322 766 2867 345 
Q 2413 -75 1763 -75 
Q 1088 -75 650 362 
Q 213 800 213 1659 
Q 213 2544 667 2969 
Q 1122 3394 1763 3394 
Q 1997 3394 2294 3319 
L 3809 3319 
z
M 1753 2928 
Q 1344 2928 1067 2609 
Q 791 2291 791 1656 
Q 791 1025 1061 706 
Q 1331 388 1763 388 
Q 2216 388 2483 720 
Q 2750 1053 2750 1659 
Q 2750 2213 2504 2570 
Q 2259 2928 1753 2928 
z
" transform="scale(0.015625)"/>
       <path id="ArialMT-37" d="M 303 3981 
L 303 4522 
L 3269 4522 
L 3269 4084 
Q 2831 3619 2401 2847 
Q 1972 2075 1738 1259 
Q 1569 684 1522 0 
L 944 0 
Q 953 541 1156 1306 
Q 1359 2072 1739 2783 
Q 2119 3494 2547 3981 
L 303 3981 
z
" transform="scale(0.015625)"/>
      </defs>
      <use xlink:href="#ArialMT-54"/>
      <use xlink:href="#ArialMT-72" x="57.333984"/>
      <use xlink:href="#ArialMT-61" x="90.634766"/>
      <use xlink:href="#ArialMT-69" x="146.25"/>
      <use xlink:href="#ArialMT-6e" x="168.466797"/>
      <use xlink:href="#ArialMT-69" x="224.082031"/>
      <use xlink:href="#ArialMT-6e" x="246.298828"/>
      <use xlink:href="#ArialMT-67" x="301.914062"/>
      <use xlink:href="#ArialMT-20" x="357.529297"/>
      <use xlink:href="#ArialMT-28" x="385.3125"/>
      <use xlink:href="#ArialMT-3bc" x="418.613281"/>
      <use xlink:href="#ArialMT-3d" x="476.230469"/>
      <use xlink:href="#ArialMT-31" x="534.628906"/>
      <use xlink:href="#ArialMT-2e" x="590.244141"/>
      <use xlink:href="#ArialMT-38" x="618.027344"/>
      <use xlink:href="#ArialMT-34" x="673.642578"/>
      <use xlink:href="#ArialMT-25" x="729.257812"/>
      <use xlink:href="#ArialMT-2c" x="818.173828"/>
      <use xlink:href="#ArialMT-20" x="845.957031"/>
      <use xlink:href="#ArialMT-3c3" x="873.740234"/>
      <use xlink:href="#ArialMT-3d" x="935.458984"/>
      <use xlink:href="#ArialMT-31" x="993.857422"/>
      <use xlink:href="#ArialMT-2e" x="1049.472656"/>
      <use xlink:href="#ArialMT-34" x="1077.255859"/>
      <use xlink:href="#ArialMT-37" x="1132.871094"/>
      <use xlink:href="#ArialMT-25" x="1188.486328"/>
      <use xlink:href="#ArialMT-29" x="1277.402344"/>
     </g>
    </g>
    <g id="patch_7">
     <path d="M 499.60125 61.449375 
L 523.60125 61.449375 
L 523.60125 53.049375 
L 499.60125 53.049375 
z
" style="fill: #e74c3c; fill-opacity: 0.3; stroke: #e74c3c; stroke-linejoin: miter"/>
    </g>
    <g id="text_18">
     <!-- Testing (μ=0.30%, σ=0.27%) -->
     <g style="fill: #262626" transform="translate(533.20125 61.449375) scale(0.12 -0.12)">
      <defs>
       <path id="ArialMT-33" d="M 269 1209 
L 831 1284 
Q 928 806 1161 595 
Q 1394 384 1728 384 
Q 2125 384 2398 659 
Q 2672 934 2672 1341 
Q 2672 1728 2419 1979 
Q 2166 2231 1775 2231 
Q 1616 2231 1378 2169 
L 1441 2663 
Q 1497 2656 1531 2656 
Q 1891 2656 2178 2843 
Q 2466 3031 2466 3422 
Q 2466 3731 2256 3934 
Q 2047 4138 1716 4138 
Q 1388 4138 1169 3931 
Q 950 3725 888 3313 
L 325 3413 
Q 428 3978 793 4289 
Q 1159 4600 1703 4600 
Q 2078 4600 2393 4439 
Q 2709 4278 2876 4000 
Q 3044 3722 3044 3409 
Q 3044 3113 2884 2869 
Q 2725 2625 2413 2481 
Q 2819 2388 3044 2092 
Q 3269 1797 3269 1353 
Q 3269 753 2831 336 
Q 2394 -81 1725 -81 
Q 1122 -81 723 278 
Q 325 638 269 1209 
z
" transform="scale(0.015625)"/>
      </defs>
      <use xlink:href="#ArialMT-54"/>
      <use xlink:href="#ArialMT-65" x="49.958984"/>
      <use xlink:href="#ArialMT-73" x="105.574219"/>
      <use xlink:href="#ArialMT-74" x="155.574219"/>
      <use xlink:href="#ArialMT-69" x="183.357422"/>
      <use xlink:href="#ArialMT-6e" x="205.574219"/>
      <use xlink:href="#ArialMT-67" x="261.189453"/>
      <use xlink:href="#ArialMT-20" x="316.804688"/>
      <use xlink:href="#ArialMT-28" x="344.587891"/>
      <use xlink:href="#ArialMT-3bc" x="377.888672"/>
      <use xlink:href="#ArialMT-3d" x="435.505859"/>
      <use xlink:href="#ArialMT-30" x="493.904297"/>
      <use xlink:href="#ArialMT-2e" x="549.519531"/>
      <use xlink:href="#ArialMT-33" x="577.302734"/>
      <use xlink:href="#ArialMT-30" x="632.917969"/>
      <use xlink:href="#ArialMT-25" x="688.533203"/>
      <use xlink:href="#ArialMT-2c" x="777.449219"/>
      <use xlink:href="#ArialMT-20" x="805.232422"/>
      <use xlink:href="#ArialMT-3c3" x="833.015625"/>
      <use xlink:href="#ArialMT-3d" x="894.734375"/>
      <use xlink:href="#ArialMT-30" x="953.132812"/>
      <use xlink:href="#ArialMT-2e" x="1008.748047"/>
      <use xlink:href="#ArialMT-32" x="1036.53125"/>
      <use xlink:href="#ArialMT-37" x="1092.146484"/>
      <use xlink:href="#ArialMT-25" x="1147.761719"/>
      <use xlink:href="#ArialMT-29" x="1236.677734"/>
     </g>
    </g>
   </g>
  </g>
 </g>
 <defs>
  <clipPath id="pd97a14c904">
   <rect x="53.8475" y="24.6525" width="647.4325" height="347.515"/>
  </clipPath>
 </defs>
</svg>
