<?xml version="1.0" encoding="utf-8" standalone="no"?>
<!DOCTYPE svg PUBLIC "-//W3C//DTD SVG 1.1//EN"
  "http://www.w3.org/Graphics/SVG/1.1/DTD/svg11.dtd">
<svg xmlns:xlink="http://www.w3.org/1999/xlink" width="708.47884pt" height="420.48pt" viewBox="0 0 708.47884 420.48" xmlns="http://www.w3.org/2000/svg" version="1.1">
 <metadata>
  <rdf:RDF xmlns:dc="http://purl.org/dc/elements/1.1/" xmlns:cc="http://creativecommons.org/ns#" xmlns:rdf="http://www.w3.org/1999/02/22-rdf-syntax-ns#">
   <cc:Work>
    <dc:type rdf:resource="http://purl.org/dc/dcmitype/StillImage"/>
    <dc:date>2025-01-10T12:06:14.461764</dc:date>
    <dc:format>image/svg+xml</dc:format>
    <dc:creator>
     <cc:Agent>
      <dc:title>Matplotlib v3.9.3, https://matplotlib.org/</dc:title>
     </cc:Agent>
    </dc:creator>
   </cc:Work>
  </rdf:RDF>
 </metadata>
 <defs>
  <style type="text/css">*{stroke-linejoin: round; stroke-linecap: butt}</style>
 </defs>
 <g id="figure_1">
  <g id="patch_1">
   <path d="M 0 420.48 
L 708.47884 420.48 
L 708.47884 -0 
L 0 -0 
z
" style="fill: #ffffff"/>
  </g>
  <g id="axes_1">
   <g id="patch_2">
    <path d="M 60.520625 372.1675 
L 699.924753 372.1675 
L 699.924753 24.6525 
L 60.520625 24.6525 
z
" style="fill: #ffffff"/>
   </g>
   <g id="matplotlib.axis_1">
    <g id="xtick_1">
     <g id="line2d_1">
      <path d="M 107.937273 372.1675 
L 107.937273 24.6525 
" clip-path="url(#p2e04553142)" style="fill: none; stroke: #cccccc; stroke-opacity: 0.3; stroke-width: 0.5; stroke-linecap: round"/>
     </g>
     <g id="text_1">
      <!-- −2 -->
      <g style="fill: #262626" transform="translate(101.096336 387.756875) scale(0.12 -0.12)">
       <defs>
        <path id="ArialMT-2212" d="M 3381 1997 
L 356 1997 
L 356 2522 
L 3381 2522 
L 3381 1997 
z
" transform="scale(0.015625)"/>
        <path id="ArialMT-32" d="M 3222 541 
L 3222 0 
L 194 0 
Q 188 203 259 391 
Q 375 700 629 1000 
Q 884 1300 1366 1694 
Q 2113 2306 2375 2664 
Q 2638 3022 2638 3341 
Q 2638 3675 2398 3904 
Q 2159 4134 1775 4134 
Q 1369 4134 1125 3890 
Q 881 3647 878 3216 
L 300 3275 
Q 359 3922 746 4261 
Q 1134 4600 1788 4600 
Q 2447 4600 2831 4234 
Q 3216 3869 3216 3328 
Q 3216 3053 3103 2787 
Q 2991 2522 2730 2228 
Q 2469 1934 1863 1422 
Q 1356 997 1212 845 
Q 1069 694 975 541 
L 3222 541 
z
" transform="scale(0.015625)"/>
       </defs>
       <use xlink:href="#ArialMT-2212"/>
       <use xlink:href="#ArialMT-32" x="58.398438"/>
      </g>
     </g>
    </g>
    <g id="xtick_2">
     <g id="line2d_2">
      <path d="M 225.938274 372.1675 
L 225.938274 24.6525 
" clip-path="url(#p2e04553142)" style="fill: none; stroke: #cccccc; stroke-opacity: 0.3; stroke-width: 0.5; stroke-linecap: round"/>
     </g>
     <g id="text_2">
      <!-- 0 -->
      <g style="fill: #262626" transform="translate(222.601712 387.756875) scale(0.12 -0.12)">
       <defs>
        <path id="ArialMT-30" d="M 266 2259 
Q 266 3072 433 3567 
Q 600 4063 929 4331 
Q 1259 4600 1759 4600 
Q 2128 4600 2406 4451 
Q 2684 4303 2865 4023 
Q 3047 3744 3150 3342 
Q 3253 2941 3253 2259 
Q 3253 1453 3087 958 
Q 2922 463 2592 192 
Q 2263 -78 1759 -78 
Q 1097 -78 719 397 
Q 266 969 266 2259 
z
M 844 2259 
Q 844 1131 1108 757 
Q 1372 384 1759 384 
Q 2147 384 2411 759 
Q 2675 1134 2675 2259 
Q 2675 3391 2411 3762 
Q 2147 4134 1753 4134 
Q 1366 4134 1134 3806 
Q 844 3388 844 2259 
z
" transform="scale(0.015625)"/>
       </defs>
       <use xlink:href="#ArialMT-30"/>
      </g>
     </g>
    </g>
    <g id="xtick_3">
     <g id="line2d_3">
      <path d="M 343.939275 372.1675 
L 343.939275 24.6525 
" clip-path="url(#p2e04553142)" style="fill: none; stroke: #cccccc; stroke-opacity: 0.3; stroke-width: 0.5; stroke-linecap: round"/>
     </g>
     <g id="text_3">
      <!-- 2 -->
      <g style="fill: #262626" transform="translate(340.602713 387.756875) scale(0.12 -0.12)">
       <use xlink:href="#ArialMT-32"/>
      </g>
     </g>
    </g>
    <g id="xtick_4">
     <g id="line2d_4">
      <path d="M 461.940276 372.1675 
L 461.940276 24.6525 
" clip-path="url(#p2e04553142)" style="fill: none; stroke: #cccccc; stroke-opacity: 0.3; stroke-width: 0.5; stroke-linecap: round"/>
     </g>
     <g id="text_4">
      <!-- 4 -->
      <g style="fill: #262626" transform="translate(458.603714 387.756875) scale(0.12 -0.12)">
       <defs>
        <path id="ArialMT-34" d="M 2069 0 
L 2069 1097 
L 81 1097 
L 81 1613 
L 2172 4581 
L 2631 4581 
L 2631 1613 
L 3250 1613 
L 3250 1097 
L 2631 1097 
L 2631 0 
L 2069 0 
z
M 2069 1613 
L 2069 3678 
L 634 1613 
L 2069 1613 
z
" transform="scale(0.015625)"/>
       </defs>
       <use xlink:href="#ArialMT-34"/>
      </g>
     </g>
    </g>
    <g id="xtick_5">
     <g id="line2d_5">
      <path d="M 579.941277 372.1675 
L 579.941277 24.6525 
" clip-path="url(#p2e04553142)" style="fill: none; stroke: #cccccc; stroke-opacity: 0.3; stroke-width: 0.5; stroke-linecap: round"/>
     </g>
     <g id="text_5">
      <!-- 6 -->
      <g style="fill: #262626" transform="translate(576.604714 387.756875) scale(0.12 -0.12)">
       <defs>
        <path id="ArialMT-36" d="M 3184 3459 
L 2625 3416 
Q 2550 3747 2413 3897 
Q 2184 4138 1850 4138 
Q 1581 4138 1378 3988 
Q 1113 3794 959 3422 
Q 806 3050 800 2363 
Q 1003 2672 1297 2822 
Q 1591 2972 1913 2972 
Q 2475 2972 2870 2558 
Q 3266 2144 3266 1488 
Q 3266 1056 3080 686 
Q 2894 316 2569 119 
Q 2244 -78 1831 -78 
Q 1128 -78 684 439 
Q 241 956 241 2144 
Q 241 3472 731 4075 
Q 1159 4600 1884 4600 
Q 2425 4600 2770 4297 
Q 3116 3994 3184 3459 
z
M 888 1484 
Q 888 1194 1011 928 
Q 1134 663 1356 523 
Q 1578 384 1822 384 
Q 2178 384 2434 671 
Q 2691 959 2691 1453 
Q 2691 1928 2437 2201 
Q 2184 2475 1800 2475 
Q 1419 2475 1153 2201 
Q 888 1928 888 1484 
z
" transform="scale(0.015625)"/>
       </defs>
       <use xlink:href="#ArialMT-36"/>
      </g>
     </g>
    </g>
    <g id="xtick_6">
     <g id="line2d_6">
      <path d="M 697.942278 372.1675 
L 697.942278 24.6525 
" clip-path="url(#p2e04553142)" style="fill: none; stroke: #cccccc; stroke-opacity: 0.3; stroke-width: 0.5; stroke-linecap: round"/>
     </g>
     <g id="text_6">
      <!-- 8 -->
      <g style="fill: #262626" transform="translate(694.605715 387.756875) scale(0.12 -0.12)">
       <defs>
        <path id="ArialMT-38" d="M 1131 2484 
Q 781 2613 612 2850 
Q 444 3088 444 3419 
Q 444 3919 803 4259 
Q 1163 4600 1759 4600 
Q 2359 4600 2725 4251 
Q 3091 3903 3091 3403 
Q 3091 3084 2923 2848 
Q 2756 2613 2416 2484 
Q 2838 2347 3058 2040 
Q 3278 1734 3278 1309 
Q 3278 722 2862 322 
Q 2447 -78 1769 -78 
Q 1091 -78 675 323 
Q 259 725 259 1325 
Q 259 1772 486 2073 
Q 713 2375 1131 2484 
z
M 1019 3438 
Q 1019 3113 1228 2906 
Q 1438 2700 1772 2700 
Q 2097 2700 2305 2904 
Q 2513 3109 2513 3406 
Q 2513 3716 2298 3927 
Q 2084 4138 1766 4138 
Q 1444 4138 1231 3931 
Q 1019 3725 1019 3438 
z
M 838 1322 
Q 838 1081 952 856 
Q 1066 631 1291 507 
Q 1516 384 1775 384 
Q 2178 384 2440 643 
Q 2703 903 2703 1303 
Q 2703 1709 2433 1975 
Q 2163 2241 1756 2241 
Q 1359 2241 1098 1978 
Q 838 1716 838 1322 
z
" transform="scale(0.015625)"/>
       </defs>
       <use xlink:href="#ArialMT-38"/>
      </g>
     </g>
    </g>
    <g id="text_7">
     <!-- Error (%) -->
     <g style="fill: #262626" transform="translate(351.837689 410.333438) scale(0.14 -0.14)">
      <defs>
       <path id="ArialMT-45" d="M 506 0 
L 506 4581 
L 3819 4581 
L 3819 4041 
L 1113 4041 
L 1113 2638 
L 3647 2638 
L 3647 2100 
L 1113 2100 
L 1113 541 
L 3925 541 
L 3925 0 
L 506 0 
z
" transform="scale(0.015625)"/>
       <path id="ArialMT-72" d="M 416 0 
L 416 3319 
L 922 3319 
L 922 2816 
Q 1116 3169 1280 3281 
Q 1444 3394 1641 3394 
Q 1925 3394 2219 3213 
L 2025 2691 
Q 1819 2813 1613 2813 
Q 1428 2813 1281 2702 
Q 1134 2591 1072 2394 
Q 978 2094 978 1738 
L 978 0 
L 416 0 
z
" transform="scale(0.015625)"/>
       <path id="ArialMT-6f" d="M 213 1659 
Q 213 2581 725 3025 
Q 1153 3394 1769 3394 
Q 2453 3394 2887 2945 
Q 3322 2497 3322 1706 
Q 3322 1066 3130 698 
Q 2938 331 2570 128 
Q 2203 -75 1769 -75 
Q 1072 -75 642 372 
Q 213 819 213 1659 
z
M 791 1659 
Q 791 1022 1069 705 
Q 1347 388 1769 388 
Q 2188 388 2466 706 
Q 2744 1025 2744 1678 
Q 2744 2294 2464 2611 
Q 2184 2928 1769 2928 
Q 1347 2928 1069 2612 
Q 791 2297 791 1659 
z
" transform="scale(0.015625)"/>
       <path id="ArialMT-20" transform="scale(0.015625)"/>
       <path id="ArialMT-28" d="M 1497 -1347 
Q 1031 -759 709 28 
Q 388 816 388 1659 
Q 388 2403 628 3084 
Q 909 3875 1497 4659 
L 1900 4659 
Q 1522 4009 1400 3731 
Q 1209 3300 1100 2831 
Q 966 2247 966 1656 
Q 966 153 1900 -1347 
L 1497 -1347 
z
" transform="scale(0.015625)"/>
       <path id="ArialMT-25" d="M 372 3481 
Q 372 3972 619 4315 
Q 866 4659 1334 4659 
Q 1766 4659 2048 4351 
Q 2331 4044 2331 3447 
Q 2331 2866 2045 2552 
Q 1759 2238 1341 2238 
Q 925 2238 648 2547 
Q 372 2856 372 3481 
z
M 1350 4272 
Q 1141 4272 1002 4090 
Q 863 3909 863 3425 
Q 863 2984 1003 2804 
Q 1144 2625 1350 2625 
Q 1563 2625 1702 2806 
Q 1841 2988 1841 3469 
Q 1841 3913 1700 4092 
Q 1559 4272 1350 4272 
z
M 1353 -169 
L 3859 4659 
L 4316 4659 
L 1819 -169 
L 1353 -169 
z
M 3334 1075 
Q 3334 1569 3581 1911 
Q 3828 2253 4300 2253 
Q 4731 2253 5014 1945 
Q 5297 1638 5297 1041 
Q 5297 459 5011 145 
Q 4725 -169 4303 -169 
Q 3888 -169 3611 142 
Q 3334 453 3334 1075 
z
M 4316 1866 
Q 4103 1866 3964 1684 
Q 3825 1503 3825 1019 
Q 3825 581 3965 400 
Q 4106 219 4313 219 
Q 4528 219 4667 400 
Q 4806 581 4806 1063 
Q 4806 1506 4665 1686 
Q 4525 1866 4316 1866 
z
" transform="scale(0.015625)"/>
       <path id="ArialMT-29" d="M 791 -1347 
L 388 -1347 
Q 1322 153 1322 1656 
Q 1322 2244 1188 2822 
Q 1081 3291 891 3722 
Q 769 4003 388 4659 
L 791 4659 
Q 1378 3875 1659 3084 
Q 1900 2403 1900 1659 
Q 1900 816 1576 28 
Q 1253 -759 791 -1347 
z
" transform="scale(0.015625)"/>
      </defs>
      <use xlink:href="#ArialMT-45"/>
      <use xlink:href="#ArialMT-72" x="66.699219"/>
      <use xlink:href="#ArialMT-72" x="100"/>
      <use xlink:href="#ArialMT-6f" x="133.300781"/>
      <use xlink:href="#ArialMT-72" x="188.916016"/>
      <use xlink:href="#ArialMT-20" x="222.216797"/>
      <use xlink:href="#ArialMT-28" x="250"/>
      <use xlink:href="#ArialMT-25" x="283.300781"/>
      <use xlink:href="#ArialMT-29" x="372.216797"/>
     </g>
    </g>
   </g>
   <g id="matplotlib.axis_2">
    <g id="ytick_1">
     <g id="line2d_7">
      <path d="M 60.520625 372.1675 
L 699.924753 372.1675 
" clip-path="url(#p2e04553142)" style="fill: none; stroke: #cccccc; stroke-opacity: 0.3; stroke-width: 0.5; stroke-linecap: round"/>
     </g>
     <g id="text_8">
      <!-- 0.00 -->
      <g style="fill: #262626" transform="translate(30.1675 376.462188) scale(0.12 -0.12)">
       <defs>
        <path id="ArialMT-2e" d="M 581 0 
L 581 641 
L 1222 641 
L 1222 0 
L 581 0 
z
" transform="scale(0.015625)"/>
       </defs>
       <use xlink:href="#ArialMT-30"/>
       <use xlink:href="#ArialMT-2e" x="55.615234"/>
       <use xlink:href="#ArialMT-30" x="83.398438"/>
       <use xlink:href="#ArialMT-30" x="139.013672"/>
      </g>
     </g>
    </g>
    <g id="ytick_2">
     <g id="line2d_8">
      <path d="M 60.520625 325.485403 
L 699.924753 325.485403 
" clip-path="url(#p2e04553142)" style="fill: none; stroke: #cccccc; stroke-opacity: 0.3; stroke-width: 0.5; stroke-linecap: round"/>
     </g>
     <g id="text_9">
      <!-- 0.05 -->
      <g style="fill: #262626" transform="translate(30.1675 329.780091) scale(0.12 -0.12)">
       <defs>
        <path id="ArialMT-35" d="M 266 1200 
L 856 1250 
Q 922 819 1161 601 
Q 1400 384 1738 384 
Q 2144 384 2425 690 
Q 2706 997 2706 1503 
Q 2706 1984 2436 2262 
Q 2166 2541 1728 2541 
Q 1456 2541 1237 2417 
Q 1019 2294 894 2097 
L 366 2166 
L 809 4519 
L 3088 4519 
L 3088 3981 
L 1259 3981 
L 1013 2750 
Q 1425 3038 1878 3038 
Q 2478 3038 2890 2622 
Q 3303 2206 3303 1553 
Q 3303 931 2941 478 
Q 2500 -78 1738 -78 
Q 1113 -78 717 272 
Q 322 622 266 1200 
z
" transform="scale(0.015625)"/>
       </defs>
       <use xlink:href="#ArialMT-30"/>
       <use xlink:href="#ArialMT-2e" x="55.615234"/>
       <use xlink:href="#ArialMT-30" x="83.398438"/>
       <use xlink:href="#ArialMT-35" x="139.013672"/>
      </g>
     </g>
    </g>
    <g id="ytick_3">
     <g id="line2d_9">
      <path d="M 60.520625 278.803306 
L 699.924753 278.803306 
" clip-path="url(#p2e04553142)" style="fill: none; stroke: #cccccc; stroke-opacity: 0.3; stroke-width: 0.5; stroke-linecap: round"/>
     </g>
     <g id="text_10">
      <!-- 0.10 -->
      <g style="fill: #262626" transform="translate(30.1675 283.097994) scale(0.12 -0.12)">
       <defs>
        <path id="ArialMT-31" d="M 2384 0 
L 1822 0 
L 1822 3584 
Q 1619 3391 1289 3197 
Q 959 3003 697 2906 
L 697 3450 
Q 1169 3672 1522 3987 
Q 1875 4303 2022 4600 
L 2384 4600 
L 2384 0 
z
" transform="scale(0.015625)"/>
       </defs>
       <use xlink:href="#ArialMT-30"/>
       <use xlink:href="#ArialMT-2e" x="55.615234"/>
       <use xlink:href="#ArialMT-31" x="83.398438"/>
       <use xlink:href="#ArialMT-30" x="139.013672"/>
      </g>
     </g>
    </g>
    <g id="ytick_4">
     <g id="line2d_10">
      <path d="M 60.520625 232.121209 
L 699.924753 232.121209 
" clip-path="url(#p2e04553142)" style="fill: none; stroke: #cccccc; stroke-opacity: 0.3; stroke-width: 0.5; stroke-linecap: round"/>
     </g>
     <g id="text_11">
      <!-- 0.15 -->
      <g style="fill: #262626" transform="translate(30.1675 236.415897) scale(0.12 -0.12)">
       <use xlink:href="#ArialMT-30"/>
       <use xlink:href="#ArialMT-2e" x="55.615234"/>
       <use xlink:href="#ArialMT-31" x="83.398438"/>
       <use xlink:href="#ArialMT-35" x="139.013672"/>
      </g>
     </g>
    </g>
    <g id="ytick_5">
     <g id="line2d_11">
      <path d="M 60.520625 185.439112 
L 699.924753 185.439112 
" clip-path="url(#p2e04553142)" style="fill: none; stroke: #cccccc; stroke-opacity: 0.3; stroke-width: 0.5; stroke-linecap: round"/>
     </g>
     <g id="text_12">
      <!-- 0.20 -->
      <g style="fill: #262626" transform="translate(30.1675 189.7338) scale(0.12 -0.12)">
       <use xlink:href="#ArialMT-30"/>
       <use xlink:href="#ArialMT-2e" x="55.615234"/>
       <use xlink:href="#ArialMT-32" x="83.398438"/>
       <use xlink:href="#ArialMT-30" x="139.013672"/>
      </g>
     </g>
    </g>
    <g id="ytick_6">
     <g id="line2d_12">
      <path d="M 60.520625 138.757015 
L 699.924753 138.757015 
" clip-path="url(#p2e04553142)" style="fill: none; stroke: #cccccc; stroke-opacity: 0.3; stroke-width: 0.5; stroke-linecap: round"/>
     </g>
     <g id="text_13">
      <!-- 0.25 -->
      <g style="fill: #262626" transform="translate(30.1675 143.051703) scale(0.12 -0.12)">
       <use xlink:href="#ArialMT-30"/>
       <use xlink:href="#ArialMT-2e" x="55.615234"/>
       <use xlink:href="#ArialMT-32" x="83.398438"/>
       <use xlink:href="#ArialMT-35" x="139.013672"/>
      </g>
     </g>
    </g>
    <g id="ytick_7">
     <g id="line2d_13">
      <path d="M 60.520625 92.074918 
L 699.924753 92.074918 
" clip-path="url(#p2e04553142)" style="fill: none; stroke: #cccccc; stroke-opacity: 0.3; stroke-width: 0.5; stroke-linecap: round"/>
     </g>
     <g id="text_14">
      <!-- 0.30 -->
      <g style="fill: #262626" transform="translate(30.1675 96.369606) scale(0.12 -0.12)">
       <defs>
        <path id="ArialMT-33" d="M 269 1209 
L 831 1284 
Q 928 806 1161 595 
Q 1394 384 1728 384 
Q 2125 384 2398 659 
Q 2672 934 2672 1341 
Q 2672 1728 2419 1979 
Q 2166 2231 1775 2231 
Q 1616 2231 1378 2169 
L 1441 2663 
Q 1497 2656 1531 2656 
Q 1891 2656 2178 2843 
Q 2466 3031 2466 3422 
Q 2466 3731 2256 3934 
Q 2047 4138 1716 4138 
Q 1388 4138 1169 3931 
Q 950 3725 888 3313 
L 325 3413 
Q 428 3978 793 4289 
Q 1159 4600 1703 4600 
Q 2078 4600 2393 4439 
Q 2709 4278 2876 4000 
Q 3044 3722 3044 3409 
Q 3044 3113 2884 2869 
Q 2725 2625 2413 2481 
Q 2819 2388 3044 2092 
Q 3269 1797 3269 1353 
Q 3269 753 2831 336 
Q 2394 -81 1725 -81 
Q 1122 -81 723 278 
Q 325 638 269 1209 
z
" transform="scale(0.015625)"/>
       </defs>
       <use xlink:href="#ArialMT-30"/>
       <use xlink:href="#ArialMT-2e" x="55.615234"/>
       <use xlink:href="#ArialMT-33" x="83.398438"/>
       <use xlink:href="#ArialMT-30" x="139.013672"/>
      </g>
     </g>
    </g>
    <g id="ytick_8">
     <g id="line2d_14">
      <path d="M 60.520625 45.392821 
L 699.924753 45.392821 
" clip-path="url(#p2e04553142)" style="fill: none; stroke: #cccccc; stroke-opacity: 0.3; stroke-width: 0.5; stroke-linecap: round"/>
     </g>
     <g id="text_15">
      <!-- 0.35 -->
      <g style="fill: #262626" transform="translate(30.1675 49.687509) scale(0.12 -0.12)">
       <use xlink:href="#ArialMT-30"/>
       <use xlink:href="#ArialMT-2e" x="55.615234"/>
       <use xlink:href="#ArialMT-33" x="83.398438"/>
       <use xlink:href="#ArialMT-35" x="139.013672"/>
      </g>
     </g>
    </g>
    <g id="text_16">
     <!-- Density -->
     <g style="fill: #262626" transform="translate(17.220938 221.750625) rotate(-90) scale(0.14 -0.14)">
      <defs>
       <path id="ArialMT-44" d="M 494 0 
L 494 4581 
L 2072 4581 
Q 2606 4581 2888 4516 
Q 3281 4425 3559 4188 
Q 3922 3881 4101 3404 
Q 4281 2928 4281 2316 
Q 4281 1794 4159 1391 
Q 4038 988 3847 723 
Q 3656 459 3429 307 
Q 3203 156 2883 78 
Q 2563 0 2147 0 
L 494 0 
z
M 1100 541 
L 2078 541 
Q 2531 541 2789 625 
Q 3047 709 3200 863 
Q 3416 1078 3536 1442 
Q 3656 1806 3656 2325 
Q 3656 3044 3420 3430 
Q 3184 3816 2847 3947 
Q 2603 4041 2063 4041 
L 1100 4041 
L 1100 541 
z
" transform="scale(0.015625)"/>
       <path id="ArialMT-65" d="M 2694 1069 
L 3275 997 
Q 3138 488 2766 206 
Q 2394 -75 1816 -75 
Q 1088 -75 661 373 
Q 234 822 234 1631 
Q 234 2469 665 2931 
Q 1097 3394 1784 3394 
Q 2450 3394 2872 2941 
Q 3294 2488 3294 1666 
Q 3294 1616 3291 1516 
L 816 1516 
Q 847 969 1125 678 
Q 1403 388 1819 388 
Q 2128 388 2347 550 
Q 2566 713 2694 1069 
z
M 847 1978 
L 2700 1978 
Q 2663 2397 2488 2606 
Q 2219 2931 1791 2931 
Q 1403 2931 1139 2672 
Q 875 2413 847 1978 
z
" transform="scale(0.015625)"/>
       <path id="ArialMT-6e" d="M 422 0 
L 422 3319 
L 928 3319 
L 928 2847 
Q 1294 3394 1984 3394 
Q 2284 3394 2536 3286 
Q 2788 3178 2913 3003 
Q 3038 2828 3088 2588 
Q 3119 2431 3119 2041 
L 3119 0 
L 2556 0 
L 2556 2019 
Q 2556 2363 2490 2533 
Q 2425 2703 2258 2804 
Q 2091 2906 1866 2906 
Q 1506 2906 1245 2678 
Q 984 2450 984 1813 
L 984 0 
L 422 0 
z
" transform="scale(0.015625)"/>
       <path id="ArialMT-73" d="M 197 991 
L 753 1078 
Q 800 744 1014 566 
Q 1228 388 1613 388 
Q 2000 388 2187 545 
Q 2375 703 2375 916 
Q 2375 1106 2209 1216 
Q 2094 1291 1634 1406 
Q 1016 1563 777 1677 
Q 538 1791 414 1992 
Q 291 2194 291 2438 
Q 291 2659 392 2848 
Q 494 3038 669 3163 
Q 800 3259 1026 3326 
Q 1253 3394 1513 3394 
Q 1903 3394 2198 3281 
Q 2494 3169 2634 2976 
Q 2775 2784 2828 2463 
L 2278 2388 
Q 2241 2644 2061 2787 
Q 1881 2931 1553 2931 
Q 1166 2931 1000 2803 
Q 834 2675 834 2503 
Q 834 2394 903 2306 
Q 972 2216 1119 2156 
Q 1203 2125 1616 2013 
Q 2213 1853 2448 1751 
Q 2684 1650 2818 1456 
Q 2953 1263 2953 975 
Q 2953 694 2789 445 
Q 2625 197 2315 61 
Q 2006 -75 1616 -75 
Q 969 -75 630 194 
Q 291 463 197 991 
z
" transform="scale(0.015625)"/>
       <path id="ArialMT-69" d="M 425 3934 
L 425 4581 
L 988 4581 
L 988 3934 
L 425 3934 
z
M 425 0 
L 425 3319 
L 988 3319 
L 988 0 
L 425 0 
z
" transform="scale(0.015625)"/>
       <path id="ArialMT-74" d="M 1650 503 
L 1731 6 
Q 1494 -44 1306 -44 
Q 1000 -44 831 53 
Q 663 150 594 308 
Q 525 466 525 972 
L 525 2881 
L 113 2881 
L 113 3319 
L 525 3319 
L 525 4141 
L 1084 4478 
L 1084 3319 
L 1650 3319 
L 1650 2881 
L 1084 2881 
L 1084 941 
Q 1084 700 1114 631 
Q 1144 563 1211 522 
Q 1278 481 1403 481 
Q 1497 481 1650 503 
z
" transform="scale(0.015625)"/>
       <path id="ArialMT-79" d="M 397 -1278 
L 334 -750 
Q 519 -800 656 -800 
Q 844 -800 956 -737 
Q 1069 -675 1141 -563 
Q 1194 -478 1313 -144 
Q 1328 -97 1363 -6 
L 103 3319 
L 709 3319 
L 1400 1397 
Q 1534 1031 1641 628 
Q 1738 1016 1872 1384 
L 2581 3319 
L 3144 3319 
L 1881 -56 
Q 1678 -603 1566 -809 
Q 1416 -1088 1222 -1217 
Q 1028 -1347 759 -1347 
Q 597 -1347 397 -1278 
z
" transform="scale(0.015625)"/>
      </defs>
      <use xlink:href="#ArialMT-44"/>
      <use xlink:href="#ArialMT-65" x="72.216797"/>
      <use xlink:href="#ArialMT-6e" x="127.832031"/>
      <use xlink:href="#ArialMT-73" x="183.447266"/>
      <use xlink:href="#ArialMT-69" x="233.447266"/>
      <use xlink:href="#ArialMT-74" x="255.664062"/>
      <use xlink:href="#ArialMT-79" x="283.447266"/>
     </g>
    </g>
   </g>
   <g id="PolyCollection_1">
    <defs>
     <path id="mad4328079b" d="M 130.756469 -48.832431 
L 130.756469 -48.3125 
L 133.098499 -48.3125 
L 135.440529 -48.3125 
L 137.782558 -48.3125 
L 140.124588 -48.3125 
L 142.466618 -48.3125 
L 144.808648 -48.3125 
L 147.150677 -48.3125 
L 149.492707 -48.3125 
L 151.834737 -48.3125 
L 154.176767 -48.3125 
L 156.518797 -48.3125 
L 158.860826 -48.3125 
L 161.202856 -48.3125 
L 163.544886 -48.3125 
L 165.886916 -48.3125 
L 168.228945 -48.3125 
L 170.570975 -48.3125 
L 172.913005 -48.3125 
L 175.255035 -48.3125 
L 177.597065 -48.3125 
L 179.939094 -48.3125 
L 182.281124 -48.3125 
L 184.623154 -48.3125 
L 186.965184 -48.3125 
L 189.307213 -48.3125 
L 191.649243 -48.3125 
L 193.991273 -48.3125 
L 196.333303 -48.3125 
L 198.675332 -48.3125 
L 201.017362 -48.3125 
L 203.359392 -48.3125 
L 205.701422 -48.3125 
L 208.043452 -48.3125 
L 210.385481 -48.3125 
L 212.727511 -48.3125 
L 215.069541 -48.3125 
L 217.411571 -48.3125 
L 219.7536 -48.3125 
L 222.09563 -48.3125 
L 224.43766 -48.3125 
L 226.77969 -48.3125 
L 229.12172 -48.3125 
L 231.463749 -48.3125 
L 233.805779 -48.3125 
L 236.147809 -48.3125 
L 238.489839 -48.3125 
L 240.831868 -48.3125 
L 243.173898 -48.3125 
L 245.515928 -48.3125 
L 247.857958 -48.3125 
L 250.199987 -48.3125 
L 252.542017 -48.3125 
L 254.884047 -48.3125 
L 257.226077 -48.3125 
L 259.568107 -48.3125 
L 261.910136 -48.3125 
L 264.252166 -48.3125 
L 266.594196 -48.3125 
L 268.936226 -48.3125 
L 271.278255 -48.3125 
L 273.620285 -48.3125 
L 275.962315 -48.3125 
L 278.304345 -48.3125 
L 280.646375 -48.3125 
L 282.988404 -48.3125 
L 285.330434 -48.3125 
L 287.672464 -48.3125 
L 290.014494 -48.3125 
L 292.356523 -48.3125 
L 294.698553 -48.3125 
L 297.040583 -48.3125 
L 299.382613 -48.3125 
L 301.724642 -48.3125 
L 304.066672 -48.3125 
L 306.408702 -48.3125 
L 308.750732 -48.3125 
L 311.092762 -48.3125 
L 313.434791 -48.3125 
L 315.776821 -48.3125 
L 318.118851 -48.3125 
L 320.460881 -48.3125 
L 322.80291 -48.3125 
L 325.14494 -48.3125 
L 327.48697 -48.3125 
L 329.829 -48.3125 
L 332.17103 -48.3125 
L 334.513059 -48.3125 
L 336.855089 -48.3125 
L 339.197119 -48.3125 
L 341.539149 -48.3125 
L 343.881178 -48.3125 
L 346.223208 -48.3125 
L 348.565238 -48.3125 
L 350.907268 -48.3125 
L 353.249297 -48.3125 
L 355.591327 -48.3125 
L 357.933357 -48.3125 
L 360.275387 -48.3125 
L 362.617417 -48.3125 
L 364.959446 -48.3125 
L 367.301476 -48.3125 
L 369.643506 -48.3125 
L 371.985536 -48.3125 
L 374.327565 -48.3125 
L 376.669595 -48.3125 
L 379.011625 -48.3125 
L 381.353655 -48.3125 
L 383.695684 -48.3125 
L 386.037714 -48.3125 
L 388.379744 -48.3125 
L 390.721774 -48.3125 
L 393.063804 -48.3125 
L 395.405833 -48.3125 
L 397.747863 -48.3125 
L 400.089893 -48.3125 
L 402.431923 -48.3125 
L 404.773952 -48.3125 
L 407.115982 -48.3125 
L 409.458012 -48.3125 
L 411.800042 -48.3125 
L 414.142072 -48.3125 
L 416.484101 -48.3125 
L 418.826131 -48.3125 
L 421.168161 -48.3125 
L 423.510191 -48.3125 
L 425.85222 -48.3125 
L 428.19425 -48.3125 
L 430.53628 -48.3125 
L 432.87831 -48.3125 
L 435.220339 -48.3125 
L 437.562369 -48.3125 
L 439.904399 -48.3125 
L 442.246429 -48.3125 
L 444.588459 -48.3125 
L 446.930488 -48.3125 
L 449.272518 -48.3125 
L 451.614548 -48.3125 
L 453.956578 -48.3125 
L 456.298607 -48.3125 
L 458.640637 -48.3125 
L 460.982667 -48.3125 
L 463.324697 -48.3125 
L 465.666727 -48.3125 
L 468.008756 -48.3125 
L 470.350786 -48.3125 
L 472.692816 -48.3125 
L 475.034846 -48.3125 
L 477.376875 -48.3125 
L 479.718905 -48.3125 
L 482.060935 -48.3125 
L 484.402965 -48.3125 
L 486.744994 -48.3125 
L 489.087024 -48.3125 
L 491.429054 -48.3125 
L 493.771084 -48.3125 
L 496.113114 -48.3125 
L 498.455143 -48.3125 
L 500.797173 -48.3125 
L 503.139203 -48.3125 
L 505.481233 -48.3125 
L 507.823262 -48.3125 
L 510.165292 -48.3125 
L 512.507322 -48.3125 
L 514.849352 -48.3125 
L 517.191382 -48.3125 
L 519.533411 -48.3125 
L 521.875441 -48.3125 
L 524.217471 -48.3125 
L 526.559501 -48.3125 
L 528.90153 -48.3125 
L 531.24356 -48.3125 
L 533.58559 -48.3125 
L 535.92762 -48.3125 
L 538.269649 -48.3125 
L 540.611679 -48.3125 
L 542.953709 -48.3125 
L 545.295739 -48.3125 
L 547.637769 -48.3125 
L 549.979798 -48.3125 
L 552.321828 -48.3125 
L 554.663858 -48.3125 
L 557.005888 -48.3125 
L 559.347917 -48.3125 
L 561.689947 -48.3125 
L 564.031977 -48.3125 
L 566.374007 -48.3125 
L 568.716037 -48.3125 
L 571.058066 -48.3125 
L 573.400096 -48.3125 
L 575.742126 -48.3125 
L 578.084156 -48.3125 
L 580.426185 -48.3125 
L 582.768215 -48.3125 
L 585.110245 -48.3125 
L 587.452275 -48.3125 
L 589.794304 -48.3125 
L 592.136334 -48.3125 
L 594.478364 -48.3125 
L 596.820394 -48.3125 
L 596.820394 -48.534538 
L 596.820394 -48.534538 
L 594.478364 -48.588425 
L 592.136334 -48.653684 
L 589.794304 -48.732284 
L 587.452275 -48.826434 
L 585.110245 -48.938595 
L 582.768215 -49.071478 
L 580.426185 -49.228049 
L 578.084156 -49.411514 
L 575.742126 -49.62531 
L 573.400096 -49.873075 
L 571.058066 -50.158619 
L 568.716037 -50.48588 
L 566.374007 -50.858867 
L 564.031977 -51.281606 
L 561.689947 -51.758058 
L 559.347917 -52.292046 
L 557.005888 -52.887161 
L 554.663858 -53.546672 
L 552.321828 -54.27343 
L 549.979798 -55.069763 
L 547.637769 -55.937389 
L 545.295739 -56.87732 
L 542.953709 -57.889784 
L 540.611679 -58.974155 
L 538.269649 -60.128902 
L 535.92762 -61.351555 
L 533.58559 -62.638695 
L 531.24356 -63.985971 
L 528.90153 -65.38814 
L 526.559501 -66.839135 
L 524.217471 -68.332164 
L 521.875441 -69.859832 
L 519.533411 -71.414293 
L 517.191382 -72.987414 
L 514.849352 -74.570969 
L 512.507322 -76.156833 
L 510.165292 -77.73719 
L 507.823262 -79.30474 
L 505.481233 -80.852895 
L 503.139203 -82.375961 
L 500.797173 -83.869305 
L 498.455143 -85.329481 
L 496.113114 -86.754337 
L 493.771084 -88.143067 
L 491.429054 -89.496232 
L 489.087024 -90.815732 
L 486.744994 -92.104728 
L 484.402965 -93.367526 
L 482.060935 -94.609414 
L 479.718905 -95.836472 
L 477.376875 -97.055336 
L 475.034846 -98.272965 
L 472.692816 -99.496369 
L 470.350786 -100.732364 
L 468.008756 -101.987316 
L 465.666727 -103.266918 
L 463.324697 -104.576 
L 460.982667 -105.918378 
L 458.640637 -107.296756 
L 456.298607 -108.712692 
L 453.956578 -110.166622 
L 451.614548 -111.657951 
L 449.272518 -113.185212 
L 446.930488 -114.746288 
L 444.588459 -116.338683 
L 442.246429 -117.95985 
L 439.904399 -119.607544 
L 437.562369 -121.280204 
L 435.220339 -122.977337 
L 432.87831 -124.699891 
L 430.53628 -126.450598 
L 428.19425 -128.234275 
L 425.85222 -130.058061 
L 423.510191 -131.931574 
L 421.168161 -133.866982 
L 418.826131 -135.878973 
L 416.484101 -137.984615 
L 414.142072 -140.203115 
L 411.800042 -142.555465 
L 409.458012 -145.063981 
L 407.115982 -147.751763 
L 404.773952 -150.642066 
L 402.431923 -153.757615 
L 400.089893 -157.119884 
L 397.747863 -160.748352 
L 395.405833 -164.659779 
L 393.063804 -168.867517 
L 390.721774 -173.380879 
L 388.379744 -178.204609 
L 386.037714 -183.338454 
L 383.695684 -188.776876 
L 381.353655 -194.508914 
L 379.011625 -200.518201 
L 376.669595 -206.783148 
L 374.327565 -213.277293 
L 371.985536 -219.969807 
L 369.643506 -226.826139 
L 367.301476 -233.808782 
L 364.959446 -240.878144 
L 362.617417 -247.993473 
L 360.275387 -255.113828 
L 357.933357 -262.199039 
L 355.591327 -269.210631 
L 353.249297 -276.112683 
L 350.907268 -282.872568 
L 348.565238 -289.461578 
L 346.223208 -295.855372 
L 343.881178 -302.034272 
L 341.539149 -307.983362 
L 339.197119 -313.692406 
L 336.855089 -319.155588 
L 334.513059 -324.371088 
L 332.17103 -329.340503 
L 329.829 -334.068151 
L 327.48697 -338.560283 
L 325.14494 -342.824232 
L 322.80291 -346.867542 
L 320.460881 -350.697101 
L 318.118851 -354.318332 
L 315.776821 -357.734441 
L 313.434791 -360.945788 
L 311.092762 -363.949375 
L 308.750732 -366.738482 
L 306.408702 -369.302461 
L 304.066672 -371.62669 
L 301.724642 -373.692692 
L 299.382613 -375.478414 
L 297.040583 -376.958642 
L 294.698553 -378.105556 
L 292.356523 -378.889387 
L 290.014494 -379.279167 
L 287.672464 -379.243535 
L 285.330434 -378.751593 
L 282.988404 -377.773756 
L 280.646375 -376.282603 
L 278.304345 -374.253687 
L 275.962315 -371.666276 
L 273.620285 -368.50403 
L 271.278255 -364.755571 
L 268.936226 -360.414952 
L 266.594196 -355.482 
L 264.252166 -349.962544 
L 261.910136 -343.868505 
L 259.568107 -337.217872 
L 257.226077 -330.034541 
L 254.884047 -322.34805 
L 252.542017 -314.193203 
L 250.199987 -305.609597 
L 247.857958 -296.64107 
L 245.515928 -287.335081 
L 243.173898 -277.742042 
L 240.831868 -267.914606 
L 238.489839 -257.906942 
L 236.147809 -247.774009 
L 233.805779 -237.570824 
L 231.463749 -227.351774 
L 229.12172 -217.169948 
L 226.77969 -207.076521 
L 224.43766 -197.120195 
L 222.09563 -187.346695 
L 219.7536 -177.798343 
L 217.411571 -168.513694 
L 215.069541 -159.527251 
L 212.727511 -150.869253 
L 210.385481 -142.56554 
L 208.043452 -134.637482 
L 205.701422 -127.101989 
L 203.359392 -119.971571 
L 201.017362 -113.254474 
L 198.675332 -106.954855 
L 196.333303 -101.073013 
L 193.991273 -95.605659 
L 191.649243 -90.546223 
L 189.307213 -85.885178 
L 186.965184 -81.610393 
L 184.623154 -77.707494 
L 182.281124 -74.160225 
L 179.939094 -70.950816 
L 177.597065 -68.060337 
L 175.255035 -65.469034 
L 172.913005 -63.156656 
L 170.570975 -61.102752 
L 168.228945 -59.286939 
L 165.886916 -57.689148 
L 163.544886 -56.289835 
L 161.202856 -55.070159 
L 158.860826 -54.012131 
L 156.518797 -53.098729 
L 154.176767 -52.313984 
L 151.834737 -51.643042 
L 149.492707 -51.072192 
L 147.150677 -50.588879 
L 144.808648 -50.181689 
L 142.466618 -49.840326 
L 140.124588 -49.555567 
L 137.782558 -49.319207 
L 135.440529 -49.124 
L 133.098499 -48.963587 
L 130.756469 -48.832431 
z
" style="stroke: #2ecc71"/>
    </defs>
    <g clip-path="url(#p2e04553142)">
     <use xlink:href="#mad4328079b" x="0" y="420.48" style="fill: #2ecc71; fill-opacity: 0.3; stroke: #2ecc71"/>
    </g>
   </g>
   <g id="PolyCollection_2">
    <defs>
     <path id="m954bfba574" d="M 89.584449 -49.468627 
L 89.584449 -48.3125 
L 92.505436 -48.3125 
L 95.426424 -48.3125 
L 98.347411 -48.3125 
L 101.268398 -48.3125 
L 104.189386 -48.3125 
L 107.110373 -48.3125 
L 110.03136 -48.3125 
L 112.952348 -48.3125 
L 115.873335 -48.3125 
L 118.794322 -48.3125 
L 121.71531 -48.3125 
L 124.636297 -48.3125 
L 127.557284 -48.3125 
L 130.478272 -48.3125 
L 133.399259 -48.3125 
L 136.320246 -48.3125 
L 139.241234 -48.3125 
L 142.162221 -48.3125 
L 145.083208 -48.3125 
L 148.004196 -48.3125 
L 150.925183 -48.3125 
L 153.84617 -48.3125 
L 156.767158 -48.3125 
L 159.688145 -48.3125 
L 162.609132 -48.3125 
L 165.53012 -48.3125 
L 168.451107 -48.3125 
L 171.372094 -48.3125 
L 174.293082 -48.3125 
L 177.214069 -48.3125 
L 180.135056 -48.3125 
L 183.056044 -48.3125 
L 185.977031 -48.3125 
L 188.898018 -48.3125 
L 191.819006 -48.3125 
L 194.739993 -48.3125 
L 197.66098 -48.3125 
L 200.581968 -48.3125 
L 203.502955 -48.3125 
L 206.423942 -48.3125 
L 209.34493 -48.3125 
L 212.265917 -48.3125 
L 215.186904 -48.3125 
L 218.107892 -48.3125 
L 221.028879 -48.3125 
L 223.949866 -48.3125 
L 226.870854 -48.3125 
L 229.791841 -48.3125 
L 232.712828 -48.3125 
L 235.633816 -48.3125 
L 238.554803 -48.3125 
L 241.47579 -48.3125 
L 244.396778 -48.3125 
L 247.317765 -48.3125 
L 250.238752 -48.3125 
L 253.15974 -48.3125 
L 256.080727 -48.3125 
L 259.001714 -48.3125 
L 261.922702 -48.3125 
L 264.843689 -48.3125 
L 267.764676 -48.3125 
L 270.685664 -48.3125 
L 273.606651 -48.3125 
L 276.527638 -48.3125 
L 279.448626 -48.3125 
L 282.369613 -48.3125 
L 285.2906 -48.3125 
L 288.211588 -48.3125 
L 291.132575 -48.3125 
L 294.053562 -48.3125 
L 296.97455 -48.3125 
L 299.895537 -48.3125 
L 302.816524 -48.3125 
L 305.737512 -48.3125 
L 308.658499 -48.3125 
L 311.579486 -48.3125 
L 314.500474 -48.3125 
L 317.421461 -48.3125 
L 320.342448 -48.3125 
L 323.263436 -48.3125 
L 326.184423 -48.3125 
L 329.10541 -48.3125 
L 332.026398 -48.3125 
L 334.947385 -48.3125 
L 337.868372 -48.3125 
L 340.78936 -48.3125 
L 343.710347 -48.3125 
L 346.631334 -48.3125 
L 349.552322 -48.3125 
L 352.473309 -48.3125 
L 355.394296 -48.3125 
L 358.315284 -48.3125 
L 361.236271 -48.3125 
L 364.157258 -48.3125 
L 367.078246 -48.3125 
L 369.999233 -48.3125 
L 372.92022 -48.3125 
L 375.841208 -48.3125 
L 378.762195 -48.3125 
L 381.683182 -48.3125 
L 384.60417 -48.3125 
L 387.525157 -48.3125 
L 390.446144 -48.3125 
L 393.367132 -48.3125 
L 396.288119 -48.3125 
L 399.209106 -48.3125 
L 402.130094 -48.3125 
L 405.051081 -48.3125 
L 407.972068 -48.3125 
L 410.893056 -48.3125 
L 413.814043 -48.3125 
L 416.73503 -48.3125 
L 419.656018 -48.3125 
L 422.577005 -48.3125 
L 425.497992 -48.3125 
L 428.41898 -48.3125 
L 431.339967 -48.3125 
L 434.260954 -48.3125 
L 437.181942 -48.3125 
L 440.102929 -48.3125 
L 443.023916 -48.3125 
L 445.944904 -48.3125 
L 448.865891 -48.3125 
L 451.786878 -48.3125 
L 454.707866 -48.3125 
L 457.628853 -48.3125 
L 460.54984 -48.3125 
L 463.470828 -48.3125 
L 466.391815 -48.3125 
L 469.312802 -48.3125 
L 472.23379 -48.3125 
L 475.154777 -48.3125 
L 478.075764 -48.3125 
L 480.996752 -48.3125 
L 483.917739 -48.3125 
L 486.838726 -48.3125 
L 489.759714 -48.3125 
L 492.680701 -48.3125 
L 495.601688 -48.3125 
L 498.522676 -48.3125 
L 501.443663 -48.3125 
L 504.36465 -48.3125 
L 507.285638 -48.3125 
L 510.206625 -48.3125 
L 513.127612 -48.3125 
L 516.0486 -48.3125 
L 518.969587 -48.3125 
L 521.890574 -48.3125 
L 524.811562 -48.3125 
L 527.732549 -48.3125 
L 530.653536 -48.3125 
L 533.574524 -48.3125 
L 536.495511 -48.3125 
L 539.416498 -48.3125 
L 542.337486 -48.3125 
L 545.258473 -48.3125 
L 548.17946 -48.3125 
L 551.100448 -48.3125 
L 554.021435 -48.3125 
L 556.942422 -48.3125 
L 559.86341 -48.3125 
L 562.784397 -48.3125 
L 565.705384 -48.3125 
L 568.626372 -48.3125 
L 571.547359 -48.3125 
L 574.468346 -48.3125 
L 577.389334 -48.3125 
L 580.310321 -48.3125 
L 583.231309 -48.3125 
L 586.152296 -48.3125 
L 589.073283 -48.3125 
L 591.994271 -48.3125 
L 594.915258 -48.3125 
L 597.836245 -48.3125 
L 600.757233 -48.3125 
L 603.67822 -48.3125 
L 606.599207 -48.3125 
L 609.520195 -48.3125 
L 612.441182 -48.3125 
L 615.362169 -48.3125 
L 618.283157 -48.3125 
L 621.204144 -48.3125 
L 624.125131 -48.3125 
L 627.046119 -48.3125 
L 629.967106 -48.3125 
L 632.888093 -48.3125 
L 635.809081 -48.3125 
L 638.730068 -48.3125 
L 641.651055 -48.3125 
L 644.572043 -48.3125 
L 647.49303 -48.3125 
L 650.414017 -48.3125 
L 653.335005 -48.3125 
L 656.255992 -48.3125 
L 659.176979 -48.3125 
L 662.097967 -48.3125 
L 665.018954 -48.3125 
L 667.939941 -48.3125 
L 670.860929 -48.3125 
L 670.860929 -49.469117 
L 670.860929 -49.469117 
L 667.939941 -49.634107 
L 665.018954 -49.81986 
L 662.097967 -50.028565 
L 659.176979 -50.262582 
L 656.255992 -50.524446 
L 653.335005 -50.816873 
L 650.414017 -51.142763 
L 647.49303 -51.5052 
L 644.572043 -51.907452 
L 641.651055 -52.352972 
L 638.730068 -52.845393 
L 635.809081 -53.388522 
L 632.888093 -53.986333 
L 629.967106 -54.642954 
L 627.046119 -55.362658 
L 624.125131 -56.149841 
L 621.204144 -57.00901 
L 618.283157 -57.944755 
L 615.362169 -58.961724 
L 612.441182 -60.064599 
L 609.520195 -61.258059 
L 606.599207 -62.546746 
L 603.67822 -63.935227 
L 600.757233 -65.427955 
L 597.836245 -67.029221 
L 594.915258 -68.743108 
L 591.994271 -70.573443 
L 589.073283 -72.523749 
L 586.152296 -74.597184 
L 583.231309 -76.796497 
L 580.310321 -79.123967 
L 577.389334 -81.581356 
L 574.468346 -84.169848 
L 571.547359 -86.890005 
L 568.626372 -89.741712 
L 565.705384 -92.724134 
L 562.784397 -95.835672 
L 559.86341 -99.073928 
L 556.942422 -102.435665 
L 554.021435 -105.916788 
L 551.100448 -109.51232 
L 548.17946 -113.216392 
L 545.258473 -117.022234 
L 542.337486 -120.922187 
L 539.416498 -124.90771 
L 536.495511 -128.969407 
L 533.574524 -133.097062 
L 530.653536 -137.279676 
L 527.732549 -141.505528 
L 524.811562 -145.762236 
L 521.890574 -150.03683 
L 518.969587 -154.315837 
L 516.0486 -158.58537 
L 513.127612 -162.831235 
L 510.206625 -167.039031 
L 507.285638 -171.194273 
L 504.36465 -175.282506 
L 501.443663 -179.28943 
L 498.522676 -183.201032 
L 495.601688 -187.003709 
L 492.680701 -190.684398 
L 489.759714 -194.230708 
L 486.838726 -197.631034 
L 483.917739 -200.874687 
L 480.996752 -203.951996 
L 478.075764 -206.854419 
L 475.154777 -209.574634 
L 472.23379 -212.106625 
L 469.312802 -214.44575 
L 466.391815 -216.588798 
L 463.470828 -218.534036 
L 460.54984 -220.281229 
L 457.628853 -221.831655 
L 454.707866 -223.188094 
L 451.786878 -224.35481 
L 448.865891 -225.337503 
L 445.944904 -226.143254 
L 443.023916 -226.780451 
L 440.102929 -227.258692 
L 437.181942 -227.588687 
L 434.260954 -227.782128 
L 431.339967 -227.851564 
L 428.41898 -227.810247 
L 425.497992 -227.671987 
L 422.577005 -227.450982 
L 419.656018 -227.161653 
L 416.73503 -226.818472 
L 413.814043 -226.435787 
L 410.893056 -226.027649 
L 407.972068 -225.607643 
L 405.051081 -225.188721 
L 402.130094 -224.783042 
L 399.209106 -224.401827 
L 396.288119 -224.055219 
L 393.367132 -223.752155 
L 390.446144 -223.500259 
L 387.525157 -223.305746 
L 384.60417 -223.173346 
L 381.683182 -223.106244 
L 378.762195 -223.10604 
L 375.841208 -223.17273 
L 372.92022 -223.304707 
L 369.999233 -223.49878 
L 367.078246 -223.750213 
L 364.157258 -224.052784 
L 361.236271 -224.398864 
L 358.315284 -224.77951 
L 355.394296 -225.184576 
L 352.473309 -225.602838 
L 349.552322 -226.022134 
L 346.631334 -226.42951 
L 343.710347 -226.811381 
L 340.78936 -227.153695 
L 337.868372 -227.442107 
L 334.947385 -227.662147 
L 332.026398 -227.799397 
L 329.10541 -227.839662 
L 326.184423 -227.769139 
L 323.263436 -227.57458 
L 320.342448 -227.243443 
L 317.421461 -226.764042 
L 314.500474 -226.125677 
L 311.579486 -225.318756 
L 308.658499 -224.334899 
L 305.737512 -223.167033 
L 302.816524 -221.809468 
L 299.895537 -220.257947 
L 296.97455 -218.509699 
L 294.053562 -216.563453 
L 291.132575 -214.419451 
L 288.211588 -212.079435 
L 285.2906 -209.546621 
L 282.369613 -206.825658 
L 279.448626 -203.922566 
L 276.527638 -200.844673 
L 273.606651 -197.600524 
L 270.685664 -194.199791 
L 267.764676 -190.653168 
L 264.843689 -186.972259 
L 261.922702 -183.169458 
L 259.001714 -179.257826 
L 256.080727 -175.250964 
L 253.15974 -171.162885 
L 250.238752 -167.007885 
L 247.317765 -162.800415 
L 244.396778 -158.554959 
L 241.47579 -154.28591 
L 238.554803 -150.007461 
L 235.633816 -145.733491 
L 232.712828 -141.477468 
L 229.791841 -137.252357 
L 226.870854 -133.070533 
L 223.949866 -128.943711 
L 221.028879 -124.882884 
L 218.107892 -120.898262 
L 215.186904 -116.999235 
L 212.265917 -113.194337 
L 209.34493 -109.491223 
L 206.423942 -105.896655 
L 203.502955 -102.416499 
L 200.581968 -99.055726 
L 197.66098 -95.818428 
L 194.739993 -92.707834 
L 191.819006 -89.726341 
L 188.898018 -86.875544 
L 185.977031 -84.156275 
L 183.056044 -81.568645 
L 180.135056 -79.112091 
L 177.214069 -76.785425 
L 174.293082 -74.586887 
L 171.372094 -72.514193 
L 168.451107 -70.564595 
L 165.53012 -68.734933 
L 162.609132 -67.021685 
L 159.688145 -65.421024 
L 156.767158 -63.928866 
L 153.84617 -62.54092 
L 150.925183 -61.252736 
L 148.004196 -60.059745 
L 145.083208 -58.957308 
L 142.162221 -57.940745 
L 139.241234 -57.005378 
L 136.320246 -56.146558 
L 133.399259 -55.359696 
L 130.478272 -54.640288 
L 127.557284 -53.983938 
L 124.636297 -53.386376 
L 121.71531 -52.843473 
L 118.794322 -52.351258 
L 115.873335 -51.905925 
L 112.952348 -51.503843 
L 110.03136 -51.14156 
L 107.110373 -50.815808 
L 104.189386 -50.523505 
L 101.268398 -50.261752 
L 98.347411 -50.027835 
L 95.426424 -49.81922 
L 92.505436 -49.633546 
L 89.584449 -49.468627 
z
" style="stroke: #e74c3c"/>
    </defs>
    <g clip-path="url(#p2e04553142)">
     <use xlink:href="#m954bfba574" x="0" y="420.48" style="fill: #e74c3c; fill-opacity: 0.3; stroke: #e74c3c"/>
    </g>
   </g>
   <g id="patch_3">
    <path d="M 60.520625 372.1675 
L 60.520625 24.6525 
" style="fill: none; stroke: #cccccc; stroke-width: 1.5; stroke-linejoin: miter; stroke-linecap: square"/>
   </g>
   <g id="patch_4">
    <path d="M 60.520625 372.1675 
L 699.924753 372.1675 
" style="fill: none; stroke: #cccccc; stroke-width: 1.5; stroke-linejoin: miter; stroke-linecap: square"/>
   </g>
   <g id="text_17">
    <!-- Distribution of Absolute Errors -->
    <g style="fill: #262626" transform="translate(274.402689 18.6525) scale(0.16 -0.16)">
     <defs>
      <path id="ArialMT-62" d="M 941 0 
L 419 0 
L 419 4581 
L 981 4581 
L 981 2947 
Q 1338 3394 1891 3394 
Q 2197 3394 2470 3270 
Q 2744 3147 2920 2923 
Q 3097 2700 3197 2384 
Q 3297 2069 3297 1709 
Q 3297 856 2875 390 
Q 2453 -75 1863 -75 
Q 1275 -75 941 416 
L 941 0 
z
M 934 1684 
Q 934 1088 1097 822 
Q 1363 388 1816 388 
Q 2184 388 2453 708 
Q 2722 1028 2722 1663 
Q 2722 2313 2464 2622 
Q 2206 2931 1841 2931 
Q 1472 2931 1203 2611 
Q 934 2291 934 1684 
z
" transform="scale(0.015625)"/>
      <path id="ArialMT-75" d="M 2597 0 
L 2597 488 
Q 2209 -75 1544 -75 
Q 1250 -75 995 37 
Q 741 150 617 320 
Q 494 491 444 738 
Q 409 903 409 1263 
L 409 3319 
L 972 3319 
L 972 1478 
Q 972 1038 1006 884 
Q 1059 663 1231 536 
Q 1403 409 1656 409 
Q 1909 409 2131 539 
Q 2353 669 2445 892 
Q 2538 1116 2538 1541 
L 2538 3319 
L 3100 3319 
L 3100 0 
L 2597 0 
z
" transform="scale(0.015625)"/>
      <path id="ArialMT-66" d="M 556 0 
L 556 2881 
L 59 2881 
L 59 3319 
L 556 3319 
L 556 3672 
Q 556 4006 616 4169 
Q 697 4388 901 4523 
Q 1106 4659 1475 4659 
Q 1713 4659 2000 4603 
L 1916 4113 
Q 1741 4144 1584 4144 
Q 1328 4144 1222 4034 
Q 1116 3925 1116 3625 
L 1116 3319 
L 1763 3319 
L 1763 2881 
L 1116 2881 
L 1116 0 
L 556 0 
z
" transform="scale(0.015625)"/>
      <path id="ArialMT-41" d="M -9 0 
L 1750 4581 
L 2403 4581 
L 4278 0 
L 3588 0 
L 3053 1388 
L 1138 1388 
L 634 0 
L -9 0 
z
M 1313 1881 
L 2866 1881 
L 2388 3150 
Q 2169 3728 2063 4100 
Q 1975 3659 1816 3225 
L 1313 1881 
z
" transform="scale(0.015625)"/>
      <path id="ArialMT-6c" d="M 409 0 
L 409 4581 
L 972 4581 
L 972 0 
L 409 0 
z
" transform="scale(0.015625)"/>
     </defs>
     <use xlink:href="#ArialMT-44"/>
     <use xlink:href="#ArialMT-69" x="72.216797"/>
     <use xlink:href="#ArialMT-73" x="94.433594"/>
     <use xlink:href="#ArialMT-74" x="144.433594"/>
     <use xlink:href="#ArialMT-72" x="172.216797"/>
     <use xlink:href="#ArialMT-69" x="205.517578"/>
     <use xlink:href="#ArialMT-62" x="227.734375"/>
     <use xlink:href="#ArialMT-75" x="283.349609"/>
     <use xlink:href="#ArialMT-74" x="338.964844"/>
     <use xlink:href="#ArialMT-69" x="366.748047"/>
     <use xlink:href="#ArialMT-6f" x="388.964844"/>
     <use xlink:href="#ArialMT-6e" x="444.580078"/>
     <use xlink:href="#ArialMT-20" x="500.195312"/>
     <use xlink:href="#ArialMT-6f" x="527.978516"/>
     <use xlink:href="#ArialMT-66" x="583.59375"/>
     <use xlink:href="#ArialMT-20" x="611.376953"/>
     <use xlink:href="#ArialMT-41" x="633.660156"/>
     <use xlink:href="#ArialMT-62" x="700.359375"/>
     <use xlink:href="#ArialMT-73" x="755.974609"/>
     <use xlink:href="#ArialMT-6f" x="805.974609"/>
     <use xlink:href="#ArialMT-6c" x="861.589844"/>
     <use xlink:href="#ArialMT-75" x="883.806641"/>
     <use xlink:href="#ArialMT-74" x="939.421875"/>
     <use xlink:href="#ArialMT-65" x="967.205078"/>
     <use xlink:href="#ArialMT-20" x="1022.820312"/>
     <use xlink:href="#ArialMT-45" x="1050.603516"/>
     <use xlink:href="#ArialMT-72" x="1117.302734"/>
     <use xlink:href="#ArialMT-72" x="1150.603516"/>
     <use xlink:href="#ArialMT-6f" x="1183.904297"/>
     <use xlink:href="#ArialMT-72" x="1239.519531"/>
     <use xlink:href="#ArialMT-73" x="1272.820312"/>
    </g>
   </g>
   <g id="legend_1">
    <g id="patch_5">
     <path d="M 495.846003 68.775 
L 691.524753 68.775 
Q 693.924753 68.775 693.924753 66.375 
L 693.924753 33.0525 
Q 693.924753 30.6525 691.524753 30.6525 
L 495.846003 30.6525 
Q 493.446003 30.6525 493.446003 33.0525 
L 493.446003 66.375 
Q 493.446003 68.775 495.846003 68.775 
z
" style="fill: #ffffff; opacity: 0.8; stroke: #cccccc; stroke-linejoin: miter"/>
    </g>
    <g id="patch_6">
     <path d="M 498.246003 44.188125 
L 522.246003 44.188125 
L 522.246003 35.788125 
L 498.246003 35.788125 
z
" style="fill: #2ecc71; fill-opacity: 0.3; stroke: #2ecc71; stroke-linejoin: miter"/>
    </g>
    <g id="text_18">
     <!-- Training (μ=1.59%, σ=1.13%) -->
     <g style="fill: #262626" transform="translate(531.846003 44.188125) scale(0.12 -0.12)">
      <defs>
       <path id="ArialMT-54" d="M 1659 0 
L 1659 4041 
L 150 4041 
L 150 4581 
L 3781 4581 
L 3781 4041 
L 2266 4041 
L 2266 0 
L 1659 0 
z
" transform="scale(0.015625)"/>
       <path id="ArialMT-61" d="M 2588 409 
Q 2275 144 1986 34 
Q 1697 -75 1366 -75 
Q 819 -75 525 192 
Q 231 459 231 875 
Q 231 1119 342 1320 
Q 453 1522 633 1644 
Q 813 1766 1038 1828 
Q 1203 1872 1538 1913 
Q 2219 1994 2541 2106 
Q 2544 2222 2544 2253 
Q 2544 2597 2384 2738 
Q 2169 2928 1744 2928 
Q 1347 2928 1158 2789 
Q 969 2650 878 2297 
L 328 2372 
Q 403 2725 575 2942 
Q 747 3159 1072 3276 
Q 1397 3394 1825 3394 
Q 2250 3394 2515 3294 
Q 2781 3194 2906 3042 
Q 3031 2891 3081 2659 
Q 3109 2516 3109 2141 
L 3109 1391 
Q 3109 606 3145 398 
Q 3181 191 3288 0 
L 2700 0 
Q 2613 175 2588 409 
z
M 2541 1666 
Q 2234 1541 1622 1453 
Q 1275 1403 1131 1340 
Q 988 1278 909 1158 
Q 831 1038 831 891 
Q 831 666 1001 516 
Q 1172 366 1500 366 
Q 1825 366 2078 508 
Q 2331 650 2450 897 
Q 2541 1088 2541 1459 
L 2541 1666 
z
" transform="scale(0.015625)"/>
       <path id="ArialMT-67" d="M 319 -275 
L 866 -356 
Q 900 -609 1056 -725 
Q 1266 -881 1628 -881 
Q 2019 -881 2231 -725 
Q 2444 -569 2519 -288 
Q 2563 -116 2559 434 
Q 2191 0 1641 0 
Q 956 0 581 494 
Q 206 988 206 1678 
Q 206 2153 378 2554 
Q 550 2956 876 3175 
Q 1203 3394 1644 3394 
Q 2231 3394 2613 2919 
L 2613 3319 
L 3131 3319 
L 3131 450 
Q 3131 -325 2973 -648 
Q 2816 -972 2473 -1159 
Q 2131 -1347 1631 -1347 
Q 1038 -1347 672 -1080 
Q 306 -813 319 -275 
z
M 784 1719 
Q 784 1066 1043 766 
Q 1303 466 1694 466 
Q 2081 466 2343 764 
Q 2606 1063 2606 1700 
Q 2606 2309 2336 2618 
Q 2066 2928 1684 2928 
Q 1309 2928 1046 2623 
Q 784 2319 784 1719 
z
" transform="scale(0.015625)"/>
       <path id="ArialMT-3bc" d="M 3181 3319 
L 3181 0 
L 2678 0 
L 2678 394 
Q 2516 144 2356 50 
Q 2138 -78 1847 -78 
Q 1588 -78 1388 25 
Q 1238 103 1056 334 
L 1056 -1272 
L 500 -1272 
L 500 3319 
L 1056 3319 
L 1056 1913 
Q 1056 1147 1137 920 
Q 1219 694 1401 562 
Q 1584 431 1822 431 
Q 2072 431 2269 568 
Q 2466 706 2547 923 
Q 2628 1141 2628 1903 
L 2628 3319 
L 3181 3319 
z
" transform="scale(0.015625)"/>
       <path id="ArialMT-3d" d="M 3381 2694 
L 356 2694 
L 356 3219 
L 3381 3219 
L 3381 2694 
z
M 3381 1303 
L 356 1303 
L 356 1828 
L 3381 1828 
L 3381 1303 
z
" transform="scale(0.015625)"/>
       <path id="ArialMT-39" d="M 350 1059 
L 891 1109 
Q 959 728 1153 556 
Q 1347 384 1650 384 
Q 1909 384 2104 503 
Q 2300 622 2425 820 
Q 2550 1019 2634 1356 
Q 2719 1694 2719 2044 
Q 2719 2081 2716 2156 
Q 2547 1888 2255 1720 
Q 1963 1553 1622 1553 
Q 1053 1553 659 1965 
Q 266 2378 266 3053 
Q 266 3750 677 4175 
Q 1088 4600 1706 4600 
Q 2153 4600 2523 4359 
Q 2894 4119 3086 3673 
Q 3278 3228 3278 2384 
Q 3278 1506 3087 986 
Q 2897 466 2520 194 
Q 2144 -78 1638 -78 
Q 1100 -78 759 220 
Q 419 519 350 1059 
z
M 2653 3081 
Q 2653 3566 2395 3850 
Q 2138 4134 1775 4134 
Q 1400 4134 1122 3828 
Q 844 3522 844 3034 
Q 844 2597 1108 2323 
Q 1372 2050 1759 2050 
Q 2150 2050 2401 2323 
Q 2653 2597 2653 3081 
z
" transform="scale(0.015625)"/>
       <path id="ArialMT-2c" d="M 569 0 
L 569 641 
L 1209 641 
L 1209 0 
Q 1209 -353 1084 -570 
Q 959 -788 688 -906 
L 531 -666 
Q 709 -588 793 -436 
Q 878 -284 888 0 
L 569 0 
z
" transform="scale(0.015625)"/>
       <path id="ArialMT-3c3" d="M 3809 3319 
L 3809 2863 
L 2906 2863 
Q 3322 2475 3322 1656 
Q 3322 766 2867 345 
Q 2413 -75 1763 -75 
Q 1088 -75 650 362 
Q 213 800 213 1659 
Q 213 2544 667 2969 
Q 1122 3394 1763 3394 
Q 1997 3394 2294 3319 
L 3809 3319 
z
M 1753 2928 
Q 1344 2928 1067 2609 
Q 791 2291 791 1656 
Q 791 1025 1061 706 
Q 1331 388 1763 388 
Q 2216 388 2483 720 
Q 2750 1053 2750 1659 
Q 2750 2213 2504 2570 
Q 2259 2928 1753 2928 
z
" transform="scale(0.015625)"/>
      </defs>
      <use xlink:href="#ArialMT-54"/>
      <use xlink:href="#ArialMT-72" x="57.333984"/>
      <use xlink:href="#ArialMT-61" x="90.634766"/>
      <use xlink:href="#ArialMT-69" x="146.25"/>
      <use xlink:href="#ArialMT-6e" x="168.466797"/>
      <use xlink:href="#ArialMT-69" x="224.082031"/>
      <use xlink:href="#ArialMT-6e" x="246.298828"/>
      <use xlink:href="#ArialMT-67" x="301.914062"/>
      <use xlink:href="#ArialMT-20" x="357.529297"/>
      <use xlink:href="#ArialMT-28" x="385.3125"/>
      <use xlink:href="#ArialMT-3bc" x="418.613281"/>
      <use xlink:href="#ArialMT-3d" x="476.230469"/>
      <use xlink:href="#ArialMT-31" x="534.628906"/>
      <use xlink:href="#ArialMT-2e" x="590.244141"/>
      <use xlink:href="#ArialMT-35" x="618.027344"/>
      <use xlink:href="#ArialMT-39" x="673.642578"/>
      <use xlink:href="#ArialMT-25" x="729.257812"/>
      <use xlink:href="#ArialMT-2c" x="818.173828"/>
      <use xlink:href="#ArialMT-20" x="845.957031"/>
      <use xlink:href="#ArialMT-3c3" x="873.740234"/>
      <use xlink:href="#ArialMT-3d" x="935.458984"/>
      <use xlink:href="#ArialMT-31" x="993.857422"/>
      <use xlink:href="#ArialMT-2e" x="1049.472656"/>
      <use xlink:href="#ArialMT-31" x="1077.255859"/>
      <use xlink:href="#ArialMT-33" x="1132.871094"/>
      <use xlink:href="#ArialMT-25" x="1188.486328"/>
      <use xlink:href="#ArialMT-29" x="1277.402344"/>
     </g>
    </g>
    <g id="patch_7">
     <path d="M 498.246003 61.449375 
L 522.246003 61.449375 
L 522.246003 53.049375 
L 498.246003 53.049375 
z
" style="fill: #e74c3c; fill-opacity: 0.3; stroke: #e74c3c; stroke-linejoin: miter"/>
    </g>
    <g id="text_19">
     <!-- Testing (μ=2.62%, σ=1.50%) -->
     <g style="fill: #262626" transform="translate(531.846003 61.449375) scale(0.12 -0.12)">
      <use xlink:href="#ArialMT-54"/>
      <use xlink:href="#ArialMT-65" x="49.958984"/>
      <use xlink:href="#ArialMT-73" x="105.574219"/>
      <use xlink:href="#ArialMT-74" x="155.574219"/>
      <use xlink:href="#ArialMT-69" x="183.357422"/>
      <use xlink:href="#ArialMT-6e" x="205.574219"/>
      <use xlink:href="#ArialMT-67" x="261.189453"/>
      <use xlink:href="#ArialMT-20" x="316.804688"/>
      <use xlink:href="#ArialMT-28" x="344.587891"/>
      <use xlink:href="#ArialMT-3bc" x="377.888672"/>
      <use xlink:href="#ArialMT-3d" x="435.505859"/>
      <use xlink:href="#ArialMT-32" x="493.904297"/>
      <use xlink:href="#ArialMT-2e" x="549.519531"/>
      <use xlink:href="#ArialMT-36" x="577.302734"/>
      <use xlink:href="#ArialMT-32" x="632.917969"/>
      <use xlink:href="#ArialMT-25" x="688.533203"/>
      <use xlink:href="#ArialMT-2c" x="777.449219"/>
      <use xlink:href="#ArialMT-20" x="805.232422"/>
      <use xlink:href="#ArialMT-3c3" x="833.015625"/>
      <use xlink:href="#ArialMT-3d" x="894.734375"/>
      <use xlink:href="#ArialMT-31" x="953.132812"/>
      <use xlink:href="#ArialMT-2e" x="1008.748047"/>
      <use xlink:href="#ArialMT-35" x="1036.53125"/>
      <use xlink:href="#ArialMT-30" x="1092.146484"/>
      <use xlink:href="#ArialMT-25" x="1147.761719"/>
      <use xlink:href="#ArialMT-29" x="1236.677734"/>
     </g>
    </g>
   </g>
  </g>
 </g>
 <defs>
  <clipPath id="p2e04553142">
   <rect x="60.520625" y="24.6525" width="639.404128" height="347.515"/>
  </clipPath>
 </defs>
</svg>
