<?xml version="1.0" encoding="utf-8" standalone="no"?>
<!DOCTYPE svg PUBLIC "-//W3C//DTD SVG 1.1//EN"
  "http://www.w3.org/Graphics/SVG/1.1/DTD/svg11.dtd">
<svg xmlns:xlink="http://www.w3.org/1999/xlink" width="708.48pt" height="420.48pt" viewBox="0 0 708.48 420.48" xmlns="http://www.w3.org/2000/svg" version="1.1">
 <metadata>
  <rdf:RDF xmlns:dc="http://purl.org/dc/elements/1.1/" xmlns:cc="http://creativecommons.org/ns#" xmlns:rdf="http://www.w3.org/1999/02/22-rdf-syntax-ns#">
   <cc:Work>
    <dc:type rdf:resource="http://purl.org/dc/dcmitype/StillImage"/>
    <dc:date>2025-01-10T12:03:21.684859</dc:date>
    <dc:format>image/svg+xml</dc:format>
    <dc:creator>
     <cc:Agent>
      <dc:title>Matplotlib v3.9.3, https://matplotlib.org/</dc:title>
     </cc:Agent>
    </dc:creator>
   </cc:Work>
  </rdf:RDF>
 </metadata>
 <defs>
  <style type="text/css">*{stroke-linejoin: round; stroke-linecap: butt}</style>
 </defs>
 <g id="figure_1">
  <g id="patch_1">
   <path d="M 0 420.48 
L 708.48 420.48 
L 708.48 -0 
L 0 -0 
z
" style="fill: #ffffff"/>
  </g>
  <g id="axes_1">
   <g id="patch_2">
    <path d="M 60.520625 372.1675 
L 701.28 372.1675 
L 701.28 24.6525 
L 60.520625 24.6525 
z
" style="fill: #ffffff"/>
   </g>
   <g id="matplotlib.axis_1">
    <g id="xtick_1">
     <g id="line2d_1">
      <path d="M 101.960434 372.1675 
L 101.960434 24.6525 
" clip-path="url(#p3d65418847)" style="fill: none; stroke: #cccccc; stroke-opacity: 0.3; stroke-width: 0.5; stroke-linecap: round"/>
     </g>
     <g id="text_1">
      <!-- −2 -->
      <g style="fill: #262626" transform="translate(95.119496 387.756875) scale(0.12 -0.12)">
       <defs>
        <path id="ArialMT-2212" d="M 3381 1997 
L 356 1997 
L 356 2522 
L 3381 2522 
L 3381 1997 
z
" transform="scale(0.015625)"/>
        <path id="ArialMT-32" d="M 3222 541 
L 3222 0 
L 194 0 
Q 188 203 259 391 
Q 375 700 629 1000 
Q 884 1300 1366 1694 
Q 2113 2306 2375 2664 
Q 2638 3022 2638 3341 
Q 2638 3675 2398 3904 
Q 2159 4134 1775 4134 
Q 1369 4134 1125 3890 
Q 881 3647 878 3216 
L 300 3275 
Q 359 3922 746 4261 
Q 1134 4600 1788 4600 
Q 2447 4600 2831 4234 
Q 3216 3869 3216 3328 
Q 3216 3053 3103 2787 
Q 2991 2522 2730 2228 
Q 2469 1934 1863 1422 
Q 1356 997 1212 845 
Q 1069 694 975 541 
L 3222 541 
z
" transform="scale(0.015625)"/>
       </defs>
       <use xlink:href="#ArialMT-2212"/>
       <use xlink:href="#ArialMT-32" x="58.398438"/>
      </g>
     </g>
    </g>
    <g id="xtick_2">
     <g id="line2d_2">
      <path d="M 174.985029 372.1675 
L 174.985029 24.6525 
" clip-path="url(#p3d65418847)" style="fill: none; stroke: #cccccc; stroke-opacity: 0.3; stroke-width: 0.5; stroke-linecap: round"/>
     </g>
     <g id="text_2">
      <!-- −1 -->
      <g style="fill: #262626" transform="translate(168.144092 387.756875) scale(0.12 -0.12)">
       <defs>
        <path id="ArialMT-31" d="M 2384 0 
L 1822 0 
L 1822 3584 
Q 1619 3391 1289 3197 
Q 959 3003 697 2906 
L 697 3450 
Q 1169 3672 1522 3987 
Q 1875 4303 2022 4600 
L 2384 4600 
L 2384 0 
z
" transform="scale(0.015625)"/>
       </defs>
       <use xlink:href="#ArialMT-2212"/>
       <use xlink:href="#ArialMT-31" x="58.398438"/>
      </g>
     </g>
    </g>
    <g id="xtick_3">
     <g id="line2d_3">
      <path d="M 248.009624 372.1675 
L 248.009624 24.6525 
" clip-path="url(#p3d65418847)" style="fill: none; stroke: #cccccc; stroke-opacity: 0.3; stroke-width: 0.5; stroke-linecap: round"/>
     </g>
     <g id="text_3">
      <!-- 0 -->
      <g style="fill: #262626" transform="translate(244.673062 387.756875) scale(0.12 -0.12)">
       <defs>
        <path id="ArialMT-30" d="M 266 2259 
Q 266 3072 433 3567 
Q 600 4063 929 4331 
Q 1259 4600 1759 4600 
Q 2128 4600 2406 4451 
Q 2684 4303 2865 4023 
Q 3047 3744 3150 3342 
Q 3253 2941 3253 2259 
Q 3253 1453 3087 958 
Q 2922 463 2592 192 
Q 2263 -78 1759 -78 
Q 1097 -78 719 397 
Q 266 969 266 2259 
z
M 844 2259 
Q 844 1131 1108 757 
Q 1372 384 1759 384 
Q 2147 384 2411 759 
Q 2675 1134 2675 2259 
Q 2675 3391 2411 3762 
Q 2147 4134 1753 4134 
Q 1366 4134 1134 3806 
Q 844 3388 844 2259 
z
" transform="scale(0.015625)"/>
       </defs>
       <use xlink:href="#ArialMT-30"/>
      </g>
     </g>
    </g>
    <g id="xtick_4">
     <g id="line2d_4">
      <path d="M 321.034219 372.1675 
L 321.034219 24.6525 
" clip-path="url(#p3d65418847)" style="fill: none; stroke: #cccccc; stroke-opacity: 0.3; stroke-width: 0.5; stroke-linecap: round"/>
     </g>
     <g id="text_4">
      <!-- 1 -->
      <g style="fill: #262626" transform="translate(317.697657 387.756875) scale(0.12 -0.12)">
       <use xlink:href="#ArialMT-31"/>
      </g>
     </g>
    </g>
    <g id="xtick_5">
     <g id="line2d_5">
      <path d="M 394.058814 372.1675 
L 394.058814 24.6525 
" clip-path="url(#p3d65418847)" style="fill: none; stroke: #cccccc; stroke-opacity: 0.3; stroke-width: 0.5; stroke-linecap: round"/>
     </g>
     <g id="text_5">
      <!-- 2 -->
      <g style="fill: #262626" transform="translate(390.722252 387.756875) scale(0.12 -0.12)">
       <use xlink:href="#ArialMT-32"/>
      </g>
     </g>
    </g>
    <g id="xtick_6">
     <g id="line2d_6">
      <path d="M 467.08341 372.1675 
L 467.08341 24.6525 
" clip-path="url(#p3d65418847)" style="fill: none; stroke: #cccccc; stroke-opacity: 0.3; stroke-width: 0.5; stroke-linecap: round"/>
     </g>
     <g id="text_6">
      <!-- 3 -->
      <g style="fill: #262626" transform="translate(463.746847 387.756875) scale(0.12 -0.12)">
       <defs>
        <path id="ArialMT-33" d="M 269 1209 
L 831 1284 
Q 928 806 1161 595 
Q 1394 384 1728 384 
Q 2125 384 2398 659 
Q 2672 934 2672 1341 
Q 2672 1728 2419 1979 
Q 2166 2231 1775 2231 
Q 1616 2231 1378 2169 
L 1441 2663 
Q 1497 2656 1531 2656 
Q 1891 2656 2178 2843 
Q 2466 3031 2466 3422 
Q 2466 3731 2256 3934 
Q 2047 4138 1716 4138 
Q 1388 4138 1169 3931 
Q 950 3725 888 3313 
L 325 3413 
Q 428 3978 793 4289 
Q 1159 4600 1703 4600 
Q 2078 4600 2393 4439 
Q 2709 4278 2876 4000 
Q 3044 3722 3044 3409 
Q 3044 3113 2884 2869 
Q 2725 2625 2413 2481 
Q 2819 2388 3044 2092 
Q 3269 1797 3269 1353 
Q 3269 753 2831 336 
Q 2394 -81 1725 -81 
Q 1122 -81 723 278 
Q 325 638 269 1209 
z
" transform="scale(0.015625)"/>
       </defs>
       <use xlink:href="#ArialMT-33"/>
      </g>
     </g>
    </g>
    <g id="xtick_7">
     <g id="line2d_7">
      <path d="M 540.108005 372.1675 
L 540.108005 24.6525 
" clip-path="url(#p3d65418847)" style="fill: none; stroke: #cccccc; stroke-opacity: 0.3; stroke-width: 0.5; stroke-linecap: round"/>
     </g>
     <g id="text_7">
      <!-- 4 -->
      <g style="fill: #262626" transform="translate(536.771442 387.756875) scale(0.12 -0.12)">
       <defs>
        <path id="ArialMT-34" d="M 2069 0 
L 2069 1097 
L 81 1097 
L 81 1613 
L 2172 4581 
L 2631 4581 
L 2631 1613 
L 3250 1613 
L 3250 1097 
L 2631 1097 
L 2631 0 
L 2069 0 
z
M 2069 1613 
L 2069 3678 
L 634 1613 
L 2069 1613 
z
" transform="scale(0.015625)"/>
       </defs>
       <use xlink:href="#ArialMT-34"/>
      </g>
     </g>
    </g>
    <g id="xtick_8">
     <g id="line2d_8">
      <path d="M 613.1326 372.1675 
L 613.1326 24.6525 
" clip-path="url(#p3d65418847)" style="fill: none; stroke: #cccccc; stroke-opacity: 0.3; stroke-width: 0.5; stroke-linecap: round"/>
     </g>
     <g id="text_8">
      <!-- 5 -->
      <g style="fill: #262626" transform="translate(609.796037 387.756875) scale(0.12 -0.12)">
       <defs>
        <path id="ArialMT-35" d="M 266 1200 
L 856 1250 
Q 922 819 1161 601 
Q 1400 384 1738 384 
Q 2144 384 2425 690 
Q 2706 997 2706 1503 
Q 2706 1984 2436 2262 
Q 2166 2541 1728 2541 
Q 1456 2541 1237 2417 
Q 1019 2294 894 2097 
L 366 2166 
L 809 4519 
L 3088 4519 
L 3088 3981 
L 1259 3981 
L 1013 2750 
Q 1425 3038 1878 3038 
Q 2478 3038 2890 2622 
Q 3303 2206 3303 1553 
Q 3303 931 2941 478 
Q 2500 -78 1738 -78 
Q 1113 -78 717 272 
Q 322 622 266 1200 
z
" transform="scale(0.015625)"/>
       </defs>
       <use xlink:href="#ArialMT-35"/>
      </g>
     </g>
    </g>
    <g id="xtick_9">
     <g id="line2d_9">
      <path d="M 686.157195 372.1675 
L 686.157195 24.6525 
" clip-path="url(#p3d65418847)" style="fill: none; stroke: #cccccc; stroke-opacity: 0.3; stroke-width: 0.5; stroke-linecap: round"/>
     </g>
     <g id="text_9">
      <!-- 6 -->
      <g style="fill: #262626" transform="translate(682.820632 387.756875) scale(0.12 -0.12)">
       <defs>
        <path id="ArialMT-36" d="M 3184 3459 
L 2625 3416 
Q 2550 3747 2413 3897 
Q 2184 4138 1850 4138 
Q 1581 4138 1378 3988 
Q 1113 3794 959 3422 
Q 806 3050 800 2363 
Q 1003 2672 1297 2822 
Q 1591 2972 1913 2972 
Q 2475 2972 2870 2558 
Q 3266 2144 3266 1488 
Q 3266 1056 3080 686 
Q 2894 316 2569 119 
Q 2244 -78 1831 -78 
Q 1128 -78 684 439 
Q 241 956 241 2144 
Q 241 3472 731 4075 
Q 1159 4600 1884 4600 
Q 2425 4600 2770 4297 
Q 3116 3994 3184 3459 
z
M 888 1484 
Q 888 1194 1011 928 
Q 1134 663 1356 523 
Q 1578 384 1822 384 
Q 2178 384 2434 671 
Q 2691 959 2691 1453 
Q 2691 1928 2437 2201 
Q 2184 2475 1800 2475 
Q 1419 2475 1153 2201 
Q 888 1928 888 1484 
z
" transform="scale(0.015625)"/>
       </defs>
       <use xlink:href="#ArialMT-36"/>
      </g>
     </g>
    </g>
    <g id="text_10">
     <!-- Error (%) -->
     <g style="fill: #262626" transform="translate(352.515312 410.333438) scale(0.14 -0.14)">
      <defs>
       <path id="ArialMT-45" d="M 506 0 
L 506 4581 
L 3819 4581 
L 3819 4041 
L 1113 4041 
L 1113 2638 
L 3647 2638 
L 3647 2100 
L 1113 2100 
L 1113 541 
L 3925 541 
L 3925 0 
L 506 0 
z
" transform="scale(0.015625)"/>
       <path id="ArialMT-72" d="M 416 0 
L 416 3319 
L 922 3319 
L 922 2816 
Q 1116 3169 1280 3281 
Q 1444 3394 1641 3394 
Q 1925 3394 2219 3213 
L 2025 2691 
Q 1819 2813 1613 2813 
Q 1428 2813 1281 2702 
Q 1134 2591 1072 2394 
Q 978 2094 978 1738 
L 978 0 
L 416 0 
z
" transform="scale(0.015625)"/>
       <path id="ArialMT-6f" d="M 213 1659 
Q 213 2581 725 3025 
Q 1153 3394 1769 3394 
Q 2453 3394 2887 2945 
Q 3322 2497 3322 1706 
Q 3322 1066 3130 698 
Q 2938 331 2570 128 
Q 2203 -75 1769 -75 
Q 1072 -75 642 372 
Q 213 819 213 1659 
z
M 791 1659 
Q 791 1022 1069 705 
Q 1347 388 1769 388 
Q 2188 388 2466 706 
Q 2744 1025 2744 1678 
Q 2744 2294 2464 2611 
Q 2184 2928 1769 2928 
Q 1347 2928 1069 2612 
Q 791 2297 791 1659 
z
" transform="scale(0.015625)"/>
       <path id="ArialMT-20" transform="scale(0.015625)"/>
       <path id="ArialMT-28" d="M 1497 -1347 
Q 1031 -759 709 28 
Q 388 816 388 1659 
Q 388 2403 628 3084 
Q 909 3875 1497 4659 
L 1900 4659 
Q 1522 4009 1400 3731 
Q 1209 3300 1100 2831 
Q 966 2247 966 1656 
Q 966 153 1900 -1347 
L 1497 -1347 
z
" transform="scale(0.015625)"/>
       <path id="ArialMT-25" d="M 372 3481 
Q 372 3972 619 4315 
Q 866 4659 1334 4659 
Q 1766 4659 2048 4351 
Q 2331 4044 2331 3447 
Q 2331 2866 2045 2552 
Q 1759 2238 1341 2238 
Q 925 2238 648 2547 
Q 372 2856 372 3481 
z
M 1350 4272 
Q 1141 4272 1002 4090 
Q 863 3909 863 3425 
Q 863 2984 1003 2804 
Q 1144 2625 1350 2625 
Q 1563 2625 1702 2806 
Q 1841 2988 1841 3469 
Q 1841 3913 1700 4092 
Q 1559 4272 1350 4272 
z
M 1353 -169 
L 3859 4659 
L 4316 4659 
L 1819 -169 
L 1353 -169 
z
M 3334 1075 
Q 3334 1569 3581 1911 
Q 3828 2253 4300 2253 
Q 4731 2253 5014 1945 
Q 5297 1638 5297 1041 
Q 5297 459 5011 145 
Q 4725 -169 4303 -169 
Q 3888 -169 3611 142 
Q 3334 453 3334 1075 
z
M 4316 1866 
Q 4103 1866 3964 1684 
Q 3825 1503 3825 1019 
Q 3825 581 3965 400 
Q 4106 219 4313 219 
Q 4528 219 4667 400 
Q 4806 581 4806 1063 
Q 4806 1506 4665 1686 
Q 4525 1866 4316 1866 
z
" transform="scale(0.015625)"/>
       <path id="ArialMT-29" d="M 791 -1347 
L 388 -1347 
Q 1322 153 1322 1656 
Q 1322 2244 1188 2822 
Q 1081 3291 891 3722 
Q 769 4003 388 4659 
L 791 4659 
Q 1378 3875 1659 3084 
Q 1900 2403 1900 1659 
Q 1900 816 1576 28 
Q 1253 -759 791 -1347 
z
" transform="scale(0.015625)"/>
      </defs>
      <use xlink:href="#ArialMT-45"/>
      <use xlink:href="#ArialMT-72" x="66.699219"/>
      <use xlink:href="#ArialMT-72" x="100"/>
      <use xlink:href="#ArialMT-6f" x="133.300781"/>
      <use xlink:href="#ArialMT-72" x="188.916016"/>
      <use xlink:href="#ArialMT-20" x="222.216797"/>
      <use xlink:href="#ArialMT-28" x="250"/>
      <use xlink:href="#ArialMT-25" x="283.300781"/>
      <use xlink:href="#ArialMT-29" x="372.216797"/>
     </g>
    </g>
   </g>
   <g id="matplotlib.axis_2">
    <g id="ytick_1">
     <g id="line2d_10">
      <path d="M 60.520625 372.1675 
L 701.28 372.1675 
" clip-path="url(#p3d65418847)" style="fill: none; stroke: #cccccc; stroke-opacity: 0.3; stroke-width: 0.5; stroke-linecap: round"/>
     </g>
     <g id="text_11">
      <!-- 0.00 -->
      <g style="fill: #262626" transform="translate(30.1675 376.462188) scale(0.12 -0.12)">
       <defs>
        <path id="ArialMT-2e" d="M 581 0 
L 581 641 
L 1222 641 
L 1222 0 
L 581 0 
z
" transform="scale(0.015625)"/>
       </defs>
       <use xlink:href="#ArialMT-30"/>
       <use xlink:href="#ArialMT-2e" x="55.615234"/>
       <use xlink:href="#ArialMT-30" x="83.398438"/>
       <use xlink:href="#ArialMT-30" x="139.013672"/>
      </g>
     </g>
    </g>
    <g id="ytick_2">
     <g id="line2d_11">
      <path d="M 60.520625 329.798739 
L 701.28 329.798739 
" clip-path="url(#p3d65418847)" style="fill: none; stroke: #cccccc; stroke-opacity: 0.3; stroke-width: 0.5; stroke-linecap: round"/>
     </g>
     <g id="text_12">
      <!-- 0.05 -->
      <g style="fill: #262626" transform="translate(30.1675 334.093427) scale(0.12 -0.12)">
       <use xlink:href="#ArialMT-30"/>
       <use xlink:href="#ArialMT-2e" x="55.615234"/>
       <use xlink:href="#ArialMT-30" x="83.398438"/>
       <use xlink:href="#ArialMT-35" x="139.013672"/>
      </g>
     </g>
    </g>
    <g id="ytick_3">
     <g id="line2d_12">
      <path d="M 60.520625 287.429978 
L 701.28 287.429978 
" clip-path="url(#p3d65418847)" style="fill: none; stroke: #cccccc; stroke-opacity: 0.3; stroke-width: 0.5; stroke-linecap: round"/>
     </g>
     <g id="text_13">
      <!-- 0.10 -->
      <g style="fill: #262626" transform="translate(30.1675 291.724666) scale(0.12 -0.12)">
       <use xlink:href="#ArialMT-30"/>
       <use xlink:href="#ArialMT-2e" x="55.615234"/>
       <use xlink:href="#ArialMT-31" x="83.398438"/>
       <use xlink:href="#ArialMT-30" x="139.013672"/>
      </g>
     </g>
    </g>
    <g id="ytick_4">
     <g id="line2d_13">
      <path d="M 60.520625 245.061217 
L 701.28 245.061217 
" clip-path="url(#p3d65418847)" style="fill: none; stroke: #cccccc; stroke-opacity: 0.3; stroke-width: 0.5; stroke-linecap: round"/>
     </g>
     <g id="text_14">
      <!-- 0.15 -->
      <g style="fill: #262626" transform="translate(30.1675 249.355905) scale(0.12 -0.12)">
       <use xlink:href="#ArialMT-30"/>
       <use xlink:href="#ArialMT-2e" x="55.615234"/>
       <use xlink:href="#ArialMT-31" x="83.398438"/>
       <use xlink:href="#ArialMT-35" x="139.013672"/>
      </g>
     </g>
    </g>
    <g id="ytick_5">
     <g id="line2d_14">
      <path d="M 60.520625 202.692456 
L 701.28 202.692456 
" clip-path="url(#p3d65418847)" style="fill: none; stroke: #cccccc; stroke-opacity: 0.3; stroke-width: 0.5; stroke-linecap: round"/>
     </g>
     <g id="text_15">
      <!-- 0.20 -->
      <g style="fill: #262626" transform="translate(30.1675 206.987144) scale(0.12 -0.12)">
       <use xlink:href="#ArialMT-30"/>
       <use xlink:href="#ArialMT-2e" x="55.615234"/>
       <use xlink:href="#ArialMT-32" x="83.398438"/>
       <use xlink:href="#ArialMT-30" x="139.013672"/>
      </g>
     </g>
    </g>
    <g id="ytick_6">
     <g id="line2d_15">
      <path d="M 60.520625 160.323695 
L 701.28 160.323695 
" clip-path="url(#p3d65418847)" style="fill: none; stroke: #cccccc; stroke-opacity: 0.3; stroke-width: 0.5; stroke-linecap: round"/>
     </g>
     <g id="text_16">
      <!-- 0.25 -->
      <g style="fill: #262626" transform="translate(30.1675 164.618383) scale(0.12 -0.12)">
       <use xlink:href="#ArialMT-30"/>
       <use xlink:href="#ArialMT-2e" x="55.615234"/>
       <use xlink:href="#ArialMT-32" x="83.398438"/>
       <use xlink:href="#ArialMT-35" x="139.013672"/>
      </g>
     </g>
    </g>
    <g id="ytick_7">
     <g id="line2d_16">
      <path d="M 60.520625 117.954935 
L 701.28 117.954935 
" clip-path="url(#p3d65418847)" style="fill: none; stroke: #cccccc; stroke-opacity: 0.3; stroke-width: 0.5; stroke-linecap: round"/>
     </g>
     <g id="text_17">
      <!-- 0.30 -->
      <g style="fill: #262626" transform="translate(30.1675 122.249622) scale(0.12 -0.12)">
       <use xlink:href="#ArialMT-30"/>
       <use xlink:href="#ArialMT-2e" x="55.615234"/>
       <use xlink:href="#ArialMT-33" x="83.398438"/>
       <use xlink:href="#ArialMT-30" x="139.013672"/>
      </g>
     </g>
    </g>
    <g id="ytick_8">
     <g id="line2d_17">
      <path d="M 60.520625 75.586174 
L 701.28 75.586174 
" clip-path="url(#p3d65418847)" style="fill: none; stroke: #cccccc; stroke-opacity: 0.3; stroke-width: 0.5; stroke-linecap: round"/>
     </g>
     <g id="text_18">
      <!-- 0.35 -->
      <g style="fill: #262626" transform="translate(30.1675 79.880861) scale(0.12 -0.12)">
       <use xlink:href="#ArialMT-30"/>
       <use xlink:href="#ArialMT-2e" x="55.615234"/>
       <use xlink:href="#ArialMT-33" x="83.398438"/>
       <use xlink:href="#ArialMT-35" x="139.013672"/>
      </g>
     </g>
    </g>
    <g id="ytick_9">
     <g id="line2d_18">
      <path d="M 60.520625 33.217413 
L 701.28 33.217413 
" clip-path="url(#p3d65418847)" style="fill: none; stroke: #cccccc; stroke-opacity: 0.3; stroke-width: 0.5; stroke-linecap: round"/>
     </g>
     <g id="text_19">
      <!-- 0.40 -->
      <g style="fill: #262626" transform="translate(30.1675 37.5121) scale(0.12 -0.12)">
       <use xlink:href="#ArialMT-30"/>
       <use xlink:href="#ArialMT-2e" x="55.615234"/>
       <use xlink:href="#ArialMT-34" x="83.398438"/>
       <use xlink:href="#ArialMT-30" x="139.013672"/>
      </g>
     </g>
    </g>
    <g id="text_20">
     <!-- Density -->
     <g style="fill: #262626" transform="translate(17.220938 221.750625) rotate(-90) scale(0.14 -0.14)">
      <defs>
       <path id="ArialMT-44" d="M 494 0 
L 494 4581 
L 2072 4581 
Q 2606 4581 2888 4516 
Q 3281 4425 3559 4188 
Q 3922 3881 4101 3404 
Q 4281 2928 4281 2316 
Q 4281 1794 4159 1391 
Q 4038 988 3847 723 
Q 3656 459 3429 307 
Q 3203 156 2883 78 
Q 2563 0 2147 0 
L 494 0 
z
M 1100 541 
L 2078 541 
Q 2531 541 2789 625 
Q 3047 709 3200 863 
Q 3416 1078 3536 1442 
Q 3656 1806 3656 2325 
Q 3656 3044 3420 3430 
Q 3184 3816 2847 3947 
Q 2603 4041 2063 4041 
L 1100 4041 
L 1100 541 
z
" transform="scale(0.015625)"/>
       <path id="ArialMT-65" d="M 2694 1069 
L 3275 997 
Q 3138 488 2766 206 
Q 2394 -75 1816 -75 
Q 1088 -75 661 373 
Q 234 822 234 1631 
Q 234 2469 665 2931 
Q 1097 3394 1784 3394 
Q 2450 3394 2872 2941 
Q 3294 2488 3294 1666 
Q 3294 1616 3291 1516 
L 816 1516 
Q 847 969 1125 678 
Q 1403 388 1819 388 
Q 2128 388 2347 550 
Q 2566 713 2694 1069 
z
M 847 1978 
L 2700 1978 
Q 2663 2397 2488 2606 
Q 2219 2931 1791 2931 
Q 1403 2931 1139 2672 
Q 875 2413 847 1978 
z
" transform="scale(0.015625)"/>
       <path id="ArialMT-6e" d="M 422 0 
L 422 3319 
L 928 3319 
L 928 2847 
Q 1294 3394 1984 3394 
Q 2284 3394 2536 3286 
Q 2788 3178 2913 3003 
Q 3038 2828 3088 2588 
Q 3119 2431 3119 2041 
L 3119 0 
L 2556 0 
L 2556 2019 
Q 2556 2363 2490 2533 
Q 2425 2703 2258 2804 
Q 2091 2906 1866 2906 
Q 1506 2906 1245 2678 
Q 984 2450 984 1813 
L 984 0 
L 422 0 
z
" transform="scale(0.015625)"/>
       <path id="ArialMT-73" d="M 197 991 
L 753 1078 
Q 800 744 1014 566 
Q 1228 388 1613 388 
Q 2000 388 2187 545 
Q 2375 703 2375 916 
Q 2375 1106 2209 1216 
Q 2094 1291 1634 1406 
Q 1016 1563 777 1677 
Q 538 1791 414 1992 
Q 291 2194 291 2438 
Q 291 2659 392 2848 
Q 494 3038 669 3163 
Q 800 3259 1026 3326 
Q 1253 3394 1513 3394 
Q 1903 3394 2198 3281 
Q 2494 3169 2634 2976 
Q 2775 2784 2828 2463 
L 2278 2388 
Q 2241 2644 2061 2787 
Q 1881 2931 1553 2931 
Q 1166 2931 1000 2803 
Q 834 2675 834 2503 
Q 834 2394 903 2306 
Q 972 2216 1119 2156 
Q 1203 2125 1616 2013 
Q 2213 1853 2448 1751 
Q 2684 1650 2818 1456 
Q 2953 1263 2953 975 
Q 2953 694 2789 445 
Q 2625 197 2315 61 
Q 2006 -75 1616 -75 
Q 969 -75 630 194 
Q 291 463 197 991 
z
" transform="scale(0.015625)"/>
       <path id="ArialMT-69" d="M 425 3934 
L 425 4581 
L 988 4581 
L 988 3934 
L 425 3934 
z
M 425 0 
L 425 3319 
L 988 3319 
L 988 0 
L 425 0 
z
" transform="scale(0.015625)"/>
       <path id="ArialMT-74" d="M 1650 503 
L 1731 6 
Q 1494 -44 1306 -44 
Q 1000 -44 831 53 
Q 663 150 594 308 
Q 525 466 525 972 
L 525 2881 
L 113 2881 
L 113 3319 
L 525 3319 
L 525 4141 
L 1084 4478 
L 1084 3319 
L 1650 3319 
L 1650 2881 
L 1084 2881 
L 1084 941 
Q 1084 700 1114 631 
Q 1144 563 1211 522 
Q 1278 481 1403 481 
Q 1497 481 1650 503 
z
" transform="scale(0.015625)"/>
       <path id="ArialMT-79" d="M 397 -1278 
L 334 -750 
Q 519 -800 656 -800 
Q 844 -800 956 -737 
Q 1069 -675 1141 -563 
Q 1194 -478 1313 -144 
Q 1328 -97 1363 -6 
L 103 3319 
L 709 3319 
L 1400 1397 
Q 1534 1031 1641 628 
Q 1738 1016 1872 1384 
L 2581 3319 
L 3144 3319 
L 1881 -56 
Q 1678 -603 1566 -809 
Q 1416 -1088 1222 -1217 
Q 1028 -1347 759 -1347 
Q 597 -1347 397 -1278 
z
" transform="scale(0.015625)"/>
      </defs>
      <use xlink:href="#ArialMT-44"/>
      <use xlink:href="#ArialMT-65" x="72.216797"/>
      <use xlink:href="#ArialMT-6e" x="127.832031"/>
      <use xlink:href="#ArialMT-73" x="183.447266"/>
      <use xlink:href="#ArialMT-69" x="233.447266"/>
      <use xlink:href="#ArialMT-74" x="255.664062"/>
      <use xlink:href="#ArialMT-79" x="283.447266"/>
     </g>
    </g>
   </g>
   <g id="PolyCollection_1">
    <defs>
     <path id="m40c59d78d6" d="M 132.630293 -48.757218 
L 132.630293 -48.3125 
L 135.34147 -48.3125 
L 138.052647 -48.3125 
L 140.763825 -48.3125 
L 143.475002 -48.3125 
L 146.186179 -48.3125 
L 148.897356 -48.3125 
L 151.608534 -48.3125 
L 154.319711 -48.3125 
L 157.030888 -48.3125 
L 159.742066 -48.3125 
L 162.453243 -48.3125 
L 165.16442 -48.3125 
L 167.875598 -48.3125 
L 170.586775 -48.3125 
L 173.297952 -48.3125 
L 176.009129 -48.3125 
L 178.720307 -48.3125 
L 181.431484 -48.3125 
L 184.142661 -48.3125 
L 186.853839 -48.3125 
L 189.565016 -48.3125 
L 192.276193 -48.3125 
L 194.98737 -48.3125 
L 197.698548 -48.3125 
L 200.409725 -48.3125 
L 203.120902 -48.3125 
L 205.83208 -48.3125 
L 208.543257 -48.3125 
L 211.254434 -48.3125 
L 213.965612 -48.3125 
L 216.676789 -48.3125 
L 219.387966 -48.3125 
L 222.099143 -48.3125 
L 224.810321 -48.3125 
L 227.521498 -48.3125 
L 230.232675 -48.3125 
L 232.943853 -48.3125 
L 235.65503 -48.3125 
L 238.366207 -48.3125 
L 241.077384 -48.3125 
L 243.788562 -48.3125 
L 246.499739 -48.3125 
L 249.210916 -48.3125 
L 251.922094 -48.3125 
L 254.633271 -48.3125 
L 257.344448 -48.3125 
L 260.055625 -48.3125 
L 262.766803 -48.3125 
L 265.47798 -48.3125 
L 268.189157 -48.3125 
L 270.900335 -48.3125 
L 273.611512 -48.3125 
L 276.322689 -48.3125 
L 279.033867 -48.3125 
L 281.745044 -48.3125 
L 284.456221 -48.3125 
L 287.167398 -48.3125 
L 289.878576 -48.3125 
L 292.589753 -48.3125 
L 295.30093 -48.3125 
L 298.012108 -48.3125 
L 300.723285 -48.3125 
L 303.434462 -48.3125 
L 306.145639 -48.3125 
L 308.856817 -48.3125 
L 311.567994 -48.3125 
L 314.279171 -48.3125 
L 316.990349 -48.3125 
L 319.701526 -48.3125 
L 322.412703 -48.3125 
L 325.12388 -48.3125 
L 327.835058 -48.3125 
L 330.546235 -48.3125 
L 333.257412 -48.3125 
L 335.96859 -48.3125 
L 338.679767 -48.3125 
L 341.390944 -48.3125 
L 344.102122 -48.3125 
L 346.813299 -48.3125 
L 349.524476 -48.3125 
L 352.235653 -48.3125 
L 354.946831 -48.3125 
L 357.658008 -48.3125 
L 360.369185 -48.3125 
L 363.080363 -48.3125 
L 365.79154 -48.3125 
L 368.502717 -48.3125 
L 371.213894 -48.3125 
L 373.925072 -48.3125 
L 376.636249 -48.3125 
L 379.347426 -48.3125 
L 382.058604 -48.3125 
L 384.769781 -48.3125 
L 387.480958 -48.3125 
L 390.192135 -48.3125 
L 392.903313 -48.3125 
L 395.61449 -48.3125 
L 398.325667 -48.3125 
L 401.036845 -48.3125 
L 403.748022 -48.3125 
L 406.459199 -48.3125 
L 409.170377 -48.3125 
L 411.881554 -48.3125 
L 414.592731 -48.3125 
L 417.303908 -48.3125 
L 420.015086 -48.3125 
L 422.726263 -48.3125 
L 425.43744 -48.3125 
L 428.148618 -48.3125 
L 430.859795 -48.3125 
L 433.570972 -48.3125 
L 436.282149 -48.3125 
L 438.993327 -48.3125 
L 441.704504 -48.3125 
L 444.415681 -48.3125 
L 447.126859 -48.3125 
L 449.838036 -48.3125 
L 452.549213 -48.3125 
L 455.260391 -48.3125 
L 457.971568 -48.3125 
L 460.682745 -48.3125 
L 463.393922 -48.3125 
L 466.1051 -48.3125 
L 468.816277 -48.3125 
L 471.527454 -48.3125 
L 474.238632 -48.3125 
L 476.949809 -48.3125 
L 479.660986 -48.3125 
L 482.372163 -48.3125 
L 485.083341 -48.3125 
L 487.794518 -48.3125 
L 490.505695 -48.3125 
L 493.216873 -48.3125 
L 495.92805 -48.3125 
L 498.639227 -48.3125 
L 501.350404 -48.3125 
L 504.061582 -48.3125 
L 506.772759 -48.3125 
L 509.483936 -48.3125 
L 512.195114 -48.3125 
L 514.906291 -48.3125 
L 517.617468 -48.3125 
L 520.328646 -48.3125 
L 523.039823 -48.3125 
L 525.751 -48.3125 
L 528.462177 -48.3125 
L 531.173355 -48.3125 
L 533.884532 -48.3125 
L 536.595709 -48.3125 
L 539.306887 -48.3125 
L 542.018064 -48.3125 
L 544.729241 -48.3125 
L 547.440418 -48.3125 
L 550.151596 -48.3125 
L 552.862773 -48.3125 
L 555.57395 -48.3125 
L 558.285128 -48.3125 
L 560.996305 -48.3125 
L 563.707482 -48.3125 
L 566.418659 -48.3125 
L 569.129837 -48.3125 
L 571.841014 -48.3125 
L 574.552191 -48.3125 
L 577.263369 -48.3125 
L 579.974546 -48.3125 
L 582.685723 -48.3125 
L 585.396901 -48.3125 
L 588.108078 -48.3125 
L 590.819255 -48.3125 
L 593.530432 -48.3125 
L 596.24161 -48.3125 
L 598.952787 -48.3125 
L 601.663964 -48.3125 
L 604.375142 -48.3125 
L 607.086319 -48.3125 
L 609.797496 -48.3125 
L 612.508673 -48.3125 
L 615.219851 -48.3125 
L 617.931028 -48.3125 
L 620.642205 -48.3125 
L 623.353383 -48.3125 
L 626.06456 -48.3125 
L 628.775737 -48.3125 
L 631.486914 -48.3125 
L 634.198092 -48.3125 
L 636.909269 -48.3125 
L 639.620446 -48.3125 
L 642.331624 -48.3125 
L 645.042801 -48.3125 
L 647.753978 -48.3125 
L 650.465156 -48.3125 
L 653.176333 -48.3125 
L 655.88751 -48.3125 
L 658.598687 -48.3125 
L 661.309865 -48.3125 
L 664.021042 -48.3125 
L 666.732219 -48.3125 
L 669.443397 -48.3125 
L 672.154574 -48.3125 
L 672.154574 -48.844061 
L 672.154574 -48.844061 
L 669.443397 -48.963423 
L 666.732219 -49.106039 
L 664.021042 -49.275599 
L 661.309865 -49.476198 
L 658.598687 -49.712343 
L 655.88751 -49.988949 
L 653.176333 -50.311335 
L 650.465156 -50.685197 
L 647.753978 -51.116579 
L 645.042801 -51.61182 
L 642.331624 -52.1775 
L 639.620446 -52.820354 
L 636.909269 -53.547184 
L 634.198092 -54.364751 
L 631.486914 -55.279647 
L 628.775737 -56.298164 
L 626.06456 -57.426142 
L 623.353383 -58.668814 
L 620.642205 -60.030644 
L 617.931028 -61.515166 
L 615.219851 -63.124819 
L 612.508673 -64.8608 
L 609.797496 -66.722922 
L 607.086319 -68.709495 
L 604.375142 -70.817227 
L 601.663964 -73.041157 
L 598.952787 -75.374621 
L 596.24161 -77.809248 
L 593.530432 -80.335003 
L 590.819255 -82.940268 
L 588.108078 -85.611961 
L 585.396901 -88.335697 
L 582.685723 -91.095989 
L 579.974546 -93.876478 
L 577.263369 -96.660191 
L 574.552191 -99.429826 
L 571.841014 -102.16804 
L 569.129837 -104.857758 
L 566.418659 -107.482461 
L 563.707482 -110.02648 
L 560.996305 -112.475252 
L 558.285128 -114.815562 
L 555.57395 -117.035741 
L 552.862773 -119.125823 
L 550.151596 -121.077662 
L 547.440418 -122.885 
L 544.729241 -124.54348 
L 542.018064 -126.050623 
L 539.306887 -127.405756 
L 536.595709 -128.609907 
L 533.884532 -129.665662 
L 531.173355 -130.577014 
L 528.462177 -131.34918 
L 525.751 -131.988431 
L 523.039823 -132.501923 
L 520.328646 -132.897534 
L 517.617468 -133.183743 
L 514.906291 -133.369519 
L 512.195114 -133.464265 
L 509.483936 -133.477785 
L 506.772759 -133.420302 
L 504.061582 -133.302512 
L 501.350404 -133.135672 
L 498.639227 -132.931725 
L 495.92805 -132.703439 
L 493.216873 -132.464569 
L 490.505695 -132.230014 
L 487.794518 -132.015976 
L 485.083341 -131.840088 
L 482.372163 -131.721519 
L 479.660986 -131.681034 
L 476.949809 -131.741 
L 474.238632 -131.925333 
L 471.527454 -132.259379 
L 468.816277 -132.769723 
L 466.1051 -133.483926 
L 463.393922 -134.430192 
L 460.682745 -135.636976 
L 457.971568 -137.132518 
L 455.260391 -138.94435 
L 452.549213 -141.098745 
L 449.838036 -143.620159 
L 447.126859 -146.530662 
L 444.415681 -149.84937 
L 441.704504 -153.591917 
L 438.993327 -157.769952 
L 436.282149 -162.390712 
L 433.570972 -167.456644 
L 430.859795 -172.965129 
L 428.148618 -178.908285 
L 425.43744 -185.272872 
L 422.726263 -192.040299 
L 420.015086 -199.186734 
L 417.303908 -206.683307 
L 414.592731 -214.496419 
L 411.881554 -222.588122 
L 409.170377 -230.916581 
L 406.459199 -239.436601 
L 403.748022 -248.100195 
L 401.036845 -256.857187 
L 398.325667 -265.655839 
L 395.61449 -274.443472 
L 392.903313 -283.167087 
L 390.192135 -291.773951 
L 387.480958 -300.212163 
L 384.769781 -308.431165 
L 382.058604 -316.382212 
L 379.347426 -324.018783 
L 376.636249 -331.296942 
L 373.925072 -338.175635 
L 371.213894 -344.61694 
L 368.502717 -350.586264 
L 365.79154 -356.052486 
L 363.080363 -360.988074 
L 360.369185 -365.369144 
L 357.658008 -369.17551 
L 354.946831 -372.390694 
L 352.235653 -375.001915 
L 349.524476 -377.000068 
L 346.813299 -378.379678 
L 344.102122 -379.138844 
L 341.390944 -379.279167 
L 338.679767 -378.805661 
L 335.96859 -377.726653 
L 333.257412 -376.053654 
L 330.546235 -373.80122 
L 327.835058 -370.986786 
L 325.12388 -367.630474 
L 322.412703 -363.754878 
L 319.701526 -359.384828 
L 316.990349 -354.547125 
L 314.279171 -349.270262 
L 311.567994 -343.584124 
L 308.856817 -337.519677 
L 306.145639 -331.108654 
L 303.434462 -324.383239 
L 300.723285 -317.375762 
L 298.012108 -310.118402 
L 295.30093 -302.642924 
L 292.589753 -294.98043 
L 289.878576 -287.161154 
L 287.167398 -279.214289 
L 284.456221 -271.167853 
L 281.745044 -263.0486 
L 279.033867 -254.881966 
L 276.322689 -246.692056 
L 273.611512 -238.501662 
L 270.900335 -230.332315 
L 268.189157 -222.204347 
L 265.47798 -214.136988 
L 262.766803 -206.148449 
L 260.055625 -198.256027 
L 257.344448 -190.476185 
L 254.633271 -182.824636 
L 251.922094 -175.316403 
L 249.210916 -167.965851 
L 246.499739 -160.786713 
L 243.788562 -153.792073 
L 241.077384 -146.994339 
L 238.366207 -140.405184 
L 235.65503 -134.035475 
L 232.943853 -127.895185 
L 230.232675 -121.993292 
L 227.521498 -116.337677 
L 224.810321 -110.935022 
L 222.099143 -105.790719 
L 219.387966 -100.90878 
L 216.676789 -96.291778 
L 213.965612 -91.940796 
L 211.254434 -87.855409 
L 208.543257 -84.033684 
L 205.83208 -80.472209 
L 203.120902 -77.166151 
L 200.409725 -74.109332 
L 197.698548 -71.294333 
L 194.98737 -68.712611 
L 192.276193 -66.354642 
L 189.565016 -64.210064 
L 186.853839 -62.267838 
L 184.142661 -60.516406 
L 181.431484 -58.943856 
L 178.720307 -57.53807 
L 176.009129 -56.286881 
L 173.297952 -55.17821 
L 170.586775 -54.200189 
L 167.875598 -53.341277 
L 165.16442 -52.590354 
L 162.453243 -51.9368 
L 159.742066 -51.370563 
L 157.030888 -50.882202 
L 154.319711 -50.462923 
L 151.608534 -50.104596 
L 148.897356 -49.799758 
L 146.186179 -49.541612 
L 143.475002 -49.324009 
L 140.763825 -49.141424 
L 138.052647 -48.988924 
L 135.34147 -48.862139 
L 132.630293 -48.757218 
z
" style="stroke: #2ecc71"/>
    </defs>
    <g clip-path="url(#p3d65418847)">
     <use xlink:href="#m40c59d78d6" x="0" y="420.48" style="fill: #2ecc71; fill-opacity: 0.3; stroke: #2ecc71"/>
    </g>
   </g>
   <g id="PolyCollection_2">
    <defs>
     <path id="mcc2a08acd1" d="M 89.646051 -49.923596 
L 89.646051 -48.3125 
L 92.511721 -48.3125 
L 95.377391 -48.3125 
L 98.243061 -48.3125 
L 101.10873 -48.3125 
L 103.9744 -48.3125 
L 106.84007 -48.3125 
L 109.70574 -48.3125 
L 112.57141 -48.3125 
L 115.437079 -48.3125 
L 118.302749 -48.3125 
L 121.168419 -48.3125 
L 124.034089 -48.3125 
L 126.899759 -48.3125 
L 129.765429 -48.3125 
L 132.631098 -48.3125 
L 135.496768 -48.3125 
L 138.362438 -48.3125 
L 141.228108 -48.3125 
L 144.093778 -48.3125 
L 146.959447 -48.3125 
L 149.825117 -48.3125 
L 152.690787 -48.3125 
L 155.556457 -48.3125 
L 158.422127 -48.3125 
L 161.287797 -48.3125 
L 164.153466 -48.3125 
L 167.019136 -48.3125 
L 169.884806 -48.3125 
L 172.750476 -48.3125 
L 175.616146 -48.3125 
L 178.481815 -48.3125 
L 181.347485 -48.3125 
L 184.213155 -48.3125 
L 187.078825 -48.3125 
L 189.944495 -48.3125 
L 192.810165 -48.3125 
L 195.675834 -48.3125 
L 198.541504 -48.3125 
L 201.407174 -48.3125 
L 204.272844 -48.3125 
L 207.138514 -48.3125 
L 210.004183 -48.3125 
L 212.869853 -48.3125 
L 215.735523 -48.3125 
L 218.601193 -48.3125 
L 221.466863 -48.3125 
L 224.332532 -48.3125 
L 227.198202 -48.3125 
L 230.063872 -48.3125 
L 232.929542 -48.3125 
L 235.795212 -48.3125 
L 238.660882 -48.3125 
L 241.526551 -48.3125 
L 244.392221 -48.3125 
L 247.257891 -48.3125 
L 250.123561 -48.3125 
L 252.989231 -48.3125 
L 255.8549 -48.3125 
L 258.72057 -48.3125 
L 261.58624 -48.3125 
L 264.45191 -48.3125 
L 267.31758 -48.3125 
L 270.18325 -48.3125 
L 273.048919 -48.3125 
L 275.914589 -48.3125 
L 278.780259 -48.3125 
L 281.645929 -48.3125 
L 284.511599 -48.3125 
L 287.377268 -48.3125 
L 290.242938 -48.3125 
L 293.108608 -48.3125 
L 295.974278 -48.3125 
L 298.839948 -48.3125 
L 301.705618 -48.3125 
L 304.571287 -48.3125 
L 307.436957 -48.3125 
L 310.302627 -48.3125 
L 313.168297 -48.3125 
L 316.033967 -48.3125 
L 318.899636 -48.3125 
L 321.765306 -48.3125 
L 324.630976 -48.3125 
L 327.496646 -48.3125 
L 330.362316 -48.3125 
L 333.227985 -48.3125 
L 336.093655 -48.3125 
L 338.959325 -48.3125 
L 341.824995 -48.3125 
L 344.690665 -48.3125 
L 347.556335 -48.3125 
L 350.422004 -48.3125 
L 353.287674 -48.3125 
L 356.153344 -48.3125 
L 359.019014 -48.3125 
L 361.884684 -48.3125 
L 364.750353 -48.3125 
L 367.616023 -48.3125 
L 370.481693 -48.3125 
L 373.347363 -48.3125 
L 376.213033 -48.3125 
L 379.078703 -48.3125 
L 381.944372 -48.3125 
L 384.810042 -48.3125 
L 387.675712 -48.3125 
L 390.541382 -48.3125 
L 393.407052 -48.3125 
L 396.272721 -48.3125 
L 399.138391 -48.3125 
L 402.004061 -48.3125 
L 404.869731 -48.3125 
L 407.735401 -48.3125 
L 410.601071 -48.3125 
L 413.46674 -48.3125 
L 416.33241 -48.3125 
L 419.19808 -48.3125 
L 422.06375 -48.3125 
L 424.92942 -48.3125 
L 427.795089 -48.3125 
L 430.660759 -48.3125 
L 433.526429 -48.3125 
L 436.392099 -48.3125 
L 439.257769 -48.3125 
L 442.123438 -48.3125 
L 444.989108 -48.3125 
L 447.854778 -48.3125 
L 450.720448 -48.3125 
L 453.586118 -48.3125 
L 456.451788 -48.3125 
L 459.317457 -48.3125 
L 462.183127 -48.3125 
L 465.048797 -48.3125 
L 467.914467 -48.3125 
L 470.780137 -48.3125 
L 473.645806 -48.3125 
L 476.511476 -48.3125 
L 479.377146 -48.3125 
L 482.242816 -48.3125 
L 485.108486 -48.3125 
L 487.974156 -48.3125 
L 490.839825 -48.3125 
L 493.705495 -48.3125 
L 496.571165 -48.3125 
L 499.436835 -48.3125 
L 502.302505 -48.3125 
L 505.168174 -48.3125 
L 508.033844 -48.3125 
L 510.899514 -48.3125 
L 513.765184 -48.3125 
L 516.630854 -48.3125 
L 519.496524 -48.3125 
L 522.362193 -48.3125 
L 525.227863 -48.3125 
L 528.093533 -48.3125 
L 530.959203 -48.3125 
L 533.824873 -48.3125 
L 536.690542 -48.3125 
L 539.556212 -48.3125 
L 542.421882 -48.3125 
L 545.287552 -48.3125 
L 548.153222 -48.3125 
L 551.018892 -48.3125 
L 553.884561 -48.3125 
L 556.750231 -48.3125 
L 559.615901 -48.3125 
L 562.481571 -48.3125 
L 565.347241 -48.3125 
L 568.21291 -48.3125 
L 571.07858 -48.3125 
L 573.94425 -48.3125 
L 576.80992 -48.3125 
L 579.67559 -48.3125 
L 582.541259 -48.3125 
L 585.406929 -48.3125 
L 588.272599 -48.3125 
L 591.138269 -48.3125 
L 594.003939 -48.3125 
L 596.869609 -48.3125 
L 599.735278 -48.3125 
L 602.600948 -48.3125 
L 605.466618 -48.3125 
L 608.332288 -48.3125 
L 611.197958 -48.3125 
L 614.063627 -48.3125 
L 616.929297 -48.3125 
L 619.794967 -48.3125 
L 622.660637 -48.3125 
L 625.526307 -48.3125 
L 628.391977 -48.3125 
L 631.257646 -48.3125 
L 634.123316 -48.3125 
L 636.988986 -48.3125 
L 639.854656 -48.3125 
L 642.720326 -48.3125 
L 645.585995 -48.3125 
L 648.451665 -48.3125 
L 651.317335 -48.3125 
L 654.183005 -48.3125 
L 657.048675 -48.3125 
L 659.914345 -48.3125 
L 659.914345 -49.383848 
L 659.914345 -49.383848 
L 657.048675 -49.536652 
L 654.183005 -49.708452 
L 651.317335 -49.901179 
L 648.451665 -50.1169 
L 645.585995 -50.357816 
L 642.720326 -50.626264 
L 639.854656 -50.924714 
L 636.988986 -51.255769 
L 634.123316 -51.622155 
L 631.257646 -52.026716 
L 628.391977 -52.472407 
L 625.526307 -52.962279 
L 622.660637 -53.499467 
L 619.794967 -54.087174 
L 616.929297 -54.728651 
L 614.063627 -55.427177 
L 611.197958 -56.186033 
L 608.332288 -57.008479 
L 605.466618 -57.897721 
L 602.600948 -58.856881 
L 599.735278 -59.888967 
L 596.869609 -60.996831 
L 594.003939 -62.183136 
L 591.138269 -63.45032 
L 588.272599 -64.800548 
L 585.406929 -66.235681 
L 582.541259 -67.75723 
L 579.67559 -69.366322 
L 576.80992 -71.063653 
L 573.94425 -72.84946 
L 571.07858 -74.723483 
L 568.21291 -76.684932 
L 565.347241 -78.732461 
L 562.481571 -80.864145 
L 559.615901 -83.077461 
L 556.750231 -85.369278 
L 553.884561 -87.735844 
L 551.018892 -90.172797 
L 548.153222 -92.675163 
L 545.287552 -95.23738 
L 542.421882 -97.853315 
L 539.556212 -100.516304 
L 536.690542 -103.219188 
L 533.824873 -105.954364 
L 530.959203 -108.713844 
L 528.093533 -111.48932 
L 525.227863 -114.272242 
L 522.362193 -117.053893 
L 519.496524 -119.825483 
L 516.630854 -122.578242 
L 513.765184 -125.303515 
L 510.899514 -127.99287 
L 508.033844 -130.638198 
L 505.168174 -133.231824 
L 502.302505 -135.766611 
L 499.436835 -138.236065 
L 496.571165 -140.634436 
L 493.705495 -142.956819 
L 490.839825 -145.19924 
L 487.974156 -147.358745 
L 485.108486 -149.433469 
L 482.242816 -151.422707 
L 479.377146 -153.32696 
L 476.511476 -155.147977 
L 473.645806 -156.888783 
L 470.780137 -158.553684 
L 467.914467 -160.148269 
L 465.048797 -161.67938 
L 462.183127 -163.155083 
L 459.317457 -164.584608 
L 456.451788 -165.978279 
L 453.586118 -167.347428 
L 450.720448 -168.704289 
L 447.854778 -170.061886 
L 444.989108 -171.433896 
L 442.123438 -172.834504 
L 439.257769 -174.278254 
L 436.392099 -175.779875 
L 433.526429 -177.354114 
L 430.660759 -179.015552 
L 427.795089 -180.778425 
L 424.92942 -182.656434 
L 422.06375 -184.662562 
L 419.19808 -186.808889 
L 416.33241 -189.106417 
L 413.46674 -191.564892 
L 410.601071 -194.19265 
L 407.735401 -196.996456 
L 404.869731 -199.981372 
L 402.004061 -203.150629 
L 399.138391 -206.505521 
L 396.272721 -210.045317 
L 393.407052 -213.767189 
L 390.541382 -217.666163 
L 387.675712 -221.735093 
L 384.810042 -225.964654 
L 381.944372 -230.34336 
L 379.078703 -234.857601 
L 376.213033 -239.491711 
L 373.347363 -244.228049 
L 370.481693 -249.047105 
L 367.616023 -253.927632 
L 364.750353 -258.846791 
L 361.884684 -263.780315 
L 359.019014 -268.702698 
L 356.153344 -273.587386 
L 353.287674 -278.406996 
L 350.422004 -283.133533 
L 347.556335 -287.738624 
L 344.690665 -292.193759 
L 341.824995 -296.470528 
L 338.959325 -300.540869 
L 336.093655 -304.377312 
L 333.227985 -307.953214 
L 330.362316 -311.242997 
L 327.496646 -314.222373 
L 324.630976 -316.868555 
L 321.765306 -319.160462 
L 318.899636 -321.078902 
L 316.033967 -322.606744 
L 313.168297 -323.729064 
L 310.302627 -324.433278 
L 307.436957 -324.709247 
L 304.571287 -324.549362 
L 301.705618 -323.948607 
L 298.839948 -322.904593 
L 295.974278 -321.41757 
L 293.108608 -319.490421 
L 290.242938 -317.128616 
L 287.377268 -314.340163 
L 284.511599 -311.135517 
L 281.645929 -307.527483 
L 278.780259 -303.531089 
L 275.914589 -299.163445 
L 273.048919 -294.443584 
L 270.18325 -289.39229 
L 267.31758 -284.03191 
L 264.45191 -278.386158 
L 261.58624 -272.479913 
L 258.72057 -266.339002 
L 255.8549 -259.989995 
L 252.989231 -253.459984 
L 250.123561 -246.77637 
L 247.257891 -239.966653 
L 244.392221 -233.058231 
L 241.526551 -226.078196 
L 238.660882 -219.053151 
L 235.795212 -212.009034 
L 232.929542 -204.970948 
L 230.063872 -197.963017 
L 227.198202 -191.008246 
L 224.332532 -184.128405 
L 221.466863 -177.343919 
L 218.601193 -170.673791 
L 215.735523 -164.13552 
L 212.869853 -157.745058 
L 210.004183 -151.516768 
L 207.138514 -145.463402 
L 204.272844 -139.596102 
L 201.407174 -133.924403 
L 198.541504 -128.45626 
L 195.675834 -123.198083 
L 192.810165 -118.154784 
L 189.944495 -113.329836 
L 187.078825 -108.725342 
L 184.213155 -104.342106 
L 181.347485 -100.179716 
L 178.481815 -96.236635 
L 175.616146 -92.510287 
L 172.750476 -88.997149 
L 169.884806 -85.692854 
L 167.019136 -82.592277 
L 164.153466 -79.689636 
L 161.287797 -76.978585 
L 158.422127 -74.452298 
L 155.556457 -72.103567 
L 152.690787 -69.924875 
L 149.825117 -67.908482 
L 146.959447 -66.046498 
L 144.093778 -64.330949 
L 141.228108 -62.753843 
L 138.362438 -61.307228 
L 135.496768 -59.983241 
L 132.631098 -58.774158 
L 129.765429 -57.67243 
L 126.899759 -56.670722 
L 124.034089 -55.761941 
L 121.168419 -54.939259 
L 118.302749 -54.196134 
L 115.437079 -53.526323 
L 112.57141 -52.923897 
L 109.70574 -52.383242 
L 106.84007 -51.899066 
L 103.9744 -51.466398 
L 101.10873 -51.080583 
L 98.243061 -50.737283 
L 95.377391 -50.432463 
L 92.511721 -50.162385 
L 89.646051 -49.923596 
z
" style="stroke: #e74c3c"/>
    </defs>
    <g clip-path="url(#p3d65418847)">
     <use xlink:href="#mcc2a08acd1" x="0" y="420.48" style="fill: #e74c3c; fill-opacity: 0.3; stroke: #e74c3c"/>
    </g>
   </g>
   <g id="patch_3">
    <path d="M 60.520625 372.1675 
L 60.520625 24.6525 
" style="fill: none; stroke: #cccccc; stroke-width: 1.5; stroke-linejoin: miter; stroke-linecap: square"/>
   </g>
   <g id="patch_4">
    <path d="M 60.520625 372.1675 
L 701.28 372.1675 
" style="fill: none; stroke: #cccccc; stroke-width: 1.5; stroke-linejoin: miter; stroke-linecap: square"/>
   </g>
   <g id="text_21">
    <!-- Distribution of Absolute Errors -->
    <g style="fill: #262626" transform="translate(275.080312 18.6525) scale(0.16 -0.16)">
     <defs>
      <path id="ArialMT-62" d="M 941 0 
L 419 0 
L 419 4581 
L 981 4581 
L 981 2947 
Q 1338 3394 1891 3394 
Q 2197 3394 2470 3270 
Q 2744 3147 2920 2923 
Q 3097 2700 3197 2384 
Q 3297 2069 3297 1709 
Q 3297 856 2875 390 
Q 2453 -75 1863 -75 
Q 1275 -75 941 416 
L 941 0 
z
M 934 1684 
Q 934 1088 1097 822 
Q 1363 388 1816 388 
Q 2184 388 2453 708 
Q 2722 1028 2722 1663 
Q 2722 2313 2464 2622 
Q 2206 2931 1841 2931 
Q 1472 2931 1203 2611 
Q 934 2291 934 1684 
z
" transform="scale(0.015625)"/>
      <path id="ArialMT-75" d="M 2597 0 
L 2597 488 
Q 2209 -75 1544 -75 
Q 1250 -75 995 37 
Q 741 150 617 320 
Q 494 491 444 738 
Q 409 903 409 1263 
L 409 3319 
L 972 3319 
L 972 1478 
Q 972 1038 1006 884 
Q 1059 663 1231 536 
Q 1403 409 1656 409 
Q 1909 409 2131 539 
Q 2353 669 2445 892 
Q 2538 1116 2538 1541 
L 2538 3319 
L 3100 3319 
L 3100 0 
L 2597 0 
z
" transform="scale(0.015625)"/>
      <path id="ArialMT-66" d="M 556 0 
L 556 2881 
L 59 2881 
L 59 3319 
L 556 3319 
L 556 3672 
Q 556 4006 616 4169 
Q 697 4388 901 4523 
Q 1106 4659 1475 4659 
Q 1713 4659 2000 4603 
L 1916 4113 
Q 1741 4144 1584 4144 
Q 1328 4144 1222 4034 
Q 1116 3925 1116 3625 
L 1116 3319 
L 1763 3319 
L 1763 2881 
L 1116 2881 
L 1116 0 
L 556 0 
z
" transform="scale(0.015625)"/>
      <path id="ArialMT-41" d="M -9 0 
L 1750 4581 
L 2403 4581 
L 4278 0 
L 3588 0 
L 3053 1388 
L 1138 1388 
L 634 0 
L -9 0 
z
M 1313 1881 
L 2866 1881 
L 2388 3150 
Q 2169 3728 2063 4100 
Q 1975 3659 1816 3225 
L 1313 1881 
z
" transform="scale(0.015625)"/>
      <path id="ArialMT-6c" d="M 409 0 
L 409 4581 
L 972 4581 
L 972 0 
L 409 0 
z
" transform="scale(0.015625)"/>
     </defs>
     <use xlink:href="#ArialMT-44"/>
     <use xlink:href="#ArialMT-69" x="72.216797"/>
     <use xlink:href="#ArialMT-73" x="94.433594"/>
     <use xlink:href="#ArialMT-74" x="144.433594"/>
     <use xlink:href="#ArialMT-72" x="172.216797"/>
     <use xlink:href="#ArialMT-69" x="205.517578"/>
     <use xlink:href="#ArialMT-62" x="227.734375"/>
     <use xlink:href="#ArialMT-75" x="283.349609"/>
     <use xlink:href="#ArialMT-74" x="338.964844"/>
     <use xlink:href="#ArialMT-69" x="366.748047"/>
     <use xlink:href="#ArialMT-6f" x="388.964844"/>
     <use xlink:href="#ArialMT-6e" x="444.580078"/>
     <use xlink:href="#ArialMT-20" x="500.195312"/>
     <use xlink:href="#ArialMT-6f" x="527.978516"/>
     <use xlink:href="#ArialMT-66" x="583.59375"/>
     <use xlink:href="#ArialMT-20" x="611.376953"/>
     <use xlink:href="#ArialMT-41" x="633.660156"/>
     <use xlink:href="#ArialMT-62" x="700.359375"/>
     <use xlink:href="#ArialMT-73" x="755.974609"/>
     <use xlink:href="#ArialMT-6f" x="805.974609"/>
     <use xlink:href="#ArialMT-6c" x="861.589844"/>
     <use xlink:href="#ArialMT-75" x="883.806641"/>
     <use xlink:href="#ArialMT-74" x="939.421875"/>
     <use xlink:href="#ArialMT-65" x="967.205078"/>
     <use xlink:href="#ArialMT-20" x="1022.820312"/>
     <use xlink:href="#ArialMT-45" x="1050.603516"/>
     <use xlink:href="#ArialMT-72" x="1117.302734"/>
     <use xlink:href="#ArialMT-72" x="1150.603516"/>
     <use xlink:href="#ArialMT-6f" x="1183.904297"/>
     <use xlink:href="#ArialMT-72" x="1239.519531"/>
     <use xlink:href="#ArialMT-73" x="1272.820312"/>
    </g>
   </g>
   <g id="legend_1">
    <g id="patch_5">
     <path d="M 497.20125 68.775 
L 692.88 68.775 
Q 695.28 68.775 695.28 66.375 
L 695.28 33.0525 
Q 695.28 30.6525 692.88 30.6525 
L 497.20125 30.6525 
Q 494.80125 30.6525 494.80125 33.0525 
L 494.80125 66.375 
Q 494.80125 68.775 497.20125 68.775 
z
" style="fill: #ffffff; opacity: 0.8; stroke: #cccccc; stroke-linejoin: miter"/>
    </g>
    <g id="patch_6">
     <path d="M 499.60125 44.188125 
L 523.60125 44.188125 
L 523.60125 35.788125 
L 499.60125 35.788125 
z
" style="fill: #2ecc71; fill-opacity: 0.3; stroke: #2ecc71; stroke-linejoin: miter"/>
    </g>
    <g id="text_22">
     <!-- Training (μ=1.67%, σ=1.13%) -->
     <g style="fill: #262626" transform="translate(533.20125 44.188125) scale(0.12 -0.12)">
      <defs>
       <path id="ArialMT-54" d="M 1659 0 
L 1659 4041 
L 150 4041 
L 150 4581 
L 3781 4581 
L 3781 4041 
L 2266 4041 
L 2266 0 
L 1659 0 
z
" transform="scale(0.015625)"/>
       <path id="ArialMT-61" d="M 2588 409 
Q 2275 144 1986 34 
Q 1697 -75 1366 -75 
Q 819 -75 525 192 
Q 231 459 231 875 
Q 231 1119 342 1320 
Q 453 1522 633 1644 
Q 813 1766 1038 1828 
Q 1203 1872 1538 1913 
Q 2219 1994 2541 2106 
Q 2544 2222 2544 2253 
Q 2544 2597 2384 2738 
Q 2169 2928 1744 2928 
Q 1347 2928 1158 2789 
Q 969 2650 878 2297 
L 328 2372 
Q 403 2725 575 2942 
Q 747 3159 1072 3276 
Q 1397 3394 1825 3394 
Q 2250 3394 2515 3294 
Q 2781 3194 2906 3042 
Q 3031 2891 3081 2659 
Q 3109 2516 3109 2141 
L 3109 1391 
Q 3109 606 3145 398 
Q 3181 191 3288 0 
L 2700 0 
Q 2613 175 2588 409 
z
M 2541 1666 
Q 2234 1541 1622 1453 
Q 1275 1403 1131 1340 
Q 988 1278 909 1158 
Q 831 1038 831 891 
Q 831 666 1001 516 
Q 1172 366 1500 366 
Q 1825 366 2078 508 
Q 2331 650 2450 897 
Q 2541 1088 2541 1459 
L 2541 1666 
z
" transform="scale(0.015625)"/>
       <path id="ArialMT-67" d="M 319 -275 
L 866 -356 
Q 900 -609 1056 -725 
Q 1266 -881 1628 -881 
Q 2019 -881 2231 -725 
Q 2444 -569 2519 -288 
Q 2563 -116 2559 434 
Q 2191 0 1641 0 
Q 956 0 581 494 
Q 206 988 206 1678 
Q 206 2153 378 2554 
Q 550 2956 876 3175 
Q 1203 3394 1644 3394 
Q 2231 3394 2613 2919 
L 2613 3319 
L 3131 3319 
L 3131 450 
Q 3131 -325 2973 -648 
Q 2816 -972 2473 -1159 
Q 2131 -1347 1631 -1347 
Q 1038 -1347 672 -1080 
Q 306 -813 319 -275 
z
M 784 1719 
Q 784 1066 1043 766 
Q 1303 466 1694 466 
Q 2081 466 2343 764 
Q 2606 1063 2606 1700 
Q 2606 2309 2336 2618 
Q 2066 2928 1684 2928 
Q 1309 2928 1046 2623 
Q 784 2319 784 1719 
z
" transform="scale(0.015625)"/>
       <path id="ArialMT-3bc" d="M 3181 3319 
L 3181 0 
L 2678 0 
L 2678 394 
Q 2516 144 2356 50 
Q 2138 -78 1847 -78 
Q 1588 -78 1388 25 
Q 1238 103 1056 334 
L 1056 -1272 
L 500 -1272 
L 500 3319 
L 1056 3319 
L 1056 1913 
Q 1056 1147 1137 920 
Q 1219 694 1401 562 
Q 1584 431 1822 431 
Q 2072 431 2269 568 
Q 2466 706 2547 923 
Q 2628 1141 2628 1903 
L 2628 3319 
L 3181 3319 
z
" transform="scale(0.015625)"/>
       <path id="ArialMT-3d" d="M 3381 2694 
L 356 2694 
L 356 3219 
L 3381 3219 
L 3381 2694 
z
M 3381 1303 
L 356 1303 
L 356 1828 
L 3381 1828 
L 3381 1303 
z
" transform="scale(0.015625)"/>
       <path id="ArialMT-37" d="M 303 3981 
L 303 4522 
L 3269 4522 
L 3269 4084 
Q 2831 3619 2401 2847 
Q 1972 2075 1738 1259 
Q 1569 684 1522 0 
L 944 0 
Q 953 541 1156 1306 
Q 1359 2072 1739 2783 
Q 2119 3494 2547 3981 
L 303 3981 
z
" transform="scale(0.015625)"/>
       <path id="ArialMT-2c" d="M 569 0 
L 569 641 
L 1209 641 
L 1209 0 
Q 1209 -353 1084 -570 
Q 959 -788 688 -906 
L 531 -666 
Q 709 -588 793 -436 
Q 878 -284 888 0 
L 569 0 
z
" transform="scale(0.015625)"/>
       <path id="ArialMT-3c3" d="M 3809 3319 
L 3809 2863 
L 2906 2863 
Q 3322 2475 3322 1656 
Q 3322 766 2867 345 
Q 2413 -75 1763 -75 
Q 1088 -75 650 362 
Q 213 800 213 1659 
Q 213 2544 667 2969 
Q 1122 3394 1763 3394 
Q 1997 3394 2294 3319 
L 3809 3319 
z
M 1753 2928 
Q 1344 2928 1067 2609 
Q 791 2291 791 1656 
Q 791 1025 1061 706 
Q 1331 388 1763 388 
Q 2216 388 2483 720 
Q 2750 1053 2750 1659 
Q 2750 2213 2504 2570 
Q 2259 2928 1753 2928 
z
" transform="scale(0.015625)"/>
      </defs>
      <use xlink:href="#ArialMT-54"/>
      <use xlink:href="#ArialMT-72" x="57.333984"/>
      <use xlink:href="#ArialMT-61" x="90.634766"/>
      <use xlink:href="#ArialMT-69" x="146.25"/>
      <use xlink:href="#ArialMT-6e" x="168.466797"/>
      <use xlink:href="#ArialMT-69" x="224.082031"/>
      <use xlink:href="#ArialMT-6e" x="246.298828"/>
      <use xlink:href="#ArialMT-67" x="301.914062"/>
      <use xlink:href="#ArialMT-20" x="357.529297"/>
      <use xlink:href="#ArialMT-28" x="385.3125"/>
      <use xlink:href="#ArialMT-3bc" x="418.613281"/>
      <use xlink:href="#ArialMT-3d" x="476.230469"/>
      <use xlink:href="#ArialMT-31" x="534.628906"/>
      <use xlink:href="#ArialMT-2e" x="590.244141"/>
      <use xlink:href="#ArialMT-36" x="618.027344"/>
      <use xlink:href="#ArialMT-37" x="673.642578"/>
      <use xlink:href="#ArialMT-25" x="729.257812"/>
      <use xlink:href="#ArialMT-2c" x="818.173828"/>
      <use xlink:href="#ArialMT-20" x="845.957031"/>
      <use xlink:href="#ArialMT-3c3" x="873.740234"/>
      <use xlink:href="#ArialMT-3d" x="935.458984"/>
      <use xlink:href="#ArialMT-31" x="993.857422"/>
      <use xlink:href="#ArialMT-2e" x="1049.472656"/>
      <use xlink:href="#ArialMT-31" x="1077.255859"/>
      <use xlink:href="#ArialMT-33" x="1132.871094"/>
      <use xlink:href="#ArialMT-25" x="1188.486328"/>
      <use xlink:href="#ArialMT-29" x="1277.402344"/>
     </g>
    </g>
    <g id="patch_7">
     <path d="M 499.60125 61.449375 
L 523.60125 61.449375 
L 523.60125 53.049375 
L 499.60125 53.049375 
z
" style="fill: #e74c3c; fill-opacity: 0.3; stroke: #e74c3c; stroke-linejoin: miter"/>
    </g>
    <g id="text_23">
     <!-- Testing (μ=1.34%, σ=1.16%) -->
     <g style="fill: #262626" transform="translate(533.20125 61.449375) scale(0.12 -0.12)">
      <use xlink:href="#ArialMT-54"/>
      <use xlink:href="#ArialMT-65" x="49.958984"/>
      <use xlink:href="#ArialMT-73" x="105.574219"/>
      <use xlink:href="#ArialMT-74" x="155.574219"/>
      <use xlink:href="#ArialMT-69" x="183.357422"/>
      <use xlink:href="#ArialMT-6e" x="205.574219"/>
      <use xlink:href="#ArialMT-67" x="261.189453"/>
      <use xlink:href="#ArialMT-20" x="316.804688"/>
      <use xlink:href="#ArialMT-28" x="344.587891"/>
      <use xlink:href="#ArialMT-3bc" x="377.888672"/>
      <use xlink:href="#ArialMT-3d" x="435.505859"/>
      <use xlink:href="#ArialMT-31" x="493.904297"/>
      <use xlink:href="#ArialMT-2e" x="549.519531"/>
      <use xlink:href="#ArialMT-33" x="577.302734"/>
      <use xlink:href="#ArialMT-34" x="632.917969"/>
      <use xlink:href="#ArialMT-25" x="688.533203"/>
      <use xlink:href="#ArialMT-2c" x="777.449219"/>
      <use xlink:href="#ArialMT-20" x="805.232422"/>
      <use xlink:href="#ArialMT-3c3" x="833.015625"/>
      <use xlink:href="#ArialMT-3d" x="894.734375"/>
      <use xlink:href="#ArialMT-31" x="953.132812"/>
      <use xlink:href="#ArialMT-2e" x="1008.748047"/>
      <use xlink:href="#ArialMT-31" x="1036.53125"/>
      <use xlink:href="#ArialMT-36" x="1092.146484"/>
      <use xlink:href="#ArialMT-25" x="1147.761719"/>
      <use xlink:href="#ArialMT-29" x="1236.677734"/>
     </g>
    </g>
   </g>
  </g>
 </g>
 <defs>
  <clipPath id="p3d65418847">
   <rect x="60.520625" y="24.6525" width="640.759375" height="347.515"/>
  </clipPath>
 </defs>
</svg>
