<?xml version="1.0" encoding="utf-8" standalone="no"?>
<!DOCTYPE svg PUBLIC "-//W3C//DTD SVG 1.1//EN"
  "http://www.w3.org/Graphics/SVG/1.1/DTD/svg11.dtd">
<svg xmlns:xlink="http://www.w3.org/1999/xlink" width="706.943636pt" height="851.950312pt" viewBox="0 0 706.943636 851.950312" xmlns="http://www.w3.org/2000/svg" version="1.1">
 <metadata>
  <rdf:RDF xmlns:dc="http://purl.org/dc/elements/1.1/" xmlns:cc="http://creativecommons.org/ns#" xmlns:rdf="http://www.w3.org/1999/02/22-rdf-syntax-ns#">
   <cc:Work>
    <dc:type rdf:resource="http://purl.org/dc/dcmitype/StillImage"/>
    <dc:date>2025-01-10T12:03:29.408852</dc:date>
    <dc:format>image/svg+xml</dc:format>
    <dc:creator>
     <cc:Agent>
      <dc:title>Matplotlib v3.9.3, https://matplotlib.org/</dc:title>
     </cc:Agent>
    </dc:creator>
   </cc:Work>
  </rdf:RDF>
 </metadata>
 <defs>
  <style type="text/css">*{stroke-linejoin: round; stroke-linecap: butt}</style>
 </defs>
 <g id="figure_1">
  <g id="patch_1">
   <path d="M -0 851.950312 
L 706.943636 851.950312 
L 706.943636 0 
L -0 0 
z
" style="fill: #ffffff"/>
  </g>
  <g id="axes_1">
   <g id="patch_2">
    <path d="M 51.02 378.3325 
L 699.743636 378.3325 
L 699.743636 24.6525 
L 51.02 24.6525 
z
" style="fill: #ffffff"/>
   </g>
   <g id="matplotlib.axis_1">
    <g id="xtick_1">
     <g id="line2d_1">
      <path d="M 107.132305 378.3325 
L 107.132305 24.6525 
" clip-path="url(#p45d9374352)" style="fill: none; stroke: #cccccc; stroke-opacity: 0.3; stroke-width: 0.5; stroke-linecap: round"/>
     </g>
     <g id="text_1">
      <!-- 1 -->
      <g style="fill: #262626" transform="translate(103.795743 393.921875) scale(0.12 -0.12)">
       <defs>
        <path id="ArialMT-31" d="M 2384 0 
L 1822 0 
L 1822 3584 
Q 1619 3391 1289 3197 
Q 959 3003 697 2906 
L 697 3450 
Q 1169 3672 1522 3987 
Q 1875 4303 2022 4600 
L 2384 4600 
L 2384 0 
z
" transform="scale(0.015625)"/>
       </defs>
       <use xlink:href="#ArialMT-31"/>
      </g>
     </g>
    </g>
    <g id="xtick_2">
     <g id="line2d_2">
      <path d="M 239.537362 378.3325 
L 239.537362 24.6525 
" clip-path="url(#p45d9374352)" style="fill: none; stroke: #cccccc; stroke-opacity: 0.3; stroke-width: 0.5; stroke-linecap: round"/>
     </g>
     <g id="text_2">
      <!-- 2 -->
      <g style="fill: #262626" transform="translate(236.200799 393.921875) scale(0.12 -0.12)">
       <defs>
        <path id="ArialMT-32" d="M 3222 541 
L 3222 0 
L 194 0 
Q 188 203 259 391 
Q 375 700 629 1000 
Q 884 1300 1366 1694 
Q 2113 2306 2375 2664 
Q 2638 3022 2638 3341 
Q 2638 3675 2398 3904 
Q 2159 4134 1775 4134 
Q 1369 4134 1125 3890 
Q 881 3647 878 3216 
L 300 3275 
Q 359 3922 746 4261 
Q 1134 4600 1788 4600 
Q 2447 4600 2831 4234 
Q 3216 3869 3216 3328 
Q 3216 3053 3103 2787 
Q 2991 2522 2730 2228 
Q 2469 1934 1863 1422 
Q 1356 997 1212 845 
Q 1069 694 975 541 
L 3222 541 
z
" transform="scale(0.015625)"/>
       </defs>
       <use xlink:href="#ArialMT-32"/>
      </g>
     </g>
    </g>
    <g id="xtick_3">
     <g id="line2d_3">
      <path d="M 371.942418 378.3325 
L 371.942418 24.6525 
" clip-path="url(#p45d9374352)" style="fill: none; stroke: #cccccc; stroke-opacity: 0.3; stroke-width: 0.5; stroke-linecap: round"/>
     </g>
     <g id="text_3">
      <!-- 3 -->
      <g style="fill: #262626" transform="translate(368.605856 393.921875) scale(0.12 -0.12)">
       <defs>
        <path id="ArialMT-33" d="M 269 1209 
L 831 1284 
Q 928 806 1161 595 
Q 1394 384 1728 384 
Q 2125 384 2398 659 
Q 2672 934 2672 1341 
Q 2672 1728 2419 1979 
Q 2166 2231 1775 2231 
Q 1616 2231 1378 2169 
L 1441 2663 
Q 1497 2656 1531 2656 
Q 1891 2656 2178 2843 
Q 2466 3031 2466 3422 
Q 2466 3731 2256 3934 
Q 2047 4138 1716 4138 
Q 1388 4138 1169 3931 
Q 950 3725 888 3313 
L 325 3413 
Q 428 3978 793 4289 
Q 1159 4600 1703 4600 
Q 2078 4600 2393 4439 
Q 2709 4278 2876 4000 
Q 3044 3722 3044 3409 
Q 3044 3113 2884 2869 
Q 2725 2625 2413 2481 
Q 2819 2388 3044 2092 
Q 3269 1797 3269 1353 
Q 3269 753 2831 336 
Q 2394 -81 1725 -81 
Q 1122 -81 723 278 
Q 325 638 269 1209 
z
" transform="scale(0.015625)"/>
       </defs>
       <use xlink:href="#ArialMT-33"/>
      </g>
     </g>
    </g>
    <g id="xtick_4">
     <g id="line2d_4">
      <path d="M 504.347475 378.3325 
L 504.347475 24.6525 
" clip-path="url(#p45d9374352)" style="fill: none; stroke: #cccccc; stroke-opacity: 0.3; stroke-width: 0.5; stroke-linecap: round"/>
     </g>
     <g id="text_4">
      <!-- 4 -->
      <g style="fill: #262626" transform="translate(501.010912 393.921875) scale(0.12 -0.12)">
       <defs>
        <path id="ArialMT-34" d="M 2069 0 
L 2069 1097 
L 81 1097 
L 81 1613 
L 2172 4581 
L 2631 4581 
L 2631 1613 
L 3250 1613 
L 3250 1097 
L 2631 1097 
L 2631 0 
L 2069 0 
z
M 2069 1613 
L 2069 3678 
L 634 1613 
L 2069 1613 
z
" transform="scale(0.015625)"/>
       </defs>
       <use xlink:href="#ArialMT-34"/>
      </g>
     </g>
    </g>
    <g id="xtick_5">
     <g id="line2d_5">
      <path d="M 636.752531 378.3325 
L 636.752531 24.6525 
" clip-path="url(#p45d9374352)" style="fill: none; stroke: #cccccc; stroke-opacity: 0.3; stroke-width: 0.5; stroke-linecap: round"/>
     </g>
     <g id="text_5">
      <!-- 5 -->
      <g style="fill: #262626" transform="translate(633.415969 393.921875) scale(0.12 -0.12)">
       <defs>
        <path id="ArialMT-35" d="M 266 1200 
L 856 1250 
Q 922 819 1161 601 
Q 1400 384 1738 384 
Q 2144 384 2425 690 
Q 2706 997 2706 1503 
Q 2706 1984 2436 2262 
Q 2166 2541 1728 2541 
Q 1456 2541 1237 2417 
Q 1019 2294 894 2097 
L 366 2166 
L 809 4519 
L 3088 4519 
L 3088 3981 
L 1259 3981 
L 1013 2750 
Q 1425 3038 1878 3038 
Q 2478 3038 2890 2622 
Q 3303 2206 3303 1553 
Q 3303 931 2941 478 
Q 2500 -78 1738 -78 
Q 1113 -78 717 272 
Q 322 622 266 1200 
z
" transform="scale(0.015625)"/>
       </defs>
       <use xlink:href="#ArialMT-35"/>
      </g>
     </g>
    </g>
    <g id="text_6">
     <!-- Predicted PCE (%) -->
     <g style="fill: #262626" transform="translate(316.641974 416.498437) scale(0.14 -0.14)">
      <defs>
       <path id="ArialMT-50" d="M 494 0 
L 494 4581 
L 2222 4581 
Q 2678 4581 2919 4538 
Q 3256 4481 3484 4323 
Q 3713 4166 3852 3881 
Q 3991 3597 3991 3256 
Q 3991 2672 3619 2267 
Q 3247 1863 2275 1863 
L 1100 1863 
L 1100 0 
L 494 0 
z
M 1100 2403 
L 2284 2403 
Q 2872 2403 3119 2622 
Q 3366 2841 3366 3238 
Q 3366 3525 3220 3729 
Q 3075 3934 2838 4000 
Q 2684 4041 2272 4041 
L 1100 4041 
L 1100 2403 
z
" transform="scale(0.015625)"/>
       <path id="ArialMT-72" d="M 416 0 
L 416 3319 
L 922 3319 
L 922 2816 
Q 1116 3169 1280 3281 
Q 1444 3394 1641 3394 
Q 1925 3394 2219 3213 
L 2025 2691 
Q 1819 2813 1613 2813 
Q 1428 2813 1281 2702 
Q 1134 2591 1072 2394 
Q 978 2094 978 1738 
L 978 0 
L 416 0 
z
" transform="scale(0.015625)"/>
       <path id="ArialMT-65" d="M 2694 1069 
L 3275 997 
Q 3138 488 2766 206 
Q 2394 -75 1816 -75 
Q 1088 -75 661 373 
Q 234 822 234 1631 
Q 234 2469 665 2931 
Q 1097 3394 1784 3394 
Q 2450 3394 2872 2941 
Q 3294 2488 3294 1666 
Q 3294 1616 3291 1516 
L 816 1516 
Q 847 969 1125 678 
Q 1403 388 1819 388 
Q 2128 388 2347 550 
Q 2566 713 2694 1069 
z
M 847 1978 
L 2700 1978 
Q 2663 2397 2488 2606 
Q 2219 2931 1791 2931 
Q 1403 2931 1139 2672 
Q 875 2413 847 1978 
z
" transform="scale(0.015625)"/>
       <path id="ArialMT-64" d="M 2575 0 
L 2575 419 
Q 2259 -75 1647 -75 
Q 1250 -75 917 144 
Q 584 363 401 755 
Q 219 1147 219 1656 
Q 219 2153 384 2558 
Q 550 2963 881 3178 
Q 1213 3394 1622 3394 
Q 1922 3394 2156 3267 
Q 2391 3141 2538 2938 
L 2538 4581 
L 3097 4581 
L 3097 0 
L 2575 0 
z
M 797 1656 
Q 797 1019 1065 703 
Q 1334 388 1700 388 
Q 2069 388 2326 689 
Q 2584 991 2584 1609 
Q 2584 2291 2321 2609 
Q 2059 2928 1675 2928 
Q 1300 2928 1048 2622 
Q 797 2316 797 1656 
z
" transform="scale(0.015625)"/>
       <path id="ArialMT-69" d="M 425 3934 
L 425 4581 
L 988 4581 
L 988 3934 
L 425 3934 
z
M 425 0 
L 425 3319 
L 988 3319 
L 988 0 
L 425 0 
z
" transform="scale(0.015625)"/>
       <path id="ArialMT-63" d="M 2588 1216 
L 3141 1144 
Q 3050 572 2676 248 
Q 2303 -75 1759 -75 
Q 1078 -75 664 370 
Q 250 816 250 1647 
Q 250 2184 428 2587 
Q 606 2991 970 3192 
Q 1334 3394 1763 3394 
Q 2303 3394 2647 3120 
Q 2991 2847 3088 2344 
L 2541 2259 
Q 2463 2594 2264 2762 
Q 2066 2931 1784 2931 
Q 1359 2931 1093 2626 
Q 828 2322 828 1663 
Q 828 994 1084 691 
Q 1341 388 1753 388 
Q 2084 388 2306 591 
Q 2528 794 2588 1216 
z
" transform="scale(0.015625)"/>
       <path id="ArialMT-74" d="M 1650 503 
L 1731 6 
Q 1494 -44 1306 -44 
Q 1000 -44 831 53 
Q 663 150 594 308 
Q 525 466 525 972 
L 525 2881 
L 113 2881 
L 113 3319 
L 525 3319 
L 525 4141 
L 1084 4478 
L 1084 3319 
L 1650 3319 
L 1650 2881 
L 1084 2881 
L 1084 941 
Q 1084 700 1114 631 
Q 1144 563 1211 522 
Q 1278 481 1403 481 
Q 1497 481 1650 503 
z
" transform="scale(0.015625)"/>
       <path id="ArialMT-20" transform="scale(0.015625)"/>
       <path id="ArialMT-43" d="M 3763 1606 
L 4369 1453 
Q 4178 706 3683 314 
Q 3188 -78 2472 -78 
Q 1731 -78 1267 223 
Q 803 525 561 1097 
Q 319 1669 319 2325 
Q 319 3041 592 3573 
Q 866 4106 1370 4382 
Q 1875 4659 2481 4659 
Q 3169 4659 3637 4309 
Q 4106 3959 4291 3325 
L 3694 3184 
Q 3534 3684 3231 3912 
Q 2928 4141 2469 4141 
Q 1941 4141 1586 3887 
Q 1231 3634 1087 3207 
Q 944 2781 944 2328 
Q 944 1744 1114 1308 
Q 1284 872 1643 656 
Q 2003 441 2422 441 
Q 2931 441 3284 734 
Q 3638 1028 3763 1606 
z
" transform="scale(0.015625)"/>
       <path id="ArialMT-45" d="M 506 0 
L 506 4581 
L 3819 4581 
L 3819 4041 
L 1113 4041 
L 1113 2638 
L 3647 2638 
L 3647 2100 
L 1113 2100 
L 1113 541 
L 3925 541 
L 3925 0 
L 506 0 
z
" transform="scale(0.015625)"/>
       <path id="ArialMT-28" d="M 1497 -1347 
Q 1031 -759 709 28 
Q 388 816 388 1659 
Q 388 2403 628 3084 
Q 909 3875 1497 4659 
L 1900 4659 
Q 1522 4009 1400 3731 
Q 1209 3300 1100 2831 
Q 966 2247 966 1656 
Q 966 153 1900 -1347 
L 1497 -1347 
z
" transform="scale(0.015625)"/>
       <path id="ArialMT-25" d="M 372 3481 
Q 372 3972 619 4315 
Q 866 4659 1334 4659 
Q 1766 4659 2048 4351 
Q 2331 4044 2331 3447 
Q 2331 2866 2045 2552 
Q 1759 2238 1341 2238 
Q 925 2238 648 2547 
Q 372 2856 372 3481 
z
M 1350 4272 
Q 1141 4272 1002 4090 
Q 863 3909 863 3425 
Q 863 2984 1003 2804 
Q 1144 2625 1350 2625 
Q 1563 2625 1702 2806 
Q 1841 2988 1841 3469 
Q 1841 3913 1700 4092 
Q 1559 4272 1350 4272 
z
M 1353 -169 
L 3859 4659 
L 4316 4659 
L 1819 -169 
L 1353 -169 
z
M 3334 1075 
Q 3334 1569 3581 1911 
Q 3828 2253 4300 2253 
Q 4731 2253 5014 1945 
Q 5297 1638 5297 1041 
Q 5297 459 5011 145 
Q 4725 -169 4303 -169 
Q 3888 -169 3611 142 
Q 3334 453 3334 1075 
z
M 4316 1866 
Q 4103 1866 3964 1684 
Q 3825 1503 3825 1019 
Q 3825 581 3965 400 
Q 4106 219 4313 219 
Q 4528 219 4667 400 
Q 4806 581 4806 1063 
Q 4806 1506 4665 1686 
Q 4525 1866 4316 1866 
z
" transform="scale(0.015625)"/>
       <path id="ArialMT-29" d="M 791 -1347 
L 388 -1347 
Q 1322 153 1322 1656 
Q 1322 2244 1188 2822 
Q 1081 3291 891 3722 
Q 769 4003 388 4659 
L 791 4659 
Q 1378 3875 1659 3084 
Q 1900 2403 1900 1659 
Q 1900 816 1576 28 
Q 1253 -759 791 -1347 
z
" transform="scale(0.015625)"/>
      </defs>
      <use xlink:href="#ArialMT-50"/>
      <use xlink:href="#ArialMT-72" x="66.699219"/>
      <use xlink:href="#ArialMT-65" x="100"/>
      <use xlink:href="#ArialMT-64" x="155.615234"/>
      <use xlink:href="#ArialMT-69" x="211.230469"/>
      <use xlink:href="#ArialMT-63" x="233.447266"/>
      <use xlink:href="#ArialMT-74" x="283.447266"/>
      <use xlink:href="#ArialMT-65" x="311.230469"/>
      <use xlink:href="#ArialMT-64" x="366.845703"/>
      <use xlink:href="#ArialMT-20" x="422.460938"/>
      <use xlink:href="#ArialMT-50" x="450.244141"/>
      <use xlink:href="#ArialMT-43" x="516.943359"/>
      <use xlink:href="#ArialMT-45" x="589.160156"/>
      <use xlink:href="#ArialMT-20" x="655.859375"/>
      <use xlink:href="#ArialMT-28" x="683.642578"/>
      <use xlink:href="#ArialMT-25" x="716.943359"/>
      <use xlink:href="#ArialMT-29" x="805.859375"/>
     </g>
    </g>
   </g>
   <g id="matplotlib.axis_2">
    <g id="ytick_1">
     <g id="line2d_6">
      <path d="M 51.02 357.435045 
L 699.743636 357.435045 
" clip-path="url(#p45d9374352)" style="fill: none; stroke: #cccccc; stroke-opacity: 0.3; stroke-width: 0.5; stroke-linecap: round"/>
     </g>
     <g id="text_7">
      <!-- −4 -->
      <g style="fill: #262626" transform="translate(30.338125 361.729732) scale(0.12 -0.12)">
       <defs>
        <path id="ArialMT-2212" d="M 3381 1997 
L 356 1997 
L 356 2522 
L 3381 2522 
L 3381 1997 
z
" transform="scale(0.015625)"/>
       </defs>
       <use xlink:href="#ArialMT-2212"/>
       <use xlink:href="#ArialMT-34" x="58.398438"/>
      </g>
     </g>
    </g>
    <g id="ytick_2">
     <g id="line2d_7">
      <path d="M 51.02 279.759823 
L 699.743636 279.759823 
" clip-path="url(#p45d9374352)" style="fill: none; stroke: #cccccc; stroke-opacity: 0.3; stroke-width: 0.5; stroke-linecap: round"/>
     </g>
     <g id="text_8">
      <!-- −2 -->
      <g style="fill: #262626" transform="translate(30.338125 284.054511) scale(0.12 -0.12)">
       <use xlink:href="#ArialMT-2212"/>
       <use xlink:href="#ArialMT-32" x="58.398438"/>
      </g>
     </g>
    </g>
    <g id="ytick_3">
     <g id="line2d_8">
      <path d="M 51.02 202.084602 
L 699.743636 202.084602 
" clip-path="url(#p45d9374352)" style="fill: none; stroke: #cccccc; stroke-opacity: 0.3; stroke-width: 0.5; stroke-linecap: round"/>
     </g>
     <g id="text_9">
      <!-- 0 -->
      <g style="fill: #262626" transform="translate(37.346875 206.37929) scale(0.12 -0.12)">
       <defs>
        <path id="ArialMT-30" d="M 266 2259 
Q 266 3072 433 3567 
Q 600 4063 929 4331 
Q 1259 4600 1759 4600 
Q 2128 4600 2406 4451 
Q 2684 4303 2865 4023 
Q 3047 3744 3150 3342 
Q 3253 2941 3253 2259 
Q 3253 1453 3087 958 
Q 2922 463 2592 192 
Q 2263 -78 1759 -78 
Q 1097 -78 719 397 
Q 266 969 266 2259 
z
M 844 2259 
Q 844 1131 1108 757 
Q 1372 384 1759 384 
Q 2147 384 2411 759 
Q 2675 1134 2675 2259 
Q 2675 3391 2411 3762 
Q 2147 4134 1753 4134 
Q 1366 4134 1134 3806 
Q 844 3388 844 2259 
z
" transform="scale(0.015625)"/>
       </defs>
       <use xlink:href="#ArialMT-30"/>
      </g>
     </g>
    </g>
    <g id="ytick_4">
     <g id="line2d_9">
      <path d="M 51.02 124.409381 
L 699.743636 124.409381 
" clip-path="url(#p45d9374352)" style="fill: none; stroke: #cccccc; stroke-opacity: 0.3; stroke-width: 0.5; stroke-linecap: round"/>
     </g>
     <g id="text_10">
      <!-- 2 -->
      <g style="fill: #262626" transform="translate(37.346875 128.704068) scale(0.12 -0.12)">
       <use xlink:href="#ArialMT-32"/>
      </g>
     </g>
    </g>
    <g id="ytick_5">
     <g id="line2d_10">
      <path d="M 51.02 46.73416 
L 699.743636 46.73416 
" clip-path="url(#p45d9374352)" style="fill: none; stroke: #cccccc; stroke-opacity: 0.3; stroke-width: 0.5; stroke-linecap: round"/>
     </g>
     <g id="text_11">
      <!-- 4 -->
      <g style="fill: #262626" transform="translate(37.346875 51.028847) scale(0.12 -0.12)">
       <use xlink:href="#ArialMT-34"/>
      </g>
     </g>
    </g>
    <g id="text_12">
     <!-- Residuals (%) -->
     <g style="fill: #262626" transform="translate(17.391562 245.059844) rotate(-90) scale(0.14 -0.14)">
      <defs>
       <path id="ArialMT-52" d="M 503 0 
L 503 4581 
L 2534 4581 
Q 3147 4581 3465 4457 
Q 3784 4334 3975 4021 
Q 4166 3709 4166 3331 
Q 4166 2844 3850 2509 
Q 3534 2175 2875 2084 
Q 3116 1969 3241 1856 
Q 3506 1613 3744 1247 
L 4541 0 
L 3778 0 
L 3172 953 
Q 2906 1366 2734 1584 
Q 2563 1803 2427 1890 
Q 2291 1978 2150 2013 
Q 2047 2034 1813 2034 
L 1109 2034 
L 1109 0 
L 503 0 
z
M 1109 2559 
L 2413 2559 
Q 2828 2559 3062 2645 
Q 3297 2731 3419 2920 
Q 3541 3109 3541 3331 
Q 3541 3656 3305 3865 
Q 3069 4075 2559 4075 
L 1109 4075 
L 1109 2559 
z
" transform="scale(0.015625)"/>
       <path id="ArialMT-73" d="M 197 991 
L 753 1078 
Q 800 744 1014 566 
Q 1228 388 1613 388 
Q 2000 388 2187 545 
Q 2375 703 2375 916 
Q 2375 1106 2209 1216 
Q 2094 1291 1634 1406 
Q 1016 1563 777 1677 
Q 538 1791 414 1992 
Q 291 2194 291 2438 
Q 291 2659 392 2848 
Q 494 3038 669 3163 
Q 800 3259 1026 3326 
Q 1253 3394 1513 3394 
Q 1903 3394 2198 3281 
Q 2494 3169 2634 2976 
Q 2775 2784 2828 2463 
L 2278 2388 
Q 2241 2644 2061 2787 
Q 1881 2931 1553 2931 
Q 1166 2931 1000 2803 
Q 834 2675 834 2503 
Q 834 2394 903 2306 
Q 972 2216 1119 2156 
Q 1203 2125 1616 2013 
Q 2213 1853 2448 1751 
Q 2684 1650 2818 1456 
Q 2953 1263 2953 975 
Q 2953 694 2789 445 
Q 2625 197 2315 61 
Q 2006 -75 1616 -75 
Q 969 -75 630 194 
Q 291 463 197 991 
z
" transform="scale(0.015625)"/>
       <path id="ArialMT-75" d="M 2597 0 
L 2597 488 
Q 2209 -75 1544 -75 
Q 1250 -75 995 37 
Q 741 150 617 320 
Q 494 491 444 738 
Q 409 903 409 1263 
L 409 3319 
L 972 3319 
L 972 1478 
Q 972 1038 1006 884 
Q 1059 663 1231 536 
Q 1403 409 1656 409 
Q 1909 409 2131 539 
Q 2353 669 2445 892 
Q 2538 1116 2538 1541 
L 2538 3319 
L 3100 3319 
L 3100 0 
L 2597 0 
z
" transform="scale(0.015625)"/>
       <path id="ArialMT-61" d="M 2588 409 
Q 2275 144 1986 34 
Q 1697 -75 1366 -75 
Q 819 -75 525 192 
Q 231 459 231 875 
Q 231 1119 342 1320 
Q 453 1522 633 1644 
Q 813 1766 1038 1828 
Q 1203 1872 1538 1913 
Q 2219 1994 2541 2106 
Q 2544 2222 2544 2253 
Q 2544 2597 2384 2738 
Q 2169 2928 1744 2928 
Q 1347 2928 1158 2789 
Q 969 2650 878 2297 
L 328 2372 
Q 403 2725 575 2942 
Q 747 3159 1072 3276 
Q 1397 3394 1825 3394 
Q 2250 3394 2515 3294 
Q 2781 3194 2906 3042 
Q 3031 2891 3081 2659 
Q 3109 2516 3109 2141 
L 3109 1391 
Q 3109 606 3145 398 
Q 3181 191 3288 0 
L 2700 0 
Q 2613 175 2588 409 
z
M 2541 1666 
Q 2234 1541 1622 1453 
Q 1275 1403 1131 1340 
Q 988 1278 909 1158 
Q 831 1038 831 891 
Q 831 666 1001 516 
Q 1172 366 1500 366 
Q 1825 366 2078 508 
Q 2331 650 2450 897 
Q 2541 1088 2541 1459 
L 2541 1666 
z
" transform="scale(0.015625)"/>
       <path id="ArialMT-6c" d="M 409 0 
L 409 4581 
L 972 4581 
L 972 0 
L 409 0 
z
" transform="scale(0.015625)"/>
      </defs>
      <use xlink:href="#ArialMT-52"/>
      <use xlink:href="#ArialMT-65" x="72.216797"/>
      <use xlink:href="#ArialMT-73" x="127.832031"/>
      <use xlink:href="#ArialMT-69" x="177.832031"/>
      <use xlink:href="#ArialMT-64" x="200.048828"/>
      <use xlink:href="#ArialMT-75" x="255.664062"/>
      <use xlink:href="#ArialMT-61" x="311.279297"/>
      <use xlink:href="#ArialMT-6c" x="366.894531"/>
      <use xlink:href="#ArialMT-73" x="389.111328"/>
      <use xlink:href="#ArialMT-20" x="439.111328"/>
      <use xlink:href="#ArialMT-28" x="466.894531"/>
      <use xlink:href="#ArialMT-25" x="500.195312"/>
      <use xlink:href="#ArialMT-29" x="589.111328"/>
     </g>
    </g>
   </g>
   <g id="PathCollection_1">
    <defs>
     <path id="m29fd1ef884" d="M 0 4 
C 1.060812 4 2.078319 3.578535 2.828427 2.828427 
C 3.578535 2.078319 4 1.060812 4 0 
C 4 -1.060812 3.578535 -2.078319 2.828427 -2.828427 
C 2.078319 -3.578535 1.060812 -4 0 -4 
C -1.060812 -4 -2.078319 -3.578535 -2.828427 -2.828427 
C -3.578535 -2.078319 -4 -1.060812 -4 0 
C -4 1.060812 -3.578535 2.078319 -2.828427 2.828427 
C -2.078319 3.578535 -1.060812 4 0 4 
z
" style="stroke: #2ecc71; stroke-opacity: 0.6"/>
    </defs>
    <g clip-path="url(#p45d9374352)">
     <use xlink:href="#m29fd1ef884" x="154.68093" y="82.430385" style="fill: #2ecc71; fill-opacity: 0.6; stroke: #2ecc71; stroke-opacity: 0.6"/>
     <use xlink:href="#m29fd1ef884" x="140.945143" y="40.728864" style="fill: #2ecc71; fill-opacity: 0.6; stroke: #2ecc71; stroke-opacity: 0.6"/>
     <use xlink:href="#m29fd1ef884" x="392.729348" y="128.56481" style="fill: #2ecc71; fill-opacity: 0.6; stroke: #2ecc71; stroke-opacity: 0.6"/>
     <use xlink:href="#m29fd1ef884" x="393.588787" y="235.231958" style="fill: #2ecc71; fill-opacity: 0.6; stroke: #2ecc71; stroke-opacity: 0.6"/>
     <use xlink:href="#m29fd1ef884" x="443.633622" y="254.571833" style="fill: #2ecc71; fill-opacity: 0.6; stroke: #2ecc71; stroke-opacity: 0.6"/>
     <use xlink:href="#m29fd1ef884" x="311.30448" y="86.427247" style="fill: #2ecc71; fill-opacity: 0.6; stroke: #2ecc71; stroke-opacity: 0.6"/>
     <use xlink:href="#m29fd1ef884" x="429.243663" y="162.966286" style="fill: #2ecc71; fill-opacity: 0.6; stroke: #2ecc71; stroke-opacity: 0.6"/>
     <use xlink:href="#m29fd1ef884" x="290.672887" y="123.485249" style="fill: #2ecc71; fill-opacity: 0.6; stroke: #2ecc71; stroke-opacity: 0.6"/>
     <use xlink:href="#m29fd1ef884" x="594.666" y="281.78474" style="fill: #2ecc71; fill-opacity: 0.6; stroke: #2ecc71; stroke-opacity: 0.6"/>
     <use xlink:href="#m29fd1ef884" x="352.203728" y="216.490324" style="fill: #2ecc71; fill-opacity: 0.6; stroke: #2ecc71; stroke-opacity: 0.6"/>
     <use xlink:href="#m29fd1ef884" x="86.267625" y="194.799358" style="fill: #2ecc71; fill-opacity: 0.6; stroke: #2ecc71; stroke-opacity: 0.6"/>
     <use xlink:href="#m29fd1ef884" x="346.887337" y="273.187313" style="fill: #2ecc71; fill-opacity: 0.6; stroke: #2ecc71; stroke-opacity: 0.6"/>
     <use xlink:href="#m29fd1ef884" x="587.654047" y="331.381987" style="fill: #2ecc71; fill-opacity: 0.6; stroke: #2ecc71; stroke-opacity: 0.6"/>
     <use xlink:href="#m29fd1ef884" x="560.379313" y="255.804204" style="fill: #2ecc71; fill-opacity: 0.6; stroke: #2ecc71; stroke-opacity: 0.6"/>
     <use xlink:href="#m29fd1ef884" x="423.101661" y="199.225546" style="fill: #2ecc71; fill-opacity: 0.6; stroke: #2ecc71; stroke-opacity: 0.6"/>
     <use xlink:href="#m29fd1ef884" x="582.097424" y="247.804736" style="fill: #2ecc71; fill-opacity: 0.6; stroke: #2ecc71; stroke-opacity: 0.6"/>
     <use xlink:href="#m29fd1ef884" x="670.256198" y="262.012557" style="fill: #2ecc71; fill-opacity: 0.6; stroke: #2ecc71; stroke-opacity: 0.6"/>
     <use xlink:href="#m29fd1ef884" x="386.960241" y="276.009016" style="fill: #2ecc71; fill-opacity: 0.6; stroke: #2ecc71; stroke-opacity: 0.6"/>
     <use xlink:href="#m29fd1ef884" x="353.053963" y="182.562621" style="fill: #2ecc71; fill-opacity: 0.6; stroke: #2ecc71; stroke-opacity: 0.6"/>
     <use xlink:href="#m29fd1ef884" x="488.029345" y="153.799975" style="fill: #2ecc71; fill-opacity: 0.6; stroke: #2ecc71; stroke-opacity: 0.6"/>
     <use xlink:href="#m29fd1ef884" x="529.469352" y="167.508838" style="fill: #2ecc71; fill-opacity: 0.6; stroke: #2ecc71; stroke-opacity: 0.6"/>
     <use xlink:href="#m29fd1ef884" x="319.417752" y="173.473057" style="fill: #2ecc71; fill-opacity: 0.6; stroke: #2ecc71; stroke-opacity: 0.6"/>
     <use xlink:href="#m29fd1ef884" x="647.075885" y="195.014913" style="fill: #2ecc71; fill-opacity: 0.6; stroke: #2ecc71; stroke-opacity: 0.6"/>
     <use xlink:href="#m29fd1ef884" x="315.066128" y="41.313873" style="fill: #2ecc71; fill-opacity: 0.6; stroke: #2ecc71; stroke-opacity: 0.6"/>
     <use xlink:href="#m29fd1ef884" x="213.862241" y="269.898432" style="fill: #2ecc71; fill-opacity: 0.6; stroke: #2ecc71; stroke-opacity: 0.6"/>
     <use xlink:href="#m29fd1ef884" x="520.722825" y="147.466345" style="fill: #2ecc71; fill-opacity: 0.6; stroke: #2ecc71; stroke-opacity: 0.6"/>
     <use xlink:href="#m29fd1ef884" x="607.248852" y="281.203458" style="fill: #2ecc71; fill-opacity: 0.6; stroke: #2ecc71; stroke-opacity: 0.6"/>
     <use xlink:href="#m29fd1ef884" x="601.295446" y="171.100246" style="fill: #2ecc71; fill-opacity: 0.6; stroke: #2ecc71; stroke-opacity: 0.6"/>
     <use xlink:href="#m29fd1ef884" x="565.824454" y="241.089599" style="fill: #2ecc71; fill-opacity: 0.6; stroke: #2ecc71; stroke-opacity: 0.6"/>
     <use xlink:href="#m29fd1ef884" x="80.507438" y="138.7371" style="fill: #2ecc71; fill-opacity: 0.6; stroke: #2ecc71; stroke-opacity: 0.6"/>
     <use xlink:href="#m29fd1ef884" x="227.786285" y="140.769687" style="fill: #2ecc71; fill-opacity: 0.6; stroke: #2ecc71; stroke-opacity: 0.6"/>
     <use xlink:href="#m29fd1ef884" x="119.776236" y="161.130121" style="fill: #2ecc71; fill-opacity: 0.6; stroke: #2ecc71; stroke-opacity: 0.6"/>
     <use xlink:href="#m29fd1ef884" x="201.165775" y="240.929804" style="fill: #2ecc71; fill-opacity: 0.6; stroke: #2ecc71; stroke-opacity: 0.6"/>
     <use xlink:href="#m29fd1ef884" x="527.434578" y="343.234742" style="fill: #2ecc71; fill-opacity: 0.6; stroke: #2ecc71; stroke-opacity: 0.6"/>
     <use xlink:href="#m29fd1ef884" x="549.912637" y="362.256136" style="fill: #2ecc71; fill-opacity: 0.6; stroke: #2ecc71; stroke-opacity: 0.6"/>
     <use xlink:href="#m29fd1ef884" x="184.130351" y="254.186578" style="fill: #2ecc71; fill-opacity: 0.6; stroke: #2ecc71; stroke-opacity: 0.6"/>
    </g>
   </g>
   <g id="PathCollection_2">
    <defs>
     <path id="m6830ebb296" d="M 0 4 
C 1.060812 4 2.078319 3.578535 2.828427 2.828427 
C 3.578535 2.078319 4 1.060812 4 0 
C 4 -1.060812 3.578535 -2.078319 2.828427 -2.828427 
C 2.078319 -3.578535 1.060812 -4 0 -4 
C -1.060812 -4 -2.078319 -3.578535 -2.828427 -2.828427 
C -3.578535 -2.078319 -4 -1.060812 -4 0 
C -4 1.060812 -3.578535 2.078319 -2.828427 2.828427 
C -2.078319 3.578535 -1.060812 4 0 4 
z
" style="stroke: #e74c3c; stroke-opacity: 0.6"/>
    </defs>
    <g clip-path="url(#p45d9374352)">
     <use xlink:href="#m6830ebb296" x="568.033325" y="319.02436" style="fill: #e74c3c; fill-opacity: 0.6; stroke: #e74c3c; stroke-opacity: 0.6"/>
     <use xlink:href="#m6830ebb296" x="213.426665" y="175.395273" style="fill: #e74c3c; fill-opacity: 0.6; stroke: #e74c3c; stroke-opacity: 0.6"/>
     <use xlink:href="#m6830ebb296" x="445.95631" y="184.180307" style="fill: #e74c3c; fill-opacity: 0.6; stroke: #e74c3c; stroke-opacity: 0.6"/>
     <use xlink:href="#m6830ebb296" x="289.95518" y="248.331834" style="fill: #e74c3c; fill-opacity: 0.6; stroke: #e74c3c; stroke-opacity: 0.6"/>
    </g>
   </g>
   <g id="line2d_11">
    <path d="M 51.02 202.084602 
L 699.743636 202.084602 
" clip-path="url(#p45d9374352)" style="fill: none; stroke-dasharray: 7.4,3.2; stroke-dashoffset: 0; stroke: #000000; stroke-opacity: 0.5; stroke-width: 2"/>
   </g>
   <g id="patch_3">
    <path d="M 51.02 378.3325 
L 51.02 24.6525 
" style="fill: none; stroke: #cccccc; stroke-width: 1.5; stroke-linejoin: miter; stroke-linecap: square"/>
   </g>
   <g id="patch_4">
    <path d="M 51.02 378.3325 
L 699.743636 378.3325 
" style="fill: none; stroke: #cccccc; stroke-width: 1.5; stroke-linejoin: miter; stroke-linecap: square"/>
   </g>
   <g id="text_13">
    <!-- 10b -->
    <g style="fill: #262626; opacity: 0.7" transform="translate(159.68093 77.430385) scale(0.08 -0.08)">
     <defs>
      <path id="ArialMT-62" d="M 941 0 
L 419 0 
L 419 4581 
L 981 4581 
L 981 2947 
Q 1338 3394 1891 3394 
Q 2197 3394 2470 3270 
Q 2744 3147 2920 2923 
Q 3097 2700 3197 2384 
Q 3297 2069 3297 1709 
Q 3297 856 2875 390 
Q 2453 -75 1863 -75 
Q 1275 -75 941 416 
L 941 0 
z
M 934 1684 
Q 934 1088 1097 822 
Q 1363 388 1816 388 
Q 2184 388 2453 708 
Q 2722 1028 2722 1663 
Q 2722 2313 2464 2622 
Q 2206 2931 1841 2931 
Q 1472 2931 1203 2611 
Q 934 2291 934 1684 
z
" transform="scale(0.015625)"/>
     </defs>
     <use xlink:href="#ArialMT-31"/>
     <use xlink:href="#ArialMT-30" x="55.615234"/>
     <use xlink:href="#ArialMT-62" x="111.230469"/>
    </g>
   </g>
   <g id="text_14">
    <!-- 10c -->
    <g style="fill: #262626; opacity: 0.7" transform="translate(145.945143 35.728864) scale(0.08 -0.08)">
     <use xlink:href="#ArialMT-31"/>
     <use xlink:href="#ArialMT-30" x="55.615234"/>
     <use xlink:href="#ArialMT-63" x="111.230469"/>
    </g>
   </g>
   <g id="text_15">
    <!-- 10d -->
    <g style="fill: #262626; opacity: 0.7" transform="translate(397.729348 123.56481) scale(0.08 -0.08)">
     <use xlink:href="#ArialMT-31"/>
     <use xlink:href="#ArialMT-30" x="55.615234"/>
     <use xlink:href="#ArialMT-64" x="111.230469"/>
    </g>
   </g>
   <g id="text_16">
    <!-- 12b -->
    <g style="fill: #262626; opacity: 0.7" transform="translate(398.588787 230.231958) scale(0.08 -0.08)">
     <use xlink:href="#ArialMT-31"/>
     <use xlink:href="#ArialMT-32" x="55.615234"/>
     <use xlink:href="#ArialMT-62" x="111.230469"/>
    </g>
   </g>
   <g id="text_17">
    <!-- 19a -->
    <g style="fill: #262626; opacity: 0.7" transform="translate(448.633622 249.571833) scale(0.08 -0.08)">
     <defs>
      <path id="ArialMT-39" d="M 350 1059 
L 891 1109 
Q 959 728 1153 556 
Q 1347 384 1650 384 
Q 1909 384 2104 503 
Q 2300 622 2425 820 
Q 2550 1019 2634 1356 
Q 2719 1694 2719 2044 
Q 2719 2081 2716 2156 
Q 2547 1888 2255 1720 
Q 1963 1553 1622 1553 
Q 1053 1553 659 1965 
Q 266 2378 266 3053 
Q 266 3750 677 4175 
Q 1088 4600 1706 4600 
Q 2153 4600 2523 4359 
Q 2894 4119 3086 3673 
Q 3278 3228 3278 2384 
Q 3278 1506 3087 986 
Q 2897 466 2520 194 
Q 2144 -78 1638 -78 
Q 1100 -78 759 220 
Q 419 519 350 1059 
z
M 2653 3081 
Q 2653 3566 2395 3850 
Q 2138 4134 1775 4134 
Q 1400 4134 1122 3828 
Q 844 3522 844 3034 
Q 844 2597 1108 2323 
Q 1372 2050 1759 2050 
Q 2150 2050 2401 2323 
Q 2653 2597 2653 3081 
z
" transform="scale(0.015625)"/>
     </defs>
     <use xlink:href="#ArialMT-31"/>
     <use xlink:href="#ArialMT-39" x="55.615234"/>
     <use xlink:href="#ArialMT-61" x="111.230469"/>
    </g>
   </g>
   <g id="text_18">
    <!-- 20a -->
    <g style="fill: #262626; opacity: 0.7" transform="translate(316.30448 81.427247) scale(0.08 -0.08)">
     <use xlink:href="#ArialMT-32"/>
     <use xlink:href="#ArialMT-30" x="55.615234"/>
     <use xlink:href="#ArialMT-61" x="111.230469"/>
    </g>
   </g>
   <g id="text_19">
    <!-- 21a -->
    <g style="fill: #262626; opacity: 0.7" transform="translate(434.243663 157.966286) scale(0.08 -0.08)">
     <use xlink:href="#ArialMT-32"/>
     <use xlink:href="#ArialMT-31" x="55.615234"/>
     <use xlink:href="#ArialMT-61" x="111.230469"/>
    </g>
   </g>
   <g id="text_20">
    <!-- 22a -->
    <g style="fill: #262626; opacity: 0.7" transform="translate(295.672887 118.485249) scale(0.08 -0.08)">
     <use xlink:href="#ArialMT-32"/>
     <use xlink:href="#ArialMT-32" x="55.615234"/>
     <use xlink:href="#ArialMT-61" x="111.230469"/>
    </g>
   </g>
   <g id="text_21">
    <!-- aksq1 -->
    <g style="fill: #262626; opacity: 0.7" transform="translate(599.666 276.78474) scale(0.08 -0.08)">
     <defs>
      <path id="ArialMT-6b" d="M 425 0 
L 425 4581 
L 988 4581 
L 988 1969 
L 2319 3319 
L 3047 3319 
L 1778 2088 
L 3175 0 
L 2481 0 
L 1384 1697 
L 988 1316 
L 988 0 
L 425 0 
z
" transform="scale(0.015625)"/>
      <path id="ArialMT-71" d="M 2538 -1272 
L 2538 353 
Q 2406 169 2170 47 
Q 1934 -75 1669 -75 
Q 1078 -75 651 397 
Q 225 869 225 1691 
Q 225 2191 398 2587 
Q 572 2984 901 3189 
Q 1231 3394 1625 3394 
Q 2241 3394 2594 2875 
L 2594 3319 
L 3100 3319 
L 3100 -1272 
L 2538 -1272 
z
M 803 1669 
Q 803 1028 1072 708 
Q 1341 388 1716 388 
Q 2075 388 2334 692 
Q 2594 997 2594 1619 
Q 2594 2281 2320 2615 
Q 2047 2950 1678 2950 
Q 1313 2950 1058 2639 
Q 803 2328 803 1669 
z
" transform="scale(0.015625)"/>
     </defs>
     <use xlink:href="#ArialMT-61"/>
     <use xlink:href="#ArialMT-6b" x="55.615234"/>
     <use xlink:href="#ArialMT-73" x="105.615234"/>
     <use xlink:href="#ArialMT-71" x="155.615234"/>
     <use xlink:href="#ArialMT-31" x="211.230469"/>
    </g>
   </g>
   <g id="text_22">
    <!-- aksq2 -->
    <g style="fill: #262626; opacity: 0.7" transform="translate(357.203728 211.490324) scale(0.08 -0.08)">
     <use xlink:href="#ArialMT-61"/>
     <use xlink:href="#ArialMT-6b" x="55.615234"/>
     <use xlink:href="#ArialMT-73" x="105.615234"/>
     <use xlink:href="#ArialMT-71" x="155.615234"/>
     <use xlink:href="#ArialMT-32" x="211.230469"/>
    </g>
   </g>
   <g id="text_23">
    <!-- aksq3 -->
    <g style="fill: #262626; opacity: 0.7" transform="translate(91.267625 189.799358) scale(0.08 -0.08)">
     <use xlink:href="#ArialMT-61"/>
     <use xlink:href="#ArialMT-6b" x="55.615234"/>
     <use xlink:href="#ArialMT-73" x="105.615234"/>
     <use xlink:href="#ArialMT-71" x="155.615234"/>
     <use xlink:href="#ArialMT-33" x="211.230469"/>
    </g>
   </g>
   <g id="text_24">
    <!-- aksq4 -->
    <g style="fill: #262626; opacity: 0.7" transform="translate(351.887337 268.187313) scale(0.08 -0.08)">
     <use xlink:href="#ArialMT-61"/>
     <use xlink:href="#ArialMT-6b" x="55.615234"/>
     <use xlink:href="#ArialMT-73" x="105.615234"/>
     <use xlink:href="#ArialMT-71" x="155.615234"/>
     <use xlink:href="#ArialMT-34" x="211.230469"/>
    </g>
   </g>
   <g id="text_25">
    <!-- beetroot -->
    <g style="fill: #262626; opacity: 0.7" transform="translate(592.654047 326.381987) scale(0.08 -0.08)">
     <defs>
      <path id="ArialMT-6f" d="M 213 1659 
Q 213 2581 725 3025 
Q 1153 3394 1769 3394 
Q 2453 3394 2887 2945 
Q 3322 2497 3322 1706 
Q 3322 1066 3130 698 
Q 2938 331 2570 128 
Q 2203 -75 1769 -75 
Q 1072 -75 642 372 
Q 213 819 213 1659 
z
M 791 1659 
Q 791 1022 1069 705 
Q 1347 388 1769 388 
Q 2188 388 2466 706 
Q 2744 1025 2744 1678 
Q 2744 2294 2464 2611 
Q 2184 2928 1769 2928 
Q 1347 2928 1069 2612 
Q 791 2297 791 1659 
z
" transform="scale(0.015625)"/>
     </defs>
     <use xlink:href="#ArialMT-62"/>
     <use xlink:href="#ArialMT-65" x="55.615234"/>
     <use xlink:href="#ArialMT-65" x="111.230469"/>
     <use xlink:href="#ArialMT-74" x="166.845703"/>
     <use xlink:href="#ArialMT-72" x="194.628906"/>
     <use xlink:href="#ArialMT-6f" x="227.929688"/>
     <use xlink:href="#ArialMT-6f" x="283.544922"/>
     <use xlink:href="#ArialMT-74" x="339.160156"/>
    </g>
   </g>
   <g id="text_26">
    <!-- d1 -->
    <g style="fill: #262626; opacity: 0.7" transform="translate(565.379313 250.804204) scale(0.08 -0.08)">
     <use xlink:href="#ArialMT-64"/>
     <use xlink:href="#ArialMT-31" x="55.615234"/>
    </g>
   </g>
   <g id="text_27">
    <!-- d2 -->
    <g style="fill: #262626; opacity: 0.7" transform="translate(428.101661 194.225546) scale(0.08 -0.08)">
     <use xlink:href="#ArialMT-64"/>
     <use xlink:href="#ArialMT-32" x="55.615234"/>
    </g>
   </g>
   <g id="text_28">
    <!-- dpaa -->
    <g style="fill: #262626; opacity: 0.7" transform="translate(587.097424 242.804736) scale(0.08 -0.08)">
     <defs>
      <path id="ArialMT-70" d="M 422 -1272 
L 422 3319 
L 934 3319 
L 934 2888 
Q 1116 3141 1344 3267 
Q 1572 3394 1897 3394 
Q 2322 3394 2647 3175 
Q 2972 2956 3137 2557 
Q 3303 2159 3303 1684 
Q 3303 1175 3120 767 
Q 2938 359 2589 142 
Q 2241 -75 1856 -75 
Q 1575 -75 1351 44 
Q 1128 163 984 344 
L 984 -1272 
L 422 -1272 
z
M 931 1641 
Q 931 1000 1190 694 
Q 1450 388 1819 388 
Q 2194 388 2461 705 
Q 2728 1022 2728 1688 
Q 2728 2322 2467 2637 
Q 2206 2953 1844 2953 
Q 1484 2953 1207 2617 
Q 931 2281 931 1641 
z
" transform="scale(0.015625)"/>
     </defs>
     <use xlink:href="#ArialMT-64"/>
     <use xlink:href="#ArialMT-70" x="55.615234"/>
     <use xlink:href="#ArialMT-61" x="111.230469"/>
     <use xlink:href="#ArialMT-61" x="166.845703"/>
    </g>
   </g>
   <g id="text_29">
    <!-- dpaca -->
    <g style="fill: #262626; opacity: 0.7" transform="translate(675.256198 257.012557) scale(0.08 -0.08)">
     <use xlink:href="#ArialMT-64"/>
     <use xlink:href="#ArialMT-70" x="55.615234"/>
     <use xlink:href="#ArialMT-61" x="111.230469"/>
     <use xlink:href="#ArialMT-63" x="166.845703"/>
     <use xlink:href="#ArialMT-61" x="216.845703"/>
    </g>
   </g>
   <g id="text_30">
    <!-- imidazole1-1 -->
    <g style="fill: #262626; opacity: 0.7" transform="translate(391.960241 271.009016) scale(0.08 -0.08)">
     <defs>
      <path id="ArialMT-6d" d="M 422 0 
L 422 3319 
L 925 3319 
L 925 2853 
Q 1081 3097 1340 3245 
Q 1600 3394 1931 3394 
Q 2300 3394 2536 3241 
Q 2772 3088 2869 2813 
Q 3263 3394 3894 3394 
Q 4388 3394 4653 3120 
Q 4919 2847 4919 2278 
L 4919 0 
L 4359 0 
L 4359 2091 
Q 4359 2428 4304 2576 
Q 4250 2725 4106 2815 
Q 3963 2906 3769 2906 
Q 3419 2906 3187 2673 
Q 2956 2441 2956 1928 
L 2956 0 
L 2394 0 
L 2394 2156 
Q 2394 2531 2256 2718 
Q 2119 2906 1806 2906 
Q 1569 2906 1367 2781 
Q 1166 2656 1075 2415 
Q 984 2175 984 1722 
L 984 0 
L 422 0 
z
" transform="scale(0.015625)"/>
      <path id="ArialMT-7a" d="M 125 0 
L 125 456 
L 2238 2881 
Q 1878 2863 1603 2863 
L 250 2863 
L 250 3319 
L 2963 3319 
L 2963 2947 
L 1166 841 
L 819 456 
Q 1197 484 1528 484 
L 3063 484 
L 3063 0 
L 125 0 
z
" transform="scale(0.015625)"/>
      <path id="ArialMT-2d" d="M 203 1375 
L 203 1941 
L 1931 1941 
L 1931 1375 
L 203 1375 
z
" transform="scale(0.015625)"/>
     </defs>
     <use xlink:href="#ArialMT-69"/>
     <use xlink:href="#ArialMT-6d" x="22.216797"/>
     <use xlink:href="#ArialMT-69" x="105.517578"/>
     <use xlink:href="#ArialMT-64" x="127.734375"/>
     <use xlink:href="#ArialMT-61" x="183.349609"/>
     <use xlink:href="#ArialMT-7a" x="238.964844"/>
     <use xlink:href="#ArialMT-6f" x="288.964844"/>
     <use xlink:href="#ArialMT-6c" x="344.580078"/>
     <use xlink:href="#ArialMT-65" x="366.796875"/>
     <use xlink:href="#ArialMT-31" x="422.412109"/>
     <use xlink:href="#ArialMT-2d" x="478.027344"/>
     <use xlink:href="#ArialMT-31" x="511.328125"/>
    </g>
   </g>
   <g id="text_31">
    <!-- imidazole1-2 -->
    <g style="fill: #262626; opacity: 0.7" transform="translate(358.053963 177.562621) scale(0.08 -0.08)">
     <use xlink:href="#ArialMT-69"/>
     <use xlink:href="#ArialMT-6d" x="22.216797"/>
     <use xlink:href="#ArialMT-69" x="105.517578"/>
     <use xlink:href="#ArialMT-64" x="127.734375"/>
     <use xlink:href="#ArialMT-61" x="183.349609"/>
     <use xlink:href="#ArialMT-7a" x="238.964844"/>
     <use xlink:href="#ArialMT-6f" x="288.964844"/>
     <use xlink:href="#ArialMT-6c" x="344.580078"/>
     <use xlink:href="#ArialMT-65" x="366.796875"/>
     <use xlink:href="#ArialMT-31" x="422.412109"/>
     <use xlink:href="#ArialMT-2d" x="478.027344"/>
     <use xlink:href="#ArialMT-32" x="511.328125"/>
    </g>
   </g>
   <g id="text_32">
    <!-- imidazole1-3 -->
    <g style="fill: #262626; opacity: 0.7" transform="translate(493.029345 148.799975) scale(0.08 -0.08)">
     <use xlink:href="#ArialMT-69"/>
     <use xlink:href="#ArialMT-6d" x="22.216797"/>
     <use xlink:href="#ArialMT-69" x="105.517578"/>
     <use xlink:href="#ArialMT-64" x="127.734375"/>
     <use xlink:href="#ArialMT-61" x="183.349609"/>
     <use xlink:href="#ArialMT-7a" x="238.964844"/>
     <use xlink:href="#ArialMT-6f" x="288.964844"/>
     <use xlink:href="#ArialMT-6c" x="344.580078"/>
     <use xlink:href="#ArialMT-65" x="366.796875"/>
     <use xlink:href="#ArialMT-31" x="422.412109"/>
     <use xlink:href="#ArialMT-2d" x="478.027344"/>
     <use xlink:href="#ArialMT-33" x="511.328125"/>
    </g>
   </g>
   <g id="text_33">
    <!-- imidazole1 -->
    <g style="fill: #262626; opacity: 0.7" transform="translate(534.469352 162.508838) scale(0.08 -0.08)">
     <use xlink:href="#ArialMT-69"/>
     <use xlink:href="#ArialMT-6d" x="22.216797"/>
     <use xlink:href="#ArialMT-69" x="105.517578"/>
     <use xlink:href="#ArialMT-64" x="127.734375"/>
     <use xlink:href="#ArialMT-61" x="183.349609"/>
     <use xlink:href="#ArialMT-7a" x="238.964844"/>
     <use xlink:href="#ArialMT-6f" x="288.964844"/>
     <use xlink:href="#ArialMT-6c" x="344.580078"/>
     <use xlink:href="#ArialMT-65" x="366.796875"/>
     <use xlink:href="#ArialMT-31" x="422.412109"/>
    </g>
   </g>
   <g id="text_34">
    <!-- imidazole2 -->
    <g style="fill: #262626; opacity: 0.7" transform="translate(324.417752 168.473057) scale(0.08 -0.08)">
     <use xlink:href="#ArialMT-69"/>
     <use xlink:href="#ArialMT-6d" x="22.216797"/>
     <use xlink:href="#ArialMT-69" x="105.517578"/>
     <use xlink:href="#ArialMT-64" x="127.734375"/>
     <use xlink:href="#ArialMT-61" x="183.349609"/>
     <use xlink:href="#ArialMT-7a" x="238.964844"/>
     <use xlink:href="#ArialMT-6f" x="288.964844"/>
     <use xlink:href="#ArialMT-6c" x="344.580078"/>
     <use xlink:href="#ArialMT-65" x="366.796875"/>
     <use xlink:href="#ArialMT-32" x="422.412109"/>
    </g>
   </g>
   <g id="text_35">
    <!-- imidazole3 -->
    <g style="fill: #262626; opacity: 0.7" transform="translate(652.075885 190.014913) scale(0.08 -0.08)">
     <use xlink:href="#ArialMT-69"/>
     <use xlink:href="#ArialMT-6d" x="22.216797"/>
     <use xlink:href="#ArialMT-69" x="105.517578"/>
     <use xlink:href="#ArialMT-64" x="127.734375"/>
     <use xlink:href="#ArialMT-61" x="183.349609"/>
     <use xlink:href="#ArialMT-7a" x="238.964844"/>
     <use xlink:href="#ArialMT-6f" x="288.964844"/>
     <use xlink:href="#ArialMT-6c" x="344.580078"/>
     <use xlink:href="#ArialMT-65" x="366.796875"/>
     <use xlink:href="#ArialMT-33" x="422.412109"/>
    </g>
   </g>
   <g id="text_36">
    <!-- imidazole4 -->
    <g style="fill: #262626; opacity: 0.7" transform="translate(320.066128 36.313873) scale(0.08 -0.08)">
     <use xlink:href="#ArialMT-69"/>
     <use xlink:href="#ArialMT-6d" x="22.216797"/>
     <use xlink:href="#ArialMT-69" x="105.517578"/>
     <use xlink:href="#ArialMT-64" x="127.734375"/>
     <use xlink:href="#ArialMT-61" x="183.349609"/>
     <use xlink:href="#ArialMT-7a" x="238.964844"/>
     <use xlink:href="#ArialMT-6f" x="288.964844"/>
     <use xlink:href="#ArialMT-6c" x="344.580078"/>
     <use xlink:href="#ArialMT-65" x="366.796875"/>
     <use xlink:href="#ArialMT-34" x="422.412109"/>
    </g>
   </g>
   <g id="text_37">
    <!-- imidazole5 -->
    <g style="fill: #262626; opacity: 0.7" transform="translate(218.862241 264.898432) scale(0.08 -0.08)">
     <use xlink:href="#ArialMT-69"/>
     <use xlink:href="#ArialMT-6d" x="22.216797"/>
     <use xlink:href="#ArialMT-69" x="105.517578"/>
     <use xlink:href="#ArialMT-64" x="127.734375"/>
     <use xlink:href="#ArialMT-61" x="183.349609"/>
     <use xlink:href="#ArialMT-7a" x="238.964844"/>
     <use xlink:href="#ArialMT-6f" x="288.964844"/>
     <use xlink:href="#ArialMT-6c" x="344.580078"/>
     <use xlink:href="#ArialMT-65" x="366.796875"/>
     <use xlink:href="#ArialMT-35" x="422.412109"/>
    </g>
   </g>
   <g id="text_38">
    <!-- ms-c -->
    <g style="fill: #262626; opacity: 0.7" transform="translate(525.722825 142.466345) scale(0.08 -0.08)">
     <use xlink:href="#ArialMT-6d"/>
     <use xlink:href="#ArialMT-73" x="83.300781"/>
     <use xlink:href="#ArialMT-2d" x="133.300781"/>
     <use xlink:href="#ArialMT-63" x="166.601562"/>
    </g>
   </g>
   <g id="text_39">
    <!-- ms-m -->
    <g style="fill: #262626; opacity: 0.7" transform="translate(612.248852 276.203458) scale(0.08 -0.08)">
     <use xlink:href="#ArialMT-6d"/>
     <use xlink:href="#ArialMT-73" x="83.300781"/>
     <use xlink:href="#ArialMT-2d" x="133.300781"/>
     <use xlink:href="#ArialMT-6d" x="166.601562"/>
    </g>
   </g>
   <g id="text_40">
    <!-- phenothiazine1 -->
    <g style="fill: #262626; opacity: 0.7" transform="translate(606.295446 166.100246) scale(0.08 -0.08)">
     <defs>
      <path id="ArialMT-68" d="M 422 0 
L 422 4581 
L 984 4581 
L 984 2938 
Q 1378 3394 1978 3394 
Q 2347 3394 2619 3248 
Q 2891 3103 3008 2847 
Q 3125 2591 3125 2103 
L 3125 0 
L 2563 0 
L 2563 2103 
Q 2563 2525 2380 2717 
Q 2197 2909 1863 2909 
Q 1613 2909 1392 2779 
Q 1172 2650 1078 2428 
Q 984 2206 984 1816 
L 984 0 
L 422 0 
z
" transform="scale(0.015625)"/>
      <path id="ArialMT-6e" d="M 422 0 
L 422 3319 
L 928 3319 
L 928 2847 
Q 1294 3394 1984 3394 
Q 2284 3394 2536 3286 
Q 2788 3178 2913 3003 
Q 3038 2828 3088 2588 
Q 3119 2431 3119 2041 
L 3119 0 
L 2556 0 
L 2556 2019 
Q 2556 2363 2490 2533 
Q 2425 2703 2258 2804 
Q 2091 2906 1866 2906 
Q 1506 2906 1245 2678 
Q 984 2450 984 1813 
L 984 0 
L 422 0 
z
" transform="scale(0.015625)"/>
     </defs>
     <use xlink:href="#ArialMT-70"/>
     <use xlink:href="#ArialMT-68" x="55.615234"/>
     <use xlink:href="#ArialMT-65" x="111.230469"/>
     <use xlink:href="#ArialMT-6e" x="166.845703"/>
     <use xlink:href="#ArialMT-6f" x="222.460938"/>
     <use xlink:href="#ArialMT-74" x="278.076172"/>
     <use xlink:href="#ArialMT-68" x="305.859375"/>
     <use xlink:href="#ArialMT-69" x="361.474609"/>
     <use xlink:href="#ArialMT-61" x="383.691406"/>
     <use xlink:href="#ArialMT-7a" x="439.306641"/>
     <use xlink:href="#ArialMT-69" x="489.306641"/>
     <use xlink:href="#ArialMT-6e" x="511.523438"/>
     <use xlink:href="#ArialMT-65" x="567.138672"/>
     <use xlink:href="#ArialMT-31" x="622.753906"/>
    </g>
   </g>
   <g id="text_41">
    <!-- phenothiazine2 -->
    <g style="fill: #262626; opacity: 0.7" transform="translate(570.824454 236.089599) scale(0.08 -0.08)">
     <use xlink:href="#ArialMT-70"/>
     <use xlink:href="#ArialMT-68" x="55.615234"/>
     <use xlink:href="#ArialMT-65" x="111.230469"/>
     <use xlink:href="#ArialMT-6e" x="166.845703"/>
     <use xlink:href="#ArialMT-6f" x="222.460938"/>
     <use xlink:href="#ArialMT-74" x="278.076172"/>
     <use xlink:href="#ArialMT-68" x="305.859375"/>
     <use xlink:href="#ArialMT-69" x="361.474609"/>
     <use xlink:href="#ArialMT-61" x="383.691406"/>
     <use xlink:href="#ArialMT-7a" x="439.306641"/>
     <use xlink:href="#ArialMT-69" x="489.306641"/>
     <use xlink:href="#ArialMT-6e" x="511.523438"/>
     <use xlink:href="#ArialMT-65" x="567.138672"/>
     <use xlink:href="#ArialMT-32" x="622.753906"/>
    </g>
   </g>
   <g id="text_42">
    <!-- phenothiazine3 -->
    <g style="fill: #262626; opacity: 0.7" transform="translate(85.507438 133.7371) scale(0.08 -0.08)">
     <use xlink:href="#ArialMT-70"/>
     <use xlink:href="#ArialMT-68" x="55.615234"/>
     <use xlink:href="#ArialMT-65" x="111.230469"/>
     <use xlink:href="#ArialMT-6e" x="166.845703"/>
     <use xlink:href="#ArialMT-6f" x="222.460938"/>
     <use xlink:href="#ArialMT-74" x="278.076172"/>
     <use xlink:href="#ArialMT-68" x="305.859375"/>
     <use xlink:href="#ArialMT-69" x="361.474609"/>
     <use xlink:href="#ArialMT-61" x="383.691406"/>
     <use xlink:href="#ArialMT-7a" x="439.306641"/>
     <use xlink:href="#ArialMT-69" x="489.306641"/>
     <use xlink:href="#ArialMT-6e" x="511.523438"/>
     <use xlink:href="#ArialMT-65" x="567.138672"/>
     <use xlink:href="#ArialMT-33" x="622.753906"/>
    </g>
   </g>
   <g id="text_43">
    <!-- phenothiazine4 -->
    <g style="fill: #262626; opacity: 0.7" transform="translate(232.786285 135.769687) scale(0.08 -0.08)">
     <use xlink:href="#ArialMT-70"/>
     <use xlink:href="#ArialMT-68" x="55.615234"/>
     <use xlink:href="#ArialMT-65" x="111.230469"/>
     <use xlink:href="#ArialMT-6e" x="166.845703"/>
     <use xlink:href="#ArialMT-6f" x="222.460938"/>
     <use xlink:href="#ArialMT-74" x="278.076172"/>
     <use xlink:href="#ArialMT-68" x="305.859375"/>
     <use xlink:href="#ArialMT-69" x="361.474609"/>
     <use xlink:href="#ArialMT-61" x="383.691406"/>
     <use xlink:href="#ArialMT-7a" x="439.306641"/>
     <use xlink:href="#ArialMT-69" x="489.306641"/>
     <use xlink:href="#ArialMT-6e" x="511.523438"/>
     <use xlink:href="#ArialMT-65" x="567.138672"/>
     <use xlink:href="#ArialMT-34" x="622.753906"/>
    </g>
   </g>
   <g id="text_44">
    <!-- quercitin -->
    <g style="fill: #262626; opacity: 0.7" transform="translate(124.776236 156.130121) scale(0.08 -0.08)">
     <use xlink:href="#ArialMT-71"/>
     <use xlink:href="#ArialMT-75" x="55.615234"/>
     <use xlink:href="#ArialMT-65" x="111.230469"/>
     <use xlink:href="#ArialMT-72" x="166.845703"/>
     <use xlink:href="#ArialMT-63" x="200.146484"/>
     <use xlink:href="#ArialMT-69" x="250.146484"/>
     <use xlink:href="#ArialMT-74" x="272.363281"/>
     <use xlink:href="#ArialMT-69" x="300.146484"/>
     <use xlink:href="#ArialMT-6e" x="322.363281"/>
    </g>
   </g>
   <g id="text_45">
    <!-- rutin -->
    <g style="fill: #262626; opacity: 0.7" transform="translate(206.165775 235.929804) scale(0.08 -0.08)">
     <use xlink:href="#ArialMT-72"/>
     <use xlink:href="#ArialMT-75" x="33.300781"/>
     <use xlink:href="#ArialMT-74" x="88.916016"/>
     <use xlink:href="#ArialMT-69" x="116.699219"/>
     <use xlink:href="#ArialMT-6e" x="138.916016"/>
    </g>
   </g>
   <g id="text_46">
    <!-- t1 -->
    <g style="fill: #262626; opacity: 0.7" transform="translate(532.434578 338.234742) scale(0.08 -0.08)">
     <use xlink:href="#ArialMT-74"/>
     <use xlink:href="#ArialMT-31" x="27.783203"/>
    </g>
   </g>
   <g id="text_47">
    <!-- t3 -->
    <g style="fill: #262626; opacity: 0.7" transform="translate(554.912637 357.256136) scale(0.08 -0.08)">
     <use xlink:href="#ArialMT-74"/>
     <use xlink:href="#ArialMT-33" x="27.783203"/>
    </g>
   </g>
   <g id="text_48">
    <!-- t4 -->
    <g style="fill: #262626; opacity: 0.7" transform="translate(189.130351 249.186578) scale(0.08 -0.08)">
     <use xlink:href="#ArialMT-74"/>
     <use xlink:href="#ArialMT-34" x="27.783203"/>
    </g>
   </g>
   <g id="text_49">
    <!-- 12a -->
    <g style="fill: #262626; opacity: 0.7" transform="translate(573.033325 314.02436) scale(0.08 -0.08)">
     <use xlink:href="#ArialMT-31"/>
     <use xlink:href="#ArialMT-32" x="55.615234"/>
     <use xlink:href="#ArialMT-61" x="111.230469"/>
    </g>
   </g>
   <g id="text_50">
    <!-- d3 -->
    <g style="fill: #262626; opacity: 0.7" transform="translate(218.426665 170.395273) scale(0.08 -0.08)">
     <use xlink:href="#ArialMT-64"/>
     <use xlink:href="#ArialMT-33" x="55.615234"/>
    </g>
   </g>
   <g id="text_51">
    <!-- ms-f -->
    <g style="fill: #262626; opacity: 0.7" transform="translate(450.95631 179.180307) scale(0.08 -0.08)">
     <defs>
      <path id="ArialMT-66" d="M 556 0 
L 556 2881 
L 59 2881 
L 59 3319 
L 556 3319 
L 556 3672 
Q 556 4006 616 4169 
Q 697 4388 901 4523 
Q 1106 4659 1475 4659 
Q 1713 4659 2000 4603 
L 1916 4113 
Q 1741 4144 1584 4144 
Q 1328 4144 1222 4034 
Q 1116 3925 1116 3625 
L 1116 3319 
L 1763 3319 
L 1763 2881 
L 1116 2881 
L 1116 0 
L 556 0 
z
" transform="scale(0.015625)"/>
     </defs>
     <use xlink:href="#ArialMT-6d"/>
     <use xlink:href="#ArialMT-73" x="83.300781"/>
     <use xlink:href="#ArialMT-2d" x="133.300781"/>
     <use xlink:href="#ArialMT-66" x="166.601562"/>
    </g>
   </g>
   <g id="text_52">
    <!-- t2 -->
    <g style="fill: #262626; opacity: 0.7" transform="translate(294.95518 243.331834) scale(0.08 -0.08)">
     <use xlink:href="#ArialMT-74"/>
     <use xlink:href="#ArialMT-32" x="27.783203"/>
    </g>
   </g>
   <g id="text_53">
    <!-- Residuals vs Predicted Values -->
    <g style="fill: #262626" transform="translate(267.921818 18.6525) scale(0.16 -0.16)">
     <defs>
      <path id="ArialMT-76" d="M 1344 0 
L 81 3319 
L 675 3319 
L 1388 1331 
Q 1503 1009 1600 663 
Q 1675 925 1809 1294 
L 2547 3319 
L 3125 3319 
L 1869 0 
L 1344 0 
z
" transform="scale(0.015625)"/>
      <path id="ArialMT-56" d="M 1803 0 
L 28 4581 
L 684 4581 
L 1875 1253 
Q 2019 853 2116 503 
Q 2222 878 2363 1253 
L 3600 4581 
L 4219 4581 
L 2425 0 
L 1803 0 
z
" transform="scale(0.015625)"/>
     </defs>
     <use xlink:href="#ArialMT-52"/>
     <use xlink:href="#ArialMT-65" x="72.216797"/>
     <use xlink:href="#ArialMT-73" x="127.832031"/>
     <use xlink:href="#ArialMT-69" x="177.832031"/>
     <use xlink:href="#ArialMT-64" x="200.048828"/>
     <use xlink:href="#ArialMT-75" x="255.664062"/>
     <use xlink:href="#ArialMT-61" x="311.279297"/>
     <use xlink:href="#ArialMT-6c" x="366.894531"/>
     <use xlink:href="#ArialMT-73" x="389.111328"/>
     <use xlink:href="#ArialMT-20" x="439.111328"/>
     <use xlink:href="#ArialMT-76" x="466.894531"/>
     <use xlink:href="#ArialMT-73" x="516.894531"/>
     <use xlink:href="#ArialMT-20" x="566.894531"/>
     <use xlink:href="#ArialMT-50" x="594.677734"/>
     <use xlink:href="#ArialMT-72" x="661.376953"/>
     <use xlink:href="#ArialMT-65" x="694.677734"/>
     <use xlink:href="#ArialMT-64" x="750.292969"/>
     <use xlink:href="#ArialMT-69" x="805.908203"/>
     <use xlink:href="#ArialMT-63" x="828.125"/>
     <use xlink:href="#ArialMT-74" x="878.125"/>
     <use xlink:href="#ArialMT-65" x="905.908203"/>
     <use xlink:href="#ArialMT-64" x="961.523438"/>
     <use xlink:href="#ArialMT-20" x="1017.138672"/>
     <use xlink:href="#ArialMT-56" x="1044.921875"/>
     <use xlink:href="#ArialMT-61" x="1104.246094"/>
     <use xlink:href="#ArialMT-6c" x="1159.861328"/>
     <use xlink:href="#ArialMT-75" x="1182.078125"/>
     <use xlink:href="#ArialMT-65" x="1237.693359"/>
     <use xlink:href="#ArialMT-73" x="1293.308594"/>
    </g>
   </g>
   <g id="legend_1">
    <g id="patch_5">
     <path d="M 610.043636 68.4825 
L 691.343636 68.4825 
Q 693.743636 68.4825 693.743636 66.0825 
L 693.743636 33.0525 
Q 693.743636 30.6525 691.343636 30.6525 
L 610.043636 30.6525 
Q 607.643636 30.6525 607.643636 33.0525 
L 607.643636 66.0825 
Q 607.643636 68.4825 610.043636 68.4825 
z
" style="fill: #ffffff; opacity: 0.8; stroke: #cccccc; stroke-linejoin: miter"/>
    </g>
    <g id="PathCollection_3">
     <g>
      <use xlink:href="#m29fd1ef884" x="624.443636" y="40.891875" style="fill: #2ecc71; fill-opacity: 0.6; stroke: #2ecc71; stroke-opacity: 0.6"/>
     </g>
    </g>
    <g id="text_54">
     <!-- Training -->
     <g style="fill: #262626" transform="translate(646.043636 44.041875) scale(0.12 -0.12)">
      <defs>
       <path id="ArialMT-54" d="M 1659 0 
L 1659 4041 
L 150 4041 
L 150 4581 
L 3781 4581 
L 3781 4041 
L 2266 4041 
L 2266 0 
L 1659 0 
z
" transform="scale(0.015625)"/>
       <path id="ArialMT-67" d="M 319 -275 
L 866 -356 
Q 900 -609 1056 -725 
Q 1266 -881 1628 -881 
Q 2019 -881 2231 -725 
Q 2444 -569 2519 -288 
Q 2563 -116 2559 434 
Q 2191 0 1641 0 
Q 956 0 581 494 
Q 206 988 206 1678 
Q 206 2153 378 2554 
Q 550 2956 876 3175 
Q 1203 3394 1644 3394 
Q 2231 3394 2613 2919 
L 2613 3319 
L 3131 3319 
L 3131 450 
Q 3131 -325 2973 -648 
Q 2816 -972 2473 -1159 
Q 2131 -1347 1631 -1347 
Q 1038 -1347 672 -1080 
Q 306 -813 319 -275 
z
M 784 1719 
Q 784 1066 1043 766 
Q 1303 466 1694 466 
Q 2081 466 2343 764 
Q 2606 1063 2606 1700 
Q 2606 2309 2336 2618 
Q 2066 2928 1684 2928 
Q 1309 2928 1046 2623 
Q 784 2319 784 1719 
z
" transform="scale(0.015625)"/>
      </defs>
      <use xlink:href="#ArialMT-54"/>
      <use xlink:href="#ArialMT-72" x="57.333984"/>
      <use xlink:href="#ArialMT-61" x="90.634766"/>
      <use xlink:href="#ArialMT-69" x="146.25"/>
      <use xlink:href="#ArialMT-6e" x="168.466797"/>
      <use xlink:href="#ArialMT-69" x="224.082031"/>
      <use xlink:href="#ArialMT-6e" x="246.298828"/>
      <use xlink:href="#ArialMT-67" x="301.914062"/>
     </g>
    </g>
    <g id="PathCollection_4">
     <g>
      <use xlink:href="#m6830ebb296" x="624.443636" y="58.006875" style="fill: #e74c3c; fill-opacity: 0.6; stroke: #e74c3c; stroke-opacity: 0.6"/>
     </g>
    </g>
    <g id="text_55">
     <!-- Testing -->
     <g style="fill: #262626" transform="translate(646.043636 61.156875) scale(0.12 -0.12)">
      <use xlink:href="#ArialMT-54"/>
      <use xlink:href="#ArialMT-65" x="49.958984"/>
      <use xlink:href="#ArialMT-73" x="105.574219"/>
      <use xlink:href="#ArialMT-74" x="155.574219"/>
      <use xlink:href="#ArialMT-69" x="183.357422"/>
      <use xlink:href="#ArialMT-6e" x="205.574219"/>
      <use xlink:href="#ArialMT-67" x="261.189453"/>
     </g>
    </g>
   </g>
  </g>
  <g id="axes_2">
   <g id="patch_6">
    <path d="M 51.02 803.9725 
L 699.743636 803.9725 
L 699.743636 450.2925 
L 51.02 450.2925 
z
" style="fill: #ffffff"/>
   </g>
   <g id="matplotlib.axis_3">
    <g id="xtick_6">
     <g id="line2d_12">
      <path d="M 90.939209 803.9725 
L 90.939209 450.2925 
" clip-path="url(#p1c60c11488)" style="fill: none; stroke: #cccccc; stroke-opacity: 0.3; stroke-width: 0.5; stroke-linecap: round"/>
     </g>
     <g id="text_56">
      <!-- −2 -->
      <g style="fill: #262626" transform="translate(84.098271 819.561875) scale(0.12 -0.12)">
       <use xlink:href="#ArialMT-2212"/>
       <use xlink:href="#ArialMT-32" x="58.398438"/>
      </g>
     </g>
    </g>
    <g id="xtick_7">
     <g id="line2d_13">
      <path d="M 233.160513 803.9725 
L 233.160513 450.2925 
" clip-path="url(#p1c60c11488)" style="fill: none; stroke: #cccccc; stroke-opacity: 0.3; stroke-width: 0.5; stroke-linecap: round"/>
     </g>
     <g id="text_57">
      <!-- −1 -->
      <g style="fill: #262626" transform="translate(226.319576 819.561875) scale(0.12 -0.12)">
       <use xlink:href="#ArialMT-2212"/>
       <use xlink:href="#ArialMT-31" x="58.398438"/>
      </g>
     </g>
    </g>
    <g id="xtick_8">
     <g id="line2d_14">
      <path d="M 375.381818 803.9725 
L 375.381818 450.2925 
" clip-path="url(#p1c60c11488)" style="fill: none; stroke: #cccccc; stroke-opacity: 0.3; stroke-width: 0.5; stroke-linecap: round"/>
     </g>
     <g id="text_58">
      <!-- 0 -->
      <g style="fill: #262626" transform="translate(372.045256 819.561875) scale(0.12 -0.12)">
       <use xlink:href="#ArialMT-30"/>
      </g>
     </g>
    </g>
    <g id="xtick_9">
     <g id="line2d_15">
      <path d="M 517.603123 803.9725 
L 517.603123 450.2925 
" clip-path="url(#p1c60c11488)" style="fill: none; stroke: #cccccc; stroke-opacity: 0.3; stroke-width: 0.5; stroke-linecap: round"/>
     </g>
     <g id="text_59">
      <!-- 1 -->
      <g style="fill: #262626" transform="translate(514.266561 819.561875) scale(0.12 -0.12)">
       <use xlink:href="#ArialMT-31"/>
      </g>
     </g>
    </g>
    <g id="xtick_10">
     <g id="line2d_16">
      <path d="M 659.824428 803.9725 
L 659.824428 450.2925 
" clip-path="url(#p1c60c11488)" style="fill: none; stroke: #cccccc; stroke-opacity: 0.3; stroke-width: 0.5; stroke-linecap: round"/>
     </g>
     <g id="text_60">
      <!-- 2 -->
      <g style="fill: #262626" transform="translate(656.487865 819.561875) scale(0.12 -0.12)">
       <use xlink:href="#ArialMT-32"/>
      </g>
     </g>
    </g>
    <g id="text_61">
     <!-- Theoretical quantiles -->
     <g style="fill: #262626" transform="translate(310.793693 841.967813) scale(0.14 -0.14)">
      <use xlink:href="#ArialMT-54"/>
      <use xlink:href="#ArialMT-68" x="61.083984"/>
      <use xlink:href="#ArialMT-65" x="116.699219"/>
      <use xlink:href="#ArialMT-6f" x="172.314453"/>
      <use xlink:href="#ArialMT-72" x="227.929688"/>
      <use xlink:href="#ArialMT-65" x="261.230469"/>
      <use xlink:href="#ArialMT-74" x="316.845703"/>
      <use xlink:href="#ArialMT-69" x="344.628906"/>
      <use xlink:href="#ArialMT-63" x="366.845703"/>
      <use xlink:href="#ArialMT-61" x="416.845703"/>
      <use xlink:href="#ArialMT-6c" x="472.460938"/>
      <use xlink:href="#ArialMT-20" x="494.677734"/>
      <use xlink:href="#ArialMT-71" x="522.460938"/>
      <use xlink:href="#ArialMT-75" x="578.076172"/>
      <use xlink:href="#ArialMT-61" x="633.691406"/>
      <use xlink:href="#ArialMT-6e" x="689.306641"/>
      <use xlink:href="#ArialMT-74" x="744.921875"/>
      <use xlink:href="#ArialMT-69" x="772.705078"/>
      <use xlink:href="#ArialMT-6c" x="794.921875"/>
      <use xlink:href="#ArialMT-65" x="817.138672"/>
      <use xlink:href="#ArialMT-73" x="872.753906"/>
     </g>
    </g>
   </g>
   <g id="matplotlib.axis_4">
    <g id="ytick_6">
     <g id="line2d_17">
      <path d="M 51.02 774.42288 
L 699.743636 774.42288 
" clip-path="url(#p1c60c11488)" style="fill: none; stroke: #cccccc; stroke-opacity: 0.3; stroke-width: 0.5; stroke-linecap: round"/>
     </g>
     <g id="text_62">
      <!-- −4 -->
      <g style="fill: #262626" transform="translate(30.338125 778.717568) scale(0.12 -0.12)">
       <use xlink:href="#ArialMT-2212"/>
       <use xlink:href="#ArialMT-34" x="58.398438"/>
      </g>
     </g>
    </g>
    <g id="ytick_7">
     <g id="line2d_18">
      <path d="M 51.02 700.199894 
L 699.743636 700.199894 
" clip-path="url(#p1c60c11488)" style="fill: none; stroke: #cccccc; stroke-opacity: 0.3; stroke-width: 0.5; stroke-linecap: round"/>
     </g>
     <g id="text_63">
      <!-- −2 -->
      <g style="fill: #262626" transform="translate(30.338125 704.494582) scale(0.12 -0.12)">
       <use xlink:href="#ArialMT-2212"/>
       <use xlink:href="#ArialMT-32" x="58.398438"/>
      </g>
     </g>
    </g>
    <g id="ytick_8">
     <g id="line2d_19">
      <path d="M 51.02 625.976908 
L 699.743636 625.976908 
" clip-path="url(#p1c60c11488)" style="fill: none; stroke: #cccccc; stroke-opacity: 0.3; stroke-width: 0.5; stroke-linecap: round"/>
     </g>
     <g id="text_64">
      <!-- 0 -->
      <g style="fill: #262626" transform="translate(37.346875 630.271595) scale(0.12 -0.12)">
       <use xlink:href="#ArialMT-30"/>
      </g>
     </g>
    </g>
    <g id="ytick_9">
     <g id="line2d_20">
      <path d="M 51.02 551.753922 
L 699.743636 551.753922 
" clip-path="url(#p1c60c11488)" style="fill: none; stroke: #cccccc; stroke-opacity: 0.3; stroke-width: 0.5; stroke-linecap: round"/>
     </g>
     <g id="text_65">
      <!-- 2 -->
      <g style="fill: #262626" transform="translate(37.346875 556.048609) scale(0.12 -0.12)">
       <use xlink:href="#ArialMT-32"/>
      </g>
     </g>
    </g>
    <g id="ytick_10">
     <g id="line2d_21">
      <path d="M 51.02 477.530935 
L 699.743636 477.530935 
" clip-path="url(#p1c60c11488)" style="fill: none; stroke: #cccccc; stroke-opacity: 0.3; stroke-width: 0.5; stroke-linecap: round"/>
     </g>
     <g id="text_66">
      <!-- 4 -->
      <g style="fill: #262626" transform="translate(37.346875 481.825623) scale(0.12 -0.12)">
       <use xlink:href="#ArialMT-34"/>
      </g>
     </g>
    </g>
    <g id="text_67">
     <!-- Ordered Values -->
     <g style="fill: #262626" transform="translate(17.555625 675.640313) rotate(-90) scale(0.14 -0.14)">
      <defs>
       <path id="ArialMT-4f" d="M 309 2231 
Q 309 3372 921 4017 
Q 1534 4663 2503 4663 
Q 3138 4663 3647 4359 
Q 4156 4056 4423 3514 
Q 4691 2972 4691 2284 
Q 4691 1588 4409 1038 
Q 4128 488 3612 205 
Q 3097 -78 2500 -78 
Q 1853 -78 1343 234 
Q 834 547 571 1087 
Q 309 1628 309 2231 
z
M 934 2222 
Q 934 1394 1379 917 
Q 1825 441 2497 441 
Q 3181 441 3623 922 
Q 4066 1403 4066 2288 
Q 4066 2847 3877 3264 
Q 3688 3681 3323 3911 
Q 2959 4141 2506 4141 
Q 1863 4141 1398 3698 
Q 934 3256 934 2222 
z
" transform="scale(0.015625)"/>
      </defs>
      <use xlink:href="#ArialMT-4f"/>
      <use xlink:href="#ArialMT-72" x="77.783203"/>
      <use xlink:href="#ArialMT-64" x="111.083984"/>
      <use xlink:href="#ArialMT-65" x="166.699219"/>
      <use xlink:href="#ArialMT-72" x="222.314453"/>
      <use xlink:href="#ArialMT-65" x="255.615234"/>
      <use xlink:href="#ArialMT-64" x="311.230469"/>
      <use xlink:href="#ArialMT-20" x="366.845703"/>
      <use xlink:href="#ArialMT-56" x="394.628906"/>
      <use xlink:href="#ArialMT-61" x="453.953125"/>
      <use xlink:href="#ArialMT-6c" x="509.568359"/>
      <use xlink:href="#ArialMT-75" x="531.785156"/>
      <use xlink:href="#ArialMT-65" x="587.400391"/>
      <use xlink:href="#ArialMT-73" x="643.015625"/>
     </g>
    </g>
   </g>
   <g id="line2d_22">
    <defs>
     <path id="m536afd5685" d="M 0 4 
C 1.060812 4 2.078319 3.578535 2.828427 2.828427 
C 3.578535 2.078319 4 1.060812 4 0 
C 4 -1.060812 3.578535 -2.078319 2.828427 -2.828427 
C 2.078319 -3.578535 1.060812 -4 0 -4 
C -1.060812 -4 -2.078319 -3.578535 -2.828427 -2.828427 
C -3.578535 -2.078319 -4 -1.060812 -4 0 
C -4 1.060812 -3.578535 2.078319 -2.828427 2.828427 
C -2.078319 3.578535 -1.060812 4 0 4 
z
" style="stroke: #0000ff"/>
    </defs>
    <g clip-path="url(#p1c60c11488)">
     <use xlink:href="#m536afd5685" x="80.507438" y="779.029701" style="fill: #0000ff; stroke: #0000ff"/>
     <use xlink:href="#m536afd5685" x="136.140049" y="760.853702" style="fill: #0000ff; stroke: #0000ff"/>
     <use xlink:href="#m536afd5685" x="169.402092" y="749.527737" style="fill: #0000ff; stroke: #0000ff"/>
     <use xlink:href="#m536afd5685" x="194.138285" y="702.134815" style="fill: #0000ff; stroke: #0000ff"/>
     <use xlink:href="#m536afd5685" x="214.351238" y="701.579368" style="fill: #0000ff; stroke: #0000ff"/>
     <use xlink:href="#m536afd5685" x="231.747351" y="696.61579" style="fill: #0000ff; stroke: #0000ff"/>
     <use xlink:href="#m536afd5685" x="247.223141" y="693.919496" style="fill: #0000ff; stroke: #0000ff"/>
     <use xlink:href="#m536afd5685" x="261.312635" y="690.776787" style="fill: #0000ff; stroke: #0000ff"/>
     <use xlink:href="#m536afd5685" x="274.362363" y="683.241396" style="fill: #0000ff; stroke: #0000ff"/>
     <use xlink:href="#m536afd5685" x="286.611889" y="677.30897" style="fill: #0000ff; stroke: #0000ff"/>
     <use xlink:href="#m536afd5685" x="298.235301" y="676.131371" style="fill: #0000ff; stroke: #0000ff"/>
     <use xlink:href="#m536afd5685" x="309.364464" y="675.763239" style="fill: #0000ff; stroke: #0000ff"/>
     <use xlink:href="#m536afd5685" x="320.102946" y="669.665034" style="fill: #0000ff; stroke: #0000ff"/>
     <use xlink:href="#m536afd5685" x="330.534832" y="663.248348" style="fill: #0000ff; stroke: #0000ff"/>
     <use xlink:href="#m536afd5685" x="340.730574" y="663.095655" style="fill: #0000ff; stroke: #0000ff"/>
     <use xlink:href="#m536afd5685" x="350.751066" y="657.651046" style="fill: #0000ff; stroke: #0000ff"/>
     <use xlink:href="#m536afd5685" x="360.650613" y="639.742375" style="fill: #0000ff; stroke: #0000ff"/>
     <use xlink:href="#m536afd5685" x="370.479212" y="623.244921" style="fill: #0000ff; stroke: #0000ff"/>
     <use xlink:href="#m536afd5685" x="380.284424" y="619.221428" style="fill: #0000ff; stroke: #0000ff"/>
     <use xlink:href="#m536afd5685" x="390.113023" y="619.015452" style="fill: #0000ff; stroke: #0000ff"/>
     <use xlink:href="#m536afd5685" x="400.01257" y="607.322571" style="fill: #0000ff; stroke: #0000ff"/>
     <use xlink:href="#m536afd5685" x="410.033063" y="598.636988" style="fill: #0000ff; stroke: #0000ff"/>
     <use xlink:href="#m536afd5685" x="420.228805" y="596.369636" style="fill: #0000ff; stroke: #0000ff"/>
     <use xlink:href="#m536afd5685" x="430.66069" y="592.937846" style="fill: #0000ff; stroke: #0000ff"/>
     <use xlink:href="#m536afd5685" x="441.399172" y="588.597185" style="fill: #0000ff; stroke: #0000ff"/>
     <use xlink:href="#m536afd5685" x="452.528335" y="586.842627" style="fill: #0000ff; stroke: #0000ff"/>
     <use xlink:href="#m536afd5685" x="464.151747" y="579.838266" style="fill: #0000ff; stroke: #0000ff"/>
     <use xlink:href="#m536afd5685" x="476.401273" y="573.786131" style="fill: #0000ff; stroke: #0000ff"/>
     <use xlink:href="#m536afd5685" x="489.451001" y="567.387102" style="fill: #0000ff; stroke: #0000ff"/>
     <use xlink:href="#m536afd5685" x="503.540495" y="565.444853" style="fill: #0000ff; stroke: #0000ff"/>
     <use xlink:href="#m536afd5685" x="519.016285" y="555.724665" style="fill: #0000ff; stroke: #0000ff"/>
     <use xlink:href="#m536afd5685" x="536.412399" y="550.870862" style="fill: #0000ff; stroke: #0000ff"/>
     <use xlink:href="#m536afd5685" x="556.625352" y="515.459884" style="fill: #0000ff; stroke: #0000ff"/>
     <use xlink:href="#m536afd5685" x="581.361545" y="511.640661" style="fill: #0000ff; stroke: #0000ff"/>
     <use xlink:href="#m536afd5685" x="614.623588" y="472.35155" style="fill: #0000ff; stroke: #0000ff"/>
     <use xlink:href="#m536afd5685" x="670.256198" y="471.792542" style="fill: #0000ff; stroke: #0000ff"/>
    </g>
   </g>
   <g id="line2d_23">
    <path d="M 80.507438 787.896136 
L 136.140049 757.565591 
L 169.402092 739.431337 
L 194.138285 725.945322 
L 214.351238 714.925348 
L 231.747351 705.441098 
L 247.223141 697.003795 
L 261.312635 689.322293 
L 274.362363 682.207664 
L 286.611889 675.5293 
L 298.235301 669.19229 
L 309.364464 663.124741 
L 320.102946 657.270189 
L 330.534832 651.582792 
L 340.730574 646.024138 
L 350.751066 640.561029 
L 360.650613 635.163859 
L 370.479212 629.80537 
L 380.284424 624.45963 
L 390.113023 619.101141 
L 400.01257 613.703971 
L 410.033063 608.240862 
L 420.228805 602.682208 
L 430.66069 596.994811 
L 441.399172 591.140259 
L 452.528335 585.07271 
L 464.151747 578.7357 
L 476.401273 572.057336 
L 489.451001 564.942707 
L 503.540495 557.261205 
L 519.016285 548.823902 
L 536.412399 539.339652 
L 556.625352 528.319678 
L 581.361545 514.833663 
L 614.623588 496.699409 
L 670.256198 466.368864 
" clip-path="url(#p1c60c11488)" style="fill: none; stroke: #ff0000; stroke-width: 2; stroke-linecap: round"/>
   </g>
   <g id="line2d_24">
    <g clip-path="url(#p1c60c11488)">
     <use xlink:href="#m536afd5685" x="233.423782" y="737.719338" style="fill: #0000ff; stroke: #0000ff"/>
     <use xlink:href="#m536afd5685" x="333.968195" y="670.168706" style="fill: #0000ff; stroke: #0000ff"/>
     <use xlink:href="#m536afd5685" x="416.795442" y="608.86836" style="fill: #0000ff; stroke: #0000ff"/>
     <use xlink:href="#m536afd5685" x="517.339855" y="600.473772" style="fill: #0000ff; stroke: #0000ff"/>
    </g>
   </g>
   <g id="line2d_25">
    <path d="M 233.423782 725.788408 
L 333.968195 675.16076 
L 416.795442 633.454328 
L 517.339855 582.82668 
" clip-path="url(#p1c60c11488)" style="fill: none; stroke: #ff0000; stroke-width: 2; stroke-linecap: round"/>
   </g>
   <g id="patch_7">
    <path d="M 51.02 803.9725 
L 51.02 450.2925 
" style="fill: none; stroke: #cccccc; stroke-width: 1.5; stroke-linejoin: miter; stroke-linecap: square"/>
   </g>
   <g id="patch_8">
    <path d="M 51.02 803.9725 
L 699.743636 803.9725 
" style="fill: none; stroke: #cccccc; stroke-width: 1.5; stroke-linejoin: miter; stroke-linecap: square"/>
   </g>
   <g id="text_68">
    <!-- Normal Q-Q Plot of Residuals -->
    <g style="fill: #262626" transform="translate(270.019318 444.2925) scale(0.16 -0.16)">
     <defs>
      <path id="ArialMT-4e" d="M 488 0 
L 488 4581 
L 1109 4581 
L 3516 984 
L 3516 4581 
L 4097 4581 
L 4097 0 
L 3475 0 
L 1069 3600 
L 1069 0 
L 488 0 
z
" transform="scale(0.015625)"/>
      <path id="ArialMT-51" d="M 3966 491 
Q 4388 200 4744 66 
L 4566 -356 
Q 4072 -178 3581 206 
Q 3072 -78 2456 -78 
Q 1834 -78 1328 222 
Q 822 522 548 1065 
Q 275 1609 275 2291 
Q 275 2969 550 3525 
Q 825 4081 1333 4372 
Q 1841 4663 2469 4663 
Q 3103 4663 3612 4361 
Q 4122 4059 4389 3517 
Q 4656 2975 4656 2294 
Q 4656 1728 4484 1276 
Q 4313 825 3966 491 
z
M 2631 1266 
Q 3156 1119 3497 828 
Q 4031 1316 4031 2294 
Q 4031 2850 3842 3265 
Q 3653 3681 3289 3911 
Q 2925 4141 2472 4141 
Q 1794 4141 1347 3677 
Q 900 3213 900 2291 
Q 900 1397 1342 919 
Q 1784 441 2472 441 
Q 2797 441 3084 563 
Q 2800 747 2484 825 
L 2631 1266 
z
" transform="scale(0.015625)"/>
     </defs>
     <use xlink:href="#ArialMT-4e"/>
     <use xlink:href="#ArialMT-6f" x="72.216797"/>
     <use xlink:href="#ArialMT-72" x="127.832031"/>
     <use xlink:href="#ArialMT-6d" x="161.132812"/>
     <use xlink:href="#ArialMT-61" x="244.433594"/>
     <use xlink:href="#ArialMT-6c" x="300.048828"/>
     <use xlink:href="#ArialMT-20" x="322.265625"/>
     <use xlink:href="#ArialMT-51" x="350.048828"/>
     <use xlink:href="#ArialMT-2d" x="427.832031"/>
     <use xlink:href="#ArialMT-51" x="461.132812"/>
     <use xlink:href="#ArialMT-20" x="538.916016"/>
     <use xlink:href="#ArialMT-50" x="566.699219"/>
     <use xlink:href="#ArialMT-6c" x="633.398438"/>
     <use xlink:href="#ArialMT-6f" x="655.615234"/>
     <use xlink:href="#ArialMT-74" x="711.230469"/>
     <use xlink:href="#ArialMT-20" x="739.013672"/>
     <use xlink:href="#ArialMT-6f" x="766.796875"/>
     <use xlink:href="#ArialMT-66" x="822.412109"/>
     <use xlink:href="#ArialMT-20" x="850.195312"/>
     <use xlink:href="#ArialMT-52" x="877.978516"/>
     <use xlink:href="#ArialMT-65" x="950.195312"/>
     <use xlink:href="#ArialMT-73" x="1005.810547"/>
     <use xlink:href="#ArialMT-69" x="1055.810547"/>
     <use xlink:href="#ArialMT-64" x="1078.027344"/>
     <use xlink:href="#ArialMT-75" x="1133.642578"/>
     <use xlink:href="#ArialMT-61" x="1189.257812"/>
     <use xlink:href="#ArialMT-6c" x="1244.873047"/>
     <use xlink:href="#ArialMT-73" x="1267.089844"/>
    </g>
   </g>
  </g>
 </g>
 <defs>
  <clipPath id="p45d9374352">
   <rect x="51.02" y="24.6525" width="648.723636" height="353.68"/>
  </clipPath>
  <clipPath id="p1c60c11488">
   <rect x="51.02" y="450.2925" width="648.723636" height="353.68"/>
  </clipPath>
 </defs>
</svg>
