<?xml version="1.0" encoding="utf-8" standalone="no"?>
<!DOCTYPE svg PUBLIC "-//W3C//DTD SVG 1.1//EN"
  "http://www.w3.org/Graphics/SVG/1.1/DTD/svg11.dtd">
<svg xmlns:xlink="http://www.w3.org/1999/xlink" width="708.48pt" height="420.48pt" viewBox="0 0 708.48 420.48" xmlns="http://www.w3.org/2000/svg" version="1.1">
 <metadata>
  <rdf:RDF xmlns:dc="http://purl.org/dc/elements/1.1/" xmlns:cc="http://creativecommons.org/ns#" xmlns:rdf="http://www.w3.org/1999/02/22-rdf-syntax-ns#">
   <cc:Work>
    <dc:type rdf:resource="http://purl.org/dc/dcmitype/StillImage"/>
    <dc:date>2025-01-10T12:04:21.618351</dc:date>
    <dc:format>image/svg+xml</dc:format>
    <dc:creator>
     <cc:Agent>
      <dc:title>Matplotlib v3.9.3, https://matplotlib.org/</dc:title>
     </cc:Agent>
    </dc:creator>
   </cc:Work>
  </rdf:RDF>
 </metadata>
 <defs>
  <style type="text/css">*{stroke-linejoin: round; stroke-linecap: butt}</style>
 </defs>
 <g id="figure_1">
  <g id="patch_1">
   <path d="M 0 420.48 
L 708.48 420.48 
L 708.48 -0 
L 0 -0 
z
" style="fill: #ffffff"/>
  </g>
  <g id="axes_1">
   <g id="patch_2">
    <path d="M 60.520625 372.1675 
L 701.28 372.1675 
L 701.28 24.6525 
L 60.520625 24.6525 
z
" style="fill: #ffffff"/>
   </g>
   <g id="matplotlib.axis_1">
    <g id="xtick_1">
     <g id="line2d_1">
      <path d="M 104.600715 372.1675 
L 104.600715 24.6525 
" clip-path="url(#pccf4d18d5a)" style="fill: none; stroke: #cccccc; stroke-opacity: 0.3; stroke-width: 0.5; stroke-linecap: round"/>
     </g>
     <g id="text_1">
      <!-- −2 -->
      <g style="fill: #262626" transform="translate(97.759777 387.756875) scale(0.12 -0.12)">
       <defs>
        <path id="ArialMT-2212" d="M 3381 1997 
L 356 1997 
L 356 2522 
L 3381 2522 
L 3381 1997 
z
" transform="scale(0.015625)"/>
        <path id="ArialMT-32" d="M 3222 541 
L 3222 0 
L 194 0 
Q 188 203 259 391 
Q 375 700 629 1000 
Q 884 1300 1366 1694 
Q 2113 2306 2375 2664 
Q 2638 3022 2638 3341 
Q 2638 3675 2398 3904 
Q 2159 4134 1775 4134 
Q 1369 4134 1125 3890 
Q 881 3647 878 3216 
L 300 3275 
Q 359 3922 746 4261 
Q 1134 4600 1788 4600 
Q 2447 4600 2831 4234 
Q 3216 3869 3216 3328 
Q 3216 3053 3103 2787 
Q 2991 2522 2730 2228 
Q 2469 1934 1863 1422 
Q 1356 997 1212 845 
Q 1069 694 975 541 
L 3222 541 
z
" transform="scale(0.015625)"/>
       </defs>
       <use xlink:href="#ArialMT-2212"/>
       <use xlink:href="#ArialMT-32" x="58.398438"/>
      </g>
     </g>
    </g>
    <g id="xtick_2">
     <g id="line2d_2">
      <path d="M 222.075421 372.1675 
L 222.075421 24.6525 
" clip-path="url(#pccf4d18d5a)" style="fill: none; stroke: #cccccc; stroke-opacity: 0.3; stroke-width: 0.5; stroke-linecap: round"/>
     </g>
     <g id="text_2">
      <!-- 0 -->
      <g style="fill: #262626" transform="translate(218.738859 387.756875) scale(0.12 -0.12)">
       <defs>
        <path id="ArialMT-30" d="M 266 2259 
Q 266 3072 433 3567 
Q 600 4063 929 4331 
Q 1259 4600 1759 4600 
Q 2128 4600 2406 4451 
Q 2684 4303 2865 4023 
Q 3047 3744 3150 3342 
Q 3253 2941 3253 2259 
Q 3253 1453 3087 958 
Q 2922 463 2592 192 
Q 2263 -78 1759 -78 
Q 1097 -78 719 397 
Q 266 969 266 2259 
z
M 844 2259 
Q 844 1131 1108 757 
Q 1372 384 1759 384 
Q 2147 384 2411 759 
Q 2675 1134 2675 2259 
Q 2675 3391 2411 3762 
Q 2147 4134 1753 4134 
Q 1366 4134 1134 3806 
Q 844 3388 844 2259 
z
" transform="scale(0.015625)"/>
       </defs>
       <use xlink:href="#ArialMT-30"/>
      </g>
     </g>
    </g>
    <g id="xtick_3">
     <g id="line2d_3">
      <path d="M 339.550128 372.1675 
L 339.550128 24.6525 
" clip-path="url(#pccf4d18d5a)" style="fill: none; stroke: #cccccc; stroke-opacity: 0.3; stroke-width: 0.5; stroke-linecap: round"/>
     </g>
     <g id="text_3">
      <!-- 2 -->
      <g style="fill: #262626" transform="translate(336.213565 387.756875) scale(0.12 -0.12)">
       <use xlink:href="#ArialMT-32"/>
      </g>
     </g>
    </g>
    <g id="xtick_4">
     <g id="line2d_4">
      <path d="M 457.024834 372.1675 
L 457.024834 24.6525 
" clip-path="url(#pccf4d18d5a)" style="fill: none; stroke: #cccccc; stroke-opacity: 0.3; stroke-width: 0.5; stroke-linecap: round"/>
     </g>
     <g id="text_4">
      <!-- 4 -->
      <g style="fill: #262626" transform="translate(453.688271 387.756875) scale(0.12 -0.12)">
       <defs>
        <path id="ArialMT-34" d="M 2069 0 
L 2069 1097 
L 81 1097 
L 81 1613 
L 2172 4581 
L 2631 4581 
L 2631 1613 
L 3250 1613 
L 3250 1097 
L 2631 1097 
L 2631 0 
L 2069 0 
z
M 2069 1613 
L 2069 3678 
L 634 1613 
L 2069 1613 
z
" transform="scale(0.015625)"/>
       </defs>
       <use xlink:href="#ArialMT-34"/>
      </g>
     </g>
    </g>
    <g id="xtick_5">
     <g id="line2d_5">
      <path d="M 574.49954 372.1675 
L 574.49954 24.6525 
" clip-path="url(#pccf4d18d5a)" style="fill: none; stroke: #cccccc; stroke-opacity: 0.3; stroke-width: 0.5; stroke-linecap: round"/>
     </g>
     <g id="text_5">
      <!-- 6 -->
      <g style="fill: #262626" transform="translate(571.162978 387.756875) scale(0.12 -0.12)">
       <defs>
        <path id="ArialMT-36" d="M 3184 3459 
L 2625 3416 
Q 2550 3747 2413 3897 
Q 2184 4138 1850 4138 
Q 1581 4138 1378 3988 
Q 1113 3794 959 3422 
Q 806 3050 800 2363 
Q 1003 2672 1297 2822 
Q 1591 2972 1913 2972 
Q 2475 2972 2870 2558 
Q 3266 2144 3266 1488 
Q 3266 1056 3080 686 
Q 2894 316 2569 119 
Q 2244 -78 1831 -78 
Q 1128 -78 684 439 
Q 241 956 241 2144 
Q 241 3472 731 4075 
Q 1159 4600 1884 4600 
Q 2425 4600 2770 4297 
Q 3116 3994 3184 3459 
z
M 888 1484 
Q 888 1194 1011 928 
Q 1134 663 1356 523 
Q 1578 384 1822 384 
Q 2178 384 2434 671 
Q 2691 959 2691 1453 
Q 2691 1928 2437 2201 
Q 2184 2475 1800 2475 
Q 1419 2475 1153 2201 
Q 888 1928 888 1484 
z
" transform="scale(0.015625)"/>
       </defs>
       <use xlink:href="#ArialMT-36"/>
      </g>
     </g>
    </g>
    <g id="xtick_6">
     <g id="line2d_6">
      <path d="M 691.974247 372.1675 
L 691.974247 24.6525 
" clip-path="url(#pccf4d18d5a)" style="fill: none; stroke: #cccccc; stroke-opacity: 0.3; stroke-width: 0.5; stroke-linecap: round"/>
     </g>
     <g id="text_6">
      <!-- 8 -->
      <g style="fill: #262626" transform="translate(688.637684 387.756875) scale(0.12 -0.12)">
       <defs>
        <path id="ArialMT-38" d="M 1131 2484 
Q 781 2613 612 2850 
Q 444 3088 444 3419 
Q 444 3919 803 4259 
Q 1163 4600 1759 4600 
Q 2359 4600 2725 4251 
Q 3091 3903 3091 3403 
Q 3091 3084 2923 2848 
Q 2756 2613 2416 2484 
Q 2838 2347 3058 2040 
Q 3278 1734 3278 1309 
Q 3278 722 2862 322 
Q 2447 -78 1769 -78 
Q 1091 -78 675 323 
Q 259 725 259 1325 
Q 259 1772 486 2073 
Q 713 2375 1131 2484 
z
M 1019 3438 
Q 1019 3113 1228 2906 
Q 1438 2700 1772 2700 
Q 2097 2700 2305 2904 
Q 2513 3109 2513 3406 
Q 2513 3716 2298 3927 
Q 2084 4138 1766 4138 
Q 1444 4138 1231 3931 
Q 1019 3725 1019 3438 
z
M 838 1322 
Q 838 1081 952 856 
Q 1066 631 1291 507 
Q 1516 384 1775 384 
Q 2178 384 2440 643 
Q 2703 903 2703 1303 
Q 2703 1709 2433 1975 
Q 2163 2241 1756 2241 
Q 1359 2241 1098 1978 
Q 838 1716 838 1322 
z
" transform="scale(0.015625)"/>
       </defs>
       <use xlink:href="#ArialMT-38"/>
      </g>
     </g>
    </g>
    <g id="text_7">
     <!-- Error (%) -->
     <g style="fill: #262626" transform="translate(352.515312 410.333438) scale(0.14 -0.14)">
      <defs>
       <path id="ArialMT-45" d="M 506 0 
L 506 4581 
L 3819 4581 
L 3819 4041 
L 1113 4041 
L 1113 2638 
L 3647 2638 
L 3647 2100 
L 1113 2100 
L 1113 541 
L 3925 541 
L 3925 0 
L 506 0 
z
" transform="scale(0.015625)"/>
       <path id="ArialMT-72" d="M 416 0 
L 416 3319 
L 922 3319 
L 922 2816 
Q 1116 3169 1280 3281 
Q 1444 3394 1641 3394 
Q 1925 3394 2219 3213 
L 2025 2691 
Q 1819 2813 1613 2813 
Q 1428 2813 1281 2702 
Q 1134 2591 1072 2394 
Q 978 2094 978 1738 
L 978 0 
L 416 0 
z
" transform="scale(0.015625)"/>
       <path id="ArialMT-6f" d="M 213 1659 
Q 213 2581 725 3025 
Q 1153 3394 1769 3394 
Q 2453 3394 2887 2945 
Q 3322 2497 3322 1706 
Q 3322 1066 3130 698 
Q 2938 331 2570 128 
Q 2203 -75 1769 -75 
Q 1072 -75 642 372 
Q 213 819 213 1659 
z
M 791 1659 
Q 791 1022 1069 705 
Q 1347 388 1769 388 
Q 2188 388 2466 706 
Q 2744 1025 2744 1678 
Q 2744 2294 2464 2611 
Q 2184 2928 1769 2928 
Q 1347 2928 1069 2612 
Q 791 2297 791 1659 
z
" transform="scale(0.015625)"/>
       <path id="ArialMT-20" transform="scale(0.015625)"/>
       <path id="ArialMT-28" d="M 1497 -1347 
Q 1031 -759 709 28 
Q 388 816 388 1659 
Q 388 2403 628 3084 
Q 909 3875 1497 4659 
L 1900 4659 
Q 1522 4009 1400 3731 
Q 1209 3300 1100 2831 
Q 966 2247 966 1656 
Q 966 153 1900 -1347 
L 1497 -1347 
z
" transform="scale(0.015625)"/>
       <path id="ArialMT-25" d="M 372 3481 
Q 372 3972 619 4315 
Q 866 4659 1334 4659 
Q 1766 4659 2048 4351 
Q 2331 4044 2331 3447 
Q 2331 2866 2045 2552 
Q 1759 2238 1341 2238 
Q 925 2238 648 2547 
Q 372 2856 372 3481 
z
M 1350 4272 
Q 1141 4272 1002 4090 
Q 863 3909 863 3425 
Q 863 2984 1003 2804 
Q 1144 2625 1350 2625 
Q 1563 2625 1702 2806 
Q 1841 2988 1841 3469 
Q 1841 3913 1700 4092 
Q 1559 4272 1350 4272 
z
M 1353 -169 
L 3859 4659 
L 4316 4659 
L 1819 -169 
L 1353 -169 
z
M 3334 1075 
Q 3334 1569 3581 1911 
Q 3828 2253 4300 2253 
Q 4731 2253 5014 1945 
Q 5297 1638 5297 1041 
Q 5297 459 5011 145 
Q 4725 -169 4303 -169 
Q 3888 -169 3611 142 
Q 3334 453 3334 1075 
z
M 4316 1866 
Q 4103 1866 3964 1684 
Q 3825 1503 3825 1019 
Q 3825 581 3965 400 
Q 4106 219 4313 219 
Q 4528 219 4667 400 
Q 4806 581 4806 1063 
Q 4806 1506 4665 1686 
Q 4525 1866 4316 1866 
z
" transform="scale(0.015625)"/>
       <path id="ArialMT-29" d="M 791 -1347 
L 388 -1347 
Q 1322 153 1322 1656 
Q 1322 2244 1188 2822 
Q 1081 3291 891 3722 
Q 769 4003 388 4659 
L 791 4659 
Q 1378 3875 1659 3084 
Q 1900 2403 1900 1659 
Q 1900 816 1576 28 
Q 1253 -759 791 -1347 
z
" transform="scale(0.015625)"/>
      </defs>
      <use xlink:href="#ArialMT-45"/>
      <use xlink:href="#ArialMT-72" x="66.699219"/>
      <use xlink:href="#ArialMT-72" x="100"/>
      <use xlink:href="#ArialMT-6f" x="133.300781"/>
      <use xlink:href="#ArialMT-72" x="188.916016"/>
      <use xlink:href="#ArialMT-20" x="222.216797"/>
      <use xlink:href="#ArialMT-28" x="250"/>
      <use xlink:href="#ArialMT-25" x="283.300781"/>
      <use xlink:href="#ArialMT-29" x="372.216797"/>
     </g>
    </g>
   </g>
   <g id="matplotlib.axis_2">
    <g id="ytick_1">
     <g id="line2d_7">
      <path d="M 60.520625 372.1675 
L 701.28 372.1675 
" clip-path="url(#pccf4d18d5a)" style="fill: none; stroke: #cccccc; stroke-opacity: 0.3; stroke-width: 0.5; stroke-linecap: round"/>
     </g>
     <g id="text_8">
      <!-- 0.00 -->
      <g style="fill: #262626" transform="translate(30.1675 376.462188) scale(0.12 -0.12)">
       <defs>
        <path id="ArialMT-2e" d="M 581 0 
L 581 641 
L 1222 641 
L 1222 0 
L 581 0 
z
" transform="scale(0.015625)"/>
       </defs>
       <use xlink:href="#ArialMT-30"/>
       <use xlink:href="#ArialMT-2e" x="55.615234"/>
       <use xlink:href="#ArialMT-30" x="83.398438"/>
       <use xlink:href="#ArialMT-30" x="139.013672"/>
      </g>
     </g>
    </g>
    <g id="ytick_2">
     <g id="line2d_8">
      <path d="M 60.520625 326.048742 
L 701.28 326.048742 
" clip-path="url(#pccf4d18d5a)" style="fill: none; stroke: #cccccc; stroke-opacity: 0.3; stroke-width: 0.5; stroke-linecap: round"/>
     </g>
     <g id="text_9">
      <!-- 0.05 -->
      <g style="fill: #262626" transform="translate(30.1675 330.343429) scale(0.12 -0.12)">
       <defs>
        <path id="ArialMT-35" d="M 266 1200 
L 856 1250 
Q 922 819 1161 601 
Q 1400 384 1738 384 
Q 2144 384 2425 690 
Q 2706 997 2706 1503 
Q 2706 1984 2436 2262 
Q 2166 2541 1728 2541 
Q 1456 2541 1237 2417 
Q 1019 2294 894 2097 
L 366 2166 
L 809 4519 
L 3088 4519 
L 3088 3981 
L 1259 3981 
L 1013 2750 
Q 1425 3038 1878 3038 
Q 2478 3038 2890 2622 
Q 3303 2206 3303 1553 
Q 3303 931 2941 478 
Q 2500 -78 1738 -78 
Q 1113 -78 717 272 
Q 322 622 266 1200 
z
" transform="scale(0.015625)"/>
       </defs>
       <use xlink:href="#ArialMT-30"/>
       <use xlink:href="#ArialMT-2e" x="55.615234"/>
       <use xlink:href="#ArialMT-30" x="83.398438"/>
       <use xlink:href="#ArialMT-35" x="139.013672"/>
      </g>
     </g>
    </g>
    <g id="ytick_3">
     <g id="line2d_9">
      <path d="M 60.520625 279.929984 
L 701.28 279.929984 
" clip-path="url(#pccf4d18d5a)" style="fill: none; stroke: #cccccc; stroke-opacity: 0.3; stroke-width: 0.5; stroke-linecap: round"/>
     </g>
     <g id="text_10">
      <!-- 0.10 -->
      <g style="fill: #262626" transform="translate(30.1675 284.224671) scale(0.12 -0.12)">
       <defs>
        <path id="ArialMT-31" d="M 2384 0 
L 1822 0 
L 1822 3584 
Q 1619 3391 1289 3197 
Q 959 3003 697 2906 
L 697 3450 
Q 1169 3672 1522 3987 
Q 1875 4303 2022 4600 
L 2384 4600 
L 2384 0 
z
" transform="scale(0.015625)"/>
       </defs>
       <use xlink:href="#ArialMT-30"/>
       <use xlink:href="#ArialMT-2e" x="55.615234"/>
       <use xlink:href="#ArialMT-31" x="83.398438"/>
       <use xlink:href="#ArialMT-30" x="139.013672"/>
      </g>
     </g>
    </g>
    <g id="ytick_4">
     <g id="line2d_10">
      <path d="M 60.520625 233.811226 
L 701.28 233.811226 
" clip-path="url(#pccf4d18d5a)" style="fill: none; stroke: #cccccc; stroke-opacity: 0.3; stroke-width: 0.5; stroke-linecap: round"/>
     </g>
     <g id="text_11">
      <!-- 0.15 -->
      <g style="fill: #262626" transform="translate(30.1675 238.105913) scale(0.12 -0.12)">
       <use xlink:href="#ArialMT-30"/>
       <use xlink:href="#ArialMT-2e" x="55.615234"/>
       <use xlink:href="#ArialMT-31" x="83.398438"/>
       <use xlink:href="#ArialMT-35" x="139.013672"/>
      </g>
     </g>
    </g>
    <g id="ytick_5">
     <g id="line2d_11">
      <path d="M 60.520625 187.692468 
L 701.28 187.692468 
" clip-path="url(#pccf4d18d5a)" style="fill: none; stroke: #cccccc; stroke-opacity: 0.3; stroke-width: 0.5; stroke-linecap: round"/>
     </g>
     <g id="text_12">
      <!-- 0.20 -->
      <g style="fill: #262626" transform="translate(30.1675 191.987155) scale(0.12 -0.12)">
       <use xlink:href="#ArialMT-30"/>
       <use xlink:href="#ArialMT-2e" x="55.615234"/>
       <use xlink:href="#ArialMT-32" x="83.398438"/>
       <use xlink:href="#ArialMT-30" x="139.013672"/>
      </g>
     </g>
    </g>
    <g id="ytick_6">
     <g id="line2d_12">
      <path d="M 60.520625 141.57371 
L 701.28 141.57371 
" clip-path="url(#pccf4d18d5a)" style="fill: none; stroke: #cccccc; stroke-opacity: 0.3; stroke-width: 0.5; stroke-linecap: round"/>
     </g>
     <g id="text_13">
      <!-- 0.25 -->
      <g style="fill: #262626" transform="translate(30.1675 145.868397) scale(0.12 -0.12)">
       <use xlink:href="#ArialMT-30"/>
       <use xlink:href="#ArialMT-2e" x="55.615234"/>
       <use xlink:href="#ArialMT-32" x="83.398438"/>
       <use xlink:href="#ArialMT-35" x="139.013672"/>
      </g>
     </g>
    </g>
    <g id="ytick_7">
     <g id="line2d_13">
      <path d="M 60.520625 95.454952 
L 701.28 95.454952 
" clip-path="url(#pccf4d18d5a)" style="fill: none; stroke: #cccccc; stroke-opacity: 0.3; stroke-width: 0.5; stroke-linecap: round"/>
     </g>
     <g id="text_14">
      <!-- 0.30 -->
      <g style="fill: #262626" transform="translate(30.1675 99.749639) scale(0.12 -0.12)">
       <defs>
        <path id="ArialMT-33" d="M 269 1209 
L 831 1284 
Q 928 806 1161 595 
Q 1394 384 1728 384 
Q 2125 384 2398 659 
Q 2672 934 2672 1341 
Q 2672 1728 2419 1979 
Q 2166 2231 1775 2231 
Q 1616 2231 1378 2169 
L 1441 2663 
Q 1497 2656 1531 2656 
Q 1891 2656 2178 2843 
Q 2466 3031 2466 3422 
Q 2466 3731 2256 3934 
Q 2047 4138 1716 4138 
Q 1388 4138 1169 3931 
Q 950 3725 888 3313 
L 325 3413 
Q 428 3978 793 4289 
Q 1159 4600 1703 4600 
Q 2078 4600 2393 4439 
Q 2709 4278 2876 4000 
Q 3044 3722 3044 3409 
Q 3044 3113 2884 2869 
Q 2725 2625 2413 2481 
Q 2819 2388 3044 2092 
Q 3269 1797 3269 1353 
Q 3269 753 2831 336 
Q 2394 -81 1725 -81 
Q 1122 -81 723 278 
Q 325 638 269 1209 
z
" transform="scale(0.015625)"/>
       </defs>
       <use xlink:href="#ArialMT-30"/>
       <use xlink:href="#ArialMT-2e" x="55.615234"/>
       <use xlink:href="#ArialMT-33" x="83.398438"/>
       <use xlink:href="#ArialMT-30" x="139.013672"/>
      </g>
     </g>
    </g>
    <g id="ytick_8">
     <g id="line2d_14">
      <path d="M 60.520625 49.336194 
L 701.28 49.336194 
" clip-path="url(#pccf4d18d5a)" style="fill: none; stroke: #cccccc; stroke-opacity: 0.3; stroke-width: 0.5; stroke-linecap: round"/>
     </g>
     <g id="text_15">
      <!-- 0.35 -->
      <g style="fill: #262626" transform="translate(30.1675 53.630881) scale(0.12 -0.12)">
       <use xlink:href="#ArialMT-30"/>
       <use xlink:href="#ArialMT-2e" x="55.615234"/>
       <use xlink:href="#ArialMT-33" x="83.398438"/>
       <use xlink:href="#ArialMT-35" x="139.013672"/>
      </g>
     </g>
    </g>
    <g id="text_16">
     <!-- Density -->
     <g style="fill: #262626" transform="translate(17.220938 221.750625) rotate(-90) scale(0.14 -0.14)">
      <defs>
       <path id="ArialMT-44" d="M 494 0 
L 494 4581 
L 2072 4581 
Q 2606 4581 2888 4516 
Q 3281 4425 3559 4188 
Q 3922 3881 4101 3404 
Q 4281 2928 4281 2316 
Q 4281 1794 4159 1391 
Q 4038 988 3847 723 
Q 3656 459 3429 307 
Q 3203 156 2883 78 
Q 2563 0 2147 0 
L 494 0 
z
M 1100 541 
L 2078 541 
Q 2531 541 2789 625 
Q 3047 709 3200 863 
Q 3416 1078 3536 1442 
Q 3656 1806 3656 2325 
Q 3656 3044 3420 3430 
Q 3184 3816 2847 3947 
Q 2603 4041 2063 4041 
L 1100 4041 
L 1100 541 
z
" transform="scale(0.015625)"/>
       <path id="ArialMT-65" d="M 2694 1069 
L 3275 997 
Q 3138 488 2766 206 
Q 2394 -75 1816 -75 
Q 1088 -75 661 373 
Q 234 822 234 1631 
Q 234 2469 665 2931 
Q 1097 3394 1784 3394 
Q 2450 3394 2872 2941 
Q 3294 2488 3294 1666 
Q 3294 1616 3291 1516 
L 816 1516 
Q 847 969 1125 678 
Q 1403 388 1819 388 
Q 2128 388 2347 550 
Q 2566 713 2694 1069 
z
M 847 1978 
L 2700 1978 
Q 2663 2397 2488 2606 
Q 2219 2931 1791 2931 
Q 1403 2931 1139 2672 
Q 875 2413 847 1978 
z
" transform="scale(0.015625)"/>
       <path id="ArialMT-6e" d="M 422 0 
L 422 3319 
L 928 3319 
L 928 2847 
Q 1294 3394 1984 3394 
Q 2284 3394 2536 3286 
Q 2788 3178 2913 3003 
Q 3038 2828 3088 2588 
Q 3119 2431 3119 2041 
L 3119 0 
L 2556 0 
L 2556 2019 
Q 2556 2363 2490 2533 
Q 2425 2703 2258 2804 
Q 2091 2906 1866 2906 
Q 1506 2906 1245 2678 
Q 984 2450 984 1813 
L 984 0 
L 422 0 
z
" transform="scale(0.015625)"/>
       <path id="ArialMT-73" d="M 197 991 
L 753 1078 
Q 800 744 1014 566 
Q 1228 388 1613 388 
Q 2000 388 2187 545 
Q 2375 703 2375 916 
Q 2375 1106 2209 1216 
Q 2094 1291 1634 1406 
Q 1016 1563 777 1677 
Q 538 1791 414 1992 
Q 291 2194 291 2438 
Q 291 2659 392 2848 
Q 494 3038 669 3163 
Q 800 3259 1026 3326 
Q 1253 3394 1513 3394 
Q 1903 3394 2198 3281 
Q 2494 3169 2634 2976 
Q 2775 2784 2828 2463 
L 2278 2388 
Q 2241 2644 2061 2787 
Q 1881 2931 1553 2931 
Q 1166 2931 1000 2803 
Q 834 2675 834 2503 
Q 834 2394 903 2306 
Q 972 2216 1119 2156 
Q 1203 2125 1616 2013 
Q 2213 1853 2448 1751 
Q 2684 1650 2818 1456 
Q 2953 1263 2953 975 
Q 2953 694 2789 445 
Q 2625 197 2315 61 
Q 2006 -75 1616 -75 
Q 969 -75 630 194 
Q 291 463 197 991 
z
" transform="scale(0.015625)"/>
       <path id="ArialMT-69" d="M 425 3934 
L 425 4581 
L 988 4581 
L 988 3934 
L 425 3934 
z
M 425 0 
L 425 3319 
L 988 3319 
L 988 0 
L 425 0 
z
" transform="scale(0.015625)"/>
       <path id="ArialMT-74" d="M 1650 503 
L 1731 6 
Q 1494 -44 1306 -44 
Q 1000 -44 831 53 
Q 663 150 594 308 
Q 525 466 525 972 
L 525 2881 
L 113 2881 
L 113 3319 
L 525 3319 
L 525 4141 
L 1084 4478 
L 1084 3319 
L 1650 3319 
L 1650 2881 
L 1084 2881 
L 1084 941 
Q 1084 700 1114 631 
Q 1144 563 1211 522 
Q 1278 481 1403 481 
Q 1497 481 1650 503 
z
" transform="scale(0.015625)"/>
       <path id="ArialMT-79" d="M 397 -1278 
L 334 -750 
Q 519 -800 656 -800 
Q 844 -800 956 -737 
Q 1069 -675 1141 -563 
Q 1194 -478 1313 -144 
Q 1328 -97 1363 -6 
L 103 3319 
L 709 3319 
L 1400 1397 
Q 1534 1031 1641 628 
Q 1738 1016 1872 1384 
L 2581 3319 
L 3144 3319 
L 1881 -56 
Q 1678 -603 1566 -809 
Q 1416 -1088 1222 -1217 
Q 1028 -1347 759 -1347 
Q 597 -1347 397 -1278 
z
" transform="scale(0.015625)"/>
      </defs>
      <use xlink:href="#ArialMT-44"/>
      <use xlink:href="#ArialMT-65" x="72.216797"/>
      <use xlink:href="#ArialMT-6e" x="127.832031"/>
      <use xlink:href="#ArialMT-73" x="183.447266"/>
      <use xlink:href="#ArialMT-69" x="233.447266"/>
      <use xlink:href="#ArialMT-74" x="255.664062"/>
      <use xlink:href="#ArialMT-79" x="283.447266"/>
     </g>
    </g>
   </g>
   <g id="PolyCollection_1">
    <defs>
     <path id="mc6cc0e6811" d="M 93.277184 -48.739562 
L 93.277184 -48.3125 
L 96.186115 -48.3125 
L 99.095047 -48.3125 
L 102.003978 -48.3125 
L 104.91291 -48.3125 
L 107.821842 -48.3125 
L 110.730773 -48.3125 
L 113.639705 -48.3125 
L 116.548637 -48.3125 
L 119.457568 -48.3125 
L 122.3665 -48.3125 
L 125.275431 -48.3125 
L 128.184363 -48.3125 
L 131.093295 -48.3125 
L 134.002226 -48.3125 
L 136.911158 -48.3125 
L 139.820089 -48.3125 
L 142.729021 -48.3125 
L 145.637953 -48.3125 
L 148.546884 -48.3125 
L 151.455816 -48.3125 
L 154.364747 -48.3125 
L 157.273679 -48.3125 
L 160.182611 -48.3125 
L 163.091542 -48.3125 
L 166.000474 -48.3125 
L 168.909405 -48.3125 
L 171.818337 -48.3125 
L 174.727269 -48.3125 
L 177.6362 -48.3125 
L 180.545132 -48.3125 
L 183.454064 -48.3125 
L 186.362995 -48.3125 
L 189.271927 -48.3125 
L 192.180858 -48.3125 
L 195.08979 -48.3125 
L 197.998722 -48.3125 
L 200.907653 -48.3125 
L 203.816585 -48.3125 
L 206.725516 -48.3125 
L 209.634448 -48.3125 
L 212.54338 -48.3125 
L 215.452311 -48.3125 
L 218.361243 -48.3125 
L 221.270174 -48.3125 
L 224.179106 -48.3125 
L 227.088038 -48.3125 
L 229.996969 -48.3125 
L 232.905901 -48.3125 
L 235.814832 -48.3125 
L 238.723764 -48.3125 
L 241.632696 -48.3125 
L 244.541627 -48.3125 
L 247.450559 -48.3125 
L 250.359491 -48.3125 
L 253.268422 -48.3125 
L 256.177354 -48.3125 
L 259.086285 -48.3125 
L 261.995217 -48.3125 
L 264.904149 -48.3125 
L 267.81308 -48.3125 
L 270.722012 -48.3125 
L 273.630943 -48.3125 
L 276.539875 -48.3125 
L 279.448807 -48.3125 
L 282.357738 -48.3125 
L 285.26667 -48.3125 
L 288.175601 -48.3125 
L 291.084533 -48.3125 
L 293.993465 -48.3125 
L 296.902396 -48.3125 
L 299.811328 -48.3125 
L 302.72026 -48.3125 
L 305.629191 -48.3125 
L 308.538123 -48.3125 
L 311.447054 -48.3125 
L 314.355986 -48.3125 
L 317.264918 -48.3125 
L 320.173849 -48.3125 
L 323.082781 -48.3125 
L 325.991712 -48.3125 
L 328.900644 -48.3125 
L 331.809576 -48.3125 
L 334.718507 -48.3125 
L 337.627439 -48.3125 
L 340.53637 -48.3125 
L 343.445302 -48.3125 
L 346.354234 -48.3125 
L 349.263165 -48.3125 
L 352.172097 -48.3125 
L 355.081028 -48.3125 
L 357.98996 -48.3125 
L 360.898892 -48.3125 
L 363.807823 -48.3125 
L 366.716755 -48.3125 
L 369.625687 -48.3125 
L 372.534618 -48.3125 
L 375.44355 -48.3125 
L 378.352481 -48.3125 
L 381.261413 -48.3125 
L 384.170345 -48.3125 
L 387.079276 -48.3125 
L 389.988208 -48.3125 
L 392.897139 -48.3125 
L 395.806071 -48.3125 
L 398.715003 -48.3125 
L 401.623934 -48.3125 
L 404.532866 -48.3125 
L 407.441797 -48.3125 
L 410.350729 -48.3125 
L 413.259661 -48.3125 
L 416.168592 -48.3125 
L 419.077524 -48.3125 
L 421.986455 -48.3125 
L 424.895387 -48.3125 
L 427.804319 -48.3125 
L 430.71325 -48.3125 
L 433.622182 -48.3125 
L 436.531114 -48.3125 
L 439.440045 -48.3125 
L 442.348977 -48.3125 
L 445.257908 -48.3125 
L 448.16684 -48.3125 
L 451.075772 -48.3125 
L 453.984703 -48.3125 
L 456.893635 -48.3125 
L 459.802566 -48.3125 
L 462.711498 -48.3125 
L 465.62043 -48.3125 
L 468.529361 -48.3125 
L 471.438293 -48.3125 
L 474.347224 -48.3125 
L 477.256156 -48.3125 
L 480.165088 -48.3125 
L 483.074019 -48.3125 
L 485.982951 -48.3125 
L 488.891882 -48.3125 
L 491.800814 -48.3125 
L 494.709746 -48.3125 
L 497.618677 -48.3125 
L 500.527609 -48.3125 
L 503.436541 -48.3125 
L 506.345472 -48.3125 
L 509.254404 -48.3125 
L 512.163335 -48.3125 
L 515.072267 -48.3125 
L 517.981199 -48.3125 
L 520.89013 -48.3125 
L 523.799062 -48.3125 
L 526.707993 -48.3125 
L 529.616925 -48.3125 
L 532.525857 -48.3125 
L 535.434788 -48.3125 
L 538.34372 -48.3125 
L 541.252651 -48.3125 
L 544.161583 -48.3125 
L 547.070515 -48.3125 
L 549.979446 -48.3125 
L 552.888378 -48.3125 
L 555.797309 -48.3125 
L 558.706241 -48.3125 
L 561.615173 -48.3125 
L 564.524104 -48.3125 
L 567.433036 -48.3125 
L 570.341968 -48.3125 
L 573.250899 -48.3125 
L 576.159831 -48.3125 
L 579.068762 -48.3125 
L 581.977694 -48.3125 
L 584.886626 -48.3125 
L 587.795557 -48.3125 
L 590.704489 -48.3125 
L 593.61342 -48.3125 
L 596.522352 -48.3125 
L 599.431284 -48.3125 
L 602.340215 -48.3125 
L 605.249147 -48.3125 
L 608.158078 -48.3125 
L 611.06701 -48.3125 
L 613.975942 -48.3125 
L 616.884873 -48.3125 
L 619.793805 -48.3125 
L 622.702737 -48.3125 
L 625.611668 -48.3125 
L 628.5206 -48.3125 
L 631.429531 -48.3125 
L 634.338463 -48.3125 
L 637.247395 -48.3125 
L 640.156326 -48.3125 
L 643.065258 -48.3125 
L 645.974189 -48.3125 
L 648.883121 -48.3125 
L 651.792053 -48.3125 
L 654.700984 -48.3125 
L 657.609916 -48.3125 
L 660.518847 -48.3125 
L 663.427779 -48.3125 
L 666.336711 -48.3125 
L 669.245642 -48.3125 
L 672.154574 -48.3125 
L 672.154574 -48.489998 
L 672.154574 -48.489998 
L 669.245642 -48.530363 
L 666.336711 -48.578841 
L 663.427779 -48.636817 
L 660.518847 -48.705858 
L 657.609916 -48.787732 
L 654.700984 -48.884419 
L 651.792053 -48.998126 
L 648.883121 -49.131298 
L 645.974189 -49.28663 
L 643.065258 -49.467076 
L 640.156326 -49.675854 
L 637.247395 -49.916449 
L 634.338463 -50.192616 
L 631.429531 -50.508374 
L 628.5206 -50.868004 
L 625.611668 -51.27603 
L 622.702737 -51.737214 
L 619.793805 -52.256526 
L 616.884873 -52.839127 
L 613.975942 -53.490336 
L 611.06701 -54.215597 
L 608.158078 -55.020437 
L 605.249147 -55.910424 
L 602.340215 -56.891117 
L 599.431284 -57.968009 
L 596.522352 -59.146465 
L 593.61342 -60.431663 
L 590.704489 -61.828514 
L 587.795557 -63.341595 
L 584.886626 -64.97506 
L 581.977694 -66.732557 
L 579.068762 -68.61714 
L 576.159831 -70.631172 
L 573.250899 -72.776225 
L 570.341968 -75.052989 
L 567.433036 -77.461165 
L 564.524104 -79.999369 
L 561.615173 -82.665038 
L 558.706241 -85.454339 
L 555.797309 -88.362094 
L 552.888378 -91.381706 
L 549.979446 -94.50511 
L 547.070515 -97.722742 
L 544.161583 -101.023527 
L 541.252651 -104.394902 
L 538.34372 -107.822859 
L 535.434788 -111.292032 
L 532.525857 -114.785813 
L 529.616925 -118.286509 
L 526.707993 -121.775536 
L 523.799062 -125.233651 
L 520.89013 -128.641218 
L 517.981199 -131.978508 
L 515.072267 -135.226027 
L 512.163335 -138.364862 
L 509.254404 -141.377043 
L 506.345472 -144.245911 
L 503.436541 -146.956478 
L 500.527609 -149.495778 
L 497.618677 -151.853185 
L 494.709746 -154.020705 
L 491.800814 -155.993217 
L 488.891882 -157.76866 
L 485.982951 -159.348162 
L 483.074019 -160.736098 
L 480.165088 -161.940082 
L 477.256156 -162.970876 
L 474.347224 -163.84224 
L 471.438293 -164.570698 
L 468.529361 -165.175253 
L 465.62043 -165.677034 
L 462.711498 -166.098898 
L 459.802566 -166.465 
L 456.893635 -166.800329 
L 453.984703 -167.130238 
L 451.075772 -167.47997 
L 448.16684 -167.874194 
L 445.257908 -168.336573 
L 442.348977 -168.889358 
L 439.440045 -169.55303 
L 436.531114 -170.345989 
L 433.622182 -171.2843 
L 430.71325 -172.381502 
L 427.804319 -173.648465 
L 424.895387 -175.09332 
L 421.986455 -176.721427 
L 419.077524 -178.535409 
L 416.168592 -180.535225 
L 413.259661 -182.718274 
L 410.350729 -185.079545 
L 407.441797 -187.611775 
L 404.532866 -190.305641 
L 401.623934 -193.149945 
L 398.715003 -196.131821 
L 395.806071 -199.236931 
L 392.897139 -202.449663 
L 389.988208 -205.753322 
L 387.079276 -209.13032 
L 384.170345 -212.56235 
L 381.261413 -216.030557 
L 378.352481 -219.515709 
L 375.44355 -222.998352 
L 372.534618 -226.458969 
L 369.625687 -229.878134 
L 366.716755 -233.236665 
L 363.807823 -236.515771 
L 360.898892 -239.697203 
L 357.98996 -242.763392 
L 355.081028 -245.697597 
L 352.172097 -248.484026 
L 349.263165 -251.107963 
L 346.354234 -253.555871 
L 343.445302 -255.815485 
L 340.53637 -257.87588 
L 337.627439 -259.72752 
L 334.718507 -261.36228 
L 331.809576 -262.773445 
L 328.900644 -263.955675 
L 325.991712 -264.904954 
L 323.082781 -265.618505 
L 320.173849 -266.094685 
L 317.264918 -266.332866 
L 314.355986 -266.333291 
L 311.447054 -266.09693 
L 308.538123 -265.625325 
L 305.629191 -264.920443 
L 302.72026 -263.984526 
L 299.811328 -262.819966 
L 296.902396 -261.429192 
L 293.993465 -259.814577 
L 291.084533 -257.978379 
L 288.175601 -255.922704 
L 285.26667 -253.649506 
L 282.357738 -251.160614 
L 279.448807 -248.45779 
L 276.539875 -245.542815 
L 273.630943 -242.417604 
L 270.722012 -239.084334 
L 267.81308 -235.545598 
L 264.904149 -231.804561 
L 261.995217 -227.865122 
L 259.086285 -223.73208 
L 256.177354 -219.411281 
L 253.268422 -214.90976 
L 250.359491 -210.235856 
L 247.450559 -205.399304 
L 244.541627 -200.411299 
L 241.632696 -195.284519 
L 238.723764 -190.033124 
L 235.814832 -184.672705 
L 232.905901 -179.220202 
L 229.996969 -173.69379 
L 227.088038 -168.112717 
L 224.179106 -162.497125 
L 221.270174 -156.867837 
L 218.361243 -151.246118 
L 215.452311 -145.653428 
L 212.54338 -140.111159 
L 209.634448 -134.640364 
L 206.725516 -129.261499 
L 203.816585 -123.994159 
L 200.907653 -118.856844 
L 197.998722 -113.866729 
L 195.08979 -109.039472 
L 192.180858 -104.389046 
L 189.271927 -99.927598 
L 186.362995 -95.665353 
L 183.454064 -91.610544 
L 180.545132 -87.769388 
L 177.6362 -84.146087 
L 174.727269 -80.74287 
L 171.818337 -77.560066 
L 168.909405 -74.596201 
L 166.000474 -71.848129 
L 163.091542 -69.311169 
L 160.182611 -66.979276 
L 157.273679 -64.845207 
L 154.364747 -62.900708 
L 151.455816 -61.136691 
L 148.546884 -59.543424 
L 145.637953 -58.110702 
L 142.729021 -56.828021 
L 139.820089 -55.684731 
L 136.911158 -54.670187 
L 134.002226 -53.773872 
L 131.093295 -52.985517 
L 128.184363 -52.295192 
L 125.275431 -51.693392 
L 122.3665 -51.171096 
L 119.457568 -50.719817 
L 116.548637 -50.331636 
L 113.639705 -49.999216 
L 110.730773 -49.715819 
L 107.821842 -49.475291 
L 104.91291 -49.27206 
L 102.003978 -49.101109 
L 99.095047 -48.957953 
L 96.186115 -48.83861 
L 93.277184 -48.739562 
z
" style="stroke: #2ecc71"/>
    </defs>
    <g clip-path="url(#pccf4d18d5a)">
     <use xlink:href="#mc6cc0e6811" x="0" y="420.48" style="fill: #2ecc71; fill-opacity: 0.3; stroke: #2ecc71"/>
    </g>
   </g>
   <g id="PolyCollection_2">
    <defs>
     <path id="m3dd2487065" d="M 89.646051 -50.473183 
L 89.646051 -48.3125 
L 91.803461 -48.3125 
L 93.960871 -48.3125 
L 96.118281 -48.3125 
L 98.275691 -48.3125 
L 100.433102 -48.3125 
L 102.590512 -48.3125 
L 104.747922 -48.3125 
L 106.905332 -48.3125 
L 109.062742 -48.3125 
L 111.220152 -48.3125 
L 113.377562 -48.3125 
L 115.534972 -48.3125 
L 117.692382 -48.3125 
L 119.849792 -48.3125 
L 122.007202 -48.3125 
L 124.164612 -48.3125 
L 126.322023 -48.3125 
L 128.479433 -48.3125 
L 130.636843 -48.3125 
L 132.794253 -48.3125 
L 134.951663 -48.3125 
L 137.109073 -48.3125 
L 139.266483 -48.3125 
L 141.423893 -48.3125 
L 143.581303 -48.3125 
L 145.738713 -48.3125 
L 147.896123 -48.3125 
L 150.053533 -48.3125 
L 152.210944 -48.3125 
L 154.368354 -48.3125 
L 156.525764 -48.3125 
L 158.683174 -48.3125 
L 160.840584 -48.3125 
L 162.997994 -48.3125 
L 165.155404 -48.3125 
L 167.312814 -48.3125 
L 169.470224 -48.3125 
L 171.627634 -48.3125 
L 173.785044 -48.3125 
L 175.942454 -48.3125 
L 178.099865 -48.3125 
L 180.257275 -48.3125 
L 182.414685 -48.3125 
L 184.572095 -48.3125 
L 186.729505 -48.3125 
L 188.886915 -48.3125 
L 191.044325 -48.3125 
L 193.201735 -48.3125 
L 195.359145 -48.3125 
L 197.516555 -48.3125 
L 199.673965 -48.3125 
L 201.831375 -48.3125 
L 203.988786 -48.3125 
L 206.146196 -48.3125 
L 208.303606 -48.3125 
L 210.461016 -48.3125 
L 212.618426 -48.3125 
L 214.775836 -48.3125 
L 216.933246 -48.3125 
L 219.090656 -48.3125 
L 221.248066 -48.3125 
L 223.405476 -48.3125 
L 225.562886 -48.3125 
L 227.720296 -48.3125 
L 229.877707 -48.3125 
L 232.035117 -48.3125 
L 234.192527 -48.3125 
L 236.349937 -48.3125 
L 238.507347 -48.3125 
L 240.664757 -48.3125 
L 242.822167 -48.3125 
L 244.979577 -48.3125 
L 247.136987 -48.3125 
L 249.294397 -48.3125 
L 251.451807 -48.3125 
L 253.609217 -48.3125 
L 255.766627 -48.3125 
L 257.924038 -48.3125 
L 260.081448 -48.3125 
L 262.238858 -48.3125 
L 264.396268 -48.3125 
L 266.553678 -48.3125 
L 268.711088 -48.3125 
L 270.868498 -48.3125 
L 273.025908 -48.3125 
L 275.183318 -48.3125 
L 277.340728 -48.3125 
L 279.498138 -48.3125 
L 281.655548 -48.3125 
L 283.812959 -48.3125 
L 285.970369 -48.3125 
L 288.127779 -48.3125 
L 290.285189 -48.3125 
L 292.442599 -48.3125 
L 294.600009 -48.3125 
L 296.757419 -48.3125 
L 298.914829 -48.3125 
L 301.072239 -48.3125 
L 303.229649 -48.3125 
L 305.387059 -48.3125 
L 307.544469 -48.3125 
L 309.70188 -48.3125 
L 311.85929 -48.3125 
L 314.0167 -48.3125 
L 316.17411 -48.3125 
L 318.33152 -48.3125 
L 320.48893 -48.3125 
L 322.64634 -48.3125 
L 324.80375 -48.3125 
L 326.96116 -48.3125 
L 329.11857 -48.3125 
L 331.27598 -48.3125 
L 333.43339 -48.3125 
L 335.590801 -48.3125 
L 337.748211 -48.3125 
L 339.905621 -48.3125 
L 342.063031 -48.3125 
L 344.220441 -48.3125 
L 346.377851 -48.3125 
L 348.535261 -48.3125 
L 350.692671 -48.3125 
L 352.850081 -48.3125 
L 355.007491 -48.3125 
L 357.164901 -48.3125 
L 359.322311 -48.3125 
L 361.479722 -48.3125 
L 363.637132 -48.3125 
L 365.794542 -48.3125 
L 367.951952 -48.3125 
L 370.109362 -48.3125 
L 372.266772 -48.3125 
L 374.424182 -48.3125 
L 376.581592 -48.3125 
L 378.739002 -48.3125 
L 380.896412 -48.3125 
L 383.053822 -48.3125 
L 385.211232 -48.3125 
L 387.368643 -48.3125 
L 389.526053 -48.3125 
L 391.683463 -48.3125 
L 393.840873 -48.3125 
L 395.998283 -48.3125 
L 398.155693 -48.3125 
L 400.313103 -48.3125 
L 402.470513 -48.3125 
L 404.627923 -48.3125 
L 406.785333 -48.3125 
L 408.942743 -48.3125 
L 411.100153 -48.3125 
L 413.257564 -48.3125 
L 415.414974 -48.3125 
L 417.572384 -48.3125 
L 419.729794 -48.3125 
L 421.887204 -48.3125 
L 424.044614 -48.3125 
L 426.202024 -48.3125 
L 428.359434 -48.3125 
L 430.516844 -48.3125 
L 432.674254 -48.3125 
L 434.831664 -48.3125 
L 436.989074 -48.3125 
L 439.146485 -48.3125 
L 441.303895 -48.3125 
L 443.461305 -48.3125 
L 445.618715 -48.3125 
L 447.776125 -48.3125 
L 449.933535 -48.3125 
L 452.090945 -48.3125 
L 454.248355 -48.3125 
L 456.405765 -48.3125 
L 458.563175 -48.3125 
L 460.720585 -48.3125 
L 462.877995 -48.3125 
L 465.035406 -48.3125 
L 467.192816 -48.3125 
L 469.350226 -48.3125 
L 471.507636 -48.3125 
L 473.665046 -48.3125 
L 475.822456 -48.3125 
L 477.979866 -48.3125 
L 480.137276 -48.3125 
L 482.294686 -48.3125 
L 484.452096 -48.3125 
L 486.609506 -48.3125 
L 488.766916 -48.3125 
L 490.924326 -48.3125 
L 493.081737 -48.3125 
L 495.239147 -48.3125 
L 497.396557 -48.3125 
L 499.553967 -48.3125 
L 501.711377 -48.3125 
L 503.868787 -48.3125 
L 506.026197 -48.3125 
L 508.183607 -48.3125 
L 510.341017 -48.3125 
L 512.498427 -48.3125 
L 514.655837 -48.3125 
L 516.813247 -48.3125 
L 518.970658 -48.3125 
L 518.970658 -49.548068 
L 518.970658 -49.548068 
L 516.813247 -49.722747 
L 514.655837 -49.918952 
L 512.498427 -50.138852 
L 510.341017 -50.384765 
L 508.183607 -50.659162 
L 506.026197 -50.964661 
L 503.868787 -51.304032 
L 501.711377 -51.680189 
L 499.553967 -52.096183 
L 497.396557 -52.555198 
L 495.239147 -53.060538 
L 493.081737 -53.615617 
L 490.924326 -54.223938 
L 488.766916 -54.889081 
L 486.609506 -55.61468 
L 484.452096 -56.404397 
L 482.294686 -57.261899 
L 480.137276 -58.190825 
L 477.979866 -59.194755 
L 475.822456 -60.277176 
L 473.665046 -61.441443 
L 471.507636 -62.690739 
L 469.350226 -64.028035 
L 467.192816 -65.456044 
L 465.035406 -66.977178 
L 462.877995 -68.593502 
L 460.720585 -70.306689 
L 458.563175 -72.117972 
L 456.405765 -74.028105 
L 454.248355 -76.037313 
L 452.090945 -78.145259 
L 449.933535 -80.350999 
L 447.776125 -82.652957 
L 445.618715 -85.048889 
L 443.461305 -87.535864 
L 441.303895 -90.110243 
L 439.146485 -92.767672 
L 436.989074 -95.503079 
L 434.831664 -98.310675 
L 432.674254 -101.183972 
L 430.516844 -104.115805 
L 428.359434 -107.098363 
L 426.202024 -110.123233 
L 424.044614 -113.181451 
L 421.887204 -116.263565 
L 419.729794 -119.359705 
L 417.572384 -122.459663 
L 415.414974 -125.552989 
L 413.257564 -128.629081 
L 411.100153 -131.677295 
L 408.942743 -134.68706 
L 406.785333 -137.64799 
L 404.627923 -140.550011 
L 402.470513 -143.383485 
L 400.313103 -146.139335 
L 398.155693 -148.809176 
L 395.998283 -151.38544 
L 393.840873 -153.861493 
L 391.683463 -156.231761 
L 389.526053 -158.491833 
L 387.368643 -160.63857 
L 385.211232 -162.670191 
L 383.053822 -164.58636 
L 380.896412 -166.388248 
L 378.739002 -168.07859 
L 376.581592 -169.661719 
L 374.424182 -171.143587 
L 372.266772 -172.531768 
L 370.109362 -173.835436 
L 367.951952 -175.065335 
L 365.794542 -176.233715 
L 363.637132 -177.354262 
L 361.479722 -178.441998 
L 359.322311 -179.513166 
L 357.164901 -180.585095 
L 355.007491 -181.676049 
L 352.850081 -182.805056 
L 350.692671 -183.991724 
L 348.535261 -185.25604 
L 346.377851 -186.618163 
L 344.220441 -188.098199 
L 342.063031 -189.715976 
L 339.905621 -191.490804 
L 337.748211 -193.441243 
L 335.590801 -195.584863 
L 333.43339 -197.938005 
L 331.27598 -200.515553 
L 329.11857 -203.330709 
L 326.96116 -206.394782 
L 324.80375 -209.716982 
L 322.64634 -213.304243 
L 320.48893 -217.161049 
L 318.33152 -221.289292 
L 316.17411 -225.68815 
L 314.0167 -230.353984 
L 311.85929 -235.280269 
L 309.70188 -240.457547 
L 307.544469 -245.873416 
L 305.387059 -251.51254 
L 303.229649 -257.3567 
L 301.072239 -263.384866 
L 298.914829 -269.573307 
L 296.757419 -275.895728 
L 294.600009 -282.323437 
L 292.442599 -288.825542 
L 290.285189 -295.369169 
L 288.127779 -301.919716 
L 285.970369 -308.441114 
L 283.812959 -314.896124 
L 281.655548 -321.246638 
L 279.498138 -327.454002 
L 277.340728 -333.479346 
L 275.183318 -339.283921 
L 273.025908 -344.829442 
L 270.868498 -350.078427 
L 268.711088 -354.994537 
L 266.553678 -359.5429 
L 264.396268 -363.690432 
L 262.238858 -367.406134 
L 260.081448 -370.661382 
L 257.924038 -373.430182 
L 255.766627 -375.689406 
L 253.609217 -377.419004 
L 251.451807 -378.602177 
L 249.294397 -379.225527 
L 247.136987 -379.279167 
L 244.979577 -378.756799 
L 242.822167 -377.655756 
L 240.664757 -375.97701 
L 238.507347 -373.725138 
L 236.349937 -370.908265 
L 234.192527 -367.53796 
L 232.035117 -363.629109 
L 229.877707 -359.199756 
L 227.720296 -354.270911 
L 225.562886 -348.866339 
L 223.405476 -343.012323 
L 221.248066 -336.737408 
L 219.090656 -330.072131 
L 216.933246 -323.048732 
L 214.775836 -315.700865 
L 212.618426 -308.063297 
L 210.461016 -300.171603 
L 208.303606 -292.061872 
L 206.146196 -283.770408 
L 203.988786 -275.33344 
L 201.831375 -266.786849 
L 199.673965 -258.165905 
L 197.516555 -249.505014 
L 195.359145 -240.837495 
L 193.201735 -232.195366 
L 191.044325 -223.609159 
L 188.886915 -215.107752 
L 186.729505 -206.718226 
L 184.572095 -198.46575 
L 182.414685 -190.373485 
L 180.257275 -182.46251 
L 178.099865 -174.75178 
L 175.942454 -167.258096 
L 173.785044 -159.996104 
L 171.627634 -152.978313 
L 169.470224 -146.215126 
L 167.312814 -139.7149 
L 165.155404 -133.484009 
L 162.997994 -127.526928 
L 160.840584 -121.846329 
L 158.683174 -116.443187 
L 156.525764 -111.316887 
L 154.368354 -106.465352 
L 152.210944 -101.885161 
L 150.053533 -97.571677 
L 147.896123 -93.519178 
L 145.738713 -89.720984 
L 143.581303 -86.169582 
L 141.423893 -82.856753 
L 139.266483 -79.773688 
L 137.109073 -76.911106 
L 134.951663 -74.259362 
L 132.794253 -71.808549 
L 130.636843 -69.548594 
L 128.479433 -67.469349 
L 126.322023 -65.560666 
L 124.164612 -63.812474 
L 122.007202 -62.214844 
L 119.849792 -60.758044 
L 117.692382 -59.432592 
L 115.534972 -58.229293 
L 113.377562 -57.139281 
L 111.220152 -56.154042 
L 109.062742 -55.265439 
L 106.905332 -54.465728 
L 104.747922 -53.747569 
L 102.590512 -53.104031 
L 100.433102 -52.528597 
L 98.275691 -52.015159 
L 96.118281 -51.558015 
L 93.960871 -51.151856 
L 91.803461 -50.791762 
L 89.646051 -50.473183 
z
" style="stroke: #e74c3c"/>
    </defs>
    <g clip-path="url(#pccf4d18d5a)">
     <use xlink:href="#m3dd2487065" x="0" y="420.48" style="fill: #e74c3c; fill-opacity: 0.3; stroke: #e74c3c"/>
    </g>
   </g>
   <g id="patch_3">
    <path d="M 60.520625 372.1675 
L 60.520625 24.6525 
" style="fill: none; stroke: #cccccc; stroke-width: 1.5; stroke-linejoin: miter; stroke-linecap: square"/>
   </g>
   <g id="patch_4">
    <path d="M 60.520625 372.1675 
L 701.28 372.1675 
" style="fill: none; stroke: #cccccc; stroke-width: 1.5; stroke-linejoin: miter; stroke-linecap: square"/>
   </g>
   <g id="text_17">
    <!-- Distribution of Absolute Errors -->
    <g style="fill: #262626" transform="translate(275.080312 18.6525) scale(0.16 -0.16)">
     <defs>
      <path id="ArialMT-62" d="M 941 0 
L 419 0 
L 419 4581 
L 981 4581 
L 981 2947 
Q 1338 3394 1891 3394 
Q 2197 3394 2470 3270 
Q 2744 3147 2920 2923 
Q 3097 2700 3197 2384 
Q 3297 2069 3297 1709 
Q 3297 856 2875 390 
Q 2453 -75 1863 -75 
Q 1275 -75 941 416 
L 941 0 
z
M 934 1684 
Q 934 1088 1097 822 
Q 1363 388 1816 388 
Q 2184 388 2453 708 
Q 2722 1028 2722 1663 
Q 2722 2313 2464 2622 
Q 2206 2931 1841 2931 
Q 1472 2931 1203 2611 
Q 934 2291 934 1684 
z
" transform="scale(0.015625)"/>
      <path id="ArialMT-75" d="M 2597 0 
L 2597 488 
Q 2209 -75 1544 -75 
Q 1250 -75 995 37 
Q 741 150 617 320 
Q 494 491 444 738 
Q 409 903 409 1263 
L 409 3319 
L 972 3319 
L 972 1478 
Q 972 1038 1006 884 
Q 1059 663 1231 536 
Q 1403 409 1656 409 
Q 1909 409 2131 539 
Q 2353 669 2445 892 
Q 2538 1116 2538 1541 
L 2538 3319 
L 3100 3319 
L 3100 0 
L 2597 0 
z
" transform="scale(0.015625)"/>
      <path id="ArialMT-66" d="M 556 0 
L 556 2881 
L 59 2881 
L 59 3319 
L 556 3319 
L 556 3672 
Q 556 4006 616 4169 
Q 697 4388 901 4523 
Q 1106 4659 1475 4659 
Q 1713 4659 2000 4603 
L 1916 4113 
Q 1741 4144 1584 4144 
Q 1328 4144 1222 4034 
Q 1116 3925 1116 3625 
L 1116 3319 
L 1763 3319 
L 1763 2881 
L 1116 2881 
L 1116 0 
L 556 0 
z
" transform="scale(0.015625)"/>
      <path id="ArialMT-41" d="M -9 0 
L 1750 4581 
L 2403 4581 
L 4278 0 
L 3588 0 
L 3053 1388 
L 1138 1388 
L 634 0 
L -9 0 
z
M 1313 1881 
L 2866 1881 
L 2388 3150 
Q 2169 3728 2063 4100 
Q 1975 3659 1816 3225 
L 1313 1881 
z
" transform="scale(0.015625)"/>
      <path id="ArialMT-6c" d="M 409 0 
L 409 4581 
L 972 4581 
L 972 0 
L 409 0 
z
" transform="scale(0.015625)"/>
     </defs>
     <use xlink:href="#ArialMT-44"/>
     <use xlink:href="#ArialMT-69" x="72.216797"/>
     <use xlink:href="#ArialMT-73" x="94.433594"/>
     <use xlink:href="#ArialMT-74" x="144.433594"/>
     <use xlink:href="#ArialMT-72" x="172.216797"/>
     <use xlink:href="#ArialMT-69" x="205.517578"/>
     <use xlink:href="#ArialMT-62" x="227.734375"/>
     <use xlink:href="#ArialMT-75" x="283.349609"/>
     <use xlink:href="#ArialMT-74" x="338.964844"/>
     <use xlink:href="#ArialMT-69" x="366.748047"/>
     <use xlink:href="#ArialMT-6f" x="388.964844"/>
     <use xlink:href="#ArialMT-6e" x="444.580078"/>
     <use xlink:href="#ArialMT-20" x="500.195312"/>
     <use xlink:href="#ArialMT-6f" x="527.978516"/>
     <use xlink:href="#ArialMT-66" x="583.59375"/>
     <use xlink:href="#ArialMT-20" x="611.376953"/>
     <use xlink:href="#ArialMT-41" x="633.660156"/>
     <use xlink:href="#ArialMT-62" x="700.359375"/>
     <use xlink:href="#ArialMT-73" x="755.974609"/>
     <use xlink:href="#ArialMT-6f" x="805.974609"/>
     <use xlink:href="#ArialMT-6c" x="861.589844"/>
     <use xlink:href="#ArialMT-75" x="883.806641"/>
     <use xlink:href="#ArialMT-74" x="939.421875"/>
     <use xlink:href="#ArialMT-65" x="967.205078"/>
     <use xlink:href="#ArialMT-20" x="1022.820312"/>
     <use xlink:href="#ArialMT-45" x="1050.603516"/>
     <use xlink:href="#ArialMT-72" x="1117.302734"/>
     <use xlink:href="#ArialMT-72" x="1150.603516"/>
     <use xlink:href="#ArialMT-6f" x="1183.904297"/>
     <use xlink:href="#ArialMT-72" x="1239.519531"/>
     <use xlink:href="#ArialMT-73" x="1272.820312"/>
    </g>
   </g>
   <g id="legend_1">
    <g id="patch_5">
     <path d="M 497.20125 68.775 
L 692.88 68.775 
Q 695.28 68.775 695.28 66.375 
L 695.28 33.0525 
Q 695.28 30.6525 692.88 30.6525 
L 497.20125 30.6525 
Q 494.80125 30.6525 494.80125 33.0525 
L 494.80125 66.375 
Q 494.80125 68.775 497.20125 68.775 
z
" style="fill: #ffffff; opacity: 0.8; stroke: #cccccc; stroke-linejoin: miter"/>
    </g>
    <g id="patch_6">
     <path d="M 499.60125 44.188125 
L 523.60125 44.188125 
L 523.60125 35.788125 
L 499.60125 35.788125 
z
" style="fill: #2ecc71; fill-opacity: 0.3; stroke: #2ecc71; stroke-linejoin: miter"/>
    </g>
    <g id="text_18">
     <!-- Training (μ=2.28%, σ=1.53%) -->
     <g style="fill: #262626" transform="translate(533.20125 44.188125) scale(0.12 -0.12)">
      <defs>
       <path id="ArialMT-54" d="M 1659 0 
L 1659 4041 
L 150 4041 
L 150 4581 
L 3781 4581 
L 3781 4041 
L 2266 4041 
L 2266 0 
L 1659 0 
z
" transform="scale(0.015625)"/>
       <path id="ArialMT-61" d="M 2588 409 
Q 2275 144 1986 34 
Q 1697 -75 1366 -75 
Q 819 -75 525 192 
Q 231 459 231 875 
Q 231 1119 342 1320 
Q 453 1522 633 1644 
Q 813 1766 1038 1828 
Q 1203 1872 1538 1913 
Q 2219 1994 2541 2106 
Q 2544 2222 2544 2253 
Q 2544 2597 2384 2738 
Q 2169 2928 1744 2928 
Q 1347 2928 1158 2789 
Q 969 2650 878 2297 
L 328 2372 
Q 403 2725 575 2942 
Q 747 3159 1072 3276 
Q 1397 3394 1825 3394 
Q 2250 3394 2515 3294 
Q 2781 3194 2906 3042 
Q 3031 2891 3081 2659 
Q 3109 2516 3109 2141 
L 3109 1391 
Q 3109 606 3145 398 
Q 3181 191 3288 0 
L 2700 0 
Q 2613 175 2588 409 
z
M 2541 1666 
Q 2234 1541 1622 1453 
Q 1275 1403 1131 1340 
Q 988 1278 909 1158 
Q 831 1038 831 891 
Q 831 666 1001 516 
Q 1172 366 1500 366 
Q 1825 366 2078 508 
Q 2331 650 2450 897 
Q 2541 1088 2541 1459 
L 2541 1666 
z
" transform="scale(0.015625)"/>
       <path id="ArialMT-67" d="M 319 -275 
L 866 -356 
Q 900 -609 1056 -725 
Q 1266 -881 1628 -881 
Q 2019 -881 2231 -725 
Q 2444 -569 2519 -288 
Q 2563 -116 2559 434 
Q 2191 0 1641 0 
Q 956 0 581 494 
Q 206 988 206 1678 
Q 206 2153 378 2554 
Q 550 2956 876 3175 
Q 1203 3394 1644 3394 
Q 2231 3394 2613 2919 
L 2613 3319 
L 3131 3319 
L 3131 450 
Q 3131 -325 2973 -648 
Q 2816 -972 2473 -1159 
Q 2131 -1347 1631 -1347 
Q 1038 -1347 672 -1080 
Q 306 -813 319 -275 
z
M 784 1719 
Q 784 1066 1043 766 
Q 1303 466 1694 466 
Q 2081 466 2343 764 
Q 2606 1063 2606 1700 
Q 2606 2309 2336 2618 
Q 2066 2928 1684 2928 
Q 1309 2928 1046 2623 
Q 784 2319 784 1719 
z
" transform="scale(0.015625)"/>
       <path id="ArialMT-3bc" d="M 3181 3319 
L 3181 0 
L 2678 0 
L 2678 394 
Q 2516 144 2356 50 
Q 2138 -78 1847 -78 
Q 1588 -78 1388 25 
Q 1238 103 1056 334 
L 1056 -1272 
L 500 -1272 
L 500 3319 
L 1056 3319 
L 1056 1913 
Q 1056 1147 1137 920 
Q 1219 694 1401 562 
Q 1584 431 1822 431 
Q 2072 431 2269 568 
Q 2466 706 2547 923 
Q 2628 1141 2628 1903 
L 2628 3319 
L 3181 3319 
z
" transform="scale(0.015625)"/>
       <path id="ArialMT-3d" d="M 3381 2694 
L 356 2694 
L 356 3219 
L 3381 3219 
L 3381 2694 
z
M 3381 1303 
L 356 1303 
L 356 1828 
L 3381 1828 
L 3381 1303 
z
" transform="scale(0.015625)"/>
       <path id="ArialMT-2c" d="M 569 0 
L 569 641 
L 1209 641 
L 1209 0 
Q 1209 -353 1084 -570 
Q 959 -788 688 -906 
L 531 -666 
Q 709 -588 793 -436 
Q 878 -284 888 0 
L 569 0 
z
" transform="scale(0.015625)"/>
       <path id="ArialMT-3c3" d="M 3809 3319 
L 3809 2863 
L 2906 2863 
Q 3322 2475 3322 1656 
Q 3322 766 2867 345 
Q 2413 -75 1763 -75 
Q 1088 -75 650 362 
Q 213 800 213 1659 
Q 213 2544 667 2969 
Q 1122 3394 1763 3394 
Q 1997 3394 2294 3319 
L 3809 3319 
z
M 1753 2928 
Q 1344 2928 1067 2609 
Q 791 2291 791 1656 
Q 791 1025 1061 706 
Q 1331 388 1763 388 
Q 2216 388 2483 720 
Q 2750 1053 2750 1659 
Q 2750 2213 2504 2570 
Q 2259 2928 1753 2928 
z
" transform="scale(0.015625)"/>
      </defs>
      <use xlink:href="#ArialMT-54"/>
      <use xlink:href="#ArialMT-72" x="57.333984"/>
      <use xlink:href="#ArialMT-61" x="90.634766"/>
      <use xlink:href="#ArialMT-69" x="146.25"/>
      <use xlink:href="#ArialMT-6e" x="168.466797"/>
      <use xlink:href="#ArialMT-69" x="224.082031"/>
      <use xlink:href="#ArialMT-6e" x="246.298828"/>
      <use xlink:href="#ArialMT-67" x="301.914062"/>
      <use xlink:href="#ArialMT-20" x="357.529297"/>
      <use xlink:href="#ArialMT-28" x="385.3125"/>
      <use xlink:href="#ArialMT-3bc" x="418.613281"/>
      <use xlink:href="#ArialMT-3d" x="476.230469"/>
      <use xlink:href="#ArialMT-32" x="534.628906"/>
      <use xlink:href="#ArialMT-2e" x="590.244141"/>
      <use xlink:href="#ArialMT-32" x="618.027344"/>
      <use xlink:href="#ArialMT-38" x="673.642578"/>
      <use xlink:href="#ArialMT-25" x="729.257812"/>
      <use xlink:href="#ArialMT-2c" x="818.173828"/>
      <use xlink:href="#ArialMT-20" x="845.957031"/>
      <use xlink:href="#ArialMT-3c3" x="873.740234"/>
      <use xlink:href="#ArialMT-3d" x="935.458984"/>
      <use xlink:href="#ArialMT-31" x="993.857422"/>
      <use xlink:href="#ArialMT-2e" x="1049.472656"/>
      <use xlink:href="#ArialMT-35" x="1077.255859"/>
      <use xlink:href="#ArialMT-33" x="1132.871094"/>
      <use xlink:href="#ArialMT-25" x="1188.486328"/>
      <use xlink:href="#ArialMT-29" x="1277.402344"/>
     </g>
    </g>
    <g id="patch_7">
     <path d="M 499.60125 61.449375 
L 523.60125 61.449375 
L 523.60125 53.049375 
L 499.60125 53.049375 
z
" style="fill: #e74c3c; fill-opacity: 0.3; stroke: #e74c3c; stroke-linejoin: miter"/>
    </g>
    <g id="text_19">
     <!-- Testing (μ=0.95%, σ=1.09%) -->
     <g style="fill: #262626" transform="translate(533.20125 61.449375) scale(0.12 -0.12)">
      <defs>
       <path id="ArialMT-39" d="M 350 1059 
L 891 1109 
Q 959 728 1153 556 
Q 1347 384 1650 384 
Q 1909 384 2104 503 
Q 2300 622 2425 820 
Q 2550 1019 2634 1356 
Q 2719 1694 2719 2044 
Q 2719 2081 2716 2156 
Q 2547 1888 2255 1720 
Q 1963 1553 1622 1553 
Q 1053 1553 659 1965 
Q 266 2378 266 3053 
Q 266 3750 677 4175 
Q 1088 4600 1706 4600 
Q 2153 4600 2523 4359 
Q 2894 4119 3086 3673 
Q 3278 3228 3278 2384 
Q 3278 1506 3087 986 
Q 2897 466 2520 194 
Q 2144 -78 1638 -78 
Q 1100 -78 759 220 
Q 419 519 350 1059 
z
M 2653 3081 
Q 2653 3566 2395 3850 
Q 2138 4134 1775 4134 
Q 1400 4134 1122 3828 
Q 844 3522 844 3034 
Q 844 2597 1108 2323 
Q 1372 2050 1759 2050 
Q 2150 2050 2401 2323 
Q 2653 2597 2653 3081 
z
" transform="scale(0.015625)"/>
      </defs>
      <use xlink:href="#ArialMT-54"/>
      <use xlink:href="#ArialMT-65" x="49.958984"/>
      <use xlink:href="#ArialMT-73" x="105.574219"/>
      <use xlink:href="#ArialMT-74" x="155.574219"/>
      <use xlink:href="#ArialMT-69" x="183.357422"/>
      <use xlink:href="#ArialMT-6e" x="205.574219"/>
      <use xlink:href="#ArialMT-67" x="261.189453"/>
      <use xlink:href="#ArialMT-20" x="316.804688"/>
      <use xlink:href="#ArialMT-28" x="344.587891"/>
      <use xlink:href="#ArialMT-3bc" x="377.888672"/>
      <use xlink:href="#ArialMT-3d" x="435.505859"/>
      <use xlink:href="#ArialMT-30" x="493.904297"/>
      <use xlink:href="#ArialMT-2e" x="549.519531"/>
      <use xlink:href="#ArialMT-39" x="577.302734"/>
      <use xlink:href="#ArialMT-35" x="632.917969"/>
      <use xlink:href="#ArialMT-25" x="688.533203"/>
      <use xlink:href="#ArialMT-2c" x="777.449219"/>
      <use xlink:href="#ArialMT-20" x="805.232422"/>
      <use xlink:href="#ArialMT-3c3" x="833.015625"/>
      <use xlink:href="#ArialMT-3d" x="894.734375"/>
      <use xlink:href="#ArialMT-31" x="953.132812"/>
      <use xlink:href="#ArialMT-2e" x="1008.748047"/>
      <use xlink:href="#ArialMT-30" x="1036.53125"/>
      <use xlink:href="#ArialMT-39" x="1092.146484"/>
      <use xlink:href="#ArialMT-25" x="1147.761719"/>
      <use xlink:href="#ArialMT-29" x="1236.677734"/>
     </g>
    </g>
   </g>
  </g>
 </g>
 <defs>
  <clipPath id="pccf4d18d5a">
   <rect x="60.520625" y="24.6525" width="640.759375" height="347.515"/>
  </clipPath>
 </defs>
</svg>
