<?xml version="1.0" encoding="utf-8" standalone="no"?>
<!DOCTYPE svg PUBLIC "-//W3C//DTD SVG 1.1//EN"
  "http://www.w3.org/Graphics/SVG/1.1/DTD/svg11.dtd">
<svg xmlns:xlink="http://www.w3.org/1999/xlink" width="708.48pt" height="420.48pt" viewBox="0 0 708.48 420.48" xmlns="http://www.w3.org/2000/svg" version="1.1">
 <metadata>
  <rdf:RDF xmlns:dc="http://purl.org/dc/elements/1.1/" xmlns:cc="http://creativecommons.org/ns#" xmlns:rdf="http://www.w3.org/1999/02/22-rdf-syntax-ns#">
   <cc:Work>
    <dc:type rdf:resource="http://purl.org/dc/dcmitype/StillImage"/>
    <dc:date>2025-01-07T20:23:11.075627</dc:date>
    <dc:format>image/svg+xml</dc:format>
    <dc:creator>
     <cc:Agent>
      <dc:title>Matplotlib v3.9.3, https://matplotlib.org/</dc:title>
     </cc:Agent>
    </dc:creator>
   </cc:Work>
  </rdf:RDF>
 </metadata>
 <defs>
  <style type="text/css">*{stroke-linejoin: round; stroke-linecap: butt}</style>
 </defs>
 <g id="figure_1">
  <g id="patch_1">
   <path d="M 0 420.48 
L 708.48 420.48 
L 708.48 -0 
L 0 -0 
z
" style="fill: #ffffff"/>
  </g>
  <g id="axes_1">
   <g id="patch_2">
    <path d="M 60.520625 372.1675 
L 701.28 372.1675 
L 701.28 24.6525 
L 60.520625 24.6525 
z
" style="fill: #ffffff"/>
   </g>
   <g id="matplotlib.axis_1">
    <g id="xtick_1">
     <g id="line2d_1">
      <path d="M 136.960748 372.1675 
L 136.960748 24.6525 
" clip-path="url(#p2c15784963)" style="fill: none; stroke: #cccccc; stroke-opacity: 0.3; stroke-width: 0.5; stroke-linecap: round"/>
     </g>
     <g id="text_1">
      <!-- −2 -->
      <g style="fill: #262626" transform="translate(130.119811 387.756875) scale(0.12 -0.12)">
       <defs>
        <path id="ArialMT-2212" d="M 3381 1997 
L 356 1997 
L 356 2522 
L 3381 2522 
L 3381 1997 
z
" transform="scale(0.015625)"/>
        <path id="ArialMT-32" d="M 3222 541 
L 3222 0 
L 194 0 
Q 188 203 259 391 
Q 375 700 629 1000 
Q 884 1300 1366 1694 
Q 2113 2306 2375 2664 
Q 2638 3022 2638 3341 
Q 2638 3675 2398 3904 
Q 2159 4134 1775 4134 
Q 1369 4134 1125 3890 
Q 881 3647 878 3216 
L 300 3275 
Q 359 3922 746 4261 
Q 1134 4600 1788 4600 
Q 2447 4600 2831 4234 
Q 3216 3869 3216 3328 
Q 3216 3053 3103 2787 
Q 2991 2522 2730 2228 
Q 2469 1934 1863 1422 
Q 1356 997 1212 845 
Q 1069 694 975 541 
L 3222 541 
z
" transform="scale(0.015625)"/>
       </defs>
       <use xlink:href="#ArialMT-2212"/>
       <use xlink:href="#ArialMT-32" x="58.398438"/>
      </g>
     </g>
    </g>
    <g id="xtick_2">
     <g id="line2d_2">
      <path d="M 250.494545 372.1675 
L 250.494545 24.6525 
" clip-path="url(#p2c15784963)" style="fill: none; stroke: #cccccc; stroke-opacity: 0.3; stroke-width: 0.5; stroke-linecap: round"/>
     </g>
     <g id="text_2">
      <!-- 0 -->
      <g style="fill: #262626" transform="translate(247.157982 387.756875) scale(0.12 -0.12)">
       <defs>
        <path id="ArialMT-30" d="M 266 2259 
Q 266 3072 433 3567 
Q 600 4063 929 4331 
Q 1259 4600 1759 4600 
Q 2128 4600 2406 4451 
Q 2684 4303 2865 4023 
Q 3047 3744 3150 3342 
Q 3253 2941 3253 2259 
Q 3253 1453 3087 958 
Q 2922 463 2592 192 
Q 2263 -78 1759 -78 
Q 1097 -78 719 397 
Q 266 969 266 2259 
z
M 844 2259 
Q 844 1131 1108 757 
Q 1372 384 1759 384 
Q 2147 384 2411 759 
Q 2675 1134 2675 2259 
Q 2675 3391 2411 3762 
Q 2147 4134 1753 4134 
Q 1366 4134 1134 3806 
Q 844 3388 844 2259 
z
" transform="scale(0.015625)"/>
       </defs>
       <use xlink:href="#ArialMT-30"/>
      </g>
     </g>
    </g>
    <g id="xtick_3">
     <g id="line2d_3">
      <path d="M 364.028341 372.1675 
L 364.028341 24.6525 
" clip-path="url(#p2c15784963)" style="fill: none; stroke: #cccccc; stroke-opacity: 0.3; stroke-width: 0.5; stroke-linecap: round"/>
     </g>
     <g id="text_3">
      <!-- 2 -->
      <g style="fill: #262626" transform="translate(360.691779 387.756875) scale(0.12 -0.12)">
       <use xlink:href="#ArialMT-32"/>
      </g>
     </g>
    </g>
    <g id="xtick_4">
     <g id="line2d_4">
      <path d="M 477.562137 372.1675 
L 477.562137 24.6525 
" clip-path="url(#p2c15784963)" style="fill: none; stroke: #cccccc; stroke-opacity: 0.3; stroke-width: 0.5; stroke-linecap: round"/>
     </g>
     <g id="text_4">
      <!-- 4 -->
      <g style="fill: #262626" transform="translate(474.225575 387.756875) scale(0.12 -0.12)">
       <defs>
        <path id="ArialMT-34" d="M 2069 0 
L 2069 1097 
L 81 1097 
L 81 1613 
L 2172 4581 
L 2631 4581 
L 2631 1613 
L 3250 1613 
L 3250 1097 
L 2631 1097 
L 2631 0 
L 2069 0 
z
M 2069 1613 
L 2069 3678 
L 634 1613 
L 2069 1613 
z
" transform="scale(0.015625)"/>
       </defs>
       <use xlink:href="#ArialMT-34"/>
      </g>
     </g>
    </g>
    <g id="xtick_5">
     <g id="line2d_5">
      <path d="M 591.095934 372.1675 
L 591.095934 24.6525 
" clip-path="url(#p2c15784963)" style="fill: none; stroke: #cccccc; stroke-opacity: 0.3; stroke-width: 0.5; stroke-linecap: round"/>
     </g>
     <g id="text_5">
      <!-- 6 -->
      <g style="fill: #262626" transform="translate(587.759371 387.756875) scale(0.12 -0.12)">
       <defs>
        <path id="ArialMT-36" d="M 3184 3459 
L 2625 3416 
Q 2550 3747 2413 3897 
Q 2184 4138 1850 4138 
Q 1581 4138 1378 3988 
Q 1113 3794 959 3422 
Q 806 3050 800 2363 
Q 1003 2672 1297 2822 
Q 1591 2972 1913 2972 
Q 2475 2972 2870 2558 
Q 3266 2144 3266 1488 
Q 3266 1056 3080 686 
Q 2894 316 2569 119 
Q 2244 -78 1831 -78 
Q 1128 -78 684 439 
Q 241 956 241 2144 
Q 241 3472 731 4075 
Q 1159 4600 1884 4600 
Q 2425 4600 2770 4297 
Q 3116 3994 3184 3459 
z
M 888 1484 
Q 888 1194 1011 928 
Q 1134 663 1356 523 
Q 1578 384 1822 384 
Q 2178 384 2434 671 
Q 2691 959 2691 1453 
Q 2691 1928 2437 2201 
Q 2184 2475 1800 2475 
Q 1419 2475 1153 2201 
Q 888 1928 888 1484 
z
" transform="scale(0.015625)"/>
       </defs>
       <use xlink:href="#ArialMT-36"/>
      </g>
     </g>
    </g>
    <g id="text_6">
     <!-- Error (%) -->
     <g style="fill: #262626" transform="translate(352.515312 410.333438) scale(0.14 -0.14)">
      <defs>
       <path id="ArialMT-45" d="M 506 0 
L 506 4581 
L 3819 4581 
L 3819 4041 
L 1113 4041 
L 1113 2638 
L 3647 2638 
L 3647 2100 
L 1113 2100 
L 1113 541 
L 3925 541 
L 3925 0 
L 506 0 
z
" transform="scale(0.015625)"/>
       <path id="ArialMT-72" d="M 416 0 
L 416 3319 
L 922 3319 
L 922 2816 
Q 1116 3169 1280 3281 
Q 1444 3394 1641 3394 
Q 1925 3394 2219 3213 
L 2025 2691 
Q 1819 2813 1613 2813 
Q 1428 2813 1281 2702 
Q 1134 2591 1072 2394 
Q 978 2094 978 1738 
L 978 0 
L 416 0 
z
" transform="scale(0.015625)"/>
       <path id="ArialMT-6f" d="M 213 1659 
Q 213 2581 725 3025 
Q 1153 3394 1769 3394 
Q 2453 3394 2887 2945 
Q 3322 2497 3322 1706 
Q 3322 1066 3130 698 
Q 2938 331 2570 128 
Q 2203 -75 1769 -75 
Q 1072 -75 642 372 
Q 213 819 213 1659 
z
M 791 1659 
Q 791 1022 1069 705 
Q 1347 388 1769 388 
Q 2188 388 2466 706 
Q 2744 1025 2744 1678 
Q 2744 2294 2464 2611 
Q 2184 2928 1769 2928 
Q 1347 2928 1069 2612 
Q 791 2297 791 1659 
z
" transform="scale(0.015625)"/>
       <path id="ArialMT-20" transform="scale(0.015625)"/>
       <path id="ArialMT-28" d="M 1497 -1347 
Q 1031 -759 709 28 
Q 388 816 388 1659 
Q 388 2403 628 3084 
Q 909 3875 1497 4659 
L 1900 4659 
Q 1522 4009 1400 3731 
Q 1209 3300 1100 2831 
Q 966 2247 966 1656 
Q 966 153 1900 -1347 
L 1497 -1347 
z
" transform="scale(0.015625)"/>
       <path id="ArialMT-25" d="M 372 3481 
Q 372 3972 619 4315 
Q 866 4659 1334 4659 
Q 1766 4659 2048 4351 
Q 2331 4044 2331 3447 
Q 2331 2866 2045 2552 
Q 1759 2238 1341 2238 
Q 925 2238 648 2547 
Q 372 2856 372 3481 
z
M 1350 4272 
Q 1141 4272 1002 4090 
Q 863 3909 863 3425 
Q 863 2984 1003 2804 
Q 1144 2625 1350 2625 
Q 1563 2625 1702 2806 
Q 1841 2988 1841 3469 
Q 1841 3913 1700 4092 
Q 1559 4272 1350 4272 
z
M 1353 -169 
L 3859 4659 
L 4316 4659 
L 1819 -169 
L 1353 -169 
z
M 3334 1075 
Q 3334 1569 3581 1911 
Q 3828 2253 4300 2253 
Q 4731 2253 5014 1945 
Q 5297 1638 5297 1041 
Q 5297 459 5011 145 
Q 4725 -169 4303 -169 
Q 3888 -169 3611 142 
Q 3334 453 3334 1075 
z
M 4316 1866 
Q 4103 1866 3964 1684 
Q 3825 1503 3825 1019 
Q 3825 581 3965 400 
Q 4106 219 4313 219 
Q 4528 219 4667 400 
Q 4806 581 4806 1063 
Q 4806 1506 4665 1686 
Q 4525 1866 4316 1866 
z
" transform="scale(0.015625)"/>
       <path id="ArialMT-29" d="M 791 -1347 
L 388 -1347 
Q 1322 153 1322 1656 
Q 1322 2244 1188 2822 
Q 1081 3291 891 3722 
Q 769 4003 388 4659 
L 791 4659 
Q 1378 3875 1659 3084 
Q 1900 2403 1900 1659 
Q 1900 816 1576 28 
Q 1253 -759 791 -1347 
z
" transform="scale(0.015625)"/>
      </defs>
      <use xlink:href="#ArialMT-45"/>
      <use xlink:href="#ArialMT-72" x="66.699219"/>
      <use xlink:href="#ArialMT-72" x="100"/>
      <use xlink:href="#ArialMT-6f" x="133.300781"/>
      <use xlink:href="#ArialMT-72" x="188.916016"/>
      <use xlink:href="#ArialMT-20" x="222.216797"/>
      <use xlink:href="#ArialMT-28" x="250"/>
      <use xlink:href="#ArialMT-25" x="283.300781"/>
      <use xlink:href="#ArialMT-29" x="372.216797"/>
     </g>
    </g>
   </g>
   <g id="matplotlib.axis_2">
    <g id="ytick_1">
     <g id="line2d_6">
      <path d="M 60.520625 372.1675 
L 701.28 372.1675 
" clip-path="url(#p2c15784963)" style="fill: none; stroke: #cccccc; stroke-opacity: 0.3; stroke-width: 0.5; stroke-linecap: round"/>
     </g>
     <g id="text_7">
      <!-- 0.00 -->
      <g style="fill: #262626" transform="translate(30.1675 376.462188) scale(0.12 -0.12)">
       <defs>
        <path id="ArialMT-2e" d="M 581 0 
L 581 641 
L 1222 641 
L 1222 0 
L 581 0 
z
" transform="scale(0.015625)"/>
       </defs>
       <use xlink:href="#ArialMT-30"/>
       <use xlink:href="#ArialMT-2e" x="55.615234"/>
       <use xlink:href="#ArialMT-30" x="83.398438"/>
       <use xlink:href="#ArialMT-30" x="139.013672"/>
      </g>
     </g>
    </g>
    <g id="ytick_2">
     <g id="line2d_7">
      <path d="M 60.520625 322.470321 
L 701.28 322.470321 
" clip-path="url(#p2c15784963)" style="fill: none; stroke: #cccccc; stroke-opacity: 0.3; stroke-width: 0.5; stroke-linecap: round"/>
     </g>
     <g id="text_8">
      <!-- 0.05 -->
      <g style="fill: #262626" transform="translate(30.1675 326.765009) scale(0.12 -0.12)">
       <defs>
        <path id="ArialMT-35" d="M 266 1200 
L 856 1250 
Q 922 819 1161 601 
Q 1400 384 1738 384 
Q 2144 384 2425 690 
Q 2706 997 2706 1503 
Q 2706 1984 2436 2262 
Q 2166 2541 1728 2541 
Q 1456 2541 1237 2417 
Q 1019 2294 894 2097 
L 366 2166 
L 809 4519 
L 3088 4519 
L 3088 3981 
L 1259 3981 
L 1013 2750 
Q 1425 3038 1878 3038 
Q 2478 3038 2890 2622 
Q 3303 2206 3303 1553 
Q 3303 931 2941 478 
Q 2500 -78 1738 -78 
Q 1113 -78 717 272 
Q 322 622 266 1200 
z
" transform="scale(0.015625)"/>
       </defs>
       <use xlink:href="#ArialMT-30"/>
       <use xlink:href="#ArialMT-2e" x="55.615234"/>
       <use xlink:href="#ArialMT-30" x="83.398438"/>
       <use xlink:href="#ArialMT-35" x="139.013672"/>
      </g>
     </g>
    </g>
    <g id="ytick_3">
     <g id="line2d_8">
      <path d="M 60.520625 272.773142 
L 701.28 272.773142 
" clip-path="url(#p2c15784963)" style="fill: none; stroke: #cccccc; stroke-opacity: 0.3; stroke-width: 0.5; stroke-linecap: round"/>
     </g>
     <g id="text_9">
      <!-- 0.10 -->
      <g style="fill: #262626" transform="translate(30.1675 277.06783) scale(0.12 -0.12)">
       <defs>
        <path id="ArialMT-31" d="M 2384 0 
L 1822 0 
L 1822 3584 
Q 1619 3391 1289 3197 
Q 959 3003 697 2906 
L 697 3450 
Q 1169 3672 1522 3987 
Q 1875 4303 2022 4600 
L 2384 4600 
L 2384 0 
z
" transform="scale(0.015625)"/>
       </defs>
       <use xlink:href="#ArialMT-30"/>
       <use xlink:href="#ArialMT-2e" x="55.615234"/>
       <use xlink:href="#ArialMT-31" x="83.398438"/>
       <use xlink:href="#ArialMT-30" x="139.013672"/>
      </g>
     </g>
    </g>
    <g id="ytick_4">
     <g id="line2d_9">
      <path d="M 60.520625 223.075963 
L 701.28 223.075963 
" clip-path="url(#p2c15784963)" style="fill: none; stroke: #cccccc; stroke-opacity: 0.3; stroke-width: 0.5; stroke-linecap: round"/>
     </g>
     <g id="text_10">
      <!-- 0.15 -->
      <g style="fill: #262626" transform="translate(30.1675 227.370651) scale(0.12 -0.12)">
       <use xlink:href="#ArialMT-30"/>
       <use xlink:href="#ArialMT-2e" x="55.615234"/>
       <use xlink:href="#ArialMT-31" x="83.398438"/>
       <use xlink:href="#ArialMT-35" x="139.013672"/>
      </g>
     </g>
    </g>
    <g id="ytick_5">
     <g id="line2d_10">
      <path d="M 60.520625 173.378784 
L 701.28 173.378784 
" clip-path="url(#p2c15784963)" style="fill: none; stroke: #cccccc; stroke-opacity: 0.3; stroke-width: 0.5; stroke-linecap: round"/>
     </g>
     <g id="text_11">
      <!-- 0.20 -->
      <g style="fill: #262626" transform="translate(30.1675 177.673472) scale(0.12 -0.12)">
       <use xlink:href="#ArialMT-30"/>
       <use xlink:href="#ArialMT-2e" x="55.615234"/>
       <use xlink:href="#ArialMT-32" x="83.398438"/>
       <use xlink:href="#ArialMT-30" x="139.013672"/>
      </g>
     </g>
    </g>
    <g id="ytick_6">
     <g id="line2d_11">
      <path d="M 60.520625 123.681605 
L 701.28 123.681605 
" clip-path="url(#p2c15784963)" style="fill: none; stroke: #cccccc; stroke-opacity: 0.3; stroke-width: 0.5; stroke-linecap: round"/>
     </g>
     <g id="text_12">
      <!-- 0.25 -->
      <g style="fill: #262626" transform="translate(30.1675 127.976293) scale(0.12 -0.12)">
       <use xlink:href="#ArialMT-30"/>
       <use xlink:href="#ArialMT-2e" x="55.615234"/>
       <use xlink:href="#ArialMT-32" x="83.398438"/>
       <use xlink:href="#ArialMT-35" x="139.013672"/>
      </g>
     </g>
    </g>
    <g id="ytick_7">
     <g id="line2d_12">
      <path d="M 60.520625 73.984426 
L 701.28 73.984426 
" clip-path="url(#p2c15784963)" style="fill: none; stroke: #cccccc; stroke-opacity: 0.3; stroke-width: 0.5; stroke-linecap: round"/>
     </g>
     <g id="text_13">
      <!-- 0.30 -->
      <g style="fill: #262626" transform="translate(30.1675 78.279114) scale(0.12 -0.12)">
       <defs>
        <path id="ArialMT-33" d="M 269 1209 
L 831 1284 
Q 928 806 1161 595 
Q 1394 384 1728 384 
Q 2125 384 2398 659 
Q 2672 934 2672 1341 
Q 2672 1728 2419 1979 
Q 2166 2231 1775 2231 
Q 1616 2231 1378 2169 
L 1441 2663 
Q 1497 2656 1531 2656 
Q 1891 2656 2178 2843 
Q 2466 3031 2466 3422 
Q 2466 3731 2256 3934 
Q 2047 4138 1716 4138 
Q 1388 4138 1169 3931 
Q 950 3725 888 3313 
L 325 3413 
Q 428 3978 793 4289 
Q 1159 4600 1703 4600 
Q 2078 4600 2393 4439 
Q 2709 4278 2876 4000 
Q 3044 3722 3044 3409 
Q 3044 3113 2884 2869 
Q 2725 2625 2413 2481 
Q 2819 2388 3044 2092 
Q 3269 1797 3269 1353 
Q 3269 753 2831 336 
Q 2394 -81 1725 -81 
Q 1122 -81 723 278 
Q 325 638 269 1209 
z
" transform="scale(0.015625)"/>
       </defs>
       <use xlink:href="#ArialMT-30"/>
       <use xlink:href="#ArialMT-2e" x="55.615234"/>
       <use xlink:href="#ArialMT-33" x="83.398438"/>
       <use xlink:href="#ArialMT-30" x="139.013672"/>
      </g>
     </g>
    </g>
    <g id="text_14">
     <!-- Density -->
     <g style="fill: #262626" transform="translate(17.220938 221.750625) rotate(-90) scale(0.14 -0.14)">
      <defs>
       <path id="ArialMT-44" d="M 494 0 
L 494 4581 
L 2072 4581 
Q 2606 4581 2888 4516 
Q 3281 4425 3559 4188 
Q 3922 3881 4101 3404 
Q 4281 2928 4281 2316 
Q 4281 1794 4159 1391 
Q 4038 988 3847 723 
Q 3656 459 3429 307 
Q 3203 156 2883 78 
Q 2563 0 2147 0 
L 494 0 
z
M 1100 541 
L 2078 541 
Q 2531 541 2789 625 
Q 3047 709 3200 863 
Q 3416 1078 3536 1442 
Q 3656 1806 3656 2325 
Q 3656 3044 3420 3430 
Q 3184 3816 2847 3947 
Q 2603 4041 2063 4041 
L 1100 4041 
L 1100 541 
z
" transform="scale(0.015625)"/>
       <path id="ArialMT-65" d="M 2694 1069 
L 3275 997 
Q 3138 488 2766 206 
Q 2394 -75 1816 -75 
Q 1088 -75 661 373 
Q 234 822 234 1631 
Q 234 2469 665 2931 
Q 1097 3394 1784 3394 
Q 2450 3394 2872 2941 
Q 3294 2488 3294 1666 
Q 3294 1616 3291 1516 
L 816 1516 
Q 847 969 1125 678 
Q 1403 388 1819 388 
Q 2128 388 2347 550 
Q 2566 713 2694 1069 
z
M 847 1978 
L 2700 1978 
Q 2663 2397 2488 2606 
Q 2219 2931 1791 2931 
Q 1403 2931 1139 2672 
Q 875 2413 847 1978 
z
" transform="scale(0.015625)"/>
       <path id="ArialMT-6e" d="M 422 0 
L 422 3319 
L 928 3319 
L 928 2847 
Q 1294 3394 1984 3394 
Q 2284 3394 2536 3286 
Q 2788 3178 2913 3003 
Q 3038 2828 3088 2588 
Q 3119 2431 3119 2041 
L 3119 0 
L 2556 0 
L 2556 2019 
Q 2556 2363 2490 2533 
Q 2425 2703 2258 2804 
Q 2091 2906 1866 2906 
Q 1506 2906 1245 2678 
Q 984 2450 984 1813 
L 984 0 
L 422 0 
z
" transform="scale(0.015625)"/>
       <path id="ArialMT-73" d="M 197 991 
L 753 1078 
Q 800 744 1014 566 
Q 1228 388 1613 388 
Q 2000 388 2187 545 
Q 2375 703 2375 916 
Q 2375 1106 2209 1216 
Q 2094 1291 1634 1406 
Q 1016 1563 777 1677 
Q 538 1791 414 1992 
Q 291 2194 291 2438 
Q 291 2659 392 2848 
Q 494 3038 669 3163 
Q 800 3259 1026 3326 
Q 1253 3394 1513 3394 
Q 1903 3394 2198 3281 
Q 2494 3169 2634 2976 
Q 2775 2784 2828 2463 
L 2278 2388 
Q 2241 2644 2061 2787 
Q 1881 2931 1553 2931 
Q 1166 2931 1000 2803 
Q 834 2675 834 2503 
Q 834 2394 903 2306 
Q 972 2216 1119 2156 
Q 1203 2125 1616 2013 
Q 2213 1853 2448 1751 
Q 2684 1650 2818 1456 
Q 2953 1263 2953 975 
Q 2953 694 2789 445 
Q 2625 197 2315 61 
Q 2006 -75 1616 -75 
Q 969 -75 630 194 
Q 291 463 197 991 
z
" transform="scale(0.015625)"/>
       <path id="ArialMT-69" d="M 425 3934 
L 425 4581 
L 988 4581 
L 988 3934 
L 425 3934 
z
M 425 0 
L 425 3319 
L 988 3319 
L 988 0 
L 425 0 
z
" transform="scale(0.015625)"/>
       <path id="ArialMT-74" d="M 1650 503 
L 1731 6 
Q 1494 -44 1306 -44 
Q 1000 -44 831 53 
Q 663 150 594 308 
Q 525 466 525 972 
L 525 2881 
L 113 2881 
L 113 3319 
L 525 3319 
L 525 4141 
L 1084 4478 
L 1084 3319 
L 1650 3319 
L 1650 2881 
L 1084 2881 
L 1084 941 
Q 1084 700 1114 631 
Q 1144 563 1211 522 
Q 1278 481 1403 481 
Q 1497 481 1650 503 
z
" transform="scale(0.015625)"/>
       <path id="ArialMT-79" d="M 397 -1278 
L 334 -750 
Q 519 -800 656 -800 
Q 844 -800 956 -737 
Q 1069 -675 1141 -563 
Q 1194 -478 1313 -144 
Q 1328 -97 1363 -6 
L 103 3319 
L 709 3319 
L 1400 1397 
Q 1534 1031 1641 628 
Q 1738 1016 1872 1384 
L 2581 3319 
L 3144 3319 
L 1881 -56 
Q 1678 -603 1566 -809 
Q 1416 -1088 1222 -1217 
Q 1028 -1347 759 -1347 
Q 597 -1347 397 -1278 
z
" transform="scale(0.015625)"/>
      </defs>
      <use xlink:href="#ArialMT-44"/>
      <use xlink:href="#ArialMT-65" x="72.216797"/>
      <use xlink:href="#ArialMT-6e" x="127.832031"/>
      <use xlink:href="#ArialMT-73" x="183.447266"/>
      <use xlink:href="#ArialMT-69" x="233.447266"/>
      <use xlink:href="#ArialMT-74" x="255.664062"/>
      <use xlink:href="#ArialMT-79" x="283.447266"/>
     </g>
    </g>
   </g>
   <g id="PolyCollection_1">
    <defs>
     <path id="m7bab9003df" d="M 164.611556 -48.943008 
L 164.611556 -48.3125 
L 166.912206 -48.3125 
L 169.212857 -48.3125 
L 171.513507 -48.3125 
L 173.814158 -48.3125 
L 176.114808 -48.3125 
L 178.415459 -48.3125 
L 180.716109 -48.3125 
L 183.01676 -48.3125 
L 185.31741 -48.3125 
L 187.618061 -48.3125 
L 189.918711 -48.3125 
L 192.219362 -48.3125 
L 194.520013 -48.3125 
L 196.820663 -48.3125 
L 199.121314 -48.3125 
L 201.421964 -48.3125 
L 203.722615 -48.3125 
L 206.023265 -48.3125 
L 208.323916 -48.3125 
L 210.624566 -48.3125 
L 212.925217 -48.3125 
L 215.225867 -48.3125 
L 217.526518 -48.3125 
L 219.827168 -48.3125 
L 222.127819 -48.3125 
L 224.42847 -48.3125 
L 226.72912 -48.3125 
L 229.029771 -48.3125 
L 231.330421 -48.3125 
L 233.631072 -48.3125 
L 235.931722 -48.3125 
L 238.232373 -48.3125 
L 240.533023 -48.3125 
L 242.833674 -48.3125 
L 245.134324 -48.3125 
L 247.434975 -48.3125 
L 249.735625 -48.3125 
L 252.036276 -48.3125 
L 254.336926 -48.3125 
L 256.637577 -48.3125 
L 258.938228 -48.3125 
L 261.238878 -48.3125 
L 263.539529 -48.3125 
L 265.840179 -48.3125 
L 268.14083 -48.3125 
L 270.44148 -48.3125 
L 272.742131 -48.3125 
L 275.042781 -48.3125 
L 277.343432 -48.3125 
L 279.644082 -48.3125 
L 281.944733 -48.3125 
L 284.245383 -48.3125 
L 286.546034 -48.3125 
L 288.846685 -48.3125 
L 291.147335 -48.3125 
L 293.447986 -48.3125 
L 295.748636 -48.3125 
L 298.049287 -48.3125 
L 300.349937 -48.3125 
L 302.650588 -48.3125 
L 304.951238 -48.3125 
L 307.251889 -48.3125 
L 309.552539 -48.3125 
L 311.85319 -48.3125 
L 314.15384 -48.3125 
L 316.454491 -48.3125 
L 318.755141 -48.3125 
L 321.055792 -48.3125 
L 323.356443 -48.3125 
L 325.657093 -48.3125 
L 327.957744 -48.3125 
L 330.258394 -48.3125 
L 332.559045 -48.3125 
L 334.859695 -48.3125 
L 337.160346 -48.3125 
L 339.460996 -48.3125 
L 341.761647 -48.3125 
L 344.062297 -48.3125 
L 346.362948 -48.3125 
L 348.663598 -48.3125 
L 350.964249 -48.3125 
L 353.2649 -48.3125 
L 355.56555 -48.3125 
L 357.866201 -48.3125 
L 360.166851 -48.3125 
L 362.467502 -48.3125 
L 364.768152 -48.3125 
L 367.068803 -48.3125 
L 369.369453 -48.3125 
L 371.670104 -48.3125 
L 373.970754 -48.3125 
L 376.271405 -48.3125 
L 378.572055 -48.3125 
L 380.872706 -48.3125 
L 383.173357 -48.3125 
L 385.474007 -48.3125 
L 387.774658 -48.3125 
L 390.075308 -48.3125 
L 392.375959 -48.3125 
L 394.676609 -48.3125 
L 396.97726 -48.3125 
L 399.27791 -48.3125 
L 401.578561 -48.3125 
L 403.879211 -48.3125 
L 406.179862 -48.3125 
L 408.480512 -48.3125 
L 410.781163 -48.3125 
L 413.081813 -48.3125 
L 415.382464 -48.3125 
L 417.683115 -48.3125 
L 419.983765 -48.3125 
L 422.284416 -48.3125 
L 424.585066 -48.3125 
L 426.885717 -48.3125 
L 429.186367 -48.3125 
L 431.487018 -48.3125 
L 433.787668 -48.3125 
L 436.088319 -48.3125 
L 438.388969 -48.3125 
L 440.68962 -48.3125 
L 442.99027 -48.3125 
L 445.290921 -48.3125 
L 447.591572 -48.3125 
L 449.892222 -48.3125 
L 452.192873 -48.3125 
L 454.493523 -48.3125 
L 456.794174 -48.3125 
L 459.094824 -48.3125 
L 461.395475 -48.3125 
L 463.696125 -48.3125 
L 465.996776 -48.3125 
L 468.297426 -48.3125 
L 470.598077 -48.3125 
L 472.898727 -48.3125 
L 475.199378 -48.3125 
L 477.500029 -48.3125 
L 479.800679 -48.3125 
L 482.10133 -48.3125 
L 484.40198 -48.3125 
L 486.702631 -48.3125 
L 489.003281 -48.3125 
L 491.303932 -48.3125 
L 493.604582 -48.3125 
L 495.905233 -48.3125 
L 498.205883 -48.3125 
L 500.506534 -48.3125 
L 502.807184 -48.3125 
L 505.107835 -48.3125 
L 507.408485 -48.3125 
L 509.709136 -48.3125 
L 512.009787 -48.3125 
L 514.310437 -48.3125 
L 516.611088 -48.3125 
L 518.911738 -48.3125 
L 521.212389 -48.3125 
L 523.513039 -48.3125 
L 525.81369 -48.3125 
L 528.11434 -48.3125 
L 530.414991 -48.3125 
L 532.715641 -48.3125 
L 535.016292 -48.3125 
L 537.316942 -48.3125 
L 539.617593 -48.3125 
L 541.918244 -48.3125 
L 544.218894 -48.3125 
L 546.519545 -48.3125 
L 548.820195 -48.3125 
L 551.120846 -48.3125 
L 553.421496 -48.3125 
L 555.722147 -48.3125 
L 558.022797 -48.3125 
L 560.323448 -48.3125 
L 562.624098 -48.3125 
L 564.924749 -48.3125 
L 567.225399 -48.3125 
L 569.52605 -48.3125 
L 571.8267 -48.3125 
L 574.127351 -48.3125 
L 576.428002 -48.3125 
L 578.728652 -48.3125 
L 581.029303 -48.3125 
L 583.329953 -48.3125 
L 585.630604 -48.3125 
L 587.931254 -48.3125 
L 590.231905 -48.3125 
L 592.532555 -48.3125 
L 594.833206 -48.3125 
L 597.133856 -48.3125 
L 599.434507 -48.3125 
L 601.735157 -48.3125 
L 604.035808 -48.3125 
L 606.336459 -48.3125 
L 608.637109 -48.3125 
L 610.93776 -48.3125 
L 613.23841 -48.3125 
L 615.539061 -48.3125 
L 617.839711 -48.3125 
L 620.140362 -48.3125 
L 622.441012 -48.3125 
L 622.441012 -48.551189 
L 622.441012 -48.551189 
L 620.140362 -48.612203 
L 617.839711 -48.686597 
L 615.539061 -48.776707 
L 613.23841 -48.885129 
L 610.93776 -49.014715 
L 608.637109 -49.168554 
L 606.336459 -49.349949 
L 604.035808 -49.562376 
L 601.735157 -49.809432 
L 599.434507 -50.094763 
L 597.133856 -50.421984 
L 594.833206 -50.794581 
L 592.532555 -51.215793 
L 590.231905 -51.688491 
L 587.931254 -52.215041 
L 585.630604 -52.797162 
L 583.329953 -53.435787 
L 581.029303 -54.130916 
L 578.728652 -54.881494 
L 576.428002 -55.68529 
L 574.127351 -56.538808 
L 571.8267 -57.437224 
L 569.52605 -58.374356 
L 567.225399 -59.342675 
L 564.924749 -60.333368 
L 562.624098 -61.336434 
L 560.323448 -62.340848 
L 558.022797 -63.334751 
L 555.722147 -64.305711 
L 553.421496 -65.241 
L 551.120846 -66.127928 
L 548.820195 -66.954185 
L 546.519545 -67.708212 
L 544.218894 -68.379569 
L 541.918244 -68.959301 
L 539.617593 -69.440284 
L 537.316942 -69.817542 
L 535.016292 -70.088523 
L 532.715641 -70.253325 
L 530.414991 -70.314865 
L 528.11434 -70.278986 
L 525.81369 -70.154499 
L 523.513039 -69.953158 
L 521.212389 -69.689565 
L 518.911738 -69.381023 
L 516.611088 -69.047322 
L 514.310437 -68.710481 
L 512.009787 -68.394447 
L 509.709136 -68.124758 
L 507.408485 -67.92818 
L 505.107835 -67.832329 
L 502.807184 -67.865281 
L 500.506534 -68.055183 
L 498.205883 -68.429858 
L 495.905233 -69.016435 
L 493.604582 -69.840972 
L 491.303932 -70.928118 
L 489.003281 -72.300775 
L 486.702631 -73.979797 
L 484.40198 -75.983709 
L 482.10133 -78.328453 
L 479.800679 -81.027167 
L 477.500029 -84.089998 
L 475.199378 -87.52395 
L 472.898727 -91.332771 
L 470.598077 -95.516884 
L 468.297426 -100.073361 
L 465.996776 -104.995945 
L 463.696125 -110.275116 
L 461.395475 -115.898213 
L 459.094824 -121.849588 
L 456.794174 -128.110822 
L 454.493523 -134.660962 
L 452.192873 -141.476802 
L 449.892222 -148.533191 
L 447.591572 -155.803355 
L 445.290921 -163.259233 
L 442.99027 -170.871815 
L 440.68962 -178.611469 
L 438.388969 -186.448259 
L 436.088319 -194.352241 
L 433.787668 -202.293729 
L 431.487018 -210.243534 
L 429.186367 -218.173177 
L 426.885717 -226.05506 
L 424.585066 -233.862624 
L 422.284416 -241.57047 
L 419.983765 -249.154473 
L 417.683115 -256.591881 
L 415.382464 -263.861407 
L 413.081813 -270.943325 
L 410.781163 -277.819579 
L 408.480512 -284.473888 
L 406.179862 -290.891883 
L 403.879211 -297.061237 
L 401.578561 -302.971817 
L 399.27791 -308.615827 
L 396.97726 -313.987949 
L 394.676609 -319.085463 
L 392.375959 -323.908328 
L 390.075308 -328.459223 
L 387.774658 -332.743519 
L 385.474007 -336.769174 
L 383.173357 -340.546544 
L 380.872706 -344.088088 
L 378.572055 -347.407981 
L 376.271405 -350.521612 
L 373.970754 -353.445003 
L 371.670104 -356.194126 
L 369.369453 -358.784172 
L 367.068803 -361.228774 
L 364.768152 -363.539216 
L 362.467502 -365.723676 
L 360.166851 -367.786528 
L 357.866201 -369.727742 
L 355.56555 -371.542424 
L 353.2649 -373.220526 
L 350.964249 -374.746757 
L 348.663598 -376.100714 
L 346.362948 -377.257244 
L 344.062297 -378.187038 
L 341.761647 -378.857452 
L 339.460996 -379.233526 
L 337.160346 -379.279167 
L 334.859695 -378.958461 
L 332.559045 -378.237055 
L 330.258394 -377.083542 
L 327.957744 -375.47081 
L 325.657093 -373.377269 
L 323.356443 -370.78791 
L 321.055792 -367.695137 
L 318.755141 -364.099331 
L 316.454491 -360.009114 
L 314.15384 -355.441293 
L 311.85319 -350.42048 
L 309.552539 -344.978403 
L 307.251889 -339.152942 
L 304.951238 -332.986915 
L 302.650588 -326.526686 
L 300.349937 -319.820654 
L 298.049287 -312.917682 
L 295.748636 -305.865559 
L 293.447986 -298.709538 
L 291.147335 -291.491047 
L 288.846685 -284.246603 
L 286.546034 -277.006987 
L 284.245383 -269.796721 
L 281.944733 -262.633838 
L 279.644082 -255.529975 
L 277.343432 -248.490754 
L 275.042781 -241.51643 
L 272.742131 -234.602765 
L 270.44148 -227.742074 
L 268.14083 -220.924385 
L 265.840179 -214.138648 
L 263.539529 -207.373942 
L 261.238878 -200.6206 
L 258.938228 -193.871223 
L 256.637577 -187.121518 
L 254.336926 -180.370936 
L 252.036276 -173.623093 
L 249.735625 -166.885943 
L 247.434975 -160.171736 
L 245.134324 -153.496749 
L 242.833674 -146.880821 
L 240.533023 -140.34674 
L 238.232373 -133.919489 
L 235.931722 -127.625421 
L 233.631072 -121.491393 
L 231.330421 -115.543897 
L 229.029771 -109.808234 
L 226.72912 -104.307763 
L 224.42847 -99.063247 
L 222.127819 -94.092324 
L 219.827168 -89.40911 
L 217.526518 -85.023943 
L 215.225867 -80.943268 
L 212.925217 -77.169652 
L 210.624566 -73.70192 
L 208.323916 -70.535397 
L 206.023265 -67.662231 
L 203.722615 -65.071786 
L 201.421964 -62.751073 
L 199.121314 -60.68521 
L 196.820663 -58.857883 
L 194.520013 -57.251799 
L 192.219362 -55.849108 
L 189.918711 -54.631796 
L 187.618061 -53.582029 
L 185.31741 -52.682445 
L 183.01676 -51.916402 
L 180.716109 -51.268164 
L 178.415459 -50.723046 
L 176.114808 -50.267503 
L 173.814158 -49.889186 
L 171.513507 -49.576955 
L 169.212857 -49.320862 
L 166.912206 -49.112114 
L 164.611556 -48.943008 
z
" style="stroke: #2ecc71"/>
    </defs>
    <g clip-path="url(#p2c15784963)">
     <use xlink:href="#m7bab9003df" x="0" y="420.48" style="fill: #2ecc71; fill-opacity: 0.3; stroke: #2ecc71"/>
    </g>
   </g>
   <g id="PolyCollection_2">
    <defs>
     <path id="m5d15e2fafd" d="M 89.646051 -49.288121 
L 89.646051 -48.3125 
L 92.57323 -48.3125 
L 95.500408 -48.3125 
L 98.427587 -48.3125 
L 101.354765 -48.3125 
L 104.281944 -48.3125 
L 107.209122 -48.3125 
L 110.136301 -48.3125 
L 113.063479 -48.3125 
L 115.990658 -48.3125 
L 118.917836 -48.3125 
L 121.845015 -48.3125 
L 124.772193 -48.3125 
L 127.699372 -48.3125 
L 130.62655 -48.3125 
L 133.553729 -48.3125 
L 136.480907 -48.3125 
L 139.408086 -48.3125 
L 142.335264 -48.3125 
L 145.262443 -48.3125 
L 148.189621 -48.3125 
L 151.1168 -48.3125 
L 154.043978 -48.3125 
L 156.971157 -48.3125 
L 159.898335 -48.3125 
L 162.825514 -48.3125 
L 165.752692 -48.3125 
L 168.679871 -48.3125 
L 171.607049 -48.3125 
L 174.534228 -48.3125 
L 177.461406 -48.3125 
L 180.388585 -48.3125 
L 183.315763 -48.3125 
L 186.242942 -48.3125 
L 189.17012 -48.3125 
L 192.097299 -48.3125 
L 195.024477 -48.3125 
L 197.951656 -48.3125 
L 200.878834 -48.3125 
L 203.806013 -48.3125 
L 206.733191 -48.3125 
L 209.66037 -48.3125 
L 212.587548 -48.3125 
L 215.514727 -48.3125 
L 218.441905 -48.3125 
L 221.369084 -48.3125 
L 224.296262 -48.3125 
L 227.223441 -48.3125 
L 230.150619 -48.3125 
L 233.077798 -48.3125 
L 236.004976 -48.3125 
L 238.932155 -48.3125 
L 241.859333 -48.3125 
L 244.786512 -48.3125 
L 247.71369 -48.3125 
L 250.640869 -48.3125 
L 253.568047 -48.3125 
L 256.495226 -48.3125 
L 259.422404 -48.3125 
L 262.349583 -48.3125 
L 265.276762 -48.3125 
L 268.20394 -48.3125 
L 271.131119 -48.3125 
L 274.058297 -48.3125 
L 276.985476 -48.3125 
L 279.912654 -48.3125 
L 282.839833 -48.3125 
L 285.767011 -48.3125 
L 288.69419 -48.3125 
L 291.621368 -48.3125 
L 294.548547 -48.3125 
L 297.475725 -48.3125 
L 300.402904 -48.3125 
L 303.330082 -48.3125 
L 306.257261 -48.3125 
L 309.184439 -48.3125 
L 312.111618 -48.3125 
L 315.038796 -48.3125 
L 317.965975 -48.3125 
L 320.893153 -48.3125 
L 323.820332 -48.3125 
L 326.74751 -48.3125 
L 329.674689 -48.3125 
L 332.601867 -48.3125 
L 335.529046 -48.3125 
L 338.456224 -48.3125 
L 341.383403 -48.3125 
L 344.310581 -48.3125 
L 347.23776 -48.3125 
L 350.164938 -48.3125 
L 353.092117 -48.3125 
L 356.019295 -48.3125 
L 358.946474 -48.3125 
L 361.873652 -48.3125 
L 364.800831 -48.3125 
L 367.728009 -48.3125 
L 370.655188 -48.3125 
L 373.582366 -48.3125 
L 376.509545 -48.3125 
L 379.436723 -48.3125 
L 382.363902 -48.3125 
L 385.29108 -48.3125 
L 388.218259 -48.3125 
L 391.145437 -48.3125 
L 394.072616 -48.3125 
L 396.999794 -48.3125 
L 399.926973 -48.3125 
L 402.854151 -48.3125 
L 405.78133 -48.3125 
L 408.708508 -48.3125 
L 411.635687 -48.3125 
L 414.562865 -48.3125 
L 417.490044 -48.3125 
L 420.417222 -48.3125 
L 423.344401 -48.3125 
L 426.271579 -48.3125 
L 429.198758 -48.3125 
L 432.125936 -48.3125 
L 435.053115 -48.3125 
L 437.980293 -48.3125 
L 440.907472 -48.3125 
L 443.83465 -48.3125 
L 446.761829 -48.3125 
L 449.689007 -48.3125 
L 452.616186 -48.3125 
L 455.543364 -48.3125 
L 458.470543 -48.3125 
L 461.397721 -48.3125 
L 464.3249 -48.3125 
L 467.252078 -48.3125 
L 470.179257 -48.3125 
L 473.106435 -48.3125 
L 476.033614 -48.3125 
L 478.960792 -48.3125 
L 481.887971 -48.3125 
L 484.815149 -48.3125 
L 487.742328 -48.3125 
L 490.669506 -48.3125 
L 493.596685 -48.3125 
L 496.523863 -48.3125 
L 499.451042 -48.3125 
L 502.378221 -48.3125 
L 505.305399 -48.3125 
L 508.232578 -48.3125 
L 511.159756 -48.3125 
L 514.086935 -48.3125 
L 517.014113 -48.3125 
L 519.941292 -48.3125 
L 522.86847 -48.3125 
L 525.795649 -48.3125 
L 528.722827 -48.3125 
L 531.650006 -48.3125 
L 534.577184 -48.3125 
L 537.504363 -48.3125 
L 540.431541 -48.3125 
L 543.35872 -48.3125 
L 546.285898 -48.3125 
L 549.213077 -48.3125 
L 552.140255 -48.3125 
L 555.067434 -48.3125 
L 557.994612 -48.3125 
L 560.921791 -48.3125 
L 563.848969 -48.3125 
L 566.776148 -48.3125 
L 569.703326 -48.3125 
L 572.630505 -48.3125 
L 575.557683 -48.3125 
L 578.484862 -48.3125 
L 581.41204 -48.3125 
L 584.339219 -48.3125 
L 587.266397 -48.3125 
L 590.193576 -48.3125 
L 593.120754 -48.3125 
L 596.047933 -48.3125 
L 598.975111 -48.3125 
L 601.90229 -48.3125 
L 604.829468 -48.3125 
L 607.756647 -48.3125 
L 610.683825 -48.3125 
L 613.611004 -48.3125 
L 616.538182 -48.3125 
L 619.465361 -48.3125 
L 622.392539 -48.3125 
L 625.319718 -48.3125 
L 628.246896 -48.3125 
L 631.174075 -48.3125 
L 634.101253 -48.3125 
L 637.028432 -48.3125 
L 639.95561 -48.3125 
L 642.882789 -48.3125 
L 645.809967 -48.3125 
L 648.737146 -48.3125 
L 651.664324 -48.3125 
L 654.591503 -48.3125 
L 657.518681 -48.3125 
L 660.44586 -48.3125 
L 663.373038 -48.3125 
L 666.300217 -48.3125 
L 669.227395 -48.3125 
L 672.154574 -48.3125 
L 672.154574 -49.388514 
L 672.154574 -49.388514 
L 669.227395 -49.548974 
L 666.300217 -49.730558 
L 663.373038 -49.935602 
L 660.44586 -50.166639 
L 657.518681 -50.426401 
L 654.591503 -50.71783 
L 651.664324 -51.044081 
L 648.737146 -51.408525 
L 645.809967 -51.814752 
L 642.882789 -52.266575 
L 639.95561 -52.768024 
L 637.028432 -53.323345 
L 634.101253 -53.936991 
L 631.174075 -54.61362 
L 628.246896 -55.358077 
L 625.319718 -56.175382 
L 622.392539 -57.070715 
L 619.465361 -58.04939 
L 616.538182 -59.116837 
L 613.611004 -60.27857 
L 610.683825 -61.540159 
L 607.756647 -62.907194 
L 604.829468 -64.385246 
L 601.90229 -65.979832 
L 598.975111 -67.696364 
L 596.047933 -69.540106 
L 593.120754 -71.516125 
L 590.193576 -73.629239 
L 587.266397 -75.883961 
L 584.339219 -78.284449 
L 581.41204 -80.834446 
L 578.484862 -83.537227 
L 575.557683 -86.39554 
L 572.630505 -89.411553 
L 569.703326 -92.586801 
L 566.776148 -95.922131 
L 563.848969 -99.417655 
L 560.921791 -103.072705 
L 557.994612 -106.885789 
L 555.067434 -110.854555 
L 552.140255 -114.975761 
L 549.213077 -119.245244 
L 546.285898 -123.657906 
L 543.35872 -128.207697 
L 540.431541 -132.887611 
L 537.504363 -137.689689 
L 534.577184 -142.605025 
L 531.650006 -147.623789 
L 528.722827 -152.735248 
L 525.795649 -157.927802 
L 522.86847 -163.189029 
L 519.941292 -168.50573 
L 517.014113 -173.863989 
L 514.086935 -179.249241 
L 511.159756 -184.646338 
L 508.232578 -190.039632 
L 505.305399 -195.413058 
L 502.378221 -200.750221 
L 499.451042 -206.034497 
L 496.523863 -211.249119 
L 493.596685 -216.377291 
L 490.669506 -221.40228 
L 487.742328 -226.307526 
L 484.815149 -231.076747 
L 481.887971 -235.694041 
L 478.960792 -240.14399 
L 476.033614 -244.411762 
L 473.106435 -248.483209 
L 470.179257 -252.344962 
L 467.252078 -255.984522 
L 464.3249 -259.390343 
L 461.397721 -262.551914 
L 458.470543 -265.459831 
L 455.543364 -268.105861 
L 452.616186 -270.483002 
L 449.689007 -272.58553 
L 446.761829 -274.409043 
L 443.83465 -275.950492 
L 440.907472 -277.2082 
L 437.980293 -278.181878 
L 435.053115 -278.872624 
L 432.125936 -279.282919 
L 429.198758 -279.416604 
L 426.271579 -279.278854 
L 423.344401 -278.876135 
L 420.417222 -278.216159 
L 417.490044 -277.307823 
L 414.562865 -276.161135 
L 411.635687 -274.787143 
L 408.708508 -273.197839 
L 405.78133 -271.406069 
L 402.854151 -269.425426 
L 399.926973 -267.270139 
L 396.999794 -264.95496 
L 394.072616 -262.495039 
L 391.145437 -259.905799 
L 388.218259 -257.202808 
L 385.29108 -254.401652 
L 382.363902 -251.517798 
L 379.436723 -248.566473 
L 376.509545 -245.562531 
L 373.582366 -242.520336 
L 370.655188 -239.45364 
L 367.728009 -236.375472 
L 364.800831 -233.298041 
L 361.873652 -230.232634 
L 358.946474 -227.189539 
L 356.019295 -224.177972 
L 353.092117 -221.206015 
L 350.164938 -218.280573 
L 347.23776 -215.407339 
L 344.310581 -212.590779 
L 341.383403 -209.834125 
L 338.456224 -207.139393 
L 335.529046 -204.507399 
L 332.601867 -201.93781 
L 329.674689 -199.429189 
L 326.74751 -196.979069 
L 323.820332 -194.584026 
L 320.893153 -192.239772 
L 317.965975 -189.941254 
L 315.038796 -187.682761 
L 312.111618 -185.458037 
L 309.184439 -183.260402 
L 306.257261 -181.082873 
L 303.330082 -178.918286 
L 300.402904 -176.759422 
L 297.475725 -174.599126 
L 294.548547 -172.430426 
L 291.621368 -170.246643 
L 288.69419 -168.041497 
L 285.767011 -165.809204 
L 282.839833 -163.54456 
L 279.912654 -161.243021 
L 276.985476 -158.900765 
L 274.058297 -156.514747 
L 271.131119 -154.082733 
L 268.20394 -151.603336 
L 265.276762 -149.07602 
L 262.349583 -146.501107 
L 259.422404 -143.879766 
L 256.495226 -141.213984 
L 253.568047 -138.506535 
L 250.640869 -135.760938 
L 247.71369 -132.981397 
L 244.786512 -130.17274 
L 241.859333 -127.340355 
L 238.932155 -124.490107 
L 236.004976 -121.628266 
L 233.077798 -118.761421 
L 230.150619 -115.896398 
L 227.223441 -113.040173 
L 224.296262 -110.199795 
L 221.369084 -107.3823 
L 218.441905 -104.594634 
L 215.514727 -101.843583 
L 212.587548 -99.135699 
L 209.66037 -96.477244 
L 206.733191 -93.874128 
L 203.806013 -91.331865 
L 200.878834 -88.855525 
L 197.951656 -86.449705 
L 195.024477 -84.1185 
L 192.097299 -81.865479 
L 189.17012 -79.69368 
L 186.242942 -77.6056 
L 183.315763 -75.603196 
L 180.388585 -73.687895 
L 177.461406 -71.860602 
L 174.534228 -70.121726 
L 171.607049 -68.471196 
L 168.679871 -66.908489 
L 165.752692 -65.432663 
L 162.825514 -64.042387 
L 159.898335 -62.735976 
L 156.971157 -61.511424 
L 154.043978 -60.366449 
L 151.1168 -59.29852 
L 148.189621 -58.304901 
L 145.262443 -57.382683 
L 142.335264 -56.528822 
L 139.408086 -55.740171 
L 136.480907 -55.013512 
L 133.553729 -54.345583 
L 130.62655 -53.733113 
L 127.699372 -53.172839 
L 124.772193 -52.661535 
L 121.845015 -52.196029 
L 118.917836 -51.773221 
L 115.990658 -51.390101 
L 113.063479 -51.04376 
L 110.136301 -50.731401 
L 107.209122 -50.450349 
L 104.281944 -50.198054 
L 101.354765 -49.972102 
L 98.427587 -49.770209 
L 95.500408 -49.590232 
L 92.57323 -49.430161 
L 89.646051 -49.288121 
z
" style="stroke: #e74c3c"/>
    </defs>
    <g clip-path="url(#p2c15784963)">
     <use xlink:href="#m5d15e2fafd" x="0" y="420.48" style="fill: #e74c3c; fill-opacity: 0.3; stroke: #e74c3c"/>
    </g>
   </g>
   <g id="patch_3">
    <path d="M 60.520625 372.1675 
L 60.520625 24.6525 
" style="fill: none; stroke: #cccccc; stroke-width: 1.5; stroke-linejoin: miter; stroke-linecap: square"/>
   </g>
   <g id="patch_4">
    <path d="M 60.520625 372.1675 
L 701.28 372.1675 
" style="fill: none; stroke: #cccccc; stroke-width: 1.5; stroke-linejoin: miter; stroke-linecap: square"/>
   </g>
   <g id="text_15">
    <!-- Distribution of Absolute Errors -->
    <g style="fill: #262626" transform="translate(275.080312 18.6525) scale(0.16 -0.16)">
     <defs>
      <path id="ArialMT-62" d="M 941 0 
L 419 0 
L 419 4581 
L 981 4581 
L 981 2947 
Q 1338 3394 1891 3394 
Q 2197 3394 2470 3270 
Q 2744 3147 2920 2923 
Q 3097 2700 3197 2384 
Q 3297 2069 3297 1709 
Q 3297 856 2875 390 
Q 2453 -75 1863 -75 
Q 1275 -75 941 416 
L 941 0 
z
M 934 1684 
Q 934 1088 1097 822 
Q 1363 388 1816 388 
Q 2184 388 2453 708 
Q 2722 1028 2722 1663 
Q 2722 2313 2464 2622 
Q 2206 2931 1841 2931 
Q 1472 2931 1203 2611 
Q 934 2291 934 1684 
z
" transform="scale(0.015625)"/>
      <path id="ArialMT-75" d="M 2597 0 
L 2597 488 
Q 2209 -75 1544 -75 
Q 1250 -75 995 37 
Q 741 150 617 320 
Q 494 491 444 738 
Q 409 903 409 1263 
L 409 3319 
L 972 3319 
L 972 1478 
Q 972 1038 1006 884 
Q 1059 663 1231 536 
Q 1403 409 1656 409 
Q 1909 409 2131 539 
Q 2353 669 2445 892 
Q 2538 1116 2538 1541 
L 2538 3319 
L 3100 3319 
L 3100 0 
L 2597 0 
z
" transform="scale(0.015625)"/>
      <path id="ArialMT-66" d="M 556 0 
L 556 2881 
L 59 2881 
L 59 3319 
L 556 3319 
L 556 3672 
Q 556 4006 616 4169 
Q 697 4388 901 4523 
Q 1106 4659 1475 4659 
Q 1713 4659 2000 4603 
L 1916 4113 
Q 1741 4144 1584 4144 
Q 1328 4144 1222 4034 
Q 1116 3925 1116 3625 
L 1116 3319 
L 1763 3319 
L 1763 2881 
L 1116 2881 
L 1116 0 
L 556 0 
z
" transform="scale(0.015625)"/>
      <path id="ArialMT-41" d="M -9 0 
L 1750 4581 
L 2403 4581 
L 4278 0 
L 3588 0 
L 3053 1388 
L 1138 1388 
L 634 0 
L -9 0 
z
M 1313 1881 
L 2866 1881 
L 2388 3150 
Q 2169 3728 2063 4100 
Q 1975 3659 1816 3225 
L 1313 1881 
z
" transform="scale(0.015625)"/>
      <path id="ArialMT-6c" d="M 409 0 
L 409 4581 
L 972 4581 
L 972 0 
L 409 0 
z
" transform="scale(0.015625)"/>
     </defs>
     <use xlink:href="#ArialMT-44"/>
     <use xlink:href="#ArialMT-69" x="72.216797"/>
     <use xlink:href="#ArialMT-73" x="94.433594"/>
     <use xlink:href="#ArialMT-74" x="144.433594"/>
     <use xlink:href="#ArialMT-72" x="172.216797"/>
     <use xlink:href="#ArialMT-69" x="205.517578"/>
     <use xlink:href="#ArialMT-62" x="227.734375"/>
     <use xlink:href="#ArialMT-75" x="283.349609"/>
     <use xlink:href="#ArialMT-74" x="338.964844"/>
     <use xlink:href="#ArialMT-69" x="366.748047"/>
     <use xlink:href="#ArialMT-6f" x="388.964844"/>
     <use xlink:href="#ArialMT-6e" x="444.580078"/>
     <use xlink:href="#ArialMT-20" x="500.195312"/>
     <use xlink:href="#ArialMT-6f" x="527.978516"/>
     <use xlink:href="#ArialMT-66" x="583.59375"/>
     <use xlink:href="#ArialMT-20" x="611.376953"/>
     <use xlink:href="#ArialMT-41" x="633.660156"/>
     <use xlink:href="#ArialMT-62" x="700.359375"/>
     <use xlink:href="#ArialMT-73" x="755.974609"/>
     <use xlink:href="#ArialMT-6f" x="805.974609"/>
     <use xlink:href="#ArialMT-6c" x="861.589844"/>
     <use xlink:href="#ArialMT-75" x="883.806641"/>
     <use xlink:href="#ArialMT-74" x="939.421875"/>
     <use xlink:href="#ArialMT-65" x="967.205078"/>
     <use xlink:href="#ArialMT-20" x="1022.820312"/>
     <use xlink:href="#ArialMT-45" x="1050.603516"/>
     <use xlink:href="#ArialMT-72" x="1117.302734"/>
     <use xlink:href="#ArialMT-72" x="1150.603516"/>
     <use xlink:href="#ArialMT-6f" x="1183.904297"/>
     <use xlink:href="#ArialMT-72" x="1239.519531"/>
     <use xlink:href="#ArialMT-73" x="1272.820312"/>
    </g>
   </g>
   <g id="legend_1">
    <g id="patch_5">
     <path d="M 497.20125 68.775 
L 692.88 68.775 
Q 695.28 68.775 695.28 66.375 
L 695.28 33.0525 
Q 695.28 30.6525 692.88 30.6525 
L 497.20125 30.6525 
Q 494.80125 30.6525 494.80125 33.0525 
L 494.80125 66.375 
Q 494.80125 68.775 497.20125 68.775 
z
" style="fill: #ffffff; opacity: 0.8; stroke: #cccccc; stroke-linejoin: miter"/>
    </g>
    <g id="patch_6">
     <path d="M 499.60125 44.188125 
L 523.60125 44.188125 
L 523.60125 35.788125 
L 499.60125 35.788125 
z
" style="fill: #2ecc71; fill-opacity: 0.3; stroke: #2ecc71; stroke-linejoin: miter"/>
    </g>
    <g id="text_16">
     <!-- Training (μ=1.79%, σ=1.07%) -->
     <g style="fill: #262626" transform="translate(533.20125 44.188125) scale(0.12 -0.12)">
      <defs>
       <path id="ArialMT-54" d="M 1659 0 
L 1659 4041 
L 150 4041 
L 150 4581 
L 3781 4581 
L 3781 4041 
L 2266 4041 
L 2266 0 
L 1659 0 
z
" transform="scale(0.015625)"/>
       <path id="ArialMT-61" d="M 2588 409 
Q 2275 144 1986 34 
Q 1697 -75 1366 -75 
Q 819 -75 525 192 
Q 231 459 231 875 
Q 231 1119 342 1320 
Q 453 1522 633 1644 
Q 813 1766 1038 1828 
Q 1203 1872 1538 1913 
Q 2219 1994 2541 2106 
Q 2544 2222 2544 2253 
Q 2544 2597 2384 2738 
Q 2169 2928 1744 2928 
Q 1347 2928 1158 2789 
Q 969 2650 878 2297 
L 328 2372 
Q 403 2725 575 2942 
Q 747 3159 1072 3276 
Q 1397 3394 1825 3394 
Q 2250 3394 2515 3294 
Q 2781 3194 2906 3042 
Q 3031 2891 3081 2659 
Q 3109 2516 3109 2141 
L 3109 1391 
Q 3109 606 3145 398 
Q 3181 191 3288 0 
L 2700 0 
Q 2613 175 2588 409 
z
M 2541 1666 
Q 2234 1541 1622 1453 
Q 1275 1403 1131 1340 
Q 988 1278 909 1158 
Q 831 1038 831 891 
Q 831 666 1001 516 
Q 1172 366 1500 366 
Q 1825 366 2078 508 
Q 2331 650 2450 897 
Q 2541 1088 2541 1459 
L 2541 1666 
z
" transform="scale(0.015625)"/>
       <path id="ArialMT-67" d="M 319 -275 
L 866 -356 
Q 900 -609 1056 -725 
Q 1266 -881 1628 -881 
Q 2019 -881 2231 -725 
Q 2444 -569 2519 -288 
Q 2563 -116 2559 434 
Q 2191 0 1641 0 
Q 956 0 581 494 
Q 206 988 206 1678 
Q 206 2153 378 2554 
Q 550 2956 876 3175 
Q 1203 3394 1644 3394 
Q 2231 3394 2613 2919 
L 2613 3319 
L 3131 3319 
L 3131 450 
Q 3131 -325 2973 -648 
Q 2816 -972 2473 -1159 
Q 2131 -1347 1631 -1347 
Q 1038 -1347 672 -1080 
Q 306 -813 319 -275 
z
M 784 1719 
Q 784 1066 1043 766 
Q 1303 466 1694 466 
Q 2081 466 2343 764 
Q 2606 1063 2606 1700 
Q 2606 2309 2336 2618 
Q 2066 2928 1684 2928 
Q 1309 2928 1046 2623 
Q 784 2319 784 1719 
z
" transform="scale(0.015625)"/>
       <path id="ArialMT-3bc" d="M 3181 3319 
L 3181 0 
L 2678 0 
L 2678 394 
Q 2516 144 2356 50 
Q 2138 -78 1847 -78 
Q 1588 -78 1388 25 
Q 1238 103 1056 334 
L 1056 -1272 
L 500 -1272 
L 500 3319 
L 1056 3319 
L 1056 1913 
Q 1056 1147 1137 920 
Q 1219 694 1401 562 
Q 1584 431 1822 431 
Q 2072 431 2269 568 
Q 2466 706 2547 923 
Q 2628 1141 2628 1903 
L 2628 3319 
L 3181 3319 
z
" transform="scale(0.015625)"/>
       <path id="ArialMT-3d" d="M 3381 2694 
L 356 2694 
L 356 3219 
L 3381 3219 
L 3381 2694 
z
M 3381 1303 
L 356 1303 
L 356 1828 
L 3381 1828 
L 3381 1303 
z
" transform="scale(0.015625)"/>
       <path id="ArialMT-37" d="M 303 3981 
L 303 4522 
L 3269 4522 
L 3269 4084 
Q 2831 3619 2401 2847 
Q 1972 2075 1738 1259 
Q 1569 684 1522 0 
L 944 0 
Q 953 541 1156 1306 
Q 1359 2072 1739 2783 
Q 2119 3494 2547 3981 
L 303 3981 
z
" transform="scale(0.015625)"/>
       <path id="ArialMT-39" d="M 350 1059 
L 891 1109 
Q 959 728 1153 556 
Q 1347 384 1650 384 
Q 1909 384 2104 503 
Q 2300 622 2425 820 
Q 2550 1019 2634 1356 
Q 2719 1694 2719 2044 
Q 2719 2081 2716 2156 
Q 2547 1888 2255 1720 
Q 1963 1553 1622 1553 
Q 1053 1553 659 1965 
Q 266 2378 266 3053 
Q 266 3750 677 4175 
Q 1088 4600 1706 4600 
Q 2153 4600 2523 4359 
Q 2894 4119 3086 3673 
Q 3278 3228 3278 2384 
Q 3278 1506 3087 986 
Q 2897 466 2520 194 
Q 2144 -78 1638 -78 
Q 1100 -78 759 220 
Q 419 519 350 1059 
z
M 2653 3081 
Q 2653 3566 2395 3850 
Q 2138 4134 1775 4134 
Q 1400 4134 1122 3828 
Q 844 3522 844 3034 
Q 844 2597 1108 2323 
Q 1372 2050 1759 2050 
Q 2150 2050 2401 2323 
Q 2653 2597 2653 3081 
z
" transform="scale(0.015625)"/>
       <path id="ArialMT-2c" d="M 569 0 
L 569 641 
L 1209 641 
L 1209 0 
Q 1209 -353 1084 -570 
Q 959 -788 688 -906 
L 531 -666 
Q 709 -588 793 -436 
Q 878 -284 888 0 
L 569 0 
z
" transform="scale(0.015625)"/>
       <path id="ArialMT-3c3" d="M 3809 3319 
L 3809 2863 
L 2906 2863 
Q 3322 2475 3322 1656 
Q 3322 766 2867 345 
Q 2413 -75 1763 -75 
Q 1088 -75 650 362 
Q 213 800 213 1659 
Q 213 2544 667 2969 
Q 1122 3394 1763 3394 
Q 1997 3394 2294 3319 
L 3809 3319 
z
M 1753 2928 
Q 1344 2928 1067 2609 
Q 791 2291 791 1656 
Q 791 1025 1061 706 
Q 1331 388 1763 388 
Q 2216 388 2483 720 
Q 2750 1053 2750 1659 
Q 2750 2213 2504 2570 
Q 2259 2928 1753 2928 
z
" transform="scale(0.015625)"/>
      </defs>
      <use xlink:href="#ArialMT-54"/>
      <use xlink:href="#ArialMT-72" x="57.333984"/>
      <use xlink:href="#ArialMT-61" x="90.634766"/>
      <use xlink:href="#ArialMT-69" x="146.25"/>
      <use xlink:href="#ArialMT-6e" x="168.466797"/>
      <use xlink:href="#ArialMT-69" x="224.082031"/>
      <use xlink:href="#ArialMT-6e" x="246.298828"/>
      <use xlink:href="#ArialMT-67" x="301.914062"/>
      <use xlink:href="#ArialMT-20" x="357.529297"/>
      <use xlink:href="#ArialMT-28" x="385.3125"/>
      <use xlink:href="#ArialMT-3bc" x="418.613281"/>
      <use xlink:href="#ArialMT-3d" x="476.230469"/>
      <use xlink:href="#ArialMT-31" x="534.628906"/>
      <use xlink:href="#ArialMT-2e" x="590.244141"/>
      <use xlink:href="#ArialMT-37" x="618.027344"/>
      <use xlink:href="#ArialMT-39" x="673.642578"/>
      <use xlink:href="#ArialMT-25" x="729.257812"/>
      <use xlink:href="#ArialMT-2c" x="818.173828"/>
      <use xlink:href="#ArialMT-20" x="845.957031"/>
      <use xlink:href="#ArialMT-3c3" x="873.740234"/>
      <use xlink:href="#ArialMT-3d" x="935.458984"/>
      <use xlink:href="#ArialMT-31" x="993.857422"/>
      <use xlink:href="#ArialMT-2e" x="1049.472656"/>
      <use xlink:href="#ArialMT-30" x="1077.255859"/>
      <use xlink:href="#ArialMT-37" x="1132.871094"/>
      <use xlink:href="#ArialMT-25" x="1188.486328"/>
      <use xlink:href="#ArialMT-29" x="1277.402344"/>
     </g>
    </g>
    <g id="patch_7">
     <path d="M 499.60125 61.449375 
L 523.60125 61.449375 
L 523.60125 53.049375 
L 499.60125 53.049375 
z
" style="fill: #e74c3c; fill-opacity: 0.3; stroke: #e74c3c; stroke-linejoin: miter"/>
    </g>
    <g id="text_17">
     <!-- Testing (μ=2.58%, σ=1.49%) -->
     <g style="fill: #262626" transform="translate(533.20125 61.449375) scale(0.12 -0.12)">
      <defs>
       <path id="ArialMT-38" d="M 1131 2484 
Q 781 2613 612 2850 
Q 444 3088 444 3419 
Q 444 3919 803 4259 
Q 1163 4600 1759 4600 
Q 2359 4600 2725 4251 
Q 3091 3903 3091 3403 
Q 3091 3084 2923 2848 
Q 2756 2613 2416 2484 
Q 2838 2347 3058 2040 
Q 3278 1734 3278 1309 
Q 3278 722 2862 322 
Q 2447 -78 1769 -78 
Q 1091 -78 675 323 
Q 259 725 259 1325 
Q 259 1772 486 2073 
Q 713 2375 1131 2484 
z
M 1019 3438 
Q 1019 3113 1228 2906 
Q 1438 2700 1772 2700 
Q 2097 2700 2305 2904 
Q 2513 3109 2513 3406 
Q 2513 3716 2298 3927 
Q 2084 4138 1766 4138 
Q 1444 4138 1231 3931 
Q 1019 3725 1019 3438 
z
M 838 1322 
Q 838 1081 952 856 
Q 1066 631 1291 507 
Q 1516 384 1775 384 
Q 2178 384 2440 643 
Q 2703 903 2703 1303 
Q 2703 1709 2433 1975 
Q 2163 2241 1756 2241 
Q 1359 2241 1098 1978 
Q 838 1716 838 1322 
z
" transform="scale(0.015625)"/>
      </defs>
      <use xlink:href="#ArialMT-54"/>
      <use xlink:href="#ArialMT-65" x="49.958984"/>
      <use xlink:href="#ArialMT-73" x="105.574219"/>
      <use xlink:href="#ArialMT-74" x="155.574219"/>
      <use xlink:href="#ArialMT-69" x="183.357422"/>
      <use xlink:href="#ArialMT-6e" x="205.574219"/>
      <use xlink:href="#ArialMT-67" x="261.189453"/>
      <use xlink:href="#ArialMT-20" x="316.804688"/>
      <use xlink:href="#ArialMT-28" x="344.587891"/>
      <use xlink:href="#ArialMT-3bc" x="377.888672"/>
      <use xlink:href="#ArialMT-3d" x="435.505859"/>
      <use xlink:href="#ArialMT-32" x="493.904297"/>
      <use xlink:href="#ArialMT-2e" x="549.519531"/>
      <use xlink:href="#ArialMT-35" x="577.302734"/>
      <use xlink:href="#ArialMT-38" x="632.917969"/>
      <use xlink:href="#ArialMT-25" x="688.533203"/>
      <use xlink:href="#ArialMT-2c" x="777.449219"/>
      <use xlink:href="#ArialMT-20" x="805.232422"/>
      <use xlink:href="#ArialMT-3c3" x="833.015625"/>
      <use xlink:href="#ArialMT-3d" x="894.734375"/>
      <use xlink:href="#ArialMT-31" x="953.132812"/>
      <use xlink:href="#ArialMT-2e" x="1008.748047"/>
      <use xlink:href="#ArialMT-34" x="1036.53125"/>
      <use xlink:href="#ArialMT-39" x="1092.146484"/>
      <use xlink:href="#ArialMT-25" x="1147.761719"/>
      <use xlink:href="#ArialMT-29" x="1236.677734"/>
     </g>
    </g>
   </g>
  </g>
 </g>
 <defs>
  <clipPath id="p2c15784963">
   <rect x="60.520625" y="24.6525" width="640.759375" height="347.515"/>
  </clipPath>
 </defs>
</svg>
