<?xml version="1.0" encoding="utf-8" standalone="no"?>
<!DOCTYPE svg PUBLIC "-//W3C//DTD SVG 1.1//EN"
  "http://www.w3.org/Graphics/SVG/1.1/DTD/svg11.dtd">
<svg xmlns:xlink="http://www.w3.org/1999/xlink" width="708.48pt" height="420.48pt" viewBox="0 0 708.48 420.48" xmlns="http://www.w3.org/2000/svg" version="1.1">
 <metadata>
  <rdf:RDF xmlns:dc="http://purl.org/dc/elements/1.1/" xmlns:cc="http://creativecommons.org/ns#" xmlns:rdf="http://www.w3.org/1999/02/22-rdf-syntax-ns#">
   <cc:Work>
    <dc:type rdf:resource="http://purl.org/dc/dcmitype/StillImage"/>
    <dc:date>2025-01-07T20:22:36.953920</dc:date>
    <dc:format>image/svg+xml</dc:format>
    <dc:creator>
     <cc:Agent>
      <dc:title>Matplotlib v3.9.3, https://matplotlib.org/</dc:title>
     </cc:Agent>
    </dc:creator>
   </cc:Work>
  </rdf:RDF>
 </metadata>
 <defs>
  <style type="text/css">*{stroke-linejoin: round; stroke-linecap: butt}</style>
 </defs>
 <g id="figure_1">
  <g id="patch_1">
   <path d="M 0 420.48 
L 708.48 420.48 
L 708.48 -0 
L 0 -0 
z
" style="fill: #ffffff"/>
  </g>
  <g id="axes_1">
   <g id="patch_2">
    <path d="M 60.520625 372.1675 
L 701.28 372.1675 
L 701.28 24.6525 
L 60.520625 24.6525 
z
" style="fill: #ffffff"/>
   </g>
   <g id="matplotlib.axis_1">
    <g id="xtick_1">
     <g id="line2d_1">
      <path d="M 129.4205 372.1675 
L 129.4205 24.6525 
" clip-path="url(#p36e61e6f39)" style="fill: none; stroke: #cccccc; stroke-opacity: 0.3; stroke-width: 0.5; stroke-linecap: round"/>
     </g>
     <g id="text_1">
      <!-- −2 -->
      <g style="fill: #262626" transform="translate(122.579563 387.756875) scale(0.12 -0.12)">
       <defs>
        <path id="ArialMT-2212" d="M 3381 1997 
L 356 1997 
L 356 2522 
L 3381 2522 
L 3381 1997 
z
" transform="scale(0.015625)"/>
        <path id="ArialMT-32" d="M 3222 541 
L 3222 0 
L 194 0 
Q 188 203 259 391 
Q 375 700 629 1000 
Q 884 1300 1366 1694 
Q 2113 2306 2375 2664 
Q 2638 3022 2638 3341 
Q 2638 3675 2398 3904 
Q 2159 4134 1775 4134 
Q 1369 4134 1125 3890 
Q 881 3647 878 3216 
L 300 3275 
Q 359 3922 746 4261 
Q 1134 4600 1788 4600 
Q 2447 4600 2831 4234 
Q 3216 3869 3216 3328 
Q 3216 3053 3103 2787 
Q 2991 2522 2730 2228 
Q 2469 1934 1863 1422 
Q 1356 997 1212 845 
Q 1069 694 975 541 
L 3222 541 
z
" transform="scale(0.015625)"/>
       </defs>
       <use xlink:href="#ArialMT-2212"/>
       <use xlink:href="#ArialMT-32" x="58.398438"/>
      </g>
     </g>
    </g>
    <g id="xtick_2">
     <g id="line2d_2">
      <path d="M 263.194832 372.1675 
L 263.194832 24.6525 
" clip-path="url(#p36e61e6f39)" style="fill: none; stroke: #cccccc; stroke-opacity: 0.3; stroke-width: 0.5; stroke-linecap: round"/>
     </g>
     <g id="text_2">
      <!-- 0 -->
      <g style="fill: #262626" transform="translate(259.85827 387.756875) scale(0.12 -0.12)">
       <defs>
        <path id="ArialMT-30" d="M 266 2259 
Q 266 3072 433 3567 
Q 600 4063 929 4331 
Q 1259 4600 1759 4600 
Q 2128 4600 2406 4451 
Q 2684 4303 2865 4023 
Q 3047 3744 3150 3342 
Q 3253 2941 3253 2259 
Q 3253 1453 3087 958 
Q 2922 463 2592 192 
Q 2263 -78 1759 -78 
Q 1097 -78 719 397 
Q 266 969 266 2259 
z
M 844 2259 
Q 844 1131 1108 757 
Q 1372 384 1759 384 
Q 2147 384 2411 759 
Q 2675 1134 2675 2259 
Q 2675 3391 2411 3762 
Q 2147 4134 1753 4134 
Q 1366 4134 1134 3806 
Q 844 3388 844 2259 
z
" transform="scale(0.015625)"/>
       </defs>
       <use xlink:href="#ArialMT-30"/>
      </g>
     </g>
    </g>
    <g id="xtick_3">
     <g id="line2d_3">
      <path d="M 396.969164 372.1675 
L 396.969164 24.6525 
" clip-path="url(#p36e61e6f39)" style="fill: none; stroke: #cccccc; stroke-opacity: 0.3; stroke-width: 0.5; stroke-linecap: round"/>
     </g>
     <g id="text_3">
      <!-- 2 -->
      <g style="fill: #262626" transform="translate(393.632602 387.756875) scale(0.12 -0.12)">
       <use xlink:href="#ArialMT-32"/>
      </g>
     </g>
    </g>
    <g id="xtick_4">
     <g id="line2d_4">
      <path d="M 530.743497 372.1675 
L 530.743497 24.6525 
" clip-path="url(#p36e61e6f39)" style="fill: none; stroke: #cccccc; stroke-opacity: 0.3; stroke-width: 0.5; stroke-linecap: round"/>
     </g>
     <g id="text_4">
      <!-- 4 -->
      <g style="fill: #262626" transform="translate(527.406934 387.756875) scale(0.12 -0.12)">
       <defs>
        <path id="ArialMT-34" d="M 2069 0 
L 2069 1097 
L 81 1097 
L 81 1613 
L 2172 4581 
L 2631 4581 
L 2631 1613 
L 3250 1613 
L 3250 1097 
L 2631 1097 
L 2631 0 
L 2069 0 
z
M 2069 1613 
L 2069 3678 
L 634 1613 
L 2069 1613 
z
" transform="scale(0.015625)"/>
       </defs>
       <use xlink:href="#ArialMT-34"/>
      </g>
     </g>
    </g>
    <g id="xtick_5">
     <g id="line2d_5">
      <path d="M 664.517829 372.1675 
L 664.517829 24.6525 
" clip-path="url(#p36e61e6f39)" style="fill: none; stroke: #cccccc; stroke-opacity: 0.3; stroke-width: 0.5; stroke-linecap: round"/>
     </g>
     <g id="text_5">
      <!-- 6 -->
      <g style="fill: #262626" transform="translate(661.181266 387.756875) scale(0.12 -0.12)">
       <defs>
        <path id="ArialMT-36" d="M 3184 3459 
L 2625 3416 
Q 2550 3747 2413 3897 
Q 2184 4138 1850 4138 
Q 1581 4138 1378 3988 
Q 1113 3794 959 3422 
Q 806 3050 800 2363 
Q 1003 2672 1297 2822 
Q 1591 2972 1913 2972 
Q 2475 2972 2870 2558 
Q 3266 2144 3266 1488 
Q 3266 1056 3080 686 
Q 2894 316 2569 119 
Q 2244 -78 1831 -78 
Q 1128 -78 684 439 
Q 241 956 241 2144 
Q 241 3472 731 4075 
Q 1159 4600 1884 4600 
Q 2425 4600 2770 4297 
Q 3116 3994 3184 3459 
z
M 888 1484 
Q 888 1194 1011 928 
Q 1134 663 1356 523 
Q 1578 384 1822 384 
Q 2178 384 2434 671 
Q 2691 959 2691 1453 
Q 2691 1928 2437 2201 
Q 2184 2475 1800 2475 
Q 1419 2475 1153 2201 
Q 888 1928 888 1484 
z
" transform="scale(0.015625)"/>
       </defs>
       <use xlink:href="#ArialMT-36"/>
      </g>
     </g>
    </g>
    <g id="text_6">
     <!-- Error (%) -->
     <g style="fill: #262626" transform="translate(352.515312 410.333438) scale(0.14 -0.14)">
      <defs>
       <path id="ArialMT-45" d="M 506 0 
L 506 4581 
L 3819 4581 
L 3819 4041 
L 1113 4041 
L 1113 2638 
L 3647 2638 
L 3647 2100 
L 1113 2100 
L 1113 541 
L 3925 541 
L 3925 0 
L 506 0 
z
" transform="scale(0.015625)"/>
       <path id="ArialMT-72" d="M 416 0 
L 416 3319 
L 922 3319 
L 922 2816 
Q 1116 3169 1280 3281 
Q 1444 3394 1641 3394 
Q 1925 3394 2219 3213 
L 2025 2691 
Q 1819 2813 1613 2813 
Q 1428 2813 1281 2702 
Q 1134 2591 1072 2394 
Q 978 2094 978 1738 
L 978 0 
L 416 0 
z
" transform="scale(0.015625)"/>
       <path id="ArialMT-6f" d="M 213 1659 
Q 213 2581 725 3025 
Q 1153 3394 1769 3394 
Q 2453 3394 2887 2945 
Q 3322 2497 3322 1706 
Q 3322 1066 3130 698 
Q 2938 331 2570 128 
Q 2203 -75 1769 -75 
Q 1072 -75 642 372 
Q 213 819 213 1659 
z
M 791 1659 
Q 791 1022 1069 705 
Q 1347 388 1769 388 
Q 2188 388 2466 706 
Q 2744 1025 2744 1678 
Q 2744 2294 2464 2611 
Q 2184 2928 1769 2928 
Q 1347 2928 1069 2612 
Q 791 2297 791 1659 
z
" transform="scale(0.015625)"/>
       <path id="ArialMT-20" transform="scale(0.015625)"/>
       <path id="ArialMT-28" d="M 1497 -1347 
Q 1031 -759 709 28 
Q 388 816 388 1659 
Q 388 2403 628 3084 
Q 909 3875 1497 4659 
L 1900 4659 
Q 1522 4009 1400 3731 
Q 1209 3300 1100 2831 
Q 966 2247 966 1656 
Q 966 153 1900 -1347 
L 1497 -1347 
z
" transform="scale(0.015625)"/>
       <path id="ArialMT-25" d="M 372 3481 
Q 372 3972 619 4315 
Q 866 4659 1334 4659 
Q 1766 4659 2048 4351 
Q 2331 4044 2331 3447 
Q 2331 2866 2045 2552 
Q 1759 2238 1341 2238 
Q 925 2238 648 2547 
Q 372 2856 372 3481 
z
M 1350 4272 
Q 1141 4272 1002 4090 
Q 863 3909 863 3425 
Q 863 2984 1003 2804 
Q 1144 2625 1350 2625 
Q 1563 2625 1702 2806 
Q 1841 2988 1841 3469 
Q 1841 3913 1700 4092 
Q 1559 4272 1350 4272 
z
M 1353 -169 
L 3859 4659 
L 4316 4659 
L 1819 -169 
L 1353 -169 
z
M 3334 1075 
Q 3334 1569 3581 1911 
Q 3828 2253 4300 2253 
Q 4731 2253 5014 1945 
Q 5297 1638 5297 1041 
Q 5297 459 5011 145 
Q 4725 -169 4303 -169 
Q 3888 -169 3611 142 
Q 3334 453 3334 1075 
z
M 4316 1866 
Q 4103 1866 3964 1684 
Q 3825 1503 3825 1019 
Q 3825 581 3965 400 
Q 4106 219 4313 219 
Q 4528 219 4667 400 
Q 4806 581 4806 1063 
Q 4806 1506 4665 1686 
Q 4525 1866 4316 1866 
z
" transform="scale(0.015625)"/>
       <path id="ArialMT-29" d="M 791 -1347 
L 388 -1347 
Q 1322 153 1322 1656 
Q 1322 2244 1188 2822 
Q 1081 3291 891 3722 
Q 769 4003 388 4659 
L 791 4659 
Q 1378 3875 1659 3084 
Q 1900 2403 1900 1659 
Q 1900 816 1576 28 
Q 1253 -759 791 -1347 
z
" transform="scale(0.015625)"/>
      </defs>
      <use xlink:href="#ArialMT-45"/>
      <use xlink:href="#ArialMT-72" x="66.699219"/>
      <use xlink:href="#ArialMT-72" x="100"/>
      <use xlink:href="#ArialMT-6f" x="133.300781"/>
      <use xlink:href="#ArialMT-72" x="188.916016"/>
      <use xlink:href="#ArialMT-20" x="222.216797"/>
      <use xlink:href="#ArialMT-28" x="250"/>
      <use xlink:href="#ArialMT-25" x="283.300781"/>
      <use xlink:href="#ArialMT-29" x="372.216797"/>
     </g>
    </g>
   </g>
   <g id="matplotlib.axis_2">
    <g id="ytick_1">
     <g id="line2d_6">
      <path d="M 60.520625 372.1675 
L 701.28 372.1675 
" clip-path="url(#p36e61e6f39)" style="fill: none; stroke: #cccccc; stroke-opacity: 0.3; stroke-width: 0.5; stroke-linecap: round"/>
     </g>
     <g id="text_7">
      <!-- 0.00 -->
      <g style="fill: #262626" transform="translate(30.1675 376.462188) scale(0.12 -0.12)">
       <defs>
        <path id="ArialMT-2e" d="M 581 0 
L 581 641 
L 1222 641 
L 1222 0 
L 581 0 
z
" transform="scale(0.015625)"/>
       </defs>
       <use xlink:href="#ArialMT-30"/>
       <use xlink:href="#ArialMT-2e" x="55.615234"/>
       <use xlink:href="#ArialMT-30" x="83.398438"/>
       <use xlink:href="#ArialMT-30" x="139.013672"/>
      </g>
     </g>
    </g>
    <g id="ytick_2">
     <g id="line2d_7">
      <path d="M 60.520625 320.737112 
L 701.28 320.737112 
" clip-path="url(#p36e61e6f39)" style="fill: none; stroke: #cccccc; stroke-opacity: 0.3; stroke-width: 0.5; stroke-linecap: round"/>
     </g>
     <g id="text_8">
      <!-- 0.05 -->
      <g style="fill: #262626" transform="translate(30.1675 325.031799) scale(0.12 -0.12)">
       <defs>
        <path id="ArialMT-35" d="M 266 1200 
L 856 1250 
Q 922 819 1161 601 
Q 1400 384 1738 384 
Q 2144 384 2425 690 
Q 2706 997 2706 1503 
Q 2706 1984 2436 2262 
Q 2166 2541 1728 2541 
Q 1456 2541 1237 2417 
Q 1019 2294 894 2097 
L 366 2166 
L 809 4519 
L 3088 4519 
L 3088 3981 
L 1259 3981 
L 1013 2750 
Q 1425 3038 1878 3038 
Q 2478 3038 2890 2622 
Q 3303 2206 3303 1553 
Q 3303 931 2941 478 
Q 2500 -78 1738 -78 
Q 1113 -78 717 272 
Q 322 622 266 1200 
z
" transform="scale(0.015625)"/>
       </defs>
       <use xlink:href="#ArialMT-30"/>
       <use xlink:href="#ArialMT-2e" x="55.615234"/>
       <use xlink:href="#ArialMT-30" x="83.398438"/>
       <use xlink:href="#ArialMT-35" x="139.013672"/>
      </g>
     </g>
    </g>
    <g id="ytick_3">
     <g id="line2d_8">
      <path d="M 60.520625 269.306724 
L 701.28 269.306724 
" clip-path="url(#p36e61e6f39)" style="fill: none; stroke: #cccccc; stroke-opacity: 0.3; stroke-width: 0.5; stroke-linecap: round"/>
     </g>
     <g id="text_9">
      <!-- 0.10 -->
      <g style="fill: #262626" transform="translate(30.1675 273.601411) scale(0.12 -0.12)">
       <defs>
        <path id="ArialMT-31" d="M 2384 0 
L 1822 0 
L 1822 3584 
Q 1619 3391 1289 3197 
Q 959 3003 697 2906 
L 697 3450 
Q 1169 3672 1522 3987 
Q 1875 4303 2022 4600 
L 2384 4600 
L 2384 0 
z
" transform="scale(0.015625)"/>
       </defs>
       <use xlink:href="#ArialMT-30"/>
       <use xlink:href="#ArialMT-2e" x="55.615234"/>
       <use xlink:href="#ArialMT-31" x="83.398438"/>
       <use xlink:href="#ArialMT-30" x="139.013672"/>
      </g>
     </g>
    </g>
    <g id="ytick_4">
     <g id="line2d_9">
      <path d="M 60.520625 217.876336 
L 701.28 217.876336 
" clip-path="url(#p36e61e6f39)" style="fill: none; stroke: #cccccc; stroke-opacity: 0.3; stroke-width: 0.5; stroke-linecap: round"/>
     </g>
     <g id="text_10">
      <!-- 0.15 -->
      <g style="fill: #262626" transform="translate(30.1675 222.171023) scale(0.12 -0.12)">
       <use xlink:href="#ArialMT-30"/>
       <use xlink:href="#ArialMT-2e" x="55.615234"/>
       <use xlink:href="#ArialMT-31" x="83.398438"/>
       <use xlink:href="#ArialMT-35" x="139.013672"/>
      </g>
     </g>
    </g>
    <g id="ytick_5">
     <g id="line2d_10">
      <path d="M 60.520625 166.445947 
L 701.28 166.445947 
" clip-path="url(#p36e61e6f39)" style="fill: none; stroke: #cccccc; stroke-opacity: 0.3; stroke-width: 0.5; stroke-linecap: round"/>
     </g>
     <g id="text_11">
      <!-- 0.20 -->
      <g style="fill: #262626" transform="translate(30.1675 170.740635) scale(0.12 -0.12)">
       <use xlink:href="#ArialMT-30"/>
       <use xlink:href="#ArialMT-2e" x="55.615234"/>
       <use xlink:href="#ArialMT-32" x="83.398438"/>
       <use xlink:href="#ArialMT-30" x="139.013672"/>
      </g>
     </g>
    </g>
    <g id="ytick_6">
     <g id="line2d_11">
      <path d="M 60.520625 115.015559 
L 701.28 115.015559 
" clip-path="url(#p36e61e6f39)" style="fill: none; stroke: #cccccc; stroke-opacity: 0.3; stroke-width: 0.5; stroke-linecap: round"/>
     </g>
     <g id="text_12">
      <!-- 0.25 -->
      <g style="fill: #262626" transform="translate(30.1675 119.310247) scale(0.12 -0.12)">
       <use xlink:href="#ArialMT-30"/>
       <use xlink:href="#ArialMT-2e" x="55.615234"/>
       <use xlink:href="#ArialMT-32" x="83.398438"/>
       <use xlink:href="#ArialMT-35" x="139.013672"/>
      </g>
     </g>
    </g>
    <g id="ytick_7">
     <g id="line2d_12">
      <path d="M 60.520625 63.585171 
L 701.28 63.585171 
" clip-path="url(#p36e61e6f39)" style="fill: none; stroke: #cccccc; stroke-opacity: 0.3; stroke-width: 0.5; stroke-linecap: round"/>
     </g>
     <g id="text_13">
      <!-- 0.30 -->
      <g style="fill: #262626" transform="translate(30.1675 67.879859) scale(0.12 -0.12)">
       <defs>
        <path id="ArialMT-33" d="M 269 1209 
L 831 1284 
Q 928 806 1161 595 
Q 1394 384 1728 384 
Q 2125 384 2398 659 
Q 2672 934 2672 1341 
Q 2672 1728 2419 1979 
Q 2166 2231 1775 2231 
Q 1616 2231 1378 2169 
L 1441 2663 
Q 1497 2656 1531 2656 
Q 1891 2656 2178 2843 
Q 2466 3031 2466 3422 
Q 2466 3731 2256 3934 
Q 2047 4138 1716 4138 
Q 1388 4138 1169 3931 
Q 950 3725 888 3313 
L 325 3413 
Q 428 3978 793 4289 
Q 1159 4600 1703 4600 
Q 2078 4600 2393 4439 
Q 2709 4278 2876 4000 
Q 3044 3722 3044 3409 
Q 3044 3113 2884 2869 
Q 2725 2625 2413 2481 
Q 2819 2388 3044 2092 
Q 3269 1797 3269 1353 
Q 3269 753 2831 336 
Q 2394 -81 1725 -81 
Q 1122 -81 723 278 
Q 325 638 269 1209 
z
" transform="scale(0.015625)"/>
       </defs>
       <use xlink:href="#ArialMT-30"/>
       <use xlink:href="#ArialMT-2e" x="55.615234"/>
       <use xlink:href="#ArialMT-33" x="83.398438"/>
       <use xlink:href="#ArialMT-30" x="139.013672"/>
      </g>
     </g>
    </g>
    <g id="text_14">
     <!-- Density -->
     <g style="fill: #262626" transform="translate(17.220938 221.750625) rotate(-90) scale(0.14 -0.14)">
      <defs>
       <path id="ArialMT-44" d="M 494 0 
L 494 4581 
L 2072 4581 
Q 2606 4581 2888 4516 
Q 3281 4425 3559 4188 
Q 3922 3881 4101 3404 
Q 4281 2928 4281 2316 
Q 4281 1794 4159 1391 
Q 4038 988 3847 723 
Q 3656 459 3429 307 
Q 3203 156 2883 78 
Q 2563 0 2147 0 
L 494 0 
z
M 1100 541 
L 2078 541 
Q 2531 541 2789 625 
Q 3047 709 3200 863 
Q 3416 1078 3536 1442 
Q 3656 1806 3656 2325 
Q 3656 3044 3420 3430 
Q 3184 3816 2847 3947 
Q 2603 4041 2063 4041 
L 1100 4041 
L 1100 541 
z
" transform="scale(0.015625)"/>
       <path id="ArialMT-65" d="M 2694 1069 
L 3275 997 
Q 3138 488 2766 206 
Q 2394 -75 1816 -75 
Q 1088 -75 661 373 
Q 234 822 234 1631 
Q 234 2469 665 2931 
Q 1097 3394 1784 3394 
Q 2450 3394 2872 2941 
Q 3294 2488 3294 1666 
Q 3294 1616 3291 1516 
L 816 1516 
Q 847 969 1125 678 
Q 1403 388 1819 388 
Q 2128 388 2347 550 
Q 2566 713 2694 1069 
z
M 847 1978 
L 2700 1978 
Q 2663 2397 2488 2606 
Q 2219 2931 1791 2931 
Q 1403 2931 1139 2672 
Q 875 2413 847 1978 
z
" transform="scale(0.015625)"/>
       <path id="ArialMT-6e" d="M 422 0 
L 422 3319 
L 928 3319 
L 928 2847 
Q 1294 3394 1984 3394 
Q 2284 3394 2536 3286 
Q 2788 3178 2913 3003 
Q 3038 2828 3088 2588 
Q 3119 2431 3119 2041 
L 3119 0 
L 2556 0 
L 2556 2019 
Q 2556 2363 2490 2533 
Q 2425 2703 2258 2804 
Q 2091 2906 1866 2906 
Q 1506 2906 1245 2678 
Q 984 2450 984 1813 
L 984 0 
L 422 0 
z
" transform="scale(0.015625)"/>
       <path id="ArialMT-73" d="M 197 991 
L 753 1078 
Q 800 744 1014 566 
Q 1228 388 1613 388 
Q 2000 388 2187 545 
Q 2375 703 2375 916 
Q 2375 1106 2209 1216 
Q 2094 1291 1634 1406 
Q 1016 1563 777 1677 
Q 538 1791 414 1992 
Q 291 2194 291 2438 
Q 291 2659 392 2848 
Q 494 3038 669 3163 
Q 800 3259 1026 3326 
Q 1253 3394 1513 3394 
Q 1903 3394 2198 3281 
Q 2494 3169 2634 2976 
Q 2775 2784 2828 2463 
L 2278 2388 
Q 2241 2644 2061 2787 
Q 1881 2931 1553 2931 
Q 1166 2931 1000 2803 
Q 834 2675 834 2503 
Q 834 2394 903 2306 
Q 972 2216 1119 2156 
Q 1203 2125 1616 2013 
Q 2213 1853 2448 1751 
Q 2684 1650 2818 1456 
Q 2953 1263 2953 975 
Q 2953 694 2789 445 
Q 2625 197 2315 61 
Q 2006 -75 1616 -75 
Q 969 -75 630 194 
Q 291 463 197 991 
z
" transform="scale(0.015625)"/>
       <path id="ArialMT-69" d="M 425 3934 
L 425 4581 
L 988 4581 
L 988 3934 
L 425 3934 
z
M 425 0 
L 425 3319 
L 988 3319 
L 988 0 
L 425 0 
z
" transform="scale(0.015625)"/>
       <path id="ArialMT-74" d="M 1650 503 
L 1731 6 
Q 1494 -44 1306 -44 
Q 1000 -44 831 53 
Q 663 150 594 308 
Q 525 466 525 972 
L 525 2881 
L 113 2881 
L 113 3319 
L 525 3319 
L 525 4141 
L 1084 4478 
L 1084 3319 
L 1650 3319 
L 1650 2881 
L 1084 2881 
L 1084 941 
Q 1084 700 1114 631 
Q 1144 563 1211 522 
Q 1278 481 1403 481 
Q 1497 481 1650 503 
z
" transform="scale(0.015625)"/>
       <path id="ArialMT-79" d="M 397 -1278 
L 334 -750 
Q 519 -800 656 -800 
Q 844 -800 956 -737 
Q 1069 -675 1141 -563 
Q 1194 -478 1313 -144 
Q 1328 -97 1363 -6 
L 103 3319 
L 709 3319 
L 1400 1397 
Q 1534 1031 1641 628 
Q 1738 1016 1872 1384 
L 2581 3319 
L 3144 3319 
L 1881 -56 
Q 1678 -603 1566 -809 
Q 1416 -1088 1222 -1217 
Q 1028 -1347 759 -1347 
Q 597 -1347 397 -1278 
z
" transform="scale(0.015625)"/>
      </defs>
      <use xlink:href="#ArialMT-44"/>
      <use xlink:href="#ArialMT-65" x="72.216797"/>
      <use xlink:href="#ArialMT-6e" x="127.832031"/>
      <use xlink:href="#ArialMT-73" x="183.447266"/>
      <use xlink:href="#ArialMT-69" x="233.447266"/>
      <use xlink:href="#ArialMT-74" x="255.664062"/>
      <use xlink:href="#ArialMT-79" x="283.447266"/>
     </g>
    </g>
   </g>
   <g id="PolyCollection_1">
    <defs>
     <path id="mda0208ecd4" d="M 137.270413 -48.849372 
L 137.270413 -48.3125 
L 139.958273 -48.3125 
L 142.646133 -48.3125 
L 145.333993 -48.3125 
L 148.021853 -48.3125 
L 150.709714 -48.3125 
L 153.397574 -48.3125 
L 156.085434 -48.3125 
L 158.773294 -48.3125 
L 161.461154 -48.3125 
L 164.149014 -48.3125 
L 166.836874 -48.3125 
L 169.524734 -48.3125 
L 172.212594 -48.3125 
L 174.900455 -48.3125 
L 177.588315 -48.3125 
L 180.276175 -48.3125 
L 182.964035 -48.3125 
L 185.651895 -48.3125 
L 188.339755 -48.3125 
L 191.027615 -48.3125 
L 193.715475 -48.3125 
L 196.403335 -48.3125 
L 199.091195 -48.3125 
L 201.779056 -48.3125 
L 204.466916 -48.3125 
L 207.154776 -48.3125 
L 209.842636 -48.3125 
L 212.530496 -48.3125 
L 215.218356 -48.3125 
L 217.906216 -48.3125 
L 220.594076 -48.3125 
L 223.281936 -48.3125 
L 225.969797 -48.3125 
L 228.657657 -48.3125 
L 231.345517 -48.3125 
L 234.033377 -48.3125 
L 236.721237 -48.3125 
L 239.409097 -48.3125 
L 242.096957 -48.3125 
L 244.784817 -48.3125 
L 247.472677 -48.3125 
L 250.160537 -48.3125 
L 252.848398 -48.3125 
L 255.536258 -48.3125 
L 258.224118 -48.3125 
L 260.911978 -48.3125 
L 263.599838 -48.3125 
L 266.287698 -48.3125 
L 268.975558 -48.3125 
L 271.663418 -48.3125 
L 274.351278 -48.3125 
L 277.039139 -48.3125 
L 279.726999 -48.3125 
L 282.414859 -48.3125 
L 285.102719 -48.3125 
L 287.790579 -48.3125 
L 290.478439 -48.3125 
L 293.166299 -48.3125 
L 295.854159 -48.3125 
L 298.542019 -48.3125 
L 301.229879 -48.3125 
L 303.91774 -48.3125 
L 306.6056 -48.3125 
L 309.29346 -48.3125 
L 311.98132 -48.3125 
L 314.66918 -48.3125 
L 317.35704 -48.3125 
L 320.0449 -48.3125 
L 322.73276 -48.3125 
L 325.42062 -48.3125 
L 328.10848 -48.3125 
L 330.796341 -48.3125 
L 333.484201 -48.3125 
L 336.172061 -48.3125 
L 338.859921 -48.3125 
L 341.547781 -48.3125 
L 344.235641 -48.3125 
L 346.923501 -48.3125 
L 349.611361 -48.3125 
L 352.299221 -48.3125 
L 354.987082 -48.3125 
L 357.674942 -48.3125 
L 360.362802 -48.3125 
L 363.050662 -48.3125 
L 365.738522 -48.3125 
L 368.426382 -48.3125 
L 371.114242 -48.3125 
L 373.802102 -48.3125 
L 376.489962 -48.3125 
L 379.177822 -48.3125 
L 381.865683 -48.3125 
L 384.553543 -48.3125 
L 387.241403 -48.3125 
L 389.929263 -48.3125 
L 392.617123 -48.3125 
L 395.304983 -48.3125 
L 397.992843 -48.3125 
L 400.680703 -48.3125 
L 403.368563 -48.3125 
L 406.056424 -48.3125 
L 408.744284 -48.3125 
L 411.432144 -48.3125 
L 414.120004 -48.3125 
L 416.807864 -48.3125 
L 419.495724 -48.3125 
L 422.183584 -48.3125 
L 424.871444 -48.3125 
L 427.559304 -48.3125 
L 430.247164 -48.3125 
L 432.935025 -48.3125 
L 435.622885 -48.3125 
L 438.310745 -48.3125 
L 440.998605 -48.3125 
L 443.686465 -48.3125 
L 446.374325 -48.3125 
L 449.062185 -48.3125 
L 451.750045 -48.3125 
L 454.437905 -48.3125 
L 457.125766 -48.3125 
L 459.813626 -48.3125 
L 462.501486 -48.3125 
L 465.189346 -48.3125 
L 467.877206 -48.3125 
L 470.565066 -48.3125 
L 473.252926 -48.3125 
L 475.940786 -48.3125 
L 478.628646 -48.3125 
L 481.316506 -48.3125 
L 484.004367 -48.3125 
L 486.692227 -48.3125 
L 489.380087 -48.3125 
L 492.067947 -48.3125 
L 494.755807 -48.3125 
L 497.443667 -48.3125 
L 500.131527 -48.3125 
L 502.819387 -48.3125 
L 505.507247 -48.3125 
L 508.195107 -48.3125 
L 510.882968 -48.3125 
L 513.570828 -48.3125 
L 516.258688 -48.3125 
L 518.946548 -48.3125 
L 521.634408 -48.3125 
L 524.322268 -48.3125 
L 527.010128 -48.3125 
L 529.697988 -48.3125 
L 532.385848 -48.3125 
L 535.073709 -48.3125 
L 537.761569 -48.3125 
L 540.449429 -48.3125 
L 543.137289 -48.3125 
L 545.825149 -48.3125 
L 548.513009 -48.3125 
L 551.200869 -48.3125 
L 553.888729 -48.3125 
L 556.576589 -48.3125 
L 559.264449 -48.3125 
L 561.95231 -48.3125 
L 564.64017 -48.3125 
L 567.32803 -48.3125 
L 570.01589 -48.3125 
L 572.70375 -48.3125 
L 575.39161 -48.3125 
L 578.07947 -48.3125 
L 580.76733 -48.3125 
L 583.45519 -48.3125 
L 586.143051 -48.3125 
L 588.830911 -48.3125 
L 591.518771 -48.3125 
L 594.206631 -48.3125 
L 596.894491 -48.3125 
L 599.582351 -48.3125 
L 602.270211 -48.3125 
L 604.958071 -48.3125 
L 607.645931 -48.3125 
L 610.333791 -48.3125 
L 613.021652 -48.3125 
L 615.709512 -48.3125 
L 618.397372 -48.3125 
L 621.085232 -48.3125 
L 623.773092 -48.3125 
L 626.460952 -48.3125 
L 629.148812 -48.3125 
L 631.836672 -48.3125 
L 634.524532 -48.3125 
L 637.212393 -48.3125 
L 639.900253 -48.3125 
L 642.588113 -48.3125 
L 645.275973 -48.3125 
L 647.963833 -48.3125 
L 650.651693 -48.3125 
L 653.339553 -48.3125 
L 656.027413 -48.3125 
L 658.715273 -48.3125 
L 661.403133 -48.3125 
L 664.090994 -48.3125 
L 666.778854 -48.3125 
L 669.466714 -48.3125 
L 672.154574 -48.3125 
L 672.154574 -48.671089 
L 672.154574 -48.671089 
L 669.466714 -48.751731 
L 666.778854 -48.848482 
L 664.090994 -48.964086 
L 661.403133 -49.101652 
L 658.715273 -49.264687 
L 656.027413 -49.457115 
L 653.339553 -49.683311 
L 650.651693 -49.948112 
L 647.963833 -50.256842 
L 645.275973 -50.615317 
L 642.588113 -51.029851 
L 639.900253 -51.507249 
L 637.212393 -52.054793 
L 634.524532 -52.68022 
L 631.836672 -53.39168 
L 629.148812 -54.197689 
L 626.460952 -55.107069 
L 623.773092 -56.128864 
L 621.085232 -57.272256 
L 618.397372 -58.546459 
L 615.709512 -59.960598 
L 613.021652 -61.523584 
L 610.333791 -63.243972 
L 607.645931 -65.129812 
L 604.958071 -67.188493 
L 602.270211 -69.426587 
L 599.582351 -71.849688 
L 596.894491 -74.462253 
L 594.206631 -77.267459 
L 591.518771 -80.267059 
L 588.830911 -83.461257 
L 586.143051 -86.848608 
L 583.45519 -90.425923 
L 580.76733 -94.18822 
L 578.07947 -98.128686 
L 575.39161 -102.238676 
L 572.70375 -106.507747 
L 570.01589 -110.923718 
L 567.32803 -115.472766 
L 564.64017 -120.139556 
L 561.95231 -124.9074 
L 559.264449 -129.75844 
L 556.576589 -134.673866 
L 553.888729 -139.634143 
L 551.200869 -144.619262 
L 548.513009 -149.609002 
L 545.825149 -154.583191 
L 543.137289 -159.521981 
L 540.449429 -164.406099 
L 537.761569 -169.217103 
L 535.073709 -173.937615 
L 532.385848 -178.551532 
L 529.697988 -183.044211 
L 527.010128 -187.402634 
L 524.322268 -191.615527 
L 521.634408 -195.673457 
L 518.946548 -199.56889 
L 516.258688 -203.296213 
L 513.570828 -206.851726 
L 510.882968 -210.233595 
L 508.195107 -213.441784 
L 505.507247 -216.47795 
L 502.819387 -219.345321 
L 500.131527 -222.04855 
L 497.443667 -224.593557 
L 494.755807 -226.987357 
L 492.067947 -229.237882 
L 489.380087 -231.353798 
L 486.692227 -233.344329 
L 484.004367 -235.219085 
L 481.316506 -236.987889 
L 478.628646 -238.660633 
L 475.940786 -240.247135 
L 473.252926 -241.757015 
L 470.565066 -243.199596 
L 467.877206 -244.583813 
L 465.189346 -245.918146 
L 462.501486 -247.210575 
L 459.813626 -248.468547 
L 457.125766 -249.698959 
L 454.437905 -250.908163 
L 451.750045 -252.101977 
L 449.062185 -253.28571 
L 446.374325 -254.464195 
L 443.686465 -255.641828 
L 440.998605 -256.822609 
L 438.310745 -258.010186 
L 435.622885 -259.207899 
L 432.935025 -260.418814 
L 430.247164 -261.645763 
L 427.559304 -262.89136 
L 424.871444 -264.158029 
L 422.183584 -265.448006 
L 419.495724 -266.763339 
L 416.807864 -268.105878 
L 414.120004 -269.477252 
L 411.432144 -270.878839 
L 408.744284 -272.311725 
L 406.056424 -273.776659 
L 403.368563 -275.274001 
L 400.680703 -276.803658 
L 397.992843 -278.365031 
L 395.304983 -279.956948 
L 392.617123 -281.577601 
L 389.929263 -283.22449 
L 387.241403 -284.894362 
L 384.553543 -286.583162 
L 381.865683 -288.285987 
L 379.177822 -289.997048 
L 376.489962 -291.709639 
L 373.802102 -293.416119 
L 371.114242 -295.1079 
L 368.426382 -296.775446 
L 365.738522 -298.408285 
L 363.050662 -299.995028 
L 360.362802 -301.523403 
L 357.674942 -302.980293 
L 354.987082 -304.351794 
L 352.299221 -305.623279 
L 349.611361 -306.779468 
L 346.923501 -307.804521 
L 344.235641 -308.682128 
L 341.547781 -309.395623 
L 338.859921 -309.9281 
L 336.172061 -310.262542 
L 333.484201 -310.381969 
L 330.796341 -310.269583 
L 328.10848 -309.908936 
L 325.42062 -309.284103 
L 322.73276 -308.379866 
L 320.0449 -307.181903 
L 317.35704 -305.676989 
L 314.66918 -303.853197 
L 311.98132 -301.700099 
L 309.29346 -299.208977 
L 306.6056 -296.373014 
L 303.91774 -293.187486 
L 301.229879 -289.649944 
L 298.542019 -285.760368 
L 295.854159 -281.521308 
L 293.166299 -276.937997 
L 290.478439 -272.01843 
L 287.790579 -266.773412 
L 285.102719 -261.216566 
L 282.414859 -255.364297 
L 279.726999 -249.235719 
L 277.039139 -242.852532 
L 274.351278 -236.238856 
L 271.663418 -229.421022 
L 268.975558 -222.427324 
L 266.287698 -215.287729 
L 263.599838 -208.033557 
L 260.911978 -200.697131 
L 258.224118 -193.311412 
L 255.536258 -185.909609 
L 252.848398 -178.524793 
L 250.160537 -171.189504 
L 247.472677 -163.935375 
L 244.784817 -156.792767 
L 242.096957 -149.790431 
L 239.409097 -142.955199 
L 236.721237 -136.311713 
L 234.033377 -129.882196 
L 231.345517 -123.686266 
L 228.657657 -117.7408 
L 225.969797 -112.059846 
L 223.281936 -106.654582 
L 220.594076 -101.533325 
L 217.906216 -96.701583 
L 215.218356 -92.162153 
L 212.530496 -87.915251 
L 209.842636 -83.95868 
L 207.154776 -80.288022 
L 204.466916 -76.896855 
L 201.779056 -73.776983 
L 199.091195 -70.918675 
L 196.403335 -68.310917 
L 193.715475 -65.941654 
L 191.027615 -63.798028 
L 188.339755 -61.866611 
L 185.651895 -60.133624 
L 182.964035 -58.585132 
L 180.276175 -57.207231 
L 177.588315 -55.986208 
L 174.900455 -54.908682 
L 172.212594 -53.961723 
L 169.524734 -53.13295 
L 166.836874 -52.41061 
L 164.149014 -51.783635 
L 161.461154 -51.24168 
L 158.773294 -50.775148 
L 156.085434 -50.375198 
L 153.397574 -50.033741 
L 150.709714 -49.743421 
L 148.021853 -49.497597 
L 145.333993 -49.290305 
L 142.646133 -49.116224 
L 139.958273 -48.970634 
L 137.270413 -48.849372 
z
" style="stroke: #2ecc71"/>
    </defs>
    <g clip-path="url(#p36e61e6f39)">
     <use xlink:href="#mda0208ecd4" x="0" y="420.48" style="fill: #2ecc71; fill-opacity: 0.3; stroke: #2ecc71"/>
    </g>
   </g>
   <g id="PolyCollection_2">
    <defs>
     <path id="mc4e88606cf" d="M 89.646051 -49.809716 
L 89.646051 -48.3125 
L 92.348724 -48.3125 
L 95.051396 -48.3125 
L 97.754069 -48.3125 
L 100.456741 -48.3125 
L 103.159414 -48.3125 
L 105.862086 -48.3125 
L 108.564759 -48.3125 
L 111.267431 -48.3125 
L 113.970104 -48.3125 
L 116.672776 -48.3125 
L 119.375449 -48.3125 
L 122.078121 -48.3125 
L 124.780794 -48.3125 
L 127.483467 -48.3125 
L 130.186139 -48.3125 
L 132.888812 -48.3125 
L 135.591484 -48.3125 
L 138.294157 -48.3125 
L 140.996829 -48.3125 
L 143.699502 -48.3125 
L 146.402174 -48.3125 
L 149.104847 -48.3125 
L 151.807519 -48.3125 
L 154.510192 -48.3125 
L 157.212864 -48.3125 
L 159.915537 -48.3125 
L 162.618209 -48.3125 
L 165.320882 -48.3125 
L 168.023554 -48.3125 
L 170.726227 -48.3125 
L 173.428899 -48.3125 
L 176.131572 -48.3125 
L 178.834245 -48.3125 
L 181.536917 -48.3125 
L 184.23959 -48.3125 
L 186.942262 -48.3125 
L 189.644935 -48.3125 
L 192.347607 -48.3125 
L 195.05028 -48.3125 
L 197.752952 -48.3125 
L 200.455625 -48.3125 
L 203.158297 -48.3125 
L 205.86097 -48.3125 
L 208.563642 -48.3125 
L 211.266315 -48.3125 
L 213.968987 -48.3125 
L 216.67166 -48.3125 
L 219.374332 -48.3125 
L 222.077005 -48.3125 
L 224.779677 -48.3125 
L 227.48235 -48.3125 
L 230.185023 -48.3125 
L 232.887695 -48.3125 
L 235.590368 -48.3125 
L 238.29304 -48.3125 
L 240.995713 -48.3125 
L 243.698385 -48.3125 
L 246.401058 -48.3125 
L 249.10373 -48.3125 
L 251.806403 -48.3125 
L 254.509075 -48.3125 
L 257.211748 -48.3125 
L 259.91442 -48.3125 
L 262.617093 -48.3125 
L 265.319765 -48.3125 
L 268.022438 -48.3125 
L 270.72511 -48.3125 
L 273.427783 -48.3125 
L 276.130455 -48.3125 
L 278.833128 -48.3125 
L 281.535801 -48.3125 
L 284.238473 -48.3125 
L 286.941146 -48.3125 
L 289.643818 -48.3125 
L 292.346491 -48.3125 
L 295.049163 -48.3125 
L 297.751836 -48.3125 
L 300.454508 -48.3125 
L 303.157181 -48.3125 
L 305.859853 -48.3125 
L 308.562526 -48.3125 
L 311.265198 -48.3125 
L 313.967871 -48.3125 
L 316.670543 -48.3125 
L 319.373216 -48.3125 
L 322.075888 -48.3125 
L 324.778561 -48.3125 
L 327.481233 -48.3125 
L 330.183906 -48.3125 
L 332.886579 -48.3125 
L 335.589251 -48.3125 
L 338.291924 -48.3125 
L 340.994596 -48.3125 
L 343.697269 -48.3125 
L 346.399941 -48.3125 
L 349.102614 -48.3125 
L 351.805286 -48.3125 
L 354.507959 -48.3125 
L 357.210631 -48.3125 
L 359.913304 -48.3125 
L 362.615976 -48.3125 
L 365.318649 -48.3125 
L 368.021321 -48.3125 
L 370.723994 -48.3125 
L 373.426666 -48.3125 
L 376.129339 -48.3125 
L 378.832011 -48.3125 
L 381.534684 -48.3125 
L 384.237357 -48.3125 
L 386.940029 -48.3125 
L 389.642702 -48.3125 
L 392.345374 -48.3125 
L 395.048047 -48.3125 
L 397.750719 -48.3125 
L 400.453392 -48.3125 
L 403.156064 -48.3125 
L 405.858737 -48.3125 
L 408.561409 -48.3125 
L 411.264082 -48.3125 
L 413.966754 -48.3125 
L 416.669427 -48.3125 
L 419.372099 -48.3125 
L 422.074772 -48.3125 
L 424.777444 -48.3125 
L 427.480117 -48.3125 
L 430.18279 -48.3125 
L 432.885462 -48.3125 
L 435.588135 -48.3125 
L 438.290807 -48.3125 
L 440.99348 -48.3125 
L 443.696152 -48.3125 
L 446.398825 -48.3125 
L 449.101497 -48.3125 
L 451.80417 -48.3125 
L 454.506842 -48.3125 
L 457.209515 -48.3125 
L 459.912187 -48.3125 
L 462.61486 -48.3125 
L 465.317532 -48.3125 
L 468.020205 -48.3125 
L 470.722877 -48.3125 
L 473.42555 -48.3125 
L 476.128222 -48.3125 
L 478.830895 -48.3125 
L 481.533568 -48.3125 
L 484.23624 -48.3125 
L 486.938913 -48.3125 
L 489.641585 -48.3125 
L 492.344258 -48.3125 
L 495.04693 -48.3125 
L 497.749603 -48.3125 
L 500.452275 -48.3125 
L 503.154948 -48.3125 
L 505.85762 -48.3125 
L 508.560293 -48.3125 
L 511.262965 -48.3125 
L 513.965638 -48.3125 
L 516.66831 -48.3125 
L 519.370983 -48.3125 
L 522.073655 -48.3125 
L 524.776328 -48.3125 
L 527.479 -48.3125 
L 530.181673 -48.3125 
L 532.884346 -48.3125 
L 535.587018 -48.3125 
L 538.289691 -48.3125 
L 540.992363 -48.3125 
L 543.695036 -48.3125 
L 546.397708 -48.3125 
L 549.100381 -48.3125 
L 551.803053 -48.3125 
L 554.505726 -48.3125 
L 557.208398 -48.3125 
L 559.911071 -48.3125 
L 562.613743 -48.3125 
L 565.316416 -48.3125 
L 568.019088 -48.3125 
L 570.721761 -48.3125 
L 573.424433 -48.3125 
L 576.127106 -48.3125 
L 578.829778 -48.3125 
L 581.532451 -48.3125 
L 584.235124 -48.3125 
L 586.937796 -48.3125 
L 589.640469 -48.3125 
L 592.343141 -48.3125 
L 595.045814 -48.3125 
L 597.748486 -48.3125 
L 600.451159 -48.3125 
L 603.153831 -48.3125 
L 605.856504 -48.3125 
L 608.559176 -48.3125 
L 611.261849 -48.3125 
L 613.964521 -48.3125 
L 616.667194 -48.3125 
L 619.369866 -48.3125 
L 622.072539 -48.3125 
L 624.775211 -48.3125 
L 627.477884 -48.3125 
L 627.477884 -49.593384 
L 627.477884 -49.593384 
L 624.775211 -49.778821 
L 622.072539 -49.987649 
L 619.369866 -50.222281 
L 616.667194 -50.485296 
L 613.964521 -50.779449 
L 611.261849 -51.107662 
L 608.559176 -51.473029 
L 605.856504 -51.878805 
L 603.153831 -52.328404 
L 600.451159 -52.825388 
L 597.748486 -53.373453 
L 595.045814 -53.976416 
L 592.343141 -54.638195 
L 589.640469 -55.36279 
L 586.937796 -56.154255 
L 584.235124 -57.016671 
L 581.532451 -57.954116 
L 578.829778 -58.970628 
L 576.127106 -60.070165 
L 573.424433 -61.25657 
L 570.721761 -62.533522 
L 568.019088 -63.90449 
L 565.316416 -65.372686 
L 562.613743 -66.941013 
L 559.911071 -68.612018 
L 557.208398 -70.387835 
L 554.505726 -72.270135 
L 551.803053 -74.260078 
L 549.100381 -76.358262 
L 546.397708 -78.564677 
L 543.695036 -80.878663 
L 540.992363 -83.298869 
L 538.289691 -85.823223 
L 535.587018 -88.448906 
L 532.884346 -91.172328 
L 530.181673 -93.989117 
L 527.479 -96.89412 
L 524.776328 -99.881406 
L 522.073655 -102.944281 
L 519.370983 -106.075318 
L 516.66831 -109.266397 
L 513.965638 -112.508749 
L 511.262965 -115.793019 
L 508.560293 -119.109344 
L 505.85762 -122.447425 
L 503.154948 -125.796633 
L 500.452275 -129.146104 
L 497.749603 -132.484856 
L 495.04693 -135.801912 
L 492.344258 -139.086423 
L 489.641585 -142.327807 
L 486.938913 -145.515883 
L 484.23624 -148.641012 
L 481.533568 -151.694239 
L 478.830895 -154.667429 
L 476.128222 -157.553402 
L 473.42555 -160.346066 
L 470.722877 -163.040535 
L 468.020205 -165.633239 
L 465.317532 -168.122031 
L 462.61486 -170.506263 
L 459.912187 -172.786865 
L 457.209515 -174.96639 
L 454.506842 -177.049051 
L 451.80417 -179.040734 
L 449.101497 -180.948988 
L 446.398825 -182.782995 
L 443.696152 -184.553517 
L 440.99348 -186.272818 
L 438.290807 -187.954566 
L 435.588135 -189.613711 
L 432.885462 -191.266341 
L 430.18279 -192.929518 
L 427.480117 -194.621096 
L 424.777444 -196.359519 
L 422.074772 -198.163607 
L 419.372099 -200.052325 
L 416.669427 -202.044545 
L 413.966754 -204.158799 
L 411.264082 -206.413028 
L 408.561409 -208.824327 
L 405.858737 -211.408695 
L 403.156064 -214.180785 
L 400.453392 -217.153671 
L 397.750719 -220.338614 
L 395.048047 -223.744853 
L 392.345374 -227.37941 
L 389.642702 -231.246913 
L 386.940029 -235.349447 
L 384.237357 -239.686422 
L 381.534684 -244.254482 
L 378.832011 -249.04743 
L 376.129339 -254.056191 
L 373.426666 -259.268808 
L 370.723994 -264.670461 
L 368.021321 -270.243532 
L 365.318649 -275.967694 
L 362.615976 -281.820033 
L 359.913304 -287.775201 
L 357.210631 -293.805601 
L 354.507959 -299.881598 
L 351.805286 -305.971752 
L 349.102614 -312.043083 
L 346.399941 -318.061343 
L 343.697269 -323.991318 
L 340.994596 -329.797134 
L 338.291924 -335.442578 
L 335.589251 -340.891424 
L 332.886579 -346.107762 
L 330.183906 -351.056324 
L 327.481233 -355.70281 
L 324.778561 -360.014198 
L 322.075888 -363.959048 
L 319.373216 -367.50779 
L 316.670543 -370.632988 
L 313.967871 -373.309589 
L 311.265198 -375.515144 
L 308.562526 -377.230002 
L 305.859853 -378.43748 
L 303.157181 -379.123993 
L 300.454508 -379.279167 
L 297.751836 -378.895907 
L 295.049163 -377.97044 
L 292.346491 -376.502322 
L 289.643818 -374.494416 
L 286.941146 -371.952837 
L 284.238473 -368.886864 
L 281.535801 -365.308835 
L 278.833128 -361.233998 
L 276.130455 -356.680352 
L 273.427783 -351.668463 
L 270.72511 -346.221252 
L 268.022438 -340.363778 
L 265.319765 -334.122999 
L 262.617093 -327.527525 
L 259.91442 -320.607363 
L 257.211748 -313.393655 
L 254.509075 -305.918415 
L 251.806403 -298.214271 
L 249.10373 -290.3142 
L 246.401058 -282.251278 
L 243.698385 -274.058438 
L 240.995713 -265.768232 
L 238.29304 -257.412611 
L 235.590368 -249.02272 
L 232.887695 -240.628706 
L 230.185023 -232.259542 
L 227.48235 -223.942874 
L 224.779677 -215.704884 
L 222.077005 -207.57017 
L 219.374332 -199.56165 
L 216.67166 -191.700484 
L 213.968987 -184.006012 
L 211.266315 -176.495719 
L 208.563642 -169.185206 
L 205.86097 -162.088194 
L 203.158297 -155.216526 
L 200.455625 -148.580203 
L 197.752952 -142.187422 
L 195.05028 -136.044628 
L 192.347607 -130.156584 
L 189.644935 -124.526445 
L 186.942262 -119.15584 
L 184.23959 -114.044968 
L 181.536917 -109.192694 
L 178.834245 -104.596649 
L 176.131572 -100.253337 
L 173.428899 -96.158242 
L 170.726227 -92.305935 
L 168.023554 -88.69018 
L 165.320882 -85.304041 
L 162.618209 -82.139981 
L 159.915537 -79.189969 
L 157.212864 -76.445568 
L 154.510192 -73.898031 
L 151.807519 -71.538383 
L 149.104847 -69.357505 
L 146.402174 -67.346203 
L 143.699502 -65.495285 
L 140.996829 -63.795613 
L 138.294157 -62.238164 
L 135.591484 -60.814081 
L 132.888812 -59.514713 
L 130.186139 -58.331652 
L 127.483467 -57.25677 
L 124.780794 -56.282237 
L 122.078121 -55.400548 
L 119.375449 -54.60454 
L 116.672776 -53.887396 
L 113.970104 -53.242661 
L 111.267431 -52.664239 
L 108.564759 -52.146398 
L 105.862086 -51.683763 
L 103.159414 -51.271314 
L 100.456741 -50.904375 
L 97.754069 -50.578607 
L 95.051396 -50.289994 
L 92.348724 -50.034833 
L 89.646051 -49.809716 
z
" style="stroke: #e74c3c"/>
    </defs>
    <g clip-path="url(#p36e61e6f39)">
     <use xlink:href="#mc4e88606cf" x="0" y="420.48" style="fill: #e74c3c; fill-opacity: 0.3; stroke: #e74c3c"/>
    </g>
   </g>
   <g id="patch_3">
    <path d="M 60.520625 372.1675 
L 60.520625 24.6525 
" style="fill: none; stroke: #cccccc; stroke-width: 1.5; stroke-linejoin: miter; stroke-linecap: square"/>
   </g>
   <g id="patch_4">
    <path d="M 60.520625 372.1675 
L 701.28 372.1675 
" style="fill: none; stroke: #cccccc; stroke-width: 1.5; stroke-linejoin: miter; stroke-linecap: square"/>
   </g>
   <g id="text_15">
    <!-- Distribution of Absolute Errors -->
    <g style="fill: #262626" transform="translate(275.080312 18.6525) scale(0.16 -0.16)">
     <defs>
      <path id="ArialMT-62" d="M 941 0 
L 419 0 
L 419 4581 
L 981 4581 
L 981 2947 
Q 1338 3394 1891 3394 
Q 2197 3394 2470 3270 
Q 2744 3147 2920 2923 
Q 3097 2700 3197 2384 
Q 3297 2069 3297 1709 
Q 3297 856 2875 390 
Q 2453 -75 1863 -75 
Q 1275 -75 941 416 
L 941 0 
z
M 934 1684 
Q 934 1088 1097 822 
Q 1363 388 1816 388 
Q 2184 388 2453 708 
Q 2722 1028 2722 1663 
Q 2722 2313 2464 2622 
Q 2206 2931 1841 2931 
Q 1472 2931 1203 2611 
Q 934 2291 934 1684 
z
" transform="scale(0.015625)"/>
      <path id="ArialMT-75" d="M 2597 0 
L 2597 488 
Q 2209 -75 1544 -75 
Q 1250 -75 995 37 
Q 741 150 617 320 
Q 494 491 444 738 
Q 409 903 409 1263 
L 409 3319 
L 972 3319 
L 972 1478 
Q 972 1038 1006 884 
Q 1059 663 1231 536 
Q 1403 409 1656 409 
Q 1909 409 2131 539 
Q 2353 669 2445 892 
Q 2538 1116 2538 1541 
L 2538 3319 
L 3100 3319 
L 3100 0 
L 2597 0 
z
" transform="scale(0.015625)"/>
      <path id="ArialMT-66" d="M 556 0 
L 556 2881 
L 59 2881 
L 59 3319 
L 556 3319 
L 556 3672 
Q 556 4006 616 4169 
Q 697 4388 901 4523 
Q 1106 4659 1475 4659 
Q 1713 4659 2000 4603 
L 1916 4113 
Q 1741 4144 1584 4144 
Q 1328 4144 1222 4034 
Q 1116 3925 1116 3625 
L 1116 3319 
L 1763 3319 
L 1763 2881 
L 1116 2881 
L 1116 0 
L 556 0 
z
" transform="scale(0.015625)"/>
      <path id="ArialMT-41" d="M -9 0 
L 1750 4581 
L 2403 4581 
L 4278 0 
L 3588 0 
L 3053 1388 
L 1138 1388 
L 634 0 
L -9 0 
z
M 1313 1881 
L 2866 1881 
L 2388 3150 
Q 2169 3728 2063 4100 
Q 1975 3659 1816 3225 
L 1313 1881 
z
" transform="scale(0.015625)"/>
      <path id="ArialMT-6c" d="M 409 0 
L 409 4581 
L 972 4581 
L 972 0 
L 409 0 
z
" transform="scale(0.015625)"/>
     </defs>
     <use xlink:href="#ArialMT-44"/>
     <use xlink:href="#ArialMT-69" x="72.216797"/>
     <use xlink:href="#ArialMT-73" x="94.433594"/>
     <use xlink:href="#ArialMT-74" x="144.433594"/>
     <use xlink:href="#ArialMT-72" x="172.216797"/>
     <use xlink:href="#ArialMT-69" x="205.517578"/>
     <use xlink:href="#ArialMT-62" x="227.734375"/>
     <use xlink:href="#ArialMT-75" x="283.349609"/>
     <use xlink:href="#ArialMT-74" x="338.964844"/>
     <use xlink:href="#ArialMT-69" x="366.748047"/>
     <use xlink:href="#ArialMT-6f" x="388.964844"/>
     <use xlink:href="#ArialMT-6e" x="444.580078"/>
     <use xlink:href="#ArialMT-20" x="500.195312"/>
     <use xlink:href="#ArialMT-6f" x="527.978516"/>
     <use xlink:href="#ArialMT-66" x="583.59375"/>
     <use xlink:href="#ArialMT-20" x="611.376953"/>
     <use xlink:href="#ArialMT-41" x="633.660156"/>
     <use xlink:href="#ArialMT-62" x="700.359375"/>
     <use xlink:href="#ArialMT-73" x="755.974609"/>
     <use xlink:href="#ArialMT-6f" x="805.974609"/>
     <use xlink:href="#ArialMT-6c" x="861.589844"/>
     <use xlink:href="#ArialMT-75" x="883.806641"/>
     <use xlink:href="#ArialMT-74" x="939.421875"/>
     <use xlink:href="#ArialMT-65" x="967.205078"/>
     <use xlink:href="#ArialMT-20" x="1022.820312"/>
     <use xlink:href="#ArialMT-45" x="1050.603516"/>
     <use xlink:href="#ArialMT-72" x="1117.302734"/>
     <use xlink:href="#ArialMT-72" x="1150.603516"/>
     <use xlink:href="#ArialMT-6f" x="1183.904297"/>
     <use xlink:href="#ArialMT-72" x="1239.519531"/>
     <use xlink:href="#ArialMT-73" x="1272.820312"/>
    </g>
   </g>
   <g id="legend_1">
    <g id="patch_5">
     <path d="M 497.20125 68.775 
L 692.88 68.775 
Q 695.28 68.775 695.28 66.375 
L 695.28 33.0525 
Q 695.28 30.6525 692.88 30.6525 
L 497.20125 30.6525 
Q 494.80125 30.6525 494.80125 33.0525 
L 494.80125 66.375 
Q 494.80125 68.775 497.20125 68.775 
z
" style="fill: #ffffff; opacity: 0.8; stroke: #cccccc; stroke-linejoin: miter"/>
    </g>
    <g id="patch_6">
     <path d="M 499.60125 44.188125 
L 523.60125 44.188125 
L 523.60125 35.788125 
L 499.60125 35.788125 
z
" style="fill: #2ecc71; fill-opacity: 0.3; stroke: #2ecc71; stroke-linejoin: miter"/>
    </g>
    <g id="text_16">
     <!-- Training (μ=1.91%, σ=1.28%) -->
     <g style="fill: #262626" transform="translate(533.20125 44.188125) scale(0.12 -0.12)">
      <defs>
       <path id="ArialMT-54" d="M 1659 0 
L 1659 4041 
L 150 4041 
L 150 4581 
L 3781 4581 
L 3781 4041 
L 2266 4041 
L 2266 0 
L 1659 0 
z
" transform="scale(0.015625)"/>
       <path id="ArialMT-61" d="M 2588 409 
Q 2275 144 1986 34 
Q 1697 -75 1366 -75 
Q 819 -75 525 192 
Q 231 459 231 875 
Q 231 1119 342 1320 
Q 453 1522 633 1644 
Q 813 1766 1038 1828 
Q 1203 1872 1538 1913 
Q 2219 1994 2541 2106 
Q 2544 2222 2544 2253 
Q 2544 2597 2384 2738 
Q 2169 2928 1744 2928 
Q 1347 2928 1158 2789 
Q 969 2650 878 2297 
L 328 2372 
Q 403 2725 575 2942 
Q 747 3159 1072 3276 
Q 1397 3394 1825 3394 
Q 2250 3394 2515 3294 
Q 2781 3194 2906 3042 
Q 3031 2891 3081 2659 
Q 3109 2516 3109 2141 
L 3109 1391 
Q 3109 606 3145 398 
Q 3181 191 3288 0 
L 2700 0 
Q 2613 175 2588 409 
z
M 2541 1666 
Q 2234 1541 1622 1453 
Q 1275 1403 1131 1340 
Q 988 1278 909 1158 
Q 831 1038 831 891 
Q 831 666 1001 516 
Q 1172 366 1500 366 
Q 1825 366 2078 508 
Q 2331 650 2450 897 
Q 2541 1088 2541 1459 
L 2541 1666 
z
" transform="scale(0.015625)"/>
       <path id="ArialMT-67" d="M 319 -275 
L 866 -356 
Q 900 -609 1056 -725 
Q 1266 -881 1628 -881 
Q 2019 -881 2231 -725 
Q 2444 -569 2519 -288 
Q 2563 -116 2559 434 
Q 2191 0 1641 0 
Q 956 0 581 494 
Q 206 988 206 1678 
Q 206 2153 378 2554 
Q 550 2956 876 3175 
Q 1203 3394 1644 3394 
Q 2231 3394 2613 2919 
L 2613 3319 
L 3131 3319 
L 3131 450 
Q 3131 -325 2973 -648 
Q 2816 -972 2473 -1159 
Q 2131 -1347 1631 -1347 
Q 1038 -1347 672 -1080 
Q 306 -813 319 -275 
z
M 784 1719 
Q 784 1066 1043 766 
Q 1303 466 1694 466 
Q 2081 466 2343 764 
Q 2606 1063 2606 1700 
Q 2606 2309 2336 2618 
Q 2066 2928 1684 2928 
Q 1309 2928 1046 2623 
Q 784 2319 784 1719 
z
" transform="scale(0.015625)"/>
       <path id="ArialMT-3bc" d="M 3181 3319 
L 3181 0 
L 2678 0 
L 2678 394 
Q 2516 144 2356 50 
Q 2138 -78 1847 -78 
Q 1588 -78 1388 25 
Q 1238 103 1056 334 
L 1056 -1272 
L 500 -1272 
L 500 3319 
L 1056 3319 
L 1056 1913 
Q 1056 1147 1137 920 
Q 1219 694 1401 562 
Q 1584 431 1822 431 
Q 2072 431 2269 568 
Q 2466 706 2547 923 
Q 2628 1141 2628 1903 
L 2628 3319 
L 3181 3319 
z
" transform="scale(0.015625)"/>
       <path id="ArialMT-3d" d="M 3381 2694 
L 356 2694 
L 356 3219 
L 3381 3219 
L 3381 2694 
z
M 3381 1303 
L 356 1303 
L 356 1828 
L 3381 1828 
L 3381 1303 
z
" transform="scale(0.015625)"/>
       <path id="ArialMT-39" d="M 350 1059 
L 891 1109 
Q 959 728 1153 556 
Q 1347 384 1650 384 
Q 1909 384 2104 503 
Q 2300 622 2425 820 
Q 2550 1019 2634 1356 
Q 2719 1694 2719 2044 
Q 2719 2081 2716 2156 
Q 2547 1888 2255 1720 
Q 1963 1553 1622 1553 
Q 1053 1553 659 1965 
Q 266 2378 266 3053 
Q 266 3750 677 4175 
Q 1088 4600 1706 4600 
Q 2153 4600 2523 4359 
Q 2894 4119 3086 3673 
Q 3278 3228 3278 2384 
Q 3278 1506 3087 986 
Q 2897 466 2520 194 
Q 2144 -78 1638 -78 
Q 1100 -78 759 220 
Q 419 519 350 1059 
z
M 2653 3081 
Q 2653 3566 2395 3850 
Q 2138 4134 1775 4134 
Q 1400 4134 1122 3828 
Q 844 3522 844 3034 
Q 844 2597 1108 2323 
Q 1372 2050 1759 2050 
Q 2150 2050 2401 2323 
Q 2653 2597 2653 3081 
z
" transform="scale(0.015625)"/>
       <path id="ArialMT-2c" d="M 569 0 
L 569 641 
L 1209 641 
L 1209 0 
Q 1209 -353 1084 -570 
Q 959 -788 688 -906 
L 531 -666 
Q 709 -588 793 -436 
Q 878 -284 888 0 
L 569 0 
z
" transform="scale(0.015625)"/>
       <path id="ArialMT-3c3" d="M 3809 3319 
L 3809 2863 
L 2906 2863 
Q 3322 2475 3322 1656 
Q 3322 766 2867 345 
Q 2413 -75 1763 -75 
Q 1088 -75 650 362 
Q 213 800 213 1659 
Q 213 2544 667 2969 
Q 1122 3394 1763 3394 
Q 1997 3394 2294 3319 
L 3809 3319 
z
M 1753 2928 
Q 1344 2928 1067 2609 
Q 791 2291 791 1656 
Q 791 1025 1061 706 
Q 1331 388 1763 388 
Q 2216 388 2483 720 
Q 2750 1053 2750 1659 
Q 2750 2213 2504 2570 
Q 2259 2928 1753 2928 
z
" transform="scale(0.015625)"/>
       <path id="ArialMT-38" d="M 1131 2484 
Q 781 2613 612 2850 
Q 444 3088 444 3419 
Q 444 3919 803 4259 
Q 1163 4600 1759 4600 
Q 2359 4600 2725 4251 
Q 3091 3903 3091 3403 
Q 3091 3084 2923 2848 
Q 2756 2613 2416 2484 
Q 2838 2347 3058 2040 
Q 3278 1734 3278 1309 
Q 3278 722 2862 322 
Q 2447 -78 1769 -78 
Q 1091 -78 675 323 
Q 259 725 259 1325 
Q 259 1772 486 2073 
Q 713 2375 1131 2484 
z
M 1019 3438 
Q 1019 3113 1228 2906 
Q 1438 2700 1772 2700 
Q 2097 2700 2305 2904 
Q 2513 3109 2513 3406 
Q 2513 3716 2298 3927 
Q 2084 4138 1766 4138 
Q 1444 4138 1231 3931 
Q 1019 3725 1019 3438 
z
M 838 1322 
Q 838 1081 952 856 
Q 1066 631 1291 507 
Q 1516 384 1775 384 
Q 2178 384 2440 643 
Q 2703 903 2703 1303 
Q 2703 1709 2433 1975 
Q 2163 2241 1756 2241 
Q 1359 2241 1098 1978 
Q 838 1716 838 1322 
z
" transform="scale(0.015625)"/>
      </defs>
      <use xlink:href="#ArialMT-54"/>
      <use xlink:href="#ArialMT-72" x="57.333984"/>
      <use xlink:href="#ArialMT-61" x="90.634766"/>
      <use xlink:href="#ArialMT-69" x="146.25"/>
      <use xlink:href="#ArialMT-6e" x="168.466797"/>
      <use xlink:href="#ArialMT-69" x="224.082031"/>
      <use xlink:href="#ArialMT-6e" x="246.298828"/>
      <use xlink:href="#ArialMT-67" x="301.914062"/>
      <use xlink:href="#ArialMT-20" x="357.529297"/>
      <use xlink:href="#ArialMT-28" x="385.3125"/>
      <use xlink:href="#ArialMT-3bc" x="418.613281"/>
      <use xlink:href="#ArialMT-3d" x="476.230469"/>
      <use xlink:href="#ArialMT-31" x="534.628906"/>
      <use xlink:href="#ArialMT-2e" x="590.244141"/>
      <use xlink:href="#ArialMT-39" x="618.027344"/>
      <use xlink:href="#ArialMT-31" x="673.642578"/>
      <use xlink:href="#ArialMT-25" x="729.257812"/>
      <use xlink:href="#ArialMT-2c" x="818.173828"/>
      <use xlink:href="#ArialMT-20" x="845.957031"/>
      <use xlink:href="#ArialMT-3c3" x="873.740234"/>
      <use xlink:href="#ArialMT-3d" x="935.458984"/>
      <use xlink:href="#ArialMT-31" x="993.857422"/>
      <use xlink:href="#ArialMT-2e" x="1049.472656"/>
      <use xlink:href="#ArialMT-32" x="1077.255859"/>
      <use xlink:href="#ArialMT-38" x="1132.871094"/>
      <use xlink:href="#ArialMT-25" x="1188.486328"/>
      <use xlink:href="#ArialMT-29" x="1277.402344"/>
     </g>
    </g>
    <g id="patch_7">
     <path d="M 499.60125 61.449375 
L 523.60125 61.449375 
L 523.60125 53.049375 
L 499.60125 53.049375 
z
" style="fill: #e74c3c; fill-opacity: 0.3; stroke: #e74c3c; stroke-linejoin: miter"/>
    </g>
    <g id="text_17">
     <!-- Testing (μ=1.08%, σ=1.17%) -->
     <g style="fill: #262626" transform="translate(533.20125 61.449375) scale(0.12 -0.12)">
      <defs>
       <path id="ArialMT-37" d="M 303 3981 
L 303 4522 
L 3269 4522 
L 3269 4084 
Q 2831 3619 2401 2847 
Q 1972 2075 1738 1259 
Q 1569 684 1522 0 
L 944 0 
Q 953 541 1156 1306 
Q 1359 2072 1739 2783 
Q 2119 3494 2547 3981 
L 303 3981 
z
" transform="scale(0.015625)"/>
      </defs>
      <use xlink:href="#ArialMT-54"/>
      <use xlink:href="#ArialMT-65" x="49.958984"/>
      <use xlink:href="#ArialMT-73" x="105.574219"/>
      <use xlink:href="#ArialMT-74" x="155.574219"/>
      <use xlink:href="#ArialMT-69" x="183.357422"/>
      <use xlink:href="#ArialMT-6e" x="205.574219"/>
      <use xlink:href="#ArialMT-67" x="261.189453"/>
      <use xlink:href="#ArialMT-20" x="316.804688"/>
      <use xlink:href="#ArialMT-28" x="344.587891"/>
      <use xlink:href="#ArialMT-3bc" x="377.888672"/>
      <use xlink:href="#ArialMT-3d" x="435.505859"/>
      <use xlink:href="#ArialMT-31" x="493.904297"/>
      <use xlink:href="#ArialMT-2e" x="549.519531"/>
      <use xlink:href="#ArialMT-30" x="577.302734"/>
      <use xlink:href="#ArialMT-38" x="632.917969"/>
      <use xlink:href="#ArialMT-25" x="688.533203"/>
      <use xlink:href="#ArialMT-2c" x="777.449219"/>
      <use xlink:href="#ArialMT-20" x="805.232422"/>
      <use xlink:href="#ArialMT-3c3" x="833.015625"/>
      <use xlink:href="#ArialMT-3d" x="894.734375"/>
      <use xlink:href="#ArialMT-31" x="953.132812"/>
      <use xlink:href="#ArialMT-2e" x="1008.748047"/>
      <use xlink:href="#ArialMT-31" x="1036.53125"/>
      <use xlink:href="#ArialMT-37" x="1092.146484"/>
      <use xlink:href="#ArialMT-25" x="1147.761719"/>
      <use xlink:href="#ArialMT-29" x="1236.677734"/>
     </g>
    </g>
   </g>
  </g>
 </g>
 <defs>
  <clipPath id="p36e61e6f39">
   <rect x="60.520625" y="24.6525" width="640.759375" height="347.515"/>
  </clipPath>
 </defs>
</svg>
