<?xml version="1.0" encoding="utf-8" standalone="no"?>
<!DOCTYPE svg PUBLIC "-//W3C//DTD SVG 1.1//EN"
  "http://www.w3.org/Graphics/SVG/1.1/DTD/svg11.dtd">
<svg xmlns:xlink="http://www.w3.org/1999/xlink" width="708.48pt" height="420.48pt" viewBox="0 0 708.48 420.48" xmlns="http://www.w3.org/2000/svg" version="1.1">
 <metadata>
  <rdf:RDF xmlns:dc="http://purl.org/dc/elements/1.1/" xmlns:cc="http://creativecommons.org/ns#" xmlns:rdf="http://www.w3.org/1999/02/22-rdf-syntax-ns#">
   <cc:Work>
    <dc:type rdf:resource="http://purl.org/dc/dcmitype/StillImage"/>
    <dc:date>2025-01-07T20:54:02.053179</dc:date>
    <dc:format>image/svg+xml</dc:format>
    <dc:creator>
     <cc:Agent>
      <dc:title>Matplotlib v3.9.3, https://matplotlib.org/</dc:title>
     </cc:Agent>
    </dc:creator>
   </cc:Work>
  </rdf:RDF>
 </metadata>
 <defs>
  <style type="text/css">*{stroke-linejoin: round; stroke-linecap: butt}</style>
 </defs>
 <g id="figure_1">
  <g id="patch_1">
   <path d="M 0 420.48 
L 708.48 420.48 
L 708.48 -0 
L 0 -0 
z
" style="fill: #ffffff"/>
  </g>
  <g id="axes_1">
   <g id="patch_2">
    <path d="M 60.520625 372.1675 
L 701.28 372.1675 
L 701.28 24.6525 
L 60.520625 24.6525 
z
" style="fill: #ffffff"/>
   </g>
   <g id="matplotlib.axis_1">
    <g id="xtick_1">
     <g id="line2d_1">
      <path d="M 100.596138 372.1675 
L 100.596138 24.6525 
" clip-path="url(#p77a4a280ca)" style="fill: none; stroke: #cccccc; stroke-opacity: 0.3; stroke-width: 0.5; stroke-linecap: round"/>
     </g>
     <g id="text_1">
      <!-- −2 -->
      <g style="fill: #262626" transform="translate(93.755201 387.756875) scale(0.12 -0.12)">
       <defs>
        <path id="ArialMT-2212" d="M 3381 1997 
L 356 1997 
L 356 2522 
L 3381 2522 
L 3381 1997 
z
" transform="scale(0.015625)"/>
        <path id="ArialMT-32" d="M 3222 541 
L 3222 0 
L 194 0 
Q 188 203 259 391 
Q 375 700 629 1000 
Q 884 1300 1366 1694 
Q 2113 2306 2375 2664 
Q 2638 3022 2638 3341 
Q 2638 3675 2398 3904 
Q 2159 4134 1775 4134 
Q 1369 4134 1125 3890 
Q 881 3647 878 3216 
L 300 3275 
Q 359 3922 746 4261 
Q 1134 4600 1788 4600 
Q 2447 4600 2831 4234 
Q 3216 3869 3216 3328 
Q 3216 3053 3103 2787 
Q 2991 2522 2730 2228 
Q 2469 1934 1863 1422 
Q 1356 997 1212 845 
Q 1069 694 975 541 
L 3222 541 
z
" transform="scale(0.015625)"/>
       </defs>
       <use xlink:href="#ArialMT-2212"/>
       <use xlink:href="#ArialMT-32" x="58.398438"/>
      </g>
     </g>
    </g>
    <g id="xtick_2">
     <g id="line2d_2">
      <path d="M 235.976332 372.1675 
L 235.976332 24.6525 
" clip-path="url(#p77a4a280ca)" style="fill: none; stroke: #cccccc; stroke-opacity: 0.3; stroke-width: 0.5; stroke-linecap: round"/>
     </g>
     <g id="text_2">
      <!-- 0 -->
      <g style="fill: #262626" transform="translate(232.639769 387.756875) scale(0.12 -0.12)">
       <defs>
        <path id="ArialMT-30" d="M 266 2259 
Q 266 3072 433 3567 
Q 600 4063 929 4331 
Q 1259 4600 1759 4600 
Q 2128 4600 2406 4451 
Q 2684 4303 2865 4023 
Q 3047 3744 3150 3342 
Q 3253 2941 3253 2259 
Q 3253 1453 3087 958 
Q 2922 463 2592 192 
Q 2263 -78 1759 -78 
Q 1097 -78 719 397 
Q 266 969 266 2259 
z
M 844 2259 
Q 844 1131 1108 757 
Q 1372 384 1759 384 
Q 2147 384 2411 759 
Q 2675 1134 2675 2259 
Q 2675 3391 2411 3762 
Q 2147 4134 1753 4134 
Q 1366 4134 1134 3806 
Q 844 3388 844 2259 
z
" transform="scale(0.015625)"/>
       </defs>
       <use xlink:href="#ArialMT-30"/>
      </g>
     </g>
    </g>
    <g id="xtick_3">
     <g id="line2d_3">
      <path d="M 371.356526 372.1675 
L 371.356526 24.6525 
" clip-path="url(#p77a4a280ca)" style="fill: none; stroke: #cccccc; stroke-opacity: 0.3; stroke-width: 0.5; stroke-linecap: round"/>
     </g>
     <g id="text_3">
      <!-- 2 -->
      <g style="fill: #262626" transform="translate(368.019963 387.756875) scale(0.12 -0.12)">
       <use xlink:href="#ArialMT-32"/>
      </g>
     </g>
    </g>
    <g id="xtick_4">
     <g id="line2d_4">
      <path d="M 506.736719 372.1675 
L 506.736719 24.6525 
" clip-path="url(#p77a4a280ca)" style="fill: none; stroke: #cccccc; stroke-opacity: 0.3; stroke-width: 0.5; stroke-linecap: round"/>
     </g>
     <g id="text_4">
      <!-- 4 -->
      <g style="fill: #262626" transform="translate(503.400157 387.756875) scale(0.12 -0.12)">
       <defs>
        <path id="ArialMT-34" d="M 2069 0 
L 2069 1097 
L 81 1097 
L 81 1613 
L 2172 4581 
L 2631 4581 
L 2631 1613 
L 3250 1613 
L 3250 1097 
L 2631 1097 
L 2631 0 
L 2069 0 
z
M 2069 1613 
L 2069 3678 
L 634 1613 
L 2069 1613 
z
" transform="scale(0.015625)"/>
       </defs>
       <use xlink:href="#ArialMT-34"/>
      </g>
     </g>
    </g>
    <g id="xtick_5">
     <g id="line2d_5">
      <path d="M 642.116913 372.1675 
L 642.116913 24.6525 
" clip-path="url(#p77a4a280ca)" style="fill: none; stroke: #cccccc; stroke-opacity: 0.3; stroke-width: 0.5; stroke-linecap: round"/>
     </g>
     <g id="text_5">
      <!-- 6 -->
      <g style="fill: #262626" transform="translate(638.78035 387.756875) scale(0.12 -0.12)">
       <defs>
        <path id="ArialMT-36" d="M 3184 3459 
L 2625 3416 
Q 2550 3747 2413 3897 
Q 2184 4138 1850 4138 
Q 1581 4138 1378 3988 
Q 1113 3794 959 3422 
Q 806 3050 800 2363 
Q 1003 2672 1297 2822 
Q 1591 2972 1913 2972 
Q 2475 2972 2870 2558 
Q 3266 2144 3266 1488 
Q 3266 1056 3080 686 
Q 2894 316 2569 119 
Q 2244 -78 1831 -78 
Q 1128 -78 684 439 
Q 241 956 241 2144 
Q 241 3472 731 4075 
Q 1159 4600 1884 4600 
Q 2425 4600 2770 4297 
Q 3116 3994 3184 3459 
z
M 888 1484 
Q 888 1194 1011 928 
Q 1134 663 1356 523 
Q 1578 384 1822 384 
Q 2178 384 2434 671 
Q 2691 959 2691 1453 
Q 2691 1928 2437 2201 
Q 2184 2475 1800 2475 
Q 1419 2475 1153 2201 
Q 888 1928 888 1484 
z
" transform="scale(0.015625)"/>
       </defs>
       <use xlink:href="#ArialMT-36"/>
      </g>
     </g>
    </g>
    <g id="text_6">
     <!-- Error (%) -->
     <g style="fill: #262626" transform="translate(352.515312 410.333438) scale(0.14 -0.14)">
      <defs>
       <path id="ArialMT-45" d="M 506 0 
L 506 4581 
L 3819 4581 
L 3819 4041 
L 1113 4041 
L 1113 2638 
L 3647 2638 
L 3647 2100 
L 1113 2100 
L 1113 541 
L 3925 541 
L 3925 0 
L 506 0 
z
" transform="scale(0.015625)"/>
       <path id="ArialMT-72" d="M 416 0 
L 416 3319 
L 922 3319 
L 922 2816 
Q 1116 3169 1280 3281 
Q 1444 3394 1641 3394 
Q 1925 3394 2219 3213 
L 2025 2691 
Q 1819 2813 1613 2813 
Q 1428 2813 1281 2702 
Q 1134 2591 1072 2394 
Q 978 2094 978 1738 
L 978 0 
L 416 0 
z
" transform="scale(0.015625)"/>
       <path id="ArialMT-6f" d="M 213 1659 
Q 213 2581 725 3025 
Q 1153 3394 1769 3394 
Q 2453 3394 2887 2945 
Q 3322 2497 3322 1706 
Q 3322 1066 3130 698 
Q 2938 331 2570 128 
Q 2203 -75 1769 -75 
Q 1072 -75 642 372 
Q 213 819 213 1659 
z
M 791 1659 
Q 791 1022 1069 705 
Q 1347 388 1769 388 
Q 2188 388 2466 706 
Q 2744 1025 2744 1678 
Q 2744 2294 2464 2611 
Q 2184 2928 1769 2928 
Q 1347 2928 1069 2612 
Q 791 2297 791 1659 
z
" transform="scale(0.015625)"/>
       <path id="ArialMT-20" transform="scale(0.015625)"/>
       <path id="ArialMT-28" d="M 1497 -1347 
Q 1031 -759 709 28 
Q 388 816 388 1659 
Q 388 2403 628 3084 
Q 909 3875 1497 4659 
L 1900 4659 
Q 1522 4009 1400 3731 
Q 1209 3300 1100 2831 
Q 966 2247 966 1656 
Q 966 153 1900 -1347 
L 1497 -1347 
z
" transform="scale(0.015625)"/>
       <path id="ArialMT-25" d="M 372 3481 
Q 372 3972 619 4315 
Q 866 4659 1334 4659 
Q 1766 4659 2048 4351 
Q 2331 4044 2331 3447 
Q 2331 2866 2045 2552 
Q 1759 2238 1341 2238 
Q 925 2238 648 2547 
Q 372 2856 372 3481 
z
M 1350 4272 
Q 1141 4272 1002 4090 
Q 863 3909 863 3425 
Q 863 2984 1003 2804 
Q 1144 2625 1350 2625 
Q 1563 2625 1702 2806 
Q 1841 2988 1841 3469 
Q 1841 3913 1700 4092 
Q 1559 4272 1350 4272 
z
M 1353 -169 
L 3859 4659 
L 4316 4659 
L 1819 -169 
L 1353 -169 
z
M 3334 1075 
Q 3334 1569 3581 1911 
Q 3828 2253 4300 2253 
Q 4731 2253 5014 1945 
Q 5297 1638 5297 1041 
Q 5297 459 5011 145 
Q 4725 -169 4303 -169 
Q 3888 -169 3611 142 
Q 3334 453 3334 1075 
z
M 4316 1866 
Q 4103 1866 3964 1684 
Q 3825 1503 3825 1019 
Q 3825 581 3965 400 
Q 4106 219 4313 219 
Q 4528 219 4667 400 
Q 4806 581 4806 1063 
Q 4806 1506 4665 1686 
Q 4525 1866 4316 1866 
z
" transform="scale(0.015625)"/>
       <path id="ArialMT-29" d="M 791 -1347 
L 388 -1347 
Q 1322 153 1322 1656 
Q 1322 2244 1188 2822 
Q 1081 3291 891 3722 
Q 769 4003 388 4659 
L 791 4659 
Q 1378 3875 1659 3084 
Q 1900 2403 1900 1659 
Q 1900 816 1576 28 
Q 1253 -759 791 -1347 
z
" transform="scale(0.015625)"/>
      </defs>
      <use xlink:href="#ArialMT-45"/>
      <use xlink:href="#ArialMT-72" x="66.699219"/>
      <use xlink:href="#ArialMT-72" x="100"/>
      <use xlink:href="#ArialMT-6f" x="133.300781"/>
      <use xlink:href="#ArialMT-72" x="188.916016"/>
      <use xlink:href="#ArialMT-20" x="222.216797"/>
      <use xlink:href="#ArialMT-28" x="250"/>
      <use xlink:href="#ArialMT-25" x="283.300781"/>
      <use xlink:href="#ArialMT-29" x="372.216797"/>
     </g>
    </g>
   </g>
   <g id="matplotlib.axis_2">
    <g id="ytick_1">
     <g id="line2d_6">
      <path d="M 60.520625 372.1675 
L 701.28 372.1675 
" clip-path="url(#p77a4a280ca)" style="fill: none; stroke: #cccccc; stroke-opacity: 0.3; stroke-width: 0.5; stroke-linecap: round"/>
     </g>
     <g id="text_7">
      <!-- 0.00 -->
      <g style="fill: #262626" transform="translate(30.1675 376.462188) scale(0.12 -0.12)">
       <defs>
        <path id="ArialMT-2e" d="M 581 0 
L 581 641 
L 1222 641 
L 1222 0 
L 581 0 
z
" transform="scale(0.015625)"/>
       </defs>
       <use xlink:href="#ArialMT-30"/>
       <use xlink:href="#ArialMT-2e" x="55.615234"/>
       <use xlink:href="#ArialMT-30" x="83.398438"/>
       <use xlink:href="#ArialMT-30" x="139.013672"/>
      </g>
     </g>
    </g>
    <g id="ytick_2">
     <g id="line2d_7">
      <path d="M 60.520625 316.955965 
L 701.28 316.955965 
" clip-path="url(#p77a4a280ca)" style="fill: none; stroke: #cccccc; stroke-opacity: 0.3; stroke-width: 0.5; stroke-linecap: round"/>
     </g>
     <g id="text_8">
      <!-- 0.05 -->
      <g style="fill: #262626" transform="translate(30.1675 321.250653) scale(0.12 -0.12)">
       <defs>
        <path id="ArialMT-35" d="M 266 1200 
L 856 1250 
Q 922 819 1161 601 
Q 1400 384 1738 384 
Q 2144 384 2425 690 
Q 2706 997 2706 1503 
Q 2706 1984 2436 2262 
Q 2166 2541 1728 2541 
Q 1456 2541 1237 2417 
Q 1019 2294 894 2097 
L 366 2166 
L 809 4519 
L 3088 4519 
L 3088 3981 
L 1259 3981 
L 1013 2750 
Q 1425 3038 1878 3038 
Q 2478 3038 2890 2622 
Q 3303 2206 3303 1553 
Q 3303 931 2941 478 
Q 2500 -78 1738 -78 
Q 1113 -78 717 272 
Q 322 622 266 1200 
z
" transform="scale(0.015625)"/>
       </defs>
       <use xlink:href="#ArialMT-30"/>
       <use xlink:href="#ArialMT-2e" x="55.615234"/>
       <use xlink:href="#ArialMT-30" x="83.398438"/>
       <use xlink:href="#ArialMT-35" x="139.013672"/>
      </g>
     </g>
    </g>
    <g id="ytick_3">
     <g id="line2d_8">
      <path d="M 60.520625 261.744431 
L 701.28 261.744431 
" clip-path="url(#p77a4a280ca)" style="fill: none; stroke: #cccccc; stroke-opacity: 0.3; stroke-width: 0.5; stroke-linecap: round"/>
     </g>
     <g id="text_9">
      <!-- 0.10 -->
      <g style="fill: #262626" transform="translate(30.1675 266.039118) scale(0.12 -0.12)">
       <defs>
        <path id="ArialMT-31" d="M 2384 0 
L 1822 0 
L 1822 3584 
Q 1619 3391 1289 3197 
Q 959 3003 697 2906 
L 697 3450 
Q 1169 3672 1522 3987 
Q 1875 4303 2022 4600 
L 2384 4600 
L 2384 0 
z
" transform="scale(0.015625)"/>
       </defs>
       <use xlink:href="#ArialMT-30"/>
       <use xlink:href="#ArialMT-2e" x="55.615234"/>
       <use xlink:href="#ArialMT-31" x="83.398438"/>
       <use xlink:href="#ArialMT-30" x="139.013672"/>
      </g>
     </g>
    </g>
    <g id="ytick_4">
     <g id="line2d_9">
      <path d="M 60.520625 206.532896 
L 701.28 206.532896 
" clip-path="url(#p77a4a280ca)" style="fill: none; stroke: #cccccc; stroke-opacity: 0.3; stroke-width: 0.5; stroke-linecap: round"/>
     </g>
     <g id="text_10">
      <!-- 0.15 -->
      <g style="fill: #262626" transform="translate(30.1675 210.827584) scale(0.12 -0.12)">
       <use xlink:href="#ArialMT-30"/>
       <use xlink:href="#ArialMT-2e" x="55.615234"/>
       <use xlink:href="#ArialMT-31" x="83.398438"/>
       <use xlink:href="#ArialMT-35" x="139.013672"/>
      </g>
     </g>
    </g>
    <g id="ytick_5">
     <g id="line2d_10">
      <path d="M 60.520625 151.321362 
L 701.28 151.321362 
" clip-path="url(#p77a4a280ca)" style="fill: none; stroke: #cccccc; stroke-opacity: 0.3; stroke-width: 0.5; stroke-linecap: round"/>
     </g>
     <g id="text_11">
      <!-- 0.20 -->
      <g style="fill: #262626" transform="translate(30.1675 155.616049) scale(0.12 -0.12)">
       <use xlink:href="#ArialMT-30"/>
       <use xlink:href="#ArialMT-2e" x="55.615234"/>
       <use xlink:href="#ArialMT-32" x="83.398438"/>
       <use xlink:href="#ArialMT-30" x="139.013672"/>
      </g>
     </g>
    </g>
    <g id="ytick_6">
     <g id="line2d_11">
      <path d="M 60.520625 96.109827 
L 701.28 96.109827 
" clip-path="url(#p77a4a280ca)" style="fill: none; stroke: #cccccc; stroke-opacity: 0.3; stroke-width: 0.5; stroke-linecap: round"/>
     </g>
     <g id="text_12">
      <!-- 0.25 -->
      <g style="fill: #262626" transform="translate(30.1675 100.404514) scale(0.12 -0.12)">
       <use xlink:href="#ArialMT-30"/>
       <use xlink:href="#ArialMT-2e" x="55.615234"/>
       <use xlink:href="#ArialMT-32" x="83.398438"/>
       <use xlink:href="#ArialMT-35" x="139.013672"/>
      </g>
     </g>
    </g>
    <g id="ytick_7">
     <g id="line2d_12">
      <path d="M 60.520625 40.898292 
L 701.28 40.898292 
" clip-path="url(#p77a4a280ca)" style="fill: none; stroke: #cccccc; stroke-opacity: 0.3; stroke-width: 0.5; stroke-linecap: round"/>
     </g>
     <g id="text_13">
      <!-- 0.30 -->
      <g style="fill: #262626" transform="translate(30.1675 45.19298) scale(0.12 -0.12)">
       <defs>
        <path id="ArialMT-33" d="M 269 1209 
L 831 1284 
Q 928 806 1161 595 
Q 1394 384 1728 384 
Q 2125 384 2398 659 
Q 2672 934 2672 1341 
Q 2672 1728 2419 1979 
Q 2166 2231 1775 2231 
Q 1616 2231 1378 2169 
L 1441 2663 
Q 1497 2656 1531 2656 
Q 1891 2656 2178 2843 
Q 2466 3031 2466 3422 
Q 2466 3731 2256 3934 
Q 2047 4138 1716 4138 
Q 1388 4138 1169 3931 
Q 950 3725 888 3313 
L 325 3413 
Q 428 3978 793 4289 
Q 1159 4600 1703 4600 
Q 2078 4600 2393 4439 
Q 2709 4278 2876 4000 
Q 3044 3722 3044 3409 
Q 3044 3113 2884 2869 
Q 2725 2625 2413 2481 
Q 2819 2388 3044 2092 
Q 3269 1797 3269 1353 
Q 3269 753 2831 336 
Q 2394 -81 1725 -81 
Q 1122 -81 723 278 
Q 325 638 269 1209 
z
" transform="scale(0.015625)"/>
       </defs>
       <use xlink:href="#ArialMT-30"/>
       <use xlink:href="#ArialMT-2e" x="55.615234"/>
       <use xlink:href="#ArialMT-33" x="83.398438"/>
       <use xlink:href="#ArialMT-30" x="139.013672"/>
      </g>
     </g>
    </g>
    <g id="text_14">
     <!-- Density -->
     <g style="fill: #262626" transform="translate(17.220938 221.750625) rotate(-90) scale(0.14 -0.14)">
      <defs>
       <path id="ArialMT-44" d="M 494 0 
L 494 4581 
L 2072 4581 
Q 2606 4581 2888 4516 
Q 3281 4425 3559 4188 
Q 3922 3881 4101 3404 
Q 4281 2928 4281 2316 
Q 4281 1794 4159 1391 
Q 4038 988 3847 723 
Q 3656 459 3429 307 
Q 3203 156 2883 78 
Q 2563 0 2147 0 
L 494 0 
z
M 1100 541 
L 2078 541 
Q 2531 541 2789 625 
Q 3047 709 3200 863 
Q 3416 1078 3536 1442 
Q 3656 1806 3656 2325 
Q 3656 3044 3420 3430 
Q 3184 3816 2847 3947 
Q 2603 4041 2063 4041 
L 1100 4041 
L 1100 541 
z
" transform="scale(0.015625)"/>
       <path id="ArialMT-65" d="M 2694 1069 
L 3275 997 
Q 3138 488 2766 206 
Q 2394 -75 1816 -75 
Q 1088 -75 661 373 
Q 234 822 234 1631 
Q 234 2469 665 2931 
Q 1097 3394 1784 3394 
Q 2450 3394 2872 2941 
Q 3294 2488 3294 1666 
Q 3294 1616 3291 1516 
L 816 1516 
Q 847 969 1125 678 
Q 1403 388 1819 388 
Q 2128 388 2347 550 
Q 2566 713 2694 1069 
z
M 847 1978 
L 2700 1978 
Q 2663 2397 2488 2606 
Q 2219 2931 1791 2931 
Q 1403 2931 1139 2672 
Q 875 2413 847 1978 
z
" transform="scale(0.015625)"/>
       <path id="ArialMT-6e" d="M 422 0 
L 422 3319 
L 928 3319 
L 928 2847 
Q 1294 3394 1984 3394 
Q 2284 3394 2536 3286 
Q 2788 3178 2913 3003 
Q 3038 2828 3088 2588 
Q 3119 2431 3119 2041 
L 3119 0 
L 2556 0 
L 2556 2019 
Q 2556 2363 2490 2533 
Q 2425 2703 2258 2804 
Q 2091 2906 1866 2906 
Q 1506 2906 1245 2678 
Q 984 2450 984 1813 
L 984 0 
L 422 0 
z
" transform="scale(0.015625)"/>
       <path id="ArialMT-73" d="M 197 991 
L 753 1078 
Q 800 744 1014 566 
Q 1228 388 1613 388 
Q 2000 388 2187 545 
Q 2375 703 2375 916 
Q 2375 1106 2209 1216 
Q 2094 1291 1634 1406 
Q 1016 1563 777 1677 
Q 538 1791 414 1992 
Q 291 2194 291 2438 
Q 291 2659 392 2848 
Q 494 3038 669 3163 
Q 800 3259 1026 3326 
Q 1253 3394 1513 3394 
Q 1903 3394 2198 3281 
Q 2494 3169 2634 2976 
Q 2775 2784 2828 2463 
L 2278 2388 
Q 2241 2644 2061 2787 
Q 1881 2931 1553 2931 
Q 1166 2931 1000 2803 
Q 834 2675 834 2503 
Q 834 2394 903 2306 
Q 972 2216 1119 2156 
Q 1203 2125 1616 2013 
Q 2213 1853 2448 1751 
Q 2684 1650 2818 1456 
Q 2953 1263 2953 975 
Q 2953 694 2789 445 
Q 2625 197 2315 61 
Q 2006 -75 1616 -75 
Q 969 -75 630 194 
Q 291 463 197 991 
z
" transform="scale(0.015625)"/>
       <path id="ArialMT-69" d="M 425 3934 
L 425 4581 
L 988 4581 
L 988 3934 
L 425 3934 
z
M 425 0 
L 425 3319 
L 988 3319 
L 988 0 
L 425 0 
z
" transform="scale(0.015625)"/>
       <path id="ArialMT-74" d="M 1650 503 
L 1731 6 
Q 1494 -44 1306 -44 
Q 1000 -44 831 53 
Q 663 150 594 308 
Q 525 466 525 972 
L 525 2881 
L 113 2881 
L 113 3319 
L 525 3319 
L 525 4141 
L 1084 4478 
L 1084 3319 
L 1650 3319 
L 1650 2881 
L 1084 2881 
L 1084 941 
Q 1084 700 1114 631 
Q 1144 563 1211 522 
Q 1278 481 1403 481 
Q 1497 481 1650 503 
z
" transform="scale(0.015625)"/>
       <path id="ArialMT-79" d="M 397 -1278 
L 334 -750 
Q 519 -800 656 -800 
Q 844 -800 956 -737 
Q 1069 -675 1141 -563 
Q 1194 -478 1313 -144 
Q 1328 -97 1363 -6 
L 103 3319 
L 709 3319 
L 1400 1397 
Q 1534 1031 1641 628 
Q 1738 1016 1872 1384 
L 2581 3319 
L 3144 3319 
L 1881 -56 
Q 1678 -603 1566 -809 
Q 1416 -1088 1222 -1217 
Q 1028 -1347 759 -1347 
Q 597 -1347 397 -1278 
z
" transform="scale(0.015625)"/>
      </defs>
      <use xlink:href="#ArialMT-44"/>
      <use xlink:href="#ArialMT-65" x="72.216797"/>
      <use xlink:href="#ArialMT-6e" x="127.832031"/>
      <use xlink:href="#ArialMT-73" x="183.447266"/>
      <use xlink:href="#ArialMT-69" x="233.447266"/>
      <use xlink:href="#ArialMT-74" x="255.664062"/>
      <use xlink:href="#ArialMT-79" x="283.447266"/>
     </g>
    </g>
   </g>
   <g id="PolyCollection_1">
    <defs>
     <path id="mb76fba20c1" d="M 126.172999 -49.060266 
L 126.172999 -48.3125 
L 128.916625 -48.3125 
L 131.660251 -48.3125 
L 134.403877 -48.3125 
L 137.147503 -48.3125 
L 139.891129 -48.3125 
L 142.634755 -48.3125 
L 145.378381 -48.3125 
L 148.122007 -48.3125 
L 150.865633 -48.3125 
L 153.609259 -48.3125 
L 156.352885 -48.3125 
L 159.096511 -48.3125 
L 161.840137 -48.3125 
L 164.583763 -48.3125 
L 167.327389 -48.3125 
L 170.071015 -48.3125 
L 172.814641 -48.3125 
L 175.558267 -48.3125 
L 178.301893 -48.3125 
L 181.045519 -48.3125 
L 183.789145 -48.3125 
L 186.532771 -48.3125 
L 189.276397 -48.3125 
L 192.020023 -48.3125 
L 194.763649 -48.3125 
L 197.507275 -48.3125 
L 200.250901 -48.3125 
L 202.994527 -48.3125 
L 205.738153 -48.3125 
L 208.481779 -48.3125 
L 211.225405 -48.3125 
L 213.969031 -48.3125 
L 216.712657 -48.3125 
L 219.456283 -48.3125 
L 222.199909 -48.3125 
L 224.943535 -48.3125 
L 227.687161 -48.3125 
L 230.430787 -48.3125 
L 233.174413 -48.3125 
L 235.918039 -48.3125 
L 238.661665 -48.3125 
L 241.405291 -48.3125 
L 244.148917 -48.3125 
L 246.892543 -48.3125 
L 249.636169 -48.3125 
L 252.379795 -48.3125 
L 255.123421 -48.3125 
L 257.867047 -48.3125 
L 260.610673 -48.3125 
L 263.354299 -48.3125 
L 266.097925 -48.3125 
L 268.841551 -48.3125 
L 271.585177 -48.3125 
L 274.328803 -48.3125 
L 277.072429 -48.3125 
L 279.816055 -48.3125 
L 282.559681 -48.3125 
L 285.303307 -48.3125 
L 288.046933 -48.3125 
L 290.790559 -48.3125 
L 293.534185 -48.3125 
L 296.277811 -48.3125 
L 299.021437 -48.3125 
L 301.765063 -48.3125 
L 304.508689 -48.3125 
L 307.252315 -48.3125 
L 309.995941 -48.3125 
L 312.739567 -48.3125 
L 315.483193 -48.3125 
L 318.226819 -48.3125 
L 320.970445 -48.3125 
L 323.714071 -48.3125 
L 326.457697 -48.3125 
L 329.201323 -48.3125 
L 331.944949 -48.3125 
L 334.688575 -48.3125 
L 337.432201 -48.3125 
L 340.175827 -48.3125 
L 342.919453 -48.3125 
L 345.663079 -48.3125 
L 348.406705 -48.3125 
L 351.150331 -48.3125 
L 353.893957 -48.3125 
L 356.637583 -48.3125 
L 359.381209 -48.3125 
L 362.124835 -48.3125 
L 364.868461 -48.3125 
L 367.612087 -48.3125 
L 370.355713 -48.3125 
L 373.099339 -48.3125 
L 375.842965 -48.3125 
L 378.586591 -48.3125 
L 381.330217 -48.3125 
L 384.073843 -48.3125 
L 386.817469 -48.3125 
L 389.561095 -48.3125 
L 392.304721 -48.3125 
L 395.048347 -48.3125 
L 397.791973 -48.3125 
L 400.535599 -48.3125 
L 403.279225 -48.3125 
L 406.022851 -48.3125 
L 408.766477 -48.3125 
L 411.510103 -48.3125 
L 414.253729 -48.3125 
L 416.997355 -48.3125 
L 419.740981 -48.3125 
L 422.484607 -48.3125 
L 425.228233 -48.3125 
L 427.971859 -48.3125 
L 430.715485 -48.3125 
L 433.459111 -48.3125 
L 436.202737 -48.3125 
L 438.946363 -48.3125 
L 441.689989 -48.3125 
L 444.433615 -48.3125 
L 447.177241 -48.3125 
L 449.920867 -48.3125 
L 452.664493 -48.3125 
L 455.408119 -48.3125 
L 458.151745 -48.3125 
L 460.895371 -48.3125 
L 463.638997 -48.3125 
L 466.382623 -48.3125 
L 469.126249 -48.3125 
L 471.869875 -48.3125 
L 474.613501 -48.3125 
L 477.357127 -48.3125 
L 480.100753 -48.3125 
L 482.844379 -48.3125 
L 485.588005 -48.3125 
L 488.331631 -48.3125 
L 491.075257 -48.3125 
L 493.818883 -48.3125 
L 496.562509 -48.3125 
L 499.306135 -48.3125 
L 502.049761 -48.3125 
L 504.793388 -48.3125 
L 507.537014 -48.3125 
L 510.28064 -48.3125 
L 513.024266 -48.3125 
L 515.767892 -48.3125 
L 518.511518 -48.3125 
L 521.255144 -48.3125 
L 523.99877 -48.3125 
L 526.742396 -48.3125 
L 529.486022 -48.3125 
L 532.229648 -48.3125 
L 534.973274 -48.3125 
L 537.7169 -48.3125 
L 540.460526 -48.3125 
L 543.204152 -48.3125 
L 545.947778 -48.3125 
L 548.691404 -48.3125 
L 551.43503 -48.3125 
L 554.178656 -48.3125 
L 556.922282 -48.3125 
L 559.665908 -48.3125 
L 562.409534 -48.3125 
L 565.15316 -48.3125 
L 567.896786 -48.3125 
L 570.640412 -48.3125 
L 573.384038 -48.3125 
L 576.127664 -48.3125 
L 578.87129 -48.3125 
L 581.614916 -48.3125 
L 584.358542 -48.3125 
L 587.102168 -48.3125 
L 589.845794 -48.3125 
L 592.58942 -48.3125 
L 595.333046 -48.3125 
L 598.076672 -48.3125 
L 600.820298 -48.3125 
L 603.563924 -48.3125 
L 606.30755 -48.3125 
L 609.051176 -48.3125 
L 611.794802 -48.3125 
L 614.538428 -48.3125 
L 617.282054 -48.3125 
L 620.02568 -48.3125 
L 622.769306 -48.3125 
L 625.512932 -48.3125 
L 628.256558 -48.3125 
L 631.000184 -48.3125 
L 633.74381 -48.3125 
L 636.487436 -48.3125 
L 639.231062 -48.3125 
L 641.974688 -48.3125 
L 644.718314 -48.3125 
L 647.46194 -48.3125 
L 650.205566 -48.3125 
L 652.949192 -48.3125 
L 655.692818 -48.3125 
L 658.436444 -48.3125 
L 661.18007 -48.3125 
L 663.923696 -48.3125 
L 666.667322 -48.3125 
L 669.410948 -48.3125 
L 672.154574 -48.3125 
L 672.154574 -48.559383 
L 672.154574 -48.559383 
L 669.410948 -48.616283 
L 666.667322 -48.684646 
L 663.923696 -48.766387 
L 661.18007 -48.863656 
L 658.436444 -48.978851 
L 655.692818 -49.114623 
L 652.949192 -49.273886 
L 650.205566 -49.459818 
L 647.46194 -49.675857 
L 644.718314 -49.925694 
L 641.974688 -50.213259 
L 639.231062 -50.542697 
L 636.487436 -50.91835 
L 633.74381 -51.344715 
L 631.000184 -51.826408 
L 628.256558 -52.368119 
L 625.512932 -52.974556 
L 622.769306 -53.650397 
L 620.02568 -54.400221 
L 617.282054 -55.22845 
L 614.538428 -56.139288 
L 611.794802 -57.136652 
L 609.051176 -58.224117 
L 606.30755 -59.40486 
L 603.563924 -60.681604 
L 600.820298 -62.056581 
L 598.076672 -63.531498 
L 595.333046 -65.107507 
L 592.58942 -66.785198 
L 589.845794 -68.564598 
L 587.102168 -70.445174 
L 584.358542 -72.42586 
L 581.614916 -74.505086 
L 578.87129 -76.680819 
L 576.127664 -78.950608 
L 573.384038 -81.311637 
L 570.640412 -83.760787 
L 567.896786 -86.294686 
L 565.15316 -88.909769 
L 562.409534 -91.602333 
L 559.665908 -94.368583 
L 556.922282 -97.204675 
L 554.178656 -100.106751 
L 551.43503 -103.070967 
L 548.691404 -106.093505 
L 545.947778 -109.170592 
L 543.204152 -112.298497 
L 540.460526 -115.473531 
L 537.7169 -118.692041 
L 534.973274 -121.950402 
L 532.229648 -125.24501 
L 529.486022 -128.572278 
L 526.742396 -131.928632 
L 523.99877 -135.310521 
L 521.255144 -138.714424 
L 518.511518 -142.136874 
L 515.767892 -145.574484 
L 513.024266 -149.023981 
L 510.28064 -152.482246 
L 507.537014 -155.94636 
L 504.793388 -159.413647 
L 502.049761 -162.88172 
L 499.306135 -166.348521 
L 496.562509 -169.812355 
L 493.818883 -173.271914 
L 491.075257 -176.726289 
L 488.331631 -180.174968 
L 485.588005 -183.617825 
L 482.844379 -187.055085 
L 480.100753 -190.48728 
L 477.357127 -193.915199 
L 474.613501 -197.339813 
L 471.869875 -200.762208 
L 469.126249 -204.183508 
L 466.382623 -207.604797 
L 463.638997 -211.027048 
L 460.895371 -214.451066 
L 458.151745 -217.877436 
L 455.408119 -221.306492 
L 452.664493 -224.738301 
L 449.920867 -228.172671 
L 447.177241 -231.609177 
L 444.433615 -235.047206 
L 441.689989 -238.486018 
L 438.946363 -241.924824 
L 436.202737 -245.362878 
L 433.459111 -248.799562 
L 430.715485 -252.234489 
L 427.971859 -255.667586 
L 425.228233 -259.099176 
L 422.484607 -262.530038 
L 419.740981 -265.961456 
L 416.997355 -269.39523 
L 414.253729 -272.83367 
L 411.510103 -276.279558 
L 408.766477 -279.736078 
L 406.022851 -283.206715 
L 403.279225 -286.695125 
L 400.535599 -290.204987 
L 397.791973 -293.739816 
L 395.048347 -297.302775 
L 392.304721 -300.896462 
L 389.561095 -304.522696 
L 386.817469 -308.182296 
L 384.073843 -311.874873 
L 381.330217 -315.598624 
L 378.586591 -319.35015 
L 375.842965 -323.124293 
L 373.099339 -326.914 
L 370.355713 -330.710226 
L 367.612087 -334.501865 
L 364.868461 -338.275724 
L 362.124835 -342.016542 
L 359.381209 -345.707045 
L 356.637583 -349.328049 
L 353.893957 -352.858604 
L 351.150331 -356.276177 
L 348.406705 -359.556873 
L 345.663079 -362.675689 
L 342.919453 -365.606796 
L 340.175827 -368.323849 
L 337.432201 -370.800301 
L 334.688575 -373.009741 
L 331.944949 -374.926225 
L 329.201323 -376.524604 
L 326.457697 -377.780843 
L 323.714071 -378.672319 
L 320.970445 -379.178095 
L 318.226819 -379.279167 
L 315.483193 -378.958671 
L 312.739567 -378.202067 
L 309.995941 -376.997272 
L 307.252315 -375.334764 
L 304.508689 -373.20765 
L 301.765063 -370.611699 
L 299.021437 -367.545347 
L 296.277811 -364.009676 
L 293.534185 -360.008374 
L 290.790559 -355.547676 
L 288.046933 -350.636305 
L 285.303307 -345.285392 
L 282.559681 -339.508407 
L 279.816055 -333.321085 
L 277.072429 -326.74135 
L 274.328803 -319.789248 
L 271.585177 -312.486877 
L 268.841551 -304.858314 
L 266.097925 -296.929542 
L 263.354299 -288.72836 
L 260.610673 -280.284289 
L 257.867047 -271.628452 
L 255.123421 -262.793436 
L 252.379795 -253.813121 
L 249.636169 -244.722489 
L 246.892543 -235.55739 
L 244.148917 -226.354286 
L 241.405291 -217.149958 
L 238.661665 -207.981189 
L 235.918039 -198.884422 
L 233.174413 -189.895403 
L 230.430787 -181.048816 
L 227.687161 -172.377911 
L 224.943535 -163.914145 
L 222.199909 -155.686843 
L 219.456283 -147.722876 
L 216.712657 -140.046385 
L 213.969031 -132.678538 
L 211.225405 -125.637344 
L 208.481779 -118.937515 
L 205.738153 -112.590388 
L 202.994527 -106.603905 
L 200.250901 -100.982652 
L 197.507275 -95.727954 
L 194.763649 -90.838017 
L 192.020023 -86.308127 
L 189.276397 -82.130882 
L 186.532771 -78.29646 
L 183.789145 -74.79291 
L 181.045519 -71.606464 
L 178.301893 -68.721859 
L 175.558267 -66.122651 
L 172.814641 -63.791536 
L 170.071015 -61.710649 
L 167.327389 -59.86185 
L 164.583763 -58.22698 
L 161.840137 -56.788102 
L 159.096511 -55.527703 
L 156.352885 -54.428867 
L 153.609259 -53.475426 
L 150.865633 -52.652066 
L 148.122007 -51.944418 
L 145.378381 -51.339112 
L 142.634755 -50.823813 
L 139.891129 -50.387226 
L 137.147503 -50.019091 
L 134.403877 -49.710157 
L 131.660251 -49.45214 
L 128.916625 -49.237676 
L 126.172999 -49.060266 
z
" style="stroke: #2ecc71"/>
    </defs>
    <g clip-path="url(#p77a4a280ca)">
     <use xlink:href="#mb76fba20c1" x="0" y="420.48" style="fill: #2ecc71; fill-opacity: 0.3; stroke: #2ecc71"/>
    </g>
   </g>
   <g id="PolyCollection_2">
    <defs>
     <path id="m286a64ccd4" d="M 89.646051 -49.639118 
L 89.646051 -48.3125 
L 92.430831 -48.3125 
L 95.215611 -48.3125 
L 98.00039 -48.3125 
L 100.78517 -48.3125 
L 103.56995 -48.3125 
L 106.354729 -48.3125 
L 109.139509 -48.3125 
L 111.924289 -48.3125 
L 114.709068 -48.3125 
L 117.493848 -48.3125 
L 120.278628 -48.3125 
L 123.063408 -48.3125 
L 125.848187 -48.3125 
L 128.632967 -48.3125 
L 131.417747 -48.3125 
L 134.202526 -48.3125 
L 136.987306 -48.3125 
L 139.772086 -48.3125 
L 142.556866 -48.3125 
L 145.341645 -48.3125 
L 148.126425 -48.3125 
L 150.911205 -48.3125 
L 153.695984 -48.3125 
L 156.480764 -48.3125 
L 159.265544 -48.3125 
L 162.050323 -48.3125 
L 164.835103 -48.3125 
L 167.619883 -48.3125 
L 170.404663 -48.3125 
L 173.189442 -48.3125 
L 175.974222 -48.3125 
L 178.759002 -48.3125 
L 181.543781 -48.3125 
L 184.328561 -48.3125 
L 187.113341 -48.3125 
L 189.89812 -48.3125 
L 192.6829 -48.3125 
L 195.46768 -48.3125 
L 198.25246 -48.3125 
L 201.037239 -48.3125 
L 203.822019 -48.3125 
L 206.606799 -48.3125 
L 209.391578 -48.3125 
L 212.176358 -48.3125 
L 214.961138 -48.3125 
L 217.745918 -48.3125 
L 220.530697 -48.3125 
L 223.315477 -48.3125 
L 226.100257 -48.3125 
L 228.885036 -48.3125 
L 231.669816 -48.3125 
L 234.454596 -48.3125 
L 237.239375 -48.3125 
L 240.024155 -48.3125 
L 242.808935 -48.3125 
L 245.593715 -48.3125 
L 248.378494 -48.3125 
L 251.163274 -48.3125 
L 253.948054 -48.3125 
L 256.732833 -48.3125 
L 259.517613 -48.3125 
L 262.302393 -48.3125 
L 265.087173 -48.3125 
L 267.871952 -48.3125 
L 270.656732 -48.3125 
L 273.441512 -48.3125 
L 276.226291 -48.3125 
L 279.011071 -48.3125 
L 281.795851 -48.3125 
L 284.58063 -48.3125 
L 287.36541 -48.3125 
L 290.15019 -48.3125 
L 292.93497 -48.3125 
L 295.719749 -48.3125 
L 298.504529 -48.3125 
L 301.289309 -48.3125 
L 304.074088 -48.3125 
L 306.858868 -48.3125 
L 309.643648 -48.3125 
L 312.428427 -48.3125 
L 315.213207 -48.3125 
L 317.997987 -48.3125 
L 320.782767 -48.3125 
L 323.567546 -48.3125 
L 326.352326 -48.3125 
L 329.137106 -48.3125 
L 331.921885 -48.3125 
L 334.706665 -48.3125 
L 337.491445 -48.3125 
L 340.276225 -48.3125 
L 343.061004 -48.3125 
L 345.845784 -48.3125 
L 348.630564 -48.3125 
L 351.415343 -48.3125 
L 354.200123 -48.3125 
L 356.984903 -48.3125 
L 359.769682 -48.3125 
L 362.554462 -48.3125 
L 365.339242 -48.3125 
L 368.124022 -48.3125 
L 370.908801 -48.3125 
L 373.693581 -48.3125 
L 376.478361 -48.3125 
L 379.26314 -48.3125 
L 382.04792 -48.3125 
L 384.8327 -48.3125 
L 387.61748 -48.3125 
L 390.402259 -48.3125 
L 393.187039 -48.3125 
L 395.971819 -48.3125 
L 398.756598 -48.3125 
L 401.541378 -48.3125 
L 404.326158 -48.3125 
L 407.110937 -48.3125 
L 409.895717 -48.3125 
L 412.680497 -48.3125 
L 415.465277 -48.3125 
L 418.250056 -48.3125 
L 421.034836 -48.3125 
L 423.819616 -48.3125 
L 426.604395 -48.3125 
L 429.389175 -48.3125 
L 432.173955 -48.3125 
L 434.958734 -48.3125 
L 437.743514 -48.3125 
L 440.528294 -48.3125 
L 443.313074 -48.3125 
L 446.097853 -48.3125 
L 448.882633 -48.3125 
L 451.667413 -48.3125 
L 454.452192 -48.3125 
L 457.236972 -48.3125 
L 460.021752 -48.3125 
L 462.806532 -48.3125 
L 465.591311 -48.3125 
L 468.376091 -48.3125 
L 471.160871 -48.3125 
L 473.94565 -48.3125 
L 476.73043 -48.3125 
L 479.51521 -48.3125 
L 482.299989 -48.3125 
L 485.084769 -48.3125 
L 487.869549 -48.3125 
L 490.654329 -48.3125 
L 493.439108 -48.3125 
L 496.223888 -48.3125 
L 499.008668 -48.3125 
L 501.793447 -48.3125 
L 504.578227 -48.3125 
L 507.363007 -48.3125 
L 510.147787 -48.3125 
L 512.932566 -48.3125 
L 515.717346 -48.3125 
L 518.502126 -48.3125 
L 521.286905 -48.3125 
L 524.071685 -48.3125 
L 526.856465 -48.3125 
L 529.641244 -48.3125 
L 532.426024 -48.3125 
L 535.210804 -48.3125 
L 537.995584 -48.3125 
L 540.780363 -48.3125 
L 543.565143 -48.3125 
L 546.349923 -48.3125 
L 549.134702 -48.3125 
L 551.919482 -48.3125 
L 554.704262 -48.3125 
L 557.489041 -48.3125 
L 560.273821 -48.3125 
L 563.058601 -48.3125 
L 565.843381 -48.3125 
L 568.62816 -48.3125 
L 571.41294 -48.3125 
L 574.19772 -48.3125 
L 576.982499 -48.3125 
L 579.767279 -48.3125 
L 582.552059 -48.3125 
L 585.336839 -48.3125 
L 588.121618 -48.3125 
L 590.906398 -48.3125 
L 593.691178 -48.3125 
L 596.475957 -48.3125 
L 599.260737 -48.3125 
L 602.045517 -48.3125 
L 604.830296 -48.3125 
L 607.615076 -48.3125 
L 610.399856 -48.3125 
L 613.184636 -48.3125 
L 615.969415 -48.3125 
L 618.754195 -48.3125 
L 621.538975 -48.3125 
L 624.323754 -48.3125 
L 627.108534 -48.3125 
L 629.893314 -48.3125 
L 632.678094 -48.3125 
L 635.462873 -48.3125 
L 638.247653 -48.3125 
L 641.032433 -48.3125 
L 643.817212 -48.3125 
L 643.817212 -50.653272 
L 643.817212 -50.653272 
L 641.032433 -50.985621 
L 638.247653 -51.359278 
L 635.462873 -51.778479 
L 632.678094 -52.247767 
L 629.893314 -52.771997 
L 627.108534 -53.356339 
L 624.323754 -54.006278 
L 621.538975 -54.72761 
L 618.754195 -55.526438 
L 615.969415 -56.409155 
L 613.184636 -57.382436 
L 610.399856 -58.453216 
L 607.615076 -59.628665 
L 604.830296 -60.916158 
L 602.045517 -62.323242 
L 599.260737 -63.857597 
L 596.475957 -65.526985 
L 593.691178 -67.339204 
L 590.906398 -69.30203 
L 588.121618 -71.42315 
L 585.336839 -73.710098 
L 582.552059 -76.170184 
L 579.767279 -78.810411 
L 576.982499 -81.637397 
L 574.19772 -84.657291 
L 571.41294 -87.875683 
L 568.62816 -91.297515 
L 565.843381 -94.926992 
L 563.058601 -98.767491 
L 560.273821 -102.821471 
L 557.489041 -107.090391 
L 554.704262 -111.574618 
L 551.919482 -116.273361 
L 549.134702 -121.184588 
L 546.349923 -126.304972 
L 543.565143 -131.629828 
L 540.780363 -137.153072 
L 537.995584 -142.86719 
L 535.210804 -148.763212 
L 532.426024 -154.830707 
L 529.641244 -161.057793 
L 526.856465 -167.431156 
L 524.071685 -173.936088 
L 521.286905 -180.556543 
L 518.502126 -187.275208 
L 515.717346 -194.073587 
L 512.932566 -200.932104 
L 510.147787 -207.830223 
L 507.363007 -214.746576 
L 504.578227 -221.659109 
L 501.793447 -228.545243 
L 499.008668 -235.382035 
L 496.223888 -242.146359 
L 493.439108 -248.815087 
L 490.654329 -255.365277 
L 487.869549 -261.77436 
L 485.084769 -268.020338 
L 482.299989 -274.081961 
L 479.51521 -279.93892 
L 476.73043 -285.572015 
L 473.94565 -290.963327 
L 471.160871 -296.09637 
L 468.376091 -300.956233 
L 465.591311 -305.529704 
L 462.806532 -309.805379 
L 460.021752 -313.77375 
L 457.236972 -317.427274 
L 454.452192 -320.760416 
L 451.667413 -323.769681 
L 448.882633 -326.453612 
L 446.097853 -328.812771 
L 443.313074 -330.849701 
L 440.528294 -332.568861 
L 437.743514 -333.976543 
L 434.958734 -335.080771 
L 432.173955 -335.891184 
L 429.389175 -336.418898 
L 426.604395 -336.676356 
L 423.819616 -336.677171 
L 421.034836 -336.435955 
L 418.250056 -335.968138 
L 415.465277 -335.289791 
L 412.680497 -334.417439 
L 409.895717 -333.367878 
L 407.110937 -332.157993 
L 404.326158 -330.80458 
L 401.541378 -329.324176 
L 398.756598 -327.732901 
L 395.971819 -326.0463 
L 393.187039 -324.27921 
L 390.402259 -322.445632 
L 387.61748 -320.558619 
L 384.8327 -318.630178 
L 382.04792 -316.671193 
L 379.26314 -314.691359 
L 376.478361 -312.699132 
L 373.693581 -310.701696 
L 370.908801 -308.704952 
L 368.124022 -306.713509 
L 365.339242 -304.730705 
L 362.554462 -302.758628 
L 359.769682 -300.798158 
L 356.984903 -298.849021 
L 354.200123 -296.909847 
L 351.415343 -294.978249 
L 348.630564 -293.050893 
L 345.845784 -291.123597 
L 343.061004 -289.191415 
L 340.276225 -287.24874 
L 337.491445 -285.289406 
L 334.706665 -283.306787 
L 331.921885 -281.293907 
L 329.137106 -279.243544 
L 326.352326 -277.148333 
L 323.567546 -275.000871 
L 320.782767 -272.793816 
L 317.997987 -270.519986 
L 315.213207 -268.172449 
L 312.428427 -265.744615 
L 309.643648 -263.230316 
L 306.858868 -260.623887 
L 304.074088 -257.920231 
L 301.289309 -255.114891 
L 298.504529 -252.2041 
L 295.719749 -249.184834 
L 292.93497 -246.054854 
L 290.15019 -242.812737 
L 287.36541 -239.457904 
L 284.58063 -235.990635 
L 281.795851 -232.412082 
L 279.011071 -228.724264 
L 276.226291 -224.930062 
L 273.441512 -221.033202 
L 270.656732 -217.038235 
L 267.871952 -212.950499 
L 265.087173 -208.776084 
L 262.302393 -204.521788 
L 259.517613 -200.195059 
L 256.732833 -195.803945 
L 253.948054 -191.357024 
L 251.163274 -186.86334 
L 248.378494 -182.332333 
L 245.593715 -177.773759 
L 242.808935 -173.197622 
L 240.024155 -168.614086 
L 237.239375 -164.033407 
L 234.454596 -159.465845 
L 231.669816 -154.921596 
L 228.885036 -150.410708 
L 226.100257 -145.943018 
L 223.315477 -141.528072 
L 220.530697 -137.175073 
L 217.745918 -132.892807 
L 214.961138 -128.689601 
L 212.176358 -124.573263 
L 209.391578 -120.551046 
L 206.606799 -116.629608 
L 203.822019 -112.814981 
L 201.037239 -109.112552 
L 198.25246 -105.52704 
L 195.46768 -102.06249 
L 192.6829 -98.722269 
L 189.89812 -95.509067 
L 187.113341 -92.424906 
L 184.328561 -89.471155 
L 181.543781 -86.648549 
L 178.759002 -83.957214 
L 175.974222 -81.396694 
L 173.189442 -78.965982 
L 170.404663 -76.663559 
L 167.619883 -74.487429 
L 164.835103 -72.435161 
L 162.050323 -70.503926 
L 159.265544 -68.690544 
L 156.480764 -66.991525 
L 153.695984 -65.403111 
L 150.911205 -63.921319 
L 148.126425 -62.541982 
L 145.341645 -61.260788 
L 142.556866 -60.073318 
L 139.772086 -58.975085 
L 136.987306 -57.961565 
L 134.202526 -57.028229 
L 131.417747 -56.170574 
L 128.632967 -55.384149 
L 125.848187 -54.664576 
L 123.063408 -54.007576 
L 120.278628 -53.408984 
L 117.493848 -52.864766 
L 114.709068 -52.371034 
L 111.924289 -51.924051 
L 109.139509 -51.520248 
L 106.354729 -51.156224 
L 103.56995 -50.828753 
L 100.78517 -50.534784 
L 98.00039 -50.271445 
L 95.215611 -50.036041 
L 92.430831 -49.826049 
L 89.646051 -49.639118 
z
" style="stroke: #e74c3c"/>
    </defs>
    <g clip-path="url(#p77a4a280ca)">
     <use xlink:href="#m286a64ccd4" x="0" y="420.48" style="fill: #e74c3c; fill-opacity: 0.3; stroke: #e74c3c"/>
    </g>
   </g>
   <g id="patch_3">
    <path d="M 60.520625 372.1675 
L 60.520625 24.6525 
" style="fill: none; stroke: #cccccc; stroke-width: 1.5; stroke-linejoin: miter; stroke-linecap: square"/>
   </g>
   <g id="patch_4">
    <path d="M 60.520625 372.1675 
L 701.28 372.1675 
" style="fill: none; stroke: #cccccc; stroke-width: 1.5; stroke-linejoin: miter; stroke-linecap: square"/>
   </g>
   <g id="text_15">
    <!-- Distribution of Absolute Errors -->
    <g style="fill: #262626" transform="translate(275.080312 18.6525) scale(0.16 -0.16)">
     <defs>
      <path id="ArialMT-62" d="M 941 0 
L 419 0 
L 419 4581 
L 981 4581 
L 981 2947 
Q 1338 3394 1891 3394 
Q 2197 3394 2470 3270 
Q 2744 3147 2920 2923 
Q 3097 2700 3197 2384 
Q 3297 2069 3297 1709 
Q 3297 856 2875 390 
Q 2453 -75 1863 -75 
Q 1275 -75 941 416 
L 941 0 
z
M 934 1684 
Q 934 1088 1097 822 
Q 1363 388 1816 388 
Q 2184 388 2453 708 
Q 2722 1028 2722 1663 
Q 2722 2313 2464 2622 
Q 2206 2931 1841 2931 
Q 1472 2931 1203 2611 
Q 934 2291 934 1684 
z
" transform="scale(0.015625)"/>
      <path id="ArialMT-75" d="M 2597 0 
L 2597 488 
Q 2209 -75 1544 -75 
Q 1250 -75 995 37 
Q 741 150 617 320 
Q 494 491 444 738 
Q 409 903 409 1263 
L 409 3319 
L 972 3319 
L 972 1478 
Q 972 1038 1006 884 
Q 1059 663 1231 536 
Q 1403 409 1656 409 
Q 1909 409 2131 539 
Q 2353 669 2445 892 
Q 2538 1116 2538 1541 
L 2538 3319 
L 3100 3319 
L 3100 0 
L 2597 0 
z
" transform="scale(0.015625)"/>
      <path id="ArialMT-66" d="M 556 0 
L 556 2881 
L 59 2881 
L 59 3319 
L 556 3319 
L 556 3672 
Q 556 4006 616 4169 
Q 697 4388 901 4523 
Q 1106 4659 1475 4659 
Q 1713 4659 2000 4603 
L 1916 4113 
Q 1741 4144 1584 4144 
Q 1328 4144 1222 4034 
Q 1116 3925 1116 3625 
L 1116 3319 
L 1763 3319 
L 1763 2881 
L 1116 2881 
L 1116 0 
L 556 0 
z
" transform="scale(0.015625)"/>
      <path id="ArialMT-41" d="M -9 0 
L 1750 4581 
L 2403 4581 
L 4278 0 
L 3588 0 
L 3053 1388 
L 1138 1388 
L 634 0 
L -9 0 
z
M 1313 1881 
L 2866 1881 
L 2388 3150 
Q 2169 3728 2063 4100 
Q 1975 3659 1816 3225 
L 1313 1881 
z
" transform="scale(0.015625)"/>
      <path id="ArialMT-6c" d="M 409 0 
L 409 4581 
L 972 4581 
L 972 0 
L 409 0 
z
" transform="scale(0.015625)"/>
     </defs>
     <use xlink:href="#ArialMT-44"/>
     <use xlink:href="#ArialMT-69" x="72.216797"/>
     <use xlink:href="#ArialMT-73" x="94.433594"/>
     <use xlink:href="#ArialMT-74" x="144.433594"/>
     <use xlink:href="#ArialMT-72" x="172.216797"/>
     <use xlink:href="#ArialMT-69" x="205.517578"/>
     <use xlink:href="#ArialMT-62" x="227.734375"/>
     <use xlink:href="#ArialMT-75" x="283.349609"/>
     <use xlink:href="#ArialMT-74" x="338.964844"/>
     <use xlink:href="#ArialMT-69" x="366.748047"/>
     <use xlink:href="#ArialMT-6f" x="388.964844"/>
     <use xlink:href="#ArialMT-6e" x="444.580078"/>
     <use xlink:href="#ArialMT-20" x="500.195312"/>
     <use xlink:href="#ArialMT-6f" x="527.978516"/>
     <use xlink:href="#ArialMT-66" x="583.59375"/>
     <use xlink:href="#ArialMT-20" x="611.376953"/>
     <use xlink:href="#ArialMT-41" x="633.660156"/>
     <use xlink:href="#ArialMT-62" x="700.359375"/>
     <use xlink:href="#ArialMT-73" x="755.974609"/>
     <use xlink:href="#ArialMT-6f" x="805.974609"/>
     <use xlink:href="#ArialMT-6c" x="861.589844"/>
     <use xlink:href="#ArialMT-75" x="883.806641"/>
     <use xlink:href="#ArialMT-74" x="939.421875"/>
     <use xlink:href="#ArialMT-65" x="967.205078"/>
     <use xlink:href="#ArialMT-20" x="1022.820312"/>
     <use xlink:href="#ArialMT-45" x="1050.603516"/>
     <use xlink:href="#ArialMT-72" x="1117.302734"/>
     <use xlink:href="#ArialMT-72" x="1150.603516"/>
     <use xlink:href="#ArialMT-6f" x="1183.904297"/>
     <use xlink:href="#ArialMT-72" x="1239.519531"/>
     <use xlink:href="#ArialMT-73" x="1272.820312"/>
    </g>
   </g>
   <g id="legend_1">
    <g id="patch_5">
     <path d="M 497.20125 68.775 
L 692.88 68.775 
Q 695.28 68.775 695.28 66.375 
L 695.28 33.0525 
Q 695.28 30.6525 692.88 30.6525 
L 497.20125 30.6525 
Q 494.80125 30.6525 494.80125 33.0525 
L 494.80125 66.375 
Q 494.80125 68.775 497.20125 68.775 
z
" style="fill: #ffffff; opacity: 0.8; stroke: #cccccc; stroke-linejoin: miter"/>
    </g>
    <g id="patch_6">
     <path d="M 499.60125 44.188125 
L 523.60125 44.188125 
L 523.60125 35.788125 
L 499.60125 35.788125 
z
" style="fill: #2ecc71; fill-opacity: 0.3; stroke: #2ecc71; stroke-linejoin: miter"/>
    </g>
    <g id="text_16">
     <!-- Training (μ=1.87%, σ=1.21%) -->
     <g style="fill: #262626" transform="translate(533.20125 44.188125) scale(0.12 -0.12)">
      <defs>
       <path id="ArialMT-54" d="M 1659 0 
L 1659 4041 
L 150 4041 
L 150 4581 
L 3781 4581 
L 3781 4041 
L 2266 4041 
L 2266 0 
L 1659 0 
z
" transform="scale(0.015625)"/>
       <path id="ArialMT-61" d="M 2588 409 
Q 2275 144 1986 34 
Q 1697 -75 1366 -75 
Q 819 -75 525 192 
Q 231 459 231 875 
Q 231 1119 342 1320 
Q 453 1522 633 1644 
Q 813 1766 1038 1828 
Q 1203 1872 1538 1913 
Q 2219 1994 2541 2106 
Q 2544 2222 2544 2253 
Q 2544 2597 2384 2738 
Q 2169 2928 1744 2928 
Q 1347 2928 1158 2789 
Q 969 2650 878 2297 
L 328 2372 
Q 403 2725 575 2942 
Q 747 3159 1072 3276 
Q 1397 3394 1825 3394 
Q 2250 3394 2515 3294 
Q 2781 3194 2906 3042 
Q 3031 2891 3081 2659 
Q 3109 2516 3109 2141 
L 3109 1391 
Q 3109 606 3145 398 
Q 3181 191 3288 0 
L 2700 0 
Q 2613 175 2588 409 
z
M 2541 1666 
Q 2234 1541 1622 1453 
Q 1275 1403 1131 1340 
Q 988 1278 909 1158 
Q 831 1038 831 891 
Q 831 666 1001 516 
Q 1172 366 1500 366 
Q 1825 366 2078 508 
Q 2331 650 2450 897 
Q 2541 1088 2541 1459 
L 2541 1666 
z
" transform="scale(0.015625)"/>
       <path id="ArialMT-67" d="M 319 -275 
L 866 -356 
Q 900 -609 1056 -725 
Q 1266 -881 1628 -881 
Q 2019 -881 2231 -725 
Q 2444 -569 2519 -288 
Q 2563 -116 2559 434 
Q 2191 0 1641 0 
Q 956 0 581 494 
Q 206 988 206 1678 
Q 206 2153 378 2554 
Q 550 2956 876 3175 
Q 1203 3394 1644 3394 
Q 2231 3394 2613 2919 
L 2613 3319 
L 3131 3319 
L 3131 450 
Q 3131 -325 2973 -648 
Q 2816 -972 2473 -1159 
Q 2131 -1347 1631 -1347 
Q 1038 -1347 672 -1080 
Q 306 -813 319 -275 
z
M 784 1719 
Q 784 1066 1043 766 
Q 1303 466 1694 466 
Q 2081 466 2343 764 
Q 2606 1063 2606 1700 
Q 2606 2309 2336 2618 
Q 2066 2928 1684 2928 
Q 1309 2928 1046 2623 
Q 784 2319 784 1719 
z
" transform="scale(0.015625)"/>
       <path id="ArialMT-3bc" d="M 3181 3319 
L 3181 0 
L 2678 0 
L 2678 394 
Q 2516 144 2356 50 
Q 2138 -78 1847 -78 
Q 1588 -78 1388 25 
Q 1238 103 1056 334 
L 1056 -1272 
L 500 -1272 
L 500 3319 
L 1056 3319 
L 1056 1913 
Q 1056 1147 1137 920 
Q 1219 694 1401 562 
Q 1584 431 1822 431 
Q 2072 431 2269 568 
Q 2466 706 2547 923 
Q 2628 1141 2628 1903 
L 2628 3319 
L 3181 3319 
z
" transform="scale(0.015625)"/>
       <path id="ArialMT-3d" d="M 3381 2694 
L 356 2694 
L 356 3219 
L 3381 3219 
L 3381 2694 
z
M 3381 1303 
L 356 1303 
L 356 1828 
L 3381 1828 
L 3381 1303 
z
" transform="scale(0.015625)"/>
       <path id="ArialMT-38" d="M 1131 2484 
Q 781 2613 612 2850 
Q 444 3088 444 3419 
Q 444 3919 803 4259 
Q 1163 4600 1759 4600 
Q 2359 4600 2725 4251 
Q 3091 3903 3091 3403 
Q 3091 3084 2923 2848 
Q 2756 2613 2416 2484 
Q 2838 2347 3058 2040 
Q 3278 1734 3278 1309 
Q 3278 722 2862 322 
Q 2447 -78 1769 -78 
Q 1091 -78 675 323 
Q 259 725 259 1325 
Q 259 1772 486 2073 
Q 713 2375 1131 2484 
z
M 1019 3438 
Q 1019 3113 1228 2906 
Q 1438 2700 1772 2700 
Q 2097 2700 2305 2904 
Q 2513 3109 2513 3406 
Q 2513 3716 2298 3927 
Q 2084 4138 1766 4138 
Q 1444 4138 1231 3931 
Q 1019 3725 1019 3438 
z
M 838 1322 
Q 838 1081 952 856 
Q 1066 631 1291 507 
Q 1516 384 1775 384 
Q 2178 384 2440 643 
Q 2703 903 2703 1303 
Q 2703 1709 2433 1975 
Q 2163 2241 1756 2241 
Q 1359 2241 1098 1978 
Q 838 1716 838 1322 
z
" transform="scale(0.015625)"/>
       <path id="ArialMT-37" d="M 303 3981 
L 303 4522 
L 3269 4522 
L 3269 4084 
Q 2831 3619 2401 2847 
Q 1972 2075 1738 1259 
Q 1569 684 1522 0 
L 944 0 
Q 953 541 1156 1306 
Q 1359 2072 1739 2783 
Q 2119 3494 2547 3981 
L 303 3981 
z
" transform="scale(0.015625)"/>
       <path id="ArialMT-2c" d="M 569 0 
L 569 641 
L 1209 641 
L 1209 0 
Q 1209 -353 1084 -570 
Q 959 -788 688 -906 
L 531 -666 
Q 709 -588 793 -436 
Q 878 -284 888 0 
L 569 0 
z
" transform="scale(0.015625)"/>
       <path id="ArialMT-3c3" d="M 3809 3319 
L 3809 2863 
L 2906 2863 
Q 3322 2475 3322 1656 
Q 3322 766 2867 345 
Q 2413 -75 1763 -75 
Q 1088 -75 650 362 
Q 213 800 213 1659 
Q 213 2544 667 2969 
Q 1122 3394 1763 3394 
Q 1997 3394 2294 3319 
L 3809 3319 
z
M 1753 2928 
Q 1344 2928 1067 2609 
Q 791 2291 791 1656 
Q 791 1025 1061 706 
Q 1331 388 1763 388 
Q 2216 388 2483 720 
Q 2750 1053 2750 1659 
Q 2750 2213 2504 2570 
Q 2259 2928 1753 2928 
z
" transform="scale(0.015625)"/>
      </defs>
      <use xlink:href="#ArialMT-54"/>
      <use xlink:href="#ArialMT-72" x="57.333984"/>
      <use xlink:href="#ArialMT-61" x="90.634766"/>
      <use xlink:href="#ArialMT-69" x="146.25"/>
      <use xlink:href="#ArialMT-6e" x="168.466797"/>
      <use xlink:href="#ArialMT-69" x="224.082031"/>
      <use xlink:href="#ArialMT-6e" x="246.298828"/>
      <use xlink:href="#ArialMT-67" x="301.914062"/>
      <use xlink:href="#ArialMT-20" x="357.529297"/>
      <use xlink:href="#ArialMT-28" x="385.3125"/>
      <use xlink:href="#ArialMT-3bc" x="418.613281"/>
      <use xlink:href="#ArialMT-3d" x="476.230469"/>
      <use xlink:href="#ArialMT-31" x="534.628906"/>
      <use xlink:href="#ArialMT-2e" x="590.244141"/>
      <use xlink:href="#ArialMT-38" x="618.027344"/>
      <use xlink:href="#ArialMT-37" x="673.642578"/>
      <use xlink:href="#ArialMT-25" x="729.257812"/>
      <use xlink:href="#ArialMT-2c" x="818.173828"/>
      <use xlink:href="#ArialMT-20" x="845.957031"/>
      <use xlink:href="#ArialMT-3c3" x="873.740234"/>
      <use xlink:href="#ArialMT-3d" x="935.458984"/>
      <use xlink:href="#ArialMT-31" x="993.857422"/>
      <use xlink:href="#ArialMT-2e" x="1049.472656"/>
      <use xlink:href="#ArialMT-32" x="1077.255859"/>
      <use xlink:href="#ArialMT-31" x="1132.871094"/>
      <use xlink:href="#ArialMT-25" x="1188.486328"/>
      <use xlink:href="#ArialMT-29" x="1277.402344"/>
     </g>
    </g>
    <g id="patch_7">
     <path d="M 499.60125 61.449375 
L 523.60125 61.449375 
L 523.60125 53.049375 
L 499.60125 53.049375 
z
" style="fill: #e74c3c; fill-opacity: 0.3; stroke: #e74c3c; stroke-linejoin: miter"/>
    </g>
    <g id="text_17">
     <!-- Testing (μ=2.19%, σ=1.23%) -->
     <g style="fill: #262626" transform="translate(533.20125 61.449375) scale(0.12 -0.12)">
      <defs>
       <path id="ArialMT-39" d="M 350 1059 
L 891 1109 
Q 959 728 1153 556 
Q 1347 384 1650 384 
Q 1909 384 2104 503 
Q 2300 622 2425 820 
Q 2550 1019 2634 1356 
Q 2719 1694 2719 2044 
Q 2719 2081 2716 2156 
Q 2547 1888 2255 1720 
Q 1963 1553 1622 1553 
Q 1053 1553 659 1965 
Q 266 2378 266 3053 
Q 266 3750 677 4175 
Q 1088 4600 1706 4600 
Q 2153 4600 2523 4359 
Q 2894 4119 3086 3673 
Q 3278 3228 3278 2384 
Q 3278 1506 3087 986 
Q 2897 466 2520 194 
Q 2144 -78 1638 -78 
Q 1100 -78 759 220 
Q 419 519 350 1059 
z
M 2653 3081 
Q 2653 3566 2395 3850 
Q 2138 4134 1775 4134 
Q 1400 4134 1122 3828 
Q 844 3522 844 3034 
Q 844 2597 1108 2323 
Q 1372 2050 1759 2050 
Q 2150 2050 2401 2323 
Q 2653 2597 2653 3081 
z
" transform="scale(0.015625)"/>
      </defs>
      <use xlink:href="#ArialMT-54"/>
      <use xlink:href="#ArialMT-65" x="49.958984"/>
      <use xlink:href="#ArialMT-73" x="105.574219"/>
      <use xlink:href="#ArialMT-74" x="155.574219"/>
      <use xlink:href="#ArialMT-69" x="183.357422"/>
      <use xlink:href="#ArialMT-6e" x="205.574219"/>
      <use xlink:href="#ArialMT-67" x="261.189453"/>
      <use xlink:href="#ArialMT-20" x="316.804688"/>
      <use xlink:href="#ArialMT-28" x="344.587891"/>
      <use xlink:href="#ArialMT-3bc" x="377.888672"/>
      <use xlink:href="#ArialMT-3d" x="435.505859"/>
      <use xlink:href="#ArialMT-32" x="493.904297"/>
      <use xlink:href="#ArialMT-2e" x="549.519531"/>
      <use xlink:href="#ArialMT-31" x="577.302734"/>
      <use xlink:href="#ArialMT-39" x="632.917969"/>
      <use xlink:href="#ArialMT-25" x="688.533203"/>
      <use xlink:href="#ArialMT-2c" x="777.449219"/>
      <use xlink:href="#ArialMT-20" x="805.232422"/>
      <use xlink:href="#ArialMT-3c3" x="833.015625"/>
      <use xlink:href="#ArialMT-3d" x="894.734375"/>
      <use xlink:href="#ArialMT-31" x="953.132812"/>
      <use xlink:href="#ArialMT-2e" x="1008.748047"/>
      <use xlink:href="#ArialMT-32" x="1036.53125"/>
      <use xlink:href="#ArialMT-33" x="1092.146484"/>
      <use xlink:href="#ArialMT-25" x="1147.761719"/>
      <use xlink:href="#ArialMT-29" x="1236.677734"/>
     </g>
    </g>
   </g>
  </g>
 </g>
 <defs>
  <clipPath id="p77a4a280ca">
   <rect x="60.520625" y="24.6525" width="640.759375" height="347.515"/>
  </clipPath>
 </defs>
</svg>
