<?xml version="1.0" encoding="utf-8" standalone="no"?>
<!DOCTYPE svg PUBLIC "-//W3C//DTD SVG 1.1//EN"
  "http://www.w3.org/Graphics/SVG/1.1/DTD/svg11.dtd">
<svg xmlns:xlink="http://www.w3.org/1999/xlink" width="708.48pt" height="420.48pt" viewBox="0 0 708.48 420.48" xmlns="http://www.w3.org/2000/svg" version="1.1">
 <metadata>
  <rdf:RDF xmlns:dc="http://purl.org/dc/elements/1.1/" xmlns:cc="http://creativecommons.org/ns#" xmlns:rdf="http://www.w3.org/1999/02/22-rdf-syntax-ns#">
   <cc:Work>
    <dc:type rdf:resource="http://purl.org/dc/dcmitype/StillImage"/>
    <dc:date>2025-01-07T20:50:40.424489</dc:date>
    <dc:format>image/svg+xml</dc:format>
    <dc:creator>
     <cc:Agent>
      <dc:title>Matplotlib v3.9.3, https://matplotlib.org/</dc:title>
     </cc:Agent>
    </dc:creator>
   </cc:Work>
  </rdf:RDF>
 </metadata>
 <defs>
  <style type="text/css">*{stroke-linejoin: round; stroke-linecap: butt}</style>
 </defs>
 <g id="figure_1">
  <g id="patch_1">
   <path d="M 0 420.48 
L 708.48 420.48 
L 708.48 -0 
L 0 -0 
z
" style="fill: #ffffff"/>
  </g>
  <g id="axes_1">
   <g id="patch_2">
    <path d="M 60.520625 372.1675 
L 701.28 372.1675 
L 701.28 24.6525 
L 60.520625 24.6525 
z
" style="fill: #ffffff"/>
   </g>
   <g id="matplotlib.axis_1">
    <g id="xtick_1">
     <g id="line2d_1">
      <path d="M 114.602203 372.1675 
L 114.602203 24.6525 
" clip-path="url(#pd374845bdf)" style="fill: none; stroke: #cccccc; stroke-opacity: 0.3; stroke-width: 0.5; stroke-linecap: round"/>
     </g>
     <g id="text_1">
      <!-- −2 -->
      <g style="fill: #262626" transform="translate(107.761265 387.756875) scale(0.12 -0.12)">
       <defs>
        <path id="ArialMT-2212" d="M 3381 1997 
L 356 1997 
L 356 2522 
L 3381 2522 
L 3381 1997 
z
" transform="scale(0.015625)"/>
        <path id="ArialMT-32" d="M 3222 541 
L 3222 0 
L 194 0 
Q 188 203 259 391 
Q 375 700 629 1000 
Q 884 1300 1366 1694 
Q 2113 2306 2375 2664 
Q 2638 3022 2638 3341 
Q 2638 3675 2398 3904 
Q 2159 4134 1775 4134 
Q 1369 4134 1125 3890 
Q 881 3647 878 3216 
L 300 3275 
Q 359 3922 746 4261 
Q 1134 4600 1788 4600 
Q 2447 4600 2831 4234 
Q 3216 3869 3216 3328 
Q 3216 3053 3103 2787 
Q 2991 2522 2730 2228 
Q 2469 1934 1863 1422 
Q 1356 997 1212 845 
Q 1069 694 975 541 
L 3222 541 
z
" transform="scale(0.015625)"/>
       </defs>
       <use xlink:href="#ArialMT-2212"/>
       <use xlink:href="#ArialMT-32" x="58.398438"/>
      </g>
     </g>
    </g>
    <g id="xtick_2">
     <g id="line2d_2">
      <path d="M 191.385694 372.1675 
L 191.385694 24.6525 
" clip-path="url(#pd374845bdf)" style="fill: none; stroke: #cccccc; stroke-opacity: 0.3; stroke-width: 0.5; stroke-linecap: round"/>
     </g>
     <g id="text_2">
      <!-- −1 -->
      <g style="fill: #262626" transform="translate(184.544757 387.756875) scale(0.12 -0.12)">
       <defs>
        <path id="ArialMT-31" d="M 2384 0 
L 1822 0 
L 1822 3584 
Q 1619 3391 1289 3197 
Q 959 3003 697 2906 
L 697 3450 
Q 1169 3672 1522 3987 
Q 1875 4303 2022 4600 
L 2384 4600 
L 2384 0 
z
" transform="scale(0.015625)"/>
       </defs>
       <use xlink:href="#ArialMT-2212"/>
       <use xlink:href="#ArialMT-31" x="58.398438"/>
      </g>
     </g>
    </g>
    <g id="xtick_3">
     <g id="line2d_3">
      <path d="M 268.169186 372.1675 
L 268.169186 24.6525 
" clip-path="url(#pd374845bdf)" style="fill: none; stroke: #cccccc; stroke-opacity: 0.3; stroke-width: 0.5; stroke-linecap: round"/>
     </g>
     <g id="text_3">
      <!-- 0 -->
      <g style="fill: #262626" transform="translate(264.832623 387.756875) scale(0.12 -0.12)">
       <defs>
        <path id="ArialMT-30" d="M 266 2259 
Q 266 3072 433 3567 
Q 600 4063 929 4331 
Q 1259 4600 1759 4600 
Q 2128 4600 2406 4451 
Q 2684 4303 2865 4023 
Q 3047 3744 3150 3342 
Q 3253 2941 3253 2259 
Q 3253 1453 3087 958 
Q 2922 463 2592 192 
Q 2263 -78 1759 -78 
Q 1097 -78 719 397 
Q 266 969 266 2259 
z
M 844 2259 
Q 844 1131 1108 757 
Q 1372 384 1759 384 
Q 2147 384 2411 759 
Q 2675 1134 2675 2259 
Q 2675 3391 2411 3762 
Q 2147 4134 1753 4134 
Q 1366 4134 1134 3806 
Q 844 3388 844 2259 
z
" transform="scale(0.015625)"/>
       </defs>
       <use xlink:href="#ArialMT-30"/>
      </g>
     </g>
    </g>
    <g id="xtick_4">
     <g id="line2d_4">
      <path d="M 344.952677 372.1675 
L 344.952677 24.6525 
" clip-path="url(#pd374845bdf)" style="fill: none; stroke: #cccccc; stroke-opacity: 0.3; stroke-width: 0.5; stroke-linecap: round"/>
     </g>
     <g id="text_4">
      <!-- 1 -->
      <g style="fill: #262626" transform="translate(341.616115 387.756875) scale(0.12 -0.12)">
       <use xlink:href="#ArialMT-31"/>
      </g>
     </g>
    </g>
    <g id="xtick_5">
     <g id="line2d_5">
      <path d="M 421.736169 372.1675 
L 421.736169 24.6525 
" clip-path="url(#pd374845bdf)" style="fill: none; stroke: #cccccc; stroke-opacity: 0.3; stroke-width: 0.5; stroke-linecap: round"/>
     </g>
     <g id="text_5">
      <!-- 2 -->
      <g style="fill: #262626" transform="translate(418.399606 387.756875) scale(0.12 -0.12)">
       <use xlink:href="#ArialMT-32"/>
      </g>
     </g>
    </g>
    <g id="xtick_6">
     <g id="line2d_6">
      <path d="M 498.51966 372.1675 
L 498.51966 24.6525 
" clip-path="url(#pd374845bdf)" style="fill: none; stroke: #cccccc; stroke-opacity: 0.3; stroke-width: 0.5; stroke-linecap: round"/>
     </g>
     <g id="text_6">
      <!-- 3 -->
      <g style="fill: #262626" transform="translate(495.183098 387.756875) scale(0.12 -0.12)">
       <defs>
        <path id="ArialMT-33" d="M 269 1209 
L 831 1284 
Q 928 806 1161 595 
Q 1394 384 1728 384 
Q 2125 384 2398 659 
Q 2672 934 2672 1341 
Q 2672 1728 2419 1979 
Q 2166 2231 1775 2231 
Q 1616 2231 1378 2169 
L 1441 2663 
Q 1497 2656 1531 2656 
Q 1891 2656 2178 2843 
Q 2466 3031 2466 3422 
Q 2466 3731 2256 3934 
Q 2047 4138 1716 4138 
Q 1388 4138 1169 3931 
Q 950 3725 888 3313 
L 325 3413 
Q 428 3978 793 4289 
Q 1159 4600 1703 4600 
Q 2078 4600 2393 4439 
Q 2709 4278 2876 4000 
Q 3044 3722 3044 3409 
Q 3044 3113 2884 2869 
Q 2725 2625 2413 2481 
Q 2819 2388 3044 2092 
Q 3269 1797 3269 1353 
Q 3269 753 2831 336 
Q 2394 -81 1725 -81 
Q 1122 -81 723 278 
Q 325 638 269 1209 
z
" transform="scale(0.015625)"/>
       </defs>
       <use xlink:href="#ArialMT-33"/>
      </g>
     </g>
    </g>
    <g id="xtick_7">
     <g id="line2d_7">
      <path d="M 575.303152 372.1675 
L 575.303152 24.6525 
" clip-path="url(#pd374845bdf)" style="fill: none; stroke: #cccccc; stroke-opacity: 0.3; stroke-width: 0.5; stroke-linecap: round"/>
     </g>
     <g id="text_7">
      <!-- 4 -->
      <g style="fill: #262626" transform="translate(571.966589 387.756875) scale(0.12 -0.12)">
       <defs>
        <path id="ArialMT-34" d="M 2069 0 
L 2069 1097 
L 81 1097 
L 81 1613 
L 2172 4581 
L 2631 4581 
L 2631 1613 
L 3250 1613 
L 3250 1097 
L 2631 1097 
L 2631 0 
L 2069 0 
z
M 2069 1613 
L 2069 3678 
L 634 1613 
L 2069 1613 
z
" transform="scale(0.015625)"/>
       </defs>
       <use xlink:href="#ArialMT-34"/>
      </g>
     </g>
    </g>
    <g id="xtick_8">
     <g id="line2d_8">
      <path d="M 652.086643 372.1675 
L 652.086643 24.6525 
" clip-path="url(#pd374845bdf)" style="fill: none; stroke: #cccccc; stroke-opacity: 0.3; stroke-width: 0.5; stroke-linecap: round"/>
     </g>
     <g id="text_8">
      <!-- 5 -->
      <g style="fill: #262626" transform="translate(648.750081 387.756875) scale(0.12 -0.12)">
       <defs>
        <path id="ArialMT-35" d="M 266 1200 
L 856 1250 
Q 922 819 1161 601 
Q 1400 384 1738 384 
Q 2144 384 2425 690 
Q 2706 997 2706 1503 
Q 2706 1984 2436 2262 
Q 2166 2541 1728 2541 
Q 1456 2541 1237 2417 
Q 1019 2294 894 2097 
L 366 2166 
L 809 4519 
L 3088 4519 
L 3088 3981 
L 1259 3981 
L 1013 2750 
Q 1425 3038 1878 3038 
Q 2478 3038 2890 2622 
Q 3303 2206 3303 1553 
Q 3303 931 2941 478 
Q 2500 -78 1738 -78 
Q 1113 -78 717 272 
Q 322 622 266 1200 
z
" transform="scale(0.015625)"/>
       </defs>
       <use xlink:href="#ArialMT-35"/>
      </g>
     </g>
    </g>
    <g id="text_9">
     <!-- Error (%) -->
     <g style="fill: #262626" transform="translate(352.515312 410.333438) scale(0.14 -0.14)">
      <defs>
       <path id="ArialMT-45" d="M 506 0 
L 506 4581 
L 3819 4581 
L 3819 4041 
L 1113 4041 
L 1113 2638 
L 3647 2638 
L 3647 2100 
L 1113 2100 
L 1113 541 
L 3925 541 
L 3925 0 
L 506 0 
z
" transform="scale(0.015625)"/>
       <path id="ArialMT-72" d="M 416 0 
L 416 3319 
L 922 3319 
L 922 2816 
Q 1116 3169 1280 3281 
Q 1444 3394 1641 3394 
Q 1925 3394 2219 3213 
L 2025 2691 
Q 1819 2813 1613 2813 
Q 1428 2813 1281 2702 
Q 1134 2591 1072 2394 
Q 978 2094 978 1738 
L 978 0 
L 416 0 
z
" transform="scale(0.015625)"/>
       <path id="ArialMT-6f" d="M 213 1659 
Q 213 2581 725 3025 
Q 1153 3394 1769 3394 
Q 2453 3394 2887 2945 
Q 3322 2497 3322 1706 
Q 3322 1066 3130 698 
Q 2938 331 2570 128 
Q 2203 -75 1769 -75 
Q 1072 -75 642 372 
Q 213 819 213 1659 
z
M 791 1659 
Q 791 1022 1069 705 
Q 1347 388 1769 388 
Q 2188 388 2466 706 
Q 2744 1025 2744 1678 
Q 2744 2294 2464 2611 
Q 2184 2928 1769 2928 
Q 1347 2928 1069 2612 
Q 791 2297 791 1659 
z
" transform="scale(0.015625)"/>
       <path id="ArialMT-20" transform="scale(0.015625)"/>
       <path id="ArialMT-28" d="M 1497 -1347 
Q 1031 -759 709 28 
Q 388 816 388 1659 
Q 388 2403 628 3084 
Q 909 3875 1497 4659 
L 1900 4659 
Q 1522 4009 1400 3731 
Q 1209 3300 1100 2831 
Q 966 2247 966 1656 
Q 966 153 1900 -1347 
L 1497 -1347 
z
" transform="scale(0.015625)"/>
       <path id="ArialMT-25" d="M 372 3481 
Q 372 3972 619 4315 
Q 866 4659 1334 4659 
Q 1766 4659 2048 4351 
Q 2331 4044 2331 3447 
Q 2331 2866 2045 2552 
Q 1759 2238 1341 2238 
Q 925 2238 648 2547 
Q 372 2856 372 3481 
z
M 1350 4272 
Q 1141 4272 1002 4090 
Q 863 3909 863 3425 
Q 863 2984 1003 2804 
Q 1144 2625 1350 2625 
Q 1563 2625 1702 2806 
Q 1841 2988 1841 3469 
Q 1841 3913 1700 4092 
Q 1559 4272 1350 4272 
z
M 1353 -169 
L 3859 4659 
L 4316 4659 
L 1819 -169 
L 1353 -169 
z
M 3334 1075 
Q 3334 1569 3581 1911 
Q 3828 2253 4300 2253 
Q 4731 2253 5014 1945 
Q 5297 1638 5297 1041 
Q 5297 459 5011 145 
Q 4725 -169 4303 -169 
Q 3888 -169 3611 142 
Q 3334 453 3334 1075 
z
M 4316 1866 
Q 4103 1866 3964 1684 
Q 3825 1503 3825 1019 
Q 3825 581 3965 400 
Q 4106 219 4313 219 
Q 4528 219 4667 400 
Q 4806 581 4806 1063 
Q 4806 1506 4665 1686 
Q 4525 1866 4316 1866 
z
" transform="scale(0.015625)"/>
       <path id="ArialMT-29" d="M 791 -1347 
L 388 -1347 
Q 1322 153 1322 1656 
Q 1322 2244 1188 2822 
Q 1081 3291 891 3722 
Q 769 4003 388 4659 
L 791 4659 
Q 1378 3875 1659 3084 
Q 1900 2403 1900 1659 
Q 1900 816 1576 28 
Q 1253 -759 791 -1347 
z
" transform="scale(0.015625)"/>
      </defs>
      <use xlink:href="#ArialMT-45"/>
      <use xlink:href="#ArialMT-72" x="66.699219"/>
      <use xlink:href="#ArialMT-72" x="100"/>
      <use xlink:href="#ArialMT-6f" x="133.300781"/>
      <use xlink:href="#ArialMT-72" x="188.916016"/>
      <use xlink:href="#ArialMT-20" x="222.216797"/>
      <use xlink:href="#ArialMT-28" x="250"/>
      <use xlink:href="#ArialMT-25" x="283.300781"/>
      <use xlink:href="#ArialMT-29" x="372.216797"/>
     </g>
    </g>
   </g>
   <g id="matplotlib.axis_2">
    <g id="ytick_1">
     <g id="line2d_9">
      <path d="M 60.520625 372.1675 
L 701.28 372.1675 
" clip-path="url(#pd374845bdf)" style="fill: none; stroke: #cccccc; stroke-opacity: 0.3; stroke-width: 0.5; stroke-linecap: round"/>
     </g>
     <g id="text_10">
      <!-- 0.00 -->
      <g style="fill: #262626" transform="translate(30.1675 376.462188) scale(0.12 -0.12)">
       <defs>
        <path id="ArialMT-2e" d="M 581 0 
L 581 641 
L 1222 641 
L 1222 0 
L 581 0 
z
" transform="scale(0.015625)"/>
       </defs>
       <use xlink:href="#ArialMT-30"/>
       <use xlink:href="#ArialMT-2e" x="55.615234"/>
       <use xlink:href="#ArialMT-30" x="83.398438"/>
       <use xlink:href="#ArialMT-30" x="139.013672"/>
      </g>
     </g>
    </g>
    <g id="ytick_2">
     <g id="line2d_10">
      <path d="M 60.520625 313.195899 
L 701.28 313.195899 
" clip-path="url(#pd374845bdf)" style="fill: none; stroke: #cccccc; stroke-opacity: 0.3; stroke-width: 0.5; stroke-linecap: round"/>
     </g>
     <g id="text_11">
      <!-- 0.05 -->
      <g style="fill: #262626" transform="translate(30.1675 317.490587) scale(0.12 -0.12)">
       <use xlink:href="#ArialMT-30"/>
       <use xlink:href="#ArialMT-2e" x="55.615234"/>
       <use xlink:href="#ArialMT-30" x="83.398438"/>
       <use xlink:href="#ArialMT-35" x="139.013672"/>
      </g>
     </g>
    </g>
    <g id="ytick_3">
     <g id="line2d_11">
      <path d="M 60.520625 254.224298 
L 701.28 254.224298 
" clip-path="url(#pd374845bdf)" style="fill: none; stroke: #cccccc; stroke-opacity: 0.3; stroke-width: 0.5; stroke-linecap: round"/>
     </g>
     <g id="text_12">
      <!-- 0.10 -->
      <g style="fill: #262626" transform="translate(30.1675 258.518986) scale(0.12 -0.12)">
       <use xlink:href="#ArialMT-30"/>
       <use xlink:href="#ArialMT-2e" x="55.615234"/>
       <use xlink:href="#ArialMT-31" x="83.398438"/>
       <use xlink:href="#ArialMT-30" x="139.013672"/>
      </g>
     </g>
    </g>
    <g id="ytick_4">
     <g id="line2d_12">
      <path d="M 60.520625 195.252698 
L 701.28 195.252698 
" clip-path="url(#pd374845bdf)" style="fill: none; stroke: #cccccc; stroke-opacity: 0.3; stroke-width: 0.5; stroke-linecap: round"/>
     </g>
     <g id="text_13">
      <!-- 0.15 -->
      <g style="fill: #262626" transform="translate(30.1675 199.547385) scale(0.12 -0.12)">
       <use xlink:href="#ArialMT-30"/>
       <use xlink:href="#ArialMT-2e" x="55.615234"/>
       <use xlink:href="#ArialMT-31" x="83.398438"/>
       <use xlink:href="#ArialMT-35" x="139.013672"/>
      </g>
     </g>
    </g>
    <g id="ytick_5">
     <g id="line2d_13">
      <path d="M 60.520625 136.281097 
L 701.28 136.281097 
" clip-path="url(#pd374845bdf)" style="fill: none; stroke: #cccccc; stroke-opacity: 0.3; stroke-width: 0.5; stroke-linecap: round"/>
     </g>
     <g id="text_14">
      <!-- 0.20 -->
      <g style="fill: #262626" transform="translate(30.1675 140.575784) scale(0.12 -0.12)">
       <use xlink:href="#ArialMT-30"/>
       <use xlink:href="#ArialMT-2e" x="55.615234"/>
       <use xlink:href="#ArialMT-32" x="83.398438"/>
       <use xlink:href="#ArialMT-30" x="139.013672"/>
      </g>
     </g>
    </g>
    <g id="ytick_6">
     <g id="line2d_14">
      <path d="M 60.520625 77.309496 
L 701.28 77.309496 
" clip-path="url(#pd374845bdf)" style="fill: none; stroke: #cccccc; stroke-opacity: 0.3; stroke-width: 0.5; stroke-linecap: round"/>
     </g>
     <g id="text_15">
      <!-- 0.25 -->
      <g style="fill: #262626" transform="translate(30.1675 81.604184) scale(0.12 -0.12)">
       <use xlink:href="#ArialMT-30"/>
       <use xlink:href="#ArialMT-2e" x="55.615234"/>
       <use xlink:href="#ArialMT-32" x="83.398438"/>
       <use xlink:href="#ArialMT-35" x="139.013672"/>
      </g>
     </g>
    </g>
    <g id="text_16">
     <!-- Density -->
     <g style="fill: #262626" transform="translate(17.220938 221.750625) rotate(-90) scale(0.14 -0.14)">
      <defs>
       <path id="ArialMT-44" d="M 494 0 
L 494 4581 
L 2072 4581 
Q 2606 4581 2888 4516 
Q 3281 4425 3559 4188 
Q 3922 3881 4101 3404 
Q 4281 2928 4281 2316 
Q 4281 1794 4159 1391 
Q 4038 988 3847 723 
Q 3656 459 3429 307 
Q 3203 156 2883 78 
Q 2563 0 2147 0 
L 494 0 
z
M 1100 541 
L 2078 541 
Q 2531 541 2789 625 
Q 3047 709 3200 863 
Q 3416 1078 3536 1442 
Q 3656 1806 3656 2325 
Q 3656 3044 3420 3430 
Q 3184 3816 2847 3947 
Q 2603 4041 2063 4041 
L 1100 4041 
L 1100 541 
z
" transform="scale(0.015625)"/>
       <path id="ArialMT-65" d="M 2694 1069 
L 3275 997 
Q 3138 488 2766 206 
Q 2394 -75 1816 -75 
Q 1088 -75 661 373 
Q 234 822 234 1631 
Q 234 2469 665 2931 
Q 1097 3394 1784 3394 
Q 2450 3394 2872 2941 
Q 3294 2488 3294 1666 
Q 3294 1616 3291 1516 
L 816 1516 
Q 847 969 1125 678 
Q 1403 388 1819 388 
Q 2128 388 2347 550 
Q 2566 713 2694 1069 
z
M 847 1978 
L 2700 1978 
Q 2663 2397 2488 2606 
Q 2219 2931 1791 2931 
Q 1403 2931 1139 2672 
Q 875 2413 847 1978 
z
" transform="scale(0.015625)"/>
       <path id="ArialMT-6e" d="M 422 0 
L 422 3319 
L 928 3319 
L 928 2847 
Q 1294 3394 1984 3394 
Q 2284 3394 2536 3286 
Q 2788 3178 2913 3003 
Q 3038 2828 3088 2588 
Q 3119 2431 3119 2041 
L 3119 0 
L 2556 0 
L 2556 2019 
Q 2556 2363 2490 2533 
Q 2425 2703 2258 2804 
Q 2091 2906 1866 2906 
Q 1506 2906 1245 2678 
Q 984 2450 984 1813 
L 984 0 
L 422 0 
z
" transform="scale(0.015625)"/>
       <path id="ArialMT-73" d="M 197 991 
L 753 1078 
Q 800 744 1014 566 
Q 1228 388 1613 388 
Q 2000 388 2187 545 
Q 2375 703 2375 916 
Q 2375 1106 2209 1216 
Q 2094 1291 1634 1406 
Q 1016 1563 777 1677 
Q 538 1791 414 1992 
Q 291 2194 291 2438 
Q 291 2659 392 2848 
Q 494 3038 669 3163 
Q 800 3259 1026 3326 
Q 1253 3394 1513 3394 
Q 1903 3394 2198 3281 
Q 2494 3169 2634 2976 
Q 2775 2784 2828 2463 
L 2278 2388 
Q 2241 2644 2061 2787 
Q 1881 2931 1553 2931 
Q 1166 2931 1000 2803 
Q 834 2675 834 2503 
Q 834 2394 903 2306 
Q 972 2216 1119 2156 
Q 1203 2125 1616 2013 
Q 2213 1853 2448 1751 
Q 2684 1650 2818 1456 
Q 2953 1263 2953 975 
Q 2953 694 2789 445 
Q 2625 197 2315 61 
Q 2006 -75 1616 -75 
Q 969 -75 630 194 
Q 291 463 197 991 
z
" transform="scale(0.015625)"/>
       <path id="ArialMT-69" d="M 425 3934 
L 425 4581 
L 988 4581 
L 988 3934 
L 425 3934 
z
M 425 0 
L 425 3319 
L 988 3319 
L 988 0 
L 425 0 
z
" transform="scale(0.015625)"/>
       <path id="ArialMT-74" d="M 1650 503 
L 1731 6 
Q 1494 -44 1306 -44 
Q 1000 -44 831 53 
Q 663 150 594 308 
Q 525 466 525 972 
L 525 2881 
L 113 2881 
L 113 3319 
L 525 3319 
L 525 4141 
L 1084 4478 
L 1084 3319 
L 1650 3319 
L 1650 2881 
L 1084 2881 
L 1084 941 
Q 1084 700 1114 631 
Q 1144 563 1211 522 
Q 1278 481 1403 481 
Q 1497 481 1650 503 
z
" transform="scale(0.015625)"/>
       <path id="ArialMT-79" d="M 397 -1278 
L 334 -750 
Q 519 -800 656 -800 
Q 844 -800 956 -737 
Q 1069 -675 1141 -563 
Q 1194 -478 1313 -144 
Q 1328 -97 1363 -6 
L 103 3319 
L 709 3319 
L 1400 1397 
Q 1534 1031 1641 628 
Q 1738 1016 1872 1384 
L 2581 3319 
L 3144 3319 
L 1881 -56 
Q 1678 -603 1566 -809 
Q 1416 -1088 1222 -1217 
Q 1028 -1347 759 -1347 
Q 597 -1347 397 -1278 
z
" transform="scale(0.015625)"/>
      </defs>
      <use xlink:href="#ArialMT-44"/>
      <use xlink:href="#ArialMT-65" x="72.216797"/>
      <use xlink:href="#ArialMT-6e" x="127.832031"/>
      <use xlink:href="#ArialMT-73" x="183.447266"/>
      <use xlink:href="#ArialMT-69" x="233.447266"/>
      <use xlink:href="#ArialMT-74" x="255.664062"/>
      <use xlink:href="#ArialMT-79" x="283.447266"/>
     </g>
    </g>
   </g>
   <g id="PolyCollection_1">
    <defs>
     <path id="me257004ef3" d="M 155.458299 -49.399881 
L 155.458299 -48.3125 
L 158.054763 -48.3125 
L 160.651226 -48.3125 
L 163.24769 -48.3125 
L 165.844154 -48.3125 
L 168.440617 -48.3125 
L 171.037081 -48.3125 
L 173.633545 -48.3125 
L 176.230009 -48.3125 
L 178.826472 -48.3125 
L 181.422936 -48.3125 
L 184.0194 -48.3125 
L 186.615863 -48.3125 
L 189.212327 -48.3125 
L 191.808791 -48.3125 
L 194.405254 -48.3125 
L 197.001718 -48.3125 
L 199.598182 -48.3125 
L 202.194645 -48.3125 
L 204.791109 -48.3125 
L 207.387573 -48.3125 
L 209.984037 -48.3125 
L 212.5805 -48.3125 
L 215.176964 -48.3125 
L 217.773428 -48.3125 
L 220.369891 -48.3125 
L 222.966355 -48.3125 
L 225.562819 -48.3125 
L 228.159282 -48.3125 
L 230.755746 -48.3125 
L 233.35221 -48.3125 
L 235.948673 -48.3125 
L 238.545137 -48.3125 
L 241.141601 -48.3125 
L 243.738065 -48.3125 
L 246.334528 -48.3125 
L 248.930992 -48.3125 
L 251.527456 -48.3125 
L 254.123919 -48.3125 
L 256.720383 -48.3125 
L 259.316847 -48.3125 
L 261.91331 -48.3125 
L 264.509774 -48.3125 
L 267.106238 -48.3125 
L 269.702701 -48.3125 
L 272.299165 -48.3125 
L 274.895629 -48.3125 
L 277.492093 -48.3125 
L 280.088556 -48.3125 
L 282.68502 -48.3125 
L 285.281484 -48.3125 
L 287.877947 -48.3125 
L 290.474411 -48.3125 
L 293.070875 -48.3125 
L 295.667338 -48.3125 
L 298.263802 -48.3125 
L 300.860266 -48.3125 
L 303.456729 -48.3125 
L 306.053193 -48.3125 
L 308.649657 -48.3125 
L 311.246121 -48.3125 
L 313.842584 -48.3125 
L 316.439048 -48.3125 
L 319.035512 -48.3125 
L 321.631975 -48.3125 
L 324.228439 -48.3125 
L 326.824903 -48.3125 
L 329.421366 -48.3125 
L 332.01783 -48.3125 
L 334.614294 -48.3125 
L 337.210757 -48.3125 
L 339.807221 -48.3125 
L 342.403685 -48.3125 
L 345.000149 -48.3125 
L 347.596612 -48.3125 
L 350.193076 -48.3125 
L 352.78954 -48.3125 
L 355.386003 -48.3125 
L 357.982467 -48.3125 
L 360.578931 -48.3125 
L 363.175394 -48.3125 
L 365.771858 -48.3125 
L 368.368322 -48.3125 
L 370.964786 -48.3125 
L 373.561249 -48.3125 
L 376.157713 -48.3125 
L 378.754177 -48.3125 
L 381.35064 -48.3125 
L 383.947104 -48.3125 
L 386.543568 -48.3125 
L 389.140031 -48.3125 
L 391.736495 -48.3125 
L 394.332959 -48.3125 
L 396.929422 -48.3125 
L 399.525886 -48.3125 
L 402.12235 -48.3125 
L 404.718814 -48.3125 
L 407.315277 -48.3125 
L 409.911741 -48.3125 
L 412.508205 -48.3125 
L 415.104668 -48.3125 
L 417.701132 -48.3125 
L 420.297596 -48.3125 
L 422.894059 -48.3125 
L 425.490523 -48.3125 
L 428.086987 -48.3125 
L 430.68345 -48.3125 
L 433.279914 -48.3125 
L 435.876378 -48.3125 
L 438.472842 -48.3125 
L 441.069305 -48.3125 
L 443.665769 -48.3125 
L 446.262233 -48.3125 
L 448.858696 -48.3125 
L 451.45516 -48.3125 
L 454.051624 -48.3125 
L 456.648087 -48.3125 
L 459.244551 -48.3125 
L 461.841015 -48.3125 
L 464.437478 -48.3125 
L 467.033942 -48.3125 
L 469.630406 -48.3125 
L 472.22687 -48.3125 
L 474.823333 -48.3125 
L 477.419797 -48.3125 
L 480.016261 -48.3125 
L 482.612724 -48.3125 
L 485.209188 -48.3125 
L 487.805652 -48.3125 
L 490.402115 -48.3125 
L 492.998579 -48.3125 
L 495.595043 -48.3125 
L 498.191506 -48.3125 
L 500.78797 -48.3125 
L 503.384434 -48.3125 
L 505.980898 -48.3125 
L 508.577361 -48.3125 
L 511.173825 -48.3125 
L 513.770289 -48.3125 
L 516.366752 -48.3125 
L 518.963216 -48.3125 
L 521.55968 -48.3125 
L 524.156143 -48.3125 
L 526.752607 -48.3125 
L 529.349071 -48.3125 
L 531.945534 -48.3125 
L 534.541998 -48.3125 
L 537.138462 -48.3125 
L 539.734926 -48.3125 
L 542.331389 -48.3125 
L 544.927853 -48.3125 
L 547.524317 -48.3125 
L 550.12078 -48.3125 
L 552.717244 -48.3125 
L 555.313708 -48.3125 
L 557.910171 -48.3125 
L 560.506635 -48.3125 
L 563.103099 -48.3125 
L 565.699562 -48.3125 
L 568.296026 -48.3125 
L 570.89249 -48.3125 
L 573.488954 -48.3125 
L 576.085417 -48.3125 
L 578.681881 -48.3125 
L 581.278345 -48.3125 
L 583.874808 -48.3125 
L 586.471272 -48.3125 
L 589.067736 -48.3125 
L 591.664199 -48.3125 
L 594.260663 -48.3125 
L 596.857127 -48.3125 
L 599.45359 -48.3125 
L 602.050054 -48.3125 
L 604.646518 -48.3125 
L 607.242982 -48.3125 
L 609.839445 -48.3125 
L 612.435909 -48.3125 
L 615.032373 -48.3125 
L 617.628836 -48.3125 
L 620.2253 -48.3125 
L 622.821764 -48.3125 
L 625.418227 -48.3125 
L 628.014691 -48.3125 
L 630.611155 -48.3125 
L 633.207618 -48.3125 
L 635.804082 -48.3125 
L 638.400546 -48.3125 
L 640.99701 -48.3125 
L 643.593473 -48.3125 
L 646.189937 -48.3125 
L 648.786401 -48.3125 
L 651.382864 -48.3125 
L 653.979328 -48.3125 
L 656.575792 -48.3125 
L 659.172255 -48.3125 
L 661.768719 -48.3125 
L 664.365183 -48.3125 
L 666.961646 -48.3125 
L 669.55811 -48.3125 
L 672.154574 -48.3125 
L 672.154574 -48.644539 
L 672.154574 -48.644539 
L 669.55811 -48.719034 
L 666.961646 -48.808288 
L 664.365183 -48.914775 
L 661.768719 -49.041284 
L 659.172255 -49.19095 
L 656.575792 -49.36727 
L 653.979328 -49.57412 
L 651.382864 -49.815778 
L 648.786401 -50.096925 
L 646.189937 -50.422661 
L 643.593473 -50.7985 
L 640.99701 -51.230366 
L 638.400546 -51.724578 
L 635.804082 -52.287835 
L 633.207618 -52.927177 
L 630.611155 -53.649955 
L 628.014691 -54.463779 
L 625.418227 -55.376468 
L 622.821764 -56.395977 
L 620.2253 -57.530336 
L 617.628836 -58.787563 
L 615.032373 -60.175585 
L 612.435909 -61.702152 
L 609.839445 -63.374742 
L 607.242982 -65.200479 
L 604.646518 -67.186043 
L 602.050054 -69.337588 
L 599.45359 -71.660669 
L 596.857127 -74.160178 
L 594.260663 -76.840293 
L 591.664199 -79.704435 
L 589.067736 -82.755252 
L 586.471272 -85.994609 
L 583.874808 -89.423606 
L 581.278345 -93.042604 
L 578.681881 -96.851273 
L 576.085417 -100.848663 
L 573.488954 -105.033273 
L 570.89249 -109.403147 
L 568.296026 -113.955967 
L 565.699562 -118.689153 
L 563.103099 -123.59996 
L 560.506635 -128.685568 
L 557.910171 -133.943158 
L 555.313708 -139.369974 
L 552.717244 -144.963353 
L 550.12078 -150.720735 
L 547.524317 -156.639637 
L 544.927853 -162.717589 
L 542.331389 -168.952036 
L 539.734926 -175.340204 
L 537.138462 -181.878924 
L 534.541998 -188.564429 
L 531.945534 -195.39212 
L 529.349071 -202.356312 
L 526.752607 -209.44997 
L 524.156143 -216.664435 
L 521.55968 -223.989169 
L 518.963216 -231.411515 
L 516.366752 -238.916488 
L 513.770289 -246.486617 
L 511.173825 -254.101843 
L 508.577361 -261.739481 
L 505.980898 -269.37426 
L 503.384434 -276.978452 
L 500.78797 -284.522076 
L 498.191506 -291.973202 
L 495.595043 -299.298332 
L 492.998579 -306.462866 
L 490.402115 -313.431639 
L 487.805652 -320.16951 
L 485.209188 -326.64201 
L 482.612724 -332.816003 
L 480.016261 -338.660364 
L 477.419797 -344.146643 
L 474.823333 -349.249699 
L 472.22687 -353.948283 
L 469.630406 -358.225544 
L 467.033942 -362.069458 
L 464.437478 -365.47315 
L 461.841015 -368.435097 
L 459.244551 -370.959223 
L 456.648087 -373.054853 
L 454.051624 -374.736556 
L 451.45516 -376.023858 
L 448.858696 -376.94084 
L 446.262233 -377.515643 
L 443.665769 -377.779872 
L 441.069305 -377.767936 
L 438.472842 -377.516339 
L 435.876378 -377.062927 
L 433.279914 -376.446133 
L 430.68345 -375.704226 
L 428.086987 -374.874588 
L 425.490523 -373.993041 
L 422.894059 -373.093232 
L 420.297596 -372.206095 
L 417.701132 -371.359406 
L 415.104668 -370.577427 
L 412.508205 -369.880655 
L 409.911741 -369.285669 
L 407.315277 -368.805086 
L 404.718814 -368.447606 
L 402.12235 -368.218152 
L 399.525886 -368.118087 
L 396.929422 -368.145505 
L 394.332959 -368.295574 
L 391.736495 -368.560923 
L 389.140031 -368.932058 
L 386.543568 -369.397786 
L 383.947104 -369.94564 
L 381.35064 -370.562285 
L 378.754177 -371.233896 
L 376.157713 -371.946491 
L 373.561249 -372.686215 
L 370.964786 -373.439562 
L 368.368322 -374.193533 
L 365.771858 -374.935729 
L 363.175394 -375.654369 
L 360.578931 -376.338249 
L 357.982467 -376.976636 
L 355.386003 -377.559112 
L 352.78954 -378.075364 
L 350.193076 -378.514958 
L 347.596612 -378.867072 
L 345.000149 -379.120244 
L 342.403685 -379.262107 
L 339.807221 -379.279167 
L 337.210757 -379.156598 
L 334.614294 -378.878104 
L 332.01783 -378.42583 
L 329.421366 -377.780346 
L 326.824903 -376.920717 
L 324.228439 -375.824641 
L 321.631975 -374.468682 
L 319.035512 -372.82858 
L 316.439048 -370.879639 
L 313.842584 -368.597185 
L 311.246121 -365.957079 
L 308.649657 -362.936279 
L 306.053193 -359.513433 
L 303.456729 -355.669477 
L 300.860266 -351.388235 
L 298.263802 -346.656991 
L 295.667338 -341.467018 
L 293.070875 -335.81405 
L 290.474411 -329.698669 
L 287.877947 -323.12661 
L 285.281484 -316.108956 
L 282.68502 -308.662225 
L 280.088556 -300.808338 
L 277.492093 -292.574471 
L 274.895629 -283.992784 
L 272.299165 -275.100042 
L 269.702701 -265.937132 
L 267.106238 -256.54849 
L 264.509774 -246.981444 
L 261.91331 -237.285502 
L 259.316847 -227.511597 
L 256.720383 -217.711305 
L 254.123919 -207.936063 
L 251.527456 -198.236395 
L 248.930992 -188.661183 
L 246.334528 -179.256973 
L 243.738065 -170.067363 
L 241.141601 -161.132452 
L 238.545137 -152.488388 
L 235.948673 -144.167006 
L 233.35221 -136.195566 
L 230.755746 -128.596587 
L 228.159282 -121.387783 
L 225.562819 -114.582091 
L 222.966355 -108.187789 
L 220.369891 -102.208685 
L 217.773428 -96.644385 
L 215.176964 -91.49061 
L 212.5805 -86.739566 
L 209.984037 -82.380339 
L 207.387573 -78.399326 
L 204.791109 -74.780657 
L 202.194645 -71.506637 
L 199.598182 -68.558163 
L 197.001718 -65.915129 
L 194.405254 -63.556809 
L 191.808791 -61.462201 
L 189.212327 -59.610345 
L 186.615863 -57.980595 
L 184.0194 -56.552857 
L 181.422936 -55.307787 
L 178.826472 -54.22695 
L 176.230009 -53.292938 
L 173.633545 -52.489462 
L 171.037081 -51.801403 
L 168.440617 -51.214841 
L 165.844154 -50.717057 
L 163.24769 -50.296517 
L 160.651226 -49.94283 
L 158.054763 -49.646704 
L 155.458299 -49.399881 
z
" style="stroke: #2ecc71"/>
    </defs>
    <g clip-path="url(#pd374845bdf)">
     <use xlink:href="#me257004ef3" x="0" y="420.48" style="fill: #2ecc71; fill-opacity: 0.3; stroke: #2ecc71"/>
    </g>
   </g>
   <g id="PolyCollection_2">
    <defs>
     <path id="m373643541b" d="M 89.646051 -50.72192 
L 89.646051 -48.3125 
L 92.27843 -48.3125 
L 94.910808 -48.3125 
L 97.543187 -48.3125 
L 100.175565 -48.3125 
L 102.807943 -48.3125 
L 105.440322 -48.3125 
L 108.0727 -48.3125 
L 110.705079 -48.3125 
L 113.337457 -48.3125 
L 115.969836 -48.3125 
L 118.602214 -48.3125 
L 121.234593 -48.3125 
L 123.866971 -48.3125 
L 126.49935 -48.3125 
L 129.131728 -48.3125 
L 131.764106 -48.3125 
L 134.396485 -48.3125 
L 137.028863 -48.3125 
L 139.661242 -48.3125 
L 142.29362 -48.3125 
L 144.925999 -48.3125 
L 147.558377 -48.3125 
L 150.190756 -48.3125 
L 152.823134 -48.3125 
L 155.455513 -48.3125 
L 158.087891 -48.3125 
L 160.720269 -48.3125 
L 163.352648 -48.3125 
L 165.985026 -48.3125 
L 168.617405 -48.3125 
L 171.249783 -48.3125 
L 173.882162 -48.3125 
L 176.51454 -48.3125 
L 179.146919 -48.3125 
L 181.779297 -48.3125 
L 184.411676 -48.3125 
L 187.044054 -48.3125 
L 189.676432 -48.3125 
L 192.308811 -48.3125 
L 194.941189 -48.3125 
L 197.573568 -48.3125 
L 200.205946 -48.3125 
L 202.838325 -48.3125 
L 205.470703 -48.3125 
L 208.103082 -48.3125 
L 210.73546 -48.3125 
L 213.367839 -48.3125 
L 216.000217 -48.3125 
L 218.632595 -48.3125 
L 221.264974 -48.3125 
L 223.897352 -48.3125 
L 226.529731 -48.3125 
L 229.162109 -48.3125 
L 231.794488 -48.3125 
L 234.426866 -48.3125 
L 237.059245 -48.3125 
L 239.691623 -48.3125 
L 242.324002 -48.3125 
L 244.95638 -48.3125 
L 247.588758 -48.3125 
L 250.221137 -48.3125 
L 252.853515 -48.3125 
L 255.485894 -48.3125 
L 258.118272 -48.3125 
L 260.750651 -48.3125 
L 263.383029 -48.3125 
L 266.015408 -48.3125 
L 268.647786 -48.3125 
L 271.280165 -48.3125 
L 273.912543 -48.3125 
L 276.544921 -48.3125 
L 279.1773 -48.3125 
L 281.809678 -48.3125 
L 284.442057 -48.3125 
L 287.074435 -48.3125 
L 289.706814 -48.3125 
L 292.339192 -48.3125 
L 294.971571 -48.3125 
L 297.603949 -48.3125 
L 300.236328 -48.3125 
L 302.868706 -48.3125 
L 305.501084 -48.3125 
L 308.133463 -48.3125 
L 310.765841 -48.3125 
L 313.39822 -48.3125 
L 316.030598 -48.3125 
L 318.662977 -48.3125 
L 321.295355 -48.3125 
L 323.927734 -48.3125 
L 326.560112 -48.3125 
L 329.192491 -48.3125 
L 331.824869 -48.3125 
L 334.457247 -48.3125 
L 337.089626 -48.3125 
L 339.722004 -48.3125 
L 342.354383 -48.3125 
L 344.986761 -48.3125 
L 347.61914 -48.3125 
L 350.251518 -48.3125 
L 352.883897 -48.3125 
L 355.516275 -48.3125 
L 358.148654 -48.3125 
L 360.781032 -48.3125 
L 363.41341 -48.3125 
L 366.045789 -48.3125 
L 368.678167 -48.3125 
L 371.310546 -48.3125 
L 373.942924 -48.3125 
L 376.575303 -48.3125 
L 379.207681 -48.3125 
L 381.84006 -48.3125 
L 384.472438 -48.3125 
L 387.104817 -48.3125 
L 389.737195 -48.3125 
L 392.369573 -48.3125 
L 395.001952 -48.3125 
L 397.63433 -48.3125 
L 400.266709 -48.3125 
L 402.899087 -48.3125 
L 405.531466 -48.3125 
L 408.163844 -48.3125 
L 410.796223 -48.3125 
L 413.428601 -48.3125 
L 416.06098 -48.3125 
L 418.693358 -48.3125 
L 421.325736 -48.3125 
L 423.958115 -48.3125 
L 426.590493 -48.3125 
L 429.222872 -48.3125 
L 431.85525 -48.3125 
L 434.487629 -48.3125 
L 437.120007 -48.3125 
L 439.752386 -48.3125 
L 442.384764 -48.3125 
L 445.017143 -48.3125 
L 447.649521 -48.3125 
L 450.281899 -48.3125 
L 452.914278 -48.3125 
L 455.546656 -48.3125 
L 458.179035 -48.3125 
L 460.811413 -48.3125 
L 463.443792 -48.3125 
L 466.07617 -48.3125 
L 468.708549 -48.3125 
L 471.340927 -48.3125 
L 473.973306 -48.3125 
L 476.605684 -48.3125 
L 479.238062 -48.3125 
L 481.870441 -48.3125 
L 484.502819 -48.3125 
L 487.135198 -48.3125 
L 489.767576 -48.3125 
L 492.399955 -48.3125 
L 495.032333 -48.3125 
L 497.664712 -48.3125 
L 500.29709 -48.3125 
L 502.929469 -48.3125 
L 505.561847 -48.3125 
L 508.194225 -48.3125 
L 510.826604 -48.3125 
L 513.458982 -48.3125 
L 516.091361 -48.3125 
L 518.723739 -48.3125 
L 521.356118 -48.3125 
L 523.988496 -48.3125 
L 526.620875 -48.3125 
L 529.253253 -48.3125 
L 531.885632 -48.3125 
L 534.51801 -48.3125 
L 537.150388 -48.3125 
L 539.782767 -48.3125 
L 542.415145 -48.3125 
L 545.047524 -48.3125 
L 547.679902 -48.3125 
L 550.312281 -48.3125 
L 552.944659 -48.3125 
L 555.577038 -48.3125 
L 558.209416 -48.3125 
L 560.841795 -48.3125 
L 563.474173 -48.3125 
L 566.106551 -48.3125 
L 568.73893 -48.3125 
L 571.371308 -48.3125 
L 574.003687 -48.3125 
L 576.636065 -48.3125 
L 579.268444 -48.3125 
L 581.900822 -48.3125 
L 584.533201 -48.3125 
L 587.165579 -48.3125 
L 589.797958 -48.3125 
L 592.430336 -48.3125 
L 595.062714 -48.3125 
L 597.695093 -48.3125 
L 600.327471 -48.3125 
L 602.95985 -48.3125 
L 605.592228 -48.3125 
L 608.224607 -48.3125 
L 610.856985 -48.3125 
L 613.489364 -48.3125 
L 613.489364 -50.327836 
L 613.489364 -50.327836 
L 610.856985 -50.613564 
L 608.224607 -50.935048 
L 605.592228 -51.29604 
L 602.95985 -51.700587 
L 600.327471 -52.153037 
L 597.695093 -52.658045 
L 595.062714 -53.220583 
L 592.430336 -53.845941 
L 589.797958 -54.539728 
L 587.165579 -55.307872 
L 584.533201 -56.156611 
L 581.900822 -57.09249 
L 579.268444 -58.122343 
L 576.636065 -59.25328 
L 574.003687 -60.492663 
L 571.371308 -61.848082 
L 568.73893 -63.327324 
L 566.106551 -64.938336 
L 563.474173 -66.689185 
L 560.841795 -68.588007 
L 558.209416 -70.642959 
L 555.577038 -72.862158 
L 552.944659 -75.253621 
L 550.312281 -77.825193 
L 547.679902 -80.584473 
L 545.047524 -83.53874 
L 542.415145 -86.694867 
L 539.782767 -90.059239 
L 537.150388 -93.63766 
L 534.51801 -97.435266 
L 531.885632 -101.456434 
L 529.253253 -105.704686 
L 526.620875 -110.1826 
L 523.988496 -114.891723 
L 521.356118 -119.832481 
L 518.723739 -125.004096 
L 516.091361 -130.404518 
L 513.458982 -136.030343 
L 510.826604 -141.876763 
L 508.194225 -147.937508 
L 505.561847 -154.204807 
L 502.929469 -160.669359 
L 500.29709 -167.320316 
L 497.664712 -174.145282 
L 495.032333 -181.13033 
L 492.399955 -188.260026 
L 489.767576 -195.517477 
L 487.135198 -202.884397 
L 484.502819 -210.341182 
L 481.870441 -217.867013 
L 479.238062 -225.439967 
L 476.605684 -233.037149 
L 473.973306 -240.634841 
L 471.340927 -248.208662 
L 468.708549 -255.733745 
L 466.07617 -263.184927 
L 463.443792 -270.536947 
L 460.811413 -277.764655 
L 458.179035 -284.843227 
L 455.546656 -291.748384 
L 452.914278 -298.456615 
L 450.281899 -304.945399 
L 447.649521 -311.193421 
L 445.017143 -317.180787 
L 442.384764 -322.889225 
L 439.752386 -328.302281 
L 437.120007 -333.405495 
L 434.487629 -338.186561 
L 431.85525 -342.635475 
L 429.222872 -346.74465 
L 426.590493 -350.509018 
L 423.958115 -353.926098 
L 421.325736 -356.996044 
L 418.693358 -359.721658 
L 416.06098 -362.108381 
L 413.428601 -364.16425 
L 410.796223 -365.899821 
L 408.163844 -367.328071 
L 405.531466 -368.464267 
L 402.899087 -369.325801 
L 400.266709 -369.932009 
L 397.63433 -370.303958 
L 395.001952 -370.46421 
L 392.369573 -370.436567 
L 389.737195 -370.245804 
L 387.104817 -369.917374 
L 384.472438 -369.477121 
L 381.84006 -368.950963 
L 379.207681 -368.364595 
L 376.575303 -367.743171 
L 373.942924 -367.111006 
L 371.310546 -366.491274 
L 368.678167 -365.905725 
L 366.045789 -365.374416 
L 363.41341 -364.915458 
L 360.781032 -364.544788 
L 358.148654 -364.275964 
L 355.516275 -364.119992 
L 352.883897 -364.085179 
L 350.251518 -364.177022 
L 347.61914 -364.398125 
L 344.986761 -364.748165 
L 342.354383 -365.223874 
L 339.722004 -365.819076 
L 337.089626 -366.524749 
L 334.457247 -367.329125 
L 331.824869 -368.217824 
L 329.192491 -369.174021 
L 326.560112 -370.178645 
L 323.927734 -371.210599 
L 321.295355 -372.247013 
L 318.662977 -373.263511 
L 316.030598 -374.234507 
L 313.39822 -375.133502 
L 310.765841 -375.9334 
L 308.133463 -376.606831 
L 305.501084 -377.126471 
L 302.868706 -377.465366 
L 300.236328 -377.597245 
L 297.603949 -377.49683 
L 294.971571 -377.140127 
L 292.339192 -376.5047 
L 289.706814 -375.56993 
L 287.074435 -374.317245 
L 284.442057 -372.730331 
L 281.809678 -370.795304 
L 279.1773 -368.500868 
L 276.544921 -365.838425 
L 273.912543 -362.802167 
L 271.280165 -359.389123 
L 268.647786 -355.599187 
L 266.015408 -351.435101 
L 263.383029 -346.902412 
L 260.750651 -342.009403 
L 258.118272 -336.766986 
L 255.485894 -331.188578 
L 252.853515 -325.289944 
L 250.221137 -319.089024 
L 247.588758 -312.60574 
L 244.95638 -305.861783 
L 242.324002 -298.880391 
L 239.691623 -291.686115 
L 237.059245 -284.304578 
L 234.426866 -276.762232 
L 231.794488 -269.086108 
L 229.162109 -261.303578 
L 226.529731 -253.442114 
L 223.897352 -245.529055 
L 221.264974 -237.591392 
L 218.632595 -229.655552 
L 216.000217 -221.74721 
L 213.367839 -213.891105 
L 210.73546 -206.110881 
L 208.103082 -198.428942 
L 205.470703 -190.866329 
L 202.838325 -183.44261 
L 200.205946 -176.1758 
L 197.573568 -169.082291 
L 194.941189 -162.176806 
L 192.308811 -155.47237 
L 189.676432 -148.9803 
L 187.044054 -142.710212 
L 184.411676 -136.670042 
L 181.779297 -130.866085 
L 179.146919 -125.303041 
L 176.51454 -119.984084 
L 173.882162 -114.910925 
L 171.249783 -110.083904 
L 168.617405 -105.502066 
L 165.985026 -101.163268 
L 163.352648 -97.064268 
L 160.720269 -93.200829 
L 158.087891 -89.567824 
L 155.455513 -86.159338 
L 152.823134 -82.968767 
L 150.190756 -79.988926 
L 147.558377 -77.212137 
L 144.925999 -74.630332 
L 142.29362 -72.235135 
L 139.661242 -70.017951 
L 137.028863 -67.970044 
L 134.396485 -66.082609 
L 131.764106 -64.34684 
L 129.131728 -62.753991 
L 126.49935 -61.29543 
L 123.866971 -59.96269 
L 121.234593 -58.747505 
L 118.602214 -57.641854 
L 115.969836 -56.637986 
L 113.337457 -55.728445 
L 110.705079 -54.906095 
L 108.0727 -54.164129 
L 105.440322 -53.49608 
L 102.807943 -52.895832 
L 100.175565 -52.357618 
L 97.543187 -51.876021 
L 94.910808 -51.445971 
L 92.27843 -51.062737 
L 89.646051 -50.72192 
z
" style="stroke: #e74c3c"/>
    </defs>
    <g clip-path="url(#pd374845bdf)">
     <use xlink:href="#m373643541b" x="0" y="420.48" style="fill: #e74c3c; fill-opacity: 0.3; stroke: #e74c3c"/>
    </g>
   </g>
   <g id="patch_3">
    <path d="M 60.520625 372.1675 
L 60.520625 24.6525 
" style="fill: none; stroke: #cccccc; stroke-width: 1.5; stroke-linejoin: miter; stroke-linecap: square"/>
   </g>
   <g id="patch_4">
    <path d="M 60.520625 372.1675 
L 701.28 372.1675 
" style="fill: none; stroke: #cccccc; stroke-width: 1.5; stroke-linejoin: miter; stroke-linecap: square"/>
   </g>
   <g id="text_17">
    <!-- Distribution of Absolute Errors -->
    <g style="fill: #262626" transform="translate(275.080312 18.6525) scale(0.16 -0.16)">
     <defs>
      <path id="ArialMT-62" d="M 941 0 
L 419 0 
L 419 4581 
L 981 4581 
L 981 2947 
Q 1338 3394 1891 3394 
Q 2197 3394 2470 3270 
Q 2744 3147 2920 2923 
Q 3097 2700 3197 2384 
Q 3297 2069 3297 1709 
Q 3297 856 2875 390 
Q 2453 -75 1863 -75 
Q 1275 -75 941 416 
L 941 0 
z
M 934 1684 
Q 934 1088 1097 822 
Q 1363 388 1816 388 
Q 2184 388 2453 708 
Q 2722 1028 2722 1663 
Q 2722 2313 2464 2622 
Q 2206 2931 1841 2931 
Q 1472 2931 1203 2611 
Q 934 2291 934 1684 
z
" transform="scale(0.015625)"/>
      <path id="ArialMT-75" d="M 2597 0 
L 2597 488 
Q 2209 -75 1544 -75 
Q 1250 -75 995 37 
Q 741 150 617 320 
Q 494 491 444 738 
Q 409 903 409 1263 
L 409 3319 
L 972 3319 
L 972 1478 
Q 972 1038 1006 884 
Q 1059 663 1231 536 
Q 1403 409 1656 409 
Q 1909 409 2131 539 
Q 2353 669 2445 892 
Q 2538 1116 2538 1541 
L 2538 3319 
L 3100 3319 
L 3100 0 
L 2597 0 
z
" transform="scale(0.015625)"/>
      <path id="ArialMT-66" d="M 556 0 
L 556 2881 
L 59 2881 
L 59 3319 
L 556 3319 
L 556 3672 
Q 556 4006 616 4169 
Q 697 4388 901 4523 
Q 1106 4659 1475 4659 
Q 1713 4659 2000 4603 
L 1916 4113 
Q 1741 4144 1584 4144 
Q 1328 4144 1222 4034 
Q 1116 3925 1116 3625 
L 1116 3319 
L 1763 3319 
L 1763 2881 
L 1116 2881 
L 1116 0 
L 556 0 
z
" transform="scale(0.015625)"/>
      <path id="ArialMT-41" d="M -9 0 
L 1750 4581 
L 2403 4581 
L 4278 0 
L 3588 0 
L 3053 1388 
L 1138 1388 
L 634 0 
L -9 0 
z
M 1313 1881 
L 2866 1881 
L 2388 3150 
Q 2169 3728 2063 4100 
Q 1975 3659 1816 3225 
L 1313 1881 
z
" transform="scale(0.015625)"/>
      <path id="ArialMT-6c" d="M 409 0 
L 409 4581 
L 972 4581 
L 972 0 
L 409 0 
z
" transform="scale(0.015625)"/>
     </defs>
     <use xlink:href="#ArialMT-44"/>
     <use xlink:href="#ArialMT-69" x="72.216797"/>
     <use xlink:href="#ArialMT-73" x="94.433594"/>
     <use xlink:href="#ArialMT-74" x="144.433594"/>
     <use xlink:href="#ArialMT-72" x="172.216797"/>
     <use xlink:href="#ArialMT-69" x="205.517578"/>
     <use xlink:href="#ArialMT-62" x="227.734375"/>
     <use xlink:href="#ArialMT-75" x="283.349609"/>
     <use xlink:href="#ArialMT-74" x="338.964844"/>
     <use xlink:href="#ArialMT-69" x="366.748047"/>
     <use xlink:href="#ArialMT-6f" x="388.964844"/>
     <use xlink:href="#ArialMT-6e" x="444.580078"/>
     <use xlink:href="#ArialMT-20" x="500.195312"/>
     <use xlink:href="#ArialMT-6f" x="527.978516"/>
     <use xlink:href="#ArialMT-66" x="583.59375"/>
     <use xlink:href="#ArialMT-20" x="611.376953"/>
     <use xlink:href="#ArialMT-41" x="633.660156"/>
     <use xlink:href="#ArialMT-62" x="700.359375"/>
     <use xlink:href="#ArialMT-73" x="755.974609"/>
     <use xlink:href="#ArialMT-6f" x="805.974609"/>
     <use xlink:href="#ArialMT-6c" x="861.589844"/>
     <use xlink:href="#ArialMT-75" x="883.806641"/>
     <use xlink:href="#ArialMT-74" x="939.421875"/>
     <use xlink:href="#ArialMT-65" x="967.205078"/>
     <use xlink:href="#ArialMT-20" x="1022.820312"/>
     <use xlink:href="#ArialMT-45" x="1050.603516"/>
     <use xlink:href="#ArialMT-72" x="1117.302734"/>
     <use xlink:href="#ArialMT-72" x="1150.603516"/>
     <use xlink:href="#ArialMT-6f" x="1183.904297"/>
     <use xlink:href="#ArialMT-72" x="1239.519531"/>
     <use xlink:href="#ArialMT-73" x="1272.820312"/>
    </g>
   </g>
   <g id="legend_1">
    <g id="patch_5">
     <path d="M 497.20125 68.775 
L 692.88 68.775 
Q 695.28 68.775 695.28 66.375 
L 695.28 33.0525 
Q 695.28 30.6525 692.88 30.6525 
L 497.20125 30.6525 
Q 494.80125 30.6525 494.80125 33.0525 
L 494.80125 66.375 
Q 494.80125 68.775 497.20125 68.775 
z
" style="fill: #ffffff; opacity: 0.8; stroke: #cccccc; stroke-linejoin: miter"/>
    </g>
    <g id="patch_6">
     <path d="M 499.60125 44.188125 
L 523.60125 44.188125 
L 523.60125 35.788125 
L 499.60125 35.788125 
z
" style="fill: #2ecc71; fill-opacity: 0.3; stroke: #2ecc71; stroke-linejoin: miter"/>
    </g>
    <g id="text_18">
     <!-- Training (μ=1.63%, σ=1.06%) -->
     <g style="fill: #262626" transform="translate(533.20125 44.188125) scale(0.12 -0.12)">
      <defs>
       <path id="ArialMT-54" d="M 1659 0 
L 1659 4041 
L 150 4041 
L 150 4581 
L 3781 4581 
L 3781 4041 
L 2266 4041 
L 2266 0 
L 1659 0 
z
" transform="scale(0.015625)"/>
       <path id="ArialMT-61" d="M 2588 409 
Q 2275 144 1986 34 
Q 1697 -75 1366 -75 
Q 819 -75 525 192 
Q 231 459 231 875 
Q 231 1119 342 1320 
Q 453 1522 633 1644 
Q 813 1766 1038 1828 
Q 1203 1872 1538 1913 
Q 2219 1994 2541 2106 
Q 2544 2222 2544 2253 
Q 2544 2597 2384 2738 
Q 2169 2928 1744 2928 
Q 1347 2928 1158 2789 
Q 969 2650 878 2297 
L 328 2372 
Q 403 2725 575 2942 
Q 747 3159 1072 3276 
Q 1397 3394 1825 3394 
Q 2250 3394 2515 3294 
Q 2781 3194 2906 3042 
Q 3031 2891 3081 2659 
Q 3109 2516 3109 2141 
L 3109 1391 
Q 3109 606 3145 398 
Q 3181 191 3288 0 
L 2700 0 
Q 2613 175 2588 409 
z
M 2541 1666 
Q 2234 1541 1622 1453 
Q 1275 1403 1131 1340 
Q 988 1278 909 1158 
Q 831 1038 831 891 
Q 831 666 1001 516 
Q 1172 366 1500 366 
Q 1825 366 2078 508 
Q 2331 650 2450 897 
Q 2541 1088 2541 1459 
L 2541 1666 
z
" transform="scale(0.015625)"/>
       <path id="ArialMT-67" d="M 319 -275 
L 866 -356 
Q 900 -609 1056 -725 
Q 1266 -881 1628 -881 
Q 2019 -881 2231 -725 
Q 2444 -569 2519 -288 
Q 2563 -116 2559 434 
Q 2191 0 1641 0 
Q 956 0 581 494 
Q 206 988 206 1678 
Q 206 2153 378 2554 
Q 550 2956 876 3175 
Q 1203 3394 1644 3394 
Q 2231 3394 2613 2919 
L 2613 3319 
L 3131 3319 
L 3131 450 
Q 3131 -325 2973 -648 
Q 2816 -972 2473 -1159 
Q 2131 -1347 1631 -1347 
Q 1038 -1347 672 -1080 
Q 306 -813 319 -275 
z
M 784 1719 
Q 784 1066 1043 766 
Q 1303 466 1694 466 
Q 2081 466 2343 764 
Q 2606 1063 2606 1700 
Q 2606 2309 2336 2618 
Q 2066 2928 1684 2928 
Q 1309 2928 1046 2623 
Q 784 2319 784 1719 
z
" transform="scale(0.015625)"/>
       <path id="ArialMT-3bc" d="M 3181 3319 
L 3181 0 
L 2678 0 
L 2678 394 
Q 2516 144 2356 50 
Q 2138 -78 1847 -78 
Q 1588 -78 1388 25 
Q 1238 103 1056 334 
L 1056 -1272 
L 500 -1272 
L 500 3319 
L 1056 3319 
L 1056 1913 
Q 1056 1147 1137 920 
Q 1219 694 1401 562 
Q 1584 431 1822 431 
Q 2072 431 2269 568 
Q 2466 706 2547 923 
Q 2628 1141 2628 1903 
L 2628 3319 
L 3181 3319 
z
" transform="scale(0.015625)"/>
       <path id="ArialMT-3d" d="M 3381 2694 
L 356 2694 
L 356 3219 
L 3381 3219 
L 3381 2694 
z
M 3381 1303 
L 356 1303 
L 356 1828 
L 3381 1828 
L 3381 1303 
z
" transform="scale(0.015625)"/>
       <path id="ArialMT-36" d="M 3184 3459 
L 2625 3416 
Q 2550 3747 2413 3897 
Q 2184 4138 1850 4138 
Q 1581 4138 1378 3988 
Q 1113 3794 959 3422 
Q 806 3050 800 2363 
Q 1003 2672 1297 2822 
Q 1591 2972 1913 2972 
Q 2475 2972 2870 2558 
Q 3266 2144 3266 1488 
Q 3266 1056 3080 686 
Q 2894 316 2569 119 
Q 2244 -78 1831 -78 
Q 1128 -78 684 439 
Q 241 956 241 2144 
Q 241 3472 731 4075 
Q 1159 4600 1884 4600 
Q 2425 4600 2770 4297 
Q 3116 3994 3184 3459 
z
M 888 1484 
Q 888 1194 1011 928 
Q 1134 663 1356 523 
Q 1578 384 1822 384 
Q 2178 384 2434 671 
Q 2691 959 2691 1453 
Q 2691 1928 2437 2201 
Q 2184 2475 1800 2475 
Q 1419 2475 1153 2201 
Q 888 1928 888 1484 
z
" transform="scale(0.015625)"/>
       <path id="ArialMT-2c" d="M 569 0 
L 569 641 
L 1209 641 
L 1209 0 
Q 1209 -353 1084 -570 
Q 959 -788 688 -906 
L 531 -666 
Q 709 -588 793 -436 
Q 878 -284 888 0 
L 569 0 
z
" transform="scale(0.015625)"/>
       <path id="ArialMT-3c3" d="M 3809 3319 
L 3809 2863 
L 2906 2863 
Q 3322 2475 3322 1656 
Q 3322 766 2867 345 
Q 2413 -75 1763 -75 
Q 1088 -75 650 362 
Q 213 800 213 1659 
Q 213 2544 667 2969 
Q 1122 3394 1763 3394 
Q 1997 3394 2294 3319 
L 3809 3319 
z
M 1753 2928 
Q 1344 2928 1067 2609 
Q 791 2291 791 1656 
Q 791 1025 1061 706 
Q 1331 388 1763 388 
Q 2216 388 2483 720 
Q 2750 1053 2750 1659 
Q 2750 2213 2504 2570 
Q 2259 2928 1753 2928 
z
" transform="scale(0.015625)"/>
      </defs>
      <use xlink:href="#ArialMT-54"/>
      <use xlink:href="#ArialMT-72" x="57.333984"/>
      <use xlink:href="#ArialMT-61" x="90.634766"/>
      <use xlink:href="#ArialMT-69" x="146.25"/>
      <use xlink:href="#ArialMT-6e" x="168.466797"/>
      <use xlink:href="#ArialMT-69" x="224.082031"/>
      <use xlink:href="#ArialMT-6e" x="246.298828"/>
      <use xlink:href="#ArialMT-67" x="301.914062"/>
      <use xlink:href="#ArialMT-20" x="357.529297"/>
      <use xlink:href="#ArialMT-28" x="385.3125"/>
      <use xlink:href="#ArialMT-3bc" x="418.613281"/>
      <use xlink:href="#ArialMT-3d" x="476.230469"/>
      <use xlink:href="#ArialMT-31" x="534.628906"/>
      <use xlink:href="#ArialMT-2e" x="590.244141"/>
      <use xlink:href="#ArialMT-36" x="618.027344"/>
      <use xlink:href="#ArialMT-33" x="673.642578"/>
      <use xlink:href="#ArialMT-25" x="729.257812"/>
      <use xlink:href="#ArialMT-2c" x="818.173828"/>
      <use xlink:href="#ArialMT-20" x="845.957031"/>
      <use xlink:href="#ArialMT-3c3" x="873.740234"/>
      <use xlink:href="#ArialMT-3d" x="935.458984"/>
      <use xlink:href="#ArialMT-31" x="993.857422"/>
      <use xlink:href="#ArialMT-2e" x="1049.472656"/>
      <use xlink:href="#ArialMT-30" x="1077.255859"/>
      <use xlink:href="#ArialMT-36" x="1132.871094"/>
      <use xlink:href="#ArialMT-25" x="1188.486328"/>
      <use xlink:href="#ArialMT-29" x="1277.402344"/>
     </g>
    </g>
    <g id="patch_7">
     <path d="M 499.60125 61.449375 
L 523.60125 61.449375 
L 523.60125 53.049375 
L 499.60125 53.049375 
z
" style="fill: #e74c3c; fill-opacity: 0.3; stroke: #e74c3c; stroke-linejoin: miter"/>
    </g>
    <g id="text_19">
     <!-- Testing (μ=1.04%, σ=1.05%) -->
     <g style="fill: #262626" transform="translate(533.20125 61.449375) scale(0.12 -0.12)">
      <use xlink:href="#ArialMT-54"/>
      <use xlink:href="#ArialMT-65" x="49.958984"/>
      <use xlink:href="#ArialMT-73" x="105.574219"/>
      <use xlink:href="#ArialMT-74" x="155.574219"/>
      <use xlink:href="#ArialMT-69" x="183.357422"/>
      <use xlink:href="#ArialMT-6e" x="205.574219"/>
      <use xlink:href="#ArialMT-67" x="261.189453"/>
      <use xlink:href="#ArialMT-20" x="316.804688"/>
      <use xlink:href="#ArialMT-28" x="344.587891"/>
      <use xlink:href="#ArialMT-3bc" x="377.888672"/>
      <use xlink:href="#ArialMT-3d" x="435.505859"/>
      <use xlink:href="#ArialMT-31" x="493.904297"/>
      <use xlink:href="#ArialMT-2e" x="549.519531"/>
      <use xlink:href="#ArialMT-30" x="577.302734"/>
      <use xlink:href="#ArialMT-34" x="632.917969"/>
      <use xlink:href="#ArialMT-25" x="688.533203"/>
      <use xlink:href="#ArialMT-2c" x="777.449219"/>
      <use xlink:href="#ArialMT-20" x="805.232422"/>
      <use xlink:href="#ArialMT-3c3" x="833.015625"/>
      <use xlink:href="#ArialMT-3d" x="894.734375"/>
      <use xlink:href="#ArialMT-31" x="953.132812"/>
      <use xlink:href="#ArialMT-2e" x="1008.748047"/>
      <use xlink:href="#ArialMT-30" x="1036.53125"/>
      <use xlink:href="#ArialMT-35" x="1092.146484"/>
      <use xlink:href="#ArialMT-25" x="1147.761719"/>
      <use xlink:href="#ArialMT-29" x="1236.677734"/>
     </g>
    </g>
   </g>
  </g>
 </g>
 <defs>
  <clipPath id="pd374845bdf">
   <rect x="60.520625" y="24.6525" width="640.759375" height="347.515"/>
  </clipPath>
 </defs>
</svg>
