<?xml version="1.0" encoding="utf-8" standalone="no"?>
<!DOCTYPE svg PUBLIC "-//W3C//DTD SVG 1.1//EN"
  "http://www.w3.org/Graphics/SVG/1.1/DTD/svg11.dtd">
<svg xmlns:xlink="http://www.w3.org/1999/xlink" width="708.48pt" height="420.48pt" viewBox="0 0 708.48 420.48" xmlns="http://www.w3.org/2000/svg" version="1.1">
 <metadata>
  <rdf:RDF xmlns:dc="http://purl.org/dc/elements/1.1/" xmlns:cc="http://creativecommons.org/ns#" xmlns:rdf="http://www.w3.org/1999/02/22-rdf-syntax-ns#">
   <cc:Work>
    <dc:type rdf:resource="http://purl.org/dc/dcmitype/StillImage"/>
    <dc:date>2025-01-07T20:57:55.369536</dc:date>
    <dc:format>image/svg+xml</dc:format>
    <dc:creator>
     <cc:Agent>
      <dc:title>Matplotlib v3.9.3, https://matplotlib.org/</dc:title>
     </cc:Agent>
    </dc:creator>
   </cc:Work>
  </rdf:RDF>
 </metadata>
 <defs>
  <style type="text/css">*{stroke-linejoin: round; stroke-linecap: butt}</style>
 </defs>
 <g id="figure_1">
  <g id="patch_1">
   <path d="M 0 420.48 
L 708.48 420.48 
L 708.48 -0 
L 0 -0 
z
" style="fill: #ffffff"/>
  </g>
  <g id="axes_1">
   <g id="patch_2">
    <path d="M 60.520625 372.1675 
L 701.28 372.1675 
L 701.28 24.6525 
L 60.520625 24.6525 
z
" style="fill: #ffffff"/>
   </g>
   <g id="matplotlib.axis_1">
    <g id="xtick_1">
     <g id="line2d_1">
      <path d="M 110.422792 372.1675 
L 110.422792 24.6525 
" clip-path="url(#p1cf468e901)" style="fill: none; stroke: #cccccc; stroke-opacity: 0.3; stroke-width: 0.5; stroke-linecap: round"/>
     </g>
     <g id="text_1">
      <!-- −2 -->
      <g style="fill: #262626" transform="translate(103.581855 387.756875) scale(0.12 -0.12)">
       <defs>
        <path id="ArialMT-2212" d="M 3381 1997 
L 356 1997 
L 356 2522 
L 3381 2522 
L 3381 1997 
z
" transform="scale(0.015625)"/>
        <path id="ArialMT-32" d="M 3222 541 
L 3222 0 
L 194 0 
Q 188 203 259 391 
Q 375 700 629 1000 
Q 884 1300 1366 1694 
Q 2113 2306 2375 2664 
Q 2638 3022 2638 3341 
Q 2638 3675 2398 3904 
Q 2159 4134 1775 4134 
Q 1369 4134 1125 3890 
Q 881 3647 878 3216 
L 300 3275 
Q 359 3922 746 4261 
Q 1134 4600 1788 4600 
Q 2447 4600 2831 4234 
Q 3216 3869 3216 3328 
Q 3216 3053 3103 2787 
Q 2991 2522 2730 2228 
Q 2469 1934 1863 1422 
Q 1356 997 1212 845 
Q 1069 694 975 541 
L 3222 541 
z
" transform="scale(0.015625)"/>
       </defs>
       <use xlink:href="#ArialMT-2212"/>
       <use xlink:href="#ArialMT-32" x="58.398438"/>
      </g>
     </g>
    </g>
    <g id="xtick_2">
     <g id="line2d_2">
      <path d="M 243.43892 372.1675 
L 243.43892 24.6525 
" clip-path="url(#p1cf468e901)" style="fill: none; stroke: #cccccc; stroke-opacity: 0.3; stroke-width: 0.5; stroke-linecap: round"/>
     </g>
     <g id="text_2">
      <!-- 0 -->
      <g style="fill: #262626" transform="translate(240.102357 387.756875) scale(0.12 -0.12)">
       <defs>
        <path id="ArialMT-30" d="M 266 2259 
Q 266 3072 433 3567 
Q 600 4063 929 4331 
Q 1259 4600 1759 4600 
Q 2128 4600 2406 4451 
Q 2684 4303 2865 4023 
Q 3047 3744 3150 3342 
Q 3253 2941 3253 2259 
Q 3253 1453 3087 958 
Q 2922 463 2592 192 
Q 2263 -78 1759 -78 
Q 1097 -78 719 397 
Q 266 969 266 2259 
z
M 844 2259 
Q 844 1131 1108 757 
Q 1372 384 1759 384 
Q 2147 384 2411 759 
Q 2675 1134 2675 2259 
Q 2675 3391 2411 3762 
Q 2147 4134 1753 4134 
Q 1366 4134 1134 3806 
Q 844 3388 844 2259 
z
" transform="scale(0.015625)"/>
       </defs>
       <use xlink:href="#ArialMT-30"/>
      </g>
     </g>
    </g>
    <g id="xtick_3">
     <g id="line2d_3">
      <path d="M 376.455047 372.1675 
L 376.455047 24.6525 
" clip-path="url(#p1cf468e901)" style="fill: none; stroke: #cccccc; stroke-opacity: 0.3; stroke-width: 0.5; stroke-linecap: round"/>
     </g>
     <g id="text_3">
      <!-- 2 -->
      <g style="fill: #262626" transform="translate(373.118484 387.756875) scale(0.12 -0.12)">
       <use xlink:href="#ArialMT-32"/>
      </g>
     </g>
    </g>
    <g id="xtick_4">
     <g id="line2d_4">
      <path d="M 509.471174 372.1675 
L 509.471174 24.6525 
" clip-path="url(#p1cf468e901)" style="fill: none; stroke: #cccccc; stroke-opacity: 0.3; stroke-width: 0.5; stroke-linecap: round"/>
     </g>
     <g id="text_4">
      <!-- 4 -->
      <g style="fill: #262626" transform="translate(506.134611 387.756875) scale(0.12 -0.12)">
       <defs>
        <path id="ArialMT-34" d="M 2069 0 
L 2069 1097 
L 81 1097 
L 81 1613 
L 2172 4581 
L 2631 4581 
L 2631 1613 
L 3250 1613 
L 3250 1097 
L 2631 1097 
L 2631 0 
L 2069 0 
z
M 2069 1613 
L 2069 3678 
L 634 1613 
L 2069 1613 
z
" transform="scale(0.015625)"/>
       </defs>
       <use xlink:href="#ArialMT-34"/>
      </g>
     </g>
    </g>
    <g id="xtick_5">
     <g id="line2d_5">
      <path d="M 642.487301 372.1675 
L 642.487301 24.6525 
" clip-path="url(#p1cf468e901)" style="fill: none; stroke: #cccccc; stroke-opacity: 0.3; stroke-width: 0.5; stroke-linecap: round"/>
     </g>
     <g id="text_5">
      <!-- 6 -->
      <g style="fill: #262626" transform="translate(639.150739 387.756875) scale(0.12 -0.12)">
       <defs>
        <path id="ArialMT-36" d="M 3184 3459 
L 2625 3416 
Q 2550 3747 2413 3897 
Q 2184 4138 1850 4138 
Q 1581 4138 1378 3988 
Q 1113 3794 959 3422 
Q 806 3050 800 2363 
Q 1003 2672 1297 2822 
Q 1591 2972 1913 2972 
Q 2475 2972 2870 2558 
Q 3266 2144 3266 1488 
Q 3266 1056 3080 686 
Q 2894 316 2569 119 
Q 2244 -78 1831 -78 
Q 1128 -78 684 439 
Q 241 956 241 2144 
Q 241 3472 731 4075 
Q 1159 4600 1884 4600 
Q 2425 4600 2770 4297 
Q 3116 3994 3184 3459 
z
M 888 1484 
Q 888 1194 1011 928 
Q 1134 663 1356 523 
Q 1578 384 1822 384 
Q 2178 384 2434 671 
Q 2691 959 2691 1453 
Q 2691 1928 2437 2201 
Q 2184 2475 1800 2475 
Q 1419 2475 1153 2201 
Q 888 1928 888 1484 
z
" transform="scale(0.015625)"/>
       </defs>
       <use xlink:href="#ArialMT-36"/>
      </g>
     </g>
    </g>
    <g id="text_6">
     <!-- Error (%) -->
     <g style="fill: #262626" transform="translate(352.515312 410.333438) scale(0.14 -0.14)">
      <defs>
       <path id="ArialMT-45" d="M 506 0 
L 506 4581 
L 3819 4581 
L 3819 4041 
L 1113 4041 
L 1113 2638 
L 3647 2638 
L 3647 2100 
L 1113 2100 
L 1113 541 
L 3925 541 
L 3925 0 
L 506 0 
z
" transform="scale(0.015625)"/>
       <path id="ArialMT-72" d="M 416 0 
L 416 3319 
L 922 3319 
L 922 2816 
Q 1116 3169 1280 3281 
Q 1444 3394 1641 3394 
Q 1925 3394 2219 3213 
L 2025 2691 
Q 1819 2813 1613 2813 
Q 1428 2813 1281 2702 
Q 1134 2591 1072 2394 
Q 978 2094 978 1738 
L 978 0 
L 416 0 
z
" transform="scale(0.015625)"/>
       <path id="ArialMT-6f" d="M 213 1659 
Q 213 2581 725 3025 
Q 1153 3394 1769 3394 
Q 2453 3394 2887 2945 
Q 3322 2497 3322 1706 
Q 3322 1066 3130 698 
Q 2938 331 2570 128 
Q 2203 -75 1769 -75 
Q 1072 -75 642 372 
Q 213 819 213 1659 
z
M 791 1659 
Q 791 1022 1069 705 
Q 1347 388 1769 388 
Q 2188 388 2466 706 
Q 2744 1025 2744 1678 
Q 2744 2294 2464 2611 
Q 2184 2928 1769 2928 
Q 1347 2928 1069 2612 
Q 791 2297 791 1659 
z
" transform="scale(0.015625)"/>
       <path id="ArialMT-20" transform="scale(0.015625)"/>
       <path id="ArialMT-28" d="M 1497 -1347 
Q 1031 -759 709 28 
Q 388 816 388 1659 
Q 388 2403 628 3084 
Q 909 3875 1497 4659 
L 1900 4659 
Q 1522 4009 1400 3731 
Q 1209 3300 1100 2831 
Q 966 2247 966 1656 
Q 966 153 1900 -1347 
L 1497 -1347 
z
" transform="scale(0.015625)"/>
       <path id="ArialMT-25" d="M 372 3481 
Q 372 3972 619 4315 
Q 866 4659 1334 4659 
Q 1766 4659 2048 4351 
Q 2331 4044 2331 3447 
Q 2331 2866 2045 2552 
Q 1759 2238 1341 2238 
Q 925 2238 648 2547 
Q 372 2856 372 3481 
z
M 1350 4272 
Q 1141 4272 1002 4090 
Q 863 3909 863 3425 
Q 863 2984 1003 2804 
Q 1144 2625 1350 2625 
Q 1563 2625 1702 2806 
Q 1841 2988 1841 3469 
Q 1841 3913 1700 4092 
Q 1559 4272 1350 4272 
z
M 1353 -169 
L 3859 4659 
L 4316 4659 
L 1819 -169 
L 1353 -169 
z
M 3334 1075 
Q 3334 1569 3581 1911 
Q 3828 2253 4300 2253 
Q 4731 2253 5014 1945 
Q 5297 1638 5297 1041 
Q 5297 459 5011 145 
Q 4725 -169 4303 -169 
Q 3888 -169 3611 142 
Q 3334 453 3334 1075 
z
M 4316 1866 
Q 4103 1866 3964 1684 
Q 3825 1503 3825 1019 
Q 3825 581 3965 400 
Q 4106 219 4313 219 
Q 4528 219 4667 400 
Q 4806 581 4806 1063 
Q 4806 1506 4665 1686 
Q 4525 1866 4316 1866 
z
" transform="scale(0.015625)"/>
       <path id="ArialMT-29" d="M 791 -1347 
L 388 -1347 
Q 1322 153 1322 1656 
Q 1322 2244 1188 2822 
Q 1081 3291 891 3722 
Q 769 4003 388 4659 
L 791 4659 
Q 1378 3875 1659 3084 
Q 1900 2403 1900 1659 
Q 1900 816 1576 28 
Q 1253 -759 791 -1347 
z
" transform="scale(0.015625)"/>
      </defs>
      <use xlink:href="#ArialMT-45"/>
      <use xlink:href="#ArialMT-72" x="66.699219"/>
      <use xlink:href="#ArialMT-72" x="100"/>
      <use xlink:href="#ArialMT-6f" x="133.300781"/>
      <use xlink:href="#ArialMT-72" x="188.916016"/>
      <use xlink:href="#ArialMT-20" x="222.216797"/>
      <use xlink:href="#ArialMT-28" x="250"/>
      <use xlink:href="#ArialMT-25" x="283.300781"/>
      <use xlink:href="#ArialMT-29" x="372.216797"/>
     </g>
    </g>
   </g>
   <g id="matplotlib.axis_2">
    <g id="ytick_1">
     <g id="line2d_6">
      <path d="M 60.520625 372.1675 
L 701.28 372.1675 
" clip-path="url(#p1cf468e901)" style="fill: none; stroke: #cccccc; stroke-opacity: 0.3; stroke-width: 0.5; stroke-linecap: round"/>
     </g>
     <g id="text_7">
      <!-- 0.00 -->
      <g style="fill: #262626" transform="translate(30.1675 376.462188) scale(0.12 -0.12)">
       <defs>
        <path id="ArialMT-2e" d="M 581 0 
L 581 641 
L 1222 641 
L 1222 0 
L 581 0 
z
" transform="scale(0.015625)"/>
       </defs>
       <use xlink:href="#ArialMT-30"/>
       <use xlink:href="#ArialMT-2e" x="55.615234"/>
       <use xlink:href="#ArialMT-30" x="83.398438"/>
       <use xlink:href="#ArialMT-30" x="139.013672"/>
      </g>
     </g>
    </g>
    <g id="ytick_2">
     <g id="line2d_7">
      <path d="M 60.520625 316.601952 
L 701.28 316.601952 
" clip-path="url(#p1cf468e901)" style="fill: none; stroke: #cccccc; stroke-opacity: 0.3; stroke-width: 0.5; stroke-linecap: round"/>
     </g>
     <g id="text_8">
      <!-- 0.05 -->
      <g style="fill: #262626" transform="translate(30.1675 320.89664) scale(0.12 -0.12)">
       <defs>
        <path id="ArialMT-35" d="M 266 1200 
L 856 1250 
Q 922 819 1161 601 
Q 1400 384 1738 384 
Q 2144 384 2425 690 
Q 2706 997 2706 1503 
Q 2706 1984 2436 2262 
Q 2166 2541 1728 2541 
Q 1456 2541 1237 2417 
Q 1019 2294 894 2097 
L 366 2166 
L 809 4519 
L 3088 4519 
L 3088 3981 
L 1259 3981 
L 1013 2750 
Q 1425 3038 1878 3038 
Q 2478 3038 2890 2622 
Q 3303 2206 3303 1553 
Q 3303 931 2941 478 
Q 2500 -78 1738 -78 
Q 1113 -78 717 272 
Q 322 622 266 1200 
z
" transform="scale(0.015625)"/>
       </defs>
       <use xlink:href="#ArialMT-30"/>
       <use xlink:href="#ArialMT-2e" x="55.615234"/>
       <use xlink:href="#ArialMT-30" x="83.398438"/>
       <use xlink:href="#ArialMT-35" x="139.013672"/>
      </g>
     </g>
    </g>
    <g id="ytick_3">
     <g id="line2d_8">
      <path d="M 60.520625 261.036404 
L 701.28 261.036404 
" clip-path="url(#p1cf468e901)" style="fill: none; stroke: #cccccc; stroke-opacity: 0.3; stroke-width: 0.5; stroke-linecap: round"/>
     </g>
     <g id="text_9">
      <!-- 0.10 -->
      <g style="fill: #262626" transform="translate(30.1675 265.331092) scale(0.12 -0.12)">
       <defs>
        <path id="ArialMT-31" d="M 2384 0 
L 1822 0 
L 1822 3584 
Q 1619 3391 1289 3197 
Q 959 3003 697 2906 
L 697 3450 
Q 1169 3672 1522 3987 
Q 1875 4303 2022 4600 
L 2384 4600 
L 2384 0 
z
" transform="scale(0.015625)"/>
       </defs>
       <use xlink:href="#ArialMT-30"/>
       <use xlink:href="#ArialMT-2e" x="55.615234"/>
       <use xlink:href="#ArialMT-31" x="83.398438"/>
       <use xlink:href="#ArialMT-30" x="139.013672"/>
      </g>
     </g>
    </g>
    <g id="ytick_4">
     <g id="line2d_9">
      <path d="M 60.520625 205.470856 
L 701.28 205.470856 
" clip-path="url(#p1cf468e901)" style="fill: none; stroke: #cccccc; stroke-opacity: 0.3; stroke-width: 0.5; stroke-linecap: round"/>
     </g>
     <g id="text_10">
      <!-- 0.15 -->
      <g style="fill: #262626" transform="translate(30.1675 209.765544) scale(0.12 -0.12)">
       <use xlink:href="#ArialMT-30"/>
       <use xlink:href="#ArialMT-2e" x="55.615234"/>
       <use xlink:href="#ArialMT-31" x="83.398438"/>
       <use xlink:href="#ArialMT-35" x="139.013672"/>
      </g>
     </g>
    </g>
    <g id="ytick_5">
     <g id="line2d_10">
      <path d="M 60.520625 149.905308 
L 701.28 149.905308 
" clip-path="url(#p1cf468e901)" style="fill: none; stroke: #cccccc; stroke-opacity: 0.3; stroke-width: 0.5; stroke-linecap: round"/>
     </g>
     <g id="text_11">
      <!-- 0.20 -->
      <g style="fill: #262626" transform="translate(30.1675 154.199996) scale(0.12 -0.12)">
       <use xlink:href="#ArialMT-30"/>
       <use xlink:href="#ArialMT-2e" x="55.615234"/>
       <use xlink:href="#ArialMT-32" x="83.398438"/>
       <use xlink:href="#ArialMT-30" x="139.013672"/>
      </g>
     </g>
    </g>
    <g id="ytick_6">
     <g id="line2d_11">
      <path d="M 60.520625 94.339761 
L 701.28 94.339761 
" clip-path="url(#p1cf468e901)" style="fill: none; stroke: #cccccc; stroke-opacity: 0.3; stroke-width: 0.5; stroke-linecap: round"/>
     </g>
     <g id="text_12">
      <!-- 0.25 -->
      <g style="fill: #262626" transform="translate(30.1675 98.634448) scale(0.12 -0.12)">
       <use xlink:href="#ArialMT-30"/>
       <use xlink:href="#ArialMT-2e" x="55.615234"/>
       <use xlink:href="#ArialMT-32" x="83.398438"/>
       <use xlink:href="#ArialMT-35" x="139.013672"/>
      </g>
     </g>
    </g>
    <g id="ytick_7">
     <g id="line2d_12">
      <path d="M 60.520625 38.774213 
L 701.28 38.774213 
" clip-path="url(#p1cf468e901)" style="fill: none; stroke: #cccccc; stroke-opacity: 0.3; stroke-width: 0.5; stroke-linecap: round"/>
     </g>
     <g id="text_13">
      <!-- 0.30 -->
      <g style="fill: #262626" transform="translate(30.1675 43.0689) scale(0.12 -0.12)">
       <defs>
        <path id="ArialMT-33" d="M 269 1209 
L 831 1284 
Q 928 806 1161 595 
Q 1394 384 1728 384 
Q 2125 384 2398 659 
Q 2672 934 2672 1341 
Q 2672 1728 2419 1979 
Q 2166 2231 1775 2231 
Q 1616 2231 1378 2169 
L 1441 2663 
Q 1497 2656 1531 2656 
Q 1891 2656 2178 2843 
Q 2466 3031 2466 3422 
Q 2466 3731 2256 3934 
Q 2047 4138 1716 4138 
Q 1388 4138 1169 3931 
Q 950 3725 888 3313 
L 325 3413 
Q 428 3978 793 4289 
Q 1159 4600 1703 4600 
Q 2078 4600 2393 4439 
Q 2709 4278 2876 4000 
Q 3044 3722 3044 3409 
Q 3044 3113 2884 2869 
Q 2725 2625 2413 2481 
Q 2819 2388 3044 2092 
Q 3269 1797 3269 1353 
Q 3269 753 2831 336 
Q 2394 -81 1725 -81 
Q 1122 -81 723 278 
Q 325 638 269 1209 
z
" transform="scale(0.015625)"/>
       </defs>
       <use xlink:href="#ArialMT-30"/>
       <use xlink:href="#ArialMT-2e" x="55.615234"/>
       <use xlink:href="#ArialMT-33" x="83.398438"/>
       <use xlink:href="#ArialMT-30" x="139.013672"/>
      </g>
     </g>
    </g>
    <g id="text_14">
     <!-- Density -->
     <g style="fill: #262626" transform="translate(17.220938 221.750625) rotate(-90) scale(0.14 -0.14)">
      <defs>
       <path id="ArialMT-44" d="M 494 0 
L 494 4581 
L 2072 4581 
Q 2606 4581 2888 4516 
Q 3281 4425 3559 4188 
Q 3922 3881 4101 3404 
Q 4281 2928 4281 2316 
Q 4281 1794 4159 1391 
Q 4038 988 3847 723 
Q 3656 459 3429 307 
Q 3203 156 2883 78 
Q 2563 0 2147 0 
L 494 0 
z
M 1100 541 
L 2078 541 
Q 2531 541 2789 625 
Q 3047 709 3200 863 
Q 3416 1078 3536 1442 
Q 3656 1806 3656 2325 
Q 3656 3044 3420 3430 
Q 3184 3816 2847 3947 
Q 2603 4041 2063 4041 
L 1100 4041 
L 1100 541 
z
" transform="scale(0.015625)"/>
       <path id="ArialMT-65" d="M 2694 1069 
L 3275 997 
Q 3138 488 2766 206 
Q 2394 -75 1816 -75 
Q 1088 -75 661 373 
Q 234 822 234 1631 
Q 234 2469 665 2931 
Q 1097 3394 1784 3394 
Q 2450 3394 2872 2941 
Q 3294 2488 3294 1666 
Q 3294 1616 3291 1516 
L 816 1516 
Q 847 969 1125 678 
Q 1403 388 1819 388 
Q 2128 388 2347 550 
Q 2566 713 2694 1069 
z
M 847 1978 
L 2700 1978 
Q 2663 2397 2488 2606 
Q 2219 2931 1791 2931 
Q 1403 2931 1139 2672 
Q 875 2413 847 1978 
z
" transform="scale(0.015625)"/>
       <path id="ArialMT-6e" d="M 422 0 
L 422 3319 
L 928 3319 
L 928 2847 
Q 1294 3394 1984 3394 
Q 2284 3394 2536 3286 
Q 2788 3178 2913 3003 
Q 3038 2828 3088 2588 
Q 3119 2431 3119 2041 
L 3119 0 
L 2556 0 
L 2556 2019 
Q 2556 2363 2490 2533 
Q 2425 2703 2258 2804 
Q 2091 2906 1866 2906 
Q 1506 2906 1245 2678 
Q 984 2450 984 1813 
L 984 0 
L 422 0 
z
" transform="scale(0.015625)"/>
       <path id="ArialMT-73" d="M 197 991 
L 753 1078 
Q 800 744 1014 566 
Q 1228 388 1613 388 
Q 2000 388 2187 545 
Q 2375 703 2375 916 
Q 2375 1106 2209 1216 
Q 2094 1291 1634 1406 
Q 1016 1563 777 1677 
Q 538 1791 414 1992 
Q 291 2194 291 2438 
Q 291 2659 392 2848 
Q 494 3038 669 3163 
Q 800 3259 1026 3326 
Q 1253 3394 1513 3394 
Q 1903 3394 2198 3281 
Q 2494 3169 2634 2976 
Q 2775 2784 2828 2463 
L 2278 2388 
Q 2241 2644 2061 2787 
Q 1881 2931 1553 2931 
Q 1166 2931 1000 2803 
Q 834 2675 834 2503 
Q 834 2394 903 2306 
Q 972 2216 1119 2156 
Q 1203 2125 1616 2013 
Q 2213 1853 2448 1751 
Q 2684 1650 2818 1456 
Q 2953 1263 2953 975 
Q 2953 694 2789 445 
Q 2625 197 2315 61 
Q 2006 -75 1616 -75 
Q 969 -75 630 194 
Q 291 463 197 991 
z
" transform="scale(0.015625)"/>
       <path id="ArialMT-69" d="M 425 3934 
L 425 4581 
L 988 4581 
L 988 3934 
L 425 3934 
z
M 425 0 
L 425 3319 
L 988 3319 
L 988 0 
L 425 0 
z
" transform="scale(0.015625)"/>
       <path id="ArialMT-74" d="M 1650 503 
L 1731 6 
Q 1494 -44 1306 -44 
Q 1000 -44 831 53 
Q 663 150 594 308 
Q 525 466 525 972 
L 525 2881 
L 113 2881 
L 113 3319 
L 525 3319 
L 525 4141 
L 1084 4478 
L 1084 3319 
L 1650 3319 
L 1650 2881 
L 1084 2881 
L 1084 941 
Q 1084 700 1114 631 
Q 1144 563 1211 522 
Q 1278 481 1403 481 
Q 1497 481 1650 503 
z
" transform="scale(0.015625)"/>
       <path id="ArialMT-79" d="M 397 -1278 
L 334 -750 
Q 519 -800 656 -800 
Q 844 -800 956 -737 
Q 1069 -675 1141 -563 
Q 1194 -478 1313 -144 
Q 1328 -97 1363 -6 
L 103 3319 
L 709 3319 
L 1400 1397 
Q 1534 1031 1641 628 
Q 1738 1016 1872 1384 
L 2581 3319 
L 3144 3319 
L 1881 -56 
Q 1678 -603 1566 -809 
Q 1416 -1088 1222 -1217 
Q 1028 -1347 759 -1347 
Q 597 -1347 397 -1278 
z
" transform="scale(0.015625)"/>
      </defs>
      <use xlink:href="#ArialMT-44"/>
      <use xlink:href="#ArialMT-65" x="72.216797"/>
      <use xlink:href="#ArialMT-6e" x="127.832031"/>
      <use xlink:href="#ArialMT-73" x="183.447266"/>
      <use xlink:href="#ArialMT-69" x="233.447266"/>
      <use xlink:href="#ArialMT-74" x="255.664062"/>
      <use xlink:href="#ArialMT-79" x="283.447266"/>
     </g>
    </g>
   </g>
   <g id="PolyCollection_1">
    <defs>
     <path id="mc31d21b454" d="M 134.921316 -49.056225 
L 134.921316 -48.3125 
L 137.620981 -48.3125 
L 140.320646 -48.3125 
L 143.02031 -48.3125 
L 145.719975 -48.3125 
L 148.419639 -48.3125 
L 151.119304 -48.3125 
L 153.818969 -48.3125 
L 156.518633 -48.3125 
L 159.218298 -48.3125 
L 161.917962 -48.3125 
L 164.617627 -48.3125 
L 167.317292 -48.3125 
L 170.016956 -48.3125 
L 172.716621 -48.3125 
L 175.416286 -48.3125 
L 178.11595 -48.3125 
L 180.815615 -48.3125 
L 183.515279 -48.3125 
L 186.214944 -48.3125 
L 188.914609 -48.3125 
L 191.614273 -48.3125 
L 194.313938 -48.3125 
L 197.013602 -48.3125 
L 199.713267 -48.3125 
L 202.412932 -48.3125 
L 205.112596 -48.3125 
L 207.812261 -48.3125 
L 210.511925 -48.3125 
L 213.21159 -48.3125 
L 215.911255 -48.3125 
L 218.610919 -48.3125 
L 221.310584 -48.3125 
L 224.010249 -48.3125 
L 226.709913 -48.3125 
L 229.409578 -48.3125 
L 232.109242 -48.3125 
L 234.808907 -48.3125 
L 237.508572 -48.3125 
L 240.208236 -48.3125 
L 242.907901 -48.3125 
L 245.607565 -48.3125 
L 248.30723 -48.3125 
L 251.006895 -48.3125 
L 253.706559 -48.3125 
L 256.406224 -48.3125 
L 259.105888 -48.3125 
L 261.805553 -48.3125 
L 264.505218 -48.3125 
L 267.204882 -48.3125 
L 269.904547 -48.3125 
L 272.604212 -48.3125 
L 275.303876 -48.3125 
L 278.003541 -48.3125 
L 280.703205 -48.3125 
L 283.40287 -48.3125 
L 286.102535 -48.3125 
L 288.802199 -48.3125 
L 291.501864 -48.3125 
L 294.201528 -48.3125 
L 296.901193 -48.3125 
L 299.600858 -48.3125 
L 302.300522 -48.3125 
L 305.000187 -48.3125 
L 307.699851 -48.3125 
L 310.399516 -48.3125 
L 313.099181 -48.3125 
L 315.798845 -48.3125 
L 318.49851 -48.3125 
L 321.198174 -48.3125 
L 323.897839 -48.3125 
L 326.597504 -48.3125 
L 329.297168 -48.3125 
L 331.996833 -48.3125 
L 334.696498 -48.3125 
L 337.396162 -48.3125 
L 340.095827 -48.3125 
L 342.795491 -48.3125 
L 345.495156 -48.3125 
L 348.194821 -48.3125 
L 350.894485 -48.3125 
L 353.59415 -48.3125 
L 356.293814 -48.3125 
L 358.993479 -48.3125 
L 361.693144 -48.3125 
L 364.392808 -48.3125 
L 367.092473 -48.3125 
L 369.792137 -48.3125 
L 372.491802 -48.3125 
L 375.191467 -48.3125 
L 377.891131 -48.3125 
L 380.590796 -48.3125 
L 383.290461 -48.3125 
L 385.990125 -48.3125 
L 388.68979 -48.3125 
L 391.389454 -48.3125 
L 394.089119 -48.3125 
L 396.788784 -48.3125 
L 399.488448 -48.3125 
L 402.188113 -48.3125 
L 404.887777 -48.3125 
L 407.587442 -48.3125 
L 410.287107 -48.3125 
L 412.986771 -48.3125 
L 415.686436 -48.3125 
L 418.3861 -48.3125 
L 421.085765 -48.3125 
L 423.78543 -48.3125 
L 426.485094 -48.3125 
L 429.184759 -48.3125 
L 431.884424 -48.3125 
L 434.584088 -48.3125 
L 437.283753 -48.3125 
L 439.983417 -48.3125 
L 442.683082 -48.3125 
L 445.382747 -48.3125 
L 448.082411 -48.3125 
L 450.782076 -48.3125 
L 453.48174 -48.3125 
L 456.181405 -48.3125 
L 458.88107 -48.3125 
L 461.580734 -48.3125 
L 464.280399 -48.3125 
L 466.980063 -48.3125 
L 469.679728 -48.3125 
L 472.379393 -48.3125 
L 475.079057 -48.3125 
L 477.778722 -48.3125 
L 480.478387 -48.3125 
L 483.178051 -48.3125 
L 485.877716 -48.3125 
L 488.57738 -48.3125 
L 491.277045 -48.3125 
L 493.97671 -48.3125 
L 496.676374 -48.3125 
L 499.376039 -48.3125 
L 502.075703 -48.3125 
L 504.775368 -48.3125 
L 507.475033 -48.3125 
L 510.174697 -48.3125 
L 512.874362 -48.3125 
L 515.574026 -48.3125 
L 518.273691 -48.3125 
L 520.973356 -48.3125 
L 523.67302 -48.3125 
L 526.372685 -48.3125 
L 529.07235 -48.3125 
L 531.772014 -48.3125 
L 534.471679 -48.3125 
L 537.171343 -48.3125 
L 539.871008 -48.3125 
L 542.570673 -48.3125 
L 545.270337 -48.3125 
L 547.970002 -48.3125 
L 550.669666 -48.3125 
L 553.369331 -48.3125 
L 556.068996 -48.3125 
L 558.76866 -48.3125 
L 561.468325 -48.3125 
L 564.167989 -48.3125 
L 566.867654 -48.3125 
L 569.567319 -48.3125 
L 572.266983 -48.3125 
L 574.966648 -48.3125 
L 577.666312 -48.3125 
L 580.365977 -48.3125 
L 583.065642 -48.3125 
L 585.765306 -48.3125 
L 588.464971 -48.3125 
L 591.164636 -48.3125 
L 593.8643 -48.3125 
L 596.563965 -48.3125 
L 599.263629 -48.3125 
L 601.963294 -48.3125 
L 604.662959 -48.3125 
L 607.362623 -48.3125 
L 610.062288 -48.3125 
L 612.761952 -48.3125 
L 615.461617 -48.3125 
L 618.161282 -48.3125 
L 620.860946 -48.3125 
L 623.560611 -48.3125 
L 626.260275 -48.3125 
L 628.95994 -48.3125 
L 631.659605 -48.3125 
L 634.359269 -48.3125 
L 637.058934 -48.3125 
L 639.758599 -48.3125 
L 642.458263 -48.3125 
L 645.157928 -48.3125 
L 647.857592 -48.3125 
L 650.557257 -48.3125 
L 653.256922 -48.3125 
L 655.956586 -48.3125 
L 658.656251 -48.3125 
L 661.355915 -48.3125 
L 664.05558 -48.3125 
L 666.755245 -48.3125 
L 669.454909 -48.3125 
L 672.154574 -48.3125 
L 672.154574 -48.559648 
L 672.154574 -48.559648 
L 669.454909 -48.616563 
L 666.755245 -48.684933 
L 664.05558 -48.76667 
L 661.355915 -48.86392 
L 658.656251 -48.979075 
L 655.956586 -49.114781 
L 653.256922 -49.273946 
L 650.557257 -49.45974 
L 647.857592 -49.675593 
L 645.157928 -49.925188 
L 642.458263 -50.212446 
L 639.758599 -50.541505 
L 637.058934 -50.916698 
L 634.359269 -51.342516 
L 631.659605 -51.823572 
L 628.95994 -52.364553 
L 626.260275 -52.970172 
L 623.560611 -53.645113 
L 620.860946 -54.39397 
L 618.161282 -55.221189 
L 615.461617 -56.131003 
L 612.761952 -57.127373 
L 610.062288 -58.213926 
L 607.362623 -59.393905 
L 604.662959 -60.670116 
L 601.963294 -62.044886 
L 599.263629 -63.520032 
L 596.563965 -65.096833 
L 593.8643 -66.77602 
L 591.164636 -68.557773 
L 588.464971 -70.441727 
L 585.765306 -72.426992 
L 583.065642 -74.512182 
L 580.365977 -76.695448 
L 577.666312 -78.974525 
L 574.966648 -81.346778 
L 572.266983 -83.809256 
L 569.567319 -86.358739 
L 566.867654 -88.991795 
L 564.167989 -91.704827 
L 561.468325 -94.494114 
L 558.76866 -97.355852 
L 556.068996 -100.286184 
L 553.369331 -103.281224 
L 550.669666 -106.337074 
L 547.970002 -109.449834 
L 545.270337 -112.615609 
L 542.570673 -115.830509 
L 539.871008 -119.090645 
L 537.171343 -122.392132 
L 534.471679 -125.731085 
L 531.772014 -129.103628 
L 529.07235 -132.505895 
L 526.372685 -135.93405 
L 523.67302 -139.384312 
L 520.973356 -142.852976 
L 518.273691 -146.336457 
L 515.574026 -149.831333 
L 512.874362 -153.334384 
L 510.174697 -156.842651 
L 507.475033 -160.353478 
L 504.775368 -163.864558 
L 502.075703 -167.373975 
L 499.376039 -170.88023 
L 496.676374 -174.382259 
L 493.97671 -177.879439 
L 491.277045 -181.371574 
L 488.57738 -184.858865 
L 485.877716 -188.341872 
L 483.178051 -191.821449 
L 480.478387 -195.298673 
L 477.778722 -198.774765 
L 475.079057 -202.250999 
L 472.379393 -205.728614 
L 469.679728 -209.208723 
L 466.980063 -212.692233 
L 464.280399 -216.179777 
L 461.580734 -219.671655 
L 458.88107 -223.167805 
L 456.181405 -226.667784 
L 453.48174 -230.170778 
L 450.782076 -233.675636 
L 448.082411 -237.18092 
L 445.382747 -240.684985 
L 442.683082 -244.186065 
L 439.983417 -247.682383 
L 437.283753 -251.172256 
L 434.584088 -254.654215 
L 431.884424 -258.127115 
L 429.184759 -261.590231 
L 426.485094 -265.04335 
L 423.78543 -268.486829 
L 421.085765 -271.921643 
L 418.3861 -275.349389 
L 415.686436 -278.772271 
L 412.986771 -282.193047 
L 410.287107 -285.614946 
L 407.587442 -289.041551 
L 404.887777 -292.476655 
L 402.188113 -295.924094 
L 399.488448 -299.38755 
L 396.788784 -302.870347 
L 394.089119 -306.375231 
L 391.389454 -309.904144 
L 388.68979 -313.457999 
L 385.990125 -317.036469 
L 383.290461 -320.637776 
L 380.590796 -324.258513 
L 377.891131 -327.89348 
L 375.191467 -331.535555 
L 372.491802 -335.175597 
L 369.792137 -338.802385 
L 367.092473 -342.402603 
L 364.392808 -345.960855 
L 361.693144 -349.459738 
L 358.993479 -352.879947 
L 356.293814 -356.200426 
L 353.59415 -359.398555 
L 350.894485 -362.450385 
L 348.194821 -365.330886 
L 345.495156 -368.014244 
L 342.795491 -370.474163 
L 340.095827 -372.684194 
L 337.396162 -374.618062 
L 334.696498 -376.250005 
L 331.996833 -377.555099 
L 329.297168 -378.509579 
L 326.597504 -379.09113 
L 323.897839 -379.279167 
L 321.198174 -379.055074 
L 318.49851 -378.402423 
L 315.798845 -377.307148 
L 313.099181 -375.75769 
L 310.399516 -373.745107 
L 307.699851 -371.263144 
L 305.000187 -368.308285 
L 302.300522 -364.879763 
L 299.600858 -360.979556 
L 296.901193 -356.612363 
L 294.201528 -351.785559 
L 291.501864 -346.509146 
L 288.802199 -340.795692 
L 286.102535 -334.660266 
L 283.40287 -328.120366 
L 280.703205 -321.195851 
L 278.003541 -313.908856 
L 275.303876 -306.283712 
L 272.604212 -298.346854 
L 269.904547 -290.126711 
L 267.204882 -281.653586 
L 264.505218 -272.959512 
L 261.805553 -264.078087 
L 259.105888 -255.044276 
L 256.406224 -245.89419 
L 253.706559 -236.664829 
L 251.006895 -227.393802 
L 248.30723 -218.119006 
L 245.607565 -208.878294 
L 242.907901 -199.709114 
L 240.208236 -190.648138 
L 237.508572 -181.730883 
L 234.808907 -172.991334 
L 232.109242 -164.46158 
L 229.409578 -156.171469 
L 226.709913 -148.148291 
L 224.010249 -140.416501 
L 221.310584 -132.997486 
L 218.610919 -125.909378 
L 215.911255 -119.166931 
L 213.21159 -112.78145 
L 210.511925 -106.760777 
L 207.812261 -101.109346 
L 205.112596 -95.828282 
L 202.412932 -90.91556 
L 199.713267 -86.366206 
L 197.013602 -82.172543 
L 194.313938 -78.324462 
L 191.614273 -74.809727 
L 188.914609 -71.614287 
L 186.214944 -68.722604 
L 183.515279 -66.117974 
L 180.815615 -63.78285 
L 178.11595 -61.699142 
L 175.416286 -59.848503 
L 172.716621 -58.212592 
L 170.016956 -56.773308 
L 167.317292 -55.512996 
L 164.617627 -54.41462 
L 161.917962 -53.461905 
L 159.218298 -52.639453 
L 156.518633 -51.932824 
L 153.818969 -51.328592 
L 151.119304 -50.814376 
L 148.419639 -50.378849 
L 145.719975 -50.011727 
L 143.02031 -49.703741 
L 140.320646 -49.446596 
L 137.620981 -49.232925 
L 134.921316 -49.056225 
z
" style="stroke: #2ecc71"/>
    </defs>
    <g clip-path="url(#p1cf468e901)">
     <use xlink:href="#mc31d21b454" x="0" y="420.48" style="fill: #2ecc71; fill-opacity: 0.3; stroke: #2ecc71"/>
    </g>
   </g>
   <g id="PolyCollection_2">
    <defs>
     <path id="m30a7c1a962" d="M 89.646051 -49.585961 
L 89.646051 -48.3125 
L 92.561446 -48.3125 
L 95.47684 -48.3125 
L 98.392235 -48.3125 
L 101.307629 -48.3125 
L 104.223024 -48.3125 
L 107.138419 -48.3125 
L 110.053813 -48.3125 
L 112.969208 -48.3125 
L 115.884602 -48.3125 
L 118.799997 -48.3125 
L 121.715392 -48.3125 
L 124.630786 -48.3125 
L 127.546181 -48.3125 
L 130.461575 -48.3125 
L 133.37697 -48.3125 
L 136.292365 -48.3125 
L 139.207759 -48.3125 
L 142.123154 -48.3125 
L 145.038548 -48.3125 
L 147.953943 -48.3125 
L 150.869338 -48.3125 
L 153.784732 -48.3125 
L 156.700127 -48.3125 
L 159.615521 -48.3125 
L 162.530916 -48.3125 
L 165.44631 -48.3125 
L 168.361705 -48.3125 
L 171.2771 -48.3125 
L 174.192494 -48.3125 
L 177.107889 -48.3125 
L 180.023283 -48.3125 
L 182.938678 -48.3125 
L 185.854073 -48.3125 
L 188.769467 -48.3125 
L 191.684862 -48.3125 
L 194.600256 -48.3125 
L 197.515651 -48.3125 
L 200.431046 -48.3125 
L 203.34644 -48.3125 
L 206.261835 -48.3125 
L 209.177229 -48.3125 
L 212.092624 -48.3125 
L 215.008019 -48.3125 
L 217.923413 -48.3125 
L 220.838808 -48.3125 
L 223.754202 -48.3125 
L 226.669597 -48.3125 
L 229.584991 -48.3125 
L 232.500386 -48.3125 
L 235.415781 -48.3125 
L 238.331175 -48.3125 
L 241.24657 -48.3125 
L 244.161964 -48.3125 
L 247.077359 -48.3125 
L 249.992754 -48.3125 
L 252.908148 -48.3125 
L 255.823543 -48.3125 
L 258.738937 -48.3125 
L 261.654332 -48.3125 
L 264.569727 -48.3125 
L 267.485121 -48.3125 
L 270.400516 -48.3125 
L 273.31591 -48.3125 
L 276.231305 -48.3125 
L 279.1467 -48.3125 
L 282.062094 -48.3125 
L 284.977489 -48.3125 
L 287.892883 -48.3125 
L 290.808278 -48.3125 
L 293.723672 -48.3125 
L 296.639067 -48.3125 
L 299.554462 -48.3125 
L 302.469856 -48.3125 
L 305.385251 -48.3125 
L 308.300645 -48.3125 
L 311.21604 -48.3125 
L 314.131435 -48.3125 
L 317.046829 -48.3125 
L 319.962224 -48.3125 
L 322.877618 -48.3125 
L 325.793013 -48.3125 
L 328.708408 -48.3125 
L 331.623802 -48.3125 
L 334.539197 -48.3125 
L 337.454591 -48.3125 
L 340.369986 -48.3125 
L 343.285381 -48.3125 
L 346.200775 -48.3125 
L 349.11617 -48.3125 
L 352.031564 -48.3125 
L 354.946959 -48.3125 
L 357.862353 -48.3125 
L 360.777748 -48.3125 
L 363.693143 -48.3125 
L 366.608537 -48.3125 
L 369.523932 -48.3125 
L 372.439326 -48.3125 
L 375.354721 -48.3125 
L 378.270116 -48.3125 
L 381.18551 -48.3125 
L 384.100905 -48.3125 
L 387.016299 -48.3125 
L 389.931694 -48.3125 
L 392.847089 -48.3125 
L 395.762483 -48.3125 
L 398.677878 -48.3125 
L 401.593272 -48.3125 
L 404.508667 -48.3125 
L 407.424062 -48.3125 
L 410.339456 -48.3125 
L 413.254851 -48.3125 
L 416.170245 -48.3125 
L 419.08564 -48.3125 
L 422.001034 -48.3125 
L 424.916429 -48.3125 
L 427.831824 -48.3125 
L 430.747218 -48.3125 
L 433.662613 -48.3125 
L 436.578007 -48.3125 
L 439.493402 -48.3125 
L 442.408797 -48.3125 
L 445.324191 -48.3125 
L 448.239586 -48.3125 
L 451.15498 -48.3125 
L 454.070375 -48.3125 
L 456.98577 -48.3125 
L 459.901164 -48.3125 
L 462.816559 -48.3125 
L 465.731953 -48.3125 
L 468.647348 -48.3125 
L 471.562743 -48.3125 
L 474.478137 -48.3125 
L 477.393532 -48.3125 
L 480.308926 -48.3125 
L 483.224321 -48.3125 
L 486.139715 -48.3125 
L 489.05511 -48.3125 
L 491.970505 -48.3125 
L 494.885899 -48.3125 
L 497.801294 -48.3125 
L 500.716688 -48.3125 
L 503.632083 -48.3125 
L 506.547478 -48.3125 
L 509.462872 -48.3125 
L 512.378267 -48.3125 
L 515.293661 -48.3125 
L 518.209056 -48.3125 
L 521.124451 -48.3125 
L 524.039845 -48.3125 
L 526.95524 -48.3125 
L 529.870634 -48.3125 
L 532.786029 -48.3125 
L 535.701424 -48.3125 
L 538.616818 -48.3125 
L 541.532213 -48.3125 
L 544.447607 -48.3125 
L 547.363002 -48.3125 
L 550.278396 -48.3125 
L 553.193791 -48.3125 
L 556.109186 -48.3125 
L 559.02458 -48.3125 
L 561.939975 -48.3125 
L 564.855369 -48.3125 
L 567.770764 -48.3125 
L 570.686159 -48.3125 
L 573.601553 -48.3125 
L 576.516948 -48.3125 
L 579.432342 -48.3125 
L 582.347737 -48.3125 
L 585.263132 -48.3125 
L 588.178526 -48.3125 
L 591.093921 -48.3125 
L 594.009315 -48.3125 
L 596.92471 -48.3125 
L 599.840105 -48.3125 
L 602.755499 -48.3125 
L 605.670894 -48.3125 
L 608.586288 -48.3125 
L 611.501683 -48.3125 
L 614.417077 -48.3125 
L 617.332472 -48.3125 
L 620.247867 -48.3125 
L 623.163261 -48.3125 
L 626.078656 -48.3125 
L 628.99405 -48.3125 
L 631.909445 -48.3125 
L 634.82484 -48.3125 
L 637.740234 -48.3125 
L 640.655629 -48.3125 
L 643.571023 -48.3125 
L 646.486418 -48.3125 
L 649.401813 -48.3125 
L 652.317207 -48.3125 
L 655.232602 -48.3125 
L 658.147996 -48.3125 
L 661.063391 -48.3125 
L 663.978786 -48.3125 
L 666.89418 -48.3125 
L 669.809575 -48.3125 
L 669.809575 -50.21206 
L 669.809575 -50.21206 
L 666.89418 -50.485506 
L 663.978786 -50.793542 
L 661.063391 -51.139807 
L 658.147996 -51.528214 
L 655.232602 -51.962962 
L 652.317207 -52.448536 
L 649.401813 -52.989713 
L 646.486418 -53.59156 
L 643.571023 -54.259429 
L 640.655629 -54.998956 
L 637.740234 -55.816045 
L 634.82484 -56.716861 
L 631.909445 -57.707804 
L 628.99405 -58.795492 
L 626.078656 -59.986733 
L 623.163261 -61.288491 
L 620.247867 -62.707849 
L 617.332472 -64.251966 
L 614.417077 -65.928033 
L 611.501683 -67.743215 
L 608.586288 -69.704593 
L 605.670894 -71.819105 
L 602.755499 -74.093474 
L 599.840105 -76.534138 
L 596.92471 -79.147173 
L 594.009315 -81.938215 
L 591.093921 -84.912377 
L 588.178526 -88.074165 
L 585.263132 -91.427399 
L 582.347737 -94.97512 
L 579.432342 -98.719515 
L 576.516948 -102.661832 
L 573.601553 -106.802301 
L 570.686159 -111.140069 
L 567.770764 -115.673122 
L 564.855369 -120.398236 
L 561.939975 -125.310918 
L 559.02458 -130.405368 
L 556.109186 -135.674451 
L 553.193791 -141.109669 
L 550.278396 -146.701166 
L 547.363002 -152.437727 
L 544.447607 -158.306807 
L 541.532213 -164.29456 
L 538.616818 -170.385901 
L 535.701424 -176.564568 
L 532.786029 -182.813205 
L 529.870634 -189.113464 
L 526.95524 -195.446117 
L 524.039845 -201.791184 
L 521.124451 -208.128068 
L 518.209056 -214.435716 
L 515.293661 -220.692772 
L 512.378267 -226.877752 
L 509.462872 -232.969219 
L 506.547478 -238.945969 
L 503.632083 -244.787207 
L 500.716688 -250.472739 
L 497.801294 -255.98315 
L 494.885899 -261.299983 
L 491.970505 -266.405907 
L 489.05511 -271.284884 
L 486.139715 -275.92231 
L 483.224321 -280.305159 
L 480.308926 -284.422097 
L 477.393532 -288.263588 
L 474.478137 -291.821976 
L 471.562743 -295.091546 
L 468.647348 -298.068569 
L 465.731953 -300.751317 
L 462.816559 -303.140061 
L 459.901164 -305.237045 
L 456.98577 -307.046433 
L 454.070375 -308.574244 
L 451.15498 -309.828252 
L 448.239586 -310.817882 
L 445.324191 -311.55407 
L 442.408797 -312.049126 
L 439.493402 -312.316564 
L 436.578007 -312.37093 
L 433.662613 -312.227622 
L 430.747218 -311.902691 
L 427.831824 -311.412653 
L 424.916429 -310.77428 
L 422.001034 -310.004414 
L 419.08564 -309.119761 
L 416.170245 -308.136708 
L 413.254851 -307.071137 
L 410.339456 -305.938259 
L 407.424062 -304.752447 
L 404.508667 -303.527099 
L 401.593272 -302.274504 
L 398.677878 -301.005731 
L 395.762483 -299.730533 
L 392.847089 -298.457274 
L 389.931694 -297.192872 
L 387.016299 -295.942762 
L 384.100905 -294.710879 
L 381.18551 -293.499662 
L 378.270116 -292.310071 
L 375.354721 -291.14163 
L 372.439326 -289.992478 
L 369.523932 -288.859443 
L 366.608537 -287.738127 
L 363.693143 -286.623 
L 360.777748 -285.507512 
L 357.862353 -284.384212 
L 354.946959 -283.244869 
L 352.031564 -282.08061 
L 349.11617 -280.88205 
L 346.200775 -279.639434 
L 343.285381 -278.342776 
L 340.369986 -276.981993 
L 337.454591 -275.547046 
L 334.539197 -274.028068 
L 331.623802 -272.415495 
L 328.708408 -270.70018 
L 325.793013 -268.873512 
L 322.877618 -266.927515 
L 319.962224 -264.854948 
L 317.046829 -262.649386 
L 314.131435 -260.305297 
L 311.21604 -257.818105 
L 308.300645 -255.18424 
L 305.385251 -252.401183 
L 302.469856 -249.467491 
L 299.554462 -246.382819 
L 296.639067 -243.147921 
L 293.723672 -239.764651 
L 290.808278 -236.235944 
L 287.892883 -232.565791 
L 284.977489 -228.759207 
L 282.062094 -224.82218 
L 279.1467 -220.761626 
L 276.231305 -216.585323 
L 273.31591 -212.301845 
L 270.400516 -207.92049 
L 267.485121 -203.451199 
L 264.569727 -198.904476 
L 261.654332 -194.291297 
L 258.738937 -189.623026 
L 255.823543 -184.911323 
L 252.908148 -180.168049 
L 249.992754 -175.405183 
L 247.077359 -170.634723 
L 244.161964 -165.868608 
L 241.24657 -161.118624 
L 238.331175 -156.396331 
L 235.415781 -151.712977 
L 232.500386 -147.079435 
L 229.584991 -142.50613 
L 226.669597 -138.002981 
L 223.754202 -133.579343 
L 220.838808 -129.243965 
L 217.923413 -125.004944 
L 215.008019 -120.869694 
L 212.092624 -116.844918 
L 209.177229 -112.936588 
L 206.261835 -109.149937 
L 203.34644 -105.489445 
L 200.431046 -101.958848 
L 197.515651 -98.561142 
L 194.600256 -95.298595 
L 191.684862 -92.172769 
L 188.769467 -89.184542 
L 185.854073 -86.334136 
L 182.938678 -83.621152 
L 180.023283 -81.044603 
L 177.107889 -78.602957 
L 174.192494 -76.294172 
L 171.2771 -74.115745 
L 168.361705 -72.064757 
L 165.44631 -70.13791 
L 162.530916 -68.331582 
L 159.615521 -66.641866 
L 156.700127 -65.064617 
L 153.784732 -63.595493 
L 150.869338 -62.229999 
L 147.953943 -60.963526 
L 145.038548 -59.791388 
L 142.123154 -58.708859 
L 139.207759 -57.711206 
L 136.292365 -56.793717 
L 133.37697 -55.951731 
L 130.461575 -55.180665 
L 127.546181 -54.47603 
L 124.630786 -53.833458 
L 121.715392 -53.248711 
L 118.799997 -52.717703 
L 115.884602 -52.236503 
L 112.969208 -51.801353 
L 110.053813 -51.408667 
L 107.138419 -51.055042 
L 104.223024 -50.737255 
L 101.307629 -50.45227 
L 98.392235 -50.197232 
L 95.47684 -49.969468 
L 92.561446 -49.766485 
L 89.646051 -49.585961 
z
" style="stroke: #e74c3c"/>
    </defs>
    <g clip-path="url(#p1cf468e901)">
     <use xlink:href="#m30a7c1a962" x="0" y="420.48" style="fill: #e74c3c; fill-opacity: 0.3; stroke: #e74c3c"/>
    </g>
   </g>
   <g id="patch_3">
    <path d="M 60.520625 372.1675 
L 60.520625 24.6525 
" style="fill: none; stroke: #cccccc; stroke-width: 1.5; stroke-linejoin: miter; stroke-linecap: square"/>
   </g>
   <g id="patch_4">
    <path d="M 60.520625 372.1675 
L 701.28 372.1675 
" style="fill: none; stroke: #cccccc; stroke-width: 1.5; stroke-linejoin: miter; stroke-linecap: square"/>
   </g>
   <g id="text_15">
    <!-- Distribution of Absolute Errors -->
    <g style="fill: #262626" transform="translate(275.080312 18.6525) scale(0.16 -0.16)">
     <defs>
      <path id="ArialMT-62" d="M 941 0 
L 419 0 
L 419 4581 
L 981 4581 
L 981 2947 
Q 1338 3394 1891 3394 
Q 2197 3394 2470 3270 
Q 2744 3147 2920 2923 
Q 3097 2700 3197 2384 
Q 3297 2069 3297 1709 
Q 3297 856 2875 390 
Q 2453 -75 1863 -75 
Q 1275 -75 941 416 
L 941 0 
z
M 934 1684 
Q 934 1088 1097 822 
Q 1363 388 1816 388 
Q 2184 388 2453 708 
Q 2722 1028 2722 1663 
Q 2722 2313 2464 2622 
Q 2206 2931 1841 2931 
Q 1472 2931 1203 2611 
Q 934 2291 934 1684 
z
" transform="scale(0.015625)"/>
      <path id="ArialMT-75" d="M 2597 0 
L 2597 488 
Q 2209 -75 1544 -75 
Q 1250 -75 995 37 
Q 741 150 617 320 
Q 494 491 444 738 
Q 409 903 409 1263 
L 409 3319 
L 972 3319 
L 972 1478 
Q 972 1038 1006 884 
Q 1059 663 1231 536 
Q 1403 409 1656 409 
Q 1909 409 2131 539 
Q 2353 669 2445 892 
Q 2538 1116 2538 1541 
L 2538 3319 
L 3100 3319 
L 3100 0 
L 2597 0 
z
" transform="scale(0.015625)"/>
      <path id="ArialMT-66" d="M 556 0 
L 556 2881 
L 59 2881 
L 59 3319 
L 556 3319 
L 556 3672 
Q 556 4006 616 4169 
Q 697 4388 901 4523 
Q 1106 4659 1475 4659 
Q 1713 4659 2000 4603 
L 1916 4113 
Q 1741 4144 1584 4144 
Q 1328 4144 1222 4034 
Q 1116 3925 1116 3625 
L 1116 3319 
L 1763 3319 
L 1763 2881 
L 1116 2881 
L 1116 0 
L 556 0 
z
" transform="scale(0.015625)"/>
      <path id="ArialMT-41" d="M -9 0 
L 1750 4581 
L 2403 4581 
L 4278 0 
L 3588 0 
L 3053 1388 
L 1138 1388 
L 634 0 
L -9 0 
z
M 1313 1881 
L 2866 1881 
L 2388 3150 
Q 2169 3728 2063 4100 
Q 1975 3659 1816 3225 
L 1313 1881 
z
" transform="scale(0.015625)"/>
      <path id="ArialMT-6c" d="M 409 0 
L 409 4581 
L 972 4581 
L 972 0 
L 409 0 
z
" transform="scale(0.015625)"/>
     </defs>
     <use xlink:href="#ArialMT-44"/>
     <use xlink:href="#ArialMT-69" x="72.216797"/>
     <use xlink:href="#ArialMT-73" x="94.433594"/>
     <use xlink:href="#ArialMT-74" x="144.433594"/>
     <use xlink:href="#ArialMT-72" x="172.216797"/>
     <use xlink:href="#ArialMT-69" x="205.517578"/>
     <use xlink:href="#ArialMT-62" x="227.734375"/>
     <use xlink:href="#ArialMT-75" x="283.349609"/>
     <use xlink:href="#ArialMT-74" x="338.964844"/>
     <use xlink:href="#ArialMT-69" x="366.748047"/>
     <use xlink:href="#ArialMT-6f" x="388.964844"/>
     <use xlink:href="#ArialMT-6e" x="444.580078"/>
     <use xlink:href="#ArialMT-20" x="500.195312"/>
     <use xlink:href="#ArialMT-6f" x="527.978516"/>
     <use xlink:href="#ArialMT-66" x="583.59375"/>
     <use xlink:href="#ArialMT-20" x="611.376953"/>
     <use xlink:href="#ArialMT-41" x="633.660156"/>
     <use xlink:href="#ArialMT-62" x="700.359375"/>
     <use xlink:href="#ArialMT-73" x="755.974609"/>
     <use xlink:href="#ArialMT-6f" x="805.974609"/>
     <use xlink:href="#ArialMT-6c" x="861.589844"/>
     <use xlink:href="#ArialMT-75" x="883.806641"/>
     <use xlink:href="#ArialMT-74" x="939.421875"/>
     <use xlink:href="#ArialMT-65" x="967.205078"/>
     <use xlink:href="#ArialMT-20" x="1022.820312"/>
     <use xlink:href="#ArialMT-45" x="1050.603516"/>
     <use xlink:href="#ArialMT-72" x="1117.302734"/>
     <use xlink:href="#ArialMT-72" x="1150.603516"/>
     <use xlink:href="#ArialMT-6f" x="1183.904297"/>
     <use xlink:href="#ArialMT-72" x="1239.519531"/>
     <use xlink:href="#ArialMT-73" x="1272.820312"/>
    </g>
   </g>
   <g id="legend_1">
    <g id="patch_5">
     <path d="M 497.20125 68.775 
L 692.88 68.775 
Q 695.28 68.775 695.28 66.375 
L 695.28 33.0525 
Q 695.28 30.6525 692.88 30.6525 
L 497.20125 30.6525 
Q 494.80125 30.6525 494.80125 33.0525 
L 494.80125 66.375 
Q 494.80125 68.775 497.20125 68.775 
z
" style="fill: #ffffff; opacity: 0.8; stroke: #cccccc; stroke-linejoin: miter"/>
    </g>
    <g id="patch_6">
     <path d="M 499.60125 44.188125 
L 523.60125 44.188125 
L 523.60125 35.788125 
L 499.60125 35.788125 
z
" style="fill: #2ecc71; fill-opacity: 0.3; stroke: #2ecc71; stroke-linejoin: miter"/>
    </g>
    <g id="text_16">
     <!-- Training (μ=1.86%, σ=1.21%) -->
     <g style="fill: #262626" transform="translate(533.20125 44.188125) scale(0.12 -0.12)">
      <defs>
       <path id="ArialMT-54" d="M 1659 0 
L 1659 4041 
L 150 4041 
L 150 4581 
L 3781 4581 
L 3781 4041 
L 2266 4041 
L 2266 0 
L 1659 0 
z
" transform="scale(0.015625)"/>
       <path id="ArialMT-61" d="M 2588 409 
Q 2275 144 1986 34 
Q 1697 -75 1366 -75 
Q 819 -75 525 192 
Q 231 459 231 875 
Q 231 1119 342 1320 
Q 453 1522 633 1644 
Q 813 1766 1038 1828 
Q 1203 1872 1538 1913 
Q 2219 1994 2541 2106 
Q 2544 2222 2544 2253 
Q 2544 2597 2384 2738 
Q 2169 2928 1744 2928 
Q 1347 2928 1158 2789 
Q 969 2650 878 2297 
L 328 2372 
Q 403 2725 575 2942 
Q 747 3159 1072 3276 
Q 1397 3394 1825 3394 
Q 2250 3394 2515 3294 
Q 2781 3194 2906 3042 
Q 3031 2891 3081 2659 
Q 3109 2516 3109 2141 
L 3109 1391 
Q 3109 606 3145 398 
Q 3181 191 3288 0 
L 2700 0 
Q 2613 175 2588 409 
z
M 2541 1666 
Q 2234 1541 1622 1453 
Q 1275 1403 1131 1340 
Q 988 1278 909 1158 
Q 831 1038 831 891 
Q 831 666 1001 516 
Q 1172 366 1500 366 
Q 1825 366 2078 508 
Q 2331 650 2450 897 
Q 2541 1088 2541 1459 
L 2541 1666 
z
" transform="scale(0.015625)"/>
       <path id="ArialMT-67" d="M 319 -275 
L 866 -356 
Q 900 -609 1056 -725 
Q 1266 -881 1628 -881 
Q 2019 -881 2231 -725 
Q 2444 -569 2519 -288 
Q 2563 -116 2559 434 
Q 2191 0 1641 0 
Q 956 0 581 494 
Q 206 988 206 1678 
Q 206 2153 378 2554 
Q 550 2956 876 3175 
Q 1203 3394 1644 3394 
Q 2231 3394 2613 2919 
L 2613 3319 
L 3131 3319 
L 3131 450 
Q 3131 -325 2973 -648 
Q 2816 -972 2473 -1159 
Q 2131 -1347 1631 -1347 
Q 1038 -1347 672 -1080 
Q 306 -813 319 -275 
z
M 784 1719 
Q 784 1066 1043 766 
Q 1303 466 1694 466 
Q 2081 466 2343 764 
Q 2606 1063 2606 1700 
Q 2606 2309 2336 2618 
Q 2066 2928 1684 2928 
Q 1309 2928 1046 2623 
Q 784 2319 784 1719 
z
" transform="scale(0.015625)"/>
       <path id="ArialMT-3bc" d="M 3181 3319 
L 3181 0 
L 2678 0 
L 2678 394 
Q 2516 144 2356 50 
Q 2138 -78 1847 -78 
Q 1588 -78 1388 25 
Q 1238 103 1056 334 
L 1056 -1272 
L 500 -1272 
L 500 3319 
L 1056 3319 
L 1056 1913 
Q 1056 1147 1137 920 
Q 1219 694 1401 562 
Q 1584 431 1822 431 
Q 2072 431 2269 568 
Q 2466 706 2547 923 
Q 2628 1141 2628 1903 
L 2628 3319 
L 3181 3319 
z
" transform="scale(0.015625)"/>
       <path id="ArialMT-3d" d="M 3381 2694 
L 356 2694 
L 356 3219 
L 3381 3219 
L 3381 2694 
z
M 3381 1303 
L 356 1303 
L 356 1828 
L 3381 1828 
L 3381 1303 
z
" transform="scale(0.015625)"/>
       <path id="ArialMT-38" d="M 1131 2484 
Q 781 2613 612 2850 
Q 444 3088 444 3419 
Q 444 3919 803 4259 
Q 1163 4600 1759 4600 
Q 2359 4600 2725 4251 
Q 3091 3903 3091 3403 
Q 3091 3084 2923 2848 
Q 2756 2613 2416 2484 
Q 2838 2347 3058 2040 
Q 3278 1734 3278 1309 
Q 3278 722 2862 322 
Q 2447 -78 1769 -78 
Q 1091 -78 675 323 
Q 259 725 259 1325 
Q 259 1772 486 2073 
Q 713 2375 1131 2484 
z
M 1019 3438 
Q 1019 3113 1228 2906 
Q 1438 2700 1772 2700 
Q 2097 2700 2305 2904 
Q 2513 3109 2513 3406 
Q 2513 3716 2298 3927 
Q 2084 4138 1766 4138 
Q 1444 4138 1231 3931 
Q 1019 3725 1019 3438 
z
M 838 1322 
Q 838 1081 952 856 
Q 1066 631 1291 507 
Q 1516 384 1775 384 
Q 2178 384 2440 643 
Q 2703 903 2703 1303 
Q 2703 1709 2433 1975 
Q 2163 2241 1756 2241 
Q 1359 2241 1098 1978 
Q 838 1716 838 1322 
z
" transform="scale(0.015625)"/>
       <path id="ArialMT-2c" d="M 569 0 
L 569 641 
L 1209 641 
L 1209 0 
Q 1209 -353 1084 -570 
Q 959 -788 688 -906 
L 531 -666 
Q 709 -588 793 -436 
Q 878 -284 888 0 
L 569 0 
z
" transform="scale(0.015625)"/>
       <path id="ArialMT-3c3" d="M 3809 3319 
L 3809 2863 
L 2906 2863 
Q 3322 2475 3322 1656 
Q 3322 766 2867 345 
Q 2413 -75 1763 -75 
Q 1088 -75 650 362 
Q 213 800 213 1659 
Q 213 2544 667 2969 
Q 1122 3394 1763 3394 
Q 1997 3394 2294 3319 
L 3809 3319 
z
M 1753 2928 
Q 1344 2928 1067 2609 
Q 791 2291 791 1656 
Q 791 1025 1061 706 
Q 1331 388 1763 388 
Q 2216 388 2483 720 
Q 2750 1053 2750 1659 
Q 2750 2213 2504 2570 
Q 2259 2928 1753 2928 
z
" transform="scale(0.015625)"/>
      </defs>
      <use xlink:href="#ArialMT-54"/>
      <use xlink:href="#ArialMT-72" x="57.333984"/>
      <use xlink:href="#ArialMT-61" x="90.634766"/>
      <use xlink:href="#ArialMT-69" x="146.25"/>
      <use xlink:href="#ArialMT-6e" x="168.466797"/>
      <use xlink:href="#ArialMT-69" x="224.082031"/>
      <use xlink:href="#ArialMT-6e" x="246.298828"/>
      <use xlink:href="#ArialMT-67" x="301.914062"/>
      <use xlink:href="#ArialMT-20" x="357.529297"/>
      <use xlink:href="#ArialMT-28" x="385.3125"/>
      <use xlink:href="#ArialMT-3bc" x="418.613281"/>
      <use xlink:href="#ArialMT-3d" x="476.230469"/>
      <use xlink:href="#ArialMT-31" x="534.628906"/>
      <use xlink:href="#ArialMT-2e" x="590.244141"/>
      <use xlink:href="#ArialMT-38" x="618.027344"/>
      <use xlink:href="#ArialMT-36" x="673.642578"/>
      <use xlink:href="#ArialMT-25" x="729.257812"/>
      <use xlink:href="#ArialMT-2c" x="818.173828"/>
      <use xlink:href="#ArialMT-20" x="845.957031"/>
      <use xlink:href="#ArialMT-3c3" x="873.740234"/>
      <use xlink:href="#ArialMT-3d" x="935.458984"/>
      <use xlink:href="#ArialMT-31" x="993.857422"/>
      <use xlink:href="#ArialMT-2e" x="1049.472656"/>
      <use xlink:href="#ArialMT-32" x="1077.255859"/>
      <use xlink:href="#ArialMT-31" x="1132.871094"/>
      <use xlink:href="#ArialMT-25" x="1188.486328"/>
      <use xlink:href="#ArialMT-29" x="1277.402344"/>
     </g>
    </g>
    <g id="patch_7">
     <path d="M 499.60125 61.449375 
L 523.60125 61.449375 
L 523.60125 53.049375 
L 499.60125 53.049375 
z
" style="fill: #e74c3c; fill-opacity: 0.3; stroke: #e74c3c; stroke-linejoin: miter"/>
    </g>
    <g id="text_17">
     <!-- Testing (μ=2.25%, σ=1.31%) -->
     <g style="fill: #262626" transform="translate(533.20125 61.449375) scale(0.12 -0.12)">
      <use xlink:href="#ArialMT-54"/>
      <use xlink:href="#ArialMT-65" x="49.958984"/>
      <use xlink:href="#ArialMT-73" x="105.574219"/>
      <use xlink:href="#ArialMT-74" x="155.574219"/>
      <use xlink:href="#ArialMT-69" x="183.357422"/>
      <use xlink:href="#ArialMT-6e" x="205.574219"/>
      <use xlink:href="#ArialMT-67" x="261.189453"/>
      <use xlink:href="#ArialMT-20" x="316.804688"/>
      <use xlink:href="#ArialMT-28" x="344.587891"/>
      <use xlink:href="#ArialMT-3bc" x="377.888672"/>
      <use xlink:href="#ArialMT-3d" x="435.505859"/>
      <use xlink:href="#ArialMT-32" x="493.904297"/>
      <use xlink:href="#ArialMT-2e" x="549.519531"/>
      <use xlink:href="#ArialMT-32" x="577.302734"/>
      <use xlink:href="#ArialMT-35" x="632.917969"/>
      <use xlink:href="#ArialMT-25" x="688.533203"/>
      <use xlink:href="#ArialMT-2c" x="777.449219"/>
      <use xlink:href="#ArialMT-20" x="805.232422"/>
      <use xlink:href="#ArialMT-3c3" x="833.015625"/>
      <use xlink:href="#ArialMT-3d" x="894.734375"/>
      <use xlink:href="#ArialMT-31" x="953.132812"/>
      <use xlink:href="#ArialMT-2e" x="1008.748047"/>
      <use xlink:href="#ArialMT-33" x="1036.53125"/>
      <use xlink:href="#ArialMT-31" x="1092.146484"/>
      <use xlink:href="#ArialMT-25" x="1147.761719"/>
      <use xlink:href="#ArialMT-29" x="1236.677734"/>
     </g>
    </g>
   </g>
  </g>
 </g>
 <defs>
  <clipPath id="p1cf468e901">
   <rect x="60.520625" y="24.6525" width="640.759375" height="347.515"/>
  </clipPath>
 </defs>
</svg>
