<?xml version="1.0" encoding="utf-8" standalone="no"?>
<!DOCTYPE svg PUBLIC "-//W3C//DTD SVG 1.1//EN"
  "http://www.w3.org/Graphics/SVG/1.1/DTD/svg11.dtd">
<svg xmlns:xlink="http://www.w3.org/1999/xlink" width="708.48pt" height="420.48pt" viewBox="0 0 708.48 420.48" xmlns="http://www.w3.org/2000/svg" version="1.1">
 <metadata>
  <rdf:RDF xmlns:dc="http://purl.org/dc/elements/1.1/" xmlns:cc="http://creativecommons.org/ns#" xmlns:rdf="http://www.w3.org/1999/02/22-rdf-syntax-ns#">
   <cc:Work>
    <dc:type rdf:resource="http://purl.org/dc/dcmitype/StillImage"/>
    <dc:date>2025-01-07T20:56:00.083151</dc:date>
    <dc:format>image/svg+xml</dc:format>
    <dc:creator>
     <cc:Agent>
      <dc:title>Matplotlib v3.9.3, https://matplotlib.org/</dc:title>
     </cc:Agent>
    </dc:creator>
   </cc:Work>
  </rdf:RDF>
 </metadata>
 <defs>
  <style type="text/css">*{stroke-linejoin: round; stroke-linecap: butt}</style>
 </defs>
 <g id="figure_1">
  <g id="patch_1">
   <path d="M 0 420.48 
L 708.48 420.48 
L 708.48 -0 
L 0 -0 
z
" style="fill: #ffffff"/>
  </g>
  <g id="axes_1">
   <g id="patch_2">
    <path d="M 60.520625 372.1675 
L 701.28 372.1675 
L 701.28 24.6525 
L 60.520625 24.6525 
z
" style="fill: #ffffff"/>
   </g>
   <g id="matplotlib.axis_1">
    <g id="xtick_1">
     <g id="line2d_1">
      <path d="M 68.514445 372.1675 
L 68.514445 24.6525 
" clip-path="url(#pdaf1d9e0de)" style="fill: none; stroke: #cccccc; stroke-opacity: 0.3; stroke-width: 0.5; stroke-linecap: round"/>
     </g>
     <g id="text_1">
      <!-- −2 -->
      <g style="fill: #262626" transform="translate(61.673508 387.756875) scale(0.12 -0.12)">
       <defs>
        <path id="ArialMT-2212" d="M 3381 1997 
L 356 1997 
L 356 2522 
L 3381 2522 
L 3381 1997 
z
" transform="scale(0.015625)"/>
        <path id="ArialMT-32" d="M 3222 541 
L 3222 0 
L 194 0 
Q 188 203 259 391 
Q 375 700 629 1000 
Q 884 1300 1366 1694 
Q 2113 2306 2375 2664 
Q 2638 3022 2638 3341 
Q 2638 3675 2398 3904 
Q 2159 4134 1775 4134 
Q 1369 4134 1125 3890 
Q 881 3647 878 3216 
L 300 3275 
Q 359 3922 746 4261 
Q 1134 4600 1788 4600 
Q 2447 4600 2831 4234 
Q 3216 3869 3216 3328 
Q 3216 3053 3103 2787 
Q 2991 2522 2730 2228 
Q 2469 1934 1863 1422 
Q 1356 997 1212 845 
Q 1069 694 975 541 
L 3222 541 
z
" transform="scale(0.015625)"/>
       </defs>
       <use xlink:href="#ArialMT-2212"/>
       <use xlink:href="#ArialMT-32" x="58.398438"/>
      </g>
     </g>
    </g>
    <g id="xtick_2">
     <g id="line2d_2">
      <path d="M 145.759771 372.1675 
L 145.759771 24.6525 
" clip-path="url(#pdaf1d9e0de)" style="fill: none; stroke: #cccccc; stroke-opacity: 0.3; stroke-width: 0.5; stroke-linecap: round"/>
     </g>
     <g id="text_2">
      <!-- −1 -->
      <g style="fill: #262626" transform="translate(138.918833 387.756875) scale(0.12 -0.12)">
       <defs>
        <path id="ArialMT-31" d="M 2384 0 
L 1822 0 
L 1822 3584 
Q 1619 3391 1289 3197 
Q 959 3003 697 2906 
L 697 3450 
Q 1169 3672 1522 3987 
Q 1875 4303 2022 4600 
L 2384 4600 
L 2384 0 
z
" transform="scale(0.015625)"/>
       </defs>
       <use xlink:href="#ArialMT-2212"/>
       <use xlink:href="#ArialMT-31" x="58.398438"/>
      </g>
     </g>
    </g>
    <g id="xtick_3">
     <g id="line2d_3">
      <path d="M 223.005096 372.1675 
L 223.005096 24.6525 
" clip-path="url(#pdaf1d9e0de)" style="fill: none; stroke: #cccccc; stroke-opacity: 0.3; stroke-width: 0.5; stroke-linecap: round"/>
     </g>
     <g id="text_3">
      <!-- 0 -->
      <g style="fill: #262626" transform="translate(219.668533 387.756875) scale(0.12 -0.12)">
       <defs>
        <path id="ArialMT-30" d="M 266 2259 
Q 266 3072 433 3567 
Q 600 4063 929 4331 
Q 1259 4600 1759 4600 
Q 2128 4600 2406 4451 
Q 2684 4303 2865 4023 
Q 3047 3744 3150 3342 
Q 3253 2941 3253 2259 
Q 3253 1453 3087 958 
Q 2922 463 2592 192 
Q 2263 -78 1759 -78 
Q 1097 -78 719 397 
Q 266 969 266 2259 
z
M 844 2259 
Q 844 1131 1108 757 
Q 1372 384 1759 384 
Q 2147 384 2411 759 
Q 2675 1134 2675 2259 
Q 2675 3391 2411 3762 
Q 2147 4134 1753 4134 
Q 1366 4134 1134 3806 
Q 844 3388 844 2259 
z
" transform="scale(0.015625)"/>
       </defs>
       <use xlink:href="#ArialMT-30"/>
      </g>
     </g>
    </g>
    <g id="xtick_4">
     <g id="line2d_4">
      <path d="M 300.250421 372.1675 
L 300.250421 24.6525 
" clip-path="url(#pdaf1d9e0de)" style="fill: none; stroke: #cccccc; stroke-opacity: 0.3; stroke-width: 0.5; stroke-linecap: round"/>
     </g>
     <g id="text_4">
      <!-- 1 -->
      <g style="fill: #262626" transform="translate(296.913859 387.756875) scale(0.12 -0.12)">
       <use xlink:href="#ArialMT-31"/>
      </g>
     </g>
    </g>
    <g id="xtick_5">
     <g id="line2d_5">
      <path d="M 377.495747 372.1675 
L 377.495747 24.6525 
" clip-path="url(#pdaf1d9e0de)" style="fill: none; stroke: #cccccc; stroke-opacity: 0.3; stroke-width: 0.5; stroke-linecap: round"/>
     </g>
     <g id="text_5">
      <!-- 2 -->
      <g style="fill: #262626" transform="translate(374.159184 387.756875) scale(0.12 -0.12)">
       <use xlink:href="#ArialMT-32"/>
      </g>
     </g>
    </g>
    <g id="xtick_6">
     <g id="line2d_6">
      <path d="M 454.741072 372.1675 
L 454.741072 24.6525 
" clip-path="url(#pdaf1d9e0de)" style="fill: none; stroke: #cccccc; stroke-opacity: 0.3; stroke-width: 0.5; stroke-linecap: round"/>
     </g>
     <g id="text_6">
      <!-- 3 -->
      <g style="fill: #262626" transform="translate(451.404509 387.756875) scale(0.12 -0.12)">
       <defs>
        <path id="ArialMT-33" d="M 269 1209 
L 831 1284 
Q 928 806 1161 595 
Q 1394 384 1728 384 
Q 2125 384 2398 659 
Q 2672 934 2672 1341 
Q 2672 1728 2419 1979 
Q 2166 2231 1775 2231 
Q 1616 2231 1378 2169 
L 1441 2663 
Q 1497 2656 1531 2656 
Q 1891 2656 2178 2843 
Q 2466 3031 2466 3422 
Q 2466 3731 2256 3934 
Q 2047 4138 1716 4138 
Q 1388 4138 1169 3931 
Q 950 3725 888 3313 
L 325 3413 
Q 428 3978 793 4289 
Q 1159 4600 1703 4600 
Q 2078 4600 2393 4439 
Q 2709 4278 2876 4000 
Q 3044 3722 3044 3409 
Q 3044 3113 2884 2869 
Q 2725 2625 2413 2481 
Q 2819 2388 3044 2092 
Q 3269 1797 3269 1353 
Q 3269 753 2831 336 
Q 2394 -81 1725 -81 
Q 1122 -81 723 278 
Q 325 638 269 1209 
z
" transform="scale(0.015625)"/>
       </defs>
       <use xlink:href="#ArialMT-33"/>
      </g>
     </g>
    </g>
    <g id="xtick_7">
     <g id="line2d_7">
      <path d="M 531.986397 372.1675 
L 531.986397 24.6525 
" clip-path="url(#pdaf1d9e0de)" style="fill: none; stroke: #cccccc; stroke-opacity: 0.3; stroke-width: 0.5; stroke-linecap: round"/>
     </g>
     <g id="text_7">
      <!-- 4 -->
      <g style="fill: #262626" transform="translate(528.649835 387.756875) scale(0.12 -0.12)">
       <defs>
        <path id="ArialMT-34" d="M 2069 0 
L 2069 1097 
L 81 1097 
L 81 1613 
L 2172 4581 
L 2631 4581 
L 2631 1613 
L 3250 1613 
L 3250 1097 
L 2631 1097 
L 2631 0 
L 2069 0 
z
M 2069 1613 
L 2069 3678 
L 634 1613 
L 2069 1613 
z
" transform="scale(0.015625)"/>
       </defs>
       <use xlink:href="#ArialMT-34"/>
      </g>
     </g>
    </g>
    <g id="xtick_8">
     <g id="line2d_8">
      <path d="M 609.231722 372.1675 
L 609.231722 24.6525 
" clip-path="url(#pdaf1d9e0de)" style="fill: none; stroke: #cccccc; stroke-opacity: 0.3; stroke-width: 0.5; stroke-linecap: round"/>
     </g>
     <g id="text_8">
      <!-- 5 -->
      <g style="fill: #262626" transform="translate(605.89516 387.756875) scale(0.12 -0.12)">
       <defs>
        <path id="ArialMT-35" d="M 266 1200 
L 856 1250 
Q 922 819 1161 601 
Q 1400 384 1738 384 
Q 2144 384 2425 690 
Q 2706 997 2706 1503 
Q 2706 1984 2436 2262 
Q 2166 2541 1728 2541 
Q 1456 2541 1237 2417 
Q 1019 2294 894 2097 
L 366 2166 
L 809 4519 
L 3088 4519 
L 3088 3981 
L 1259 3981 
L 1013 2750 
Q 1425 3038 1878 3038 
Q 2478 3038 2890 2622 
Q 3303 2206 3303 1553 
Q 3303 931 2941 478 
Q 2500 -78 1738 -78 
Q 1113 -78 717 272 
Q 322 622 266 1200 
z
" transform="scale(0.015625)"/>
       </defs>
       <use xlink:href="#ArialMT-35"/>
      </g>
     </g>
    </g>
    <g id="xtick_9">
     <g id="line2d_9">
      <path d="M 686.477048 372.1675 
L 686.477048 24.6525 
" clip-path="url(#pdaf1d9e0de)" style="fill: none; stroke: #cccccc; stroke-opacity: 0.3; stroke-width: 0.5; stroke-linecap: round"/>
     </g>
     <g id="text_9">
      <!-- 6 -->
      <g style="fill: #262626" transform="translate(683.140485 387.756875) scale(0.12 -0.12)">
       <defs>
        <path id="ArialMT-36" d="M 3184 3459 
L 2625 3416 
Q 2550 3747 2413 3897 
Q 2184 4138 1850 4138 
Q 1581 4138 1378 3988 
Q 1113 3794 959 3422 
Q 806 3050 800 2363 
Q 1003 2672 1297 2822 
Q 1591 2972 1913 2972 
Q 2475 2972 2870 2558 
Q 3266 2144 3266 1488 
Q 3266 1056 3080 686 
Q 2894 316 2569 119 
Q 2244 -78 1831 -78 
Q 1128 -78 684 439 
Q 241 956 241 2144 
Q 241 3472 731 4075 
Q 1159 4600 1884 4600 
Q 2425 4600 2770 4297 
Q 3116 3994 3184 3459 
z
M 888 1484 
Q 888 1194 1011 928 
Q 1134 663 1356 523 
Q 1578 384 1822 384 
Q 2178 384 2434 671 
Q 2691 959 2691 1453 
Q 2691 1928 2437 2201 
Q 2184 2475 1800 2475 
Q 1419 2475 1153 2201 
Q 888 1928 888 1484 
z
" transform="scale(0.015625)"/>
       </defs>
       <use xlink:href="#ArialMT-36"/>
      </g>
     </g>
    </g>
    <g id="text_10">
     <!-- Error (%) -->
     <g style="fill: #262626" transform="translate(352.515312 410.333438) scale(0.14 -0.14)">
      <defs>
       <path id="ArialMT-45" d="M 506 0 
L 506 4581 
L 3819 4581 
L 3819 4041 
L 1113 4041 
L 1113 2638 
L 3647 2638 
L 3647 2100 
L 1113 2100 
L 1113 541 
L 3925 541 
L 3925 0 
L 506 0 
z
" transform="scale(0.015625)"/>
       <path id="ArialMT-72" d="M 416 0 
L 416 3319 
L 922 3319 
L 922 2816 
Q 1116 3169 1280 3281 
Q 1444 3394 1641 3394 
Q 1925 3394 2219 3213 
L 2025 2691 
Q 1819 2813 1613 2813 
Q 1428 2813 1281 2702 
Q 1134 2591 1072 2394 
Q 978 2094 978 1738 
L 978 0 
L 416 0 
z
" transform="scale(0.015625)"/>
       <path id="ArialMT-6f" d="M 213 1659 
Q 213 2581 725 3025 
Q 1153 3394 1769 3394 
Q 2453 3394 2887 2945 
Q 3322 2497 3322 1706 
Q 3322 1066 3130 698 
Q 2938 331 2570 128 
Q 2203 -75 1769 -75 
Q 1072 -75 642 372 
Q 213 819 213 1659 
z
M 791 1659 
Q 791 1022 1069 705 
Q 1347 388 1769 388 
Q 2188 388 2466 706 
Q 2744 1025 2744 1678 
Q 2744 2294 2464 2611 
Q 2184 2928 1769 2928 
Q 1347 2928 1069 2612 
Q 791 2297 791 1659 
z
" transform="scale(0.015625)"/>
       <path id="ArialMT-20" transform="scale(0.015625)"/>
       <path id="ArialMT-28" d="M 1497 -1347 
Q 1031 -759 709 28 
Q 388 816 388 1659 
Q 388 2403 628 3084 
Q 909 3875 1497 4659 
L 1900 4659 
Q 1522 4009 1400 3731 
Q 1209 3300 1100 2831 
Q 966 2247 966 1656 
Q 966 153 1900 -1347 
L 1497 -1347 
z
" transform="scale(0.015625)"/>
       <path id="ArialMT-25" d="M 372 3481 
Q 372 3972 619 4315 
Q 866 4659 1334 4659 
Q 1766 4659 2048 4351 
Q 2331 4044 2331 3447 
Q 2331 2866 2045 2552 
Q 1759 2238 1341 2238 
Q 925 2238 648 2547 
Q 372 2856 372 3481 
z
M 1350 4272 
Q 1141 4272 1002 4090 
Q 863 3909 863 3425 
Q 863 2984 1003 2804 
Q 1144 2625 1350 2625 
Q 1563 2625 1702 2806 
Q 1841 2988 1841 3469 
Q 1841 3913 1700 4092 
Q 1559 4272 1350 4272 
z
M 1353 -169 
L 3859 4659 
L 4316 4659 
L 1819 -169 
L 1353 -169 
z
M 3334 1075 
Q 3334 1569 3581 1911 
Q 3828 2253 4300 2253 
Q 4731 2253 5014 1945 
Q 5297 1638 5297 1041 
Q 5297 459 5011 145 
Q 4725 -169 4303 -169 
Q 3888 -169 3611 142 
Q 3334 453 3334 1075 
z
M 4316 1866 
Q 4103 1866 3964 1684 
Q 3825 1503 3825 1019 
Q 3825 581 3965 400 
Q 4106 219 4313 219 
Q 4528 219 4667 400 
Q 4806 581 4806 1063 
Q 4806 1506 4665 1686 
Q 4525 1866 4316 1866 
z
" transform="scale(0.015625)"/>
       <path id="ArialMT-29" d="M 791 -1347 
L 388 -1347 
Q 1322 153 1322 1656 
Q 1322 2244 1188 2822 
Q 1081 3291 891 3722 
Q 769 4003 388 4659 
L 791 4659 
Q 1378 3875 1659 3084 
Q 1900 2403 1900 1659 
Q 1900 816 1576 28 
Q 1253 -759 791 -1347 
z
" transform="scale(0.015625)"/>
      </defs>
      <use xlink:href="#ArialMT-45"/>
      <use xlink:href="#ArialMT-72" x="66.699219"/>
      <use xlink:href="#ArialMT-72" x="100"/>
      <use xlink:href="#ArialMT-6f" x="133.300781"/>
      <use xlink:href="#ArialMT-72" x="188.916016"/>
      <use xlink:href="#ArialMT-20" x="222.216797"/>
      <use xlink:href="#ArialMT-28" x="250"/>
      <use xlink:href="#ArialMT-25" x="283.300781"/>
      <use xlink:href="#ArialMT-29" x="372.216797"/>
     </g>
    </g>
   </g>
   <g id="matplotlib.axis_2">
    <g id="ytick_1">
     <g id="line2d_10">
      <path d="M 60.520625 372.1675 
L 701.28 372.1675 
" clip-path="url(#pdaf1d9e0de)" style="fill: none; stroke: #cccccc; stroke-opacity: 0.3; stroke-width: 0.5; stroke-linecap: round"/>
     </g>
     <g id="text_11">
      <!-- 0.00 -->
      <g style="fill: #262626" transform="translate(30.1675 376.462188) scale(0.12 -0.12)">
       <defs>
        <path id="ArialMT-2e" d="M 581 0 
L 581 641 
L 1222 641 
L 1222 0 
L 581 0 
z
" transform="scale(0.015625)"/>
       </defs>
       <use xlink:href="#ArialMT-30"/>
       <use xlink:href="#ArialMT-2e" x="55.615234"/>
       <use xlink:href="#ArialMT-30" x="83.398438"/>
       <use xlink:href="#ArialMT-30" x="139.013672"/>
      </g>
     </g>
    </g>
    <g id="ytick_2">
     <g id="line2d_11">
      <path d="M 60.520625 326.13407 
L 701.28 326.13407 
" clip-path="url(#pdaf1d9e0de)" style="fill: none; stroke: #cccccc; stroke-opacity: 0.3; stroke-width: 0.5; stroke-linecap: round"/>
     </g>
     <g id="text_12">
      <!-- 0.05 -->
      <g style="fill: #262626" transform="translate(30.1675 330.428757) scale(0.12 -0.12)">
       <use xlink:href="#ArialMT-30"/>
       <use xlink:href="#ArialMT-2e" x="55.615234"/>
       <use xlink:href="#ArialMT-30" x="83.398438"/>
       <use xlink:href="#ArialMT-35" x="139.013672"/>
      </g>
     </g>
    </g>
    <g id="ytick_3">
     <g id="line2d_12">
      <path d="M 60.520625 280.100639 
L 701.28 280.100639 
" clip-path="url(#pdaf1d9e0de)" style="fill: none; stroke: #cccccc; stroke-opacity: 0.3; stroke-width: 0.5; stroke-linecap: round"/>
     </g>
     <g id="text_13">
      <!-- 0.10 -->
      <g style="fill: #262626" transform="translate(30.1675 284.395327) scale(0.12 -0.12)">
       <use xlink:href="#ArialMT-30"/>
       <use xlink:href="#ArialMT-2e" x="55.615234"/>
       <use xlink:href="#ArialMT-31" x="83.398438"/>
       <use xlink:href="#ArialMT-30" x="139.013672"/>
      </g>
     </g>
    </g>
    <g id="ytick_4">
     <g id="line2d_13">
      <path d="M 60.520625 234.067209 
L 701.28 234.067209 
" clip-path="url(#pdaf1d9e0de)" style="fill: none; stroke: #cccccc; stroke-opacity: 0.3; stroke-width: 0.5; stroke-linecap: round"/>
     </g>
     <g id="text_14">
      <!-- 0.15 -->
      <g style="fill: #262626" transform="translate(30.1675 238.361896) scale(0.12 -0.12)">
       <use xlink:href="#ArialMT-30"/>
       <use xlink:href="#ArialMT-2e" x="55.615234"/>
       <use xlink:href="#ArialMT-31" x="83.398438"/>
       <use xlink:href="#ArialMT-35" x="139.013672"/>
      </g>
     </g>
    </g>
    <g id="ytick_5">
     <g id="line2d_14">
      <path d="M 60.520625 188.033779 
L 701.28 188.033779 
" clip-path="url(#pdaf1d9e0de)" style="fill: none; stroke: #cccccc; stroke-opacity: 0.3; stroke-width: 0.5; stroke-linecap: round"/>
     </g>
     <g id="text_15">
      <!-- 0.20 -->
      <g style="fill: #262626" transform="translate(30.1675 192.328466) scale(0.12 -0.12)">
       <use xlink:href="#ArialMT-30"/>
       <use xlink:href="#ArialMT-2e" x="55.615234"/>
       <use xlink:href="#ArialMT-32" x="83.398438"/>
       <use xlink:href="#ArialMT-30" x="139.013672"/>
      </g>
     </g>
    </g>
    <g id="ytick_6">
     <g id="line2d_15">
      <path d="M 60.520625 142.000348 
L 701.28 142.000348 
" clip-path="url(#pdaf1d9e0de)" style="fill: none; stroke: #cccccc; stroke-opacity: 0.3; stroke-width: 0.5; stroke-linecap: round"/>
     </g>
     <g id="text_16">
      <!-- 0.25 -->
      <g style="fill: #262626" transform="translate(30.1675 146.295036) scale(0.12 -0.12)">
       <use xlink:href="#ArialMT-30"/>
       <use xlink:href="#ArialMT-2e" x="55.615234"/>
       <use xlink:href="#ArialMT-32" x="83.398438"/>
       <use xlink:href="#ArialMT-35" x="139.013672"/>
      </g>
     </g>
    </g>
    <g id="ytick_7">
     <g id="line2d_16">
      <path d="M 60.520625 95.966918 
L 701.28 95.966918 
" clip-path="url(#pdaf1d9e0de)" style="fill: none; stroke: #cccccc; stroke-opacity: 0.3; stroke-width: 0.5; stroke-linecap: round"/>
     </g>
     <g id="text_17">
      <!-- 0.30 -->
      <g style="fill: #262626" transform="translate(30.1675 100.261605) scale(0.12 -0.12)">
       <use xlink:href="#ArialMT-30"/>
       <use xlink:href="#ArialMT-2e" x="55.615234"/>
       <use xlink:href="#ArialMT-33" x="83.398438"/>
       <use xlink:href="#ArialMT-30" x="139.013672"/>
      </g>
     </g>
    </g>
    <g id="ytick_8">
     <g id="line2d_17">
      <path d="M 60.520625 49.933488 
L 701.28 49.933488 
" clip-path="url(#pdaf1d9e0de)" style="fill: none; stroke: #cccccc; stroke-opacity: 0.3; stroke-width: 0.5; stroke-linecap: round"/>
     </g>
     <g id="text_18">
      <!-- 0.35 -->
      <g style="fill: #262626" transform="translate(30.1675 54.228175) scale(0.12 -0.12)">
       <use xlink:href="#ArialMT-30"/>
       <use xlink:href="#ArialMT-2e" x="55.615234"/>
       <use xlink:href="#ArialMT-33" x="83.398438"/>
       <use xlink:href="#ArialMT-35" x="139.013672"/>
      </g>
     </g>
    </g>
    <g id="text_19">
     <!-- Density -->
     <g style="fill: #262626" transform="translate(17.220938 221.750625) rotate(-90) scale(0.14 -0.14)">
      <defs>
       <path id="ArialMT-44" d="M 494 0 
L 494 4581 
L 2072 4581 
Q 2606 4581 2888 4516 
Q 3281 4425 3559 4188 
Q 3922 3881 4101 3404 
Q 4281 2928 4281 2316 
Q 4281 1794 4159 1391 
Q 4038 988 3847 723 
Q 3656 459 3429 307 
Q 3203 156 2883 78 
Q 2563 0 2147 0 
L 494 0 
z
M 1100 541 
L 2078 541 
Q 2531 541 2789 625 
Q 3047 709 3200 863 
Q 3416 1078 3536 1442 
Q 3656 1806 3656 2325 
Q 3656 3044 3420 3430 
Q 3184 3816 2847 3947 
Q 2603 4041 2063 4041 
L 1100 4041 
L 1100 541 
z
" transform="scale(0.015625)"/>
       <path id="ArialMT-65" d="M 2694 1069 
L 3275 997 
Q 3138 488 2766 206 
Q 2394 -75 1816 -75 
Q 1088 -75 661 373 
Q 234 822 234 1631 
Q 234 2469 665 2931 
Q 1097 3394 1784 3394 
Q 2450 3394 2872 2941 
Q 3294 2488 3294 1666 
Q 3294 1616 3291 1516 
L 816 1516 
Q 847 969 1125 678 
Q 1403 388 1819 388 
Q 2128 388 2347 550 
Q 2566 713 2694 1069 
z
M 847 1978 
L 2700 1978 
Q 2663 2397 2488 2606 
Q 2219 2931 1791 2931 
Q 1403 2931 1139 2672 
Q 875 2413 847 1978 
z
" transform="scale(0.015625)"/>
       <path id="ArialMT-6e" d="M 422 0 
L 422 3319 
L 928 3319 
L 928 2847 
Q 1294 3394 1984 3394 
Q 2284 3394 2536 3286 
Q 2788 3178 2913 3003 
Q 3038 2828 3088 2588 
Q 3119 2431 3119 2041 
L 3119 0 
L 2556 0 
L 2556 2019 
Q 2556 2363 2490 2533 
Q 2425 2703 2258 2804 
Q 2091 2906 1866 2906 
Q 1506 2906 1245 2678 
Q 984 2450 984 1813 
L 984 0 
L 422 0 
z
" transform="scale(0.015625)"/>
       <path id="ArialMT-73" d="M 197 991 
L 753 1078 
Q 800 744 1014 566 
Q 1228 388 1613 388 
Q 2000 388 2187 545 
Q 2375 703 2375 916 
Q 2375 1106 2209 1216 
Q 2094 1291 1634 1406 
Q 1016 1563 777 1677 
Q 538 1791 414 1992 
Q 291 2194 291 2438 
Q 291 2659 392 2848 
Q 494 3038 669 3163 
Q 800 3259 1026 3326 
Q 1253 3394 1513 3394 
Q 1903 3394 2198 3281 
Q 2494 3169 2634 2976 
Q 2775 2784 2828 2463 
L 2278 2388 
Q 2241 2644 2061 2787 
Q 1881 2931 1553 2931 
Q 1166 2931 1000 2803 
Q 834 2675 834 2503 
Q 834 2394 903 2306 
Q 972 2216 1119 2156 
Q 1203 2125 1616 2013 
Q 2213 1853 2448 1751 
Q 2684 1650 2818 1456 
Q 2953 1263 2953 975 
Q 2953 694 2789 445 
Q 2625 197 2315 61 
Q 2006 -75 1616 -75 
Q 969 -75 630 194 
Q 291 463 197 991 
z
" transform="scale(0.015625)"/>
       <path id="ArialMT-69" d="M 425 3934 
L 425 4581 
L 988 4581 
L 988 3934 
L 425 3934 
z
M 425 0 
L 425 3319 
L 988 3319 
L 988 0 
L 425 0 
z
" transform="scale(0.015625)"/>
       <path id="ArialMT-74" d="M 1650 503 
L 1731 6 
Q 1494 -44 1306 -44 
Q 1000 -44 831 53 
Q 663 150 594 308 
Q 525 466 525 972 
L 525 2881 
L 113 2881 
L 113 3319 
L 525 3319 
L 525 4141 
L 1084 4478 
L 1084 3319 
L 1650 3319 
L 1650 2881 
L 1084 2881 
L 1084 941 
Q 1084 700 1114 631 
Q 1144 563 1211 522 
Q 1278 481 1403 481 
Q 1497 481 1650 503 
z
" transform="scale(0.015625)"/>
       <path id="ArialMT-79" d="M 397 -1278 
L 334 -750 
Q 519 -800 656 -800 
Q 844 -800 956 -737 
Q 1069 -675 1141 -563 
Q 1194 -478 1313 -144 
Q 1328 -97 1363 -6 
L 103 3319 
L 709 3319 
L 1400 1397 
Q 1534 1031 1641 628 
Q 1738 1016 1872 1384 
L 2581 3319 
L 3144 3319 
L 1881 -56 
Q 1678 -603 1566 -809 
Q 1416 -1088 1222 -1217 
Q 1028 -1347 759 -1347 
Q 597 -1347 397 -1278 
z
" transform="scale(0.015625)"/>
      </defs>
      <use xlink:href="#ArialMT-44"/>
      <use xlink:href="#ArialMT-65" x="72.216797"/>
      <use xlink:href="#ArialMT-6e" x="127.832031"/>
      <use xlink:href="#ArialMT-73" x="183.447266"/>
      <use xlink:href="#ArialMT-69" x="233.447266"/>
      <use xlink:href="#ArialMT-74" x="255.664062"/>
      <use xlink:href="#ArialMT-79" x="283.447266"/>
     </g>
    </g>
   </g>
   <g id="PolyCollection_1">
    <defs>
     <path id="m0b5f0f03bd" d="M 121.19004 -48.819127 
L 121.19004 -48.3125 
L 123.958706 -48.3125 
L 126.727372 -48.3125 
L 129.496038 -48.3125 
L 132.264704 -48.3125 
L 135.03337 -48.3125 
L 137.802036 -48.3125 
L 140.570702 -48.3125 
L 143.339368 -48.3125 
L 146.108034 -48.3125 
L 148.8767 -48.3125 
L 151.645366 -48.3125 
L 154.414032 -48.3125 
L 157.182698 -48.3125 
L 159.951364 -48.3125 
L 162.72003 -48.3125 
L 165.488696 -48.3125 
L 168.257362 -48.3125 
L 171.026028 -48.3125 
L 173.794694 -48.3125 
L 176.56336 -48.3125 
L 179.332026 -48.3125 
L 182.100692 -48.3125 
L 184.869358 -48.3125 
L 187.638024 -48.3125 
L 190.40669 -48.3125 
L 193.175356 -48.3125 
L 195.944022 -48.3125 
L 198.712688 -48.3125 
L 201.481354 -48.3125 
L 204.25002 -48.3125 
L 207.018686 -48.3125 
L 209.787352 -48.3125 
L 212.556018 -48.3125 
L 215.324684 -48.3125 
L 218.09335 -48.3125 
L 220.862016 -48.3125 
L 223.630682 -48.3125 
L 226.399348 -48.3125 
L 229.168014 -48.3125 
L 231.93668 -48.3125 
L 234.705346 -48.3125 
L 237.474012 -48.3125 
L 240.242678 -48.3125 
L 243.011344 -48.3125 
L 245.78001 -48.3125 
L 248.548676 -48.3125 
L 251.317342 -48.3125 
L 254.086008 -48.3125 
L 256.854674 -48.3125 
L 259.62334 -48.3125 
L 262.392006 -48.3125 
L 265.160672 -48.3125 
L 267.929338 -48.3125 
L 270.698004 -48.3125 
L 273.46667 -48.3125 
L 276.235336 -48.3125 
L 279.004002 -48.3125 
L 281.772668 -48.3125 
L 284.541334 -48.3125 
L 287.31 -48.3125 
L 290.078666 -48.3125 
L 292.847332 -48.3125 
L 295.615998 -48.3125 
L 298.384664 -48.3125 
L 301.15333 -48.3125 
L 303.921996 -48.3125 
L 306.690662 -48.3125 
L 309.459328 -48.3125 
L 312.227994 -48.3125 
L 314.99666 -48.3125 
L 317.765326 -48.3125 
L 320.533992 -48.3125 
L 323.302658 -48.3125 
L 326.071324 -48.3125 
L 328.83999 -48.3125 
L 331.608656 -48.3125 
L 334.377322 -48.3125 
L 337.145988 -48.3125 
L 339.914654 -48.3125 
L 342.68332 -48.3125 
L 345.451986 -48.3125 
L 348.220652 -48.3125 
L 350.989318 -48.3125 
L 353.757984 -48.3125 
L 356.52665 -48.3125 
L 359.295316 -48.3125 
L 362.063982 -48.3125 
L 364.832648 -48.3125 
L 367.601314 -48.3125 
L 370.36998 -48.3125 
L 373.138646 -48.3125 
L 375.907312 -48.3125 
L 378.675978 -48.3125 
L 381.444644 -48.3125 
L 384.21331 -48.3125 
L 386.981976 -48.3125 
L 389.750642 -48.3125 
L 392.519308 -48.3125 
L 395.287974 -48.3125 
L 398.05664 -48.3125 
L 400.825306 -48.3125 
L 403.593972 -48.3125 
L 406.362638 -48.3125 
L 409.131304 -48.3125 
L 411.89997 -48.3125 
L 414.668636 -48.3125 
L 417.437302 -48.3125 
L 420.205968 -48.3125 
L 422.974634 -48.3125 
L 425.7433 -48.3125 
L 428.511966 -48.3125 
L 431.280632 -48.3125 
L 434.049298 -48.3125 
L 436.817964 -48.3125 
L 439.58663 -48.3125 
L 442.355296 -48.3125 
L 445.123962 -48.3125 
L 447.892628 -48.3125 
L 450.661294 -48.3125 
L 453.42996 -48.3125 
L 456.198626 -48.3125 
L 458.967292 -48.3125 
L 461.735958 -48.3125 
L 464.504624 -48.3125 
L 467.27329 -48.3125 
L 470.041956 -48.3125 
L 472.810622 -48.3125 
L 475.579288 -48.3125 
L 478.347954 -48.3125 
L 481.11662 -48.3125 
L 483.885286 -48.3125 
L 486.653952 -48.3125 
L 489.422618 -48.3125 
L 492.191284 -48.3125 
L 494.95995 -48.3125 
L 497.728616 -48.3125 
L 500.497282 -48.3125 
L 503.265948 -48.3125 
L 506.034614 -48.3125 
L 508.80328 -48.3125 
L 511.571946 -48.3125 
L 514.340612 -48.3125 
L 517.109278 -48.3125 
L 519.877944 -48.3125 
L 522.64661 -48.3125 
L 525.415276 -48.3125 
L 528.183942 -48.3125 
L 530.952608 -48.3125 
L 533.721274 -48.3125 
L 536.48994 -48.3125 
L 539.258606 -48.3125 
L 542.027272 -48.3125 
L 544.795938 -48.3125 
L 547.564604 -48.3125 
L 550.33327 -48.3125 
L 553.101936 -48.3125 
L 555.870602 -48.3125 
L 558.639268 -48.3125 
L 561.407934 -48.3125 
L 564.1766 -48.3125 
L 566.945266 -48.3125 
L 569.713932 -48.3125 
L 572.482598 -48.3125 
L 575.251264 -48.3125 
L 578.01993 -48.3125 
L 580.788596 -48.3125 
L 583.557262 -48.3125 
L 586.325928 -48.3125 
L 589.094594 -48.3125 
L 591.86326 -48.3125 
L 594.631926 -48.3125 
L 597.400592 -48.3125 
L 600.169258 -48.3125 
L 602.937924 -48.3125 
L 605.70659 -48.3125 
L 608.475256 -48.3125 
L 611.243922 -48.3125 
L 614.012588 -48.3125 
L 616.781254 -48.3125 
L 619.54992 -48.3125 
L 622.318586 -48.3125 
L 625.087252 -48.3125 
L 627.855918 -48.3125 
L 630.624584 -48.3125 
L 633.39325 -48.3125 
L 636.161916 -48.3125 
L 638.930582 -48.3125 
L 641.699248 -48.3125 
L 644.467914 -48.3125 
L 647.23658 -48.3125 
L 650.005246 -48.3125 
L 652.773912 -48.3125 
L 655.542578 -48.3125 
L 658.311244 -48.3125 
L 661.07991 -48.3125 
L 663.848576 -48.3125 
L 666.617242 -48.3125 
L 669.385908 -48.3125 
L 672.154574 -48.3125 
L 672.154574 -48.649411 
L 672.154574 -48.649411 
L 669.385908 -48.725216 
L 666.617242 -48.816078 
L 663.848576 -48.924521 
L 661.07991 -49.053392 
L 658.311244 -49.205886 
L 655.542578 -49.38556 
L 652.773912 -49.596355 
L 650.005246 -49.842606 
L 647.23658 -50.12905 
L 644.467914 -50.46083 
L 641.699248 -50.843488 
L 638.930582 -51.282953 
L 636.161916 -51.785522 
L 633.39325 -52.357825 
L 630.624584 -53.006791 
L 627.855918 -53.739594 
L 625.087252 -54.563594 
L 622.318586 -55.486265 
L 619.54992 -56.51512 
L 616.781254 -57.657613 
L 614.012588 -58.921052 
L 611.243922 -60.312491 
L 608.475256 -61.838619 
L 605.70659 -63.505657 
L 602.937924 -65.31924 
L 600.169258 -67.28431 
L 597.400592 -69.405011 
L 594.631926 -71.684587 
L 591.86326 -74.125296 
L 589.094594 -76.728329 
L 586.325928 -79.493745 
L 583.557262 -82.420421 
L 580.788596 -85.50602 
L 578.01993 -88.746974 
L 575.251264 -92.138486 
L 572.482598 -95.674551 
L 569.713932 -99.347997 
L 566.945266 -103.150536 
L 564.1766 -107.072839 
L 561.407934 -111.104615 
L 558.639268 -115.234714 
L 555.870602 -119.451228 
L 553.101936 -123.741603 
L 550.33327 -128.092762 
L 547.564604 -132.491216 
L 544.795938 -136.923192 
L 542.027272 -141.374744 
L 539.258606 -145.831872 
L 536.48994 -150.280629 
L 533.721274 -154.707224 
L 530.952608 -159.098122 
L 528.183942 -163.440137 
L 525.415276 -167.720511 
L 522.64661 -171.927001 
L 519.877944 -176.04795 
L 517.109278 -180.072362 
L 514.340612 -183.989962 
L 511.571946 -187.79127 
L 508.80328 -191.467655 
L 506.034614 -195.011403 
L 503.265948 -198.415768 
L 500.497282 -201.675034 
L 497.728616 -204.784565 
L 494.95995 -207.740858 
L 492.191284 -210.541582 
L 489.422618 -213.185621 
L 486.653952 -215.673103 
L 483.885286 -218.005423 
L 481.11662 -220.185251 
L 478.347954 -222.216531 
L 475.579288 -224.104468 
L 472.810622 -225.855502 
L 470.041956 -227.477261 
L 467.27329 -228.978504 
L 464.504624 -230.369055 
L 461.735958 -231.659713 
L 458.967292 -232.862157 
L 456.198626 -233.988837 
L 453.42996 -235.052855 
L 450.661294 -236.067842 
L 447.892628 -237.04782 
L 445.123962 -238.007072 
L 442.355296 -238.959996 
L 439.58663 -239.920966 
L 436.817964 -240.904194 
L 434.049298 -241.923588 
L 431.280632 -242.992615 
L 428.511966 -244.12417 
L 425.7433 -245.330446 
L 422.974634 -246.622809 
L 420.205968 -248.011679 
L 417.437302 -249.506418 
L 414.668636 -251.115219 
L 411.89997 -252.845011 
L 409.131304 -254.70136 
L 406.362638 -256.688391 
L 403.593972 -258.808708 
L 400.825306 -261.063333 
L 398.05664 -263.45165 
L 395.287974 -265.971373 
L 392.519308 -268.618511 
L 389.750642 -271.387367 
L 386.981976 -274.270541 
L 384.21331 -277.258953 
L 381.444644 -280.341887 
L 378.675978 -283.507045 
L 375.907312 -286.740628 
L 373.138646 -290.02742 
L 370.36998 -293.350895 
L 367.601314 -296.693336 
L 364.832648 -300.03596 
L 362.063982 -303.359054 
L 359.295316 -306.642118 
L 356.52665 -309.864006 
L 353.757984 -313.00307 
L 350.989318 -316.037308 
L 348.220652 -318.944499 
L 345.451986 -321.70234 
L 342.68332 -324.288576 
L 339.914654 -326.681122 
L 337.145988 -328.858185 
L 334.377322 -330.798371 
L 331.608656 -332.4808 
L 328.83999 -333.885211 
L 326.071324 -334.992069 
L 323.302658 -335.782675 
L 320.533992 -336.239277 
L 317.765326 -336.345191 
L 314.99666 -336.084923 
L 312.227994 -335.444303 
L 309.459328 -334.410631 
L 306.690662 -332.97282 
L 303.921996 -331.121556 
L 301.15333 -328.849464 
L 298.384664 -326.151264 
L 295.615998 -323.023944 
L 292.847332 -319.466911 
L 290.078666 -315.482141 
L 287.31 -311.074316 
L 284.541334 -306.250934 
L 281.772668 -301.022395 
L 279.004002 -295.402057 
L 276.235336 -289.406259 
L 273.46667 -283.054296 
L 270.698004 -276.36836 
L 267.929338 -269.373423 
L 265.160672 -262.097086 
L 262.392006 -254.569374 
L 259.62334 -246.822482 
L 256.854674 -238.890484 
L 254.086008 -230.809002 
L 251.317342 -222.614837 
L 248.548676 -214.345578 
L 245.78001 -206.03919 
L 243.011344 -197.733583 
L 240.242678 -189.46619 
L 237.474012 -181.273539 
L 234.705346 -173.190844 
L 231.93668 -165.251622 
L 229.168014 -157.487331 
L 226.399348 -149.927054 
L 223.630682 -142.597223 
L 220.862016 -135.521389 
L 218.09335 -128.720049 
L 215.324684 -122.210522 
L 212.556018 -116.006881 
L 209.787352 -110.119943 
L 207.018686 -104.557305 
L 204.25002 -99.323432 
L 201.481354 -94.419791 
L 198.712688 -89.845026 
L 195.944022 -85.595159 
L 193.175356 -81.663831 
L 190.40669 -78.042552 
L 187.638024 -74.720976 
L 184.869358 -71.687175 
L 182.100692 -68.927927 
L 179.332026 -66.428983 
L 176.56336 -64.175342 
L 173.794694 -62.151504 
L 171.026028 -60.341705 
L 168.257362 -58.730136 
L 165.488696 -57.301138 
L 162.72003 -56.03937 
L 159.951364 -54.92996 
L 157.182698 -53.958621 
L 154.414032 -53.111755 
L 151.645366 -52.376521 
L 148.8767 -51.740894 
L 146.108034 -51.193692 
L 143.339368 -50.7246 
L 140.570702 -50.32416 
L 137.802036 -49.983764 
L 135.03337 -49.695627 
L 132.264704 -49.452752 
L 129.496038 -49.248891 
L 126.727372 -49.078496 
L 123.958706 -48.936673 
L 121.19004 -48.819127 
z
" style="stroke: #2ecc71"/>
    </defs>
    <g clip-path="url(#pdaf1d9e0de)">
     <use xlink:href="#m0b5f0f03bd" x="0" y="420.48" style="fill: #2ecc71; fill-opacity: 0.3; stroke: #2ecc71"/>
    </g>
   </g>
   <g id="PolyCollection_2">
    <defs>
     <path id="m5c3a4abea2" d="M 89.646051 -50.057542 
L 89.646051 -48.3125 
L 91.803069 -48.3125 
L 93.960088 -48.3125 
L 96.117106 -48.3125 
L 98.274124 -48.3125 
L 100.431143 -48.3125 
L 102.588161 -48.3125 
L 104.745179 -48.3125 
L 106.902197 -48.3125 
L 109.059216 -48.3125 
L 111.216234 -48.3125 
L 113.373252 -48.3125 
L 115.530271 -48.3125 
L 117.687289 -48.3125 
L 119.844307 -48.3125 
L 122.001326 -48.3125 
L 124.158344 -48.3125 
L 126.315362 -48.3125 
L 128.47238 -48.3125 
L 130.629399 -48.3125 
L 132.786417 -48.3125 
L 134.943435 -48.3125 
L 137.100454 -48.3125 
L 139.257472 -48.3125 
L 141.41449 -48.3125 
L 143.571509 -48.3125 
L 145.728527 -48.3125 
L 147.885545 -48.3125 
L 150.042563 -48.3125 
L 152.199582 -48.3125 
L 154.3566 -48.3125 
L 156.513618 -48.3125 
L 158.670637 -48.3125 
L 160.827655 -48.3125 
L 162.984673 -48.3125 
L 165.141691 -48.3125 
L 167.29871 -48.3125 
L 169.455728 -48.3125 
L 171.612746 -48.3125 
L 173.769765 -48.3125 
L 175.926783 -48.3125 
L 178.083801 -48.3125 
L 180.24082 -48.3125 
L 182.397838 -48.3125 
L 184.554856 -48.3125 
L 186.711874 -48.3125 
L 188.868893 -48.3125 
L 191.025911 -48.3125 
L 193.182929 -48.3125 
L 195.339948 -48.3125 
L 197.496966 -48.3125 
L 199.653984 -48.3125 
L 201.811002 -48.3125 
L 203.968021 -48.3125 
L 206.125039 -48.3125 
L 208.282057 -48.3125 
L 210.439076 -48.3125 
L 212.596094 -48.3125 
L 214.753112 -48.3125 
L 216.910131 -48.3125 
L 219.067149 -48.3125 
L 221.224167 -48.3125 
L 223.381185 -48.3125 
L 225.538204 -48.3125 
L 227.695222 -48.3125 
L 229.85224 -48.3125 
L 232.009259 -48.3125 
L 234.166277 -48.3125 
L 236.323295 -48.3125 
L 238.480314 -48.3125 
L 240.637332 -48.3125 
L 242.79435 -48.3125 
L 244.951368 -48.3125 
L 247.108387 -48.3125 
L 249.265405 -48.3125 
L 251.422423 -48.3125 
L 253.579442 -48.3125 
L 255.73646 -48.3125 
L 257.893478 -48.3125 
L 260.050496 -48.3125 
L 262.207515 -48.3125 
L 264.364533 -48.3125 
L 266.521551 -48.3125 
L 268.67857 -48.3125 
L 270.835588 -48.3125 
L 272.992606 -48.3125 
L 275.149625 -48.3125 
L 277.306643 -48.3125 
L 279.463661 -48.3125 
L 281.620679 -48.3125 
L 283.777698 -48.3125 
L 285.934716 -48.3125 
L 288.091734 -48.3125 
L 290.248753 -48.3125 
L 292.405771 -48.3125 
L 294.562789 -48.3125 
L 296.719807 -48.3125 
L 298.876826 -48.3125 
L 301.033844 -48.3125 
L 303.190862 -48.3125 
L 305.347881 -48.3125 
L 307.504899 -48.3125 
L 309.661917 -48.3125 
L 311.818936 -48.3125 
L 313.975954 -48.3125 
L 316.132972 -48.3125 
L 318.28999 -48.3125 
L 320.447009 -48.3125 
L 322.604027 -48.3125 
L 324.761045 -48.3125 
L 326.918064 -48.3125 
L 329.075082 -48.3125 
L 331.2321 -48.3125 
L 333.389119 -48.3125 
L 335.546137 -48.3125 
L 337.703155 -48.3125 
L 339.860173 -48.3125 
L 342.017192 -48.3125 
L 344.17421 -48.3125 
L 346.331228 -48.3125 
L 348.488247 -48.3125 
L 350.645265 -48.3125 
L 352.802283 -48.3125 
L 354.959301 -48.3125 
L 357.11632 -48.3125 
L 359.273338 -48.3125 
L 361.430356 -48.3125 
L 363.587375 -48.3125 
L 365.744393 -48.3125 
L 367.901411 -48.3125 
L 370.05843 -48.3125 
L 372.215448 -48.3125 
L 374.372466 -48.3125 
L 376.529484 -48.3125 
L 378.686503 -48.3125 
L 380.843521 -48.3125 
L 383.000539 -48.3125 
L 385.157558 -48.3125 
L 387.314576 -48.3125 
L 389.471594 -48.3125 
L 391.628612 -48.3125 
L 393.785631 -48.3125 
L 395.942649 -48.3125 
L 398.099667 -48.3125 
L 400.256686 -48.3125 
L 402.413704 -48.3125 
L 404.570722 -48.3125 
L 406.727741 -48.3125 
L 408.884759 -48.3125 
L 411.041777 -48.3125 
L 413.198795 -48.3125 
L 415.355814 -48.3125 
L 417.512832 -48.3125 
L 419.66985 -48.3125 
L 421.826869 -48.3125 
L 423.983887 -48.3125 
L 426.140905 -48.3125 
L 428.297924 -48.3125 
L 430.454942 -48.3125 
L 432.61196 -48.3125 
L 434.768978 -48.3125 
L 436.925997 -48.3125 
L 439.083015 -48.3125 
L 441.240033 -48.3125 
L 443.397052 -48.3125 
L 445.55407 -48.3125 
L 447.711088 -48.3125 
L 449.868106 -48.3125 
L 452.025125 -48.3125 
L 454.182143 -48.3125 
L 456.339161 -48.3125 
L 458.49618 -48.3125 
L 460.653198 -48.3125 
L 462.810216 -48.3125 
L 464.967235 -48.3125 
L 467.124253 -48.3125 
L 469.281271 -48.3125 
L 471.438289 -48.3125 
L 473.595308 -48.3125 
L 475.752326 -48.3125 
L 477.909344 -48.3125 
L 480.066363 -48.3125 
L 482.223381 -48.3125 
L 484.380399 -48.3125 
L 486.537417 -48.3125 
L 488.694436 -48.3125 
L 490.851454 -48.3125 
L 493.008472 -48.3125 
L 495.165491 -48.3125 
L 497.322509 -48.3125 
L 499.479527 -48.3125 
L 501.636546 -48.3125 
L 503.793564 -48.3125 
L 505.950582 -48.3125 
L 508.1076 -48.3125 
L 510.264619 -48.3125 
L 512.421637 -48.3125 
L 514.578655 -48.3125 
L 516.735674 -48.3125 
L 518.892692 -48.3125 
L 518.892692 -50.176714 
L 518.892692 -50.176714 
L 516.735674 -50.448151 
L 514.578655 -50.754459 
L 512.421637 -51.099394 
L 510.264619 -51.487016 
L 508.1076 -51.921692 
L 505.950582 -52.408112 
L 503.793564 -52.951289 
L 501.636546 -53.556568 
L 499.479527 -54.229625 
L 497.322509 -54.976463 
L 495.165491 -55.803412 
L 493.008472 -56.717118 
L 490.851454 -57.72453 
L 488.694436 -58.832882 
L 486.537417 -60.049673 
L 484.380399 -61.38264 
L 482.223381 -62.839725 
L 480.066363 -64.429038 
L 477.909344 -66.158812 
L 475.752326 -68.037359 
L 473.595308 -70.073009 
L 471.438289 -72.274057 
L 469.281271 -74.64869 
L 467.124253 -77.204923 
L 464.967235 -79.950517 
L 462.810216 -82.892903 
L 460.653198 -86.039097 
L 458.49618 -89.39561 
L 456.339161 -92.968361 
L 454.182143 -96.762581 
L 452.025125 -100.782724 
L 449.868106 -105.032372 
L 447.711088 -109.514144 
L 445.55407 -114.229608 
L 443.397052 -119.179193 
L 441.240033 -124.362113 
L 439.083015 -129.77629 
L 436.925997 -135.418288 
L 434.768978 -141.283258 
L 432.61196 -147.364889 
L 430.454942 -153.655373 
L 428.297924 -160.145383 
L 426.140905 -166.824065 
L 423.983887 -173.679041 
L 421.826869 -180.696433 
L 419.66985 -187.860901 
L 417.512832 -195.155694 
L 415.355814 -202.562723 
L 413.198795 -210.062652 
L 411.041777 -217.634996 
L 408.884759 -225.258249 
L 406.727741 -232.910016 
L 404.570722 -240.567165 
L 402.413704 -248.205994 
L 400.256686 -255.802405 
L 398.099667 -263.332092 
L 395.942649 -270.770738 
L 393.785631 -278.094214 
L 391.628612 -285.278788 
L 389.471594 -292.301332 
L 387.314576 -299.139528 
L 385.157558 -305.772075 
L 383.000539 -312.178881 
L 380.843521 -318.341259 
L 378.686503 -324.2421 
L 376.529484 -329.86604 
L 374.372466 -335.199607 
L 372.215448 -340.23135 
L 370.05843 -344.951948 
L 367.901411 -349.354299 
L 365.744393 -353.433579 
L 363.587375 -357.187284 
L 361.430356 -360.615237 
L 359.273338 -363.719575 
L 357.11632 -366.50471 
L 354.959301 -368.977253 
L 352.802283 -371.145925 
L 350.645265 -373.021435 
L 348.488247 -374.616335 
L 346.331228 -375.944852 
L 344.17421 -377.022703 
L 342.017192 -377.866888 
L 339.860173 -378.495469 
L 337.703155 -378.927337 
L 335.546137 -379.181966 
L 333.389119 -379.279167 
L 331.2321 -379.238827 
L 329.075082 -379.080663 
L 326.918064 -378.823964 
L 324.761045 -378.487355 
L 322.604027 -378.088556 
L 320.447009 -377.644163 
L 318.28999 -377.169444 
L 316.132972 -376.678151 
L 313.975954 -376.182356 
L 311.818936 -375.692304 
L 309.661917 -375.216301 
L 307.504899 -374.760618 
L 305.347881 -374.329426 
L 303.190862 -373.924767 
L 301.033844 -373.546539 
L 298.876826 -373.192518 
L 296.719807 -372.858411 
L 294.562789 -372.537924 
L 292.405771 -372.22287 
L 290.248753 -371.90329 
L 288.091734 -371.567599 
L 285.934716 -371.202758 
L 283.777698 -370.794456 
L 281.620679 -370.327309 
L 279.463661 -369.785075 
L 277.306643 -369.150875 
L 275.149625 -368.40742 
L 272.992606 -367.537245 
L 270.835588 -366.522938 
L 268.67857 -365.347373 
L 266.521551 -363.993931 
L 264.364533 -362.446721 
L 262.207515 -360.690777 
L 260.050496 -358.712262 
L 257.893478 -356.498634 
L 255.73646 -354.038813 
L 253.579442 -351.323321 
L 251.422423 -348.3444 
L 249.265405 -345.096118 
L 247.108387 -341.574439 
L 244.951368 -337.777286 
L 242.79435 -333.704567 
L 240.637332 -329.358192 
L 238.480314 -324.742053 
L 236.323295 -319.861997 
L 234.166277 -314.725768 
L 232.009259 -309.342936 
L 229.85224 -303.724801 
L 227.695222 -297.88429 
L 225.538204 -291.835828 
L 223.381185 -285.595205 
L 221.224167 -279.17943 
L 219.067149 -272.60657 
L 216.910131 -265.895588 
L 214.753112 -259.066177 
L 212.596094 -252.138586 
L 210.439076 -245.133446 
L 208.282057 -238.071603 
L 206.125039 -230.973947 
L 203.968021 -223.861245 
L 201.811002 -216.753992 
L 199.653984 -209.672253 
L 197.496966 -202.635528 
L 195.339948 -195.662619 
L 193.182929 -188.771514 
L 191.025911 -181.979279 
L 188.868893 -175.301964 
L 186.711874 -168.754524 
L 184.554856 -162.350751 
L 182.397838 -156.103222 
L 180.24082 -150.023258 
L 178.083801 -144.1209 
L 175.926783 -138.404891 
L 173.769765 -132.882679 
L 171.612746 -127.560426 
L 169.455728 -122.443029 
L 167.29871 -117.534154 
L 165.141691 -112.836273 
L 162.984673 -108.350716 
L 160.827655 -104.077725 
L 158.670637 -100.016519 
L 156.513618 -96.165359 
L 154.3566 -92.521622 
L 152.199582 -89.081871 
L 150.042563 -85.841939 
L 147.885545 -82.796999 
L 145.728527 -79.941648 
L 143.571509 -77.269979 
L 141.41449 -74.775662 
L 139.257472 -72.452016 
L 137.100454 -70.292077 
L 134.943435 -68.288671 
L 132.786417 -66.434476 
L 130.629399 -64.722083 
L 128.47238 -63.14405 
L 126.315362 -61.692956 
L 124.158344 -60.361446 
L 122.001326 -59.142275 
L 119.844307 -58.028345 
L 117.687289 -57.012735 
L 115.530271 -56.088732 
L 113.373252 -55.249855 
L 111.216234 -54.48987 
L 109.059216 -53.802814 
L 106.902197 -53.182996 
L 104.745179 -52.625012 
L 102.588161 -52.123751 
L 100.431143 -51.67439 
L 98.274124 -51.272401 
L 96.117106 -50.913542 
L 93.960088 -50.593855 
L 91.803069 -50.309659 
L 89.646051 -50.057542 
z
" style="stroke: #e74c3c"/>
    </defs>
    <g clip-path="url(#pdaf1d9e0de)">
     <use xlink:href="#m5c3a4abea2" x="0" y="420.48" style="fill: #e74c3c; fill-opacity: 0.3; stroke: #e74c3c"/>
    </g>
   </g>
   <g id="patch_3">
    <path d="M 60.520625 372.1675 
L 60.520625 24.6525 
" style="fill: none; stroke: #cccccc; stroke-width: 1.5; stroke-linejoin: miter; stroke-linecap: square"/>
   </g>
   <g id="patch_4">
    <path d="M 60.520625 372.1675 
L 701.28 372.1675 
" style="fill: none; stroke: #cccccc; stroke-width: 1.5; stroke-linejoin: miter; stroke-linecap: square"/>
   </g>
   <g id="text_20">
    <!-- Distribution of Absolute Errors -->
    <g style="fill: #262626" transform="translate(275.080312 18.6525) scale(0.16 -0.16)">
     <defs>
      <path id="ArialMT-62" d="M 941 0 
L 419 0 
L 419 4581 
L 981 4581 
L 981 2947 
Q 1338 3394 1891 3394 
Q 2197 3394 2470 3270 
Q 2744 3147 2920 2923 
Q 3097 2700 3197 2384 
Q 3297 2069 3297 1709 
Q 3297 856 2875 390 
Q 2453 -75 1863 -75 
Q 1275 -75 941 416 
L 941 0 
z
M 934 1684 
Q 934 1088 1097 822 
Q 1363 388 1816 388 
Q 2184 388 2453 708 
Q 2722 1028 2722 1663 
Q 2722 2313 2464 2622 
Q 2206 2931 1841 2931 
Q 1472 2931 1203 2611 
Q 934 2291 934 1684 
z
" transform="scale(0.015625)"/>
      <path id="ArialMT-75" d="M 2597 0 
L 2597 488 
Q 2209 -75 1544 -75 
Q 1250 -75 995 37 
Q 741 150 617 320 
Q 494 491 444 738 
Q 409 903 409 1263 
L 409 3319 
L 972 3319 
L 972 1478 
Q 972 1038 1006 884 
Q 1059 663 1231 536 
Q 1403 409 1656 409 
Q 1909 409 2131 539 
Q 2353 669 2445 892 
Q 2538 1116 2538 1541 
L 2538 3319 
L 3100 3319 
L 3100 0 
L 2597 0 
z
" transform="scale(0.015625)"/>
      <path id="ArialMT-66" d="M 556 0 
L 556 2881 
L 59 2881 
L 59 3319 
L 556 3319 
L 556 3672 
Q 556 4006 616 4169 
Q 697 4388 901 4523 
Q 1106 4659 1475 4659 
Q 1713 4659 2000 4603 
L 1916 4113 
Q 1741 4144 1584 4144 
Q 1328 4144 1222 4034 
Q 1116 3925 1116 3625 
L 1116 3319 
L 1763 3319 
L 1763 2881 
L 1116 2881 
L 1116 0 
L 556 0 
z
" transform="scale(0.015625)"/>
      <path id="ArialMT-41" d="M -9 0 
L 1750 4581 
L 2403 4581 
L 4278 0 
L 3588 0 
L 3053 1388 
L 1138 1388 
L 634 0 
L -9 0 
z
M 1313 1881 
L 2866 1881 
L 2388 3150 
Q 2169 3728 2063 4100 
Q 1975 3659 1816 3225 
L 1313 1881 
z
" transform="scale(0.015625)"/>
      <path id="ArialMT-6c" d="M 409 0 
L 409 4581 
L 972 4581 
L 972 0 
L 409 0 
z
" transform="scale(0.015625)"/>
     </defs>
     <use xlink:href="#ArialMT-44"/>
     <use xlink:href="#ArialMT-69" x="72.216797"/>
     <use xlink:href="#ArialMT-73" x="94.433594"/>
     <use xlink:href="#ArialMT-74" x="144.433594"/>
     <use xlink:href="#ArialMT-72" x="172.216797"/>
     <use xlink:href="#ArialMT-69" x="205.517578"/>
     <use xlink:href="#ArialMT-62" x="227.734375"/>
     <use xlink:href="#ArialMT-75" x="283.349609"/>
     <use xlink:href="#ArialMT-74" x="338.964844"/>
     <use xlink:href="#ArialMT-69" x="366.748047"/>
     <use xlink:href="#ArialMT-6f" x="388.964844"/>
     <use xlink:href="#ArialMT-6e" x="444.580078"/>
     <use xlink:href="#ArialMT-20" x="500.195312"/>
     <use xlink:href="#ArialMT-6f" x="527.978516"/>
     <use xlink:href="#ArialMT-66" x="583.59375"/>
     <use xlink:href="#ArialMT-20" x="611.376953"/>
     <use xlink:href="#ArialMT-41" x="633.660156"/>
     <use xlink:href="#ArialMT-62" x="700.359375"/>
     <use xlink:href="#ArialMT-73" x="755.974609"/>
     <use xlink:href="#ArialMT-6f" x="805.974609"/>
     <use xlink:href="#ArialMT-6c" x="861.589844"/>
     <use xlink:href="#ArialMT-75" x="883.806641"/>
     <use xlink:href="#ArialMT-74" x="939.421875"/>
     <use xlink:href="#ArialMT-65" x="967.205078"/>
     <use xlink:href="#ArialMT-20" x="1022.820312"/>
     <use xlink:href="#ArialMT-45" x="1050.603516"/>
     <use xlink:href="#ArialMT-72" x="1117.302734"/>
     <use xlink:href="#ArialMT-72" x="1150.603516"/>
     <use xlink:href="#ArialMT-6f" x="1183.904297"/>
     <use xlink:href="#ArialMT-72" x="1239.519531"/>
     <use xlink:href="#ArialMT-73" x="1272.820312"/>
    </g>
   </g>
   <g id="legend_1">
    <g id="patch_5">
     <path d="M 497.20125 68.775 
L 692.88 68.775 
Q 695.28 68.775 695.28 66.375 
L 695.28 33.0525 
Q 695.28 30.6525 692.88 30.6525 
L 497.20125 30.6525 
Q 494.80125 30.6525 494.80125 33.0525 
L 494.80125 66.375 
Q 494.80125 68.775 497.20125 68.775 
z
" style="fill: #ffffff; opacity: 0.8; stroke: #cccccc; stroke-linejoin: miter"/>
    </g>
    <g id="patch_6">
     <path d="M 499.60125 44.188125 
L 523.60125 44.188125 
L 523.60125 35.788125 
L 499.60125 35.788125 
z
" style="fill: #2ecc71; fill-opacity: 0.3; stroke: #2ecc71; stroke-linejoin: miter"/>
    </g>
    <g id="text_21">
     <!-- Training (μ=1.97%, σ=1.13%) -->
     <g style="fill: #262626" transform="translate(533.20125 44.188125) scale(0.12 -0.12)">
      <defs>
       <path id="ArialMT-54" d="M 1659 0 
L 1659 4041 
L 150 4041 
L 150 4581 
L 3781 4581 
L 3781 4041 
L 2266 4041 
L 2266 0 
L 1659 0 
z
" transform="scale(0.015625)"/>
       <path id="ArialMT-61" d="M 2588 409 
Q 2275 144 1986 34 
Q 1697 -75 1366 -75 
Q 819 -75 525 192 
Q 231 459 231 875 
Q 231 1119 342 1320 
Q 453 1522 633 1644 
Q 813 1766 1038 1828 
Q 1203 1872 1538 1913 
Q 2219 1994 2541 2106 
Q 2544 2222 2544 2253 
Q 2544 2597 2384 2738 
Q 2169 2928 1744 2928 
Q 1347 2928 1158 2789 
Q 969 2650 878 2297 
L 328 2372 
Q 403 2725 575 2942 
Q 747 3159 1072 3276 
Q 1397 3394 1825 3394 
Q 2250 3394 2515 3294 
Q 2781 3194 2906 3042 
Q 3031 2891 3081 2659 
Q 3109 2516 3109 2141 
L 3109 1391 
Q 3109 606 3145 398 
Q 3181 191 3288 0 
L 2700 0 
Q 2613 175 2588 409 
z
M 2541 1666 
Q 2234 1541 1622 1453 
Q 1275 1403 1131 1340 
Q 988 1278 909 1158 
Q 831 1038 831 891 
Q 831 666 1001 516 
Q 1172 366 1500 366 
Q 1825 366 2078 508 
Q 2331 650 2450 897 
Q 2541 1088 2541 1459 
L 2541 1666 
z
" transform="scale(0.015625)"/>
       <path id="ArialMT-67" d="M 319 -275 
L 866 -356 
Q 900 -609 1056 -725 
Q 1266 -881 1628 -881 
Q 2019 -881 2231 -725 
Q 2444 -569 2519 -288 
Q 2563 -116 2559 434 
Q 2191 0 1641 0 
Q 956 0 581 494 
Q 206 988 206 1678 
Q 206 2153 378 2554 
Q 550 2956 876 3175 
Q 1203 3394 1644 3394 
Q 2231 3394 2613 2919 
L 2613 3319 
L 3131 3319 
L 3131 450 
Q 3131 -325 2973 -648 
Q 2816 -972 2473 -1159 
Q 2131 -1347 1631 -1347 
Q 1038 -1347 672 -1080 
Q 306 -813 319 -275 
z
M 784 1719 
Q 784 1066 1043 766 
Q 1303 466 1694 466 
Q 2081 466 2343 764 
Q 2606 1063 2606 1700 
Q 2606 2309 2336 2618 
Q 2066 2928 1684 2928 
Q 1309 2928 1046 2623 
Q 784 2319 784 1719 
z
" transform="scale(0.015625)"/>
       <path id="ArialMT-3bc" d="M 3181 3319 
L 3181 0 
L 2678 0 
L 2678 394 
Q 2516 144 2356 50 
Q 2138 -78 1847 -78 
Q 1588 -78 1388 25 
Q 1238 103 1056 334 
L 1056 -1272 
L 500 -1272 
L 500 3319 
L 1056 3319 
L 1056 1913 
Q 1056 1147 1137 920 
Q 1219 694 1401 562 
Q 1584 431 1822 431 
Q 2072 431 2269 568 
Q 2466 706 2547 923 
Q 2628 1141 2628 1903 
L 2628 3319 
L 3181 3319 
z
" transform="scale(0.015625)"/>
       <path id="ArialMT-3d" d="M 3381 2694 
L 356 2694 
L 356 3219 
L 3381 3219 
L 3381 2694 
z
M 3381 1303 
L 356 1303 
L 356 1828 
L 3381 1828 
L 3381 1303 
z
" transform="scale(0.015625)"/>
       <path id="ArialMT-39" d="M 350 1059 
L 891 1109 
Q 959 728 1153 556 
Q 1347 384 1650 384 
Q 1909 384 2104 503 
Q 2300 622 2425 820 
Q 2550 1019 2634 1356 
Q 2719 1694 2719 2044 
Q 2719 2081 2716 2156 
Q 2547 1888 2255 1720 
Q 1963 1553 1622 1553 
Q 1053 1553 659 1965 
Q 266 2378 266 3053 
Q 266 3750 677 4175 
Q 1088 4600 1706 4600 
Q 2153 4600 2523 4359 
Q 2894 4119 3086 3673 
Q 3278 3228 3278 2384 
Q 3278 1506 3087 986 
Q 2897 466 2520 194 
Q 2144 -78 1638 -78 
Q 1100 -78 759 220 
Q 419 519 350 1059 
z
M 2653 3081 
Q 2653 3566 2395 3850 
Q 2138 4134 1775 4134 
Q 1400 4134 1122 3828 
Q 844 3522 844 3034 
Q 844 2597 1108 2323 
Q 1372 2050 1759 2050 
Q 2150 2050 2401 2323 
Q 2653 2597 2653 3081 
z
" transform="scale(0.015625)"/>
       <path id="ArialMT-37" d="M 303 3981 
L 303 4522 
L 3269 4522 
L 3269 4084 
Q 2831 3619 2401 2847 
Q 1972 2075 1738 1259 
Q 1569 684 1522 0 
L 944 0 
Q 953 541 1156 1306 
Q 1359 2072 1739 2783 
Q 2119 3494 2547 3981 
L 303 3981 
z
" transform="scale(0.015625)"/>
       <path id="ArialMT-2c" d="M 569 0 
L 569 641 
L 1209 641 
L 1209 0 
Q 1209 -353 1084 -570 
Q 959 -788 688 -906 
L 531 -666 
Q 709 -588 793 -436 
Q 878 -284 888 0 
L 569 0 
z
" transform="scale(0.015625)"/>
       <path id="ArialMT-3c3" d="M 3809 3319 
L 3809 2863 
L 2906 2863 
Q 3322 2475 3322 1656 
Q 3322 766 2867 345 
Q 2413 -75 1763 -75 
Q 1088 -75 650 362 
Q 213 800 213 1659 
Q 213 2544 667 2969 
Q 1122 3394 1763 3394 
Q 1997 3394 2294 3319 
L 3809 3319 
z
M 1753 2928 
Q 1344 2928 1067 2609 
Q 791 2291 791 1656 
Q 791 1025 1061 706 
Q 1331 388 1763 388 
Q 2216 388 2483 720 
Q 2750 1053 2750 1659 
Q 2750 2213 2504 2570 
Q 2259 2928 1753 2928 
z
" transform="scale(0.015625)"/>
      </defs>
      <use xlink:href="#ArialMT-54"/>
      <use xlink:href="#ArialMT-72" x="57.333984"/>
      <use xlink:href="#ArialMT-61" x="90.634766"/>
      <use xlink:href="#ArialMT-69" x="146.25"/>
      <use xlink:href="#ArialMT-6e" x="168.466797"/>
      <use xlink:href="#ArialMT-69" x="224.082031"/>
      <use xlink:href="#ArialMT-6e" x="246.298828"/>
      <use xlink:href="#ArialMT-67" x="301.914062"/>
      <use xlink:href="#ArialMT-20" x="357.529297"/>
      <use xlink:href="#ArialMT-28" x="385.3125"/>
      <use xlink:href="#ArialMT-3bc" x="418.613281"/>
      <use xlink:href="#ArialMT-3d" x="476.230469"/>
      <use xlink:href="#ArialMT-31" x="534.628906"/>
      <use xlink:href="#ArialMT-2e" x="590.244141"/>
      <use xlink:href="#ArialMT-39" x="618.027344"/>
      <use xlink:href="#ArialMT-37" x="673.642578"/>
      <use xlink:href="#ArialMT-25" x="729.257812"/>
      <use xlink:href="#ArialMT-2c" x="818.173828"/>
      <use xlink:href="#ArialMT-20" x="845.957031"/>
      <use xlink:href="#ArialMT-3c3" x="873.740234"/>
      <use xlink:href="#ArialMT-3d" x="935.458984"/>
      <use xlink:href="#ArialMT-31" x="993.857422"/>
      <use xlink:href="#ArialMT-2e" x="1049.472656"/>
      <use xlink:href="#ArialMT-31" x="1077.255859"/>
      <use xlink:href="#ArialMT-33" x="1132.871094"/>
      <use xlink:href="#ArialMT-25" x="1188.486328"/>
      <use xlink:href="#ArialMT-29" x="1277.402344"/>
     </g>
    </g>
    <g id="patch_7">
     <path d="M 499.60125 61.449375 
L 523.60125 61.449375 
L 523.60125 53.049375 
L 499.60125 53.049375 
z
" style="fill: #e74c3c; fill-opacity: 0.3; stroke: #e74c3c; stroke-linejoin: miter"/>
    </g>
    <g id="text_22">
     <!-- Testing (μ=1.08%, σ=0.83%) -->
     <g style="fill: #262626" transform="translate(533.20125 61.449375) scale(0.12 -0.12)">
      <defs>
       <path id="ArialMT-38" d="M 1131 2484 
Q 781 2613 612 2850 
Q 444 3088 444 3419 
Q 444 3919 803 4259 
Q 1163 4600 1759 4600 
Q 2359 4600 2725 4251 
Q 3091 3903 3091 3403 
Q 3091 3084 2923 2848 
Q 2756 2613 2416 2484 
Q 2838 2347 3058 2040 
Q 3278 1734 3278 1309 
Q 3278 722 2862 322 
Q 2447 -78 1769 -78 
Q 1091 -78 675 323 
Q 259 725 259 1325 
Q 259 1772 486 2073 
Q 713 2375 1131 2484 
z
M 1019 3438 
Q 1019 3113 1228 2906 
Q 1438 2700 1772 2700 
Q 2097 2700 2305 2904 
Q 2513 3109 2513 3406 
Q 2513 3716 2298 3927 
Q 2084 4138 1766 4138 
Q 1444 4138 1231 3931 
Q 1019 3725 1019 3438 
z
M 838 1322 
Q 838 1081 952 856 
Q 1066 631 1291 507 
Q 1516 384 1775 384 
Q 2178 384 2440 643 
Q 2703 903 2703 1303 
Q 2703 1709 2433 1975 
Q 2163 2241 1756 2241 
Q 1359 2241 1098 1978 
Q 838 1716 838 1322 
z
" transform="scale(0.015625)"/>
      </defs>
      <use xlink:href="#ArialMT-54"/>
      <use xlink:href="#ArialMT-65" x="49.958984"/>
      <use xlink:href="#ArialMT-73" x="105.574219"/>
      <use xlink:href="#ArialMT-74" x="155.574219"/>
      <use xlink:href="#ArialMT-69" x="183.357422"/>
      <use xlink:href="#ArialMT-6e" x="205.574219"/>
      <use xlink:href="#ArialMT-67" x="261.189453"/>
      <use xlink:href="#ArialMT-20" x="316.804688"/>
      <use xlink:href="#ArialMT-28" x="344.587891"/>
      <use xlink:href="#ArialMT-3bc" x="377.888672"/>
      <use xlink:href="#ArialMT-3d" x="435.505859"/>
      <use xlink:href="#ArialMT-31" x="493.904297"/>
      <use xlink:href="#ArialMT-2e" x="549.519531"/>
      <use xlink:href="#ArialMT-30" x="577.302734"/>
      <use xlink:href="#ArialMT-38" x="632.917969"/>
      <use xlink:href="#ArialMT-25" x="688.533203"/>
      <use xlink:href="#ArialMT-2c" x="777.449219"/>
      <use xlink:href="#ArialMT-20" x="805.232422"/>
      <use xlink:href="#ArialMT-3c3" x="833.015625"/>
      <use xlink:href="#ArialMT-3d" x="894.734375"/>
      <use xlink:href="#ArialMT-30" x="953.132812"/>
      <use xlink:href="#ArialMT-2e" x="1008.748047"/>
      <use xlink:href="#ArialMT-38" x="1036.53125"/>
      <use xlink:href="#ArialMT-33" x="1092.146484"/>
      <use xlink:href="#ArialMT-25" x="1147.761719"/>
      <use xlink:href="#ArialMT-29" x="1236.677734"/>
     </g>
    </g>
   </g>
  </g>
 </g>
 <defs>
  <clipPath id="pdaf1d9e0de">
   <rect x="60.520625" y="24.6525" width="640.759375" height="347.515"/>
  </clipPath>
 </defs>
</svg>
