<?xml version="1.0" encoding="utf-8" standalone="no"?>
<!DOCTYPE svg PUBLIC "-//W3C//DTD SVG 1.1//EN"
  "http://www.w3.org/Graphics/SVG/1.1/DTD/svg11.dtd">
<svg xmlns:xlink="http://www.w3.org/1999/xlink" width="708.48pt" height="420.48pt" viewBox="0 0 708.48 420.48" xmlns="http://www.w3.org/2000/svg" version="1.1">
 <metadata>
  <rdf:RDF xmlns:dc="http://purl.org/dc/elements/1.1/" xmlns:cc="http://creativecommons.org/ns#" xmlns:rdf="http://www.w3.org/1999/02/22-rdf-syntax-ns#">
   <cc:Work>
    <dc:type rdf:resource="http://purl.org/dc/dcmitype/StillImage"/>
    <dc:date>2025-01-07T20:56:29.329208</dc:date>
    <dc:format>image/svg+xml</dc:format>
    <dc:creator>
     <cc:Agent>
      <dc:title>Matplotlib v3.9.3, https://matplotlib.org/</dc:title>
     </cc:Agent>
    </dc:creator>
   </cc:Work>
  </rdf:RDF>
 </metadata>
 <defs>
  <style type="text/css">*{stroke-linejoin: round; stroke-linecap: butt}</style>
 </defs>
 <g id="figure_1">
  <g id="patch_1">
   <path d="M 0 420.48 
L 708.48 420.48 
L 708.48 -0 
L 0 -0 
z
" style="fill: #ffffff"/>
  </g>
  <g id="axes_1">
   <g id="patch_2">
    <path d="M 53.8475 372.1675 
L 701.28 372.1675 
L 701.28 24.6525 
L 53.8475 24.6525 
z
" style="fill: #ffffff"/>
   </g>
   <g id="matplotlib.axis_1">
    <g id="xtick_1">
     <g id="line2d_1">
      <path d="M 82.171008 372.1675 
L 82.171008 24.6525 
" clip-path="url(#pef7d6317e3)" style="fill: none; stroke: #cccccc; stroke-opacity: 0.3; stroke-width: 0.5; stroke-linecap: round"/>
     </g>
     <g id="text_1">
      <!-- −2 -->
      <g style="fill: #262626" transform="translate(75.330071 387.756875) scale(0.12 -0.12)">
       <defs>
        <path id="ArialMT-2212" d="M 3381 1997 
L 356 1997 
L 356 2522 
L 3381 2522 
L 3381 1997 
z
" transform="scale(0.015625)"/>
        <path id="ArialMT-32" d="M 3222 541 
L 3222 0 
L 194 0 
Q 188 203 259 391 
Q 375 700 629 1000 
Q 884 1300 1366 1694 
Q 2113 2306 2375 2664 
Q 2638 3022 2638 3341 
Q 2638 3675 2398 3904 
Q 2159 4134 1775 4134 
Q 1369 4134 1125 3890 
Q 881 3647 878 3216 
L 300 3275 
Q 359 3922 746 4261 
Q 1134 4600 1788 4600 
Q 2447 4600 2831 4234 
Q 3216 3869 3216 3328 
Q 3216 3053 3103 2787 
Q 2991 2522 2730 2228 
Q 2469 1934 1863 1422 
Q 1356 997 1212 845 
Q 1069 694 975 541 
L 3222 541 
z
" transform="scale(0.015625)"/>
       </defs>
       <use xlink:href="#ArialMT-2212"/>
       <use xlink:href="#ArialMT-32" x="58.398438"/>
      </g>
     </g>
    </g>
    <g id="xtick_2">
     <g id="line2d_2">
      <path d="M 210.109906 372.1675 
L 210.109906 24.6525 
" clip-path="url(#pef7d6317e3)" style="fill: none; stroke: #cccccc; stroke-opacity: 0.3; stroke-width: 0.5; stroke-linecap: round"/>
     </g>
     <g id="text_2">
      <!-- 0 -->
      <g style="fill: #262626" transform="translate(206.773344 387.756875) scale(0.12 -0.12)">
       <defs>
        <path id="ArialMT-30" d="M 266 2259 
Q 266 3072 433 3567 
Q 600 4063 929 4331 
Q 1259 4600 1759 4600 
Q 2128 4600 2406 4451 
Q 2684 4303 2865 4023 
Q 3047 3744 3150 3342 
Q 3253 2941 3253 2259 
Q 3253 1453 3087 958 
Q 2922 463 2592 192 
Q 2263 -78 1759 -78 
Q 1097 -78 719 397 
Q 266 969 266 2259 
z
M 844 2259 
Q 844 1131 1108 757 
Q 1372 384 1759 384 
Q 2147 384 2411 759 
Q 2675 1134 2675 2259 
Q 2675 3391 2411 3762 
Q 2147 4134 1753 4134 
Q 1366 4134 1134 3806 
Q 844 3388 844 2259 
z
" transform="scale(0.015625)"/>
       </defs>
       <use xlink:href="#ArialMT-30"/>
      </g>
     </g>
    </g>
    <g id="xtick_3">
     <g id="line2d_3">
      <path d="M 338.048804 372.1675 
L 338.048804 24.6525 
" clip-path="url(#pef7d6317e3)" style="fill: none; stroke: #cccccc; stroke-opacity: 0.3; stroke-width: 0.5; stroke-linecap: round"/>
     </g>
     <g id="text_3">
      <!-- 2 -->
      <g style="fill: #262626" transform="translate(334.712242 387.756875) scale(0.12 -0.12)">
       <use xlink:href="#ArialMT-32"/>
      </g>
     </g>
    </g>
    <g id="xtick_4">
     <g id="line2d_4">
      <path d="M 465.987702 372.1675 
L 465.987702 24.6525 
" clip-path="url(#pef7d6317e3)" style="fill: none; stroke: #cccccc; stroke-opacity: 0.3; stroke-width: 0.5; stroke-linecap: round"/>
     </g>
     <g id="text_4">
      <!-- 4 -->
      <g style="fill: #262626" transform="translate(462.65114 387.756875) scale(0.12 -0.12)">
       <defs>
        <path id="ArialMT-34" d="M 2069 0 
L 2069 1097 
L 81 1097 
L 81 1613 
L 2172 4581 
L 2631 4581 
L 2631 1613 
L 3250 1613 
L 3250 1097 
L 2631 1097 
L 2631 0 
L 2069 0 
z
M 2069 1613 
L 2069 3678 
L 634 1613 
L 2069 1613 
z
" transform="scale(0.015625)"/>
       </defs>
       <use xlink:href="#ArialMT-34"/>
      </g>
     </g>
    </g>
    <g id="xtick_5">
     <g id="line2d_5">
      <path d="M 593.9266 372.1675 
L 593.9266 24.6525 
" clip-path="url(#pef7d6317e3)" style="fill: none; stroke: #cccccc; stroke-opacity: 0.3; stroke-width: 0.5; stroke-linecap: round"/>
     </g>
     <g id="text_5">
      <!-- 6 -->
      <g style="fill: #262626" transform="translate(590.590038 387.756875) scale(0.12 -0.12)">
       <defs>
        <path id="ArialMT-36" d="M 3184 3459 
L 2625 3416 
Q 2550 3747 2413 3897 
Q 2184 4138 1850 4138 
Q 1581 4138 1378 3988 
Q 1113 3794 959 3422 
Q 806 3050 800 2363 
Q 1003 2672 1297 2822 
Q 1591 2972 1913 2972 
Q 2475 2972 2870 2558 
Q 3266 2144 3266 1488 
Q 3266 1056 3080 686 
Q 2894 316 2569 119 
Q 2244 -78 1831 -78 
Q 1128 -78 684 439 
Q 241 956 241 2144 
Q 241 3472 731 4075 
Q 1159 4600 1884 4600 
Q 2425 4600 2770 4297 
Q 3116 3994 3184 3459 
z
M 888 1484 
Q 888 1194 1011 928 
Q 1134 663 1356 523 
Q 1578 384 1822 384 
Q 2178 384 2434 671 
Q 2691 959 2691 1453 
Q 2691 1928 2437 2201 
Q 2184 2475 1800 2475 
Q 1419 2475 1153 2201 
Q 888 1928 888 1484 
z
" transform="scale(0.015625)"/>
       </defs>
       <use xlink:href="#ArialMT-36"/>
      </g>
     </g>
    </g>
    <g id="text_6">
     <!-- Error (%) -->
     <g style="fill: #262626" transform="translate(349.17875 410.333438) scale(0.14 -0.14)">
      <defs>
       <path id="ArialMT-45" d="M 506 0 
L 506 4581 
L 3819 4581 
L 3819 4041 
L 1113 4041 
L 1113 2638 
L 3647 2638 
L 3647 2100 
L 1113 2100 
L 1113 541 
L 3925 541 
L 3925 0 
L 506 0 
z
" transform="scale(0.015625)"/>
       <path id="ArialMT-72" d="M 416 0 
L 416 3319 
L 922 3319 
L 922 2816 
Q 1116 3169 1280 3281 
Q 1444 3394 1641 3394 
Q 1925 3394 2219 3213 
L 2025 2691 
Q 1819 2813 1613 2813 
Q 1428 2813 1281 2702 
Q 1134 2591 1072 2394 
Q 978 2094 978 1738 
L 978 0 
L 416 0 
z
" transform="scale(0.015625)"/>
       <path id="ArialMT-6f" d="M 213 1659 
Q 213 2581 725 3025 
Q 1153 3394 1769 3394 
Q 2453 3394 2887 2945 
Q 3322 2497 3322 1706 
Q 3322 1066 3130 698 
Q 2938 331 2570 128 
Q 2203 -75 1769 -75 
Q 1072 -75 642 372 
Q 213 819 213 1659 
z
M 791 1659 
Q 791 1022 1069 705 
Q 1347 388 1769 388 
Q 2188 388 2466 706 
Q 2744 1025 2744 1678 
Q 2744 2294 2464 2611 
Q 2184 2928 1769 2928 
Q 1347 2928 1069 2612 
Q 791 2297 791 1659 
z
" transform="scale(0.015625)"/>
       <path id="ArialMT-20" transform="scale(0.015625)"/>
       <path id="ArialMT-28" d="M 1497 -1347 
Q 1031 -759 709 28 
Q 388 816 388 1659 
Q 388 2403 628 3084 
Q 909 3875 1497 4659 
L 1900 4659 
Q 1522 4009 1400 3731 
Q 1209 3300 1100 2831 
Q 966 2247 966 1656 
Q 966 153 1900 -1347 
L 1497 -1347 
z
" transform="scale(0.015625)"/>
       <path id="ArialMT-25" d="M 372 3481 
Q 372 3972 619 4315 
Q 866 4659 1334 4659 
Q 1766 4659 2048 4351 
Q 2331 4044 2331 3447 
Q 2331 2866 2045 2552 
Q 1759 2238 1341 2238 
Q 925 2238 648 2547 
Q 372 2856 372 3481 
z
M 1350 4272 
Q 1141 4272 1002 4090 
Q 863 3909 863 3425 
Q 863 2984 1003 2804 
Q 1144 2625 1350 2625 
Q 1563 2625 1702 2806 
Q 1841 2988 1841 3469 
Q 1841 3913 1700 4092 
Q 1559 4272 1350 4272 
z
M 1353 -169 
L 3859 4659 
L 4316 4659 
L 1819 -169 
L 1353 -169 
z
M 3334 1075 
Q 3334 1569 3581 1911 
Q 3828 2253 4300 2253 
Q 4731 2253 5014 1945 
Q 5297 1638 5297 1041 
Q 5297 459 5011 145 
Q 4725 -169 4303 -169 
Q 3888 -169 3611 142 
Q 3334 453 3334 1075 
z
M 4316 1866 
Q 4103 1866 3964 1684 
Q 3825 1503 3825 1019 
Q 3825 581 3965 400 
Q 4106 219 4313 219 
Q 4528 219 4667 400 
Q 4806 581 4806 1063 
Q 4806 1506 4665 1686 
Q 4525 1866 4316 1866 
z
" transform="scale(0.015625)"/>
       <path id="ArialMT-29" d="M 791 -1347 
L 388 -1347 
Q 1322 153 1322 1656 
Q 1322 2244 1188 2822 
Q 1081 3291 891 3722 
Q 769 4003 388 4659 
L 791 4659 
Q 1378 3875 1659 3084 
Q 1900 2403 1900 1659 
Q 1900 816 1576 28 
Q 1253 -759 791 -1347 
z
" transform="scale(0.015625)"/>
      </defs>
      <use xlink:href="#ArialMT-45"/>
      <use xlink:href="#ArialMT-72" x="66.699219"/>
      <use xlink:href="#ArialMT-72" x="100"/>
      <use xlink:href="#ArialMT-6f" x="133.300781"/>
      <use xlink:href="#ArialMT-72" x="188.916016"/>
      <use xlink:href="#ArialMT-20" x="222.216797"/>
      <use xlink:href="#ArialMT-28" x="250"/>
      <use xlink:href="#ArialMT-25" x="283.300781"/>
      <use xlink:href="#ArialMT-29" x="372.216797"/>
     </g>
    </g>
   </g>
   <g id="matplotlib.axis_2">
    <g id="ytick_1">
     <g id="line2d_6">
      <path d="M 53.8475 372.1675 
L 701.28 372.1675 
" clip-path="url(#pef7d6317e3)" style="fill: none; stroke: #cccccc; stroke-opacity: 0.3; stroke-width: 0.5; stroke-linecap: round"/>
     </g>
     <g id="text_7">
      <!-- 0.0 -->
      <g style="fill: #262626" transform="translate(30.1675 376.462188) scale(0.12 -0.12)">
       <defs>
        <path id="ArialMT-2e" d="M 581 0 
L 581 641 
L 1222 641 
L 1222 0 
L 581 0 
z
" transform="scale(0.015625)"/>
       </defs>
       <use xlink:href="#ArialMT-30"/>
       <use xlink:href="#ArialMT-2e" x="55.615234"/>
       <use xlink:href="#ArialMT-30" x="83.398438"/>
      </g>
     </g>
    </g>
    <g id="ytick_2">
     <g id="line2d_7">
      <path d="M 53.8475 307.130466 
L 701.28 307.130466 
" clip-path="url(#pef7d6317e3)" style="fill: none; stroke: #cccccc; stroke-opacity: 0.3; stroke-width: 0.5; stroke-linecap: round"/>
     </g>
     <g id="text_8">
      <!-- 0.5 -->
      <g style="fill: #262626" transform="translate(30.1675 311.425154) scale(0.12 -0.12)">
       <defs>
        <path id="ArialMT-35" d="M 266 1200 
L 856 1250 
Q 922 819 1161 601 
Q 1400 384 1738 384 
Q 2144 384 2425 690 
Q 2706 997 2706 1503 
Q 2706 1984 2436 2262 
Q 2166 2541 1728 2541 
Q 1456 2541 1237 2417 
Q 1019 2294 894 2097 
L 366 2166 
L 809 4519 
L 3088 4519 
L 3088 3981 
L 1259 3981 
L 1013 2750 
Q 1425 3038 1878 3038 
Q 2478 3038 2890 2622 
Q 3303 2206 3303 1553 
Q 3303 931 2941 478 
Q 2500 -78 1738 -78 
Q 1113 -78 717 272 
Q 322 622 266 1200 
z
" transform="scale(0.015625)"/>
       </defs>
       <use xlink:href="#ArialMT-30"/>
       <use xlink:href="#ArialMT-2e" x="55.615234"/>
       <use xlink:href="#ArialMT-35" x="83.398438"/>
      </g>
     </g>
    </g>
    <g id="ytick_3">
     <g id="line2d_8">
      <path d="M 53.8475 242.093432 
L 701.28 242.093432 
" clip-path="url(#pef7d6317e3)" style="fill: none; stroke: #cccccc; stroke-opacity: 0.3; stroke-width: 0.5; stroke-linecap: round"/>
     </g>
     <g id="text_9">
      <!-- 1.0 -->
      <g style="fill: #262626" transform="translate(30.1675 246.38812) scale(0.12 -0.12)">
       <defs>
        <path id="ArialMT-31" d="M 2384 0 
L 1822 0 
L 1822 3584 
Q 1619 3391 1289 3197 
Q 959 3003 697 2906 
L 697 3450 
Q 1169 3672 1522 3987 
Q 1875 4303 2022 4600 
L 2384 4600 
L 2384 0 
z
" transform="scale(0.015625)"/>
       </defs>
       <use xlink:href="#ArialMT-31"/>
       <use xlink:href="#ArialMT-2e" x="55.615234"/>
       <use xlink:href="#ArialMT-30" x="83.398438"/>
      </g>
     </g>
    </g>
    <g id="ytick_4">
     <g id="line2d_9">
      <path d="M 53.8475 177.056398 
L 701.28 177.056398 
" clip-path="url(#pef7d6317e3)" style="fill: none; stroke: #cccccc; stroke-opacity: 0.3; stroke-width: 0.5; stroke-linecap: round"/>
     </g>
     <g id="text_10">
      <!-- 1.5 -->
      <g style="fill: #262626" transform="translate(30.1675 181.351086) scale(0.12 -0.12)">
       <use xlink:href="#ArialMT-31"/>
       <use xlink:href="#ArialMT-2e" x="55.615234"/>
       <use xlink:href="#ArialMT-35" x="83.398438"/>
      </g>
     </g>
    </g>
    <g id="ytick_5">
     <g id="line2d_10">
      <path d="M 53.8475 112.019365 
L 701.28 112.019365 
" clip-path="url(#pef7d6317e3)" style="fill: none; stroke: #cccccc; stroke-opacity: 0.3; stroke-width: 0.5; stroke-linecap: round"/>
     </g>
     <g id="text_11">
      <!-- 2.0 -->
      <g style="fill: #262626" transform="translate(30.1675 116.314052) scale(0.12 -0.12)">
       <use xlink:href="#ArialMT-32"/>
       <use xlink:href="#ArialMT-2e" x="55.615234"/>
       <use xlink:href="#ArialMT-30" x="83.398438"/>
      </g>
     </g>
    </g>
    <g id="ytick_6">
     <g id="line2d_11">
      <path d="M 53.8475 46.982331 
L 701.28 46.982331 
" clip-path="url(#pef7d6317e3)" style="fill: none; stroke: #cccccc; stroke-opacity: 0.3; stroke-width: 0.5; stroke-linecap: round"/>
     </g>
     <g id="text_12">
      <!-- 2.5 -->
      <g style="fill: #262626" transform="translate(30.1675 51.277018) scale(0.12 -0.12)">
       <use xlink:href="#ArialMT-32"/>
       <use xlink:href="#ArialMT-2e" x="55.615234"/>
       <use xlink:href="#ArialMT-35" x="83.398438"/>
      </g>
     </g>
    </g>
    <g id="text_13">
     <!-- Density -->
     <g style="fill: #262626" transform="translate(17.220938 221.750625) rotate(-90) scale(0.14 -0.14)">
      <defs>
       <path id="ArialMT-44" d="M 494 0 
L 494 4581 
L 2072 4581 
Q 2606 4581 2888 4516 
Q 3281 4425 3559 4188 
Q 3922 3881 4101 3404 
Q 4281 2928 4281 2316 
Q 4281 1794 4159 1391 
Q 4038 988 3847 723 
Q 3656 459 3429 307 
Q 3203 156 2883 78 
Q 2563 0 2147 0 
L 494 0 
z
M 1100 541 
L 2078 541 
Q 2531 541 2789 625 
Q 3047 709 3200 863 
Q 3416 1078 3536 1442 
Q 3656 1806 3656 2325 
Q 3656 3044 3420 3430 
Q 3184 3816 2847 3947 
Q 2603 4041 2063 4041 
L 1100 4041 
L 1100 541 
z
" transform="scale(0.015625)"/>
       <path id="ArialMT-65" d="M 2694 1069 
L 3275 997 
Q 3138 488 2766 206 
Q 2394 -75 1816 -75 
Q 1088 -75 661 373 
Q 234 822 234 1631 
Q 234 2469 665 2931 
Q 1097 3394 1784 3394 
Q 2450 3394 2872 2941 
Q 3294 2488 3294 1666 
Q 3294 1616 3291 1516 
L 816 1516 
Q 847 969 1125 678 
Q 1403 388 1819 388 
Q 2128 388 2347 550 
Q 2566 713 2694 1069 
z
M 847 1978 
L 2700 1978 
Q 2663 2397 2488 2606 
Q 2219 2931 1791 2931 
Q 1403 2931 1139 2672 
Q 875 2413 847 1978 
z
" transform="scale(0.015625)"/>
       <path id="ArialMT-6e" d="M 422 0 
L 422 3319 
L 928 3319 
L 928 2847 
Q 1294 3394 1984 3394 
Q 2284 3394 2536 3286 
Q 2788 3178 2913 3003 
Q 3038 2828 3088 2588 
Q 3119 2431 3119 2041 
L 3119 0 
L 2556 0 
L 2556 2019 
Q 2556 2363 2490 2533 
Q 2425 2703 2258 2804 
Q 2091 2906 1866 2906 
Q 1506 2906 1245 2678 
Q 984 2450 984 1813 
L 984 0 
L 422 0 
z
" transform="scale(0.015625)"/>
       <path id="ArialMT-73" d="M 197 991 
L 753 1078 
Q 800 744 1014 566 
Q 1228 388 1613 388 
Q 2000 388 2187 545 
Q 2375 703 2375 916 
Q 2375 1106 2209 1216 
Q 2094 1291 1634 1406 
Q 1016 1563 777 1677 
Q 538 1791 414 1992 
Q 291 2194 291 2438 
Q 291 2659 392 2848 
Q 494 3038 669 3163 
Q 800 3259 1026 3326 
Q 1253 3394 1513 3394 
Q 1903 3394 2198 3281 
Q 2494 3169 2634 2976 
Q 2775 2784 2828 2463 
L 2278 2388 
Q 2241 2644 2061 2787 
Q 1881 2931 1553 2931 
Q 1166 2931 1000 2803 
Q 834 2675 834 2503 
Q 834 2394 903 2306 
Q 972 2216 1119 2156 
Q 1203 2125 1616 2013 
Q 2213 1853 2448 1751 
Q 2684 1650 2818 1456 
Q 2953 1263 2953 975 
Q 2953 694 2789 445 
Q 2625 197 2315 61 
Q 2006 -75 1616 -75 
Q 969 -75 630 194 
Q 291 463 197 991 
z
" transform="scale(0.015625)"/>
       <path id="ArialMT-69" d="M 425 3934 
L 425 4581 
L 988 4581 
L 988 3934 
L 425 3934 
z
M 425 0 
L 425 3319 
L 988 3319 
L 988 0 
L 425 0 
z
" transform="scale(0.015625)"/>
       <path id="ArialMT-74" d="M 1650 503 
L 1731 6 
Q 1494 -44 1306 -44 
Q 1000 -44 831 53 
Q 663 150 594 308 
Q 525 466 525 972 
L 525 2881 
L 113 2881 
L 113 3319 
L 525 3319 
L 525 4141 
L 1084 4478 
L 1084 3319 
L 1650 3319 
L 1650 2881 
L 1084 2881 
L 1084 941 
Q 1084 700 1114 631 
Q 1144 563 1211 522 
Q 1278 481 1403 481 
Q 1497 481 1650 503 
z
" transform="scale(0.015625)"/>
       <path id="ArialMT-79" d="M 397 -1278 
L 334 -750 
Q 519 -800 656 -800 
Q 844 -800 956 -737 
Q 1069 -675 1141 -563 
Q 1194 -478 1313 -144 
Q 1328 -97 1363 -6 
L 103 3319 
L 709 3319 
L 1400 1397 
Q 1534 1031 1641 628 
Q 1738 1016 1872 1384 
L 2581 3319 
L 3144 3319 
L 1881 -56 
Q 1678 -603 1566 -809 
Q 1416 -1088 1222 -1217 
Q 1028 -1347 759 -1347 
Q 597 -1347 397 -1278 
z
" transform="scale(0.015625)"/>
      </defs>
      <use xlink:href="#ArialMT-44"/>
      <use xlink:href="#ArialMT-65" x="72.216797"/>
      <use xlink:href="#ArialMT-6e" x="127.832031"/>
      <use xlink:href="#ArialMT-73" x="183.447266"/>
      <use xlink:href="#ArialMT-69" x="233.447266"/>
      <use xlink:href="#ArialMT-74" x="255.664062"/>
      <use xlink:href="#ArialMT-79" x="283.447266"/>
     </g>
    </g>
   </g>
   <g id="PolyCollection_1">
    <defs>
     <path id="m591d2994cf" d="M 83.27625 -48.41909 
L 83.27625 -48.3125 
L 86.233913 -48.3125 
L 89.191577 -48.3125 
L 92.14924 -48.3125 
L 95.106903 -48.3125 
L 98.064567 -48.3125 
L 101.02223 -48.3125 
L 103.979893 -48.3125 
L 106.937557 -48.3125 
L 109.89522 -48.3125 
L 112.852883 -48.3125 
L 115.810546 -48.3125 
L 118.76821 -48.3125 
L 121.725873 -48.3125 
L 124.683536 -48.3125 
L 127.6412 -48.3125 
L 130.598863 -48.3125 
L 133.556526 -48.3125 
L 136.51419 -48.3125 
L 139.471853 -48.3125 
L 142.429516 -48.3125 
L 145.38718 -48.3125 
L 148.344843 -48.3125 
L 151.302506 -48.3125 
L 154.26017 -48.3125 
L 157.217833 -48.3125 
L 160.175496 -48.3125 
L 163.13316 -48.3125 
L 166.090823 -48.3125 
L 169.048486 -48.3125 
L 172.006149 -48.3125 
L 174.963813 -48.3125 
L 177.921476 -48.3125 
L 180.879139 -48.3125 
L 183.836803 -48.3125 
L 186.794466 -48.3125 
L 189.752129 -48.3125 
L 192.709793 -48.3125 
L 195.667456 -48.3125 
L 198.625119 -48.3125 
L 201.582783 -48.3125 
L 204.540446 -48.3125 
L 207.498109 -48.3125 
L 210.455773 -48.3125 
L 213.413436 -48.3125 
L 216.371099 -48.3125 
L 219.328763 -48.3125 
L 222.286426 -48.3125 
L 225.244089 -48.3125 
L 228.201753 -48.3125 
L 231.159416 -48.3125 
L 234.117079 -48.3125 
L 237.074742 -48.3125 
L 240.032406 -48.3125 
L 242.990069 -48.3125 
L 245.947732 -48.3125 
L 248.905396 -48.3125 
L 251.863059 -48.3125 
L 254.820722 -48.3125 
L 257.778386 -48.3125 
L 260.736049 -48.3125 
L 263.693712 -48.3125 
L 266.651376 -48.3125 
L 269.609039 -48.3125 
L 272.566702 -48.3125 
L 275.524366 -48.3125 
L 278.482029 -48.3125 
L 281.439692 -48.3125 
L 284.397356 -48.3125 
L 287.355019 -48.3125 
L 290.312682 -48.3125 
L 293.270345 -48.3125 
L 296.228009 -48.3125 
L 299.185672 -48.3125 
L 302.143335 -48.3125 
L 305.100999 -48.3125 
L 308.058662 -48.3125 
L 311.016325 -48.3125 
L 313.973989 -48.3125 
L 316.931652 -48.3125 
L 319.889315 -48.3125 
L 322.846979 -48.3125 
L 325.804642 -48.3125 
L 328.762305 -48.3125 
L 331.719969 -48.3125 
L 334.677632 -48.3125 
L 337.635295 -48.3125 
L 340.592959 -48.3125 
L 343.550622 -48.3125 
L 346.508285 -48.3125 
L 349.465948 -48.3125 
L 352.423612 -48.3125 
L 355.381275 -48.3125 
L 358.338938 -48.3125 
L 361.296602 -48.3125 
L 364.254265 -48.3125 
L 367.211928 -48.3125 
L 370.169592 -48.3125 
L 373.127255 -48.3125 
L 376.084918 -48.3125 
L 379.042582 -48.3125 
L 382.000245 -48.3125 
L 384.957908 -48.3125 
L 387.915572 -48.3125 
L 390.873235 -48.3125 
L 393.830898 -48.3125 
L 396.788562 -48.3125 
L 399.746225 -48.3125 
L 402.703888 -48.3125 
L 405.661552 -48.3125 
L 408.619215 -48.3125 
L 411.576878 -48.3125 
L 414.534541 -48.3125 
L 417.492205 -48.3125 
L 420.449868 -48.3125 
L 423.407531 -48.3125 
L 426.365195 -48.3125 
L 429.322858 -48.3125 
L 432.280521 -48.3125 
L 435.238185 -48.3125 
L 438.195848 -48.3125 
L 441.153511 -48.3125 
L 444.111175 -48.3125 
L 447.068838 -48.3125 
L 450.026501 -48.3125 
L 452.984165 -48.3125 
L 455.941828 -48.3125 
L 458.899491 -48.3125 
L 461.857155 -48.3125 
L 464.814818 -48.3125 
L 467.772481 -48.3125 
L 470.730144 -48.3125 
L 473.687808 -48.3125 
L 476.645471 -48.3125 
L 479.603134 -48.3125 
L 482.560798 -48.3125 
L 485.518461 -48.3125 
L 488.476124 -48.3125 
L 491.433788 -48.3125 
L 494.391451 -48.3125 
L 497.349114 -48.3125 
L 500.306778 -48.3125 
L 503.264441 -48.3125 
L 506.222104 -48.3125 
L 509.179768 -48.3125 
L 512.137431 -48.3125 
L 515.095094 -48.3125 
L 518.052758 -48.3125 
L 521.010421 -48.3125 
L 523.968084 -48.3125 
L 526.925747 -48.3125 
L 529.883411 -48.3125 
L 532.841074 -48.3125 
L 535.798737 -48.3125 
L 538.756401 -48.3125 
L 541.714064 -48.3125 
L 544.671727 -48.3125 
L 547.629391 -48.3125 
L 550.587054 -48.3125 
L 553.544717 -48.3125 
L 556.502381 -48.3125 
L 559.460044 -48.3125 
L 562.417707 -48.3125 
L 565.375371 -48.3125 
L 568.333034 -48.3125 
L 571.290697 -48.3125 
L 574.248361 -48.3125 
L 577.206024 -48.3125 
L 580.163687 -48.3125 
L 583.121351 -48.3125 
L 586.079014 -48.3125 
L 589.036677 -48.3125 
L 591.99434 -48.3125 
L 594.952004 -48.3125 
L 597.909667 -48.3125 
L 600.86733 -48.3125 
L 603.824994 -48.3125 
L 606.782657 -48.3125 
L 609.74032 -48.3125 
L 612.697984 -48.3125 
L 615.655647 -48.3125 
L 618.61331 -48.3125 
L 621.570974 -48.3125 
L 624.528637 -48.3125 
L 627.4863 -48.3125 
L 630.443964 -48.3125 
L 633.401627 -48.3125 
L 636.35929 -48.3125 
L 639.316954 -48.3125 
L 642.274617 -48.3125 
L 645.23228 -48.3125 
L 648.189943 -48.3125 
L 651.147607 -48.3125 
L 654.10527 -48.3125 
L 657.062933 -48.3125 
L 660.020597 -48.3125 
L 662.97826 -48.3125 
L 665.935923 -48.3125 
L 668.893587 -48.3125 
L 671.85125 -48.3125 
L 671.85125 -48.337807 
L 671.85125 -48.337807 
L 668.893587 -48.343469 
L 665.935923 -48.35025 
L 662.97826 -48.358335 
L 660.020597 -48.367935 
L 657.062933 -48.379286 
L 654.10527 -48.392654 
L 651.147607 -48.408331 
L 648.189943 -48.426642 
L 645.23228 -48.447943 
L 642.274617 -48.472622 
L 639.316954 -48.501102 
L 636.35929 -48.533839 
L 633.401627 -48.571322 
L 630.443964 -48.614074 
L 627.4863 -48.662649 
L 624.528637 -48.717632 
L 621.570974 -48.779634 
L 618.61331 -48.849296 
L 615.655647 -48.927276 
L 612.697984 -49.014254 
L 609.74032 -49.110924 
L 606.782657 -49.217987 
L 603.824994 -49.336152 
L 600.86733 -49.466122 
L 597.909667 -49.608596 
L 594.952004 -49.764255 
L 591.99434 -49.933759 
L 589.036677 -50.117741 
L 586.079014 -50.316793 
L 583.121351 -50.531464 
L 580.163687 -50.762249 
L 577.206024 -51.009581 
L 574.248361 -51.273821 
L 571.290697 -51.555252 
L 568.333034 -51.854067 
L 565.375371 -52.170366 
L 562.417707 -52.50414 
L 559.460044 -52.855271 
L 556.502381 -53.223521 
L 553.544717 -53.608528 
L 550.587054 -54.0098 
L 547.629391 -54.426712 
L 544.671727 -54.858501 
L 541.714064 -55.304273 
L 538.756401 -55.762996 
L 535.798737 -56.233512 
L 532.841074 -56.714537 
L 529.883411 -57.204673 
L 526.925747 -57.702418 
L 523.968084 -58.206179 
L 521.010421 -58.71429 
L 518.052758 -59.225027 
L 515.095094 -59.73663 
L 512.137431 -60.247325 
L 509.179768 -60.755342 
L 506.222104 -61.258946 
L 503.264441 -61.756452 
L 500.306778 -62.246255 
L 497.349114 -62.726849 
L 494.391451 -63.196848 
L 491.433788 -63.655009 
L 488.476124 -64.100243 
L 485.518461 -64.531635 
L 482.560798 -64.948453 
L 479.603134 -65.350156 
L 476.645471 -65.736402 
L 473.687808 -66.107045 
L 470.730144 -66.462141 
L 467.772481 -66.801936 
L 464.814818 -67.126865 
L 461.857155 -67.437537 
L 458.899491 -67.734729 
L 455.941828 -68.019365 
L 452.984165 -68.292504 
L 450.026501 -68.555322 
L 447.068838 -68.80909 
L 444.111175 -69.055158 
L 441.153511 -69.294932 
L 438.195848 -69.529851 
L 435.238185 -69.761368 
L 432.280521 -69.990921 
L 429.322858 -70.219917 
L 426.365195 -70.449701 
L 423.407531 -70.68154 
L 420.449868 -70.916589 
L 417.492205 -71.155878 
L 414.534541 -71.400282 
L 411.576878 -71.650503 
L 408.619215 -71.907048 
L 405.661552 -72.170214 
L 402.703888 -72.440071 
L 399.746225 -72.71645 
L 396.788562 -72.998941 
L 393.830898 -73.286884 
L 390.873235 -73.579376 
L 387.915572 -73.875277 
L 384.957908 -74.173226 
L 382.000245 -74.471662 
L 379.042582 -74.768844 
L 376.084918 -75.062888 
L 373.127255 -75.351802 
L 370.169592 -75.633523 
L 367.211928 -75.905962 
L 364.254265 -76.167046 
L 361.296602 -76.414768 
L 358.338938 -76.647224 
L 355.381275 -76.862662 
L 352.423612 -77.059516 
L 349.465948 -77.236439 
L 346.508285 -77.392334 
L 343.550622 -77.526368 
L 340.592959 -77.637992 
L 337.635295 -77.726939 
L 334.677632 -77.793221 
L 331.719969 -77.837119 
L 328.762305 -77.85916 
L 325.804642 -77.860091 
L 322.846979 -77.840845 
L 319.889315 -77.802501 
L 316.931652 -77.746242 
L 313.973989 -77.673309 
L 311.016325 -77.584958 
L 308.058662 -77.482409 
L 305.100999 -77.366806 
L 302.143335 -77.239176 
L 299.185672 -77.100391 
L 296.228009 -76.951137 
L 293.270345 -76.791889 
L 290.312682 -76.622894 
L 287.355019 -76.444156 
L 284.397356 -76.255437 
L 281.439692 -76.056252 
L 278.482029 -75.845888 
L 275.524366 -75.623414 
L 272.566702 -75.387704 
L 269.609039 -75.137472 
L 266.651376 -74.871295 
L 263.693712 -74.587658 
L 260.736049 -74.284993 
L 257.778386 -73.961721 
L 254.820722 -73.616296 
L 251.863059 -73.24725 
L 248.905396 -72.853243 
L 245.947732 -72.433099 
L 242.990069 -71.98585 
L 240.032406 -71.510777 
L 237.074742 -71.007441 
L 234.117079 -70.475712 
L 231.159416 -69.915793 
L 228.201753 -69.328239 
L 225.244089 -68.713962 
L 222.286426 -68.074242 
L 219.328763 -67.410715 
L 216.371099 -66.725365 
L 213.413436 -66.020503 
L 210.455773 -65.29874 
L 207.498109 -64.562957 
L 204.540446 -63.816259 
L 201.582783 -63.061938 
L 198.625119 -62.30342 
L 195.667456 -61.544213 
L 192.709793 -60.787858 
L 189.752129 -60.037871 
L 186.794466 -59.297693 
L 183.836803 -58.570638 
L 180.879139 -57.859848 
L 177.921476 -57.168246 
L 174.963813 -56.498505 
L 172.006149 -55.853007 
L 169.048486 -55.233828 
L 166.090823 -54.642713 
L 163.13316 -54.081069 
L 160.175496 -53.549959 
L 157.217833 -53.050104 
L 154.26017 -52.581895 
L 151.302506 -52.145407 
L 148.344843 -51.740415 
L 145.38718 -51.366425 
L 142.429516 -51.022695 
L 139.471853 -50.708266 
L 136.51419 -50.421998 
L 133.556526 -50.162594 
L 130.598863 -49.92864 
L 127.6412 -49.718628 
L 124.683536 -49.530993 
L 121.725873 -49.364136 
L 118.76821 -49.216449 
L 115.810546 -49.086342 
L 112.852883 -48.972255 
L 109.89522 -48.872682 
L 106.937557 -48.786182 
L 103.979893 -48.711386 
L 101.02223 -48.647011 
L 98.064567 -48.591861 
L 95.106903 -48.544834 
L 92.14924 -48.504917 
L 89.191577 -48.471193 
L 86.233913 -48.442832 
L 83.27625 -48.41909 
z
" style="stroke: #2ecc71"/>
    </defs>
    <g clip-path="url(#pef7d6317e3)">
     <use xlink:href="#m591d2994cf" x="0" y="420.48" style="fill: #2ecc71; fill-opacity: 0.3; stroke: #2ecc71"/>
    </g>
   </g>
   <g id="PolyCollection_2">
    <defs>
     <path id="m13d8e4c439" d="M 212.486132 -49.580528 
L 212.486132 -48.3125 
L 212.814019 -48.3125 
L 213.141907 -48.3125 
L 213.469794 -48.3125 
L 213.797681 -48.3125 
L 214.125568 -48.3125 
L 214.453455 -48.3125 
L 214.781342 -48.3125 
L 215.109229 -48.3125 
L 215.437116 -48.3125 
L 215.765003 -48.3125 
L 216.09289 -48.3125 
L 216.420777 -48.3125 
L 216.748664 -48.3125 
L 217.076551 -48.3125 
L 217.404438 -48.3125 
L 217.732325 -48.3125 
L 218.060212 -48.3125 
L 218.388099 -48.3125 
L 218.715986 -48.3125 
L 219.043873 -48.3125 
L 219.37176 -48.3125 
L 219.699647 -48.3125 
L 220.027534 -48.3125 
L 220.355421 -48.3125 
L 220.683308 -48.3125 
L 221.011195 -48.3125 
L 221.339082 -48.3125 
L 221.666969 -48.3125 
L 221.994856 -48.3125 
L 222.322743 -48.3125 
L 222.65063 -48.3125 
L 222.978517 -48.3125 
L 223.306404 -48.3125 
L 223.634291 -48.3125 
L 223.962178 -48.3125 
L 224.290065 -48.3125 
L 224.617952 -48.3125 
L 224.945839 -48.3125 
L 225.273726 -48.3125 
L 225.601613 -48.3125 
L 225.9295 -48.3125 
L 226.257387 -48.3125 
L 226.585274 -48.3125 
L 226.913161 -48.3125 
L 227.241048 -48.3125 
L 227.568935 -48.3125 
L 227.896822 -48.3125 
L 228.224709 -48.3125 
L 228.552596 -48.3125 
L 228.880483 -48.3125 
L 229.20837 -48.3125 
L 229.536257 -48.3125 
L 229.864144 -48.3125 
L 230.192031 -48.3125 
L 230.519918 -48.3125 
L 230.847805 -48.3125 
L 231.175692 -48.3125 
L 231.503579 -48.3125 
L 231.831466 -48.3125 
L 232.159353 -48.3125 
L 232.48724 -48.3125 
L 232.815127 -48.3125 
L 233.143015 -48.3125 
L 233.470902 -48.3125 
L 233.798789 -48.3125 
L 234.126676 -48.3125 
L 234.454563 -48.3125 
L 234.78245 -48.3125 
L 235.110337 -48.3125 
L 235.438224 -48.3125 
L 235.766111 -48.3125 
L 236.093998 -48.3125 
L 236.421885 -48.3125 
L 236.749772 -48.3125 
L 237.077659 -48.3125 
L 237.405546 -48.3125 
L 237.733433 -48.3125 
L 238.06132 -48.3125 
L 238.389207 -48.3125 
L 238.717094 -48.3125 
L 239.044981 -48.3125 
L 239.372868 -48.3125 
L 239.700755 -48.3125 
L 240.028642 -48.3125 
L 240.356529 -48.3125 
L 240.684416 -48.3125 
L 241.012303 -48.3125 
L 241.34019 -48.3125 
L 241.668077 -48.3125 
L 241.995964 -48.3125 
L 242.323851 -48.3125 
L 242.651738 -48.3125 
L 242.979625 -48.3125 
L 243.307512 -48.3125 
L 243.635399 -48.3125 
L 243.963286 -48.3125 
L 244.291173 -48.3125 
L 244.61906 -48.3125 
L 244.946947 -48.3125 
L 245.274834 -48.3125 
L 245.602721 -48.3125 
L 245.930608 -48.3125 
L 246.258495 -48.3125 
L 246.586382 -48.3125 
L 246.914269 -48.3125 
L 247.242156 -48.3125 
L 247.570043 -48.3125 
L 247.89793 -48.3125 
L 248.225817 -48.3125 
L 248.553704 -48.3125 
L 248.881591 -48.3125 
L 249.209478 -48.3125 
L 249.537365 -48.3125 
L 249.865252 -48.3125 
L 250.193139 -48.3125 
L 250.521026 -48.3125 
L 250.848913 -48.3125 
L 251.1768 -48.3125 
L 251.504687 -48.3125 
L 251.832574 -48.3125 
L 252.160461 -48.3125 
L 252.488348 -48.3125 
L 252.816235 -48.3125 
L 253.144122 -48.3125 
L 253.47201 -48.3125 
L 253.799897 -48.3125 
L 254.127784 -48.3125 
L 254.455671 -48.3125 
L 254.783558 -48.3125 
L 255.111445 -48.3125 
L 255.439332 -48.3125 
L 255.767219 -48.3125 
L 256.095106 -48.3125 
L 256.422993 -48.3125 
L 256.75088 -48.3125 
L 257.078767 -48.3125 
L 257.406654 -48.3125 
L 257.734541 -48.3125 
L 258.062428 -48.3125 
L 258.390315 -48.3125 
L 258.718202 -48.3125 
L 259.046089 -48.3125 
L 259.373976 -48.3125 
L 259.701863 -48.3125 
L 260.02975 -48.3125 
L 260.357637 -48.3125 
L 260.685524 -48.3125 
L 261.013411 -48.3125 
L 261.341298 -48.3125 
L 261.669185 -48.3125 
L 261.997072 -48.3125 
L 262.324959 -48.3125 
L 262.652846 -48.3125 
L 262.980733 -48.3125 
L 263.30862 -48.3125 
L 263.636507 -48.3125 
L 263.964394 -48.3125 
L 264.292281 -48.3125 
L 264.620168 -48.3125 
L 264.948055 -48.3125 
L 265.275942 -48.3125 
L 265.603829 -48.3125 
L 265.931716 -48.3125 
L 266.259603 -48.3125 
L 266.58749 -48.3125 
L 266.915377 -48.3125 
L 267.243264 -48.3125 
L 267.571151 -48.3125 
L 267.899038 -48.3125 
L 268.226925 -48.3125 
L 268.554812 -48.3125 
L 268.882699 -48.3125 
L 269.210586 -48.3125 
L 269.538473 -48.3125 
L 269.86636 -48.3125 
L 270.194247 -48.3125 
L 270.522134 -48.3125 
L 270.850021 -48.3125 
L 271.177908 -48.3125 
L 271.505795 -48.3125 
L 271.833682 -48.3125 
L 272.161569 -48.3125 
L 272.489456 -48.3125 
L 272.817343 -48.3125 
L 273.14523 -48.3125 
L 273.473118 -48.3125 
L 273.801005 -48.3125 
L 274.128892 -48.3125 
L 274.456779 -48.3125 
L 274.784666 -48.3125 
L 275.112553 -48.3125 
L 275.44044 -48.3125 
L 275.768327 -48.3125 
L 276.096214 -48.3125 
L 276.424101 -48.3125 
L 276.751988 -48.3125 
L 277.079875 -48.3125 
L 277.407762 -48.3125 
L 277.735649 -48.3125 
L 277.735649 -49.954269 
L 277.735649 -49.954269 
L 277.407762 -50.200886 
L 277.079875 -50.480389 
L 276.751988 -50.7965 
L 276.424101 -51.153265 
L 276.096214 -51.555066 
L 275.768327 -52.00664 
L 275.44044 -52.513082 
L 275.112553 -53.079862 
L 274.784666 -53.712827 
L 274.456779 -54.41821 
L 274.128892 -55.20263 
L 273.801005 -56.073085 
L 273.473118 -57.036955 
L 273.14523 -58.101981 
L 272.817343 -59.27626 
L 272.489456 -60.568214 
L 272.161569 -61.986571 
L 271.833682 -63.540329 
L 271.505795 -65.238718 
L 271.177908 -67.091156 
L 270.850021 -69.107194 
L 270.522134 -71.296457 
L 270.194247 -73.668583 
L 269.86636 -76.233143 
L 269.538473 -78.999566 
L 269.210586 -81.977049 
L 268.882699 -85.174467 
L 268.554812 -88.600275 
L 268.226925 -92.262399 
L 267.899038 -96.168134 
L 267.571151 -100.324029 
L 267.243264 -104.735771 
L 266.915377 -109.408071 
L 266.58749 -114.344547 
L 266.259603 -119.547605 
L 265.931716 -125.01833 
L 265.603829 -130.75637 
L 265.275942 -136.759835 
L 264.948055 -143.0252 
L 264.620168 -149.547208 
L 264.292281 -156.3188 
L 263.964394 -163.331039 
L 263.636507 -170.57306 
L 263.30862 -178.032028 
L 262.980733 -185.693112 
L 262.652846 -193.539486 
L 262.324959 -201.55233 
L 261.997072 -209.710874 
L 261.669185 -217.992441 
L 261.341298 -226.372523 
L 261.013411 -234.824879 
L 260.685524 -243.321647 
L 260.357637 -251.833481 
L 260.02975 -260.329711 
L 259.701863 -268.778521 
L 259.373976 -277.147142 
L 259.046089 -285.402071 
L 258.718202 -293.509297 
L 258.390315 -301.434547 
L 258.062428 -309.143543 
L 257.734541 -316.602262 
L 257.406654 -323.777215 
L 257.078767 -330.635718 
L 256.75088 -337.146168 
L 256.422993 -343.278322 
L 256.095106 -349.003566 
L 255.767219 -354.295173 
L 255.439332 -359.128555 
L 255.111445 -363.4815 
L 254.783558 -367.334388 
L 254.455671 -370.670387 
L 254.127784 -373.475633 
L 253.799897 -375.739371 
L 253.47201 -377.454086 
L 253.144122 -378.615587 
L 252.816235 -379.223075 
L 252.488348 -379.279167 
L 252.160461 -378.789896 
L 251.832574 -377.764675 
L 251.504687 -376.216226 
L 251.1768 -374.160477 
L 250.848913 -371.616432 
L 250.521026 -368.606004 
L 250.193139 -365.153821 
L 249.865252 -361.287012 
L 249.537365 -357.034954 
L 249.209478 -352.429016 
L 248.881591 -347.502266 
L 248.553704 -342.289175 
L 248.225817 -336.825304 
L 247.89793 -331.146979 
L 247.570043 -325.29097 
L 247.242156 -319.294158 
L 246.914269 -313.193211 
L 246.586382 -307.024263 
L 246.258495 -300.8226 
L 245.930608 -294.622367 
L 245.602721 -288.456282 
L 245.274834 -282.355369 
L 244.946947 -276.348721 
L 244.61906 -270.463278 
L 244.291173 -264.723636 
L 243.963286 -259.151882 
L 243.635399 -253.767458 
L 243.307512 -248.587059 
L 242.979625 -243.624555 
L 242.651738 -238.890954 
L 242.323851 -234.394386 
L 241.995964 -230.140128 
L 241.668077 -226.130647 
L 241.34019 -222.365687 
L 241.012303 -218.842366 
L 240.684416 -215.555318 
L 240.356529 -212.496837 
L 240.028642 -209.657061 
L 239.700755 -207.024162 
L 239.372868 -204.584561 
L 239.044981 -202.323146 
L 238.717094 -200.22351 
L 238.389207 -198.26819 
L 238.06132 -196.438908 
L 237.733433 -194.716824 
L 237.405546 -193.082775 
L 237.077659 -191.517511 
L 236.749772 -190.001933 
L 236.421885 -188.517311 
L 236.093998 -187.04549 
L 235.766111 -185.569091 
L 235.438224 -184.071681 
L 235.110337 -182.537942 
L 234.78245 -180.953803 
L 234.454563 -179.306564 
L 234.126676 -177.584996 
L 233.798789 -175.779418 
L 233.470902 -173.881748 
L 233.143015 -171.885545 
L 232.815127 -169.786013 
L 232.48724 -167.58 
L 232.159353 -165.265968 
L 231.831466 -162.843946 
L 231.503579 -160.31547 
L 231.175692 -157.683502 
L 230.847805 -154.952339 
L 230.519918 -152.12751 
L 230.192031 -149.21566 
L 229.864144 -146.224426 
L 229.536257 -143.162315 
L 229.20837 -140.038562 
L 228.880483 -136.863002 
L 228.552596 -133.645931 
L 228.224709 -130.397973 
L 227.896822 -127.129948 
L 227.568935 -123.852746 
L 227.241048 -120.577204 
L 226.913161 -117.313997 
L 226.585274 -114.073527 
L 226.257387 -110.865832 
L 225.9295 -107.700496 
L 225.601613 -104.586575 
L 225.273726 -101.53253 
L 224.945839 -98.546174 
L 224.617952 -95.634627 
L 224.290065 -92.804285 
L 223.962178 -90.060795 
L 223.634291 -87.409044 
L 223.306404 -84.853157 
L 222.978517 -82.3965 
L 222.65063 -80.041695 
L 222.322743 -77.790644 
L 221.994856 -75.644552 
L 221.666969 -73.603963 
L 221.339082 -71.668798 
L 221.011195 -69.838399 
L 220.683308 -68.11157 
L 220.355421 -66.486626 
L 220.027534 -64.961446 
L 219.699647 -63.533516 
L 219.37176 -62.199984 
L 219.043873 -60.957707 
L 218.715986 -59.803297 
L 218.388099 -58.733173 
L 218.060212 -57.743599 
L 217.732325 -56.830731 
L 217.404438 -55.990652 
L 217.076551 -55.219411 
L 216.748664 -54.513055 
L 216.420777 -53.86766 
L 216.09289 -53.279358 
L 215.765003 -52.744356 
L 215.437116 -52.258966 
L 215.109229 -51.819611 
L 214.781342 -51.422848 
L 214.453455 -51.065376 
L 214.125568 -50.744046 
L 213.797681 -50.455865 
L 213.469794 -50.198005 
L 213.141907 -49.967801 
L 212.814019 -49.762754 
L 212.486132 -49.580528 
z
" style="stroke: #e74c3c"/>
    </defs>
    <g clip-path="url(#pef7d6317e3)">
     <use xlink:href="#m13d8e4c439" x="0" y="420.48" style="fill: #e74c3c; fill-opacity: 0.3; stroke: #e74c3c"/>
    </g>
   </g>
   <g id="patch_3">
    <path d="M 53.8475 372.1675 
L 53.8475 24.6525 
" style="fill: none; stroke: #cccccc; stroke-width: 1.5; stroke-linejoin: miter; stroke-linecap: square"/>
   </g>
   <g id="patch_4">
    <path d="M 53.8475 372.1675 
L 701.28 372.1675 
" style="fill: none; stroke: #cccccc; stroke-width: 1.5; stroke-linejoin: miter; stroke-linecap: square"/>
   </g>
   <g id="text_14">
    <!-- Distribution of Absolute Errors -->
    <g style="fill: #262626" transform="translate(271.74375 18.6525) scale(0.16 -0.16)">
     <defs>
      <path id="ArialMT-62" d="M 941 0 
L 419 0 
L 419 4581 
L 981 4581 
L 981 2947 
Q 1338 3394 1891 3394 
Q 2197 3394 2470 3270 
Q 2744 3147 2920 2923 
Q 3097 2700 3197 2384 
Q 3297 2069 3297 1709 
Q 3297 856 2875 390 
Q 2453 -75 1863 -75 
Q 1275 -75 941 416 
L 941 0 
z
M 934 1684 
Q 934 1088 1097 822 
Q 1363 388 1816 388 
Q 2184 388 2453 708 
Q 2722 1028 2722 1663 
Q 2722 2313 2464 2622 
Q 2206 2931 1841 2931 
Q 1472 2931 1203 2611 
Q 934 2291 934 1684 
z
" transform="scale(0.015625)"/>
      <path id="ArialMT-75" d="M 2597 0 
L 2597 488 
Q 2209 -75 1544 -75 
Q 1250 -75 995 37 
Q 741 150 617 320 
Q 494 491 444 738 
Q 409 903 409 1263 
L 409 3319 
L 972 3319 
L 972 1478 
Q 972 1038 1006 884 
Q 1059 663 1231 536 
Q 1403 409 1656 409 
Q 1909 409 2131 539 
Q 2353 669 2445 892 
Q 2538 1116 2538 1541 
L 2538 3319 
L 3100 3319 
L 3100 0 
L 2597 0 
z
" transform="scale(0.015625)"/>
      <path id="ArialMT-66" d="M 556 0 
L 556 2881 
L 59 2881 
L 59 3319 
L 556 3319 
L 556 3672 
Q 556 4006 616 4169 
Q 697 4388 901 4523 
Q 1106 4659 1475 4659 
Q 1713 4659 2000 4603 
L 1916 4113 
Q 1741 4144 1584 4144 
Q 1328 4144 1222 4034 
Q 1116 3925 1116 3625 
L 1116 3319 
L 1763 3319 
L 1763 2881 
L 1116 2881 
L 1116 0 
L 556 0 
z
" transform="scale(0.015625)"/>
      <path id="ArialMT-41" d="M -9 0 
L 1750 4581 
L 2403 4581 
L 4278 0 
L 3588 0 
L 3053 1388 
L 1138 1388 
L 634 0 
L -9 0 
z
M 1313 1881 
L 2866 1881 
L 2388 3150 
Q 2169 3728 2063 4100 
Q 1975 3659 1816 3225 
L 1313 1881 
z
" transform="scale(0.015625)"/>
      <path id="ArialMT-6c" d="M 409 0 
L 409 4581 
L 972 4581 
L 972 0 
L 409 0 
z
" transform="scale(0.015625)"/>
     </defs>
     <use xlink:href="#ArialMT-44"/>
     <use xlink:href="#ArialMT-69" x="72.216797"/>
     <use xlink:href="#ArialMT-73" x="94.433594"/>
     <use xlink:href="#ArialMT-74" x="144.433594"/>
     <use xlink:href="#ArialMT-72" x="172.216797"/>
     <use xlink:href="#ArialMT-69" x="205.517578"/>
     <use xlink:href="#ArialMT-62" x="227.734375"/>
     <use xlink:href="#ArialMT-75" x="283.349609"/>
     <use xlink:href="#ArialMT-74" x="338.964844"/>
     <use xlink:href="#ArialMT-69" x="366.748047"/>
     <use xlink:href="#ArialMT-6f" x="388.964844"/>
     <use xlink:href="#ArialMT-6e" x="444.580078"/>
     <use xlink:href="#ArialMT-20" x="500.195312"/>
     <use xlink:href="#ArialMT-6f" x="527.978516"/>
     <use xlink:href="#ArialMT-66" x="583.59375"/>
     <use xlink:href="#ArialMT-20" x="611.376953"/>
     <use xlink:href="#ArialMT-41" x="633.660156"/>
     <use xlink:href="#ArialMT-62" x="700.359375"/>
     <use xlink:href="#ArialMT-73" x="755.974609"/>
     <use xlink:href="#ArialMT-6f" x="805.974609"/>
     <use xlink:href="#ArialMT-6c" x="861.589844"/>
     <use xlink:href="#ArialMT-75" x="883.806641"/>
     <use xlink:href="#ArialMT-74" x="939.421875"/>
     <use xlink:href="#ArialMT-65" x="967.205078"/>
     <use xlink:href="#ArialMT-20" x="1022.820312"/>
     <use xlink:href="#ArialMT-45" x="1050.603516"/>
     <use xlink:href="#ArialMT-72" x="1117.302734"/>
     <use xlink:href="#ArialMT-72" x="1150.603516"/>
     <use xlink:href="#ArialMT-6f" x="1183.904297"/>
     <use xlink:href="#ArialMT-72" x="1239.519531"/>
     <use xlink:href="#ArialMT-73" x="1272.820312"/>
    </g>
   </g>
   <g id="legend_1">
    <g id="patch_5">
     <path d="M 497.20125 68.775 
L 692.88 68.775 
Q 695.28 68.775 695.28 66.375 
L 695.28 33.0525 
Q 695.28 30.6525 692.88 30.6525 
L 497.20125 30.6525 
Q 494.80125 30.6525 494.80125 33.0525 
L 494.80125 66.375 
Q 494.80125 68.775 497.20125 68.775 
z
" style="fill: #ffffff; opacity: 0.8; stroke: #cccccc; stroke-linejoin: miter"/>
    </g>
    <g id="patch_6">
     <path d="M 499.60125 44.188125 
L 523.60125 44.188125 
L 523.60125 35.788125 
L 499.60125 35.788125 
z
" style="fill: #2ecc71; fill-opacity: 0.3; stroke: #2ecc71; stroke-linejoin: miter"/>
    </g>
    <g id="text_15">
     <!-- Training (μ=2.18%, σ=1.44%) -->
     <g style="fill: #262626" transform="translate(533.20125 44.188125) scale(0.12 -0.12)">
      <defs>
       <path id="ArialMT-54" d="M 1659 0 
L 1659 4041 
L 150 4041 
L 150 4581 
L 3781 4581 
L 3781 4041 
L 2266 4041 
L 2266 0 
L 1659 0 
z
" transform="scale(0.015625)"/>
       <path id="ArialMT-61" d="M 2588 409 
Q 2275 144 1986 34 
Q 1697 -75 1366 -75 
Q 819 -75 525 192 
Q 231 459 231 875 
Q 231 1119 342 1320 
Q 453 1522 633 1644 
Q 813 1766 1038 1828 
Q 1203 1872 1538 1913 
Q 2219 1994 2541 2106 
Q 2544 2222 2544 2253 
Q 2544 2597 2384 2738 
Q 2169 2928 1744 2928 
Q 1347 2928 1158 2789 
Q 969 2650 878 2297 
L 328 2372 
Q 403 2725 575 2942 
Q 747 3159 1072 3276 
Q 1397 3394 1825 3394 
Q 2250 3394 2515 3294 
Q 2781 3194 2906 3042 
Q 3031 2891 3081 2659 
Q 3109 2516 3109 2141 
L 3109 1391 
Q 3109 606 3145 398 
Q 3181 191 3288 0 
L 2700 0 
Q 2613 175 2588 409 
z
M 2541 1666 
Q 2234 1541 1622 1453 
Q 1275 1403 1131 1340 
Q 988 1278 909 1158 
Q 831 1038 831 891 
Q 831 666 1001 516 
Q 1172 366 1500 366 
Q 1825 366 2078 508 
Q 2331 650 2450 897 
Q 2541 1088 2541 1459 
L 2541 1666 
z
" transform="scale(0.015625)"/>
       <path id="ArialMT-67" d="M 319 -275 
L 866 -356 
Q 900 -609 1056 -725 
Q 1266 -881 1628 -881 
Q 2019 -881 2231 -725 
Q 2444 -569 2519 -288 
Q 2563 -116 2559 434 
Q 2191 0 1641 0 
Q 956 0 581 494 
Q 206 988 206 1678 
Q 206 2153 378 2554 
Q 550 2956 876 3175 
Q 1203 3394 1644 3394 
Q 2231 3394 2613 2919 
L 2613 3319 
L 3131 3319 
L 3131 450 
Q 3131 -325 2973 -648 
Q 2816 -972 2473 -1159 
Q 2131 -1347 1631 -1347 
Q 1038 -1347 672 -1080 
Q 306 -813 319 -275 
z
M 784 1719 
Q 784 1066 1043 766 
Q 1303 466 1694 466 
Q 2081 466 2343 764 
Q 2606 1063 2606 1700 
Q 2606 2309 2336 2618 
Q 2066 2928 1684 2928 
Q 1309 2928 1046 2623 
Q 784 2319 784 1719 
z
" transform="scale(0.015625)"/>
       <path id="ArialMT-3bc" d="M 3181 3319 
L 3181 0 
L 2678 0 
L 2678 394 
Q 2516 144 2356 50 
Q 2138 -78 1847 -78 
Q 1588 -78 1388 25 
Q 1238 103 1056 334 
L 1056 -1272 
L 500 -1272 
L 500 3319 
L 1056 3319 
L 1056 1913 
Q 1056 1147 1137 920 
Q 1219 694 1401 562 
Q 1584 431 1822 431 
Q 2072 431 2269 568 
Q 2466 706 2547 923 
Q 2628 1141 2628 1903 
L 2628 3319 
L 3181 3319 
z
" transform="scale(0.015625)"/>
       <path id="ArialMT-3d" d="M 3381 2694 
L 356 2694 
L 356 3219 
L 3381 3219 
L 3381 2694 
z
M 3381 1303 
L 356 1303 
L 356 1828 
L 3381 1828 
L 3381 1303 
z
" transform="scale(0.015625)"/>
       <path id="ArialMT-38" d="M 1131 2484 
Q 781 2613 612 2850 
Q 444 3088 444 3419 
Q 444 3919 803 4259 
Q 1163 4600 1759 4600 
Q 2359 4600 2725 4251 
Q 3091 3903 3091 3403 
Q 3091 3084 2923 2848 
Q 2756 2613 2416 2484 
Q 2838 2347 3058 2040 
Q 3278 1734 3278 1309 
Q 3278 722 2862 322 
Q 2447 -78 1769 -78 
Q 1091 -78 675 323 
Q 259 725 259 1325 
Q 259 1772 486 2073 
Q 713 2375 1131 2484 
z
M 1019 3438 
Q 1019 3113 1228 2906 
Q 1438 2700 1772 2700 
Q 2097 2700 2305 2904 
Q 2513 3109 2513 3406 
Q 2513 3716 2298 3927 
Q 2084 4138 1766 4138 
Q 1444 4138 1231 3931 
Q 1019 3725 1019 3438 
z
M 838 1322 
Q 838 1081 952 856 
Q 1066 631 1291 507 
Q 1516 384 1775 384 
Q 2178 384 2440 643 
Q 2703 903 2703 1303 
Q 2703 1709 2433 1975 
Q 2163 2241 1756 2241 
Q 1359 2241 1098 1978 
Q 838 1716 838 1322 
z
" transform="scale(0.015625)"/>
       <path id="ArialMT-2c" d="M 569 0 
L 569 641 
L 1209 641 
L 1209 0 
Q 1209 -353 1084 -570 
Q 959 -788 688 -906 
L 531 -666 
Q 709 -588 793 -436 
Q 878 -284 888 0 
L 569 0 
z
" transform="scale(0.015625)"/>
       <path id="ArialMT-3c3" d="M 3809 3319 
L 3809 2863 
L 2906 2863 
Q 3322 2475 3322 1656 
Q 3322 766 2867 345 
Q 2413 -75 1763 -75 
Q 1088 -75 650 362 
Q 213 800 213 1659 
Q 213 2544 667 2969 
Q 1122 3394 1763 3394 
Q 1997 3394 2294 3319 
L 3809 3319 
z
M 1753 2928 
Q 1344 2928 1067 2609 
Q 791 2291 791 1656 
Q 791 1025 1061 706 
Q 1331 388 1763 388 
Q 2216 388 2483 720 
Q 2750 1053 2750 1659 
Q 2750 2213 2504 2570 
Q 2259 2928 1753 2928 
z
" transform="scale(0.015625)"/>
      </defs>
      <use xlink:href="#ArialMT-54"/>
      <use xlink:href="#ArialMT-72" x="57.333984"/>
      <use xlink:href="#ArialMT-61" x="90.634766"/>
      <use xlink:href="#ArialMT-69" x="146.25"/>
      <use xlink:href="#ArialMT-6e" x="168.466797"/>
      <use xlink:href="#ArialMT-69" x="224.082031"/>
      <use xlink:href="#ArialMT-6e" x="246.298828"/>
      <use xlink:href="#ArialMT-67" x="301.914062"/>
      <use xlink:href="#ArialMT-20" x="357.529297"/>
      <use xlink:href="#ArialMT-28" x="385.3125"/>
      <use xlink:href="#ArialMT-3bc" x="418.613281"/>
      <use xlink:href="#ArialMT-3d" x="476.230469"/>
      <use xlink:href="#ArialMT-32" x="534.628906"/>
      <use xlink:href="#ArialMT-2e" x="590.244141"/>
      <use xlink:href="#ArialMT-31" x="618.027344"/>
      <use xlink:href="#ArialMT-38" x="673.642578"/>
      <use xlink:href="#ArialMT-25" x="729.257812"/>
      <use xlink:href="#ArialMT-2c" x="818.173828"/>
      <use xlink:href="#ArialMT-20" x="845.957031"/>
      <use xlink:href="#ArialMT-3c3" x="873.740234"/>
      <use xlink:href="#ArialMT-3d" x="935.458984"/>
      <use xlink:href="#ArialMT-31" x="993.857422"/>
      <use xlink:href="#ArialMT-2e" x="1049.472656"/>
      <use xlink:href="#ArialMT-34" x="1077.255859"/>
      <use xlink:href="#ArialMT-34" x="1132.871094"/>
      <use xlink:href="#ArialMT-25" x="1188.486328"/>
      <use xlink:href="#ArialMT-29" x="1277.402344"/>
     </g>
    </g>
    <g id="patch_7">
     <path d="M 499.60125 61.449375 
L 523.60125 61.449375 
L 523.60125 53.049375 
L 499.60125 53.049375 
z
" style="fill: #e74c3c; fill-opacity: 0.3; stroke: #e74c3c; stroke-linejoin: miter"/>
    </g>
    <g id="text_16">
     <!-- Testing (μ=0.60%, σ=0.15%) -->
     <g style="fill: #262626" transform="translate(533.20125 61.449375) scale(0.12 -0.12)">
      <use xlink:href="#ArialMT-54"/>
      <use xlink:href="#ArialMT-65" x="49.958984"/>
      <use xlink:href="#ArialMT-73" x="105.574219"/>
      <use xlink:href="#ArialMT-74" x="155.574219"/>
      <use xlink:href="#ArialMT-69" x="183.357422"/>
      <use xlink:href="#ArialMT-6e" x="205.574219"/>
      <use xlink:href="#ArialMT-67" x="261.189453"/>
      <use xlink:href="#ArialMT-20" x="316.804688"/>
      <use xlink:href="#ArialMT-28" x="344.587891"/>
      <use xlink:href="#ArialMT-3bc" x="377.888672"/>
      <use xlink:href="#ArialMT-3d" x="435.505859"/>
      <use xlink:href="#ArialMT-30" x="493.904297"/>
      <use xlink:href="#ArialMT-2e" x="549.519531"/>
      <use xlink:href="#ArialMT-36" x="577.302734"/>
      <use xlink:href="#ArialMT-30" x="632.917969"/>
      <use xlink:href="#ArialMT-25" x="688.533203"/>
      <use xlink:href="#ArialMT-2c" x="777.449219"/>
      <use xlink:href="#ArialMT-20" x="805.232422"/>
      <use xlink:href="#ArialMT-3c3" x="833.015625"/>
      <use xlink:href="#ArialMT-3d" x="894.734375"/>
      <use xlink:href="#ArialMT-30" x="953.132812"/>
      <use xlink:href="#ArialMT-2e" x="1008.748047"/>
      <use xlink:href="#ArialMT-31" x="1036.53125"/>
      <use xlink:href="#ArialMT-35" x="1092.146484"/>
      <use xlink:href="#ArialMT-25" x="1147.761719"/>
      <use xlink:href="#ArialMT-29" x="1236.677734"/>
     </g>
    </g>
   </g>
  </g>
 </g>
 <defs>
  <clipPath id="pef7d6317e3">
   <rect x="53.8475" y="24.6525" width="647.4325" height="347.515"/>
  </clipPath>
 </defs>
</svg>
