<?xml version="1.0" encoding="utf-8" standalone="no"?>
<!DOCTYPE svg PUBLIC "-//W3C//DTD SVG 1.1//EN"
  "http://www.w3.org/Graphics/SVG/1.1/DTD/svg11.dtd">
<svg xmlns:xlink="http://www.w3.org/1999/xlink" width="708.48pt" height="420.48pt" viewBox="0 0 708.48 420.48" xmlns="http://www.w3.org/2000/svg" version="1.1">
 <metadata>
  <rdf:RDF xmlns:dc="http://purl.org/dc/elements/1.1/" xmlns:cc="http://creativecommons.org/ns#" xmlns:rdf="http://www.w3.org/1999/02/22-rdf-syntax-ns#">
   <cc:Work>
    <dc:type rdf:resource="http://purl.org/dc/dcmitype/StillImage"/>
    <dc:date>2025-01-10T12:14:26.350817</dc:date>
    <dc:format>image/svg+xml</dc:format>
    <dc:creator>
     <cc:Agent>
      <dc:title>Matplotlib v3.9.3, https://matplotlib.org/</dc:title>
     </cc:Agent>
    </dc:creator>
   </cc:Work>
  </rdf:RDF>
 </metadata>
 <defs>
  <style type="text/css">*{stroke-linejoin: round; stroke-linecap: butt}</style>
 </defs>
 <g id="figure_1">
  <g id="patch_1">
   <path d="M 0 420.48 
L 708.48 420.48 
L 708.48 -0 
L 0 -0 
z
" style="fill: #ffffff"/>
  </g>
  <g id="axes_1">
   <g id="patch_2">
    <path d="M 53.8475 372.1675 
L 701.28 372.1675 
L 701.28 24.6525 
L 53.8475 24.6525 
z
" style="fill: #ffffff"/>
   </g>
   <g id="matplotlib.axis_1">
    <g id="xtick_1">
     <g id="line2d_1">
      <path d="M 90.680196 372.1675 
L 90.680196 24.6525 
" clip-path="url(#p2401168c97)" style="fill: none; stroke: #cccccc; stroke-opacity: 0.3; stroke-width: 0.5; stroke-linecap: round"/>
     </g>
     <g id="text_1">
      <!-- −2 -->
      <g style="fill: #262626" transform="translate(83.839258 387.756875) scale(0.12 -0.12)">
       <defs>
        <path id="ArialMT-2212" d="M 3381 1997 
L 356 1997 
L 356 2522 
L 3381 2522 
L 3381 1997 
z
" transform="scale(0.015625)"/>
        <path id="ArialMT-32" d="M 3222 541 
L 3222 0 
L 194 0 
Q 188 203 259 391 
Q 375 700 629 1000 
Q 884 1300 1366 1694 
Q 2113 2306 2375 2664 
Q 2638 3022 2638 3341 
Q 2638 3675 2398 3904 
Q 2159 4134 1775 4134 
Q 1369 4134 1125 3890 
Q 881 3647 878 3216 
L 300 3275 
Q 359 3922 746 4261 
Q 1134 4600 1788 4600 
Q 2447 4600 2831 4234 
Q 3216 3869 3216 3328 
Q 3216 3053 3103 2787 
Q 2991 2522 2730 2228 
Q 2469 1934 1863 1422 
Q 1356 997 1212 845 
Q 1069 694 975 541 
L 3222 541 
z
" transform="scale(0.015625)"/>
       </defs>
       <use xlink:href="#ArialMT-2212"/>
       <use xlink:href="#ArialMT-32" x="58.398438"/>
      </g>
     </g>
    </g>
    <g id="xtick_2">
     <g id="line2d_2">
      <path d="M 216.451459 372.1675 
L 216.451459 24.6525 
" clip-path="url(#p2401168c97)" style="fill: none; stroke: #cccccc; stroke-opacity: 0.3; stroke-width: 0.5; stroke-linecap: round"/>
     </g>
     <g id="text_2">
      <!-- 0 -->
      <g style="fill: #262626" transform="translate(213.114897 387.756875) scale(0.12 -0.12)">
       <defs>
        <path id="ArialMT-30" d="M 266 2259 
Q 266 3072 433 3567 
Q 600 4063 929 4331 
Q 1259 4600 1759 4600 
Q 2128 4600 2406 4451 
Q 2684 4303 2865 4023 
Q 3047 3744 3150 3342 
Q 3253 2941 3253 2259 
Q 3253 1453 3087 958 
Q 2922 463 2592 192 
Q 2263 -78 1759 -78 
Q 1097 -78 719 397 
Q 266 969 266 2259 
z
M 844 2259 
Q 844 1131 1108 757 
Q 1372 384 1759 384 
Q 2147 384 2411 759 
Q 2675 1134 2675 2259 
Q 2675 3391 2411 3762 
Q 2147 4134 1753 4134 
Q 1366 4134 1134 3806 
Q 844 3388 844 2259 
z
" transform="scale(0.015625)"/>
       </defs>
       <use xlink:href="#ArialMT-30"/>
      </g>
     </g>
    </g>
    <g id="xtick_3">
     <g id="line2d_3">
      <path d="M 342.222722 372.1675 
L 342.222722 24.6525 
" clip-path="url(#p2401168c97)" style="fill: none; stroke: #cccccc; stroke-opacity: 0.3; stroke-width: 0.5; stroke-linecap: round"/>
     </g>
     <g id="text_3">
      <!-- 2 -->
      <g style="fill: #262626" transform="translate(338.88616 387.756875) scale(0.12 -0.12)">
       <use xlink:href="#ArialMT-32"/>
      </g>
     </g>
    </g>
    <g id="xtick_4">
     <g id="line2d_4">
      <path d="M 467.993986 372.1675 
L 467.993986 24.6525 
" clip-path="url(#p2401168c97)" style="fill: none; stroke: #cccccc; stroke-opacity: 0.3; stroke-width: 0.5; stroke-linecap: round"/>
     </g>
     <g id="text_4">
      <!-- 4 -->
      <g style="fill: #262626" transform="translate(464.657423 387.756875) scale(0.12 -0.12)">
       <defs>
        <path id="ArialMT-34" d="M 2069 0 
L 2069 1097 
L 81 1097 
L 81 1613 
L 2172 4581 
L 2631 4581 
L 2631 1613 
L 3250 1613 
L 3250 1097 
L 2631 1097 
L 2631 0 
L 2069 0 
z
M 2069 1613 
L 2069 3678 
L 634 1613 
L 2069 1613 
z
" transform="scale(0.015625)"/>
       </defs>
       <use xlink:href="#ArialMT-34"/>
      </g>
     </g>
    </g>
    <g id="xtick_5">
     <g id="line2d_5">
      <path d="M 593.765249 372.1675 
L 593.765249 24.6525 
" clip-path="url(#p2401168c97)" style="fill: none; stroke: #cccccc; stroke-opacity: 0.3; stroke-width: 0.5; stroke-linecap: round"/>
     </g>
     <g id="text_5">
      <!-- 6 -->
      <g style="fill: #262626" transform="translate(590.428687 387.756875) scale(0.12 -0.12)">
       <defs>
        <path id="ArialMT-36" d="M 3184 3459 
L 2625 3416 
Q 2550 3747 2413 3897 
Q 2184 4138 1850 4138 
Q 1581 4138 1378 3988 
Q 1113 3794 959 3422 
Q 806 3050 800 2363 
Q 1003 2672 1297 2822 
Q 1591 2972 1913 2972 
Q 2475 2972 2870 2558 
Q 3266 2144 3266 1488 
Q 3266 1056 3080 686 
Q 2894 316 2569 119 
Q 2244 -78 1831 -78 
Q 1128 -78 684 439 
Q 241 956 241 2144 
Q 241 3472 731 4075 
Q 1159 4600 1884 4600 
Q 2425 4600 2770 4297 
Q 3116 3994 3184 3459 
z
M 888 1484 
Q 888 1194 1011 928 
Q 1134 663 1356 523 
Q 1578 384 1822 384 
Q 2178 384 2434 671 
Q 2691 959 2691 1453 
Q 2691 1928 2437 2201 
Q 2184 2475 1800 2475 
Q 1419 2475 1153 2201 
Q 888 1928 888 1484 
z
" transform="scale(0.015625)"/>
       </defs>
       <use xlink:href="#ArialMT-36"/>
      </g>
     </g>
    </g>
    <g id="text_6">
     <!-- Error (%) -->
     <g style="fill: #262626" transform="translate(349.17875 410.333438) scale(0.14 -0.14)">
      <defs>
       <path id="ArialMT-45" d="M 506 0 
L 506 4581 
L 3819 4581 
L 3819 4041 
L 1113 4041 
L 1113 2638 
L 3647 2638 
L 3647 2100 
L 1113 2100 
L 1113 541 
L 3925 541 
L 3925 0 
L 506 0 
z
" transform="scale(0.015625)"/>
       <path id="ArialMT-72" d="M 416 0 
L 416 3319 
L 922 3319 
L 922 2816 
Q 1116 3169 1280 3281 
Q 1444 3394 1641 3394 
Q 1925 3394 2219 3213 
L 2025 2691 
Q 1819 2813 1613 2813 
Q 1428 2813 1281 2702 
Q 1134 2591 1072 2394 
Q 978 2094 978 1738 
L 978 0 
L 416 0 
z
" transform="scale(0.015625)"/>
       <path id="ArialMT-6f" d="M 213 1659 
Q 213 2581 725 3025 
Q 1153 3394 1769 3394 
Q 2453 3394 2887 2945 
Q 3322 2497 3322 1706 
Q 3322 1066 3130 698 
Q 2938 331 2570 128 
Q 2203 -75 1769 -75 
Q 1072 -75 642 372 
Q 213 819 213 1659 
z
M 791 1659 
Q 791 1022 1069 705 
Q 1347 388 1769 388 
Q 2188 388 2466 706 
Q 2744 1025 2744 1678 
Q 2744 2294 2464 2611 
Q 2184 2928 1769 2928 
Q 1347 2928 1069 2612 
Q 791 2297 791 1659 
z
" transform="scale(0.015625)"/>
       <path id="ArialMT-20" transform="scale(0.015625)"/>
       <path id="ArialMT-28" d="M 1497 -1347 
Q 1031 -759 709 28 
Q 388 816 388 1659 
Q 388 2403 628 3084 
Q 909 3875 1497 4659 
L 1900 4659 
Q 1522 4009 1400 3731 
Q 1209 3300 1100 2831 
Q 966 2247 966 1656 
Q 966 153 1900 -1347 
L 1497 -1347 
z
" transform="scale(0.015625)"/>
       <path id="ArialMT-25" d="M 372 3481 
Q 372 3972 619 4315 
Q 866 4659 1334 4659 
Q 1766 4659 2048 4351 
Q 2331 4044 2331 3447 
Q 2331 2866 2045 2552 
Q 1759 2238 1341 2238 
Q 925 2238 648 2547 
Q 372 2856 372 3481 
z
M 1350 4272 
Q 1141 4272 1002 4090 
Q 863 3909 863 3425 
Q 863 2984 1003 2804 
Q 1144 2625 1350 2625 
Q 1563 2625 1702 2806 
Q 1841 2988 1841 3469 
Q 1841 3913 1700 4092 
Q 1559 4272 1350 4272 
z
M 1353 -169 
L 3859 4659 
L 4316 4659 
L 1819 -169 
L 1353 -169 
z
M 3334 1075 
Q 3334 1569 3581 1911 
Q 3828 2253 4300 2253 
Q 4731 2253 5014 1945 
Q 5297 1638 5297 1041 
Q 5297 459 5011 145 
Q 4725 -169 4303 -169 
Q 3888 -169 3611 142 
Q 3334 453 3334 1075 
z
M 4316 1866 
Q 4103 1866 3964 1684 
Q 3825 1503 3825 1019 
Q 3825 581 3965 400 
Q 4106 219 4313 219 
Q 4528 219 4667 400 
Q 4806 581 4806 1063 
Q 4806 1506 4665 1686 
Q 4525 1866 4316 1866 
z
" transform="scale(0.015625)"/>
       <path id="ArialMT-29" d="M 791 -1347 
L 388 -1347 
Q 1322 153 1322 1656 
Q 1322 2244 1188 2822 
Q 1081 3291 891 3722 
Q 769 4003 388 4659 
L 791 4659 
Q 1378 3875 1659 3084 
Q 1900 2403 1900 1659 
Q 1900 816 1576 28 
Q 1253 -759 791 -1347 
z
" transform="scale(0.015625)"/>
      </defs>
      <use xlink:href="#ArialMT-45"/>
      <use xlink:href="#ArialMT-72" x="66.699219"/>
      <use xlink:href="#ArialMT-72" x="100"/>
      <use xlink:href="#ArialMT-6f" x="133.300781"/>
      <use xlink:href="#ArialMT-72" x="188.916016"/>
      <use xlink:href="#ArialMT-20" x="222.216797"/>
      <use xlink:href="#ArialMT-28" x="250"/>
      <use xlink:href="#ArialMT-25" x="283.300781"/>
      <use xlink:href="#ArialMT-29" x="372.216797"/>
     </g>
    </g>
   </g>
   <g id="matplotlib.axis_2">
    <g id="ytick_1">
     <g id="line2d_6">
      <path d="M 53.8475 372.1675 
L 701.28 372.1675 
" clip-path="url(#p2401168c97)" style="fill: none; stroke: #cccccc; stroke-opacity: 0.3; stroke-width: 0.5; stroke-linecap: round"/>
     </g>
     <g id="text_7">
      <!-- 0.0 -->
      <g style="fill: #262626" transform="translate(30.1675 376.462188) scale(0.12 -0.12)">
       <defs>
        <path id="ArialMT-2e" d="M 581 0 
L 581 641 
L 1222 641 
L 1222 0 
L 581 0 
z
" transform="scale(0.015625)"/>
       </defs>
       <use xlink:href="#ArialMT-30"/>
       <use xlink:href="#ArialMT-2e" x="55.615234"/>
       <use xlink:href="#ArialMT-30" x="83.398438"/>
      </g>
     </g>
    </g>
    <g id="ytick_2">
     <g id="line2d_7">
      <path d="M 53.8475 321.15266 
L 701.28 321.15266 
" clip-path="url(#p2401168c97)" style="fill: none; stroke: #cccccc; stroke-opacity: 0.3; stroke-width: 0.5; stroke-linecap: round"/>
     </g>
     <g id="text_8">
      <!-- 0.1 -->
      <g style="fill: #262626" transform="translate(30.1675 325.447348) scale(0.12 -0.12)">
       <defs>
        <path id="ArialMT-31" d="M 2384 0 
L 1822 0 
L 1822 3584 
Q 1619 3391 1289 3197 
Q 959 3003 697 2906 
L 697 3450 
Q 1169 3672 1522 3987 
Q 1875 4303 2022 4600 
L 2384 4600 
L 2384 0 
z
" transform="scale(0.015625)"/>
       </defs>
       <use xlink:href="#ArialMT-30"/>
       <use xlink:href="#ArialMT-2e" x="55.615234"/>
       <use xlink:href="#ArialMT-31" x="83.398438"/>
      </g>
     </g>
    </g>
    <g id="ytick_3">
     <g id="line2d_8">
      <path d="M 53.8475 270.137821 
L 701.28 270.137821 
" clip-path="url(#p2401168c97)" style="fill: none; stroke: #cccccc; stroke-opacity: 0.3; stroke-width: 0.5; stroke-linecap: round"/>
     </g>
     <g id="text_9">
      <!-- 0.2 -->
      <g style="fill: #262626" transform="translate(30.1675 274.432508) scale(0.12 -0.12)">
       <use xlink:href="#ArialMT-30"/>
       <use xlink:href="#ArialMT-2e" x="55.615234"/>
       <use xlink:href="#ArialMT-32" x="83.398438"/>
      </g>
     </g>
    </g>
    <g id="ytick_4">
     <g id="line2d_9">
      <path d="M 53.8475 219.122981 
L 701.28 219.122981 
" clip-path="url(#p2401168c97)" style="fill: none; stroke: #cccccc; stroke-opacity: 0.3; stroke-width: 0.5; stroke-linecap: round"/>
     </g>
     <g id="text_10">
      <!-- 0.3 -->
      <g style="fill: #262626" transform="translate(30.1675 223.417669) scale(0.12 -0.12)">
       <defs>
        <path id="ArialMT-33" d="M 269 1209 
L 831 1284 
Q 928 806 1161 595 
Q 1394 384 1728 384 
Q 2125 384 2398 659 
Q 2672 934 2672 1341 
Q 2672 1728 2419 1979 
Q 2166 2231 1775 2231 
Q 1616 2231 1378 2169 
L 1441 2663 
Q 1497 2656 1531 2656 
Q 1891 2656 2178 2843 
Q 2466 3031 2466 3422 
Q 2466 3731 2256 3934 
Q 2047 4138 1716 4138 
Q 1388 4138 1169 3931 
Q 950 3725 888 3313 
L 325 3413 
Q 428 3978 793 4289 
Q 1159 4600 1703 4600 
Q 2078 4600 2393 4439 
Q 2709 4278 2876 4000 
Q 3044 3722 3044 3409 
Q 3044 3113 2884 2869 
Q 2725 2625 2413 2481 
Q 2819 2388 3044 2092 
Q 3269 1797 3269 1353 
Q 3269 753 2831 336 
Q 2394 -81 1725 -81 
Q 1122 -81 723 278 
Q 325 638 269 1209 
z
" transform="scale(0.015625)"/>
       </defs>
       <use xlink:href="#ArialMT-30"/>
       <use xlink:href="#ArialMT-2e" x="55.615234"/>
       <use xlink:href="#ArialMT-33" x="83.398438"/>
      </g>
     </g>
    </g>
    <g id="ytick_5">
     <g id="line2d_10">
      <path d="M 53.8475 168.108142 
L 701.28 168.108142 
" clip-path="url(#p2401168c97)" style="fill: none; stroke: #cccccc; stroke-opacity: 0.3; stroke-width: 0.5; stroke-linecap: round"/>
     </g>
     <g id="text_11">
      <!-- 0.4 -->
      <g style="fill: #262626" transform="translate(30.1675 172.402829) scale(0.12 -0.12)">
       <use xlink:href="#ArialMT-30"/>
       <use xlink:href="#ArialMT-2e" x="55.615234"/>
       <use xlink:href="#ArialMT-34" x="83.398438"/>
      </g>
     </g>
    </g>
    <g id="ytick_6">
     <g id="line2d_11">
      <path d="M 53.8475 117.093302 
L 701.28 117.093302 
" clip-path="url(#p2401168c97)" style="fill: none; stroke: #cccccc; stroke-opacity: 0.3; stroke-width: 0.5; stroke-linecap: round"/>
     </g>
     <g id="text_12">
      <!-- 0.5 -->
      <g style="fill: #262626" transform="translate(30.1675 121.38799) scale(0.12 -0.12)">
       <defs>
        <path id="ArialMT-35" d="M 266 1200 
L 856 1250 
Q 922 819 1161 601 
Q 1400 384 1738 384 
Q 2144 384 2425 690 
Q 2706 997 2706 1503 
Q 2706 1984 2436 2262 
Q 2166 2541 1728 2541 
Q 1456 2541 1237 2417 
Q 1019 2294 894 2097 
L 366 2166 
L 809 4519 
L 3088 4519 
L 3088 3981 
L 1259 3981 
L 1013 2750 
Q 1425 3038 1878 3038 
Q 2478 3038 2890 2622 
Q 3303 2206 3303 1553 
Q 3303 931 2941 478 
Q 2500 -78 1738 -78 
Q 1113 -78 717 272 
Q 322 622 266 1200 
z
" transform="scale(0.015625)"/>
       </defs>
       <use xlink:href="#ArialMT-30"/>
       <use xlink:href="#ArialMT-2e" x="55.615234"/>
       <use xlink:href="#ArialMT-35" x="83.398438"/>
      </g>
     </g>
    </g>
    <g id="ytick_7">
     <g id="line2d_12">
      <path d="M 53.8475 66.078462 
L 701.28 66.078462 
" clip-path="url(#p2401168c97)" style="fill: none; stroke: #cccccc; stroke-opacity: 0.3; stroke-width: 0.5; stroke-linecap: round"/>
     </g>
     <g id="text_13">
      <!-- 0.6 -->
      <g style="fill: #262626" transform="translate(30.1675 70.37315) scale(0.12 -0.12)">
       <use xlink:href="#ArialMT-30"/>
       <use xlink:href="#ArialMT-2e" x="55.615234"/>
       <use xlink:href="#ArialMT-36" x="83.398438"/>
      </g>
     </g>
    </g>
    <g id="text_14">
     <!-- Density -->
     <g style="fill: #262626" transform="translate(17.220938 221.750625) rotate(-90) scale(0.14 -0.14)">
      <defs>
       <path id="ArialMT-44" d="M 494 0 
L 494 4581 
L 2072 4581 
Q 2606 4581 2888 4516 
Q 3281 4425 3559 4188 
Q 3922 3881 4101 3404 
Q 4281 2928 4281 2316 
Q 4281 1794 4159 1391 
Q 4038 988 3847 723 
Q 3656 459 3429 307 
Q 3203 156 2883 78 
Q 2563 0 2147 0 
L 494 0 
z
M 1100 541 
L 2078 541 
Q 2531 541 2789 625 
Q 3047 709 3200 863 
Q 3416 1078 3536 1442 
Q 3656 1806 3656 2325 
Q 3656 3044 3420 3430 
Q 3184 3816 2847 3947 
Q 2603 4041 2063 4041 
L 1100 4041 
L 1100 541 
z
" transform="scale(0.015625)"/>
       <path id="ArialMT-65" d="M 2694 1069 
L 3275 997 
Q 3138 488 2766 206 
Q 2394 -75 1816 -75 
Q 1088 -75 661 373 
Q 234 822 234 1631 
Q 234 2469 665 2931 
Q 1097 3394 1784 3394 
Q 2450 3394 2872 2941 
Q 3294 2488 3294 1666 
Q 3294 1616 3291 1516 
L 816 1516 
Q 847 969 1125 678 
Q 1403 388 1819 388 
Q 2128 388 2347 550 
Q 2566 713 2694 1069 
z
M 847 1978 
L 2700 1978 
Q 2663 2397 2488 2606 
Q 2219 2931 1791 2931 
Q 1403 2931 1139 2672 
Q 875 2413 847 1978 
z
" transform="scale(0.015625)"/>
       <path id="ArialMT-6e" d="M 422 0 
L 422 3319 
L 928 3319 
L 928 2847 
Q 1294 3394 1984 3394 
Q 2284 3394 2536 3286 
Q 2788 3178 2913 3003 
Q 3038 2828 3088 2588 
Q 3119 2431 3119 2041 
L 3119 0 
L 2556 0 
L 2556 2019 
Q 2556 2363 2490 2533 
Q 2425 2703 2258 2804 
Q 2091 2906 1866 2906 
Q 1506 2906 1245 2678 
Q 984 2450 984 1813 
L 984 0 
L 422 0 
z
" transform="scale(0.015625)"/>
       <path id="ArialMT-73" d="M 197 991 
L 753 1078 
Q 800 744 1014 566 
Q 1228 388 1613 388 
Q 2000 388 2187 545 
Q 2375 703 2375 916 
Q 2375 1106 2209 1216 
Q 2094 1291 1634 1406 
Q 1016 1563 777 1677 
Q 538 1791 414 1992 
Q 291 2194 291 2438 
Q 291 2659 392 2848 
Q 494 3038 669 3163 
Q 800 3259 1026 3326 
Q 1253 3394 1513 3394 
Q 1903 3394 2198 3281 
Q 2494 3169 2634 2976 
Q 2775 2784 2828 2463 
L 2278 2388 
Q 2241 2644 2061 2787 
Q 1881 2931 1553 2931 
Q 1166 2931 1000 2803 
Q 834 2675 834 2503 
Q 834 2394 903 2306 
Q 972 2216 1119 2156 
Q 1203 2125 1616 2013 
Q 2213 1853 2448 1751 
Q 2684 1650 2818 1456 
Q 2953 1263 2953 975 
Q 2953 694 2789 445 
Q 2625 197 2315 61 
Q 2006 -75 1616 -75 
Q 969 -75 630 194 
Q 291 463 197 991 
z
" transform="scale(0.015625)"/>
       <path id="ArialMT-69" d="M 425 3934 
L 425 4581 
L 988 4581 
L 988 3934 
L 425 3934 
z
M 425 0 
L 425 3319 
L 988 3319 
L 988 0 
L 425 0 
z
" transform="scale(0.015625)"/>
       <path id="ArialMT-74" d="M 1650 503 
L 1731 6 
Q 1494 -44 1306 -44 
Q 1000 -44 831 53 
Q 663 150 594 308 
Q 525 466 525 972 
L 525 2881 
L 113 2881 
L 113 3319 
L 525 3319 
L 525 4141 
L 1084 4478 
L 1084 3319 
L 1650 3319 
L 1650 2881 
L 1084 2881 
L 1084 941 
Q 1084 700 1114 631 
Q 1144 563 1211 522 
Q 1278 481 1403 481 
Q 1497 481 1650 503 
z
" transform="scale(0.015625)"/>
       <path id="ArialMT-79" d="M 397 -1278 
L 334 -750 
Q 519 -800 656 -800 
Q 844 -800 956 -737 
Q 1069 -675 1141 -563 
Q 1194 -478 1313 -144 
Q 1328 -97 1363 -6 
L 103 3319 
L 709 3319 
L 1400 1397 
Q 1534 1031 1641 628 
Q 1738 1016 1872 1384 
L 2581 3319 
L 3144 3319 
L 1881 -56 
Q 1678 -603 1566 -809 
Q 1416 -1088 1222 -1217 
Q 1028 -1347 759 -1347 
Q 597 -1347 397 -1278 
z
" transform="scale(0.015625)"/>
      </defs>
      <use xlink:href="#ArialMT-44"/>
      <use xlink:href="#ArialMT-65" x="72.216797"/>
      <use xlink:href="#ArialMT-6e" x="127.832031"/>
      <use xlink:href="#ArialMT-73" x="183.447266"/>
      <use xlink:href="#ArialMT-69" x="233.447266"/>
      <use xlink:href="#ArialMT-74" x="255.664062"/>
      <use xlink:href="#ArialMT-79" x="283.447266"/>
     </g>
    </g>
   </g>
   <g id="PolyCollection_1">
    <defs>
     <path id="me93d5cfbea" d="M 83.27625 -48.544914 
L 83.27625 -48.3125 
L 86.233913 -48.3125 
L 89.191577 -48.3125 
L 92.14924 -48.3125 
L 95.106903 -48.3125 
L 98.064567 -48.3125 
L 101.02223 -48.3125 
L 103.979893 -48.3125 
L 106.937557 -48.3125 
L 109.89522 -48.3125 
L 112.852883 -48.3125 
L 115.810546 -48.3125 
L 118.76821 -48.3125 
L 121.725873 -48.3125 
L 124.683536 -48.3125 
L 127.6412 -48.3125 
L 130.598863 -48.3125 
L 133.556526 -48.3125 
L 136.51419 -48.3125 
L 139.471853 -48.3125 
L 142.429516 -48.3125 
L 145.38718 -48.3125 
L 148.344843 -48.3125 
L 151.302506 -48.3125 
L 154.26017 -48.3125 
L 157.217833 -48.3125 
L 160.175496 -48.3125 
L 163.13316 -48.3125 
L 166.090823 -48.3125 
L 169.048486 -48.3125 
L 172.006149 -48.3125 
L 174.963813 -48.3125 
L 177.921476 -48.3125 
L 180.879139 -48.3125 
L 183.836803 -48.3125 
L 186.794466 -48.3125 
L 189.752129 -48.3125 
L 192.709793 -48.3125 
L 195.667456 -48.3125 
L 198.625119 -48.3125 
L 201.582783 -48.3125 
L 204.540446 -48.3125 
L 207.498109 -48.3125 
L 210.455773 -48.3125 
L 213.413436 -48.3125 
L 216.371099 -48.3125 
L 219.328763 -48.3125 
L 222.286426 -48.3125 
L 225.244089 -48.3125 
L 228.201753 -48.3125 
L 231.159416 -48.3125 
L 234.117079 -48.3125 
L 237.074742 -48.3125 
L 240.032406 -48.3125 
L 242.990069 -48.3125 
L 245.947732 -48.3125 
L 248.905396 -48.3125 
L 251.863059 -48.3125 
L 254.820722 -48.3125 
L 257.778386 -48.3125 
L 260.736049 -48.3125 
L 263.693712 -48.3125 
L 266.651376 -48.3125 
L 269.609039 -48.3125 
L 272.566702 -48.3125 
L 275.524366 -48.3125 
L 278.482029 -48.3125 
L 281.439692 -48.3125 
L 284.397356 -48.3125 
L 287.355019 -48.3125 
L 290.312682 -48.3125 
L 293.270345 -48.3125 
L 296.228009 -48.3125 
L 299.185672 -48.3125 
L 302.143335 -48.3125 
L 305.100999 -48.3125 
L 308.058662 -48.3125 
L 311.016325 -48.3125 
L 313.973989 -48.3125 
L 316.931652 -48.3125 
L 319.889315 -48.3125 
L 322.846979 -48.3125 
L 325.804642 -48.3125 
L 328.762305 -48.3125 
L 331.719969 -48.3125 
L 334.677632 -48.3125 
L 337.635295 -48.3125 
L 340.592959 -48.3125 
L 343.550622 -48.3125 
L 346.508285 -48.3125 
L 349.465948 -48.3125 
L 352.423612 -48.3125 
L 355.381275 -48.3125 
L 358.338938 -48.3125 
L 361.296602 -48.3125 
L 364.254265 -48.3125 
L 367.211928 -48.3125 
L 370.169592 -48.3125 
L 373.127255 -48.3125 
L 376.084918 -48.3125 
L 379.042582 -48.3125 
L 382.000245 -48.3125 
L 384.957908 -48.3125 
L 387.915572 -48.3125 
L 390.873235 -48.3125 
L 393.830898 -48.3125 
L 396.788562 -48.3125 
L 399.746225 -48.3125 
L 402.703888 -48.3125 
L 405.661552 -48.3125 
L 408.619215 -48.3125 
L 411.576878 -48.3125 
L 414.534541 -48.3125 
L 417.492205 -48.3125 
L 420.449868 -48.3125 
L 423.407531 -48.3125 
L 426.365195 -48.3125 
L 429.322858 -48.3125 
L 432.280521 -48.3125 
L 435.238185 -48.3125 
L 438.195848 -48.3125 
L 441.153511 -48.3125 
L 444.111175 -48.3125 
L 447.068838 -48.3125 
L 450.026501 -48.3125 
L 452.984165 -48.3125 
L 455.941828 -48.3125 
L 458.899491 -48.3125 
L 461.857155 -48.3125 
L 464.814818 -48.3125 
L 467.772481 -48.3125 
L 470.730144 -48.3125 
L 473.687808 -48.3125 
L 476.645471 -48.3125 
L 479.603134 -48.3125 
L 482.560798 -48.3125 
L 485.518461 -48.3125 
L 488.476124 -48.3125 
L 491.433788 -48.3125 
L 494.391451 -48.3125 
L 497.349114 -48.3125 
L 500.306778 -48.3125 
L 503.264441 -48.3125 
L 506.222104 -48.3125 
L 509.179768 -48.3125 
L 512.137431 -48.3125 
L 515.095094 -48.3125 
L 518.052758 -48.3125 
L 521.010421 -48.3125 
L 523.968084 -48.3125 
L 526.925747 -48.3125 
L 529.883411 -48.3125 
L 532.841074 -48.3125 
L 535.798737 -48.3125 
L 538.756401 -48.3125 
L 541.714064 -48.3125 
L 544.671727 -48.3125 
L 547.629391 -48.3125 
L 550.587054 -48.3125 
L 553.544717 -48.3125 
L 556.502381 -48.3125 
L 559.460044 -48.3125 
L 562.417707 -48.3125 
L 565.375371 -48.3125 
L 568.333034 -48.3125 
L 571.290697 -48.3125 
L 574.248361 -48.3125 
L 577.206024 -48.3125 
L 580.163687 -48.3125 
L 583.121351 -48.3125 
L 586.079014 -48.3125 
L 589.036677 -48.3125 
L 591.99434 -48.3125 
L 594.952004 -48.3125 
L 597.909667 -48.3125 
L 600.86733 -48.3125 
L 603.824994 -48.3125 
L 606.782657 -48.3125 
L 609.74032 -48.3125 
L 612.697984 -48.3125 
L 615.655647 -48.3125 
L 618.61331 -48.3125 
L 621.570974 -48.3125 
L 624.528637 -48.3125 
L 627.4863 -48.3125 
L 630.443964 -48.3125 
L 633.401627 -48.3125 
L 636.35929 -48.3125 
L 639.316954 -48.3125 
L 642.274617 -48.3125 
L 645.23228 -48.3125 
L 648.189943 -48.3125 
L 651.147607 -48.3125 
L 654.10527 -48.3125 
L 657.062933 -48.3125 
L 660.020597 -48.3125 
L 662.97826 -48.3125 
L 665.935923 -48.3125 
L 668.893587 -48.3125 
L 671.85125 -48.3125 
L 671.85125 -48.500648 
L 671.85125 -48.500648 
L 668.893587 -48.543039 
L 665.935923 -48.593794 
L 662.97826 -48.65428 
L 660.020597 -48.726032 
L 657.062933 -48.810755 
L 654.10527 -48.910332 
L 651.147607 -49.026823 
L 648.189943 -49.162469 
L 645.23228 -49.319686 
L 642.274617 -49.501055 
L 639.316954 -49.709309 
L 636.35929 -49.947314 
L 633.401627 -50.218046 
L 630.443964 -50.524556 
L 627.4863 -50.869935 
L 624.528637 -51.257274 
L 621.570974 -51.68961 
L 618.61331 -52.169872 
L 615.655647 -52.700825 
L 612.697984 -53.285005 
L 609.74032 -53.924651 
L 606.782657 -54.621641 
L 603.824994 -55.37742 
L 600.86733 -56.19294 
L 597.909667 -57.068592 
L 594.952004 -58.004151 
L 591.99434 -58.998726 
L 589.036677 -60.050719 
L 586.079014 -61.157796 
L 583.121351 -62.316864 
L 580.163687 -63.524074 
L 577.206024 -64.774822 
L 574.248361 -66.063783 
L 571.290697 -67.384945 
L 568.333034 -68.731669 
L 565.375371 -70.096757 
L 562.417707 -71.472539 
L 559.460044 -72.850968 
L 556.502381 -74.223732 
L 553.544717 -75.582366 
L 550.587054 -76.918378 
L 547.629391 -78.223375 
L 544.671727 -79.489196 
L 541.714064 -80.708036 
L 538.756401 -81.872571 
L 535.798737 -82.976079 
L 532.841074 -84.01255 
L 529.883411 -84.976788 
L 526.925747 -85.864498 
L 523.968084 -86.67237 
L 521.010421 -87.398133 
L 518.052758 -88.040617 
L 515.095094 -88.59978 
L 512.137431 -89.076732 
L 509.179768 -89.473747 
L 506.222104 -89.794255 
L 503.264441 -90.042823 
L 500.306778 -90.225131 
L 497.349114 -90.347926 
L 494.391451 -90.418975 
L 491.433788 -90.447001 
L 488.476124 -90.44162 
L 485.518461 -90.413254 
L 482.560798 -90.373054 
L 479.603134 -90.3328 
L 476.645471 -90.304801 
L 473.687808 -90.301787 
L 470.730144 -90.336789 
L 467.772481 -90.423022 
L 464.814818 -90.573746 
L 461.857155 -90.802137 
L 458.899491 -91.121138 
L 455.941828 -91.543312 
L 452.984165 -92.080691 
L 450.026501 -92.744617 
L 447.068838 -93.545585 
L 444.111175 -94.493082 
L 441.153511 -95.595432 
L 438.195848 -96.859642 
L 435.238185 -98.291253 
L 432.280521 -99.894202 
L 429.322858 -101.670697 
L 426.365195 -103.621101 
L 423.407531 -105.743841 
L 420.449868 -108.035332 
L 417.492205 -110.489931 
L 414.534541 -113.099909 
L 411.576878 -115.855466 
L 408.619215 -118.744765 
L 405.661552 -121.75401 
L 402.703888 -124.867554 
L 399.746225 -128.068049 
L 396.788562 -131.336624 
L 393.830898 -134.65311 
L 390.873235 -137.996288 
L 387.915572 -141.344176 
L 384.957908 -144.674332 
L 382.000245 -147.964192 
L 379.042582 -151.19141 
L 376.084918 -154.334215 
L 373.127255 -157.371765 
L 370.169592 -160.28449 
L 367.211928 -163.05442 
L 364.254265 -165.665492 
L 361.296602 -168.103815 
L 358.338938 -170.357891 
L 355.381275 -172.418796 
L 352.423612 -174.280298 
L 349.465948 -175.93891 
L 346.508285 -177.393885 
L 343.550622 -178.647149 
L 340.592959 -179.703155 
L 337.635295 -180.568691 
L 334.677632 -181.252617 
L 331.719969 -181.765562 
L 328.762305 -182.119566 
L 325.804642 -182.327699 
L 322.846979 -182.403648 
L 319.889315 -182.361301 
L 316.931652 -182.214326 
L 313.973989 -181.975766 
L 311.016325 -181.657655 
L 308.058662 -181.270675 
L 305.100999 -180.823855 
L 302.143335 -180.324326 
L 299.185672 -179.777137 
L 296.228009 -179.185135 
L 293.270345 -178.548919 
L 290.312682 -177.866857 
L 287.355019 -177.135183 
L 284.397356 -176.348144 
L 281.439692 -175.498222 
L 278.482029 -174.576399 
L 275.524366 -173.572474 
L 272.566702 -172.47541 
L 269.609039 -171.27371 
L 266.651376 -169.955804 
L 263.693712 -168.510442 
L 260.736049 -166.927074 
L 257.778386 -165.19622 
L 254.820722 -163.309802 
L 251.863059 -161.261445 
L 248.905396 -159.04673 
L 245.947732 -156.663402 
L 242.990069 -154.111513 
L 240.032406 -151.393519 
L 237.074742 -148.514305 
L 234.117079 -145.481162 
L 231.159416 -142.303702 
L 228.201753 -138.993717 
L 225.244089 -135.564999 
L 222.286426 -132.033103 
L 219.328763 -128.415089 
L 216.371099 -124.729228 
L 213.413436 -120.994687 
L 210.455773 -117.231205 
L 207.498109 -113.458768 
L 204.540446 -109.69728 
L 201.582783 -105.966256 
L 198.625119 -102.284526 
L 195.667456 -98.669968 
L 192.709793 -95.13927 
L 189.752129 -91.707723 
L 186.794466 -88.389054 
L 183.836803 -85.195297 
L 180.879139 -82.136705 
L 177.921476 -79.221693 
L 174.963813 -76.456828 
L 172.006149 -73.846848 
L 169.048486 -71.394719 
L 166.090823 -69.101711 
L 163.13316 -66.967511 
L 160.175496 -64.990345 
L 157.217833 -63.167123 
L 154.26017 -61.493594 
L 151.302506 -59.964502 
L 148.344843 -58.573758 
L 145.38718 -57.314594 
L 142.429516 -56.179727 
L 139.471853 -55.161509 
L 136.51419 -54.252064 
L 133.556526 -53.443421 
L 130.598863 -52.727632 
L 127.6412 -52.096867 
L 124.683536 -51.543507 
L 121.725873 -51.060218 
L 118.76821 -50.640002 
L 115.810546 -50.276251 
L 112.852883 -49.962774 
L 109.89522 -49.693819 
L 106.937557 -49.464083 
L 103.979893 -49.268714 
L 101.02223 -49.103305 
L 98.064567 -48.963879 
L 95.106903 -48.846872 
L 92.14924 -48.749112 
L 89.191577 -48.667791 
L 86.233913 -48.600444 
L 83.27625 -48.544914 
z
" style="stroke: #2ecc71"/>
    </defs>
    <g clip-path="url(#p2401168c97)">
     <use xlink:href="#me93d5cfbea" x="0" y="420.48" style="fill: #2ecc71; fill-opacity: 0.3; stroke: #2ecc71"/>
    </g>
   </g>
   <g id="PolyCollection_2">
    <defs>
     <path id="mc8f69de855" d="M 147.003735 -49.785772 
L 147.003735 -48.3125 
L 148.258252 -48.3125 
L 149.51277 -48.3125 
L 150.767287 -48.3125 
L 152.021805 -48.3125 
L 153.276322 -48.3125 
L 154.530839 -48.3125 
L 155.785357 -48.3125 
L 157.039874 -48.3125 
L 158.294391 -48.3125 
L 159.548909 -48.3125 
L 160.803426 -48.3125 
L 162.057943 -48.3125 
L 163.312461 -48.3125 
L 164.566978 -48.3125 
L 165.821495 -48.3125 
L 167.076013 -48.3125 
L 168.33053 -48.3125 
L 169.585047 -48.3125 
L 170.839565 -48.3125 
L 172.094082 -48.3125 
L 173.3486 -48.3125 
L 174.603117 -48.3125 
L 175.857634 -48.3125 
L 177.112152 -48.3125 
L 178.366669 -48.3125 
L 179.621186 -48.3125 
L 180.875704 -48.3125 
L 182.130221 -48.3125 
L 183.384738 -48.3125 
L 184.639256 -48.3125 
L 185.893773 -48.3125 
L 187.14829 -48.3125 
L 188.402808 -48.3125 
L 189.657325 -48.3125 
L 190.911843 -48.3125 
L 192.16636 -48.3125 
L 193.420877 -48.3125 
L 194.675395 -48.3125 
L 195.929912 -48.3125 
L 197.184429 -48.3125 
L 198.438947 -48.3125 
L 199.693464 -48.3125 
L 200.947981 -48.3125 
L 202.202499 -48.3125 
L 203.457016 -48.3125 
L 204.711533 -48.3125 
L 205.966051 -48.3125 
L 207.220568 -48.3125 
L 208.475085 -48.3125 
L 209.729603 -48.3125 
L 210.98412 -48.3125 
L 212.238638 -48.3125 
L 213.493155 -48.3125 
L 214.747672 -48.3125 
L 216.00219 -48.3125 
L 217.256707 -48.3125 
L 218.511224 -48.3125 
L 219.765742 -48.3125 
L 221.020259 -48.3125 
L 222.274776 -48.3125 
L 223.529294 -48.3125 
L 224.783811 -48.3125 
L 226.038328 -48.3125 
L 227.292846 -48.3125 
L 228.547363 -48.3125 
L 229.801881 -48.3125 
L 231.056398 -48.3125 
L 232.310915 -48.3125 
L 233.565433 -48.3125 
L 234.81995 -48.3125 
L 236.074467 -48.3125 
L 237.328985 -48.3125 
L 238.583502 -48.3125 
L 239.838019 -48.3125 
L 241.092537 -48.3125 
L 242.347054 -48.3125 
L 243.601571 -48.3125 
L 244.856089 -48.3125 
L 246.110606 -48.3125 
L 247.365123 -48.3125 
L 248.619641 -48.3125 
L 249.874158 -48.3125 
L 251.128676 -48.3125 
L 252.383193 -48.3125 
L 253.63771 -48.3125 
L 254.892228 -48.3125 
L 256.146745 -48.3125 
L 257.401262 -48.3125 
L 258.65578 -48.3125 
L 259.910297 -48.3125 
L 261.164814 -48.3125 
L 262.419332 -48.3125 
L 263.673849 -48.3125 
L 264.928366 -48.3125 
L 266.182884 -48.3125 
L 267.437401 -48.3125 
L 268.691919 -48.3125 
L 269.946436 -48.3125 
L 271.200953 -48.3125 
L 272.455471 -48.3125 
L 273.709988 -48.3125 
L 274.964505 -48.3125 
L 276.219023 -48.3125 
L 277.47354 -48.3125 
L 278.728057 -48.3125 
L 279.982575 -48.3125 
L 281.237092 -48.3125 
L 282.491609 -48.3125 
L 283.746127 -48.3125 
L 285.000644 -48.3125 
L 286.255161 -48.3125 
L 287.509679 -48.3125 
L 288.764196 -48.3125 
L 290.018714 -48.3125 
L 291.273231 -48.3125 
L 292.527748 -48.3125 
L 293.782266 -48.3125 
L 295.036783 -48.3125 
L 296.2913 -48.3125 
L 297.545818 -48.3125 
L 298.800335 -48.3125 
L 300.054852 -48.3125 
L 301.30937 -48.3125 
L 302.563887 -48.3125 
L 303.818404 -48.3125 
L 305.072922 -48.3125 
L 306.327439 -48.3125 
L 307.581957 -48.3125 
L 308.836474 -48.3125 
L 310.090991 -48.3125 
L 311.345509 -48.3125 
L 312.600026 -48.3125 
L 313.854543 -48.3125 
L 315.109061 -48.3125 
L 316.363578 -48.3125 
L 317.618095 -48.3125 
L 318.872613 -48.3125 
L 320.12713 -48.3125 
L 321.381647 -48.3125 
L 322.636165 -48.3125 
L 323.890682 -48.3125 
L 325.145199 -48.3125 
L 326.399717 -48.3125 
L 327.654234 -48.3125 
L 328.908752 -48.3125 
L 330.163269 -48.3125 
L 331.417786 -48.3125 
L 332.672304 -48.3125 
L 333.926821 -48.3125 
L 335.181338 -48.3125 
L 336.435856 -48.3125 
L 337.690373 -48.3125 
L 338.94489 -48.3125 
L 340.199408 -48.3125 
L 341.453925 -48.3125 
L 342.708442 -48.3125 
L 343.96296 -48.3125 
L 345.217477 -48.3125 
L 346.471995 -48.3125 
L 347.726512 -48.3125 
L 348.981029 -48.3125 
L 350.235547 -48.3125 
L 351.490064 -48.3125 
L 352.744581 -48.3125 
L 353.999099 -48.3125 
L 355.253616 -48.3125 
L 356.508133 -48.3125 
L 357.762651 -48.3125 
L 359.017168 -48.3125 
L 360.271685 -48.3125 
L 361.526203 -48.3125 
L 362.78072 -48.3125 
L 364.035237 -48.3125 
L 365.289755 -48.3125 
L 366.544272 -48.3125 
L 367.79879 -48.3125 
L 369.053307 -48.3125 
L 370.307824 -48.3125 
L 371.562342 -48.3125 
L 372.816859 -48.3125 
L 374.071376 -48.3125 
L 375.325894 -48.3125 
L 376.580411 -48.3125 
L 377.834928 -48.3125 
L 379.089446 -48.3125 
L 380.343963 -48.3125 
L 381.59848 -48.3125 
L 382.852998 -48.3125 
L 384.107515 -48.3125 
L 385.362033 -48.3125 
L 386.61655 -48.3125 
L 387.871067 -48.3125 
L 389.125585 -48.3125 
L 390.380102 -48.3125 
L 391.634619 -48.3125 
L 392.889137 -48.3125 
L 394.143654 -48.3125 
L 395.398171 -48.3125 
L 396.652689 -48.3125 
L 396.652689 -49.601808 
L 396.652689 -49.601808 
L 395.398171 -49.788863 
L 394.143654 -49.999563 
L 392.889137 -50.236352 
L 391.634619 -50.501844 
L 390.380102 -50.798828 
L 389.125585 -51.130267 
L 387.871067 -51.499296 
L 386.61655 -51.909216 
L 385.362033 -52.363485 
L 384.107515 -52.865715 
L 382.852998 -53.419653 
L 381.59848 -54.029169 
L 380.343963 -54.698234 
L 379.089446 -55.430904 
L 377.834928 -56.231288 
L 376.580411 -57.103524 
L 375.325894 -58.051746 
L 374.071376 -59.080045 
L 372.816859 -60.192435 
L 371.562342 -61.392809 
L 370.307824 -62.684894 
L 369.053307 -64.072204 
L 367.79879 -65.557992 
L 366.544272 -67.1452 
L 365.289755 -68.836401 
L 364.035237 -70.633755 
L 362.78072 -72.538953 
L 361.526203 -74.553164 
L 360.271685 -76.67699 
L 359.017168 -78.910416 
L 357.762651 -81.252771 
L 356.508133 -83.702684 
L 355.253616 -86.258057 
L 353.999099 -88.916035 
L 352.744581 -91.672987 
L 351.490064 -94.524497 
L 350.235547 -97.465358 
L 348.981029 -100.489584 
L 347.726512 -103.590426 
L 346.471995 -106.760399 
L 345.217477 -109.991325 
L 343.96296 -113.274383 
L 342.708442 -116.600172 
L 341.453925 -119.958785 
L 340.199408 -123.339897 
L 338.94489 -126.732858 
L 337.690373 -130.126801 
L 336.435856 -133.510758 
L 335.181338 -136.87378 
L 333.926821 -140.205074 
L 332.672304 -143.49413 
L 331.417786 -146.730865 
L 330.163269 -149.905762 
L 328.908752 -153.010014 
L 327.654234 -156.035656 
L 326.399717 -158.975707 
L 325.145199 -161.824292 
L 323.890682 -164.576765 
L 322.636165 -167.229819 
L 321.381647 -169.781579 
L 320.12713 -172.231687 
L 318.872613 -174.581363 
L 317.618095 -176.833457 
L 316.363578 -178.992476 
L 315.109061 -181.064586 
L 313.854543 -183.057598 
L 312.600026 -184.980936 
L 311.345509 -186.845564 
L 310.090991 -188.663913 
L 308.836474 -190.449766 
L 307.581957 -192.218132 
L 306.327439 -193.985092 
L 305.072922 -195.767629 
L 303.818404 -197.583437 
L 302.563887 -199.450716 
L 301.30937 -201.387948 
L 300.054852 -203.413666 
L 298.800335 -205.546208 
L 297.545818 -207.803473 
L 296.2913 -210.202664 
L 295.036783 -212.760038 
L 293.782266 -215.490654 
L 292.527748 -218.408137 
L 291.273231 -221.524435 
L 290.018714 -224.849609 
L 288.764196 -228.391625 
L 287.509679 -232.156167 
L 286.255161 -236.146482 
L 285.000644 -240.363236 
L 283.746127 -244.804407 
L 282.491609 -249.4652 
L 281.237092 -254.337996 
L 279.982575 -259.412336 
L 278.728057 -264.674925 
L 277.47354 -270.109683 
L 276.219023 -275.697819 
L 274.964505 -281.417941 
L 273.709988 -287.246198 
L 272.455471 -293.156448 
L 271.200953 -299.120455 
L 269.946436 -305.108117 
L 268.691919 -311.087712 
L 267.437401 -317.026167 
L 266.182884 -322.889342 
L 264.928366 -328.642335 
L 263.673849 -334.24979 
L 262.419332 -339.676216 
L 261.164814 -344.886312 
L 259.910297 -349.845287 
L 258.65578 -354.519182 
L 257.401262 -358.875175 
L 256.146745 -362.881887 
L 254.892228 -366.509665 
L 253.63771 -369.730851 
L 252.383193 -372.520028 
L 251.128676 -374.854244 
L 249.874158 -376.713214 
L 248.619641 -378.079489 
L 247.365123 -378.9386 
L 246.110606 -379.279167 
L 244.856089 -379.092985 
L 243.601571 -378.375072 
L 242.347054 -377.123685 
L 241.092537 -375.340313 
L 239.838019 -373.029628 
L 238.583502 -370.199416 
L 237.328985 -366.860477 
L 236.074467 -363.026499 
L 234.81995 -358.713906 
L 233.565433 -353.941686 
L 232.310915 -348.731201 
L 231.056398 -343.105979 
L 229.801881 -337.091486 
L 228.547363 -330.714898 
L 227.292846 -324.004854 
L 226.038328 -316.991207 
L 224.783811 -309.704776 
L 223.529294 -302.17709 
L 222.274776 -294.440137 
L 221.020259 -286.526123 
L 219.765742 -278.467231 
L 218.511224 -270.295393 
L 217.256707 -262.042072 
L 216.00219 -253.738057 
L 214.747672 -245.41327 
L 213.493155 -237.096597 
L 212.238638 -228.815726 
L 210.98412 -220.597005 
L 209.729603 -212.465322 
L 208.475085 -204.444 
L 207.220568 -196.554712 
L 205.966051 -188.817412 
L 204.711533 -181.250286 
L 203.457016 -173.86972 
L 202.202499 -166.690287 
L 200.947981 -159.724746 
L 199.693464 -152.984057 
L 198.438947 -146.477417 
L 197.184429 -140.212296 
L 195.929912 -134.194497 
L 194.675395 -128.428217 
L 193.420877 -122.916127 
L 192.16636 -117.65945 
L 190.911843 -112.658051 
L 189.657325 -107.91053 
L 188.402808 -103.414321 
L 187.14829 -99.165794 
L 185.893773 -95.160351 
L 184.639256 -91.392536 
L 183.384738 -87.856131 
L 182.130221 -84.544258 
L 180.875704 -81.449479 
L 179.621186 -78.563887 
L 178.366669 -75.879197 
L 177.112152 -73.386836 
L 175.857634 -71.07802 
L 174.603117 -68.943834 
L 173.3486 -66.9753 
L 172.094082 -65.163441 
L 170.839565 -63.499345 
L 169.585047 -61.974211 
L 168.33053 -60.579403 
L 167.076013 -59.306485 
L 165.821495 -58.147264 
L 164.566978 -57.093812 
L 163.312461 -56.138497 
L 162.057943 -55.274002 
L 160.803426 -54.493338 
L 159.548909 -53.789858 
L 158.294391 -53.157261 
L 157.039874 -52.5896 
L 155.785357 -52.081276 
L 154.530839 -51.627042 
L 153.276322 -51.221992 
L 152.021805 -50.861557 
L 150.767287 -50.541494 
L 149.51277 -50.257877 
L 148.258252 -50.007081 
L 147.003735 -49.785772 
z
" style="stroke: #e74c3c"/>
    </defs>
    <g clip-path="url(#p2401168c97)">
     <use xlink:href="#mc8f69de855" x="0" y="420.48" style="fill: #e74c3c; fill-opacity: 0.3; stroke: #e74c3c"/>
    </g>
   </g>
   <g id="patch_3">
    <path d="M 53.8475 372.1675 
L 53.8475 24.6525 
" style="fill: none; stroke: #cccccc; stroke-width: 1.5; stroke-linejoin: miter; stroke-linecap: square"/>
   </g>
   <g id="patch_4">
    <path d="M 53.8475 372.1675 
L 701.28 372.1675 
" style="fill: none; stroke: #cccccc; stroke-width: 1.5; stroke-linejoin: miter; stroke-linecap: square"/>
   </g>
   <g id="text_15">
    <!-- Distribution of Absolute Errors -->
    <g style="fill: #262626" transform="translate(271.74375 18.6525) scale(0.16 -0.16)">
     <defs>
      <path id="ArialMT-62" d="M 941 0 
L 419 0 
L 419 4581 
L 981 4581 
L 981 2947 
Q 1338 3394 1891 3394 
Q 2197 3394 2470 3270 
Q 2744 3147 2920 2923 
Q 3097 2700 3197 2384 
Q 3297 2069 3297 1709 
Q 3297 856 2875 390 
Q 2453 -75 1863 -75 
Q 1275 -75 941 416 
L 941 0 
z
M 934 1684 
Q 934 1088 1097 822 
Q 1363 388 1816 388 
Q 2184 388 2453 708 
Q 2722 1028 2722 1663 
Q 2722 2313 2464 2622 
Q 2206 2931 1841 2931 
Q 1472 2931 1203 2611 
Q 934 2291 934 1684 
z
" transform="scale(0.015625)"/>
      <path id="ArialMT-75" d="M 2597 0 
L 2597 488 
Q 2209 -75 1544 -75 
Q 1250 -75 995 37 
Q 741 150 617 320 
Q 494 491 444 738 
Q 409 903 409 1263 
L 409 3319 
L 972 3319 
L 972 1478 
Q 972 1038 1006 884 
Q 1059 663 1231 536 
Q 1403 409 1656 409 
Q 1909 409 2131 539 
Q 2353 669 2445 892 
Q 2538 1116 2538 1541 
L 2538 3319 
L 3100 3319 
L 3100 0 
L 2597 0 
z
" transform="scale(0.015625)"/>
      <path id="ArialMT-66" d="M 556 0 
L 556 2881 
L 59 2881 
L 59 3319 
L 556 3319 
L 556 3672 
Q 556 4006 616 4169 
Q 697 4388 901 4523 
Q 1106 4659 1475 4659 
Q 1713 4659 2000 4603 
L 1916 4113 
Q 1741 4144 1584 4144 
Q 1328 4144 1222 4034 
Q 1116 3925 1116 3625 
L 1116 3319 
L 1763 3319 
L 1763 2881 
L 1116 2881 
L 1116 0 
L 556 0 
z
" transform="scale(0.015625)"/>
      <path id="ArialMT-41" d="M -9 0 
L 1750 4581 
L 2403 4581 
L 4278 0 
L 3588 0 
L 3053 1388 
L 1138 1388 
L 634 0 
L -9 0 
z
M 1313 1881 
L 2866 1881 
L 2388 3150 
Q 2169 3728 2063 4100 
Q 1975 3659 1816 3225 
L 1313 1881 
z
" transform="scale(0.015625)"/>
      <path id="ArialMT-6c" d="M 409 0 
L 409 4581 
L 972 4581 
L 972 0 
L 409 0 
z
" transform="scale(0.015625)"/>
     </defs>
     <use xlink:href="#ArialMT-44"/>
     <use xlink:href="#ArialMT-69" x="72.216797"/>
     <use xlink:href="#ArialMT-73" x="94.433594"/>
     <use xlink:href="#ArialMT-74" x="144.433594"/>
     <use xlink:href="#ArialMT-72" x="172.216797"/>
     <use xlink:href="#ArialMT-69" x="205.517578"/>
     <use xlink:href="#ArialMT-62" x="227.734375"/>
     <use xlink:href="#ArialMT-75" x="283.349609"/>
     <use xlink:href="#ArialMT-74" x="338.964844"/>
     <use xlink:href="#ArialMT-69" x="366.748047"/>
     <use xlink:href="#ArialMT-6f" x="388.964844"/>
     <use xlink:href="#ArialMT-6e" x="444.580078"/>
     <use xlink:href="#ArialMT-20" x="500.195312"/>
     <use xlink:href="#ArialMT-6f" x="527.978516"/>
     <use xlink:href="#ArialMT-66" x="583.59375"/>
     <use xlink:href="#ArialMT-20" x="611.376953"/>
     <use xlink:href="#ArialMT-41" x="633.660156"/>
     <use xlink:href="#ArialMT-62" x="700.359375"/>
     <use xlink:href="#ArialMT-73" x="755.974609"/>
     <use xlink:href="#ArialMT-6f" x="805.974609"/>
     <use xlink:href="#ArialMT-6c" x="861.589844"/>
     <use xlink:href="#ArialMT-75" x="883.806641"/>
     <use xlink:href="#ArialMT-74" x="939.421875"/>
     <use xlink:href="#ArialMT-65" x="967.205078"/>
     <use xlink:href="#ArialMT-20" x="1022.820312"/>
     <use xlink:href="#ArialMT-45" x="1050.603516"/>
     <use xlink:href="#ArialMT-72" x="1117.302734"/>
     <use xlink:href="#ArialMT-72" x="1150.603516"/>
     <use xlink:href="#ArialMT-6f" x="1183.904297"/>
     <use xlink:href="#ArialMT-72" x="1239.519531"/>
     <use xlink:href="#ArialMT-73" x="1272.820312"/>
    </g>
   </g>
   <g id="legend_1">
    <g id="patch_5">
     <path d="M 497.20125 68.775 
L 692.88 68.775 
Q 695.28 68.775 695.28 66.375 
L 695.28 33.0525 
Q 695.28 30.6525 692.88 30.6525 
L 497.20125 30.6525 
Q 494.80125 30.6525 494.80125 33.0525 
L 494.80125 66.375 
Q 494.80125 68.775 497.20125 68.775 
z
" style="fill: #ffffff; opacity: 0.8; stroke: #cccccc; stroke-linejoin: miter"/>
    </g>
    <g id="patch_6">
     <path d="M 499.60125 44.188125 
L 523.60125 44.188125 
L 523.60125 35.788125 
L 499.60125 35.788125 
z
" style="fill: #2ecc71; fill-opacity: 0.3; stroke: #2ecc71; stroke-linejoin: miter"/>
    </g>
    <g id="text_16">
     <!-- Training (μ=1.98%, σ=1.45%) -->
     <g style="fill: #262626" transform="translate(533.20125 44.188125) scale(0.12 -0.12)">
      <defs>
       <path id="ArialMT-54" d="M 1659 0 
L 1659 4041 
L 150 4041 
L 150 4581 
L 3781 4581 
L 3781 4041 
L 2266 4041 
L 2266 0 
L 1659 0 
z
" transform="scale(0.015625)"/>
       <path id="ArialMT-61" d="M 2588 409 
Q 2275 144 1986 34 
Q 1697 -75 1366 -75 
Q 819 -75 525 192 
Q 231 459 231 875 
Q 231 1119 342 1320 
Q 453 1522 633 1644 
Q 813 1766 1038 1828 
Q 1203 1872 1538 1913 
Q 2219 1994 2541 2106 
Q 2544 2222 2544 2253 
Q 2544 2597 2384 2738 
Q 2169 2928 1744 2928 
Q 1347 2928 1158 2789 
Q 969 2650 878 2297 
L 328 2372 
Q 403 2725 575 2942 
Q 747 3159 1072 3276 
Q 1397 3394 1825 3394 
Q 2250 3394 2515 3294 
Q 2781 3194 2906 3042 
Q 3031 2891 3081 2659 
Q 3109 2516 3109 2141 
L 3109 1391 
Q 3109 606 3145 398 
Q 3181 191 3288 0 
L 2700 0 
Q 2613 175 2588 409 
z
M 2541 1666 
Q 2234 1541 1622 1453 
Q 1275 1403 1131 1340 
Q 988 1278 909 1158 
Q 831 1038 831 891 
Q 831 666 1001 516 
Q 1172 366 1500 366 
Q 1825 366 2078 508 
Q 2331 650 2450 897 
Q 2541 1088 2541 1459 
L 2541 1666 
z
" transform="scale(0.015625)"/>
       <path id="ArialMT-67" d="M 319 -275 
L 866 -356 
Q 900 -609 1056 -725 
Q 1266 -881 1628 -881 
Q 2019 -881 2231 -725 
Q 2444 -569 2519 -288 
Q 2563 -116 2559 434 
Q 2191 0 1641 0 
Q 956 0 581 494 
Q 206 988 206 1678 
Q 206 2153 378 2554 
Q 550 2956 876 3175 
Q 1203 3394 1644 3394 
Q 2231 3394 2613 2919 
L 2613 3319 
L 3131 3319 
L 3131 450 
Q 3131 -325 2973 -648 
Q 2816 -972 2473 -1159 
Q 2131 -1347 1631 -1347 
Q 1038 -1347 672 -1080 
Q 306 -813 319 -275 
z
M 784 1719 
Q 784 1066 1043 766 
Q 1303 466 1694 466 
Q 2081 466 2343 764 
Q 2606 1063 2606 1700 
Q 2606 2309 2336 2618 
Q 2066 2928 1684 2928 
Q 1309 2928 1046 2623 
Q 784 2319 784 1719 
z
" transform="scale(0.015625)"/>
       <path id="ArialMT-3bc" d="M 3181 3319 
L 3181 0 
L 2678 0 
L 2678 394 
Q 2516 144 2356 50 
Q 2138 -78 1847 -78 
Q 1588 -78 1388 25 
Q 1238 103 1056 334 
L 1056 -1272 
L 500 -1272 
L 500 3319 
L 1056 3319 
L 1056 1913 
Q 1056 1147 1137 920 
Q 1219 694 1401 562 
Q 1584 431 1822 431 
Q 2072 431 2269 568 
Q 2466 706 2547 923 
Q 2628 1141 2628 1903 
L 2628 3319 
L 3181 3319 
z
" transform="scale(0.015625)"/>
       <path id="ArialMT-3d" d="M 3381 2694 
L 356 2694 
L 356 3219 
L 3381 3219 
L 3381 2694 
z
M 3381 1303 
L 356 1303 
L 356 1828 
L 3381 1828 
L 3381 1303 
z
" transform="scale(0.015625)"/>
       <path id="ArialMT-39" d="M 350 1059 
L 891 1109 
Q 959 728 1153 556 
Q 1347 384 1650 384 
Q 1909 384 2104 503 
Q 2300 622 2425 820 
Q 2550 1019 2634 1356 
Q 2719 1694 2719 2044 
Q 2719 2081 2716 2156 
Q 2547 1888 2255 1720 
Q 1963 1553 1622 1553 
Q 1053 1553 659 1965 
Q 266 2378 266 3053 
Q 266 3750 677 4175 
Q 1088 4600 1706 4600 
Q 2153 4600 2523 4359 
Q 2894 4119 3086 3673 
Q 3278 3228 3278 2384 
Q 3278 1506 3087 986 
Q 2897 466 2520 194 
Q 2144 -78 1638 -78 
Q 1100 -78 759 220 
Q 419 519 350 1059 
z
M 2653 3081 
Q 2653 3566 2395 3850 
Q 2138 4134 1775 4134 
Q 1400 4134 1122 3828 
Q 844 3522 844 3034 
Q 844 2597 1108 2323 
Q 1372 2050 1759 2050 
Q 2150 2050 2401 2323 
Q 2653 2597 2653 3081 
z
" transform="scale(0.015625)"/>
       <path id="ArialMT-38" d="M 1131 2484 
Q 781 2613 612 2850 
Q 444 3088 444 3419 
Q 444 3919 803 4259 
Q 1163 4600 1759 4600 
Q 2359 4600 2725 4251 
Q 3091 3903 3091 3403 
Q 3091 3084 2923 2848 
Q 2756 2613 2416 2484 
Q 2838 2347 3058 2040 
Q 3278 1734 3278 1309 
Q 3278 722 2862 322 
Q 2447 -78 1769 -78 
Q 1091 -78 675 323 
Q 259 725 259 1325 
Q 259 1772 486 2073 
Q 713 2375 1131 2484 
z
M 1019 3438 
Q 1019 3113 1228 2906 
Q 1438 2700 1772 2700 
Q 2097 2700 2305 2904 
Q 2513 3109 2513 3406 
Q 2513 3716 2298 3927 
Q 2084 4138 1766 4138 
Q 1444 4138 1231 3931 
Q 1019 3725 1019 3438 
z
M 838 1322 
Q 838 1081 952 856 
Q 1066 631 1291 507 
Q 1516 384 1775 384 
Q 2178 384 2440 643 
Q 2703 903 2703 1303 
Q 2703 1709 2433 1975 
Q 2163 2241 1756 2241 
Q 1359 2241 1098 1978 
Q 838 1716 838 1322 
z
" transform="scale(0.015625)"/>
       <path id="ArialMT-2c" d="M 569 0 
L 569 641 
L 1209 641 
L 1209 0 
Q 1209 -353 1084 -570 
Q 959 -788 688 -906 
L 531 -666 
Q 709 -588 793 -436 
Q 878 -284 888 0 
L 569 0 
z
" transform="scale(0.015625)"/>
       <path id="ArialMT-3c3" d="M 3809 3319 
L 3809 2863 
L 2906 2863 
Q 3322 2475 3322 1656 
Q 3322 766 2867 345 
Q 2413 -75 1763 -75 
Q 1088 -75 650 362 
Q 213 800 213 1659 
Q 213 2544 667 2969 
Q 1122 3394 1763 3394 
Q 1997 3394 2294 3319 
L 3809 3319 
z
M 1753 2928 
Q 1344 2928 1067 2609 
Q 791 2291 791 1656 
Q 791 1025 1061 706 
Q 1331 388 1763 388 
Q 2216 388 2483 720 
Q 2750 1053 2750 1659 
Q 2750 2213 2504 2570 
Q 2259 2928 1753 2928 
z
" transform="scale(0.015625)"/>
      </defs>
      <use xlink:href="#ArialMT-54"/>
      <use xlink:href="#ArialMT-72" x="57.333984"/>
      <use xlink:href="#ArialMT-61" x="90.634766"/>
      <use xlink:href="#ArialMT-69" x="146.25"/>
      <use xlink:href="#ArialMT-6e" x="168.466797"/>
      <use xlink:href="#ArialMT-69" x="224.082031"/>
      <use xlink:href="#ArialMT-6e" x="246.298828"/>
      <use xlink:href="#ArialMT-67" x="301.914062"/>
      <use xlink:href="#ArialMT-20" x="357.529297"/>
      <use xlink:href="#ArialMT-28" x="385.3125"/>
      <use xlink:href="#ArialMT-3bc" x="418.613281"/>
      <use xlink:href="#ArialMT-3d" x="476.230469"/>
      <use xlink:href="#ArialMT-31" x="534.628906"/>
      <use xlink:href="#ArialMT-2e" x="590.244141"/>
      <use xlink:href="#ArialMT-39" x="618.027344"/>
      <use xlink:href="#ArialMT-38" x="673.642578"/>
      <use xlink:href="#ArialMT-25" x="729.257812"/>
      <use xlink:href="#ArialMT-2c" x="818.173828"/>
      <use xlink:href="#ArialMT-20" x="845.957031"/>
      <use xlink:href="#ArialMT-3c3" x="873.740234"/>
      <use xlink:href="#ArialMT-3d" x="935.458984"/>
      <use xlink:href="#ArialMT-31" x="993.857422"/>
      <use xlink:href="#ArialMT-2e" x="1049.472656"/>
      <use xlink:href="#ArialMT-34" x="1077.255859"/>
      <use xlink:href="#ArialMT-35" x="1132.871094"/>
      <use xlink:href="#ArialMT-25" x="1188.486328"/>
      <use xlink:href="#ArialMT-29" x="1277.402344"/>
     </g>
    </g>
    <g id="patch_7">
     <path d="M 499.60125 61.449375 
L 523.60125 61.449375 
L 523.60125 53.049375 
L 499.60125 53.049375 
z
" style="fill: #e74c3c; fill-opacity: 0.3; stroke: #e74c3c; stroke-linejoin: miter"/>
    </g>
    <g id="text_17">
     <!-- Testing (μ=0.72%, σ=0.58%) -->
     <g style="fill: #262626" transform="translate(533.20125 61.449375) scale(0.12 -0.12)">
      <defs>
       <path id="ArialMT-37" d="M 303 3981 
L 303 4522 
L 3269 4522 
L 3269 4084 
Q 2831 3619 2401 2847 
Q 1972 2075 1738 1259 
Q 1569 684 1522 0 
L 944 0 
Q 953 541 1156 1306 
Q 1359 2072 1739 2783 
Q 2119 3494 2547 3981 
L 303 3981 
z
" transform="scale(0.015625)"/>
      </defs>
      <use xlink:href="#ArialMT-54"/>
      <use xlink:href="#ArialMT-65" x="49.958984"/>
      <use xlink:href="#ArialMT-73" x="105.574219"/>
      <use xlink:href="#ArialMT-74" x="155.574219"/>
      <use xlink:href="#ArialMT-69" x="183.357422"/>
      <use xlink:href="#ArialMT-6e" x="205.574219"/>
      <use xlink:href="#ArialMT-67" x="261.189453"/>
      <use xlink:href="#ArialMT-20" x="316.804688"/>
      <use xlink:href="#ArialMT-28" x="344.587891"/>
      <use xlink:href="#ArialMT-3bc" x="377.888672"/>
      <use xlink:href="#ArialMT-3d" x="435.505859"/>
      <use xlink:href="#ArialMT-30" x="493.904297"/>
      <use xlink:href="#ArialMT-2e" x="549.519531"/>
      <use xlink:href="#ArialMT-37" x="577.302734"/>
      <use xlink:href="#ArialMT-32" x="632.917969"/>
      <use xlink:href="#ArialMT-25" x="688.533203"/>
      <use xlink:href="#ArialMT-2c" x="777.449219"/>
      <use xlink:href="#ArialMT-20" x="805.232422"/>
      <use xlink:href="#ArialMT-3c3" x="833.015625"/>
      <use xlink:href="#ArialMT-3d" x="894.734375"/>
      <use xlink:href="#ArialMT-30" x="953.132812"/>
      <use xlink:href="#ArialMT-2e" x="1008.748047"/>
      <use xlink:href="#ArialMT-35" x="1036.53125"/>
      <use xlink:href="#ArialMT-38" x="1092.146484"/>
      <use xlink:href="#ArialMT-25" x="1147.761719"/>
      <use xlink:href="#ArialMT-29" x="1236.677734"/>
     </g>
    </g>
   </g>
  </g>
 </g>
 <defs>
  <clipPath id="p2401168c97">
   <rect x="53.8475" y="24.6525" width="647.4325" height="347.515"/>
  </clipPath>
 </defs>
</svg>
