<?xml version="1.0" encoding="utf-8" standalone="no"?>
<!DOCTYPE svg PUBLIC "-//W3C//DTD SVG 1.1//EN"
  "http://www.w3.org/Graphics/SVG/1.1/DTD/svg11.dtd">
<svg xmlns:xlink="http://www.w3.org/1999/xlink" width="708.48pt" height="420.48pt" viewBox="0 0 708.48 420.48" xmlns="http://www.w3.org/2000/svg" version="1.1">
 <metadata>
  <rdf:RDF xmlns:dc="http://purl.org/dc/elements/1.1/" xmlns:cc="http://creativecommons.org/ns#" xmlns:rdf="http://www.w3.org/1999/02/22-rdf-syntax-ns#">
   <cc:Work>
    <dc:type rdf:resource="http://purl.org/dc/dcmitype/StillImage"/>
    <dc:date>2025-01-07T19:32:26.060998</dc:date>
    <dc:format>image/svg+xml</dc:format>
    <dc:creator>
     <cc:Agent>
      <dc:title>Matplotlib v3.9.3, https://matplotlib.org/</dc:title>
     </cc:Agent>
    </dc:creator>
   </cc:Work>
  </rdf:RDF>
 </metadata>
 <defs>
  <style type="text/css">*{stroke-linejoin: round; stroke-linecap: butt}</style>
 </defs>
 <g id="figure_1">
  <g id="patch_1">
   <path d="M 0 420.48 
L 708.48 420.48 
L 708.48 -0 
L 0 -0 
z
" style="fill: #ffffff"/>
  </g>
  <g id="axes_1">
   <g id="patch_2">
    <path d="M 60.520625 372.1675 
L 701.28 372.1675 
L 701.28 24.6525 
L 60.520625 24.6525 
z
" style="fill: #ffffff"/>
   </g>
   <g id="matplotlib.axis_1">
    <g id="xtick_1">
     <g id="line2d_1">
      <path d="M 106.006616 372.1675 
L 106.006616 24.6525 
" clip-path="url(#pee458af186)" style="fill: none; stroke: #cccccc; stroke-opacity: 0.3; stroke-width: 0.5; stroke-linecap: round"/>
     </g>
     <g id="text_1">
      <!-- −2 -->
      <g style="fill: #262626" transform="translate(99.165678 387.756875) scale(0.12 -0.12)">
       <defs>
        <path id="ArialMT-2212" d="M 3381 1997 
L 356 1997 
L 356 2522 
L 3381 2522 
L 3381 1997 
z
" transform="scale(0.015625)"/>
        <path id="ArialMT-32" d="M 3222 541 
L 3222 0 
L 194 0 
Q 188 203 259 391 
Q 375 700 629 1000 
Q 884 1300 1366 1694 
Q 2113 2306 2375 2664 
Q 2638 3022 2638 3341 
Q 2638 3675 2398 3904 
Q 2159 4134 1775 4134 
Q 1369 4134 1125 3890 
Q 881 3647 878 3216 
L 300 3275 
Q 359 3922 746 4261 
Q 1134 4600 1788 4600 
Q 2447 4600 2831 4234 
Q 3216 3869 3216 3328 
Q 3216 3053 3103 2787 
Q 2991 2522 2730 2228 
Q 2469 1934 1863 1422 
Q 1356 997 1212 845 
Q 1069 694 975 541 
L 3222 541 
z
" transform="scale(0.015625)"/>
       </defs>
       <use xlink:href="#ArialMT-2212"/>
       <use xlink:href="#ArialMT-32" x="58.398438"/>
      </g>
     </g>
    </g>
    <g id="xtick_2">
     <g id="line2d_2">
      <path d="M 240.314458 372.1675 
L 240.314458 24.6525 
" clip-path="url(#pee458af186)" style="fill: none; stroke: #cccccc; stroke-opacity: 0.3; stroke-width: 0.5; stroke-linecap: round"/>
     </g>
     <g id="text_2">
      <!-- 0 -->
      <g style="fill: #262626" transform="translate(236.977896 387.756875) scale(0.12 -0.12)">
       <defs>
        <path id="ArialMT-30" d="M 266 2259 
Q 266 3072 433 3567 
Q 600 4063 929 4331 
Q 1259 4600 1759 4600 
Q 2128 4600 2406 4451 
Q 2684 4303 2865 4023 
Q 3047 3744 3150 3342 
Q 3253 2941 3253 2259 
Q 3253 1453 3087 958 
Q 2922 463 2592 192 
Q 2263 -78 1759 -78 
Q 1097 -78 719 397 
Q 266 969 266 2259 
z
M 844 2259 
Q 844 1131 1108 757 
Q 1372 384 1759 384 
Q 2147 384 2411 759 
Q 2675 1134 2675 2259 
Q 2675 3391 2411 3762 
Q 2147 4134 1753 4134 
Q 1366 4134 1134 3806 
Q 844 3388 844 2259 
z
" transform="scale(0.015625)"/>
       </defs>
       <use xlink:href="#ArialMT-30"/>
      </g>
     </g>
    </g>
    <g id="xtick_3">
     <g id="line2d_3">
      <path d="M 374.622301 372.1675 
L 374.622301 24.6525 
" clip-path="url(#pee458af186)" style="fill: none; stroke: #cccccc; stroke-opacity: 0.3; stroke-width: 0.5; stroke-linecap: round"/>
     </g>
     <g id="text_3">
      <!-- 2 -->
      <g style="fill: #262626" transform="translate(371.285738 387.756875) scale(0.12 -0.12)">
       <use xlink:href="#ArialMT-32"/>
      </g>
     </g>
    </g>
    <g id="xtick_4">
     <g id="line2d_4">
      <path d="M 508.930143 372.1675 
L 508.930143 24.6525 
" clip-path="url(#pee458af186)" style="fill: none; stroke: #cccccc; stroke-opacity: 0.3; stroke-width: 0.5; stroke-linecap: round"/>
     </g>
     <g id="text_4">
      <!-- 4 -->
      <g style="fill: #262626" transform="translate(505.593581 387.756875) scale(0.12 -0.12)">
       <defs>
        <path id="ArialMT-34" d="M 2069 0 
L 2069 1097 
L 81 1097 
L 81 1613 
L 2172 4581 
L 2631 4581 
L 2631 1613 
L 3250 1613 
L 3250 1097 
L 2631 1097 
L 2631 0 
L 2069 0 
z
M 2069 1613 
L 2069 3678 
L 634 1613 
L 2069 1613 
z
" transform="scale(0.015625)"/>
       </defs>
       <use xlink:href="#ArialMT-34"/>
      </g>
     </g>
    </g>
    <g id="xtick_5">
     <g id="line2d_5">
      <path d="M 643.237985 372.1675 
L 643.237985 24.6525 
" clip-path="url(#pee458af186)" style="fill: none; stroke: #cccccc; stroke-opacity: 0.3; stroke-width: 0.5; stroke-linecap: round"/>
     </g>
     <g id="text_5">
      <!-- 6 -->
      <g style="fill: #262626" transform="translate(639.901423 387.756875) scale(0.12 -0.12)">
       <defs>
        <path id="ArialMT-36" d="M 3184 3459 
L 2625 3416 
Q 2550 3747 2413 3897 
Q 2184 4138 1850 4138 
Q 1581 4138 1378 3988 
Q 1113 3794 959 3422 
Q 806 3050 800 2363 
Q 1003 2672 1297 2822 
Q 1591 2972 1913 2972 
Q 2475 2972 2870 2558 
Q 3266 2144 3266 1488 
Q 3266 1056 3080 686 
Q 2894 316 2569 119 
Q 2244 -78 1831 -78 
Q 1128 -78 684 439 
Q 241 956 241 2144 
Q 241 3472 731 4075 
Q 1159 4600 1884 4600 
Q 2425 4600 2770 4297 
Q 3116 3994 3184 3459 
z
M 888 1484 
Q 888 1194 1011 928 
Q 1134 663 1356 523 
Q 1578 384 1822 384 
Q 2178 384 2434 671 
Q 2691 959 2691 1453 
Q 2691 1928 2437 2201 
Q 2184 2475 1800 2475 
Q 1419 2475 1153 2201 
Q 888 1928 888 1484 
z
" transform="scale(0.015625)"/>
       </defs>
       <use xlink:href="#ArialMT-36"/>
      </g>
     </g>
    </g>
    <g id="text_6">
     <!-- Error (%) -->
     <g style="fill: #262626" transform="translate(352.515312 410.333438) scale(0.14 -0.14)">
      <defs>
       <path id="ArialMT-45" d="M 506 0 
L 506 4581 
L 3819 4581 
L 3819 4041 
L 1113 4041 
L 1113 2638 
L 3647 2638 
L 3647 2100 
L 1113 2100 
L 1113 541 
L 3925 541 
L 3925 0 
L 506 0 
z
" transform="scale(0.015625)"/>
       <path id="ArialMT-72" d="M 416 0 
L 416 3319 
L 922 3319 
L 922 2816 
Q 1116 3169 1280 3281 
Q 1444 3394 1641 3394 
Q 1925 3394 2219 3213 
L 2025 2691 
Q 1819 2813 1613 2813 
Q 1428 2813 1281 2702 
Q 1134 2591 1072 2394 
Q 978 2094 978 1738 
L 978 0 
L 416 0 
z
" transform="scale(0.015625)"/>
       <path id="ArialMT-6f" d="M 213 1659 
Q 213 2581 725 3025 
Q 1153 3394 1769 3394 
Q 2453 3394 2887 2945 
Q 3322 2497 3322 1706 
Q 3322 1066 3130 698 
Q 2938 331 2570 128 
Q 2203 -75 1769 -75 
Q 1072 -75 642 372 
Q 213 819 213 1659 
z
M 791 1659 
Q 791 1022 1069 705 
Q 1347 388 1769 388 
Q 2188 388 2466 706 
Q 2744 1025 2744 1678 
Q 2744 2294 2464 2611 
Q 2184 2928 1769 2928 
Q 1347 2928 1069 2612 
Q 791 2297 791 1659 
z
" transform="scale(0.015625)"/>
       <path id="ArialMT-20" transform="scale(0.015625)"/>
       <path id="ArialMT-28" d="M 1497 -1347 
Q 1031 -759 709 28 
Q 388 816 388 1659 
Q 388 2403 628 3084 
Q 909 3875 1497 4659 
L 1900 4659 
Q 1522 4009 1400 3731 
Q 1209 3300 1100 2831 
Q 966 2247 966 1656 
Q 966 153 1900 -1347 
L 1497 -1347 
z
" transform="scale(0.015625)"/>
       <path id="ArialMT-25" d="M 372 3481 
Q 372 3972 619 4315 
Q 866 4659 1334 4659 
Q 1766 4659 2048 4351 
Q 2331 4044 2331 3447 
Q 2331 2866 2045 2552 
Q 1759 2238 1341 2238 
Q 925 2238 648 2547 
Q 372 2856 372 3481 
z
M 1350 4272 
Q 1141 4272 1002 4090 
Q 863 3909 863 3425 
Q 863 2984 1003 2804 
Q 1144 2625 1350 2625 
Q 1563 2625 1702 2806 
Q 1841 2988 1841 3469 
Q 1841 3913 1700 4092 
Q 1559 4272 1350 4272 
z
M 1353 -169 
L 3859 4659 
L 4316 4659 
L 1819 -169 
L 1353 -169 
z
M 3334 1075 
Q 3334 1569 3581 1911 
Q 3828 2253 4300 2253 
Q 4731 2253 5014 1945 
Q 5297 1638 5297 1041 
Q 5297 459 5011 145 
Q 4725 -169 4303 -169 
Q 3888 -169 3611 142 
Q 3334 453 3334 1075 
z
M 4316 1866 
Q 4103 1866 3964 1684 
Q 3825 1503 3825 1019 
Q 3825 581 3965 400 
Q 4106 219 4313 219 
Q 4528 219 4667 400 
Q 4806 581 4806 1063 
Q 4806 1506 4665 1686 
Q 4525 1866 4316 1866 
z
" transform="scale(0.015625)"/>
       <path id="ArialMT-29" d="M 791 -1347 
L 388 -1347 
Q 1322 153 1322 1656 
Q 1322 2244 1188 2822 
Q 1081 3291 891 3722 
Q 769 4003 388 4659 
L 791 4659 
Q 1378 3875 1659 3084 
Q 1900 2403 1900 1659 
Q 1900 816 1576 28 
Q 1253 -759 791 -1347 
z
" transform="scale(0.015625)"/>
      </defs>
      <use xlink:href="#ArialMT-45"/>
      <use xlink:href="#ArialMT-72" x="66.699219"/>
      <use xlink:href="#ArialMT-72" x="100"/>
      <use xlink:href="#ArialMT-6f" x="133.300781"/>
      <use xlink:href="#ArialMT-72" x="188.916016"/>
      <use xlink:href="#ArialMT-20" x="222.216797"/>
      <use xlink:href="#ArialMT-28" x="250"/>
      <use xlink:href="#ArialMT-25" x="283.300781"/>
      <use xlink:href="#ArialMT-29" x="372.216797"/>
     </g>
    </g>
   </g>
   <g id="matplotlib.axis_2">
    <g id="ytick_1">
     <g id="line2d_6">
      <path d="M 60.520625 372.1675 
L 701.28 372.1675 
" clip-path="url(#pee458af186)" style="fill: none; stroke: #cccccc; stroke-opacity: 0.3; stroke-width: 0.5; stroke-linecap: round"/>
     </g>
     <g id="text_7">
      <!-- 0.00 -->
      <g style="fill: #262626" transform="translate(30.1675 376.462188) scale(0.12 -0.12)">
       <defs>
        <path id="ArialMT-2e" d="M 581 0 
L 581 641 
L 1222 641 
L 1222 0 
L 581 0 
z
" transform="scale(0.015625)"/>
       </defs>
       <use xlink:href="#ArialMT-30"/>
       <use xlink:href="#ArialMT-2e" x="55.615234"/>
       <use xlink:href="#ArialMT-30" x="83.398438"/>
       <use xlink:href="#ArialMT-30" x="139.013672"/>
      </g>
     </g>
    </g>
    <g id="ytick_2">
     <g id="line2d_7">
      <path d="M 60.520625 317.203861 
L 701.28 317.203861 
" clip-path="url(#pee458af186)" style="fill: none; stroke: #cccccc; stroke-opacity: 0.3; stroke-width: 0.5; stroke-linecap: round"/>
     </g>
     <g id="text_8">
      <!-- 0.05 -->
      <g style="fill: #262626" transform="translate(30.1675 321.498549) scale(0.12 -0.12)">
       <defs>
        <path id="ArialMT-35" d="M 266 1200 
L 856 1250 
Q 922 819 1161 601 
Q 1400 384 1738 384 
Q 2144 384 2425 690 
Q 2706 997 2706 1503 
Q 2706 1984 2436 2262 
Q 2166 2541 1728 2541 
Q 1456 2541 1237 2417 
Q 1019 2294 894 2097 
L 366 2166 
L 809 4519 
L 3088 4519 
L 3088 3981 
L 1259 3981 
L 1013 2750 
Q 1425 3038 1878 3038 
Q 2478 3038 2890 2622 
Q 3303 2206 3303 1553 
Q 3303 931 2941 478 
Q 2500 -78 1738 -78 
Q 1113 -78 717 272 
Q 322 622 266 1200 
z
" transform="scale(0.015625)"/>
       </defs>
       <use xlink:href="#ArialMT-30"/>
       <use xlink:href="#ArialMT-2e" x="55.615234"/>
       <use xlink:href="#ArialMT-30" x="83.398438"/>
       <use xlink:href="#ArialMT-35" x="139.013672"/>
      </g>
     </g>
    </g>
    <g id="ytick_3">
     <g id="line2d_8">
      <path d="M 60.520625 262.240222 
L 701.28 262.240222 
" clip-path="url(#pee458af186)" style="fill: none; stroke: #cccccc; stroke-opacity: 0.3; stroke-width: 0.5; stroke-linecap: round"/>
     </g>
     <g id="text_9">
      <!-- 0.10 -->
      <g style="fill: #262626" transform="translate(30.1675 266.53491) scale(0.12 -0.12)">
       <defs>
        <path id="ArialMT-31" d="M 2384 0 
L 1822 0 
L 1822 3584 
Q 1619 3391 1289 3197 
Q 959 3003 697 2906 
L 697 3450 
Q 1169 3672 1522 3987 
Q 1875 4303 2022 4600 
L 2384 4600 
L 2384 0 
z
" transform="scale(0.015625)"/>
       </defs>
       <use xlink:href="#ArialMT-30"/>
       <use xlink:href="#ArialMT-2e" x="55.615234"/>
       <use xlink:href="#ArialMT-31" x="83.398438"/>
       <use xlink:href="#ArialMT-30" x="139.013672"/>
      </g>
     </g>
    </g>
    <g id="ytick_4">
     <g id="line2d_9">
      <path d="M 60.520625 207.276584 
L 701.28 207.276584 
" clip-path="url(#pee458af186)" style="fill: none; stroke: #cccccc; stroke-opacity: 0.3; stroke-width: 0.5; stroke-linecap: round"/>
     </g>
     <g id="text_10">
      <!-- 0.15 -->
      <g style="fill: #262626" transform="translate(30.1675 211.571271) scale(0.12 -0.12)">
       <use xlink:href="#ArialMT-30"/>
       <use xlink:href="#ArialMT-2e" x="55.615234"/>
       <use xlink:href="#ArialMT-31" x="83.398438"/>
       <use xlink:href="#ArialMT-35" x="139.013672"/>
      </g>
     </g>
    </g>
    <g id="ytick_5">
     <g id="line2d_10">
      <path d="M 60.520625 152.312945 
L 701.28 152.312945 
" clip-path="url(#pee458af186)" style="fill: none; stroke: #cccccc; stroke-opacity: 0.3; stroke-width: 0.5; stroke-linecap: round"/>
     </g>
     <g id="text_11">
      <!-- 0.20 -->
      <g style="fill: #262626" transform="translate(30.1675 156.607632) scale(0.12 -0.12)">
       <use xlink:href="#ArialMT-30"/>
       <use xlink:href="#ArialMT-2e" x="55.615234"/>
       <use xlink:href="#ArialMT-32" x="83.398438"/>
       <use xlink:href="#ArialMT-30" x="139.013672"/>
      </g>
     </g>
    </g>
    <g id="ytick_6">
     <g id="line2d_11">
      <path d="M 60.520625 97.349306 
L 701.28 97.349306 
" clip-path="url(#pee458af186)" style="fill: none; stroke: #cccccc; stroke-opacity: 0.3; stroke-width: 0.5; stroke-linecap: round"/>
     </g>
     <g id="text_12">
      <!-- 0.25 -->
      <g style="fill: #262626" transform="translate(30.1675 101.643994) scale(0.12 -0.12)">
       <use xlink:href="#ArialMT-30"/>
       <use xlink:href="#ArialMT-2e" x="55.615234"/>
       <use xlink:href="#ArialMT-32" x="83.398438"/>
       <use xlink:href="#ArialMT-35" x="139.013672"/>
      </g>
     </g>
    </g>
    <g id="ytick_7">
     <g id="line2d_12">
      <path d="M 60.520625 42.385667 
L 701.28 42.385667 
" clip-path="url(#pee458af186)" style="fill: none; stroke: #cccccc; stroke-opacity: 0.3; stroke-width: 0.5; stroke-linecap: round"/>
     </g>
     <g id="text_13">
      <!-- 0.30 -->
      <g style="fill: #262626" transform="translate(30.1675 46.680355) scale(0.12 -0.12)">
       <defs>
        <path id="ArialMT-33" d="M 269 1209 
L 831 1284 
Q 928 806 1161 595 
Q 1394 384 1728 384 
Q 2125 384 2398 659 
Q 2672 934 2672 1341 
Q 2672 1728 2419 1979 
Q 2166 2231 1775 2231 
Q 1616 2231 1378 2169 
L 1441 2663 
Q 1497 2656 1531 2656 
Q 1891 2656 2178 2843 
Q 2466 3031 2466 3422 
Q 2466 3731 2256 3934 
Q 2047 4138 1716 4138 
Q 1388 4138 1169 3931 
Q 950 3725 888 3313 
L 325 3413 
Q 428 3978 793 4289 
Q 1159 4600 1703 4600 
Q 2078 4600 2393 4439 
Q 2709 4278 2876 4000 
Q 3044 3722 3044 3409 
Q 3044 3113 2884 2869 
Q 2725 2625 2413 2481 
Q 2819 2388 3044 2092 
Q 3269 1797 3269 1353 
Q 3269 753 2831 336 
Q 2394 -81 1725 -81 
Q 1122 -81 723 278 
Q 325 638 269 1209 
z
" transform="scale(0.015625)"/>
       </defs>
       <use xlink:href="#ArialMT-30"/>
       <use xlink:href="#ArialMT-2e" x="55.615234"/>
       <use xlink:href="#ArialMT-33" x="83.398438"/>
       <use xlink:href="#ArialMT-30" x="139.013672"/>
      </g>
     </g>
    </g>
    <g id="text_14">
     <!-- Density -->
     <g style="fill: #262626" transform="translate(17.220938 221.750625) rotate(-90) scale(0.14 -0.14)">
      <defs>
       <path id="ArialMT-44" d="M 494 0 
L 494 4581 
L 2072 4581 
Q 2606 4581 2888 4516 
Q 3281 4425 3559 4188 
Q 3922 3881 4101 3404 
Q 4281 2928 4281 2316 
Q 4281 1794 4159 1391 
Q 4038 988 3847 723 
Q 3656 459 3429 307 
Q 3203 156 2883 78 
Q 2563 0 2147 0 
L 494 0 
z
M 1100 541 
L 2078 541 
Q 2531 541 2789 625 
Q 3047 709 3200 863 
Q 3416 1078 3536 1442 
Q 3656 1806 3656 2325 
Q 3656 3044 3420 3430 
Q 3184 3816 2847 3947 
Q 2603 4041 2063 4041 
L 1100 4041 
L 1100 541 
z
" transform="scale(0.015625)"/>
       <path id="ArialMT-65" d="M 2694 1069 
L 3275 997 
Q 3138 488 2766 206 
Q 2394 -75 1816 -75 
Q 1088 -75 661 373 
Q 234 822 234 1631 
Q 234 2469 665 2931 
Q 1097 3394 1784 3394 
Q 2450 3394 2872 2941 
Q 3294 2488 3294 1666 
Q 3294 1616 3291 1516 
L 816 1516 
Q 847 969 1125 678 
Q 1403 388 1819 388 
Q 2128 388 2347 550 
Q 2566 713 2694 1069 
z
M 847 1978 
L 2700 1978 
Q 2663 2397 2488 2606 
Q 2219 2931 1791 2931 
Q 1403 2931 1139 2672 
Q 875 2413 847 1978 
z
" transform="scale(0.015625)"/>
       <path id="ArialMT-6e" d="M 422 0 
L 422 3319 
L 928 3319 
L 928 2847 
Q 1294 3394 1984 3394 
Q 2284 3394 2536 3286 
Q 2788 3178 2913 3003 
Q 3038 2828 3088 2588 
Q 3119 2431 3119 2041 
L 3119 0 
L 2556 0 
L 2556 2019 
Q 2556 2363 2490 2533 
Q 2425 2703 2258 2804 
Q 2091 2906 1866 2906 
Q 1506 2906 1245 2678 
Q 984 2450 984 1813 
L 984 0 
L 422 0 
z
" transform="scale(0.015625)"/>
       <path id="ArialMT-73" d="M 197 991 
L 753 1078 
Q 800 744 1014 566 
Q 1228 388 1613 388 
Q 2000 388 2187 545 
Q 2375 703 2375 916 
Q 2375 1106 2209 1216 
Q 2094 1291 1634 1406 
Q 1016 1563 777 1677 
Q 538 1791 414 1992 
Q 291 2194 291 2438 
Q 291 2659 392 2848 
Q 494 3038 669 3163 
Q 800 3259 1026 3326 
Q 1253 3394 1513 3394 
Q 1903 3394 2198 3281 
Q 2494 3169 2634 2976 
Q 2775 2784 2828 2463 
L 2278 2388 
Q 2241 2644 2061 2787 
Q 1881 2931 1553 2931 
Q 1166 2931 1000 2803 
Q 834 2675 834 2503 
Q 834 2394 903 2306 
Q 972 2216 1119 2156 
Q 1203 2125 1616 2013 
Q 2213 1853 2448 1751 
Q 2684 1650 2818 1456 
Q 2953 1263 2953 975 
Q 2953 694 2789 445 
Q 2625 197 2315 61 
Q 2006 -75 1616 -75 
Q 969 -75 630 194 
Q 291 463 197 991 
z
" transform="scale(0.015625)"/>
       <path id="ArialMT-69" d="M 425 3934 
L 425 4581 
L 988 4581 
L 988 3934 
L 425 3934 
z
M 425 0 
L 425 3319 
L 988 3319 
L 988 0 
L 425 0 
z
" transform="scale(0.015625)"/>
       <path id="ArialMT-74" d="M 1650 503 
L 1731 6 
Q 1494 -44 1306 -44 
Q 1000 -44 831 53 
Q 663 150 594 308 
Q 525 466 525 972 
L 525 2881 
L 113 2881 
L 113 3319 
L 525 3319 
L 525 4141 
L 1084 4478 
L 1084 3319 
L 1650 3319 
L 1650 2881 
L 1084 2881 
L 1084 941 
Q 1084 700 1114 631 
Q 1144 563 1211 522 
Q 1278 481 1403 481 
Q 1497 481 1650 503 
z
" transform="scale(0.015625)"/>
       <path id="ArialMT-79" d="M 397 -1278 
L 334 -750 
Q 519 -800 656 -800 
Q 844 -800 956 -737 
Q 1069 -675 1141 -563 
Q 1194 -478 1313 -144 
Q 1328 -97 1363 -6 
L 103 3319 
L 709 3319 
L 1400 1397 
Q 1534 1031 1641 628 
Q 1738 1016 1872 1384 
L 2581 3319 
L 3144 3319 
L 1881 -56 
Q 1678 -603 1566 -809 
Q 1416 -1088 1222 -1217 
Q 1028 -1347 759 -1347 
Q 597 -1347 397 -1278 
z
" transform="scale(0.015625)"/>
      </defs>
      <use xlink:href="#ArialMT-44"/>
      <use xlink:href="#ArialMT-65" x="72.216797"/>
      <use xlink:href="#ArialMT-6e" x="127.832031"/>
      <use xlink:href="#ArialMT-73" x="183.447266"/>
      <use xlink:href="#ArialMT-69" x="233.447266"/>
      <use xlink:href="#ArialMT-74" x="255.664062"/>
      <use xlink:href="#ArialMT-79" x="283.447266"/>
     </g>
    </g>
   </g>
   <g id="PolyCollection_1">
    <defs>
     <path id="mabe6d1e5ef" d="M 130.48407 -48.982887 
L 130.48407 -48.3125 
L 133.206032 -48.3125 
L 135.927994 -48.3125 
L 138.649957 -48.3125 
L 141.371919 -48.3125 
L 144.093881 -48.3125 
L 146.815844 -48.3125 
L 149.537806 -48.3125 
L 152.259768 -48.3125 
L 154.981731 -48.3125 
L 157.703693 -48.3125 
L 160.425655 -48.3125 
L 163.147618 -48.3125 
L 165.86958 -48.3125 
L 168.591542 -48.3125 
L 171.313505 -48.3125 
L 174.035467 -48.3125 
L 176.757429 -48.3125 
L 179.479392 -48.3125 
L 182.201354 -48.3125 
L 184.923316 -48.3125 
L 187.645279 -48.3125 
L 190.367241 -48.3125 
L 193.089203 -48.3125 
L 195.811166 -48.3125 
L 198.533128 -48.3125 
L 201.25509 -48.3125 
L 203.977053 -48.3125 
L 206.699015 -48.3125 
L 209.420977 -48.3125 
L 212.14294 -48.3125 
L 214.864902 -48.3125 
L 217.586864 -48.3125 
L 220.308827 -48.3125 
L 223.030789 -48.3125 
L 225.752751 -48.3125 
L 228.474714 -48.3125 
L 231.196676 -48.3125 
L 233.918638 -48.3125 
L 236.640601 -48.3125 
L 239.362563 -48.3125 
L 242.084525 -48.3125 
L 244.806488 -48.3125 
L 247.52845 -48.3125 
L 250.250412 -48.3125 
L 252.972375 -48.3125 
L 255.694337 -48.3125 
L 258.416299 -48.3125 
L 261.138262 -48.3125 
L 263.860224 -48.3125 
L 266.582186 -48.3125 
L 269.304149 -48.3125 
L 272.026111 -48.3125 
L 274.748073 -48.3125 
L 277.470036 -48.3125 
L 280.191998 -48.3125 
L 282.91396 -48.3125 
L 285.635923 -48.3125 
L 288.357885 -48.3125 
L 291.079847 -48.3125 
L 293.80181 -48.3125 
L 296.523772 -48.3125 
L 299.245734 -48.3125 
L 301.967697 -48.3125 
L 304.689659 -48.3125 
L 307.411621 -48.3125 
L 310.133584 -48.3125 
L 312.855546 -48.3125 
L 315.577508 -48.3125 
L 318.299471 -48.3125 
L 321.021433 -48.3125 
L 323.743395 -48.3125 
L 326.465358 -48.3125 
L 329.18732 -48.3125 
L 331.909282 -48.3125 
L 334.631245 -48.3125 
L 337.353207 -48.3125 
L 340.075169 -48.3125 
L 342.797132 -48.3125 
L 345.519094 -48.3125 
L 348.241056 -48.3125 
L 350.963019 -48.3125 
L 353.684981 -48.3125 
L 356.406943 -48.3125 
L 359.128906 -48.3125 
L 361.850868 -48.3125 
L 364.57283 -48.3125 
L 367.294793 -48.3125 
L 370.016755 -48.3125 
L 372.738717 -48.3125 
L 375.46068 -48.3125 
L 378.182642 -48.3125 
L 380.904604 -48.3125 
L 383.626567 -48.3125 
L 386.348529 -48.3125 
L 389.070491 -48.3125 
L 391.792454 -48.3125 
L 394.514416 -48.3125 
L 397.236378 -48.3125 
L 399.958341 -48.3125 
L 402.680303 -48.3125 
L 405.402265 -48.3125 
L 408.124228 -48.3125 
L 410.84619 -48.3125 
L 413.568152 -48.3125 
L 416.290115 -48.3125 
L 419.012077 -48.3125 
L 421.734039 -48.3125 
L 424.456002 -48.3125 
L 427.177964 -48.3125 
L 429.899926 -48.3125 
L 432.621889 -48.3125 
L 435.343851 -48.3125 
L 438.065813 -48.3125 
L 440.787776 -48.3125 
L 443.509738 -48.3125 
L 446.2317 -48.3125 
L 448.953663 -48.3125 
L 451.675625 -48.3125 
L 454.397587 -48.3125 
L 457.11955 -48.3125 
L 459.841512 -48.3125 
L 462.563474 -48.3125 
L 465.285437 -48.3125 
L 468.007399 -48.3125 
L 470.729361 -48.3125 
L 473.451324 -48.3125 
L 476.173286 -48.3125 
L 478.895248 -48.3125 
L 481.617211 -48.3125 
L 484.339173 -48.3125 
L 487.061135 -48.3125 
L 489.783098 -48.3125 
L 492.50506 -48.3125 
L 495.227022 -48.3125 
L 497.948985 -48.3125 
L 500.670947 -48.3125 
L 503.392909 -48.3125 
L 506.114872 -48.3125 
L 508.836834 -48.3125 
L 511.558796 -48.3125 
L 514.280759 -48.3125 
L 517.002721 -48.3125 
L 519.724683 -48.3125 
L 522.446646 -48.3125 
L 525.168608 -48.3125 
L 527.89057 -48.3125 
L 530.612533 -48.3125 
L 533.334495 -48.3125 
L 536.056457 -48.3125 
L 538.77842 -48.3125 
L 541.500382 -48.3125 
L 544.222344 -48.3125 
L 546.944307 -48.3125 
L 549.666269 -48.3125 
L 552.388231 -48.3125 
L 555.110194 -48.3125 
L 557.832156 -48.3125 
L 560.554118 -48.3125 
L 563.276081 -48.3125 
L 565.998043 -48.3125 
L 568.720005 -48.3125 
L 571.441968 -48.3125 
L 574.16393 -48.3125 
L 576.885892 -48.3125 
L 579.607855 -48.3125 
L 582.329817 -48.3125 
L 585.051779 -48.3125 
L 587.773742 -48.3125 
L 590.495704 -48.3125 
L 593.217666 -48.3125 
L 595.939629 -48.3125 
L 598.661591 -48.3125 
L 601.383553 -48.3125 
L 604.105516 -48.3125 
L 606.827478 -48.3125 
L 609.54944 -48.3125 
L 612.271403 -48.3125 
L 614.993365 -48.3125 
L 617.715327 -48.3125 
L 620.43729 -48.3125 
L 623.159252 -48.3125 
L 625.881214 -48.3125 
L 628.603177 -48.3125 
L 631.325139 -48.3125 
L 634.047101 -48.3125 
L 636.769064 -48.3125 
L 639.491026 -48.3125 
L 642.212988 -48.3125 
L 644.934951 -48.3125 
L 647.656913 -48.3125 
L 650.378875 -48.3125 
L 653.100838 -48.3125 
L 655.8228 -48.3125 
L 658.544762 -48.3125 
L 661.266725 -48.3125 
L 663.988687 -48.3125 
L 666.710649 -48.3125 
L 669.432612 -48.3125 
L 672.154574 -48.3125 
L 672.154574 -48.558453 
L 672.154574 -48.558453 
L 669.432612 -48.615301 
L 666.710649 -48.683636 
L 663.988687 -48.765386 
L 661.266725 -48.862714 
L 658.544762 -48.978033 
L 655.8228 -49.114018 
L 653.100838 -49.273606 
L 650.378875 -49.460005 
L 647.656913 -49.676686 
L 644.934951 -49.927381 
L 642.212988 -50.216064 
L 639.491026 -50.546936 
L 636.769064 -50.924395 
L 634.047101 -51.353005 
L 631.325139 -51.837454 
L 628.603177 -52.382512 
L 625.881214 -52.992976 
L 623.159252 -53.673614 
L 620.43729 -54.429105 
L 617.715327 -55.263972 
L 614.993365 -56.182521 
L 612.271403 -57.188776 
L 609.54944 -58.286411 
L 606.827478 -59.478696 
L 604.105516 -60.768441 
L 601.383553 -62.157946 
L 598.661591 -63.648965 
L 595.939629 -65.242678 
L 593.217666 -66.939667 
L 590.495704 -68.739913 
L 587.773742 -70.642796 
L 585.051779 -72.647114 
L 582.329817 -74.751106 
L 579.607855 -76.952485 
L 576.885892 -79.24849 
L 574.16393 -81.635929 
L 571.441968 -84.111239 
L 568.720005 -86.670547 
L 565.998043 -89.309728 
L 563.276081 -92.024468 
L 560.554118 -94.810325 
L 557.832156 -97.662781 
L 555.110194 -100.577294 
L 552.388231 -103.54934 
L 549.666269 -106.574458 
L 546.944307 -109.648276 
L 544.222344 -112.766541 
L 541.500382 -115.925136 
L 538.77842 -119.120101 
L 536.056457 -122.347641 
L 533.334495 -125.604136 
L 530.612533 -128.88615 
L 527.89057 -132.190442 
L 525.168608 -135.513965 
L 522.446646 -138.853883 
L 519.724683 -142.20758 
L 517.002721 -145.572665 
L 514.280759 -148.946993 
L 511.558796 -152.328668 
L 508.836834 -155.71606 
L 506.114872 -159.107814 
L 503.392909 -162.50285 
L 500.670947 -165.900371 
L 497.948985 -169.299849 
L 495.227022 -172.701024 
L 492.50506 -176.103875 
L 489.783098 -179.508596 
L 487.061135 -182.915563 
L 484.339173 -186.325291 
L 481.617211 -189.738385 
L 478.895248 -193.155495 
L 476.173286 -196.577257 
L 473.451324 -200.004245 
L 470.729361 -203.436922 
L 468.007399 -206.875598 
L 465.285437 -210.320397 
L 462.563474 -213.771231 
L 459.841512 -217.227793 
L 457.11955 -220.689558 
L 454.397587 -224.155801 
L 451.675625 -227.625629 
L 448.953663 -231.098028 
L 446.2317 -234.571918 
L 443.509738 -238.046221 
L 440.787776 -241.519936 
L 438.065813 -244.992212 
L 435.343851 -248.462432 
L 432.621889 -251.930277 
L 429.899926 -255.395798 
L 427.177964 -258.859464 
L 424.456002 -262.322203 
L 421.734039 -265.785417 
L 419.012077 -269.250983 
L 416.290115 -272.721228 
L 413.568152 -276.198876 
L 410.84619 -279.686984 
L 408.124228 -283.188834 
L 405.402265 -286.707823 
L 402.680303 -290.247315 
L 399.958341 -293.810483 
L 397.236378 -297.400139 
L 394.514416 -301.018538 
L 391.792454 -304.66719 
L 389.070491 -308.34666 
L 386.348529 -312.056371 
L 383.626567 -315.794414 
L 380.904604 -319.55737 
L 378.182642 -323.340149 
L 375.46068 -327.135851 
L 372.738717 -330.935652 
L 370.016755 -334.728723 
L 367.294793 -338.502187 
L 364.57283 -342.241108 
L 361.850868 -345.928528 
L 359.128906 -349.54554 
L 356.406943 -353.071412 
L 353.684981 -356.483747 
L 350.963019 -359.758684 
L 348.241056 -362.871145 
L 345.519094 -365.795101 
L 342.797132 -368.503883 
L 340.075169 -370.970499 
L 337.353207 -373.167978 
L 334.631245 -375.069712 
L 331.909282 -376.649806 
L 329.18732 -377.883413 
L 326.465358 -378.747057 
L 323.743395 -379.21893 
L 321.021433 -379.279167 
L 318.299471 -378.910083 
L 315.577508 -378.096374 
L 312.855546 -376.825286 
L 310.133584 -375.086733 
L 307.411621 -372.873395 
L 304.689659 -370.180764 
L 301.967697 -367.007167 
L 299.245734 -363.353762 
L 296.523772 -359.224505 
L 293.80181 -354.6261 
L 291.079847 -349.567941 
L 288.357885 -344.062036 
L 285.635923 -338.12293 
L 282.91396 -331.767621 
L 280.191998 -325.015476 
L 277.470036 -317.888142 
L 274.748073 -310.409456 
L 272.026111 -302.605347 
L 269.304149 -294.50373 
L 266.582186 -286.134389 
L 263.860224 -277.52884 
L 261.138262 -268.720179 
L 258.416299 -259.742901 
L 255.694337 -250.632696 
L 252.972375 -241.426213 
L 250.250412 -232.160795 
L 247.52845 -222.87419 
L 244.806488 -213.604231 
L 242.084525 -204.388493 
L 239.362563 -195.263935 
L 236.640601 -186.266536 
L 233.918638 -177.430919 
L 231.196676 -168.78999 
L 228.474714 -160.374587 
L 225.752751 -152.213151 
L 223.030789 -144.331439 
L 220.308827 -136.752265 
L 217.586864 -129.495294 
L 214.864902 -122.57689 
L 212.14294 -116.010017 
L 209.420977 -109.804198 
L 206.699015 -103.965533 
L 203.977053 -98.496775 
L 201.25509 -93.397456 
L 198.533128 -88.664072 
L 195.811166 -84.290295 
L 193.089203 -80.267237 
L 190.367241 -76.583733 
L 187.645279 -73.226649 
L 184.923316 -70.181201 
L 182.201354 -67.431278 
L 179.479392 -64.959763 
L 176.757429 -62.748843 
L 174.035467 -60.780304 
L 171.313505 -59.035804 
L 168.591542 -57.497122 
L 165.86958 -56.146375 
L 163.147618 -54.966212 
L 160.425655 -53.939971 
L 157.703693 -53.051806 
L 154.981731 -52.28679 
L 152.259768 -51.630977 
L 149.537806 -51.071455 
L 146.815844 -50.596358 
L 144.093881 -50.19487 
L 141.371919 -49.857204 
L 138.649957 -49.574571 
L 135.927994 -49.33913 
L 133.206032 -49.143938 
L 130.48407 -48.982887 
z
" style="stroke: #2ecc71"/>
    </defs>
    <g clip-path="url(#pee458af186)">
     <use xlink:href="#mabe6d1e5ef" x="0" y="420.48" style="fill: #2ecc71; fill-opacity: 0.3; stroke: #2ecc71"/>
    </g>
   </g>
   <g id="PolyCollection_2">
    <defs>
     <path id="m0e0911b039" d="M 89.646051 -49.595756 
L 89.646051 -48.3125 
L 92.497638 -48.3125 
L 95.349226 -48.3125 
L 98.200813 -48.3125 
L 101.052401 -48.3125 
L 103.903988 -48.3125 
L 106.755575 -48.3125 
L 109.607163 -48.3125 
L 112.45875 -48.3125 
L 115.310337 -48.3125 
L 118.161925 -48.3125 
L 121.013512 -48.3125 
L 123.865099 -48.3125 
L 126.716687 -48.3125 
L 129.568274 -48.3125 
L 132.419861 -48.3125 
L 135.271449 -48.3125 
L 138.123036 -48.3125 
L 140.974624 -48.3125 
L 143.826211 -48.3125 
L 146.677798 -48.3125 
L 149.529386 -48.3125 
L 152.380973 -48.3125 
L 155.23256 -48.3125 
L 158.084148 -48.3125 
L 160.935735 -48.3125 
L 163.787322 -48.3125 
L 166.63891 -48.3125 
L 169.490497 -48.3125 
L 172.342084 -48.3125 
L 175.193672 -48.3125 
L 178.045259 -48.3125 
L 180.896847 -48.3125 
L 183.748434 -48.3125 
L 186.600021 -48.3125 
L 189.451609 -48.3125 
L 192.303196 -48.3125 
L 195.154783 -48.3125 
L 198.006371 -48.3125 
L 200.857958 -48.3125 
L 203.709545 -48.3125 
L 206.561133 -48.3125 
L 209.41272 -48.3125 
L 212.264307 -48.3125 
L 215.115895 -48.3125 
L 217.967482 -48.3125 
L 220.81907 -48.3125 
L 223.670657 -48.3125 
L 226.522244 -48.3125 
L 229.373832 -48.3125 
L 232.225419 -48.3125 
L 235.077006 -48.3125 
L 237.928594 -48.3125 
L 240.780181 -48.3125 
L 243.631768 -48.3125 
L 246.483356 -48.3125 
L 249.334943 -48.3125 
L 252.18653 -48.3125 
L 255.038118 -48.3125 
L 257.889705 -48.3125 
L 260.741293 -48.3125 
L 263.59288 -48.3125 
L 266.444467 -48.3125 
L 269.296055 -48.3125 
L 272.147642 -48.3125 
L 274.999229 -48.3125 
L 277.850817 -48.3125 
L 280.702404 -48.3125 
L 283.553991 -48.3125 
L 286.405579 -48.3125 
L 289.257166 -48.3125 
L 292.108753 -48.3125 
L 294.960341 -48.3125 
L 297.811928 -48.3125 
L 300.663516 -48.3125 
L 303.515103 -48.3125 
L 306.36669 -48.3125 
L 309.218278 -48.3125 
L 312.069865 -48.3125 
L 314.921452 -48.3125 
L 317.77304 -48.3125 
L 320.624627 -48.3125 
L 323.476214 -48.3125 
L 326.327802 -48.3125 
L 329.179389 -48.3125 
L 332.030976 -48.3125 
L 334.882564 -48.3125 
L 337.734151 -48.3125 
L 340.585739 -48.3125 
L 343.437326 -48.3125 
L 346.288913 -48.3125 
L 349.140501 -48.3125 
L 351.992088 -48.3125 
L 354.843675 -48.3125 
L 357.695263 -48.3125 
L 360.54685 -48.3125 
L 363.398437 -48.3125 
L 366.250025 -48.3125 
L 369.101612 -48.3125 
L 371.953199 -48.3125 
L 374.804787 -48.3125 
L 377.656374 -48.3125 
L 380.507962 -48.3125 
L 383.359549 -48.3125 
L 386.211136 -48.3125 
L 389.062724 -48.3125 
L 391.914311 -48.3125 
L 394.765898 -48.3125 
L 397.617486 -48.3125 
L 400.469073 -48.3125 
L 403.32066 -48.3125 
L 406.172248 -48.3125 
L 409.023835 -48.3125 
L 411.875422 -48.3125 
L 414.72701 -48.3125 
L 417.578597 -48.3125 
L 420.430185 -48.3125 
L 423.281772 -48.3125 
L 426.133359 -48.3125 
L 428.984947 -48.3125 
L 431.836534 -48.3125 
L 434.688121 -48.3125 
L 437.539709 -48.3125 
L 440.391296 -48.3125 
L 443.242883 -48.3125 
L 446.094471 -48.3125 
L 448.946058 -48.3125 
L 451.797645 -48.3125 
L 454.649233 -48.3125 
L 457.50082 -48.3125 
L 460.352408 -48.3125 
L 463.203995 -48.3125 
L 466.055582 -48.3125 
L 468.90717 -48.3125 
L 471.758757 -48.3125 
L 474.610344 -48.3125 
L 477.461932 -48.3125 
L 480.313519 -48.3125 
L 483.165106 -48.3125 
L 486.016694 -48.3125 
L 488.868281 -48.3125 
L 491.719868 -48.3125 
L 494.571456 -48.3125 
L 497.423043 -48.3125 
L 500.274631 -48.3125 
L 503.126218 -48.3125 
L 505.977805 -48.3125 
L 508.829393 -48.3125 
L 511.68098 -48.3125 
L 514.532567 -48.3125 
L 517.384155 -48.3125 
L 520.235742 -48.3125 
L 523.087329 -48.3125 
L 525.938917 -48.3125 
L 528.790504 -48.3125 
L 531.642091 -48.3125 
L 534.493679 -48.3125 
L 537.345266 -48.3125 
L 540.196854 -48.3125 
L 543.048441 -48.3125 
L 545.900028 -48.3125 
L 548.751616 -48.3125 
L 551.603203 -48.3125 
L 554.45479 -48.3125 
L 557.306378 -48.3125 
L 560.157965 -48.3125 
L 563.009552 -48.3125 
L 565.86114 -48.3125 
L 568.712727 -48.3125 
L 571.564314 -48.3125 
L 574.415902 -48.3125 
L 577.267489 -48.3125 
L 580.119077 -48.3125 
L 582.970664 -48.3125 
L 585.822251 -48.3125 
L 588.673839 -48.3125 
L 591.525426 -48.3125 
L 594.377013 -48.3125 
L 597.228601 -48.3125 
L 600.080188 -48.3125 
L 602.931775 -48.3125 
L 605.783363 -48.3125 
L 608.63495 -48.3125 
L 611.486537 -48.3125 
L 614.338125 -48.3125 
L 617.189712 -48.3125 
L 620.0413 -48.3125 
L 622.892887 -48.3125 
L 625.744474 -48.3125 
L 628.596062 -48.3125 
L 631.447649 -48.3125 
L 634.299236 -48.3125 
L 637.150824 -48.3125 
L 640.002411 -48.3125 
L 642.853998 -48.3125 
L 645.705586 -48.3125 
L 648.557173 -48.3125 
L 651.40876 -48.3125 
L 654.260348 -48.3125 
L 657.111935 -48.3125 
L 657.111935 -50.415162 
L 657.111935 -50.415162 
L 654.260348 -50.716769 
L 651.40876 -51.056324 
L 648.557173 -51.437782 
L 645.705586 -51.865395 
L 642.853998 -52.343715 
L 640.002411 -52.877599 
L 637.150824 -53.47221 
L 634.299236 -54.133019 
L 631.447649 -54.865794 
L 628.596062 -55.676599 
L 625.744474 -56.571774 
L 622.892887 -57.557925 
L 620.0413 -58.6419 
L 617.189712 -59.830761 
L 614.338125 -61.131758 
L 611.486537 -62.552289 
L 608.63495 -64.099859 
L 605.783363 -65.782031 
L 602.931775 -67.606379 
L 600.080188 -69.580421 
L 597.228601 -71.711564 
L 594.377013 -74.00703 
L 591.525426 -76.473785 
L 588.673839 -79.118461 
L 585.822251 -81.947276 
L 582.970664 -84.965949 
L 580.119077 -88.179611 
L 577.267489 -91.592725 
L 574.415902 -95.20899 
L 571.564314 -99.031258 
L 568.712727 -103.061446 
L 565.86114 -107.300457 
L 563.009552 -111.748099 
L 560.157965 -116.40301 
L 557.306378 -121.262598 
L 554.45479 -126.322978 
L 551.603203 -131.578926 
L 548.751616 -137.023838 
L 545.900028 -142.649709 
L 543.048441 -148.447114 
L 540.196854 -154.405211 
L 537.345266 -160.511755 
L 534.493679 -166.753129 
L 531.642091 -173.114387 
L 528.790504 -179.579316 
L 525.938917 -186.130512 
L 523.087329 -192.749475 
L 520.235742 -199.416712 
L 517.384155 -206.111862 
L 514.532567 -212.81383 
L 511.68098 -219.500934 
L 508.829393 -226.151062 
L 505.977805 -232.741844 
L 503.126218 -239.250821 
L 500.274631 -245.655628 
L 497.423043 -251.934181 
L 494.571456 -258.064856 
L 491.719868 -264.026674 
L 488.868281 -269.799485 
L 486.016694 -275.364139 
L 483.165106 -280.702652 
L 480.313519 -285.798361 
L 477.461932 -290.636072 
L 474.610344 -295.20218 
L 471.758757 -299.484788 
L 468.90717 -303.473802 
L 466.055582 -307.160997 
L 463.203995 -310.540085 
L 460.352408 -313.606736 
L 457.50082 -316.358601 
L 454.649233 -318.795294 
L 451.797645 -320.918369 
L 448.946058 -322.731264 
L 446.094471 -324.239228 
L 443.242883 -325.449235 
L 440.391296 -326.369874 
L 437.539709 -327.011222 
L 434.688121 -327.384708 
L 431.836534 -327.502964 
L 428.984947 -327.379658 
L 426.133359 -327.029332 
L 423.281772 -326.467223 
L 420.430185 -325.709089 
L 417.578597 -324.771028 
L 414.72701 -323.669303 
L 411.875422 -322.420168 
L 409.023835 -321.039702 
L 406.172248 -319.543646 
L 403.32066 -317.947257 
L 400.469073 -316.265165 
L 397.617486 -314.511248 
L 394.765898 -312.698517 
L 391.914311 -310.83902 
L 389.062724 -308.943752 
L 386.211136 -307.022591 
L 383.359549 -305.084244 
L 380.507962 -303.136207 
L 377.656374 -301.184743 
L 374.804787 -299.234878 
L 371.953199 -297.290402 
L 369.101612 -295.353895 
L 366.250025 -293.426757 
L 363.398437 -291.509255 
L 360.54685 -289.600574 
L 357.695263 -287.698891 
L 354.843675 -285.80144 
L 351.992088 -283.904599 
L 349.140501 -282.003975 
L 346.288913 -280.094496 
L 343.437326 -278.17051 
L 340.585739 -276.225882 
L 337.734151 -274.254094 
L 334.882564 -272.248347 
L 332.030976 -270.201666 
L 329.179389 -268.106993 
L 326.327802 -265.957292 
L 323.476214 -263.74564 
L 320.624627 -261.465318 
L 317.77304 -259.109902 
L 314.921452 -256.673346 
L 312.069865 -254.150054 
L 309.218278 -251.534957 
L 306.36669 -248.823574 
L 303.515103 -246.012076 
L 300.663516 -243.097329 
L 297.811928 -240.076945 
L 294.960341 -236.949315 
L 292.108753 -233.713636 
L 289.257166 -230.369933 
L 286.405579 -226.919071 
L 283.553991 -223.362757 
L 280.702404 -219.703536 
L 277.850817 -215.944781 
L 274.999229 -212.090668 
L 272.147642 -208.146153 
L 269.296055 -204.116933 
L 266.444467 -200.009404 
L 263.59288 -195.830615 
L 260.741293 -191.588212 
L 257.889705 -187.290376 
L 255.038118 -182.94576 
L 252.18653 -178.563422 
L 249.334943 -174.152751 
L 246.483356 -169.723393 
L 243.631768 -165.285175 
L 240.780181 -160.848028 
L 237.928594 -156.421914 
L 235.077006 -152.016743 
L 232.225419 -147.642306 
L 229.373832 -143.308198 
L 226.522244 -139.023755 
L 223.670657 -134.797981 
L 220.81907 -130.639497 
L 217.967482 -126.556481 
L 215.115895 -122.556617 
L 212.264307 -118.647056 
L 209.41272 -114.834374 
L 206.561133 -111.124545 
L 203.709545 -107.522912 
L 200.857958 -104.034174 
L 198.006371 -100.66237 
L 195.154783 -97.410879 
L 192.303196 -94.282419 
L 189.451609 -91.279051 
L 186.600021 -88.4022 
L 183.748434 -85.652665 
L 180.896847 -83.030649 
L 178.045259 -80.535779 
L 175.193672 -78.167144 
L 172.342084 -75.923323 
L 169.490497 -73.802427 
L 166.63891 -71.802134 
L 163.787322 -69.919732 
L 160.935735 -68.152158 
L 158.084148 -66.496041 
L 155.23256 -64.947746 
L 152.380973 -63.50341 
L 149.529386 -62.158989 
L 146.677798 -60.910292 
L 143.826211 -59.753021 
L 140.974624 -58.682807 
L 138.123036 -57.695241 
L 135.271449 -56.78591 
L 132.419861 -55.950422 
L 129.568274 -55.184433 
L 126.716687 -54.48367 
L 123.865099 -53.843957 
L 121.013512 -53.261226 
L 118.161925 -52.731537 
L 115.310337 -52.25109 
L 112.45875 -51.816237 
L 109.607163 -51.42349 
L 106.755575 -51.069527 
L 103.903988 -50.751194 
L 101.052401 -50.465513 
L 98.200813 -50.209677 
L 95.349226 -49.981053 
L 92.497638 -49.777178 
L 89.646051 -49.595756 
z
" style="stroke: #e74c3c"/>
    </defs>
    <g clip-path="url(#pee458af186)">
     <use xlink:href="#m0e0911b039" x="0" y="420.48" style="fill: #e74c3c; fill-opacity: 0.3; stroke: #e74c3c"/>
    </g>
   </g>
   <g id="patch_3">
    <path d="M 60.520625 372.1675 
L 60.520625 24.6525 
" style="fill: none; stroke: #cccccc; stroke-width: 1.5; stroke-linejoin: miter; stroke-linecap: square"/>
   </g>
   <g id="patch_4">
    <path d="M 60.520625 372.1675 
L 701.28 372.1675 
" style="fill: none; stroke: #cccccc; stroke-width: 1.5; stroke-linejoin: miter; stroke-linecap: square"/>
   </g>
   <g id="text_15">
    <!-- Distribution of Absolute Errors -->
    <g style="fill: #262626" transform="translate(275.080312 18.6525) scale(0.16 -0.16)">
     <defs>
      <path id="ArialMT-62" d="M 941 0 
L 419 0 
L 419 4581 
L 981 4581 
L 981 2947 
Q 1338 3394 1891 3394 
Q 2197 3394 2470 3270 
Q 2744 3147 2920 2923 
Q 3097 2700 3197 2384 
Q 3297 2069 3297 1709 
Q 3297 856 2875 390 
Q 2453 -75 1863 -75 
Q 1275 -75 941 416 
L 941 0 
z
M 934 1684 
Q 934 1088 1097 822 
Q 1363 388 1816 388 
Q 2184 388 2453 708 
Q 2722 1028 2722 1663 
Q 2722 2313 2464 2622 
Q 2206 2931 1841 2931 
Q 1472 2931 1203 2611 
Q 934 2291 934 1684 
z
" transform="scale(0.015625)"/>
      <path id="ArialMT-75" d="M 2597 0 
L 2597 488 
Q 2209 -75 1544 -75 
Q 1250 -75 995 37 
Q 741 150 617 320 
Q 494 491 444 738 
Q 409 903 409 1263 
L 409 3319 
L 972 3319 
L 972 1478 
Q 972 1038 1006 884 
Q 1059 663 1231 536 
Q 1403 409 1656 409 
Q 1909 409 2131 539 
Q 2353 669 2445 892 
Q 2538 1116 2538 1541 
L 2538 3319 
L 3100 3319 
L 3100 0 
L 2597 0 
z
" transform="scale(0.015625)"/>
      <path id="ArialMT-66" d="M 556 0 
L 556 2881 
L 59 2881 
L 59 3319 
L 556 3319 
L 556 3672 
Q 556 4006 616 4169 
Q 697 4388 901 4523 
Q 1106 4659 1475 4659 
Q 1713 4659 2000 4603 
L 1916 4113 
Q 1741 4144 1584 4144 
Q 1328 4144 1222 4034 
Q 1116 3925 1116 3625 
L 1116 3319 
L 1763 3319 
L 1763 2881 
L 1116 2881 
L 1116 0 
L 556 0 
z
" transform="scale(0.015625)"/>
      <path id="ArialMT-41" d="M -9 0 
L 1750 4581 
L 2403 4581 
L 4278 0 
L 3588 0 
L 3053 1388 
L 1138 1388 
L 634 0 
L -9 0 
z
M 1313 1881 
L 2866 1881 
L 2388 3150 
Q 2169 3728 2063 4100 
Q 1975 3659 1816 3225 
L 1313 1881 
z
" transform="scale(0.015625)"/>
      <path id="ArialMT-6c" d="M 409 0 
L 409 4581 
L 972 4581 
L 972 0 
L 409 0 
z
" transform="scale(0.015625)"/>
     </defs>
     <use xlink:href="#ArialMT-44"/>
     <use xlink:href="#ArialMT-69" x="72.216797"/>
     <use xlink:href="#ArialMT-73" x="94.433594"/>
     <use xlink:href="#ArialMT-74" x="144.433594"/>
     <use xlink:href="#ArialMT-72" x="172.216797"/>
     <use xlink:href="#ArialMT-69" x="205.517578"/>
     <use xlink:href="#ArialMT-62" x="227.734375"/>
     <use xlink:href="#ArialMT-75" x="283.349609"/>
     <use xlink:href="#ArialMT-74" x="338.964844"/>
     <use xlink:href="#ArialMT-69" x="366.748047"/>
     <use xlink:href="#ArialMT-6f" x="388.964844"/>
     <use xlink:href="#ArialMT-6e" x="444.580078"/>
     <use xlink:href="#ArialMT-20" x="500.195312"/>
     <use xlink:href="#ArialMT-6f" x="527.978516"/>
     <use xlink:href="#ArialMT-66" x="583.59375"/>
     <use xlink:href="#ArialMT-20" x="611.376953"/>
     <use xlink:href="#ArialMT-41" x="633.660156"/>
     <use xlink:href="#ArialMT-62" x="700.359375"/>
     <use xlink:href="#ArialMT-73" x="755.974609"/>
     <use xlink:href="#ArialMT-6f" x="805.974609"/>
     <use xlink:href="#ArialMT-6c" x="861.589844"/>
     <use xlink:href="#ArialMT-75" x="883.806641"/>
     <use xlink:href="#ArialMT-74" x="939.421875"/>
     <use xlink:href="#ArialMT-65" x="967.205078"/>
     <use xlink:href="#ArialMT-20" x="1022.820312"/>
     <use xlink:href="#ArialMT-45" x="1050.603516"/>
     <use xlink:href="#ArialMT-72" x="1117.302734"/>
     <use xlink:href="#ArialMT-72" x="1150.603516"/>
     <use xlink:href="#ArialMT-6f" x="1183.904297"/>
     <use xlink:href="#ArialMT-72" x="1239.519531"/>
     <use xlink:href="#ArialMT-73" x="1272.820312"/>
    </g>
   </g>
   <g id="legend_1">
    <g id="patch_5">
     <path d="M 497.20125 68.775 
L 692.88 68.775 
Q 695.28 68.775 695.28 66.375 
L 695.28 33.0525 
Q 695.28 30.6525 692.88 30.6525 
L 497.20125 30.6525 
Q 494.80125 30.6525 494.80125 33.0525 
L 494.80125 66.375 
Q 494.80125 68.775 497.20125 68.775 
z
" style="fill: #ffffff; opacity: 0.8; stroke: #cccccc; stroke-linejoin: miter"/>
    </g>
    <g id="patch_6">
     <path d="M 499.60125 44.188125 
L 523.60125 44.188125 
L 523.60125 35.788125 
L 499.60125 35.788125 
z
" style="fill: #2ecc71; fill-opacity: 0.3; stroke: #2ecc71; stroke-linejoin: miter"/>
    </g>
    <g id="text_16">
     <!-- Training (μ=1.86%, σ=1.21%) -->
     <g style="fill: #262626" transform="translate(533.20125 44.188125) scale(0.12 -0.12)">
      <defs>
       <path id="ArialMT-54" d="M 1659 0 
L 1659 4041 
L 150 4041 
L 150 4581 
L 3781 4581 
L 3781 4041 
L 2266 4041 
L 2266 0 
L 1659 0 
z
" transform="scale(0.015625)"/>
       <path id="ArialMT-61" d="M 2588 409 
Q 2275 144 1986 34 
Q 1697 -75 1366 -75 
Q 819 -75 525 192 
Q 231 459 231 875 
Q 231 1119 342 1320 
Q 453 1522 633 1644 
Q 813 1766 1038 1828 
Q 1203 1872 1538 1913 
Q 2219 1994 2541 2106 
Q 2544 2222 2544 2253 
Q 2544 2597 2384 2738 
Q 2169 2928 1744 2928 
Q 1347 2928 1158 2789 
Q 969 2650 878 2297 
L 328 2372 
Q 403 2725 575 2942 
Q 747 3159 1072 3276 
Q 1397 3394 1825 3394 
Q 2250 3394 2515 3294 
Q 2781 3194 2906 3042 
Q 3031 2891 3081 2659 
Q 3109 2516 3109 2141 
L 3109 1391 
Q 3109 606 3145 398 
Q 3181 191 3288 0 
L 2700 0 
Q 2613 175 2588 409 
z
M 2541 1666 
Q 2234 1541 1622 1453 
Q 1275 1403 1131 1340 
Q 988 1278 909 1158 
Q 831 1038 831 891 
Q 831 666 1001 516 
Q 1172 366 1500 366 
Q 1825 366 2078 508 
Q 2331 650 2450 897 
Q 2541 1088 2541 1459 
L 2541 1666 
z
" transform="scale(0.015625)"/>
       <path id="ArialMT-67" d="M 319 -275 
L 866 -356 
Q 900 -609 1056 -725 
Q 1266 -881 1628 -881 
Q 2019 -881 2231 -725 
Q 2444 -569 2519 -288 
Q 2563 -116 2559 434 
Q 2191 0 1641 0 
Q 956 0 581 494 
Q 206 988 206 1678 
Q 206 2153 378 2554 
Q 550 2956 876 3175 
Q 1203 3394 1644 3394 
Q 2231 3394 2613 2919 
L 2613 3319 
L 3131 3319 
L 3131 450 
Q 3131 -325 2973 -648 
Q 2816 -972 2473 -1159 
Q 2131 -1347 1631 -1347 
Q 1038 -1347 672 -1080 
Q 306 -813 319 -275 
z
M 784 1719 
Q 784 1066 1043 766 
Q 1303 466 1694 466 
Q 2081 466 2343 764 
Q 2606 1063 2606 1700 
Q 2606 2309 2336 2618 
Q 2066 2928 1684 2928 
Q 1309 2928 1046 2623 
Q 784 2319 784 1719 
z
" transform="scale(0.015625)"/>
       <path id="ArialMT-3bc" d="M 3181 3319 
L 3181 0 
L 2678 0 
L 2678 394 
Q 2516 144 2356 50 
Q 2138 -78 1847 -78 
Q 1588 -78 1388 25 
Q 1238 103 1056 334 
L 1056 -1272 
L 500 -1272 
L 500 3319 
L 1056 3319 
L 1056 1913 
Q 1056 1147 1137 920 
Q 1219 694 1401 562 
Q 1584 431 1822 431 
Q 2072 431 2269 568 
Q 2466 706 2547 923 
Q 2628 1141 2628 1903 
L 2628 3319 
L 3181 3319 
z
" transform="scale(0.015625)"/>
       <path id="ArialMT-3d" d="M 3381 2694 
L 356 2694 
L 356 3219 
L 3381 3219 
L 3381 2694 
z
M 3381 1303 
L 356 1303 
L 356 1828 
L 3381 1828 
L 3381 1303 
z
" transform="scale(0.015625)"/>
       <path id="ArialMT-38" d="M 1131 2484 
Q 781 2613 612 2850 
Q 444 3088 444 3419 
Q 444 3919 803 4259 
Q 1163 4600 1759 4600 
Q 2359 4600 2725 4251 
Q 3091 3903 3091 3403 
Q 3091 3084 2923 2848 
Q 2756 2613 2416 2484 
Q 2838 2347 3058 2040 
Q 3278 1734 3278 1309 
Q 3278 722 2862 322 
Q 2447 -78 1769 -78 
Q 1091 -78 675 323 
Q 259 725 259 1325 
Q 259 1772 486 2073 
Q 713 2375 1131 2484 
z
M 1019 3438 
Q 1019 3113 1228 2906 
Q 1438 2700 1772 2700 
Q 2097 2700 2305 2904 
Q 2513 3109 2513 3406 
Q 2513 3716 2298 3927 
Q 2084 4138 1766 4138 
Q 1444 4138 1231 3931 
Q 1019 3725 1019 3438 
z
M 838 1322 
Q 838 1081 952 856 
Q 1066 631 1291 507 
Q 1516 384 1775 384 
Q 2178 384 2440 643 
Q 2703 903 2703 1303 
Q 2703 1709 2433 1975 
Q 2163 2241 1756 2241 
Q 1359 2241 1098 1978 
Q 838 1716 838 1322 
z
" transform="scale(0.015625)"/>
       <path id="ArialMT-2c" d="M 569 0 
L 569 641 
L 1209 641 
L 1209 0 
Q 1209 -353 1084 -570 
Q 959 -788 688 -906 
L 531 -666 
Q 709 -588 793 -436 
Q 878 -284 888 0 
L 569 0 
z
" transform="scale(0.015625)"/>
       <path id="ArialMT-3c3" d="M 3809 3319 
L 3809 2863 
L 2906 2863 
Q 3322 2475 3322 1656 
Q 3322 766 2867 345 
Q 2413 -75 1763 -75 
Q 1088 -75 650 362 
Q 213 800 213 1659 
Q 213 2544 667 2969 
Q 1122 3394 1763 3394 
Q 1997 3394 2294 3319 
L 3809 3319 
z
M 1753 2928 
Q 1344 2928 1067 2609 
Q 791 2291 791 1656 
Q 791 1025 1061 706 
Q 1331 388 1763 388 
Q 2216 388 2483 720 
Q 2750 1053 2750 1659 
Q 2750 2213 2504 2570 
Q 2259 2928 1753 2928 
z
" transform="scale(0.015625)"/>
      </defs>
      <use xlink:href="#ArialMT-54"/>
      <use xlink:href="#ArialMT-72" x="57.333984"/>
      <use xlink:href="#ArialMT-61" x="90.634766"/>
      <use xlink:href="#ArialMT-69" x="146.25"/>
      <use xlink:href="#ArialMT-6e" x="168.466797"/>
      <use xlink:href="#ArialMT-69" x="224.082031"/>
      <use xlink:href="#ArialMT-6e" x="246.298828"/>
      <use xlink:href="#ArialMT-67" x="301.914062"/>
      <use xlink:href="#ArialMT-20" x="357.529297"/>
      <use xlink:href="#ArialMT-28" x="385.3125"/>
      <use xlink:href="#ArialMT-3bc" x="418.613281"/>
      <use xlink:href="#ArialMT-3d" x="476.230469"/>
      <use xlink:href="#ArialMT-31" x="534.628906"/>
      <use xlink:href="#ArialMT-2e" x="590.244141"/>
      <use xlink:href="#ArialMT-38" x="618.027344"/>
      <use xlink:href="#ArialMT-36" x="673.642578"/>
      <use xlink:href="#ArialMT-25" x="729.257812"/>
      <use xlink:href="#ArialMT-2c" x="818.173828"/>
      <use xlink:href="#ArialMT-20" x="845.957031"/>
      <use xlink:href="#ArialMT-3c3" x="873.740234"/>
      <use xlink:href="#ArialMT-3d" x="935.458984"/>
      <use xlink:href="#ArialMT-31" x="993.857422"/>
      <use xlink:href="#ArialMT-2e" x="1049.472656"/>
      <use xlink:href="#ArialMT-32" x="1077.255859"/>
      <use xlink:href="#ArialMT-31" x="1132.871094"/>
      <use xlink:href="#ArialMT-25" x="1188.486328"/>
      <use xlink:href="#ArialMT-29" x="1277.402344"/>
     </g>
    </g>
    <g id="patch_7">
     <path d="M 499.60125 61.449375 
L 523.60125 61.449375 
L 523.60125 53.049375 
L 499.60125 53.049375 
z
" style="fill: #e74c3c; fill-opacity: 0.3; stroke: #e74c3c; stroke-linejoin: miter"/>
    </g>
    <g id="text_17">
     <!-- Testing (μ=2.24%, σ=1.27%) -->
     <g style="fill: #262626" transform="translate(533.20125 61.449375) scale(0.12 -0.12)">
      <defs>
       <path id="ArialMT-37" d="M 303 3981 
L 303 4522 
L 3269 4522 
L 3269 4084 
Q 2831 3619 2401 2847 
Q 1972 2075 1738 1259 
Q 1569 684 1522 0 
L 944 0 
Q 953 541 1156 1306 
Q 1359 2072 1739 2783 
Q 2119 3494 2547 3981 
L 303 3981 
z
" transform="scale(0.015625)"/>
      </defs>
      <use xlink:href="#ArialMT-54"/>
      <use xlink:href="#ArialMT-65" x="49.958984"/>
      <use xlink:href="#ArialMT-73" x="105.574219"/>
      <use xlink:href="#ArialMT-74" x="155.574219"/>
      <use xlink:href="#ArialMT-69" x="183.357422"/>
      <use xlink:href="#ArialMT-6e" x="205.574219"/>
      <use xlink:href="#ArialMT-67" x="261.189453"/>
      <use xlink:href="#ArialMT-20" x="316.804688"/>
      <use xlink:href="#ArialMT-28" x="344.587891"/>
      <use xlink:href="#ArialMT-3bc" x="377.888672"/>
      <use xlink:href="#ArialMT-3d" x="435.505859"/>
      <use xlink:href="#ArialMT-32" x="493.904297"/>
      <use xlink:href="#ArialMT-2e" x="549.519531"/>
      <use xlink:href="#ArialMT-32" x="577.302734"/>
      <use xlink:href="#ArialMT-34" x="632.917969"/>
      <use xlink:href="#ArialMT-25" x="688.533203"/>
      <use xlink:href="#ArialMT-2c" x="777.449219"/>
      <use xlink:href="#ArialMT-20" x="805.232422"/>
      <use xlink:href="#ArialMT-3c3" x="833.015625"/>
      <use xlink:href="#ArialMT-3d" x="894.734375"/>
      <use xlink:href="#ArialMT-31" x="953.132812"/>
      <use xlink:href="#ArialMT-2e" x="1008.748047"/>
      <use xlink:href="#ArialMT-32" x="1036.53125"/>
      <use xlink:href="#ArialMT-37" x="1092.146484"/>
      <use xlink:href="#ArialMT-25" x="1147.761719"/>
      <use xlink:href="#ArialMT-29" x="1236.677734"/>
     </g>
    </g>
   </g>
  </g>
 </g>
 <defs>
  <clipPath id="pee458af186">
   <rect x="60.520625" y="24.6525" width="640.759375" height="347.515"/>
  </clipPath>
 </defs>
</svg>
