<?xml version="1.0" encoding="utf-8" standalone="no"?>
<!DOCTYPE svg PUBLIC "-//W3C//DTD SVG 1.1//EN"
  "http://www.w3.org/Graphics/SVG/1.1/DTD/svg11.dtd">
<svg xmlns:xlink="http://www.w3.org/1999/xlink" width="708.48pt" height="420.48pt" viewBox="0 0 708.48 420.48" xmlns="http://www.w3.org/2000/svg" version="1.1">
 <metadata>
  <rdf:RDF xmlns:dc="http://purl.org/dc/elements/1.1/" xmlns:cc="http://creativecommons.org/ns#" xmlns:rdf="http://www.w3.org/1999/02/22-rdf-syntax-ns#">
   <cc:Work>
    <dc:type rdf:resource="http://purl.org/dc/dcmitype/StillImage"/>
    <dc:date>2025-01-07T19:27:45.560302</dc:date>
    <dc:format>image/svg+xml</dc:format>
    <dc:creator>
     <cc:Agent>
      <dc:title>Matplotlib v3.9.3, https://matplotlib.org/</dc:title>
     </cc:Agent>
    </dc:creator>
   </cc:Work>
  </rdf:RDF>
 </metadata>
 <defs>
  <style type="text/css">*{stroke-linejoin: round; stroke-linecap: butt}</style>
 </defs>
 <g id="figure_1">
  <g id="patch_1">
   <path d="M 0 420.48 
L 708.48 420.48 
L 708.48 -0 
L 0 -0 
z
" style="fill: #ffffff"/>
  </g>
  <g id="axes_1">
   <g id="patch_2">
    <path d="M 60.520625 372.1675 
L 701.28 372.1675 
L 701.28 24.6525 
L 60.520625 24.6525 
z
" style="fill: #ffffff"/>
   </g>
   <g id="matplotlib.axis_1">
    <g id="xtick_1">
     <g id="line2d_1">
      <path d="M 127.861211 372.1675 
L 127.861211 24.6525 
" clip-path="url(#pe594f1b1a2)" style="fill: none; stroke: #cccccc; stroke-opacity: 0.3; stroke-width: 0.5; stroke-linecap: round"/>
     </g>
     <g id="text_1">
      <!-- −1 -->
      <g style="fill: #262626" transform="translate(121.020273 387.756875) scale(0.12 -0.12)">
       <defs>
        <path id="ArialMT-2212" d="M 3381 1997 
L 356 1997 
L 356 2522 
L 3381 2522 
L 3381 1997 
z
" transform="scale(0.015625)"/>
        <path id="ArialMT-31" d="M 2384 0 
L 1822 0 
L 1822 3584 
Q 1619 3391 1289 3197 
Q 959 3003 697 2906 
L 697 3450 
Q 1169 3672 1522 3987 
Q 1875 4303 2022 4600 
L 2384 4600 
L 2384 0 
z
" transform="scale(0.015625)"/>
       </defs>
       <use xlink:href="#ArialMT-2212"/>
       <use xlink:href="#ArialMT-31" x="58.398438"/>
      </g>
     </g>
    </g>
    <g id="xtick_2">
     <g id="line2d_2">
      <path d="M 208.401362 372.1675 
L 208.401362 24.6525 
" clip-path="url(#pe594f1b1a2)" style="fill: none; stroke: #cccccc; stroke-opacity: 0.3; stroke-width: 0.5; stroke-linecap: round"/>
     </g>
     <g id="text_2">
      <!-- 0 -->
      <g style="fill: #262626" transform="translate(205.064799 387.756875) scale(0.12 -0.12)">
       <defs>
        <path id="ArialMT-30" d="M 266 2259 
Q 266 3072 433 3567 
Q 600 4063 929 4331 
Q 1259 4600 1759 4600 
Q 2128 4600 2406 4451 
Q 2684 4303 2865 4023 
Q 3047 3744 3150 3342 
Q 3253 2941 3253 2259 
Q 3253 1453 3087 958 
Q 2922 463 2592 192 
Q 2263 -78 1759 -78 
Q 1097 -78 719 397 
Q 266 969 266 2259 
z
M 844 2259 
Q 844 1131 1108 757 
Q 1372 384 1759 384 
Q 2147 384 2411 759 
Q 2675 1134 2675 2259 
Q 2675 3391 2411 3762 
Q 2147 4134 1753 4134 
Q 1366 4134 1134 3806 
Q 844 3388 844 2259 
z
" transform="scale(0.015625)"/>
       </defs>
       <use xlink:href="#ArialMT-30"/>
      </g>
     </g>
    </g>
    <g id="xtick_3">
     <g id="line2d_3">
      <path d="M 288.941512 372.1675 
L 288.941512 24.6525 
" clip-path="url(#pe594f1b1a2)" style="fill: none; stroke: #cccccc; stroke-opacity: 0.3; stroke-width: 0.5; stroke-linecap: round"/>
     </g>
     <g id="text_3">
      <!-- 1 -->
      <g style="fill: #262626" transform="translate(285.60495 387.756875) scale(0.12 -0.12)">
       <use xlink:href="#ArialMT-31"/>
      </g>
     </g>
    </g>
    <g id="xtick_4">
     <g id="line2d_4">
      <path d="M 369.481663 372.1675 
L 369.481663 24.6525 
" clip-path="url(#pe594f1b1a2)" style="fill: none; stroke: #cccccc; stroke-opacity: 0.3; stroke-width: 0.5; stroke-linecap: round"/>
     </g>
     <g id="text_4">
      <!-- 2 -->
      <g style="fill: #262626" transform="translate(366.1451 387.756875) scale(0.12 -0.12)">
       <defs>
        <path id="ArialMT-32" d="M 3222 541 
L 3222 0 
L 194 0 
Q 188 203 259 391 
Q 375 700 629 1000 
Q 884 1300 1366 1694 
Q 2113 2306 2375 2664 
Q 2638 3022 2638 3341 
Q 2638 3675 2398 3904 
Q 2159 4134 1775 4134 
Q 1369 4134 1125 3890 
Q 881 3647 878 3216 
L 300 3275 
Q 359 3922 746 4261 
Q 1134 4600 1788 4600 
Q 2447 4600 2831 4234 
Q 3216 3869 3216 3328 
Q 3216 3053 3103 2787 
Q 2991 2522 2730 2228 
Q 2469 1934 1863 1422 
Q 1356 997 1212 845 
Q 1069 694 975 541 
L 3222 541 
z
" transform="scale(0.015625)"/>
       </defs>
       <use xlink:href="#ArialMT-32"/>
      </g>
     </g>
    </g>
    <g id="xtick_5">
     <g id="line2d_5">
      <path d="M 450.021814 372.1675 
L 450.021814 24.6525 
" clip-path="url(#pe594f1b1a2)" style="fill: none; stroke: #cccccc; stroke-opacity: 0.3; stroke-width: 0.5; stroke-linecap: round"/>
     </g>
     <g id="text_5">
      <!-- 3 -->
      <g style="fill: #262626" transform="translate(446.685251 387.756875) scale(0.12 -0.12)">
       <defs>
        <path id="ArialMT-33" d="M 269 1209 
L 831 1284 
Q 928 806 1161 595 
Q 1394 384 1728 384 
Q 2125 384 2398 659 
Q 2672 934 2672 1341 
Q 2672 1728 2419 1979 
Q 2166 2231 1775 2231 
Q 1616 2231 1378 2169 
L 1441 2663 
Q 1497 2656 1531 2656 
Q 1891 2656 2178 2843 
Q 2466 3031 2466 3422 
Q 2466 3731 2256 3934 
Q 2047 4138 1716 4138 
Q 1388 4138 1169 3931 
Q 950 3725 888 3313 
L 325 3413 
Q 428 3978 793 4289 
Q 1159 4600 1703 4600 
Q 2078 4600 2393 4439 
Q 2709 4278 2876 4000 
Q 3044 3722 3044 3409 
Q 3044 3113 2884 2869 
Q 2725 2625 2413 2481 
Q 2819 2388 3044 2092 
Q 3269 1797 3269 1353 
Q 3269 753 2831 336 
Q 2394 -81 1725 -81 
Q 1122 -81 723 278 
Q 325 638 269 1209 
z
" transform="scale(0.015625)"/>
       </defs>
       <use xlink:href="#ArialMT-33"/>
      </g>
     </g>
    </g>
    <g id="xtick_6">
     <g id="line2d_6">
      <path d="M 530.561964 372.1675 
L 530.561964 24.6525 
" clip-path="url(#pe594f1b1a2)" style="fill: none; stroke: #cccccc; stroke-opacity: 0.3; stroke-width: 0.5; stroke-linecap: round"/>
     </g>
     <g id="text_6">
      <!-- 4 -->
      <g style="fill: #262626" transform="translate(527.225402 387.756875) scale(0.12 -0.12)">
       <defs>
        <path id="ArialMT-34" d="M 2069 0 
L 2069 1097 
L 81 1097 
L 81 1613 
L 2172 4581 
L 2631 4581 
L 2631 1613 
L 3250 1613 
L 3250 1097 
L 2631 1097 
L 2631 0 
L 2069 0 
z
M 2069 1613 
L 2069 3678 
L 634 1613 
L 2069 1613 
z
" transform="scale(0.015625)"/>
       </defs>
       <use xlink:href="#ArialMT-34"/>
      </g>
     </g>
    </g>
    <g id="xtick_7">
     <g id="line2d_7">
      <path d="M 611.102115 372.1675 
L 611.102115 24.6525 
" clip-path="url(#pe594f1b1a2)" style="fill: none; stroke: #cccccc; stroke-opacity: 0.3; stroke-width: 0.5; stroke-linecap: round"/>
     </g>
     <g id="text_7">
      <!-- 5 -->
      <g style="fill: #262626" transform="translate(607.765552 387.756875) scale(0.12 -0.12)">
       <defs>
        <path id="ArialMT-35" d="M 266 1200 
L 856 1250 
Q 922 819 1161 601 
Q 1400 384 1738 384 
Q 2144 384 2425 690 
Q 2706 997 2706 1503 
Q 2706 1984 2436 2262 
Q 2166 2541 1728 2541 
Q 1456 2541 1237 2417 
Q 1019 2294 894 2097 
L 366 2166 
L 809 4519 
L 3088 4519 
L 3088 3981 
L 1259 3981 
L 1013 2750 
Q 1425 3038 1878 3038 
Q 2478 3038 2890 2622 
Q 3303 2206 3303 1553 
Q 3303 931 2941 478 
Q 2500 -78 1738 -78 
Q 1113 -78 717 272 
Q 322 622 266 1200 
z
" transform="scale(0.015625)"/>
       </defs>
       <use xlink:href="#ArialMT-35"/>
      </g>
     </g>
    </g>
    <g id="xtick_8">
     <g id="line2d_8">
      <path d="M 691.642265 372.1675 
L 691.642265 24.6525 
" clip-path="url(#pe594f1b1a2)" style="fill: none; stroke: #cccccc; stroke-opacity: 0.3; stroke-width: 0.5; stroke-linecap: round"/>
     </g>
     <g id="text_8">
      <!-- 6 -->
      <g style="fill: #262626" transform="translate(688.305703 387.756875) scale(0.12 -0.12)">
       <defs>
        <path id="ArialMT-36" d="M 3184 3459 
L 2625 3416 
Q 2550 3747 2413 3897 
Q 2184 4138 1850 4138 
Q 1581 4138 1378 3988 
Q 1113 3794 959 3422 
Q 806 3050 800 2363 
Q 1003 2672 1297 2822 
Q 1591 2972 1913 2972 
Q 2475 2972 2870 2558 
Q 3266 2144 3266 1488 
Q 3266 1056 3080 686 
Q 2894 316 2569 119 
Q 2244 -78 1831 -78 
Q 1128 -78 684 439 
Q 241 956 241 2144 
Q 241 3472 731 4075 
Q 1159 4600 1884 4600 
Q 2425 4600 2770 4297 
Q 3116 3994 3184 3459 
z
M 888 1484 
Q 888 1194 1011 928 
Q 1134 663 1356 523 
Q 1578 384 1822 384 
Q 2178 384 2434 671 
Q 2691 959 2691 1453 
Q 2691 1928 2437 2201 
Q 2184 2475 1800 2475 
Q 1419 2475 1153 2201 
Q 888 1928 888 1484 
z
" transform="scale(0.015625)"/>
       </defs>
       <use xlink:href="#ArialMT-36"/>
      </g>
     </g>
    </g>
    <g id="text_9">
     <!-- Error (%) -->
     <g style="fill: #262626" transform="translate(352.515312 410.333438) scale(0.14 -0.14)">
      <defs>
       <path id="ArialMT-45" d="M 506 0 
L 506 4581 
L 3819 4581 
L 3819 4041 
L 1113 4041 
L 1113 2638 
L 3647 2638 
L 3647 2100 
L 1113 2100 
L 1113 541 
L 3925 541 
L 3925 0 
L 506 0 
z
" transform="scale(0.015625)"/>
       <path id="ArialMT-72" d="M 416 0 
L 416 3319 
L 922 3319 
L 922 2816 
Q 1116 3169 1280 3281 
Q 1444 3394 1641 3394 
Q 1925 3394 2219 3213 
L 2025 2691 
Q 1819 2813 1613 2813 
Q 1428 2813 1281 2702 
Q 1134 2591 1072 2394 
Q 978 2094 978 1738 
L 978 0 
L 416 0 
z
" transform="scale(0.015625)"/>
       <path id="ArialMT-6f" d="M 213 1659 
Q 213 2581 725 3025 
Q 1153 3394 1769 3394 
Q 2453 3394 2887 2945 
Q 3322 2497 3322 1706 
Q 3322 1066 3130 698 
Q 2938 331 2570 128 
Q 2203 -75 1769 -75 
Q 1072 -75 642 372 
Q 213 819 213 1659 
z
M 791 1659 
Q 791 1022 1069 705 
Q 1347 388 1769 388 
Q 2188 388 2466 706 
Q 2744 1025 2744 1678 
Q 2744 2294 2464 2611 
Q 2184 2928 1769 2928 
Q 1347 2928 1069 2612 
Q 791 2297 791 1659 
z
" transform="scale(0.015625)"/>
       <path id="ArialMT-20" transform="scale(0.015625)"/>
       <path id="ArialMT-28" d="M 1497 -1347 
Q 1031 -759 709 28 
Q 388 816 388 1659 
Q 388 2403 628 3084 
Q 909 3875 1497 4659 
L 1900 4659 
Q 1522 4009 1400 3731 
Q 1209 3300 1100 2831 
Q 966 2247 966 1656 
Q 966 153 1900 -1347 
L 1497 -1347 
z
" transform="scale(0.015625)"/>
       <path id="ArialMT-25" d="M 372 3481 
Q 372 3972 619 4315 
Q 866 4659 1334 4659 
Q 1766 4659 2048 4351 
Q 2331 4044 2331 3447 
Q 2331 2866 2045 2552 
Q 1759 2238 1341 2238 
Q 925 2238 648 2547 
Q 372 2856 372 3481 
z
M 1350 4272 
Q 1141 4272 1002 4090 
Q 863 3909 863 3425 
Q 863 2984 1003 2804 
Q 1144 2625 1350 2625 
Q 1563 2625 1702 2806 
Q 1841 2988 1841 3469 
Q 1841 3913 1700 4092 
Q 1559 4272 1350 4272 
z
M 1353 -169 
L 3859 4659 
L 4316 4659 
L 1819 -169 
L 1353 -169 
z
M 3334 1075 
Q 3334 1569 3581 1911 
Q 3828 2253 4300 2253 
Q 4731 2253 5014 1945 
Q 5297 1638 5297 1041 
Q 5297 459 5011 145 
Q 4725 -169 4303 -169 
Q 3888 -169 3611 142 
Q 3334 453 3334 1075 
z
M 4316 1866 
Q 4103 1866 3964 1684 
Q 3825 1503 3825 1019 
Q 3825 581 3965 400 
Q 4106 219 4313 219 
Q 4528 219 4667 400 
Q 4806 581 4806 1063 
Q 4806 1506 4665 1686 
Q 4525 1866 4316 1866 
z
" transform="scale(0.015625)"/>
       <path id="ArialMT-29" d="M 791 -1347 
L 388 -1347 
Q 1322 153 1322 1656 
Q 1322 2244 1188 2822 
Q 1081 3291 891 3722 
Q 769 4003 388 4659 
L 791 4659 
Q 1378 3875 1659 3084 
Q 1900 2403 1900 1659 
Q 1900 816 1576 28 
Q 1253 -759 791 -1347 
z
" transform="scale(0.015625)"/>
      </defs>
      <use xlink:href="#ArialMT-45"/>
      <use xlink:href="#ArialMT-72" x="66.699219"/>
      <use xlink:href="#ArialMT-72" x="100"/>
      <use xlink:href="#ArialMT-6f" x="133.300781"/>
      <use xlink:href="#ArialMT-72" x="188.916016"/>
      <use xlink:href="#ArialMT-20" x="222.216797"/>
      <use xlink:href="#ArialMT-28" x="250"/>
      <use xlink:href="#ArialMT-25" x="283.300781"/>
      <use xlink:href="#ArialMT-29" x="372.216797"/>
     </g>
    </g>
   </g>
   <g id="matplotlib.axis_2">
    <g id="ytick_1">
     <g id="line2d_9">
      <path d="M 60.520625 372.1675 
L 701.28 372.1675 
" clip-path="url(#pe594f1b1a2)" style="fill: none; stroke: #cccccc; stroke-opacity: 0.3; stroke-width: 0.5; stroke-linecap: round"/>
     </g>
     <g id="text_10">
      <!-- 0.00 -->
      <g style="fill: #262626" transform="translate(30.1675 376.462188) scale(0.12 -0.12)">
       <defs>
        <path id="ArialMT-2e" d="M 581 0 
L 581 641 
L 1222 641 
L 1222 0 
L 581 0 
z
" transform="scale(0.015625)"/>
       </defs>
       <use xlink:href="#ArialMT-30"/>
       <use xlink:href="#ArialMT-2e" x="55.615234"/>
       <use xlink:href="#ArialMT-30" x="83.398438"/>
       <use xlink:href="#ArialMT-30" x="139.013672"/>
      </g>
     </g>
    </g>
    <g id="ytick_2">
     <g id="line2d_10">
      <path d="M 60.520625 330.526885 
L 701.28 330.526885 
" clip-path="url(#pe594f1b1a2)" style="fill: none; stroke: #cccccc; stroke-opacity: 0.3; stroke-width: 0.5; stroke-linecap: round"/>
     </g>
     <g id="text_11">
      <!-- 0.05 -->
      <g style="fill: #262626" transform="translate(30.1675 334.821572) scale(0.12 -0.12)">
       <use xlink:href="#ArialMT-30"/>
       <use xlink:href="#ArialMT-2e" x="55.615234"/>
       <use xlink:href="#ArialMT-30" x="83.398438"/>
       <use xlink:href="#ArialMT-35" x="139.013672"/>
      </g>
     </g>
    </g>
    <g id="ytick_3">
     <g id="line2d_11">
      <path d="M 60.520625 288.88627 
L 701.28 288.88627 
" clip-path="url(#pe594f1b1a2)" style="fill: none; stroke: #cccccc; stroke-opacity: 0.3; stroke-width: 0.5; stroke-linecap: round"/>
     </g>
     <g id="text_12">
      <!-- 0.10 -->
      <g style="fill: #262626" transform="translate(30.1675 293.180957) scale(0.12 -0.12)">
       <use xlink:href="#ArialMT-30"/>
       <use xlink:href="#ArialMT-2e" x="55.615234"/>
       <use xlink:href="#ArialMT-31" x="83.398438"/>
       <use xlink:href="#ArialMT-30" x="139.013672"/>
      </g>
     </g>
    </g>
    <g id="ytick_4">
     <g id="line2d_12">
      <path d="M 60.520625 247.245655 
L 701.28 247.245655 
" clip-path="url(#pe594f1b1a2)" style="fill: none; stroke: #cccccc; stroke-opacity: 0.3; stroke-width: 0.5; stroke-linecap: round"/>
     </g>
     <g id="text_13">
      <!-- 0.15 -->
      <g style="fill: #262626" transform="translate(30.1675 251.540342) scale(0.12 -0.12)">
       <use xlink:href="#ArialMT-30"/>
       <use xlink:href="#ArialMT-2e" x="55.615234"/>
       <use xlink:href="#ArialMT-31" x="83.398438"/>
       <use xlink:href="#ArialMT-35" x="139.013672"/>
      </g>
     </g>
    </g>
    <g id="ytick_5">
     <g id="line2d_13">
      <path d="M 60.520625 205.60504 
L 701.28 205.60504 
" clip-path="url(#pe594f1b1a2)" style="fill: none; stroke: #cccccc; stroke-opacity: 0.3; stroke-width: 0.5; stroke-linecap: round"/>
     </g>
     <g id="text_14">
      <!-- 0.20 -->
      <g style="fill: #262626" transform="translate(30.1675 209.899727) scale(0.12 -0.12)">
       <use xlink:href="#ArialMT-30"/>
       <use xlink:href="#ArialMT-2e" x="55.615234"/>
       <use xlink:href="#ArialMT-32" x="83.398438"/>
       <use xlink:href="#ArialMT-30" x="139.013672"/>
      </g>
     </g>
    </g>
    <g id="ytick_6">
     <g id="line2d_14">
      <path d="M 60.520625 163.964425 
L 701.28 163.964425 
" clip-path="url(#pe594f1b1a2)" style="fill: none; stroke: #cccccc; stroke-opacity: 0.3; stroke-width: 0.5; stroke-linecap: round"/>
     </g>
     <g id="text_15">
      <!-- 0.25 -->
      <g style="fill: #262626" transform="translate(30.1675 168.259112) scale(0.12 -0.12)">
       <use xlink:href="#ArialMT-30"/>
       <use xlink:href="#ArialMT-2e" x="55.615234"/>
       <use xlink:href="#ArialMT-32" x="83.398438"/>
       <use xlink:href="#ArialMT-35" x="139.013672"/>
      </g>
     </g>
    </g>
    <g id="ytick_7">
     <g id="line2d_15">
      <path d="M 60.520625 122.32381 
L 701.28 122.32381 
" clip-path="url(#pe594f1b1a2)" style="fill: none; stroke: #cccccc; stroke-opacity: 0.3; stroke-width: 0.5; stroke-linecap: round"/>
     </g>
     <g id="text_16">
      <!-- 0.30 -->
      <g style="fill: #262626" transform="translate(30.1675 126.618497) scale(0.12 -0.12)">
       <use xlink:href="#ArialMT-30"/>
       <use xlink:href="#ArialMT-2e" x="55.615234"/>
       <use xlink:href="#ArialMT-33" x="83.398438"/>
       <use xlink:href="#ArialMT-30" x="139.013672"/>
      </g>
     </g>
    </g>
    <g id="ytick_8">
     <g id="line2d_16">
      <path d="M 60.520625 80.683195 
L 701.28 80.683195 
" clip-path="url(#pe594f1b1a2)" style="fill: none; stroke: #cccccc; stroke-opacity: 0.3; stroke-width: 0.5; stroke-linecap: round"/>
     </g>
     <g id="text_17">
      <!-- 0.35 -->
      <g style="fill: #262626" transform="translate(30.1675 84.977882) scale(0.12 -0.12)">
       <use xlink:href="#ArialMT-30"/>
       <use xlink:href="#ArialMT-2e" x="55.615234"/>
       <use xlink:href="#ArialMT-33" x="83.398438"/>
       <use xlink:href="#ArialMT-35" x="139.013672"/>
      </g>
     </g>
    </g>
    <g id="ytick_9">
     <g id="line2d_17">
      <path d="M 60.520625 39.04258 
L 701.28 39.04258 
" clip-path="url(#pe594f1b1a2)" style="fill: none; stroke: #cccccc; stroke-opacity: 0.3; stroke-width: 0.5; stroke-linecap: round"/>
     </g>
     <g id="text_18">
      <!-- 0.40 -->
      <g style="fill: #262626" transform="translate(30.1675 43.337267) scale(0.12 -0.12)">
       <use xlink:href="#ArialMT-30"/>
       <use xlink:href="#ArialMT-2e" x="55.615234"/>
       <use xlink:href="#ArialMT-34" x="83.398438"/>
       <use xlink:href="#ArialMT-30" x="139.013672"/>
      </g>
     </g>
    </g>
    <g id="text_19">
     <!-- Density -->
     <g style="fill: #262626" transform="translate(17.220938 221.750625) rotate(-90) scale(0.14 -0.14)">
      <defs>
       <path id="ArialMT-44" d="M 494 0 
L 494 4581 
L 2072 4581 
Q 2606 4581 2888 4516 
Q 3281 4425 3559 4188 
Q 3922 3881 4101 3404 
Q 4281 2928 4281 2316 
Q 4281 1794 4159 1391 
Q 4038 988 3847 723 
Q 3656 459 3429 307 
Q 3203 156 2883 78 
Q 2563 0 2147 0 
L 494 0 
z
M 1100 541 
L 2078 541 
Q 2531 541 2789 625 
Q 3047 709 3200 863 
Q 3416 1078 3536 1442 
Q 3656 1806 3656 2325 
Q 3656 3044 3420 3430 
Q 3184 3816 2847 3947 
Q 2603 4041 2063 4041 
L 1100 4041 
L 1100 541 
z
" transform="scale(0.015625)"/>
       <path id="ArialMT-65" d="M 2694 1069 
L 3275 997 
Q 3138 488 2766 206 
Q 2394 -75 1816 -75 
Q 1088 -75 661 373 
Q 234 822 234 1631 
Q 234 2469 665 2931 
Q 1097 3394 1784 3394 
Q 2450 3394 2872 2941 
Q 3294 2488 3294 1666 
Q 3294 1616 3291 1516 
L 816 1516 
Q 847 969 1125 678 
Q 1403 388 1819 388 
Q 2128 388 2347 550 
Q 2566 713 2694 1069 
z
M 847 1978 
L 2700 1978 
Q 2663 2397 2488 2606 
Q 2219 2931 1791 2931 
Q 1403 2931 1139 2672 
Q 875 2413 847 1978 
z
" transform="scale(0.015625)"/>
       <path id="ArialMT-6e" d="M 422 0 
L 422 3319 
L 928 3319 
L 928 2847 
Q 1294 3394 1984 3394 
Q 2284 3394 2536 3286 
Q 2788 3178 2913 3003 
Q 3038 2828 3088 2588 
Q 3119 2431 3119 2041 
L 3119 0 
L 2556 0 
L 2556 2019 
Q 2556 2363 2490 2533 
Q 2425 2703 2258 2804 
Q 2091 2906 1866 2906 
Q 1506 2906 1245 2678 
Q 984 2450 984 1813 
L 984 0 
L 422 0 
z
" transform="scale(0.015625)"/>
       <path id="ArialMT-73" d="M 197 991 
L 753 1078 
Q 800 744 1014 566 
Q 1228 388 1613 388 
Q 2000 388 2187 545 
Q 2375 703 2375 916 
Q 2375 1106 2209 1216 
Q 2094 1291 1634 1406 
Q 1016 1563 777 1677 
Q 538 1791 414 1992 
Q 291 2194 291 2438 
Q 291 2659 392 2848 
Q 494 3038 669 3163 
Q 800 3259 1026 3326 
Q 1253 3394 1513 3394 
Q 1903 3394 2198 3281 
Q 2494 3169 2634 2976 
Q 2775 2784 2828 2463 
L 2278 2388 
Q 2241 2644 2061 2787 
Q 1881 2931 1553 2931 
Q 1166 2931 1000 2803 
Q 834 2675 834 2503 
Q 834 2394 903 2306 
Q 972 2216 1119 2156 
Q 1203 2125 1616 2013 
Q 2213 1853 2448 1751 
Q 2684 1650 2818 1456 
Q 2953 1263 2953 975 
Q 2953 694 2789 445 
Q 2625 197 2315 61 
Q 2006 -75 1616 -75 
Q 969 -75 630 194 
Q 291 463 197 991 
z
" transform="scale(0.015625)"/>
       <path id="ArialMT-69" d="M 425 3934 
L 425 4581 
L 988 4581 
L 988 3934 
L 425 3934 
z
M 425 0 
L 425 3319 
L 988 3319 
L 988 0 
L 425 0 
z
" transform="scale(0.015625)"/>
       <path id="ArialMT-74" d="M 1650 503 
L 1731 6 
Q 1494 -44 1306 -44 
Q 1000 -44 831 53 
Q 663 150 594 308 
Q 525 466 525 972 
L 525 2881 
L 113 2881 
L 113 3319 
L 525 3319 
L 525 4141 
L 1084 4478 
L 1084 3319 
L 1650 3319 
L 1650 2881 
L 1084 2881 
L 1084 941 
Q 1084 700 1114 631 
Q 1144 563 1211 522 
Q 1278 481 1403 481 
Q 1497 481 1650 503 
z
" transform="scale(0.015625)"/>
       <path id="ArialMT-79" d="M 397 -1278 
L 334 -750 
Q 519 -800 656 -800 
Q 844 -800 956 -737 
Q 1069 -675 1141 -563 
Q 1194 -478 1313 -144 
Q 1328 -97 1363 -6 
L 103 3319 
L 709 3319 
L 1400 1397 
Q 1534 1031 1641 628 
Q 1738 1016 1872 1384 
L 2581 3319 
L 3144 3319 
L 1881 -56 
Q 1678 -603 1566 -809 
Q 1416 -1088 1222 -1217 
Q 1028 -1347 759 -1347 
Q 597 -1347 397 -1278 
z
" transform="scale(0.015625)"/>
      </defs>
      <use xlink:href="#ArialMT-44"/>
      <use xlink:href="#ArialMT-65" x="72.216797"/>
      <use xlink:href="#ArialMT-6e" x="127.832031"/>
      <use xlink:href="#ArialMT-73" x="183.447266"/>
      <use xlink:href="#ArialMT-69" x="233.447266"/>
      <use xlink:href="#ArialMT-74" x="255.664062"/>
      <use xlink:href="#ArialMT-79" x="283.447266"/>
     </g>
    </g>
   </g>
   <g id="PolyCollection_1">
    <defs>
     <path id="m1bd63137be" d="M 102.72459 -48.705808 
L 102.72459 -48.3125 
L 105.586047 -48.3125 
L 108.447504 -48.3125 
L 111.308961 -48.3125 
L 114.170418 -48.3125 
L 117.031876 -48.3125 
L 119.893333 -48.3125 
L 122.75479 -48.3125 
L 125.616247 -48.3125 
L 128.477704 -48.3125 
L 131.339162 -48.3125 
L 134.200619 -48.3125 
L 137.062076 -48.3125 
L 139.923533 -48.3125 
L 142.78499 -48.3125 
L 145.646448 -48.3125 
L 148.507905 -48.3125 
L 151.369362 -48.3125 
L 154.230819 -48.3125 
L 157.092276 -48.3125 
L 159.953734 -48.3125 
L 162.815191 -48.3125 
L 165.676648 -48.3125 
L 168.538105 -48.3125 
L 171.399563 -48.3125 
L 174.26102 -48.3125 
L 177.122477 -48.3125 
L 179.983934 -48.3125 
L 182.845391 -48.3125 
L 185.706849 -48.3125 
L 188.568306 -48.3125 
L 191.429763 -48.3125 
L 194.29122 -48.3125 
L 197.152677 -48.3125 
L 200.014135 -48.3125 
L 202.875592 -48.3125 
L 205.737049 -48.3125 
L 208.598506 -48.3125 
L 211.459963 -48.3125 
L 214.321421 -48.3125 
L 217.182878 -48.3125 
L 220.044335 -48.3125 
L 222.905792 -48.3125 
L 225.767249 -48.3125 
L 228.628707 -48.3125 
L 231.490164 -48.3125 
L 234.351621 -48.3125 
L 237.213078 -48.3125 
L 240.074535 -48.3125 
L 242.935993 -48.3125 
L 245.79745 -48.3125 
L 248.658907 -48.3125 
L 251.520364 -48.3125 
L 254.381822 -48.3125 
L 257.243279 -48.3125 
L 260.104736 -48.3125 
L 262.966193 -48.3125 
L 265.82765 -48.3125 
L 268.689108 -48.3125 
L 271.550565 -48.3125 
L 274.412022 -48.3125 
L 277.273479 -48.3125 
L 280.134936 -48.3125 
L 282.996394 -48.3125 
L 285.857851 -48.3125 
L 288.719308 -48.3125 
L 291.580765 -48.3125 
L 294.442222 -48.3125 
L 297.30368 -48.3125 
L 300.165137 -48.3125 
L 303.026594 -48.3125 
L 305.888051 -48.3125 
L 308.749508 -48.3125 
L 311.610966 -48.3125 
L 314.472423 -48.3125 
L 317.33388 -48.3125 
L 320.195337 -48.3125 
L 323.056795 -48.3125 
L 325.918252 -48.3125 
L 328.779709 -48.3125 
L 331.641166 -48.3125 
L 334.502623 -48.3125 
L 337.364081 -48.3125 
L 340.225538 -48.3125 
L 343.086995 -48.3125 
L 345.948452 -48.3125 
L 348.809909 -48.3125 
L 351.671367 -48.3125 
L 354.532824 -48.3125 
L 357.394281 -48.3125 
L 360.255738 -48.3125 
L 363.117195 -48.3125 
L 365.978653 -48.3125 
L 368.84011 -48.3125 
L 371.701567 -48.3125 
L 374.563024 -48.3125 
L 377.424481 -48.3125 
L 380.285939 -48.3125 
L 383.147396 -48.3125 
L 386.008853 -48.3125 
L 388.87031 -48.3125 
L 391.731768 -48.3125 
L 394.593225 -48.3125 
L 397.454682 -48.3125 
L 400.316139 -48.3125 
L 403.177596 -48.3125 
L 406.039054 -48.3125 
L 408.900511 -48.3125 
L 411.761968 -48.3125 
L 414.623425 -48.3125 
L 417.484882 -48.3125 
L 420.34634 -48.3125 
L 423.207797 -48.3125 
L 426.069254 -48.3125 
L 428.930711 -48.3125 
L 431.792168 -48.3125 
L 434.653626 -48.3125 
L 437.515083 -48.3125 
L 440.37654 -48.3125 
L 443.237997 -48.3125 
L 446.099454 -48.3125 
L 448.960912 -48.3125 
L 451.822369 -48.3125 
L 454.683826 -48.3125 
L 457.545283 -48.3125 
L 460.40674 -48.3125 
L 463.268198 -48.3125 
L 466.129655 -48.3125 
L 468.991112 -48.3125 
L 471.852569 -48.3125 
L 474.714027 -48.3125 
L 477.575484 -48.3125 
L 480.436941 -48.3125 
L 483.298398 -48.3125 
L 486.159855 -48.3125 
L 489.021313 -48.3125 
L 491.88277 -48.3125 
L 494.744227 -48.3125 
L 497.605684 -48.3125 
L 500.467141 -48.3125 
L 503.328599 -48.3125 
L 506.190056 -48.3125 
L 509.051513 -48.3125 
L 511.91297 -48.3125 
L 514.774427 -48.3125 
L 517.635885 -48.3125 
L 520.497342 -48.3125 
L 523.358799 -48.3125 
L 526.220256 -48.3125 
L 529.081713 -48.3125 
L 531.943171 -48.3125 
L 534.804628 -48.3125 
L 537.666085 -48.3125 
L 540.527542 -48.3125 
L 543.389 -48.3125 
L 546.250457 -48.3125 
L 549.111914 -48.3125 
L 551.973371 -48.3125 
L 554.834828 -48.3125 
L 557.696286 -48.3125 
L 560.557743 -48.3125 
L 563.4192 -48.3125 
L 566.280657 -48.3125 
L 569.142114 -48.3125 
L 572.003572 -48.3125 
L 574.865029 -48.3125 
L 577.726486 -48.3125 
L 580.587943 -48.3125 
L 583.4494 -48.3125 
L 586.310858 -48.3125 
L 589.172315 -48.3125 
L 592.033772 -48.3125 
L 594.895229 -48.3125 
L 597.756686 -48.3125 
L 600.618144 -48.3125 
L 603.479601 -48.3125 
L 606.341058 -48.3125 
L 609.202515 -48.3125 
L 612.063973 -48.3125 
L 614.92543 -48.3125 
L 617.786887 -48.3125 
L 620.648344 -48.3125 
L 623.509801 -48.3125 
L 626.371259 -48.3125 
L 629.232716 -48.3125 
L 632.094173 -48.3125 
L 634.95563 -48.3125 
L 637.817087 -48.3125 
L 640.678545 -48.3125 
L 643.540002 -48.3125 
L 646.401459 -48.3125 
L 649.262916 -48.3125 
L 652.124373 -48.3125 
L 654.985831 -48.3125 
L 657.847288 -48.3125 
L 660.708745 -48.3125 
L 663.570202 -48.3125 
L 666.431659 -48.3125 
L 669.293117 -48.3125 
L 672.154574 -48.3125 
L 672.154574 -48.655439 
L 672.154574 -48.655439 
L 669.293117 -48.732224 
L 666.431659 -48.82415 
L 663.570202 -48.933725 
L 660.708745 -49.063774 
L 657.847288 -49.217451 
L 654.985831 -49.398263 
L 652.124373 -49.61008 
L 649.262916 -49.857145 
L 646.401459 -50.144077 
L 643.540002 -50.475869 
L 640.678545 -50.85788 
L 637.817087 -51.295814 
L 634.95563 -51.795697 
L 632.094173 -52.36384 
L 629.232716 -53.006793 
L 626.371259 -53.731293 
L 623.509801 -54.544197 
L 620.648344 -55.452407 
L 617.786887 -56.46279 
L 614.92543 -57.582085 
L 612.063973 -58.816807 
L 609.202515 -60.173143 
L 606.341058 -61.65685 
L 603.479601 -63.273149 
L 600.618144 -65.026618 
L 597.756686 -66.921095 
L 594.895229 -68.959584 
L 592.033772 -71.14417 
L 589.172315 -73.475947 
L 586.310858 -75.954957 
L 583.4494 -78.580149 
L 580.587943 -81.349348 
L 577.726486 -84.25925 
L 574.865029 -87.305429 
L 572.003572 -90.482364 
L 569.142114 -93.783485 
L 566.280657 -97.201237 
L 563.4192 -100.727153 
L 560.557743 -104.351947 
L 557.696286 -108.065611 
L 554.834828 -111.857525 
L 551.973371 -115.71657 
L 549.111914 -119.63124 
L 546.250457 -123.589757 
L 543.389 -127.580181 
L 540.527542 -131.590517 
L 537.666085 -135.608807 
L 534.804628 -139.623221 
L 531.943171 -143.622139 
L 529.081713 -147.594212 
L 526.220256 -151.528428 
L 523.358799 -155.414161 
L 520.497342 -159.241212 
L 517.635885 -162.999848 
L 514.774427 -166.680833 
L 511.91297 -170.27546 
L 509.051513 -173.77558 
L 506.190056 -177.173631 
L 503.328599 -180.462672 
L 500.467141 -183.636416 
L 497.605684 -186.689274 
L 494.744227 -189.61639 
L 491.88277 -192.413691 
L 489.021313 -195.077935 
L 486.159855 -197.606754 
L 483.298398 -199.998705 
L 480.436941 -202.253311 
L 477.575484 -204.3711 
L 474.714027 -206.353635 
L 471.852569 -208.203535 
L 468.991112 -209.924486 
L 466.129655 -211.521243 
L 463.268198 -212.999606 
L 460.40674 -214.366402 
L 457.545283 -215.629434 
L 454.683826 -216.797432 
L 451.822369 -217.87998 
L 448.960912 -218.887444 
L 446.099454 -219.830875 
L 443.237997 -220.721922 
L 440.37654 -221.572724 
L 437.515083 -222.395803 
L 434.653626 -223.203961 
L 431.792168 -224.010158 
L 428.930711 -224.827408 
L 426.069254 -225.668663 
L 423.207797 -226.546699 
L 420.34634 -227.474005 
L 417.484882 -228.462669 
L 414.623425 -229.524266 
L 411.761968 -230.669746 
L 408.900511 -231.909315 
L 406.039054 -233.252322 
L 403.177596 -234.707143 
L 400.316139 -236.281065 
L 397.454682 -237.980169 
L 394.593225 -239.809219 
L 391.731768 -241.77155 
L 388.87031 -243.86897 
L 386.008853 -246.101662 
L 383.147396 -248.468103 
L 380.285939 -250.964998 
L 377.424481 -253.587225 
L 374.563024 -256.327808 
L 371.701567 -259.177901 
L 368.84011 -262.126808 
L 365.978653 -265.162009 
L 363.117195 -268.269229 
L 360.255738 -271.432519 
L 357.394281 -274.63436 
L 354.532824 -277.855791 
L 351.671367 -281.07656 
L 348.809909 -284.275274 
L 345.948452 -287.429585 
L 343.086995 -290.516362 
L 340.225538 -293.511885 
L 337.364081 -296.392038 
L 334.502623 -299.132494 
L 331.641166 -301.70891 
L 328.779709 -304.09711 
L 325.918252 -306.273259 
L 323.056795 -308.214046 
L 320.195337 -309.896839 
L 317.33388 -311.299853 
L 314.472423 -312.402301 
L 311.610966 -313.184545 
L 308.749508 -313.628244 
L 305.888051 -313.716498 
L 303.026594 -313.433993 
L 300.165137 -312.767144 
L 297.30368 -311.70424 
L 294.442222 -310.235583 
L 291.580765 -308.353634 
L 288.719308 -306.05315 
L 285.857851 -303.331312 
L 282.996394 -300.187851 
L 280.134936 -296.625161 
L 277.273479 -292.648389 
L 274.412022 -288.265511 
L 271.550565 -283.487378 
L 268.689108 -278.327738 
L 265.82765 -272.80322 
L 262.966193 -266.933281 
L 260.104736 -260.740119 
L 257.243279 -254.248536 
L 254.381822 -247.485769 
L 251.520364 -240.481272 
L 248.658907 -233.266458 
L 245.79745 -225.874412 
L 242.935993 -218.339557 
L 240.074535 -210.697307 
L 237.213078 -202.983685 
L 234.351621 -195.234932 
L 231.490164 -187.487108 
L 228.628707 -179.775694 
L 225.767249 -172.135195 
L 222.905792 -164.598767 
L 220.044335 -157.197865 
L 217.182878 -149.961918 
L 214.321421 -142.918047 
L 211.459963 -136.090814 
L 208.598506 -129.502031 
L 205.737049 -123.170604 
L 202.875592 -117.112438 
L 200.014135 -111.340384 
L 197.152677 -105.864242 
L 194.29122 -100.690807 
L 191.429763 -95.823966 
L 188.568306 -91.264823 
L 185.706849 -87.011874 
L 182.845391 -83.061202 
L 179.983934 -79.406703 
L 177.122477 -76.04032 
L 174.26102 -72.952302 
L 171.399563 -70.131463 
L 168.538105 -67.565436 
L 165.676648 -65.240936 
L 162.815191 -63.144001 
L 159.953734 -61.260227 
L 157.092276 -59.574986 
L 154.230819 -58.073621 
L 151.369362 -56.741628 
L 148.507905 -55.564808 
L 145.646448 -54.529398 
L 142.78499 -53.622187 
L 139.923533 -52.830598 
L 137.062076 -52.142757 
L 134.200619 -51.547545 
L 131.339162 -51.034621 
L 128.477704 -50.594439 
L 125.616247 -50.218246 
L 122.75479 -49.898071 
L 119.893333 -49.6267 
L 117.031876 -49.397646 
L 114.170418 -49.205108 
L 111.308961 -49.043935 
L 108.447504 -48.909574 
L 105.586047 -48.79803 
L 102.72459 -48.705808 
z
" style="stroke: #2ecc71"/>
    </defs>
    <g clip-path="url(#pe594f1b1a2)">
     <use xlink:href="#m1bd63137be" x="0" y="420.48" style="fill: #2ecc71; fill-opacity: 0.3; stroke: #2ecc71"/>
    </g>
   </g>
   <g id="PolyCollection_2">
    <defs>
     <path id="mb37da6352f" d="M 89.646051 -50.036146 
L 89.646051 -48.3125 
L 91.689568 -48.3125 
L 93.733085 -48.3125 
L 95.776602 -48.3125 
L 97.820119 -48.3125 
L 99.863636 -48.3125 
L 101.907153 -48.3125 
L 103.95067 -48.3125 
L 105.994187 -48.3125 
L 108.037704 -48.3125 
L 110.08122 -48.3125 
L 112.124737 -48.3125 
L 114.168254 -48.3125 
L 116.211771 -48.3125 
L 118.255288 -48.3125 
L 120.298805 -48.3125 
L 122.342322 -48.3125 
L 124.385839 -48.3125 
L 126.429356 -48.3125 
L 128.472873 -48.3125 
L 130.51639 -48.3125 
L 132.559907 -48.3125 
L 134.603424 -48.3125 
L 136.646941 -48.3125 
L 138.690458 -48.3125 
L 140.733974 -48.3125 
L 142.777491 -48.3125 
L 144.821008 -48.3125 
L 146.864525 -48.3125 
L 148.908042 -48.3125 
L 150.951559 -48.3125 
L 152.995076 -48.3125 
L 155.038593 -48.3125 
L 157.08211 -48.3125 
L 159.125627 -48.3125 
L 161.169144 -48.3125 
L 163.212661 -48.3125 
L 165.256178 -48.3125 
L 167.299695 -48.3125 
L 169.343212 -48.3125 
L 171.386728 -48.3125 
L 173.430245 -48.3125 
L 175.473762 -48.3125 
L 177.517279 -48.3125 
L 179.560796 -48.3125 
L 181.604313 -48.3125 
L 183.64783 -48.3125 
L 185.691347 -48.3125 
L 187.734864 -48.3125 
L 189.778381 -48.3125 
L 191.821898 -48.3125 
L 193.865415 -48.3125 
L 195.908932 -48.3125 
L 197.952449 -48.3125 
L 199.995966 -48.3125 
L 202.039482 -48.3125 
L 204.082999 -48.3125 
L 206.126516 -48.3125 
L 208.170033 -48.3125 
L 210.21355 -48.3125 
L 212.257067 -48.3125 
L 214.300584 -48.3125 
L 216.344101 -48.3125 
L 218.387618 -48.3125 
L 220.431135 -48.3125 
L 222.474652 -48.3125 
L 224.518169 -48.3125 
L 226.561686 -48.3125 
L 228.605203 -48.3125 
L 230.64872 -48.3125 
L 232.692237 -48.3125 
L 234.735753 -48.3125 
L 236.77927 -48.3125 
L 238.822787 -48.3125 
L 240.866304 -48.3125 
L 242.909821 -48.3125 
L 244.953338 -48.3125 
L 246.996855 -48.3125 
L 249.040372 -48.3125 
L 251.083889 -48.3125 
L 253.127406 -48.3125 
L 255.170923 -48.3125 
L 257.21444 -48.3125 
L 259.257957 -48.3125 
L 261.301474 -48.3125 
L 263.344991 -48.3125 
L 265.388507 -48.3125 
L 267.432024 -48.3125 
L 269.475541 -48.3125 
L 271.519058 -48.3125 
L 273.562575 -48.3125 
L 275.606092 -48.3125 
L 277.649609 -48.3125 
L 279.693126 -48.3125 
L 281.736643 -48.3125 
L 283.78016 -48.3125 
L 285.823677 -48.3125 
L 287.867194 -48.3125 
L 289.910711 -48.3125 
L 291.954228 -48.3125 
L 293.997745 -48.3125 
L 296.041261 -48.3125 
L 298.084778 -48.3125 
L 300.128295 -48.3125 
L 302.171812 -48.3125 
L 304.215329 -48.3125 
L 306.258846 -48.3125 
L 308.302363 -48.3125 
L 310.34588 -48.3125 
L 312.389397 -48.3125 
L 314.432914 -48.3125 
L 316.476431 -48.3125 
L 318.519948 -48.3125 
L 320.563465 -48.3125 
L 322.606982 -48.3125 
L 324.650499 -48.3125 
L 326.694015 -48.3125 
L 328.737532 -48.3125 
L 330.781049 -48.3125 
L 332.824566 -48.3125 
L 334.868083 -48.3125 
L 336.9116 -48.3125 
L 338.955117 -48.3125 
L 340.998634 -48.3125 
L 343.042151 -48.3125 
L 345.085668 -48.3125 
L 347.129185 -48.3125 
L 349.172702 -48.3125 
L 351.216219 -48.3125 
L 353.259736 -48.3125 
L 355.303253 -48.3125 
L 357.346769 -48.3125 
L 359.390286 -48.3125 
L 361.433803 -48.3125 
L 363.47732 -48.3125 
L 365.520837 -48.3125 
L 367.564354 -48.3125 
L 369.607871 -48.3125 
L 371.651388 -48.3125 
L 373.694905 -48.3125 
L 375.738422 -48.3125 
L 377.781939 -48.3125 
L 379.825456 -48.3125 
L 381.868973 -48.3125 
L 383.91249 -48.3125 
L 385.956007 -48.3125 
L 387.999523 -48.3125 
L 390.04304 -48.3125 
L 392.086557 -48.3125 
L 394.130074 -48.3125 
L 396.173591 -48.3125 
L 398.217108 -48.3125 
L 400.260625 -48.3125 
L 402.304142 -48.3125 
L 404.347659 -48.3125 
L 406.391176 -48.3125 
L 408.434693 -48.3125 
L 410.47821 -48.3125 
L 412.521727 -48.3125 
L 414.565244 -48.3125 
L 416.608761 -48.3125 
L 418.652277 -48.3125 
L 420.695794 -48.3125 
L 422.739311 -48.3125 
L 424.782828 -48.3125 
L 426.826345 -48.3125 
L 428.869862 -48.3125 
L 430.913379 -48.3125 
L 432.956896 -48.3125 
L 435.000413 -48.3125 
L 437.04393 -48.3125 
L 439.087447 -48.3125 
L 441.130964 -48.3125 
L 443.174481 -48.3125 
L 445.217998 -48.3125 
L 447.261515 -48.3125 
L 449.305031 -48.3125 
L 451.348548 -48.3125 
L 453.392065 -48.3125 
L 455.435582 -48.3125 
L 457.479099 -48.3125 
L 459.522616 -48.3125 
L 461.566133 -48.3125 
L 463.60965 -48.3125 
L 465.653167 -48.3125 
L 467.696684 -48.3125 
L 469.740201 -48.3125 
L 471.783718 -48.3125 
L 473.827235 -48.3125 
L 475.870752 -48.3125 
L 477.914269 -48.3125 
L 479.957785 -48.3125 
L 482.001302 -48.3125 
L 484.044819 -48.3125 
L 486.088336 -48.3125 
L 488.131853 -48.3125 
L 490.17537 -48.3125 
L 492.218887 -48.3125 
L 494.262404 -48.3125 
L 496.305921 -48.3125 
L 496.305921 -50.205603 
L 496.305921 -50.205603 
L 494.262404 -50.481445 
L 492.218887 -50.792754 
L 490.17537 -51.143355 
L 488.131853 -51.53738 
L 486.088336 -51.979279 
L 484.044819 -52.473825 
L 482.001302 -53.026124 
L 479.957785 -53.641619 
L 477.914269 -54.326089 
L 475.870752 -55.085649 
L 473.827235 -55.926742 
L 471.783718 -56.856137 
L 469.740201 -57.880905 
L 467.696684 -59.008413 
L 465.653167 -60.246292 
L 463.60965 -61.602414 
L 461.566133 -63.084857 
L 459.522616 -64.701868 
L 457.479099 -66.461816 
L 455.435582 -68.373144 
L 453.392065 -70.444312 
L 451.348548 -72.683733 
L 449.305031 -75.09971 
L 447.261515 -77.700356 
L 445.217998 -80.493524 
L 443.174481 -83.486716 
L 441.130964 -86.687003 
L 439.087447 -90.100931 
L 437.04393 -93.734428 
L 435.000413 -97.592712 
L 432.956896 -101.680193 
L 430.913379 -106.000378 
L 428.869862 -110.55578 
L 426.826345 -115.347824 
L 424.782828 -120.376761 
L 422.739311 -125.641586 
L 420.695794 -131.139965 
L 418.652277 -136.868165 
L 416.608761 -142.820999 
L 414.565244 -148.991778 
L 412.521727 -155.372275 
L 410.47821 -161.952709 
L 408.434693 -168.721733 
L 406.391176 -175.666442 
L 404.347659 -182.772401 
L 402.304142 -190.023686 
L 400.260625 -197.40294 
L 398.217108 -204.891449 
L 396.173591 -212.469238 
L 394.130074 -220.115181 
L 392.086557 -227.807127 
L 390.04304 -235.522042 
L 387.999523 -243.236173 
L 385.956007 -250.925211 
L 383.91249 -258.564484 
L 381.868973 -266.129145 
L 379.825456 -273.594375 
L 377.781939 -280.935594 
L 375.738422 -288.128672 
L 373.694905 -295.150143 
L 371.651388 -301.977417 
L 369.607871 -308.588986 
L 367.564354 -314.964628 
L 365.520837 -321.085599 
L 363.47732 -326.93481 
L 361.433803 -332.496992 
L 359.390286 -337.758845 
L 357.346769 -342.709165 
L 355.303253 -347.338947 
L 353.259736 -351.641473 
L 351.216219 -355.612367 
L 349.172702 -359.249626 
L 347.129185 -362.553625 
L 345.085668 -365.527096 
L 343.042151 -368.175076 
L 340.998634 -370.504828 
L 338.955117 -372.525743 
L 336.9116 -374.249202 
L 334.868083 -375.688429 
L 332.824566 -376.858313 
L 330.781049 -377.775211 
L 328.737532 -378.456736 
L 326.694015 -378.92153 
L 324.650499 -379.189018 
L 322.606982 -379.279167 
L 320.563465 -379.212222 
L 318.519948 -379.008458 
L 316.476431 -378.687917 
L 314.432914 -378.27016 
L 312.389397 -377.774024 
L 310.34588 -377.217388 
L 308.302363 -376.616956 
L 306.258846 -375.988055 
L 304.215329 -375.344455 
L 302.171812 -374.698207 
L 300.128295 -374.059507 
L 298.084778 -373.436591 
L 296.041261 -372.835642 
L 293.997745 -372.260744 
L 291.954228 -371.713846 
L 289.910711 -371.194767 
L 287.867194 -370.701223 
L 285.823677 -370.228883 
L 283.78016 -369.77145 
L 281.736643 -369.320769 
L 279.693126 -368.866956 
L 277.649609 -368.398548 
L 275.606092 -367.902676 
L 273.562575 -367.365248 
L 271.519058 -366.771152 
L 269.475541 -366.104466 
L 267.432024 -365.348678 
L 265.388507 -364.486912 
L 263.344991 -363.50215 
L 261.301474 -362.377468 
L 259.257957 -361.09625 
L 257.21444 -359.64241 
L 255.170923 -358.000599 
L 253.127406 -356.156405 
L 251.083889 -354.096531 
L 249.040372 -351.808969 
L 246.996855 -349.28315 
L 244.953338 -346.510077 
L 242.909821 -343.482435 
L 240.866304 -340.194691 
L 238.822787 -336.643155 
L 236.77927 -332.826039 
L 234.735753 -328.743477 
L 232.692237 -324.397536 
L 230.64872 -319.792198 
L 228.605203 -314.933324 
L 226.561686 -309.828602 
L 224.518169 -304.487469 
L 222.474652 -298.921021 
L 220.431135 -293.14191 
L 218.387618 -287.16422 
L 216.344101 -281.003336 
L 214.300584 -274.675801 
L 212.257067 -268.199165 
L 210.21355 -261.591826 
L 208.170033 -254.87287 
L 206.126516 -248.061904 
L 204.082999 -241.178893 
L 202.039482 -234.243993 
L 199.995966 -227.27739 
L 197.952449 -220.299148 
L 195.908932 -213.329051 
L 193.865415 -206.386467 
L 191.821898 -199.490208 
L 189.778381 -192.65841 
L 187.734864 -185.90842 
L 185.691347 -179.256691 
L 183.64783 -172.718692 
L 181.604313 -166.308839 
L 179.560796 -160.040419 
L 177.517279 -153.925551 
L 175.473762 -147.975139 
L 173.430245 -142.198852 
L 171.386728 -136.605109 
L 169.343212 -131.201077 
L 167.299695 -125.992683 
L 165.256178 -120.984632 
L 163.212661 -116.180441 
L 161.169144 -111.582474 
L 159.125627 -107.19199 
L 157.08211 -103.0092 
L 155.038593 -99.033322 
L 152.995076 -95.262647 
L 150.951559 -91.694613 
L 148.908042 -88.325869 
L 146.864525 -85.152352 
L 144.821008 -82.169364 
L 142.777491 -79.371644 
L 140.733974 -76.753444 
L 138.690458 -74.308602 
L 136.646941 -72.030614 
L 134.603424 -69.912702 
L 132.559907 -67.947879 
L 130.51639 -66.129015 
L 128.472873 -64.448889 
L 126.429356 -62.900253 
L 124.385839 -61.475871 
L 122.342322 -60.168574 
L 120.298805 -58.971295 
L 118.255288 -57.877107 
L 116.211771 -56.879258 
L 114.168254 -55.971193 
L 112.124737 -55.146582 
L 110.08122 -54.399337 
L 108.037704 -53.723626 
L 105.994187 -53.113889 
L 103.95067 -52.564841 
L 101.907153 -52.071479 
L 99.863636 -51.629086 
L 97.820119 -51.233225 
L 95.776602 -50.879745 
L 93.733085 -50.564766 
L 91.689568 -50.284682 
L 89.646051 -50.036146 
z
" style="stroke: #e74c3c"/>
    </defs>
    <g clip-path="url(#pe594f1b1a2)">
     <use xlink:href="#mb37da6352f" x="0" y="420.48" style="fill: #e74c3c; fill-opacity: 0.3; stroke: #e74c3c"/>
    </g>
   </g>
   <g id="patch_3">
    <path d="M 60.520625 372.1675 
L 60.520625 24.6525 
" style="fill: none; stroke: #cccccc; stroke-width: 1.5; stroke-linejoin: miter; stroke-linecap: square"/>
   </g>
   <g id="patch_4">
    <path d="M 60.520625 372.1675 
L 701.28 372.1675 
" style="fill: none; stroke: #cccccc; stroke-width: 1.5; stroke-linejoin: miter; stroke-linecap: square"/>
   </g>
   <g id="text_20">
    <!-- Distribution of Absolute Errors -->
    <g style="fill: #262626" transform="translate(275.080312 18.6525) scale(0.16 -0.16)">
     <defs>
      <path id="ArialMT-62" d="M 941 0 
L 419 0 
L 419 4581 
L 981 4581 
L 981 2947 
Q 1338 3394 1891 3394 
Q 2197 3394 2470 3270 
Q 2744 3147 2920 2923 
Q 3097 2700 3197 2384 
Q 3297 2069 3297 1709 
Q 3297 856 2875 390 
Q 2453 -75 1863 -75 
Q 1275 -75 941 416 
L 941 0 
z
M 934 1684 
Q 934 1088 1097 822 
Q 1363 388 1816 388 
Q 2184 388 2453 708 
Q 2722 1028 2722 1663 
Q 2722 2313 2464 2622 
Q 2206 2931 1841 2931 
Q 1472 2931 1203 2611 
Q 934 2291 934 1684 
z
" transform="scale(0.015625)"/>
      <path id="ArialMT-75" d="M 2597 0 
L 2597 488 
Q 2209 -75 1544 -75 
Q 1250 -75 995 37 
Q 741 150 617 320 
Q 494 491 444 738 
Q 409 903 409 1263 
L 409 3319 
L 972 3319 
L 972 1478 
Q 972 1038 1006 884 
Q 1059 663 1231 536 
Q 1403 409 1656 409 
Q 1909 409 2131 539 
Q 2353 669 2445 892 
Q 2538 1116 2538 1541 
L 2538 3319 
L 3100 3319 
L 3100 0 
L 2597 0 
z
" transform="scale(0.015625)"/>
      <path id="ArialMT-66" d="M 556 0 
L 556 2881 
L 59 2881 
L 59 3319 
L 556 3319 
L 556 3672 
Q 556 4006 616 4169 
Q 697 4388 901 4523 
Q 1106 4659 1475 4659 
Q 1713 4659 2000 4603 
L 1916 4113 
Q 1741 4144 1584 4144 
Q 1328 4144 1222 4034 
Q 1116 3925 1116 3625 
L 1116 3319 
L 1763 3319 
L 1763 2881 
L 1116 2881 
L 1116 0 
L 556 0 
z
" transform="scale(0.015625)"/>
      <path id="ArialMT-41" d="M -9 0 
L 1750 4581 
L 2403 4581 
L 4278 0 
L 3588 0 
L 3053 1388 
L 1138 1388 
L 634 0 
L -9 0 
z
M 1313 1881 
L 2866 1881 
L 2388 3150 
Q 2169 3728 2063 4100 
Q 1975 3659 1816 3225 
L 1313 1881 
z
" transform="scale(0.015625)"/>
      <path id="ArialMT-6c" d="M 409 0 
L 409 4581 
L 972 4581 
L 972 0 
L 409 0 
z
" transform="scale(0.015625)"/>
     </defs>
     <use xlink:href="#ArialMT-44"/>
     <use xlink:href="#ArialMT-69" x="72.216797"/>
     <use xlink:href="#ArialMT-73" x="94.433594"/>
     <use xlink:href="#ArialMT-74" x="144.433594"/>
     <use xlink:href="#ArialMT-72" x="172.216797"/>
     <use xlink:href="#ArialMT-69" x="205.517578"/>
     <use xlink:href="#ArialMT-62" x="227.734375"/>
     <use xlink:href="#ArialMT-75" x="283.349609"/>
     <use xlink:href="#ArialMT-74" x="338.964844"/>
     <use xlink:href="#ArialMT-69" x="366.748047"/>
     <use xlink:href="#ArialMT-6f" x="388.964844"/>
     <use xlink:href="#ArialMT-6e" x="444.580078"/>
     <use xlink:href="#ArialMT-20" x="500.195312"/>
     <use xlink:href="#ArialMT-6f" x="527.978516"/>
     <use xlink:href="#ArialMT-66" x="583.59375"/>
     <use xlink:href="#ArialMT-20" x="611.376953"/>
     <use xlink:href="#ArialMT-41" x="633.660156"/>
     <use xlink:href="#ArialMT-62" x="700.359375"/>
     <use xlink:href="#ArialMT-73" x="755.974609"/>
     <use xlink:href="#ArialMT-6f" x="805.974609"/>
     <use xlink:href="#ArialMT-6c" x="861.589844"/>
     <use xlink:href="#ArialMT-75" x="883.806641"/>
     <use xlink:href="#ArialMT-74" x="939.421875"/>
     <use xlink:href="#ArialMT-65" x="967.205078"/>
     <use xlink:href="#ArialMT-20" x="1022.820312"/>
     <use xlink:href="#ArialMT-45" x="1050.603516"/>
     <use xlink:href="#ArialMT-72" x="1117.302734"/>
     <use xlink:href="#ArialMT-72" x="1150.603516"/>
     <use xlink:href="#ArialMT-6f" x="1183.904297"/>
     <use xlink:href="#ArialMT-72" x="1239.519531"/>
     <use xlink:href="#ArialMT-73" x="1272.820312"/>
    </g>
   </g>
   <g id="legend_1">
    <g id="patch_5">
     <path d="M 497.20125 68.775 
L 692.88 68.775 
Q 695.28 68.775 695.28 66.375 
L 695.28 33.0525 
Q 695.28 30.6525 692.88 30.6525 
L 497.20125 30.6525 
Q 494.80125 30.6525 494.80125 33.0525 
L 494.80125 66.375 
Q 494.80125 68.775 497.20125 68.775 
z
" style="fill: #ffffff; opacity: 0.8; stroke: #cccccc; stroke-linejoin: miter"/>
    </g>
    <g id="patch_6">
     <path d="M 499.60125 44.188125 
L 523.60125 44.188125 
L 523.60125 35.788125 
L 499.60125 35.788125 
z
" style="fill: #2ecc71; fill-opacity: 0.3; stroke: #2ecc71; stroke-linejoin: miter"/>
    </g>
    <g id="text_21">
     <!-- Training (μ=1.97%, σ=1.12%) -->
     <g style="fill: #262626" transform="translate(533.20125 44.188125) scale(0.12 -0.12)">
      <defs>
       <path id="ArialMT-54" d="M 1659 0 
L 1659 4041 
L 150 4041 
L 150 4581 
L 3781 4581 
L 3781 4041 
L 2266 4041 
L 2266 0 
L 1659 0 
z
" transform="scale(0.015625)"/>
       <path id="ArialMT-61" d="M 2588 409 
Q 2275 144 1986 34 
Q 1697 -75 1366 -75 
Q 819 -75 525 192 
Q 231 459 231 875 
Q 231 1119 342 1320 
Q 453 1522 633 1644 
Q 813 1766 1038 1828 
Q 1203 1872 1538 1913 
Q 2219 1994 2541 2106 
Q 2544 2222 2544 2253 
Q 2544 2597 2384 2738 
Q 2169 2928 1744 2928 
Q 1347 2928 1158 2789 
Q 969 2650 878 2297 
L 328 2372 
Q 403 2725 575 2942 
Q 747 3159 1072 3276 
Q 1397 3394 1825 3394 
Q 2250 3394 2515 3294 
Q 2781 3194 2906 3042 
Q 3031 2891 3081 2659 
Q 3109 2516 3109 2141 
L 3109 1391 
Q 3109 606 3145 398 
Q 3181 191 3288 0 
L 2700 0 
Q 2613 175 2588 409 
z
M 2541 1666 
Q 2234 1541 1622 1453 
Q 1275 1403 1131 1340 
Q 988 1278 909 1158 
Q 831 1038 831 891 
Q 831 666 1001 516 
Q 1172 366 1500 366 
Q 1825 366 2078 508 
Q 2331 650 2450 897 
Q 2541 1088 2541 1459 
L 2541 1666 
z
" transform="scale(0.015625)"/>
       <path id="ArialMT-67" d="M 319 -275 
L 866 -356 
Q 900 -609 1056 -725 
Q 1266 -881 1628 -881 
Q 2019 -881 2231 -725 
Q 2444 -569 2519 -288 
Q 2563 -116 2559 434 
Q 2191 0 1641 0 
Q 956 0 581 494 
Q 206 988 206 1678 
Q 206 2153 378 2554 
Q 550 2956 876 3175 
Q 1203 3394 1644 3394 
Q 2231 3394 2613 2919 
L 2613 3319 
L 3131 3319 
L 3131 450 
Q 3131 -325 2973 -648 
Q 2816 -972 2473 -1159 
Q 2131 -1347 1631 -1347 
Q 1038 -1347 672 -1080 
Q 306 -813 319 -275 
z
M 784 1719 
Q 784 1066 1043 766 
Q 1303 466 1694 466 
Q 2081 466 2343 764 
Q 2606 1063 2606 1700 
Q 2606 2309 2336 2618 
Q 2066 2928 1684 2928 
Q 1309 2928 1046 2623 
Q 784 2319 784 1719 
z
" transform="scale(0.015625)"/>
       <path id="ArialMT-3bc" d="M 3181 3319 
L 3181 0 
L 2678 0 
L 2678 394 
Q 2516 144 2356 50 
Q 2138 -78 1847 -78 
Q 1588 -78 1388 25 
Q 1238 103 1056 334 
L 1056 -1272 
L 500 -1272 
L 500 3319 
L 1056 3319 
L 1056 1913 
Q 1056 1147 1137 920 
Q 1219 694 1401 562 
Q 1584 431 1822 431 
Q 2072 431 2269 568 
Q 2466 706 2547 923 
Q 2628 1141 2628 1903 
L 2628 3319 
L 3181 3319 
z
" transform="scale(0.015625)"/>
       <path id="ArialMT-3d" d="M 3381 2694 
L 356 2694 
L 356 3219 
L 3381 3219 
L 3381 2694 
z
M 3381 1303 
L 356 1303 
L 356 1828 
L 3381 1828 
L 3381 1303 
z
" transform="scale(0.015625)"/>
       <path id="ArialMT-39" d="M 350 1059 
L 891 1109 
Q 959 728 1153 556 
Q 1347 384 1650 384 
Q 1909 384 2104 503 
Q 2300 622 2425 820 
Q 2550 1019 2634 1356 
Q 2719 1694 2719 2044 
Q 2719 2081 2716 2156 
Q 2547 1888 2255 1720 
Q 1963 1553 1622 1553 
Q 1053 1553 659 1965 
Q 266 2378 266 3053 
Q 266 3750 677 4175 
Q 1088 4600 1706 4600 
Q 2153 4600 2523 4359 
Q 2894 4119 3086 3673 
Q 3278 3228 3278 2384 
Q 3278 1506 3087 986 
Q 2897 466 2520 194 
Q 2144 -78 1638 -78 
Q 1100 -78 759 220 
Q 419 519 350 1059 
z
M 2653 3081 
Q 2653 3566 2395 3850 
Q 2138 4134 1775 4134 
Q 1400 4134 1122 3828 
Q 844 3522 844 3034 
Q 844 2597 1108 2323 
Q 1372 2050 1759 2050 
Q 2150 2050 2401 2323 
Q 2653 2597 2653 3081 
z
" transform="scale(0.015625)"/>
       <path id="ArialMT-37" d="M 303 3981 
L 303 4522 
L 3269 4522 
L 3269 4084 
Q 2831 3619 2401 2847 
Q 1972 2075 1738 1259 
Q 1569 684 1522 0 
L 944 0 
Q 953 541 1156 1306 
Q 1359 2072 1739 2783 
Q 2119 3494 2547 3981 
L 303 3981 
z
" transform="scale(0.015625)"/>
       <path id="ArialMT-2c" d="M 569 0 
L 569 641 
L 1209 641 
L 1209 0 
Q 1209 -353 1084 -570 
Q 959 -788 688 -906 
L 531 -666 
Q 709 -588 793 -436 
Q 878 -284 888 0 
L 569 0 
z
" transform="scale(0.015625)"/>
       <path id="ArialMT-3c3" d="M 3809 3319 
L 3809 2863 
L 2906 2863 
Q 3322 2475 3322 1656 
Q 3322 766 2867 345 
Q 2413 -75 1763 -75 
Q 1088 -75 650 362 
Q 213 800 213 1659 
Q 213 2544 667 2969 
Q 1122 3394 1763 3394 
Q 1997 3394 2294 3319 
L 3809 3319 
z
M 1753 2928 
Q 1344 2928 1067 2609 
Q 791 2291 791 1656 
Q 791 1025 1061 706 
Q 1331 388 1763 388 
Q 2216 388 2483 720 
Q 2750 1053 2750 1659 
Q 2750 2213 2504 2570 
Q 2259 2928 1753 2928 
z
" transform="scale(0.015625)"/>
      </defs>
      <use xlink:href="#ArialMT-54"/>
      <use xlink:href="#ArialMT-72" x="57.333984"/>
      <use xlink:href="#ArialMT-61" x="90.634766"/>
      <use xlink:href="#ArialMT-69" x="146.25"/>
      <use xlink:href="#ArialMT-6e" x="168.466797"/>
      <use xlink:href="#ArialMT-69" x="224.082031"/>
      <use xlink:href="#ArialMT-6e" x="246.298828"/>
      <use xlink:href="#ArialMT-67" x="301.914062"/>
      <use xlink:href="#ArialMT-20" x="357.529297"/>
      <use xlink:href="#ArialMT-28" x="385.3125"/>
      <use xlink:href="#ArialMT-3bc" x="418.613281"/>
      <use xlink:href="#ArialMT-3d" x="476.230469"/>
      <use xlink:href="#ArialMT-31" x="534.628906"/>
      <use xlink:href="#ArialMT-2e" x="590.244141"/>
      <use xlink:href="#ArialMT-39" x="618.027344"/>
      <use xlink:href="#ArialMT-37" x="673.642578"/>
      <use xlink:href="#ArialMT-25" x="729.257812"/>
      <use xlink:href="#ArialMT-2c" x="818.173828"/>
      <use xlink:href="#ArialMT-20" x="845.957031"/>
      <use xlink:href="#ArialMT-3c3" x="873.740234"/>
      <use xlink:href="#ArialMT-3d" x="935.458984"/>
      <use xlink:href="#ArialMT-31" x="993.857422"/>
      <use xlink:href="#ArialMT-2e" x="1049.472656"/>
      <use xlink:href="#ArialMT-31" x="1077.255859"/>
      <use xlink:href="#ArialMT-32" x="1132.871094"/>
      <use xlink:href="#ArialMT-25" x="1188.486328"/>
      <use xlink:href="#ArialMT-29" x="1277.402344"/>
     </g>
    </g>
    <g id="patch_7">
     <path d="M 499.60125 61.449375 
L 523.60125 61.449375 
L 523.60125 53.049375 
L 499.60125 53.049375 
z
" style="fill: #e74c3c; fill-opacity: 0.3; stroke: #e74c3c; stroke-linejoin: miter"/>
    </g>
    <g id="text_22">
     <!-- Testing (μ=1.09%, σ=0.75%) -->
     <g style="fill: #262626" transform="translate(533.20125 61.449375) scale(0.12 -0.12)">
      <use xlink:href="#ArialMT-54"/>
      <use xlink:href="#ArialMT-65" x="49.958984"/>
      <use xlink:href="#ArialMT-73" x="105.574219"/>
      <use xlink:href="#ArialMT-74" x="155.574219"/>
      <use xlink:href="#ArialMT-69" x="183.357422"/>
      <use xlink:href="#ArialMT-6e" x="205.574219"/>
      <use xlink:href="#ArialMT-67" x="261.189453"/>
      <use xlink:href="#ArialMT-20" x="316.804688"/>
      <use xlink:href="#ArialMT-28" x="344.587891"/>
      <use xlink:href="#ArialMT-3bc" x="377.888672"/>
      <use xlink:href="#ArialMT-3d" x="435.505859"/>
      <use xlink:href="#ArialMT-31" x="493.904297"/>
      <use xlink:href="#ArialMT-2e" x="549.519531"/>
      <use xlink:href="#ArialMT-30" x="577.302734"/>
      <use xlink:href="#ArialMT-39" x="632.917969"/>
      <use xlink:href="#ArialMT-25" x="688.533203"/>
      <use xlink:href="#ArialMT-2c" x="777.449219"/>
      <use xlink:href="#ArialMT-20" x="805.232422"/>
      <use xlink:href="#ArialMT-3c3" x="833.015625"/>
      <use xlink:href="#ArialMT-3d" x="894.734375"/>
      <use xlink:href="#ArialMT-30" x="953.132812"/>
      <use xlink:href="#ArialMT-2e" x="1008.748047"/>
      <use xlink:href="#ArialMT-37" x="1036.53125"/>
      <use xlink:href="#ArialMT-35" x="1092.146484"/>
      <use xlink:href="#ArialMT-25" x="1147.761719"/>
      <use xlink:href="#ArialMT-29" x="1236.677734"/>
     </g>
    </g>
   </g>
  </g>
 </g>
 <defs>
  <clipPath id="pe594f1b1a2">
   <rect x="60.520625" y="24.6525" width="640.759375" height="347.515"/>
  </clipPath>
 </defs>
</svg>
