<?xml version="1.0" encoding="utf-8" standalone="no"?>
<!DOCTYPE svg PUBLIC "-//W3C//DTD SVG 1.1//EN"
  "http://www.w3.org/Graphics/SVG/1.1/DTD/svg11.dtd">
<svg xmlns:xlink="http://www.w3.org/1999/xlink" width="708.48pt" height="420.48pt" viewBox="0 0 708.48 420.48" xmlns="http://www.w3.org/2000/svg" version="1.1">
 <metadata>
  <rdf:RDF xmlns:dc="http://purl.org/dc/elements/1.1/" xmlns:cc="http://creativecommons.org/ns#" xmlns:rdf="http://www.w3.org/1999/02/22-rdf-syntax-ns#">
   <cc:Work>
    <dc:type rdf:resource="http://purl.org/dc/dcmitype/StillImage"/>
    <dc:date>2025-01-07T19:30:10.824070</dc:date>
    <dc:format>image/svg+xml</dc:format>
    <dc:creator>
     <cc:Agent>
      <dc:title>Matplotlib v3.9.3, https://matplotlib.org/</dc:title>
     </cc:Agent>
    </dc:creator>
   </cc:Work>
  </rdf:RDF>
 </metadata>
 <defs>
  <style type="text/css">*{stroke-linejoin: round; stroke-linecap: butt}</style>
 </defs>
 <g id="figure_1">
  <g id="patch_1">
   <path d="M 0 420.48 
L 708.48 420.48 
L 708.48 -0 
L 0 -0 
z
" style="fill: #ffffff"/>
  </g>
  <g id="axes_1">
   <g id="patch_2">
    <path d="M 53.8475 372.1675 
L 701.28 372.1675 
L 701.28 24.6525 
L 53.8475 24.6525 
z
" style="fill: #ffffff"/>
   </g>
   <g id="matplotlib.axis_1">
    <g id="xtick_1">
     <g id="line2d_1">
      <path d="M 69.850701 372.1675 
L 69.850701 24.6525 
" clip-path="url(#p0c4869c1dd)" style="fill: none; stroke: #cccccc; stroke-opacity: 0.3; stroke-width: 0.5; stroke-linecap: round"/>
     </g>
     <g id="text_1">
      <!-- −2 -->
      <g style="fill: #262626" transform="translate(63.009764 387.756875) scale(0.12 -0.12)">
       <defs>
        <path id="ArialMT-2212" d="M 3381 1997 
L 356 1997 
L 356 2522 
L 3381 2522 
L 3381 1997 
z
" transform="scale(0.015625)"/>
        <path id="ArialMT-32" d="M 3222 541 
L 3222 0 
L 194 0 
Q 188 203 259 391 
Q 375 700 629 1000 
Q 884 1300 1366 1694 
Q 2113 2306 2375 2664 
Q 2638 3022 2638 3341 
Q 2638 3675 2398 3904 
Q 2159 4134 1775 4134 
Q 1369 4134 1125 3890 
Q 881 3647 878 3216 
L 300 3275 
Q 359 3922 746 4261 
Q 1134 4600 1788 4600 
Q 2447 4600 2831 4234 
Q 3216 3869 3216 3328 
Q 3216 3053 3103 2787 
Q 2991 2522 2730 2228 
Q 2469 1934 1863 1422 
Q 1356 997 1212 845 
Q 1069 694 975 541 
L 3222 541 
z
" transform="scale(0.015625)"/>
       </defs>
       <use xlink:href="#ArialMT-2212"/>
       <use xlink:href="#ArialMT-32" x="58.398438"/>
      </g>
     </g>
    </g>
    <g id="xtick_2">
     <g id="line2d_2">
      <path d="M 144.372516 372.1675 
L 144.372516 24.6525 
" clip-path="url(#p0c4869c1dd)" style="fill: none; stroke: #cccccc; stroke-opacity: 0.3; stroke-width: 0.5; stroke-linecap: round"/>
     </g>
     <g id="text_2">
      <!-- −1 -->
      <g style="fill: #262626" transform="translate(137.531578 387.756875) scale(0.12 -0.12)">
       <defs>
        <path id="ArialMT-31" d="M 2384 0 
L 1822 0 
L 1822 3584 
Q 1619 3391 1289 3197 
Q 959 3003 697 2906 
L 697 3450 
Q 1169 3672 1522 3987 
Q 1875 4303 2022 4600 
L 2384 4600 
L 2384 0 
z
" transform="scale(0.015625)"/>
       </defs>
       <use xlink:href="#ArialMT-2212"/>
       <use xlink:href="#ArialMT-31" x="58.398438"/>
      </g>
     </g>
    </g>
    <g id="xtick_3">
     <g id="line2d_3">
      <path d="M 218.89433 372.1675 
L 218.89433 24.6525 
" clip-path="url(#p0c4869c1dd)" style="fill: none; stroke: #cccccc; stroke-opacity: 0.3; stroke-width: 0.5; stroke-linecap: round"/>
     </g>
     <g id="text_3">
      <!-- 0 -->
      <g style="fill: #262626" transform="translate(215.557767 387.756875) scale(0.12 -0.12)">
       <defs>
        <path id="ArialMT-30" d="M 266 2259 
Q 266 3072 433 3567 
Q 600 4063 929 4331 
Q 1259 4600 1759 4600 
Q 2128 4600 2406 4451 
Q 2684 4303 2865 4023 
Q 3047 3744 3150 3342 
Q 3253 2941 3253 2259 
Q 3253 1453 3087 958 
Q 2922 463 2592 192 
Q 2263 -78 1759 -78 
Q 1097 -78 719 397 
Q 266 969 266 2259 
z
M 844 2259 
Q 844 1131 1108 757 
Q 1372 384 1759 384 
Q 2147 384 2411 759 
Q 2675 1134 2675 2259 
Q 2675 3391 2411 3762 
Q 2147 4134 1753 4134 
Q 1366 4134 1134 3806 
Q 844 3388 844 2259 
z
" transform="scale(0.015625)"/>
       </defs>
       <use xlink:href="#ArialMT-30"/>
      </g>
     </g>
    </g>
    <g id="xtick_4">
     <g id="line2d_4">
      <path d="M 293.416144 372.1675 
L 293.416144 24.6525 
" clip-path="url(#p0c4869c1dd)" style="fill: none; stroke: #cccccc; stroke-opacity: 0.3; stroke-width: 0.5; stroke-linecap: round"/>
     </g>
     <g id="text_4">
      <!-- 1 -->
      <g style="fill: #262626" transform="translate(290.079581 387.756875) scale(0.12 -0.12)">
       <use xlink:href="#ArialMT-31"/>
      </g>
     </g>
    </g>
    <g id="xtick_5">
     <g id="line2d_5">
      <path d="M 367.937958 372.1675 
L 367.937958 24.6525 
" clip-path="url(#p0c4869c1dd)" style="fill: none; stroke: #cccccc; stroke-opacity: 0.3; stroke-width: 0.5; stroke-linecap: round"/>
     </g>
     <g id="text_5">
      <!-- 2 -->
      <g style="fill: #262626" transform="translate(364.601395 387.756875) scale(0.12 -0.12)">
       <use xlink:href="#ArialMT-32"/>
      </g>
     </g>
    </g>
    <g id="xtick_6">
     <g id="line2d_6">
      <path d="M 442.459772 372.1675 
L 442.459772 24.6525 
" clip-path="url(#p0c4869c1dd)" style="fill: none; stroke: #cccccc; stroke-opacity: 0.3; stroke-width: 0.5; stroke-linecap: round"/>
     </g>
     <g id="text_6">
      <!-- 3 -->
      <g style="fill: #262626" transform="translate(439.123209 387.756875) scale(0.12 -0.12)">
       <defs>
        <path id="ArialMT-33" d="M 269 1209 
L 831 1284 
Q 928 806 1161 595 
Q 1394 384 1728 384 
Q 2125 384 2398 659 
Q 2672 934 2672 1341 
Q 2672 1728 2419 1979 
Q 2166 2231 1775 2231 
Q 1616 2231 1378 2169 
L 1441 2663 
Q 1497 2656 1531 2656 
Q 1891 2656 2178 2843 
Q 2466 3031 2466 3422 
Q 2466 3731 2256 3934 
Q 2047 4138 1716 4138 
Q 1388 4138 1169 3931 
Q 950 3725 888 3313 
L 325 3413 
Q 428 3978 793 4289 
Q 1159 4600 1703 4600 
Q 2078 4600 2393 4439 
Q 2709 4278 2876 4000 
Q 3044 3722 3044 3409 
Q 3044 3113 2884 2869 
Q 2725 2625 2413 2481 
Q 2819 2388 3044 2092 
Q 3269 1797 3269 1353 
Q 3269 753 2831 336 
Q 2394 -81 1725 -81 
Q 1122 -81 723 278 
Q 325 638 269 1209 
z
" transform="scale(0.015625)"/>
       </defs>
       <use xlink:href="#ArialMT-33"/>
      </g>
     </g>
    </g>
    <g id="xtick_7">
     <g id="line2d_7">
      <path d="M 516.981586 372.1675 
L 516.981586 24.6525 
" clip-path="url(#p0c4869c1dd)" style="fill: none; stroke: #cccccc; stroke-opacity: 0.3; stroke-width: 0.5; stroke-linecap: round"/>
     </g>
     <g id="text_7">
      <!-- 4 -->
      <g style="fill: #262626" transform="translate(513.645024 387.756875) scale(0.12 -0.12)">
       <defs>
        <path id="ArialMT-34" d="M 2069 0 
L 2069 1097 
L 81 1097 
L 81 1613 
L 2172 4581 
L 2631 4581 
L 2631 1613 
L 3250 1613 
L 3250 1097 
L 2631 1097 
L 2631 0 
L 2069 0 
z
M 2069 1613 
L 2069 3678 
L 634 1613 
L 2069 1613 
z
" transform="scale(0.015625)"/>
       </defs>
       <use xlink:href="#ArialMT-34"/>
      </g>
     </g>
    </g>
    <g id="xtick_8">
     <g id="line2d_8">
      <path d="M 591.5034 372.1675 
L 591.5034 24.6525 
" clip-path="url(#p0c4869c1dd)" style="fill: none; stroke: #cccccc; stroke-opacity: 0.3; stroke-width: 0.5; stroke-linecap: round"/>
     </g>
     <g id="text_8">
      <!-- 5 -->
      <g style="fill: #262626" transform="translate(588.166838 387.756875) scale(0.12 -0.12)">
       <defs>
        <path id="ArialMT-35" d="M 266 1200 
L 856 1250 
Q 922 819 1161 601 
Q 1400 384 1738 384 
Q 2144 384 2425 690 
Q 2706 997 2706 1503 
Q 2706 1984 2436 2262 
Q 2166 2541 1728 2541 
Q 1456 2541 1237 2417 
Q 1019 2294 894 2097 
L 366 2166 
L 809 4519 
L 3088 4519 
L 3088 3981 
L 1259 3981 
L 1013 2750 
Q 1425 3038 1878 3038 
Q 2478 3038 2890 2622 
Q 3303 2206 3303 1553 
Q 3303 931 2941 478 
Q 2500 -78 1738 -78 
Q 1113 -78 717 272 
Q 322 622 266 1200 
z
" transform="scale(0.015625)"/>
       </defs>
       <use xlink:href="#ArialMT-35"/>
      </g>
     </g>
    </g>
    <g id="xtick_9">
     <g id="line2d_9">
      <path d="M 666.025214 372.1675 
L 666.025214 24.6525 
" clip-path="url(#p0c4869c1dd)" style="fill: none; stroke: #cccccc; stroke-opacity: 0.3; stroke-width: 0.5; stroke-linecap: round"/>
     </g>
     <g id="text_9">
      <!-- 6 -->
      <g style="fill: #262626" transform="translate(662.688652 387.756875) scale(0.12 -0.12)">
       <defs>
        <path id="ArialMT-36" d="M 3184 3459 
L 2625 3416 
Q 2550 3747 2413 3897 
Q 2184 4138 1850 4138 
Q 1581 4138 1378 3988 
Q 1113 3794 959 3422 
Q 806 3050 800 2363 
Q 1003 2672 1297 2822 
Q 1591 2972 1913 2972 
Q 2475 2972 2870 2558 
Q 3266 2144 3266 1488 
Q 3266 1056 3080 686 
Q 2894 316 2569 119 
Q 2244 -78 1831 -78 
Q 1128 -78 684 439 
Q 241 956 241 2144 
Q 241 3472 731 4075 
Q 1159 4600 1884 4600 
Q 2425 4600 2770 4297 
Q 3116 3994 3184 3459 
z
M 888 1484 
Q 888 1194 1011 928 
Q 1134 663 1356 523 
Q 1578 384 1822 384 
Q 2178 384 2434 671 
Q 2691 959 2691 1453 
Q 2691 1928 2437 2201 
Q 2184 2475 1800 2475 
Q 1419 2475 1153 2201 
Q 888 1928 888 1484 
z
" transform="scale(0.015625)"/>
       </defs>
       <use xlink:href="#ArialMT-36"/>
      </g>
     </g>
    </g>
    <g id="text_10">
     <!-- Error (%) -->
     <g style="fill: #262626" transform="translate(349.17875 410.333438) scale(0.14 -0.14)">
      <defs>
       <path id="ArialMT-45" d="M 506 0 
L 506 4581 
L 3819 4581 
L 3819 4041 
L 1113 4041 
L 1113 2638 
L 3647 2638 
L 3647 2100 
L 1113 2100 
L 1113 541 
L 3925 541 
L 3925 0 
L 506 0 
z
" transform="scale(0.015625)"/>
       <path id="ArialMT-72" d="M 416 0 
L 416 3319 
L 922 3319 
L 922 2816 
Q 1116 3169 1280 3281 
Q 1444 3394 1641 3394 
Q 1925 3394 2219 3213 
L 2025 2691 
Q 1819 2813 1613 2813 
Q 1428 2813 1281 2702 
Q 1134 2591 1072 2394 
Q 978 2094 978 1738 
L 978 0 
L 416 0 
z
" transform="scale(0.015625)"/>
       <path id="ArialMT-6f" d="M 213 1659 
Q 213 2581 725 3025 
Q 1153 3394 1769 3394 
Q 2453 3394 2887 2945 
Q 3322 2497 3322 1706 
Q 3322 1066 3130 698 
Q 2938 331 2570 128 
Q 2203 -75 1769 -75 
Q 1072 -75 642 372 
Q 213 819 213 1659 
z
M 791 1659 
Q 791 1022 1069 705 
Q 1347 388 1769 388 
Q 2188 388 2466 706 
Q 2744 1025 2744 1678 
Q 2744 2294 2464 2611 
Q 2184 2928 1769 2928 
Q 1347 2928 1069 2612 
Q 791 2297 791 1659 
z
" transform="scale(0.015625)"/>
       <path id="ArialMT-20" transform="scale(0.015625)"/>
       <path id="ArialMT-28" d="M 1497 -1347 
Q 1031 -759 709 28 
Q 388 816 388 1659 
Q 388 2403 628 3084 
Q 909 3875 1497 4659 
L 1900 4659 
Q 1522 4009 1400 3731 
Q 1209 3300 1100 2831 
Q 966 2247 966 1656 
Q 966 153 1900 -1347 
L 1497 -1347 
z
" transform="scale(0.015625)"/>
       <path id="ArialMT-25" d="M 372 3481 
Q 372 3972 619 4315 
Q 866 4659 1334 4659 
Q 1766 4659 2048 4351 
Q 2331 4044 2331 3447 
Q 2331 2866 2045 2552 
Q 1759 2238 1341 2238 
Q 925 2238 648 2547 
Q 372 2856 372 3481 
z
M 1350 4272 
Q 1141 4272 1002 4090 
Q 863 3909 863 3425 
Q 863 2984 1003 2804 
Q 1144 2625 1350 2625 
Q 1563 2625 1702 2806 
Q 1841 2988 1841 3469 
Q 1841 3913 1700 4092 
Q 1559 4272 1350 4272 
z
M 1353 -169 
L 3859 4659 
L 4316 4659 
L 1819 -169 
L 1353 -169 
z
M 3334 1075 
Q 3334 1569 3581 1911 
Q 3828 2253 4300 2253 
Q 4731 2253 5014 1945 
Q 5297 1638 5297 1041 
Q 5297 459 5011 145 
Q 4725 -169 4303 -169 
Q 3888 -169 3611 142 
Q 3334 453 3334 1075 
z
M 4316 1866 
Q 4103 1866 3964 1684 
Q 3825 1503 3825 1019 
Q 3825 581 3965 400 
Q 4106 219 4313 219 
Q 4528 219 4667 400 
Q 4806 581 4806 1063 
Q 4806 1506 4665 1686 
Q 4525 1866 4316 1866 
z
" transform="scale(0.015625)"/>
       <path id="ArialMT-29" d="M 791 -1347 
L 388 -1347 
Q 1322 153 1322 1656 
Q 1322 2244 1188 2822 
Q 1081 3291 891 3722 
Q 769 4003 388 4659 
L 791 4659 
Q 1378 3875 1659 3084 
Q 1900 2403 1900 1659 
Q 1900 816 1576 28 
Q 1253 -759 791 -1347 
z
" transform="scale(0.015625)"/>
      </defs>
      <use xlink:href="#ArialMT-45"/>
      <use xlink:href="#ArialMT-72" x="66.699219"/>
      <use xlink:href="#ArialMT-72" x="100"/>
      <use xlink:href="#ArialMT-6f" x="133.300781"/>
      <use xlink:href="#ArialMT-72" x="188.916016"/>
      <use xlink:href="#ArialMT-20" x="222.216797"/>
      <use xlink:href="#ArialMT-28" x="250"/>
      <use xlink:href="#ArialMT-25" x="283.300781"/>
      <use xlink:href="#ArialMT-29" x="372.216797"/>
     </g>
    </g>
   </g>
   <g id="matplotlib.axis_2">
    <g id="ytick_1">
     <g id="line2d_10">
      <path d="M 53.8475 372.1675 
L 701.28 372.1675 
" clip-path="url(#p0c4869c1dd)" style="fill: none; stroke: #cccccc; stroke-opacity: 0.3; stroke-width: 0.5; stroke-linecap: round"/>
     </g>
     <g id="text_11">
      <!-- 0.0 -->
      <g style="fill: #262626" transform="translate(30.1675 376.462188) scale(0.12 -0.12)">
       <defs>
        <path id="ArialMT-2e" d="M 581 0 
L 581 641 
L 1222 641 
L 1222 0 
L 581 0 
z
" transform="scale(0.015625)"/>
       </defs>
       <use xlink:href="#ArialMT-30"/>
       <use xlink:href="#ArialMT-2e" x="55.615234"/>
       <use xlink:href="#ArialMT-30" x="83.398438"/>
      </g>
     </g>
    </g>
    <g id="ytick_2">
     <g id="line2d_11">
      <path d="M 53.8475 301.075501 
L 701.28 301.075501 
" clip-path="url(#p0c4869c1dd)" style="fill: none; stroke: #cccccc; stroke-opacity: 0.3; stroke-width: 0.5; stroke-linecap: round"/>
     </g>
     <g id="text_12">
      <!-- 0.1 -->
      <g style="fill: #262626" transform="translate(30.1675 305.370189) scale(0.12 -0.12)">
       <use xlink:href="#ArialMT-30"/>
       <use xlink:href="#ArialMT-2e" x="55.615234"/>
       <use xlink:href="#ArialMT-31" x="83.398438"/>
      </g>
     </g>
    </g>
    <g id="ytick_3">
     <g id="line2d_12">
      <path d="M 53.8475 229.983502 
L 701.28 229.983502 
" clip-path="url(#p0c4869c1dd)" style="fill: none; stroke: #cccccc; stroke-opacity: 0.3; stroke-width: 0.5; stroke-linecap: round"/>
     </g>
     <g id="text_13">
      <!-- 0.2 -->
      <g style="fill: #262626" transform="translate(30.1675 234.27819) scale(0.12 -0.12)">
       <use xlink:href="#ArialMT-30"/>
       <use xlink:href="#ArialMT-2e" x="55.615234"/>
       <use xlink:href="#ArialMT-32" x="83.398438"/>
      </g>
     </g>
    </g>
    <g id="ytick_4">
     <g id="line2d_13">
      <path d="M 53.8475 158.891504 
L 701.28 158.891504 
" clip-path="url(#p0c4869c1dd)" style="fill: none; stroke: #cccccc; stroke-opacity: 0.3; stroke-width: 0.5; stroke-linecap: round"/>
     </g>
     <g id="text_14">
      <!-- 0.3 -->
      <g style="fill: #262626" transform="translate(30.1675 163.186191) scale(0.12 -0.12)">
       <use xlink:href="#ArialMT-30"/>
       <use xlink:href="#ArialMT-2e" x="55.615234"/>
       <use xlink:href="#ArialMT-33" x="83.398438"/>
      </g>
     </g>
    </g>
    <g id="ytick_5">
     <g id="line2d_14">
      <path d="M 53.8475 87.799505 
L 701.28 87.799505 
" clip-path="url(#p0c4869c1dd)" style="fill: none; stroke: #cccccc; stroke-opacity: 0.3; stroke-width: 0.5; stroke-linecap: round"/>
     </g>
     <g id="text_15">
      <!-- 0.4 -->
      <g style="fill: #262626" transform="translate(30.1675 92.094192) scale(0.12 -0.12)">
       <use xlink:href="#ArialMT-30"/>
       <use xlink:href="#ArialMT-2e" x="55.615234"/>
       <use xlink:href="#ArialMT-34" x="83.398438"/>
      </g>
     </g>
    </g>
    <g id="text_16">
     <!-- Density -->
     <g style="fill: #262626" transform="translate(17.220938 221.750625) rotate(-90) scale(0.14 -0.14)">
      <defs>
       <path id="ArialMT-44" d="M 494 0 
L 494 4581 
L 2072 4581 
Q 2606 4581 2888 4516 
Q 3281 4425 3559 4188 
Q 3922 3881 4101 3404 
Q 4281 2928 4281 2316 
Q 4281 1794 4159 1391 
Q 4038 988 3847 723 
Q 3656 459 3429 307 
Q 3203 156 2883 78 
Q 2563 0 2147 0 
L 494 0 
z
M 1100 541 
L 2078 541 
Q 2531 541 2789 625 
Q 3047 709 3200 863 
Q 3416 1078 3536 1442 
Q 3656 1806 3656 2325 
Q 3656 3044 3420 3430 
Q 3184 3816 2847 3947 
Q 2603 4041 2063 4041 
L 1100 4041 
L 1100 541 
z
" transform="scale(0.015625)"/>
       <path id="ArialMT-65" d="M 2694 1069 
L 3275 997 
Q 3138 488 2766 206 
Q 2394 -75 1816 -75 
Q 1088 -75 661 373 
Q 234 822 234 1631 
Q 234 2469 665 2931 
Q 1097 3394 1784 3394 
Q 2450 3394 2872 2941 
Q 3294 2488 3294 1666 
Q 3294 1616 3291 1516 
L 816 1516 
Q 847 969 1125 678 
Q 1403 388 1819 388 
Q 2128 388 2347 550 
Q 2566 713 2694 1069 
z
M 847 1978 
L 2700 1978 
Q 2663 2397 2488 2606 
Q 2219 2931 1791 2931 
Q 1403 2931 1139 2672 
Q 875 2413 847 1978 
z
" transform="scale(0.015625)"/>
       <path id="ArialMT-6e" d="M 422 0 
L 422 3319 
L 928 3319 
L 928 2847 
Q 1294 3394 1984 3394 
Q 2284 3394 2536 3286 
Q 2788 3178 2913 3003 
Q 3038 2828 3088 2588 
Q 3119 2431 3119 2041 
L 3119 0 
L 2556 0 
L 2556 2019 
Q 2556 2363 2490 2533 
Q 2425 2703 2258 2804 
Q 2091 2906 1866 2906 
Q 1506 2906 1245 2678 
Q 984 2450 984 1813 
L 984 0 
L 422 0 
z
" transform="scale(0.015625)"/>
       <path id="ArialMT-73" d="M 197 991 
L 753 1078 
Q 800 744 1014 566 
Q 1228 388 1613 388 
Q 2000 388 2187 545 
Q 2375 703 2375 916 
Q 2375 1106 2209 1216 
Q 2094 1291 1634 1406 
Q 1016 1563 777 1677 
Q 538 1791 414 1992 
Q 291 2194 291 2438 
Q 291 2659 392 2848 
Q 494 3038 669 3163 
Q 800 3259 1026 3326 
Q 1253 3394 1513 3394 
Q 1903 3394 2198 3281 
Q 2494 3169 2634 2976 
Q 2775 2784 2828 2463 
L 2278 2388 
Q 2241 2644 2061 2787 
Q 1881 2931 1553 2931 
Q 1166 2931 1000 2803 
Q 834 2675 834 2503 
Q 834 2394 903 2306 
Q 972 2216 1119 2156 
Q 1203 2125 1616 2013 
Q 2213 1853 2448 1751 
Q 2684 1650 2818 1456 
Q 2953 1263 2953 975 
Q 2953 694 2789 445 
Q 2625 197 2315 61 
Q 2006 -75 1616 -75 
Q 969 -75 630 194 
Q 291 463 197 991 
z
" transform="scale(0.015625)"/>
       <path id="ArialMT-69" d="M 425 3934 
L 425 4581 
L 988 4581 
L 988 3934 
L 425 3934 
z
M 425 0 
L 425 3319 
L 988 3319 
L 988 0 
L 425 0 
z
" transform="scale(0.015625)"/>
       <path id="ArialMT-74" d="M 1650 503 
L 1731 6 
Q 1494 -44 1306 -44 
Q 1000 -44 831 53 
Q 663 150 594 308 
Q 525 466 525 972 
L 525 2881 
L 113 2881 
L 113 3319 
L 525 3319 
L 525 4141 
L 1084 4478 
L 1084 3319 
L 1650 3319 
L 1650 2881 
L 1084 2881 
L 1084 941 
Q 1084 700 1114 631 
Q 1144 563 1211 522 
Q 1278 481 1403 481 
Q 1497 481 1650 503 
z
" transform="scale(0.015625)"/>
       <path id="ArialMT-79" d="M 397 -1278 
L 334 -750 
Q 519 -800 656 -800 
Q 844 -800 956 -737 
Q 1069 -675 1141 -563 
Q 1194 -478 1313 -144 
Q 1328 -97 1363 -6 
L 103 3319 
L 709 3319 
L 1400 1397 
Q 1534 1031 1641 628 
Q 1738 1016 1872 1384 
L 2581 3319 
L 3144 3319 
L 1881 -56 
Q 1678 -603 1566 -809 
Q 1416 -1088 1222 -1217 
Q 1028 -1347 759 -1347 
Q 597 -1347 397 -1278 
z
" transform="scale(0.015625)"/>
      </defs>
      <use xlink:href="#ArialMT-44"/>
      <use xlink:href="#ArialMT-65" x="72.216797"/>
      <use xlink:href="#ArialMT-6e" x="127.832031"/>
      <use xlink:href="#ArialMT-73" x="183.447266"/>
      <use xlink:href="#ArialMT-69" x="233.447266"/>
      <use xlink:href="#ArialMT-74" x="255.664062"/>
      <use xlink:href="#ArialMT-79" x="283.447266"/>
     </g>
    </g>
   </g>
   <g id="PolyCollection_1">
    <defs>
     <path id="ma50fc37755" d="M 83.27625 -48.653077 
L 83.27625 -48.3125 
L 86.233913 -48.3125 
L 89.191577 -48.3125 
L 92.14924 -48.3125 
L 95.106903 -48.3125 
L 98.064567 -48.3125 
L 101.02223 -48.3125 
L 103.979893 -48.3125 
L 106.937557 -48.3125 
L 109.89522 -48.3125 
L 112.852883 -48.3125 
L 115.810546 -48.3125 
L 118.76821 -48.3125 
L 121.725873 -48.3125 
L 124.683536 -48.3125 
L 127.6412 -48.3125 
L 130.598863 -48.3125 
L 133.556526 -48.3125 
L 136.51419 -48.3125 
L 139.471853 -48.3125 
L 142.429516 -48.3125 
L 145.38718 -48.3125 
L 148.344843 -48.3125 
L 151.302506 -48.3125 
L 154.26017 -48.3125 
L 157.217833 -48.3125 
L 160.175496 -48.3125 
L 163.13316 -48.3125 
L 166.090823 -48.3125 
L 169.048486 -48.3125 
L 172.006149 -48.3125 
L 174.963813 -48.3125 
L 177.921476 -48.3125 
L 180.879139 -48.3125 
L 183.836803 -48.3125 
L 186.794466 -48.3125 
L 189.752129 -48.3125 
L 192.709793 -48.3125 
L 195.667456 -48.3125 
L 198.625119 -48.3125 
L 201.582783 -48.3125 
L 204.540446 -48.3125 
L 207.498109 -48.3125 
L 210.455773 -48.3125 
L 213.413436 -48.3125 
L 216.371099 -48.3125 
L 219.328763 -48.3125 
L 222.286426 -48.3125 
L 225.244089 -48.3125 
L 228.201753 -48.3125 
L 231.159416 -48.3125 
L 234.117079 -48.3125 
L 237.074742 -48.3125 
L 240.032406 -48.3125 
L 242.990069 -48.3125 
L 245.947732 -48.3125 
L 248.905396 -48.3125 
L 251.863059 -48.3125 
L 254.820722 -48.3125 
L 257.778386 -48.3125 
L 260.736049 -48.3125 
L 263.693712 -48.3125 
L 266.651376 -48.3125 
L 269.609039 -48.3125 
L 272.566702 -48.3125 
L 275.524366 -48.3125 
L 278.482029 -48.3125 
L 281.439692 -48.3125 
L 284.397356 -48.3125 
L 287.355019 -48.3125 
L 290.312682 -48.3125 
L 293.270345 -48.3125 
L 296.228009 -48.3125 
L 299.185672 -48.3125 
L 302.143335 -48.3125 
L 305.100999 -48.3125 
L 308.058662 -48.3125 
L 311.016325 -48.3125 
L 313.973989 -48.3125 
L 316.931652 -48.3125 
L 319.889315 -48.3125 
L 322.846979 -48.3125 
L 325.804642 -48.3125 
L 328.762305 -48.3125 
L 331.719969 -48.3125 
L 334.677632 -48.3125 
L 337.635295 -48.3125 
L 340.592959 -48.3125 
L 343.550622 -48.3125 
L 346.508285 -48.3125 
L 349.465948 -48.3125 
L 352.423612 -48.3125 
L 355.381275 -48.3125 
L 358.338938 -48.3125 
L 361.296602 -48.3125 
L 364.254265 -48.3125 
L 367.211928 -48.3125 
L 370.169592 -48.3125 
L 373.127255 -48.3125 
L 376.084918 -48.3125 
L 379.042582 -48.3125 
L 382.000245 -48.3125 
L 384.957908 -48.3125 
L 387.915572 -48.3125 
L 390.873235 -48.3125 
L 393.830898 -48.3125 
L 396.788562 -48.3125 
L 399.746225 -48.3125 
L 402.703888 -48.3125 
L 405.661552 -48.3125 
L 408.619215 -48.3125 
L 411.576878 -48.3125 
L 414.534541 -48.3125 
L 417.492205 -48.3125 
L 420.449868 -48.3125 
L 423.407531 -48.3125 
L 426.365195 -48.3125 
L 429.322858 -48.3125 
L 432.280521 -48.3125 
L 435.238185 -48.3125 
L 438.195848 -48.3125 
L 441.153511 -48.3125 
L 444.111175 -48.3125 
L 447.068838 -48.3125 
L 450.026501 -48.3125 
L 452.984165 -48.3125 
L 455.941828 -48.3125 
L 458.899491 -48.3125 
L 461.857155 -48.3125 
L 464.814818 -48.3125 
L 467.772481 -48.3125 
L 470.730144 -48.3125 
L 473.687808 -48.3125 
L 476.645471 -48.3125 
L 479.603134 -48.3125 
L 482.560798 -48.3125 
L 485.518461 -48.3125 
L 488.476124 -48.3125 
L 491.433788 -48.3125 
L 494.391451 -48.3125 
L 497.349114 -48.3125 
L 500.306778 -48.3125 
L 503.264441 -48.3125 
L 506.222104 -48.3125 
L 509.179768 -48.3125 
L 512.137431 -48.3125 
L 515.095094 -48.3125 
L 518.052758 -48.3125 
L 521.010421 -48.3125 
L 523.968084 -48.3125 
L 526.925747 -48.3125 
L 529.883411 -48.3125 
L 532.841074 -48.3125 
L 535.798737 -48.3125 
L 538.756401 -48.3125 
L 541.714064 -48.3125 
L 544.671727 -48.3125 
L 547.629391 -48.3125 
L 550.587054 -48.3125 
L 553.544717 -48.3125 
L 556.502381 -48.3125 
L 559.460044 -48.3125 
L 562.417707 -48.3125 
L 565.375371 -48.3125 
L 568.333034 -48.3125 
L 571.290697 -48.3125 
L 574.248361 -48.3125 
L 577.206024 -48.3125 
L 580.163687 -48.3125 
L 583.121351 -48.3125 
L 586.079014 -48.3125 
L 589.036677 -48.3125 
L 591.99434 -48.3125 
L 594.952004 -48.3125 
L 597.909667 -48.3125 
L 600.86733 -48.3125 
L 603.824994 -48.3125 
L 606.782657 -48.3125 
L 609.74032 -48.3125 
L 612.697984 -48.3125 
L 615.655647 -48.3125 
L 618.61331 -48.3125 
L 621.570974 -48.3125 
L 624.528637 -48.3125 
L 627.4863 -48.3125 
L 630.443964 -48.3125 
L 633.401627 -48.3125 
L 636.35929 -48.3125 
L 639.316954 -48.3125 
L 642.274617 -48.3125 
L 645.23228 -48.3125 
L 648.189943 -48.3125 
L 651.147607 -48.3125 
L 654.10527 -48.3125 
L 657.062933 -48.3125 
L 660.020597 -48.3125 
L 662.97826 -48.3125 
L 665.935923 -48.3125 
L 668.893587 -48.3125 
L 671.85125 -48.3125 
L 671.85125 -48.533892 
L 671.85125 -48.533892 
L 668.893587 -48.584348 
L 665.935923 -48.645016 
L 662.97826 -48.717658 
L 660.020597 -48.804275 
L 657.062933 -48.907123 
L 654.10527 -49.028734 
L 651.147607 -49.17193 
L 648.189943 -49.339836 
L 645.23228 -49.535894 
L 642.274617 -49.763863 
L 639.316954 -50.027827 
L 636.35929 -50.332185 
L 633.401627 -50.681644 
L 630.443964 -51.081201 
L 627.4863 -51.536113 
L 624.528637 -52.051865 
L 621.570974 -52.634126 
L 618.61331 -53.288694 
L 615.655647 -54.021432 
L 612.697984 -54.838199 
L 609.74032 -55.744766 
L 606.782657 -56.74673 
L 603.824994 -57.849416 
L 600.86733 -59.057779 
L 597.909667 -60.376296 
L 594.952004 -61.808869 
L 591.99434 -63.358712 
L 589.036677 -65.028259 
L 586.079014 -66.819069 
L 583.121351 -68.731744 
L 580.163687 -70.76586 
L 577.206024 -72.91991 
L 574.248361 -75.191274 
L 571.290697 -77.576201 
L 568.333034 -80.06982 
L 565.375371 -82.666167 
L 562.417707 -85.35825 
L 559.460044 -88.138127 
L 556.502381 -90.997013 
L 553.544717 -93.925416 
L 550.587054 -96.913282 
L 547.629391 -99.950169 
L 544.671727 -103.025429 
L 541.714064 -106.128406 
L 538.756401 -109.248631 
L 535.798737 -112.376028 
L 532.841074 -115.501103 
L 529.883411 -118.615132 
L 526.925747 -121.710325 
L 523.968084 -124.779973 
L 521.010421 -127.818569 
L 518.052758 -130.821893 
L 515.095094 -133.787069 
L 512.137431 -136.712582 
L 509.179768 -139.598259 
L 506.222104 -142.445208 
L 503.264441 -145.255725 
L 500.306778 -148.03316 
L 497.349114 -150.781754 
L 494.391451 -153.506439 
L 491.433788 -156.212623 
L 488.476124 -158.90595 
L 485.518461 -161.592048 
L 482.560798 -164.276267 
L 479.603134 -166.963424 
L 476.645471 -169.657546 
L 473.687808 -172.361634 
L 470.730144 -175.077445 
L 467.772481 -177.805294 
L 464.814818 -180.543898 
L 461.857155 -183.290251 
L 458.899491 -186.039542 
L 455.941828 -188.785113 
L 452.984165 -191.518474 
L 450.026501 -194.229357 
L 447.068838 -196.905825 
L 444.111175 -199.534425 
L 441.153511 -202.100393 
L 438.195848 -204.587897 
L 435.238185 -206.980325 
L 432.280521 -209.260606 
L 429.322858 -211.411557 
L 426.365195 -213.416259 
L 423.407531 -215.258437 
L 420.449868 -216.92286 
L 417.492205 -218.395721 
L 414.534541 -219.665019 
L 411.576878 -220.720909 
L 408.619215 -221.556027 
L 405.661552 -222.165773 
L 402.703888 -222.54854 
L 399.746225 -222.705895 
L 396.788562 -222.642693 
L 393.830898 -222.367119 
L 390.873235 -221.890669 
L 387.915572 -221.228045 
L 384.957908 -220.396989 
L 382.000245 -219.418034 
L 379.042582 -218.314196 
L 376.084918 -217.1106 
L 373.127255 -215.83405 
L 370.169592 -214.512554 
L 367.211928 -213.174815 
L 364.254265 -211.849692 
L 361.296602 -210.565654 
L 358.338938 -209.350226 
L 355.381275 -208.229454 
L 352.423612 -207.227389 
L 349.465948 -206.365602 
L 346.508285 -205.662755 
L 343.550622 -205.134215 
L 340.592959 -204.791738 
L 337.635295 -204.643216 
L 334.677632 -204.692502 
L 331.719969 -204.939305 
L 328.762305 -205.379169 
L 325.804642 -206.00352 
L 322.846979 -206.799792 
L 319.889315 -207.751622 
L 316.931652 -208.839107 
L 313.973989 -210.039124 
L 311.016325 -211.325696 
L 308.058662 -212.670407 
L 305.100999 -214.042847 
L 302.143335 -215.41109 
L 299.185672 -216.742182 
L 296.228009 -218.00265 
L 293.270345 -219.159001 
L 290.312682 -220.178221 
L 287.355019 -221.028258 
L 284.397356 -221.678491 
L 281.439692 -222.100158 
L 278.482029 -222.266767 
L 275.524366 -222.154455 
L 272.566702 -221.742321 
L 269.609039 -221.012696 
L 266.651376 -219.951375 
L 263.693712 -218.547797 
L 260.736049 -216.795169 
L 257.778386 -214.690532 
L 254.820722 -212.234786 
L 251.863059 -209.432643 
L 248.905396 -206.292545 
L 245.947732 -202.826514 
L 242.990069 -199.049968 
L 240.032406 -194.98148 
L 237.074742 -190.642503 
L 234.117079 -186.057058 
L 231.159416 -181.251385 
L 228.201753 -176.253573 
L 225.244089 -171.093171 
L 222.286426 -165.800785 
L 219.328763 -160.407667 
L 216.371099 -154.94531 
L 213.413436 -149.445044 
L 210.455773 -143.937657 
L 207.498109 -138.453023 
L 204.540446 -133.019769 
L 201.582783 -127.664967 
L 198.625119 -122.413862 
L 195.667456 -117.289645 
L 192.709793 -112.313259 
L 189.752129 -107.503258 
L 186.794466 -102.875703 
L 183.836803 -98.444107 
L 180.879139 -94.219421 
L 177.921476 -90.210061 
L 174.963813 -86.421968 
L 172.006149 -82.858712 
L 169.048486 -79.521619 
L 166.090823 -76.409922 
L 163.13316 -73.52094 
L 160.175496 -70.850268 
L 157.217833 -68.391978 
L 154.26017 -66.138828 
L 151.302506 -64.082474 
L 148.344843 -62.213674 
L 145.38718 -60.522496 
L 142.429516 -58.998505 
L 139.471853 -57.630948 
L 136.51419 -56.408917 
L 133.556526 -55.321502 
L 130.598863 -54.357922 
L 127.6412 -53.507643 
L 124.683536 -52.760475 
L 121.725873 -52.106653 
L 118.76821 -51.5369 
L 115.810546 -51.042474 
L 112.852883 -50.615204 
L 109.89522 -50.247503 
L 106.937557 -49.932385 
L 103.979893 -49.663453 
L 101.02223 -49.434892 
L 98.064567 -49.241449 
L 95.106903 -49.078411 
L 92.14924 -48.941569 
L 89.191577 -48.827192 
L 86.233913 -48.73199 
L 83.27625 -48.653077 
z
" style="stroke: #2ecc71"/>
    </defs>
    <g clip-path="url(#p0c4869c1dd)">
     <use xlink:href="#ma50fc37755" x="0" y="420.48" style="fill: #2ecc71; fill-opacity: 0.3; stroke: #2ecc71"/>
    </g>
   </g>
   <g id="PolyCollection_2">
    <defs>
     <path id="md833385b23" d="M 122.525334 -50.718822 
L 122.525334 -48.3125 
L 124.02548 -48.3125 
L 125.525626 -48.3125 
L 127.025772 -48.3125 
L 128.525918 -48.3125 
L 130.026064 -48.3125 
L 131.52621 -48.3125 
L 133.026356 -48.3125 
L 134.526502 -48.3125 
L 136.026649 -48.3125 
L 137.526795 -48.3125 
L 139.026941 -48.3125 
L 140.527087 -48.3125 
L 142.027233 -48.3125 
L 143.527379 -48.3125 
L 145.027525 -48.3125 
L 146.527671 -48.3125 
L 148.027817 -48.3125 
L 149.527963 -48.3125 
L 151.02811 -48.3125 
L 152.528256 -48.3125 
L 154.028402 -48.3125 
L 155.528548 -48.3125 
L 157.028694 -48.3125 
L 158.52884 -48.3125 
L 160.028986 -48.3125 
L 161.529132 -48.3125 
L 163.029278 -48.3125 
L 164.529424 -48.3125 
L 166.029571 -48.3125 
L 167.529717 -48.3125 
L 169.029863 -48.3125 
L 170.530009 -48.3125 
L 172.030155 -48.3125 
L 173.530301 -48.3125 
L 175.030447 -48.3125 
L 176.530593 -48.3125 
L 178.030739 -48.3125 
L 179.530886 -48.3125 
L 181.031032 -48.3125 
L 182.531178 -48.3125 
L 184.031324 -48.3125 
L 185.53147 -48.3125 
L 187.031616 -48.3125 
L 188.531762 -48.3125 
L 190.031908 -48.3125 
L 191.532054 -48.3125 
L 193.0322 -48.3125 
L 194.532347 -48.3125 
L 196.032493 -48.3125 
L 197.532639 -48.3125 
L 199.032785 -48.3125 
L 200.532931 -48.3125 
L 202.033077 -48.3125 
L 203.533223 -48.3125 
L 205.033369 -48.3125 
L 206.533515 -48.3125 
L 208.033661 -48.3125 
L 209.533808 -48.3125 
L 211.033954 -48.3125 
L 212.5341 -48.3125 
L 214.034246 -48.3125 
L 215.534392 -48.3125 
L 217.034538 -48.3125 
L 218.534684 -48.3125 
L 220.03483 -48.3125 
L 221.534976 -48.3125 
L 223.035123 -48.3125 
L 224.535269 -48.3125 
L 226.035415 -48.3125 
L 227.535561 -48.3125 
L 229.035707 -48.3125 
L 230.535853 -48.3125 
L 232.035999 -48.3125 
L 233.536145 -48.3125 
L 235.036291 -48.3125 
L 236.536437 -48.3125 
L 238.036584 -48.3125 
L 239.53673 -48.3125 
L 241.036876 -48.3125 
L 242.537022 -48.3125 
L 244.037168 -48.3125 
L 245.537314 -48.3125 
L 247.03746 -48.3125 
L 248.537606 -48.3125 
L 250.037752 -48.3125 
L 251.537898 -48.3125 
L 253.038045 -48.3125 
L 254.538191 -48.3125 
L 256.038337 -48.3125 
L 257.538483 -48.3125 
L 259.038629 -48.3125 
L 260.538775 -48.3125 
L 262.038921 -48.3125 
L 263.539067 -48.3125 
L 265.039213 -48.3125 
L 266.539359 -48.3125 
L 268.039506 -48.3125 
L 269.539652 -48.3125 
L 271.039798 -48.3125 
L 272.539944 -48.3125 
L 274.04009 -48.3125 
L 275.540236 -48.3125 
L 277.040382 -48.3125 
L 278.540528 -48.3125 
L 280.040674 -48.3125 
L 281.540821 -48.3125 
L 283.040967 -48.3125 
L 284.541113 -48.3125 
L 286.041259 -48.3125 
L 287.541405 -48.3125 
L 289.041551 -48.3125 
L 290.541697 -48.3125 
L 292.041843 -48.3125 
L 293.541989 -48.3125 
L 295.042135 -48.3125 
L 296.542282 -48.3125 
L 298.042428 -48.3125 
L 299.542574 -48.3125 
L 301.04272 -48.3125 
L 302.542866 -48.3125 
L 304.043012 -48.3125 
L 305.543158 -48.3125 
L 307.043304 -48.3125 
L 308.54345 -48.3125 
L 310.043596 -48.3125 
L 311.543743 -48.3125 
L 313.043889 -48.3125 
L 314.544035 -48.3125 
L 316.044181 -48.3125 
L 317.544327 -48.3125 
L 319.044473 -48.3125 
L 320.544619 -48.3125 
L 322.044765 -48.3125 
L 323.544911 -48.3125 
L 325.045058 -48.3125 
L 326.545204 -48.3125 
L 328.04535 -48.3125 
L 329.545496 -48.3125 
L 331.045642 -48.3125 
L 332.545788 -48.3125 
L 334.045934 -48.3125 
L 335.54608 -48.3125 
L 337.046226 -48.3125 
L 338.546372 -48.3125 
L 340.046519 -48.3125 
L 341.546665 -48.3125 
L 343.046811 -48.3125 
L 344.546957 -48.3125 
L 346.047103 -48.3125 
L 347.547249 -48.3125 
L 349.047395 -48.3125 
L 350.547541 -48.3125 
L 352.047687 -48.3125 
L 353.547833 -48.3125 
L 355.04798 -48.3125 
L 356.548126 -48.3125 
L 358.048272 -48.3125 
L 359.548418 -48.3125 
L 361.048564 -48.3125 
L 362.54871 -48.3125 
L 364.048856 -48.3125 
L 365.549002 -48.3125 
L 367.049148 -48.3125 
L 368.549294 -48.3125 
L 370.049441 -48.3125 
L 371.549587 -48.3125 
L 373.049733 -48.3125 
L 374.549879 -48.3125 
L 376.050025 -48.3125 
L 377.550171 -48.3125 
L 379.050317 -48.3125 
L 380.550463 -48.3125 
L 382.050609 -48.3125 
L 383.550756 -48.3125 
L 385.050902 -48.3125 
L 386.551048 -48.3125 
L 388.051194 -48.3125 
L 389.55134 -48.3125 
L 391.051486 -48.3125 
L 392.551632 -48.3125 
L 394.051778 -48.3125 
L 395.551924 -48.3125 
L 397.05207 -48.3125 
L 398.552217 -48.3125 
L 400.052363 -48.3125 
L 401.552509 -48.3125 
L 403.052655 -48.3125 
L 404.552801 -48.3125 
L 406.052947 -48.3125 
L 407.553093 -48.3125 
L 409.053239 -48.3125 
L 410.553385 -48.3125 
L 412.053531 -48.3125 
L 413.553678 -48.3125 
L 415.053824 -48.3125 
L 416.55397 -48.3125 
L 418.054116 -48.3125 
L 419.554262 -48.3125 
L 421.054408 -48.3125 
L 421.054408 -50.762892 
L 421.054408 -50.762892 
L 419.554262 -51.105896 
L 418.054116 -51.491151 
L 416.55397 -51.922995 
L 415.053824 -52.406088 
L 413.553678 -52.945424 
L 412.053531 -53.546335 
L 410.553385 -54.214492 
L 409.053239 -54.955912 
L 407.553093 -55.776948 
L 406.052947 -56.684291 
L 404.552801 -57.684952 
L 403.052655 -58.786256 
L 401.552509 -59.995815 
L 400.052363 -61.321512 
L 398.552217 -62.771467 
L 397.05207 -64.354005 
L 395.551924 -66.077612 
L 394.051778 -67.950896 
L 392.551632 -69.982527 
L 391.051486 -72.181185 
L 389.55134 -74.55549 
L 388.051194 -77.113938 
L 386.551048 -79.864822 
L 385.050902 -82.816149 
L 383.550756 -85.975559 
L 382.050609 -89.350231 
L 380.550463 -92.946789 
L 379.050317 -96.771207 
L 377.550171 -100.828709 
L 376.050025 -105.123667 
L 374.549879 -109.659502 
L 373.049733 -114.438588 
L 371.549587 -119.462148 
L 370.049441 -124.730169 
L 368.549294 -130.241306 
L 367.049148 -135.992809 
L 365.549002 -141.980442 
L 364.048856 -148.198422 
L 362.54871 -154.63937 
L 361.048564 -161.294262 
L 359.548418 -168.152409 
L 358.048272 -175.201441 
L 356.548126 -182.427311 
L 355.04798 -189.814317 
L 353.547833 -197.345141 
L 352.047687 -205.000902 
L 350.547541 -212.761237 
L 349.047395 -220.604393 
L 347.547249 -228.507341 
L 346.047103 -236.445908 
L 344.546957 -244.394929 
L 343.046811 -252.328413 
L 341.546665 -260.219729 
L 340.046519 -268.041801 
L 338.546372 -275.767322 
L 337.046226 -283.368978 
L 335.54608 -290.819673 
L 334.045934 -298.092774 
L 332.545788 -305.162345 
L 331.045642 -312.003395 
L 329.545496 -318.592118 
L 328.04535 -324.906124 
L 326.545204 -330.924672 
L 325.045058 -336.628886 
L 323.544911 -342.001956 
L 322.044765 -347.029326 
L 320.544619 -351.69886 
L 319.044473 -356.000986 
L 317.544327 -359.928819 
L 316.044181 -363.47825 
L 314.544035 -366.648014 
L 313.043889 -369.439722 
L 311.543743 -371.857865 
L 310.043596 -373.909788 
L 308.54345 -375.605625 
L 307.043304 -376.958206 
L 305.543158 -377.982937 
L 304.043012 -378.697637 
L 302.542866 -379.122357 
L 301.04272 -379.279167 
L 299.542574 -379.191914 
L 298.042428 -378.885966 
L 296.542282 -378.387924 
L 295.042135 -377.725328 
L 293.541989 -376.926344 
L 292.041843 -376.019443 
L 290.541697 -375.033071 
L 289.041551 -373.995325 
L 287.541405 -372.933621 
L 286.041259 -371.874376 
L 284.541113 -370.842698 
L 283.040967 -369.862088 
L 281.540821 -368.954166 
L 280.040674 -368.138409 
L 278.540528 -367.431926 
L 277.040382 -366.849247 
L 275.540236 -366.402157 
L 274.04009 -366.09955 
L 272.539944 -365.947325 
L 271.039798 -365.948317 
L 269.539652 -366.102261 
L 268.039506 -366.405797 
L 266.539359 -366.852513 
L 265.039213 -367.43302 
L 263.539067 -368.135065 
L 262.038921 -368.94368 
L 260.538775 -369.841361 
L 259.038629 -370.808277 
L 257.538483 -371.822509 
L 256.038337 -372.860304 
L 254.538191 -373.896366 
L 253.038045 -374.904146 
L 251.537898 -375.85616 
L 250.037752 -376.724306 
L 248.537606 -377.480195 
L 247.03746 -378.095476 
L 245.537314 -378.542163 
L 244.037168 -378.792953 
L 242.537022 -378.821537 
L 241.036876 -378.60289 
L 239.53673 -378.113553 
L 238.036584 -377.331884 
L 236.536437 -376.238295 
L 235.036291 -374.815459 
L 233.536145 -373.048484 
L 232.035999 -370.925068 
L 230.535853 -368.435615 
L 229.035707 -365.573322 
L 227.535561 -362.334233 
L 226.035415 -358.71726 
L 224.535269 -354.724179 
L 223.035123 -350.359582 
L 221.534976 -345.630813 
L 220.03483 -340.547869 
L 218.534684 -335.123272 
L 217.034538 -329.371928 
L 215.534392 -323.310948 
L 214.034246 -316.959469 
L 212.5341 -310.338441 
L 211.033954 -303.470414 
L 209.533808 -296.379309 
L 208.033661 -289.09018 
L 206.533515 -281.628978 
L 205.033369 -274.022306 
L 203.533223 -266.297183 
L 202.033077 -258.480806 
L 200.532931 -250.600325 
L 199.032785 -242.68262 
L 197.532639 -234.754096 
L 196.032493 -226.840488 
L 194.532347 -218.966679 
L 193.0322 -211.156539 
L 191.532054 -203.432775 
L 190.031908 -195.816808 
L 188.531762 -188.328658 
L 187.031616 -180.986854 
L 185.53147 -173.808366 
L 184.031324 -166.808545 
L 182.531178 -160.001093 
L 181.031032 -153.398043 
L 179.530886 -147.00976 
L 178.030739 -140.844952 
L 176.530593 -134.910703 
L 175.030447 -129.212514 
L 173.530301 -123.754357 
L 172.030155 -118.538742 
L 170.530009 -113.566788 
L 169.029863 -108.83831 
L 167.529717 -104.351903 
L 166.029571 -100.105035 
L 164.529424 -96.09415 
L 163.029278 -92.314756 
L 161.529132 -88.761535 
L 160.028986 -85.428436 
L 158.52884 -82.308776 
L 157.028694 -79.395336 
L 155.528548 -76.680451 
L 154.028402 -74.156104 
L 152.528256 -71.814007 
L 151.02811 -69.645681 
L 149.527963 -67.642533 
L 148.027817 -65.795921 
L 146.527671 -64.097221 
L 145.027525 -62.53788 
L 143.527379 -61.109471 
L 142.027233 -59.803734 
L 140.527087 -58.612617 
L 139.026941 -57.52831 
L 137.526795 -56.543273 
L 136.026649 -55.650258 
L 134.526502 -54.842326 
L 133.026356 -54.112864 
L 131.52621 -53.455591 
L 130.026064 -52.864564 
L 128.525918 -52.334181 
L 127.025772 -51.859179 
L 125.525626 -51.43463 
L 124.02548 -51.055937 
L 122.525334 -50.718822 
z
" style="stroke: #e74c3c"/>
    </defs>
    <g clip-path="url(#p0c4869c1dd)">
     <use xlink:href="#md833385b23" x="0" y="420.48" style="fill: #e74c3c; fill-opacity: 0.3; stroke: #e74c3c"/>
    </g>
   </g>
   <g id="patch_3">
    <path d="M 53.8475 372.1675 
L 53.8475 24.6525 
" style="fill: none; stroke: #cccccc; stroke-width: 1.5; stroke-linejoin: miter; stroke-linecap: square"/>
   </g>
   <g id="patch_4">
    <path d="M 53.8475 372.1675 
L 701.28 372.1675 
" style="fill: none; stroke: #cccccc; stroke-width: 1.5; stroke-linejoin: miter; stroke-linecap: square"/>
   </g>
   <g id="text_17">
    <!-- Distribution of Absolute Errors -->
    <g style="fill: #262626" transform="translate(271.74375 18.6525) scale(0.16 -0.16)">
     <defs>
      <path id="ArialMT-62" d="M 941 0 
L 419 0 
L 419 4581 
L 981 4581 
L 981 2947 
Q 1338 3394 1891 3394 
Q 2197 3394 2470 3270 
Q 2744 3147 2920 2923 
Q 3097 2700 3197 2384 
Q 3297 2069 3297 1709 
Q 3297 856 2875 390 
Q 2453 -75 1863 -75 
Q 1275 -75 941 416 
L 941 0 
z
M 934 1684 
Q 934 1088 1097 822 
Q 1363 388 1816 388 
Q 2184 388 2453 708 
Q 2722 1028 2722 1663 
Q 2722 2313 2464 2622 
Q 2206 2931 1841 2931 
Q 1472 2931 1203 2611 
Q 934 2291 934 1684 
z
" transform="scale(0.015625)"/>
      <path id="ArialMT-75" d="M 2597 0 
L 2597 488 
Q 2209 -75 1544 -75 
Q 1250 -75 995 37 
Q 741 150 617 320 
Q 494 491 444 738 
Q 409 903 409 1263 
L 409 3319 
L 972 3319 
L 972 1478 
Q 972 1038 1006 884 
Q 1059 663 1231 536 
Q 1403 409 1656 409 
Q 1909 409 2131 539 
Q 2353 669 2445 892 
Q 2538 1116 2538 1541 
L 2538 3319 
L 3100 3319 
L 3100 0 
L 2597 0 
z
" transform="scale(0.015625)"/>
      <path id="ArialMT-66" d="M 556 0 
L 556 2881 
L 59 2881 
L 59 3319 
L 556 3319 
L 556 3672 
Q 556 4006 616 4169 
Q 697 4388 901 4523 
Q 1106 4659 1475 4659 
Q 1713 4659 2000 4603 
L 1916 4113 
Q 1741 4144 1584 4144 
Q 1328 4144 1222 4034 
Q 1116 3925 1116 3625 
L 1116 3319 
L 1763 3319 
L 1763 2881 
L 1116 2881 
L 1116 0 
L 556 0 
z
" transform="scale(0.015625)"/>
      <path id="ArialMT-41" d="M -9 0 
L 1750 4581 
L 2403 4581 
L 4278 0 
L 3588 0 
L 3053 1388 
L 1138 1388 
L 634 0 
L -9 0 
z
M 1313 1881 
L 2866 1881 
L 2388 3150 
Q 2169 3728 2063 4100 
Q 1975 3659 1816 3225 
L 1313 1881 
z
" transform="scale(0.015625)"/>
      <path id="ArialMT-6c" d="M 409 0 
L 409 4581 
L 972 4581 
L 972 0 
L 409 0 
z
" transform="scale(0.015625)"/>
     </defs>
     <use xlink:href="#ArialMT-44"/>
     <use xlink:href="#ArialMT-69" x="72.216797"/>
     <use xlink:href="#ArialMT-73" x="94.433594"/>
     <use xlink:href="#ArialMT-74" x="144.433594"/>
     <use xlink:href="#ArialMT-72" x="172.216797"/>
     <use xlink:href="#ArialMT-69" x="205.517578"/>
     <use xlink:href="#ArialMT-62" x="227.734375"/>
     <use xlink:href="#ArialMT-75" x="283.349609"/>
     <use xlink:href="#ArialMT-74" x="338.964844"/>
     <use xlink:href="#ArialMT-69" x="366.748047"/>
     <use xlink:href="#ArialMT-6f" x="388.964844"/>
     <use xlink:href="#ArialMT-6e" x="444.580078"/>
     <use xlink:href="#ArialMT-20" x="500.195312"/>
     <use xlink:href="#ArialMT-6f" x="527.978516"/>
     <use xlink:href="#ArialMT-66" x="583.59375"/>
     <use xlink:href="#ArialMT-20" x="611.376953"/>
     <use xlink:href="#ArialMT-41" x="633.660156"/>
     <use xlink:href="#ArialMT-62" x="700.359375"/>
     <use xlink:href="#ArialMT-73" x="755.974609"/>
     <use xlink:href="#ArialMT-6f" x="805.974609"/>
     <use xlink:href="#ArialMT-6c" x="861.589844"/>
     <use xlink:href="#ArialMT-75" x="883.806641"/>
     <use xlink:href="#ArialMT-74" x="939.421875"/>
     <use xlink:href="#ArialMT-65" x="967.205078"/>
     <use xlink:href="#ArialMT-20" x="1022.820312"/>
     <use xlink:href="#ArialMT-45" x="1050.603516"/>
     <use xlink:href="#ArialMT-72" x="1117.302734"/>
     <use xlink:href="#ArialMT-72" x="1150.603516"/>
     <use xlink:href="#ArialMT-6f" x="1183.904297"/>
     <use xlink:href="#ArialMT-72" x="1239.519531"/>
     <use xlink:href="#ArialMT-73" x="1272.820312"/>
    </g>
   </g>
   <g id="legend_1">
    <g id="patch_5">
     <path d="M 497.20125 68.775 
L 692.88 68.775 
Q 695.28 68.775 695.28 66.375 
L 695.28 33.0525 
Q 695.28 30.6525 692.88 30.6525 
L 497.20125 30.6525 
Q 494.80125 30.6525 494.80125 33.0525 
L 494.80125 66.375 
Q 494.80125 68.775 497.20125 68.775 
z
" style="fill: #ffffff; opacity: 0.8; stroke: #cccccc; stroke-linejoin: miter"/>
    </g>
    <g id="patch_6">
     <path d="M 499.60125 44.188125 
L 523.60125 44.188125 
L 523.60125 35.788125 
L 499.60125 35.788125 
z
" style="fill: #2ecc71; fill-opacity: 0.3; stroke: #2ecc71; stroke-linejoin: miter"/>
    </g>
    <g id="text_18">
     <!-- Training (μ=1.91%, σ=1.25%) -->
     <g style="fill: #262626" transform="translate(533.20125 44.188125) scale(0.12 -0.12)">
      <defs>
       <path id="ArialMT-54" d="M 1659 0 
L 1659 4041 
L 150 4041 
L 150 4581 
L 3781 4581 
L 3781 4041 
L 2266 4041 
L 2266 0 
L 1659 0 
z
" transform="scale(0.015625)"/>
       <path id="ArialMT-61" d="M 2588 409 
Q 2275 144 1986 34 
Q 1697 -75 1366 -75 
Q 819 -75 525 192 
Q 231 459 231 875 
Q 231 1119 342 1320 
Q 453 1522 633 1644 
Q 813 1766 1038 1828 
Q 1203 1872 1538 1913 
Q 2219 1994 2541 2106 
Q 2544 2222 2544 2253 
Q 2544 2597 2384 2738 
Q 2169 2928 1744 2928 
Q 1347 2928 1158 2789 
Q 969 2650 878 2297 
L 328 2372 
Q 403 2725 575 2942 
Q 747 3159 1072 3276 
Q 1397 3394 1825 3394 
Q 2250 3394 2515 3294 
Q 2781 3194 2906 3042 
Q 3031 2891 3081 2659 
Q 3109 2516 3109 2141 
L 3109 1391 
Q 3109 606 3145 398 
Q 3181 191 3288 0 
L 2700 0 
Q 2613 175 2588 409 
z
M 2541 1666 
Q 2234 1541 1622 1453 
Q 1275 1403 1131 1340 
Q 988 1278 909 1158 
Q 831 1038 831 891 
Q 831 666 1001 516 
Q 1172 366 1500 366 
Q 1825 366 2078 508 
Q 2331 650 2450 897 
Q 2541 1088 2541 1459 
L 2541 1666 
z
" transform="scale(0.015625)"/>
       <path id="ArialMT-67" d="M 319 -275 
L 866 -356 
Q 900 -609 1056 -725 
Q 1266 -881 1628 -881 
Q 2019 -881 2231 -725 
Q 2444 -569 2519 -288 
Q 2563 -116 2559 434 
Q 2191 0 1641 0 
Q 956 0 581 494 
Q 206 988 206 1678 
Q 206 2153 378 2554 
Q 550 2956 876 3175 
Q 1203 3394 1644 3394 
Q 2231 3394 2613 2919 
L 2613 3319 
L 3131 3319 
L 3131 450 
Q 3131 -325 2973 -648 
Q 2816 -972 2473 -1159 
Q 2131 -1347 1631 -1347 
Q 1038 -1347 672 -1080 
Q 306 -813 319 -275 
z
M 784 1719 
Q 784 1066 1043 766 
Q 1303 466 1694 466 
Q 2081 466 2343 764 
Q 2606 1063 2606 1700 
Q 2606 2309 2336 2618 
Q 2066 2928 1684 2928 
Q 1309 2928 1046 2623 
Q 784 2319 784 1719 
z
" transform="scale(0.015625)"/>
       <path id="ArialMT-3bc" d="M 3181 3319 
L 3181 0 
L 2678 0 
L 2678 394 
Q 2516 144 2356 50 
Q 2138 -78 1847 -78 
Q 1588 -78 1388 25 
Q 1238 103 1056 334 
L 1056 -1272 
L 500 -1272 
L 500 3319 
L 1056 3319 
L 1056 1913 
Q 1056 1147 1137 920 
Q 1219 694 1401 562 
Q 1584 431 1822 431 
Q 2072 431 2269 568 
Q 2466 706 2547 923 
Q 2628 1141 2628 1903 
L 2628 3319 
L 3181 3319 
z
" transform="scale(0.015625)"/>
       <path id="ArialMT-3d" d="M 3381 2694 
L 356 2694 
L 356 3219 
L 3381 3219 
L 3381 2694 
z
M 3381 1303 
L 356 1303 
L 356 1828 
L 3381 1828 
L 3381 1303 
z
" transform="scale(0.015625)"/>
       <path id="ArialMT-39" d="M 350 1059 
L 891 1109 
Q 959 728 1153 556 
Q 1347 384 1650 384 
Q 1909 384 2104 503 
Q 2300 622 2425 820 
Q 2550 1019 2634 1356 
Q 2719 1694 2719 2044 
Q 2719 2081 2716 2156 
Q 2547 1888 2255 1720 
Q 1963 1553 1622 1553 
Q 1053 1553 659 1965 
Q 266 2378 266 3053 
Q 266 3750 677 4175 
Q 1088 4600 1706 4600 
Q 2153 4600 2523 4359 
Q 2894 4119 3086 3673 
Q 3278 3228 3278 2384 
Q 3278 1506 3087 986 
Q 2897 466 2520 194 
Q 2144 -78 1638 -78 
Q 1100 -78 759 220 
Q 419 519 350 1059 
z
M 2653 3081 
Q 2653 3566 2395 3850 
Q 2138 4134 1775 4134 
Q 1400 4134 1122 3828 
Q 844 3522 844 3034 
Q 844 2597 1108 2323 
Q 1372 2050 1759 2050 
Q 2150 2050 2401 2323 
Q 2653 2597 2653 3081 
z
" transform="scale(0.015625)"/>
       <path id="ArialMT-2c" d="M 569 0 
L 569 641 
L 1209 641 
L 1209 0 
Q 1209 -353 1084 -570 
Q 959 -788 688 -906 
L 531 -666 
Q 709 -588 793 -436 
Q 878 -284 888 0 
L 569 0 
z
" transform="scale(0.015625)"/>
       <path id="ArialMT-3c3" d="M 3809 3319 
L 3809 2863 
L 2906 2863 
Q 3322 2475 3322 1656 
Q 3322 766 2867 345 
Q 2413 -75 1763 -75 
Q 1088 -75 650 362 
Q 213 800 213 1659 
Q 213 2544 667 2969 
Q 1122 3394 1763 3394 
Q 1997 3394 2294 3319 
L 3809 3319 
z
M 1753 2928 
Q 1344 2928 1067 2609 
Q 791 2291 791 1656 
Q 791 1025 1061 706 
Q 1331 388 1763 388 
Q 2216 388 2483 720 
Q 2750 1053 2750 1659 
Q 2750 2213 2504 2570 
Q 2259 2928 1753 2928 
z
" transform="scale(0.015625)"/>
      </defs>
      <use xlink:href="#ArialMT-54"/>
      <use xlink:href="#ArialMT-72" x="57.333984"/>
      <use xlink:href="#ArialMT-61" x="90.634766"/>
      <use xlink:href="#ArialMT-69" x="146.25"/>
      <use xlink:href="#ArialMT-6e" x="168.466797"/>
      <use xlink:href="#ArialMT-69" x="224.082031"/>
      <use xlink:href="#ArialMT-6e" x="246.298828"/>
      <use xlink:href="#ArialMT-67" x="301.914062"/>
      <use xlink:href="#ArialMT-20" x="357.529297"/>
      <use xlink:href="#ArialMT-28" x="385.3125"/>
      <use xlink:href="#ArialMT-3bc" x="418.613281"/>
      <use xlink:href="#ArialMT-3d" x="476.230469"/>
      <use xlink:href="#ArialMT-31" x="534.628906"/>
      <use xlink:href="#ArialMT-2e" x="590.244141"/>
      <use xlink:href="#ArialMT-39" x="618.027344"/>
      <use xlink:href="#ArialMT-31" x="673.642578"/>
      <use xlink:href="#ArialMT-25" x="729.257812"/>
      <use xlink:href="#ArialMT-2c" x="818.173828"/>
      <use xlink:href="#ArialMT-20" x="845.957031"/>
      <use xlink:href="#ArialMT-3c3" x="873.740234"/>
      <use xlink:href="#ArialMT-3d" x="935.458984"/>
      <use xlink:href="#ArialMT-31" x="993.857422"/>
      <use xlink:href="#ArialMT-2e" x="1049.472656"/>
      <use xlink:href="#ArialMT-32" x="1077.255859"/>
      <use xlink:href="#ArialMT-35" x="1132.871094"/>
      <use xlink:href="#ArialMT-25" x="1188.486328"/>
      <use xlink:href="#ArialMT-29" x="1277.402344"/>
     </g>
    </g>
    <g id="patch_7">
     <path d="M 499.60125 61.449375 
L 523.60125 61.449375 
L 523.60125 53.049375 
L 499.60125 53.049375 
z
" style="fill: #e74c3c; fill-opacity: 0.3; stroke: #e74c3c; stroke-linejoin: miter"/>
    </g>
    <g id="text_19">
     <!-- Testing (μ=0.71%, σ=0.62%) -->
     <g style="fill: #262626" transform="translate(533.20125 61.449375) scale(0.12 -0.12)">
      <defs>
       <path id="ArialMT-37" d="M 303 3981 
L 303 4522 
L 3269 4522 
L 3269 4084 
Q 2831 3619 2401 2847 
Q 1972 2075 1738 1259 
Q 1569 684 1522 0 
L 944 0 
Q 953 541 1156 1306 
Q 1359 2072 1739 2783 
Q 2119 3494 2547 3981 
L 303 3981 
z
" transform="scale(0.015625)"/>
      </defs>
      <use xlink:href="#ArialMT-54"/>
      <use xlink:href="#ArialMT-65" x="49.958984"/>
      <use xlink:href="#ArialMT-73" x="105.574219"/>
      <use xlink:href="#ArialMT-74" x="155.574219"/>
      <use xlink:href="#ArialMT-69" x="183.357422"/>
      <use xlink:href="#ArialMT-6e" x="205.574219"/>
      <use xlink:href="#ArialMT-67" x="261.189453"/>
      <use xlink:href="#ArialMT-20" x="316.804688"/>
      <use xlink:href="#ArialMT-28" x="344.587891"/>
      <use xlink:href="#ArialMT-3bc" x="377.888672"/>
      <use xlink:href="#ArialMT-3d" x="435.505859"/>
      <use xlink:href="#ArialMT-30" x="493.904297"/>
      <use xlink:href="#ArialMT-2e" x="549.519531"/>
      <use xlink:href="#ArialMT-37" x="577.302734"/>
      <use xlink:href="#ArialMT-31" x="632.917969"/>
      <use xlink:href="#ArialMT-25" x="688.533203"/>
      <use xlink:href="#ArialMT-2c" x="777.449219"/>
      <use xlink:href="#ArialMT-20" x="805.232422"/>
      <use xlink:href="#ArialMT-3c3" x="833.015625"/>
      <use xlink:href="#ArialMT-3d" x="894.734375"/>
      <use xlink:href="#ArialMT-30" x="953.132812"/>
      <use xlink:href="#ArialMT-2e" x="1008.748047"/>
      <use xlink:href="#ArialMT-36" x="1036.53125"/>
      <use xlink:href="#ArialMT-32" x="1092.146484"/>
      <use xlink:href="#ArialMT-25" x="1147.761719"/>
      <use xlink:href="#ArialMT-29" x="1236.677734"/>
     </g>
    </g>
   </g>
  </g>
 </g>
 <defs>
  <clipPath id="p0c4869c1dd">
   <rect x="53.8475" y="24.6525" width="647.4325" height="347.515"/>
  </clipPath>
 </defs>
</svg>
