<?xml version="1.0" encoding="utf-8" standalone="no"?>
<!DOCTYPE svg PUBLIC "-//W3C//DTD SVG 1.1//EN"
  "http://www.w3.org/Graphics/SVG/1.1/DTD/svg11.dtd">
<svg xmlns:xlink="http://www.w3.org/1999/xlink" width="561.247125pt" height="419.641313pt" viewBox="0 0 561.247125 419.641313" xmlns="http://www.w3.org/2000/svg" version="1.1">
 <metadata>
  <rdf:RDF xmlns:dc="http://purl.org/dc/elements/1.1/" xmlns:cc="http://creativecommons.org/ns#" xmlns:rdf="http://www.w3.org/1999/02/22-rdf-syntax-ns#">
   <cc:Work>
    <dc:type rdf:resource="http://purl.org/dc/dcmitype/StillImage"/>
    <dc:date>2025-01-07T20:38:00.639627</dc:date>
    <dc:format>image/svg+xml</dc:format>
    <dc:creator>
     <cc:Agent>
      <dc:title>Matplotlib v3.9.3, https://matplotlib.org/</dc:title>
     </cc:Agent>
    </dc:creator>
   </cc:Work>
  </rdf:RDF>
 </metadata>
 <defs>
  <style type="text/css">*{stroke-linejoin: round; stroke-linecap: butt}</style>
 </defs>
 <g id="figure_1">
  <g id="patch_1">
   <path d="M 0 419.641313 
L 561.247125 419.641313 
L 561.247125 0 
L 0 0 
z
" style="fill: #ffffff"/>
  </g>
  <g id="axes_1">
   <g id="patch_2">
    <path d="M 46.51125 369.1635 
L 429.34125 369.1635 
L 429.34125 55.5755 
L 46.51125 55.5755 
z
" style="fill: #ffffff"/>
   </g>
   <g id="matplotlib.axis_1">
    <g id="xtick_1">
     <g id="line2d_1">
      <path d="M 84.426416 369.1635 
L 84.426416 55.5755 
" clip-path="url(#pea160839a8)" style="fill: none; stroke-dasharray: 1.85,0.8; stroke-dashoffset: 0; stroke: #cccccc; stroke-opacity: 0.3; stroke-width: 0.5"/>
     </g>
     <g id="text_1">
      <!-- −3.75 -->
      <g style="fill: #262626" transform="translate(69.245479 387.252875) scale(0.12 -0.12)">
       <defs>
        <path id="ArialMT-2212" d="M 3381 1997 
L 356 1997 
L 356 2522 
L 3381 2522 
L 3381 1997 
z
" transform="scale(0.015625)"/>
        <path id="ArialMT-33" d="M 269 1209 
L 831 1284 
Q 928 806 1161 595 
Q 1394 384 1728 384 
Q 2125 384 2398 659 
Q 2672 934 2672 1341 
Q 2672 1728 2419 1979 
Q 2166 2231 1775 2231 
Q 1616 2231 1378 2169 
L 1441 2663 
Q 1497 2656 1531 2656 
Q 1891 2656 2178 2843 
Q 2466 3031 2466 3422 
Q 2466 3731 2256 3934 
Q 2047 4138 1716 4138 
Q 1388 4138 1169 3931 
Q 950 3725 888 3313 
L 325 3413 
Q 428 3978 793 4289 
Q 1159 4600 1703 4600 
Q 2078 4600 2393 4439 
Q 2709 4278 2876 4000 
Q 3044 3722 3044 3409 
Q 3044 3113 2884 2869 
Q 2725 2625 2413 2481 
Q 2819 2388 3044 2092 
Q 3269 1797 3269 1353 
Q 3269 753 2831 336 
Q 2394 -81 1725 -81 
Q 1122 -81 723 278 
Q 325 638 269 1209 
z
" transform="scale(0.015625)"/>
        <path id="ArialMT-2e" d="M 581 0 
L 581 641 
L 1222 641 
L 1222 0 
L 581 0 
z
" transform="scale(0.015625)"/>
        <path id="ArialMT-37" d="M 303 3981 
L 303 4522 
L 3269 4522 
L 3269 4084 
Q 2831 3619 2401 2847 
Q 1972 2075 1738 1259 
Q 1569 684 1522 0 
L 944 0 
Q 953 541 1156 1306 
Q 1359 2072 1739 2783 
Q 2119 3494 2547 3981 
L 303 3981 
z
" transform="scale(0.015625)"/>
        <path id="ArialMT-35" d="M 266 1200 
L 856 1250 
Q 922 819 1161 601 
Q 1400 384 1738 384 
Q 2144 384 2425 690 
Q 2706 997 2706 1503 
Q 2706 1984 2436 2262 
Q 2166 2541 1728 2541 
Q 1456 2541 1237 2417 
Q 1019 2294 894 2097 
L 366 2166 
L 809 4519 
L 3088 4519 
L 3088 3981 
L 1259 3981 
L 1013 2750 
Q 1425 3038 1878 3038 
Q 2478 3038 2890 2622 
Q 3303 2206 3303 1553 
Q 3303 931 2941 478 
Q 2500 -78 1738 -78 
Q 1113 -78 717 272 
Q 322 622 266 1200 
z
" transform="scale(0.015625)"/>
       </defs>
       <use xlink:href="#ArialMT-2212"/>
       <use xlink:href="#ArialMT-33" x="58.398438"/>
       <use xlink:href="#ArialMT-2e" x="114.013672"/>
       <use xlink:href="#ArialMT-37" x="141.796875"/>
       <use xlink:href="#ArialMT-35" x="197.412109"/>
      </g>
     </g>
    </g>
    <g id="xtick_2">
     <g id="line2d_2">
      <path d="M 128.637198 369.1635 
L 128.637198 55.5755 
" clip-path="url(#pea160839a8)" style="fill: none; stroke-dasharray: 1.85,0.8; stroke-dashoffset: 0; stroke: #cccccc; stroke-opacity: 0.3; stroke-width: 0.5"/>
     </g>
     <g id="text_2">
      <!-- −3.50 -->
      <g style="fill: #262626" transform="translate(113.45626 387.252875) scale(0.12 -0.12)">
       <defs>
        <path id="ArialMT-30" d="M 266 2259 
Q 266 3072 433 3567 
Q 600 4063 929 4331 
Q 1259 4600 1759 4600 
Q 2128 4600 2406 4451 
Q 2684 4303 2865 4023 
Q 3047 3744 3150 3342 
Q 3253 2941 3253 2259 
Q 3253 1453 3087 958 
Q 2922 463 2592 192 
Q 2263 -78 1759 -78 
Q 1097 -78 719 397 
Q 266 969 266 2259 
z
M 844 2259 
Q 844 1131 1108 757 
Q 1372 384 1759 384 
Q 2147 384 2411 759 
Q 2675 1134 2675 2259 
Q 2675 3391 2411 3762 
Q 2147 4134 1753 4134 
Q 1366 4134 1134 3806 
Q 844 3388 844 2259 
z
" transform="scale(0.015625)"/>
       </defs>
       <use xlink:href="#ArialMT-2212"/>
       <use xlink:href="#ArialMT-33" x="58.398438"/>
       <use xlink:href="#ArialMT-2e" x="114.013672"/>
       <use xlink:href="#ArialMT-35" x="141.796875"/>
       <use xlink:href="#ArialMT-30" x="197.412109"/>
      </g>
     </g>
    </g>
    <g id="xtick_3">
     <g id="line2d_3">
      <path d="M 172.847979 369.1635 
L 172.847979 55.5755 
" clip-path="url(#pea160839a8)" style="fill: none; stroke-dasharray: 1.85,0.8; stroke-dashoffset: 0; stroke: #cccccc; stroke-opacity: 0.3; stroke-width: 0.5"/>
     </g>
     <g id="text_3">
      <!-- −3.25 -->
      <g style="fill: #262626" transform="translate(157.667042 387.252875) scale(0.12 -0.12)">
       <defs>
        <path id="ArialMT-32" d="M 3222 541 
L 3222 0 
L 194 0 
Q 188 203 259 391 
Q 375 700 629 1000 
Q 884 1300 1366 1694 
Q 2113 2306 2375 2664 
Q 2638 3022 2638 3341 
Q 2638 3675 2398 3904 
Q 2159 4134 1775 4134 
Q 1369 4134 1125 3890 
Q 881 3647 878 3216 
L 300 3275 
Q 359 3922 746 4261 
Q 1134 4600 1788 4600 
Q 2447 4600 2831 4234 
Q 3216 3869 3216 3328 
Q 3216 3053 3103 2787 
Q 2991 2522 2730 2228 
Q 2469 1934 1863 1422 
Q 1356 997 1212 845 
Q 1069 694 975 541 
L 3222 541 
z
" transform="scale(0.015625)"/>
       </defs>
       <use xlink:href="#ArialMT-2212"/>
       <use xlink:href="#ArialMT-33" x="58.398438"/>
       <use xlink:href="#ArialMT-2e" x="114.013672"/>
       <use xlink:href="#ArialMT-32" x="141.796875"/>
       <use xlink:href="#ArialMT-35" x="197.412109"/>
      </g>
     </g>
    </g>
    <g id="xtick_4">
     <g id="line2d_4">
      <path d="M 217.058761 369.1635 
L 217.058761 55.5755 
" clip-path="url(#pea160839a8)" style="fill: none; stroke-dasharray: 1.85,0.8; stroke-dashoffset: 0; stroke: #cccccc; stroke-opacity: 0.3; stroke-width: 0.5"/>
     </g>
     <g id="text_4">
      <!-- −3.00 -->
      <g style="fill: #262626" transform="translate(201.877824 387.252875) scale(0.12 -0.12)">
       <use xlink:href="#ArialMT-2212"/>
       <use xlink:href="#ArialMT-33" x="58.398438"/>
       <use xlink:href="#ArialMT-2e" x="114.013672"/>
       <use xlink:href="#ArialMT-30" x="141.796875"/>
       <use xlink:href="#ArialMT-30" x="197.412109"/>
      </g>
     </g>
    </g>
    <g id="xtick_5">
     <g id="line2d_5">
      <path d="M 261.269543 369.1635 
L 261.269543 55.5755 
" clip-path="url(#pea160839a8)" style="fill: none; stroke-dasharray: 1.85,0.8; stroke-dashoffset: 0; stroke: #cccccc; stroke-opacity: 0.3; stroke-width: 0.5"/>
     </g>
     <g id="text_5">
      <!-- −2.75 -->
      <g style="fill: #262626" transform="translate(246.088605 387.252875) scale(0.12 -0.12)">
       <use xlink:href="#ArialMT-2212"/>
       <use xlink:href="#ArialMT-32" x="58.398438"/>
       <use xlink:href="#ArialMT-2e" x="114.013672"/>
       <use xlink:href="#ArialMT-37" x="141.796875"/>
       <use xlink:href="#ArialMT-35" x="197.412109"/>
      </g>
     </g>
    </g>
    <g id="xtick_6">
     <g id="line2d_6">
      <path d="M 305.480324 369.1635 
L 305.480324 55.5755 
" clip-path="url(#pea160839a8)" style="fill: none; stroke-dasharray: 1.85,0.8; stroke-dashoffset: 0; stroke: #cccccc; stroke-opacity: 0.3; stroke-width: 0.5"/>
     </g>
     <g id="text_6">
      <!-- −2.50 -->
      <g style="fill: #262626" transform="translate(290.299387 387.252875) scale(0.12 -0.12)">
       <use xlink:href="#ArialMT-2212"/>
       <use xlink:href="#ArialMT-32" x="58.398438"/>
       <use xlink:href="#ArialMT-2e" x="114.013672"/>
       <use xlink:href="#ArialMT-35" x="141.796875"/>
       <use xlink:href="#ArialMT-30" x="197.412109"/>
      </g>
     </g>
    </g>
    <g id="xtick_7">
     <g id="line2d_7">
      <path d="M 349.691106 369.1635 
L 349.691106 55.5755 
" clip-path="url(#pea160839a8)" style="fill: none; stroke-dasharray: 1.85,0.8; stroke-dashoffset: 0; stroke: #cccccc; stroke-opacity: 0.3; stroke-width: 0.5"/>
     </g>
     <g id="text_7">
      <!-- −2.25 -->
      <g style="fill: #262626" transform="translate(334.510168 387.252875) scale(0.12 -0.12)">
       <use xlink:href="#ArialMT-2212"/>
       <use xlink:href="#ArialMT-32" x="58.398438"/>
       <use xlink:href="#ArialMT-2e" x="114.013672"/>
       <use xlink:href="#ArialMT-32" x="141.796875"/>
       <use xlink:href="#ArialMT-35" x="197.412109"/>
      </g>
     </g>
    </g>
    <g id="xtick_8">
     <g id="line2d_8">
      <path d="M 393.901887 369.1635 
L 393.901887 55.5755 
" clip-path="url(#pea160839a8)" style="fill: none; stroke-dasharray: 1.85,0.8; stroke-dashoffset: 0; stroke: #cccccc; stroke-opacity: 0.3; stroke-width: 0.5"/>
     </g>
     <g id="text_8">
      <!-- −2.00 -->
      <g style="fill: #262626" transform="translate(378.72095 387.252875) scale(0.12 -0.12)">
       <use xlink:href="#ArialMT-2212"/>
       <use xlink:href="#ArialMT-32" x="58.398438"/>
       <use xlink:href="#ArialMT-2e" x="114.013672"/>
       <use xlink:href="#ArialMT-30" x="141.796875"/>
       <use xlink:href="#ArialMT-30" x="197.412109"/>
      </g>
     </g>
    </g>
    <g id="text_9">
     <!-- LUMO -->
     <g style="fill: #262626" transform="translate(217.702812 409.658813) scale(0.14 -0.14)">
      <defs>
       <path id="ArialMT-4c" d="M 469 0 
L 469 4581 
L 1075 4581 
L 1075 541 
L 3331 541 
L 3331 0 
L 469 0 
z
" transform="scale(0.015625)"/>
       <path id="ArialMT-55" d="M 3500 4581 
L 4106 4581 
L 4106 1934 
Q 4106 1244 3950 837 
Q 3794 431 3386 176 
Q 2978 -78 2316 -78 
Q 1672 -78 1262 144 
Q 853 366 678 786 
Q 503 1206 503 1934 
L 503 4581 
L 1109 4581 
L 1109 1938 
Q 1109 1341 1220 1058 
Q 1331 775 1601 622 
Q 1872 469 2263 469 
Q 2931 469 3215 772 
Q 3500 1075 3500 1938 
L 3500 4581 
z
" transform="scale(0.015625)"/>
       <path id="ArialMT-4d" d="M 475 0 
L 475 4581 
L 1388 4581 
L 2472 1338 
Q 2622 884 2691 659 
Q 2769 909 2934 1394 
L 4031 4581 
L 4847 4581 
L 4847 0 
L 4263 0 
L 4263 3834 
L 2931 0 
L 2384 0 
L 1059 3900 
L 1059 0 
L 475 0 
z
" transform="scale(0.015625)"/>
       <path id="ArialMT-4f" d="M 309 2231 
Q 309 3372 921 4017 
Q 1534 4663 2503 4663 
Q 3138 4663 3647 4359 
Q 4156 4056 4423 3514 
Q 4691 2972 4691 2284 
Q 4691 1588 4409 1038 
Q 4128 488 3612 205 
Q 3097 -78 2500 -78 
Q 1853 -78 1343 234 
Q 834 547 571 1087 
Q 309 1628 309 2231 
z
M 934 2222 
Q 934 1394 1379 917 
Q 1825 441 2497 441 
Q 3181 441 3623 922 
Q 4066 1403 4066 2288 
Q 4066 2847 3877 3264 
Q 3688 3681 3323 3911 
Q 2959 4141 2506 4141 
Q 1863 4141 1398 3698 
Q 934 3256 934 2222 
z
" transform="scale(0.015625)"/>
      </defs>
      <use xlink:href="#ArialMT-4c"/>
      <use xlink:href="#ArialMT-55" x="55.615234"/>
      <use xlink:href="#ArialMT-4d" x="127.832031"/>
      <use xlink:href="#ArialMT-4f" x="211.132812"/>
     </g>
    </g>
   </g>
   <g id="matplotlib.axis_2">
    <g id="ytick_1">
     <g id="line2d_9">
      <path d="M 46.51125 357.48165 
L 429.34125 357.48165 
" clip-path="url(#pea160839a8)" style="fill: none; stroke-dasharray: 1.85,0.8; stroke-dashoffset: 0; stroke: #cccccc; stroke-opacity: 0.3; stroke-width: 0.5"/>
     </g>
     <g id="text_10">
      <!-- 0 -->
      <g style="fill: #262626" transform="translate(30.338125 361.776338) scale(0.12 -0.12)">
       <use xlink:href="#ArialMT-30"/>
      </g>
     </g>
    </g>
    <g id="ytick_2">
     <g id="line2d_10">
      <path d="M 46.51125 314.612477 
L 429.34125 314.612477 
" clip-path="url(#pea160839a8)" style="fill: none; stroke-dasharray: 1.85,0.8; stroke-dashoffset: 0; stroke: #cccccc; stroke-opacity: 0.3; stroke-width: 0.5"/>
     </g>
     <g id="text_11">
      <!-- 1 -->
      <g style="fill: #262626" transform="translate(30.338125 318.907165) scale(0.12 -0.12)">
       <defs>
        <path id="ArialMT-31" d="M 2384 0 
L 1822 0 
L 1822 3584 
Q 1619 3391 1289 3197 
Q 959 3003 697 2906 
L 697 3450 
Q 1169 3672 1522 3987 
Q 1875 4303 2022 4600 
L 2384 4600 
L 2384 0 
z
" transform="scale(0.015625)"/>
       </defs>
       <use xlink:href="#ArialMT-31"/>
      </g>
     </g>
    </g>
    <g id="ytick_3">
     <g id="line2d_11">
      <path d="M 46.51125 271.743305 
L 429.34125 271.743305 
" clip-path="url(#pea160839a8)" style="fill: none; stroke-dasharray: 1.85,0.8; stroke-dashoffset: 0; stroke: #cccccc; stroke-opacity: 0.3; stroke-width: 0.5"/>
     </g>
     <g id="text_12">
      <!-- 2 -->
      <g style="fill: #262626" transform="translate(30.338125 276.037992) scale(0.12 -0.12)">
       <use xlink:href="#ArialMT-32"/>
      </g>
     </g>
    </g>
    <g id="ytick_4">
     <g id="line2d_12">
      <path d="M 46.51125 228.874132 
L 429.34125 228.874132 
" clip-path="url(#pea160839a8)" style="fill: none; stroke-dasharray: 1.85,0.8; stroke-dashoffset: 0; stroke: #cccccc; stroke-opacity: 0.3; stroke-width: 0.5"/>
     </g>
     <g id="text_13">
      <!-- 3 -->
      <g style="fill: #262626" transform="translate(30.338125 233.168819) scale(0.12 -0.12)">
       <use xlink:href="#ArialMT-33"/>
      </g>
     </g>
    </g>
    <g id="ytick_5">
     <g id="line2d_13">
      <path d="M 46.51125 186.004959 
L 429.34125 186.004959 
" clip-path="url(#pea160839a8)" style="fill: none; stroke-dasharray: 1.85,0.8; stroke-dashoffset: 0; stroke: #cccccc; stroke-opacity: 0.3; stroke-width: 0.5"/>
     </g>
     <g id="text_14">
      <!-- 4 -->
      <g style="fill: #262626" transform="translate(30.338125 190.299646) scale(0.12 -0.12)">
       <defs>
        <path id="ArialMT-34" d="M 2069 0 
L 2069 1097 
L 81 1097 
L 81 1613 
L 2172 4581 
L 2631 4581 
L 2631 1613 
L 3250 1613 
L 3250 1097 
L 2631 1097 
L 2631 0 
L 2069 0 
z
M 2069 1613 
L 2069 3678 
L 634 1613 
L 2069 1613 
z
" transform="scale(0.015625)"/>
       </defs>
       <use xlink:href="#ArialMT-34"/>
      </g>
     </g>
    </g>
    <g id="ytick_6">
     <g id="line2d_14">
      <path d="M 46.51125 143.135786 
L 429.34125 143.135786 
" clip-path="url(#pea160839a8)" style="fill: none; stroke-dasharray: 1.85,0.8; stroke-dashoffset: 0; stroke: #cccccc; stroke-opacity: 0.3; stroke-width: 0.5"/>
     </g>
     <g id="text_15">
      <!-- 5 -->
      <g style="fill: #262626" transform="translate(30.338125 147.430473) scale(0.12 -0.12)">
       <use xlink:href="#ArialMT-35"/>
      </g>
     </g>
    </g>
    <g id="ytick_7">
     <g id="line2d_15">
      <path d="M 46.51125 100.266613 
L 429.34125 100.266613 
" clip-path="url(#pea160839a8)" style="fill: none; stroke-dasharray: 1.85,0.8; stroke-dashoffset: 0; stroke: #cccccc; stroke-opacity: 0.3; stroke-width: 0.5"/>
     </g>
     <g id="text_16">
      <!-- 6 -->
      <g style="fill: #262626" transform="translate(30.338125 104.5613) scale(0.12 -0.12)">
       <defs>
        <path id="ArialMT-36" d="M 3184 3459 
L 2625 3416 
Q 2550 3747 2413 3897 
Q 2184 4138 1850 4138 
Q 1581 4138 1378 3988 
Q 1113 3794 959 3422 
Q 806 3050 800 2363 
Q 1003 2672 1297 2822 
Q 1591 2972 1913 2972 
Q 2475 2972 2870 2558 
Q 3266 2144 3266 1488 
Q 3266 1056 3080 686 
Q 2894 316 2569 119 
Q 2244 -78 1831 -78 
Q 1128 -78 684 439 
Q 241 956 241 2144 
Q 241 3472 731 4075 
Q 1159 4600 1884 4600 
Q 2425 4600 2770 4297 
Q 3116 3994 3184 3459 
z
M 888 1484 
Q 888 1194 1011 928 
Q 1134 663 1356 523 
Q 1578 384 1822 384 
Q 2178 384 2434 671 
Q 2691 959 2691 1453 
Q 2691 1928 2437 2201 
Q 2184 2475 1800 2475 
Q 1419 2475 1153 2201 
Q 888 1928 888 1484 
z
" transform="scale(0.015625)"/>
       </defs>
       <use xlink:href="#ArialMT-36"/>
      </g>
     </g>
    </g>
    <g id="ytick_8">
     <g id="line2d_16">
      <path d="M 46.51125 57.39744 
L 429.34125 57.39744 
" clip-path="url(#pea160839a8)" style="fill: none; stroke-dasharray: 1.85,0.8; stroke-dashoffset: 0; stroke: #cccccc; stroke-opacity: 0.3; stroke-width: 0.5"/>
     </g>
     <g id="text_17">
      <!-- 7 -->
      <g style="fill: #262626" transform="translate(30.338125 61.692127) scale(0.12 -0.12)">
       <use xlink:href="#ArialMT-37"/>
      </g>
     </g>
    </g>
    <g id="text_18">
     <!-- PCE (%) -->
     <g style="fill: #262626" transform="translate(17.391563 239.594031) rotate(-90) scale(0.14 -0.14)">
      <defs>
       <path id="ArialMT-50" d="M 494 0 
L 494 4581 
L 2222 4581 
Q 2678 4581 2919 4538 
Q 3256 4481 3484 4323 
Q 3713 4166 3852 3881 
Q 3991 3597 3991 3256 
Q 3991 2672 3619 2267 
Q 3247 1863 2275 1863 
L 1100 1863 
L 1100 0 
L 494 0 
z
M 1100 2403 
L 2284 2403 
Q 2872 2403 3119 2622 
Q 3366 2841 3366 3238 
Q 3366 3525 3220 3729 
Q 3075 3934 2838 4000 
Q 2684 4041 2272 4041 
L 1100 4041 
L 1100 2403 
z
" transform="scale(0.015625)"/>
       <path id="ArialMT-43" d="M 3763 1606 
L 4369 1453 
Q 4178 706 3683 314 
Q 3188 -78 2472 -78 
Q 1731 -78 1267 223 
Q 803 525 561 1097 
Q 319 1669 319 2325 
Q 319 3041 592 3573 
Q 866 4106 1370 4382 
Q 1875 4659 2481 4659 
Q 3169 4659 3637 4309 
Q 4106 3959 4291 3325 
L 3694 3184 
Q 3534 3684 3231 3912 
Q 2928 4141 2469 4141 
Q 1941 4141 1586 3887 
Q 1231 3634 1087 3207 
Q 944 2781 944 2328 
Q 944 1744 1114 1308 
Q 1284 872 1643 656 
Q 2003 441 2422 441 
Q 2931 441 3284 734 
Q 3638 1028 3763 1606 
z
" transform="scale(0.015625)"/>
       <path id="ArialMT-45" d="M 506 0 
L 506 4581 
L 3819 4581 
L 3819 4041 
L 1113 4041 
L 1113 2638 
L 3647 2638 
L 3647 2100 
L 1113 2100 
L 1113 541 
L 3925 541 
L 3925 0 
L 506 0 
z
" transform="scale(0.015625)"/>
       <path id="ArialMT-20" transform="scale(0.015625)"/>
       <path id="ArialMT-28" d="M 1497 -1347 
Q 1031 -759 709 28 
Q 388 816 388 1659 
Q 388 2403 628 3084 
Q 909 3875 1497 4659 
L 1900 4659 
Q 1522 4009 1400 3731 
Q 1209 3300 1100 2831 
Q 966 2247 966 1656 
Q 966 153 1900 -1347 
L 1497 -1347 
z
" transform="scale(0.015625)"/>
       <path id="ArialMT-25" d="M 372 3481 
Q 372 3972 619 4315 
Q 866 4659 1334 4659 
Q 1766 4659 2048 4351 
Q 2331 4044 2331 3447 
Q 2331 2866 2045 2552 
Q 1759 2238 1341 2238 
Q 925 2238 648 2547 
Q 372 2856 372 3481 
z
M 1350 4272 
Q 1141 4272 1002 4090 
Q 863 3909 863 3425 
Q 863 2984 1003 2804 
Q 1144 2625 1350 2625 
Q 1563 2625 1702 2806 
Q 1841 2988 1841 3469 
Q 1841 3913 1700 4092 
Q 1559 4272 1350 4272 
z
M 1353 -169 
L 3859 4659 
L 4316 4659 
L 1819 -169 
L 1353 -169 
z
M 3334 1075 
Q 3334 1569 3581 1911 
Q 3828 2253 4300 2253 
Q 4731 2253 5014 1945 
Q 5297 1638 5297 1041 
Q 5297 459 5011 145 
Q 4725 -169 4303 -169 
Q 3888 -169 3611 142 
Q 3334 453 3334 1075 
z
M 4316 1866 
Q 4103 1866 3964 1684 
Q 3825 1503 3825 1019 
Q 3825 581 3965 400 
Q 4106 219 4313 219 
Q 4528 219 4667 400 
Q 4806 581 4806 1063 
Q 4806 1506 4665 1686 
Q 4525 1866 4316 1866 
z
" transform="scale(0.015625)"/>
       <path id="ArialMT-29" d="M 791 -1347 
L 388 -1347 
Q 1322 153 1322 1656 
Q 1322 2244 1188 2822 
Q 1081 3291 891 3722 
Q 769 4003 388 4659 
L 791 4659 
Q 1378 3875 1659 3084 
Q 1900 2403 1900 1659 
Q 1900 816 1576 28 
Q 1253 -759 791 -1347 
z
" transform="scale(0.015625)"/>
      </defs>
      <use xlink:href="#ArialMT-50"/>
      <use xlink:href="#ArialMT-43" x="66.699219"/>
      <use xlink:href="#ArialMT-45" x="138.916016"/>
      <use xlink:href="#ArialMT-20" x="205.615234"/>
      <use xlink:href="#ArialMT-28" x="233.398438"/>
      <use xlink:href="#ArialMT-25" x="266.699219"/>
      <use xlink:href="#ArialMT-29" x="355.615234"/>
     </g>
    </g>
   </g>
   <g id="PathCollection_1">
    <defs>
     <path id="m815cdd1a13" d="M 0 5 
C 1.326016 5 2.597899 4.473168 3.535534 3.535534 
C 4.473168 2.597899 5 1.326016 5 0 
C 5 -1.326016 4.473168 -2.597899 3.535534 -3.535534 
C 2.597899 -4.473168 1.326016 -5 0 -5 
C -1.326016 -5 -2.597899 -4.473168 -3.535534 -3.535534 
C -4.473168 -2.597899 -5 -1.326016 -5 0 
C -5 1.326016 -4.473168 2.597899 -3.535534 3.535534 
C -2.597899 4.473168 -1.326016 5 0 5 
z
" style="stroke: #2ecc71; stroke-opacity: 0.7"/>
    </defs>
    <g clip-path="url(#pea160839a8)">
     <use xlink:href="#m815cdd1a13" x="91.500141" y="167.142523" style="fill: #2ecc71; fill-opacity: 0.7; stroke: #2ecc71; stroke-opacity: 0.7"/>
     <use xlink:href="#m815cdd1a13" x="96.451749" y="125.559425" style="fill: #2ecc71; fill-opacity: 0.7; stroke: #2ecc71; stroke-opacity: 0.7"/>
     <use xlink:href="#m815cdd1a13" x="97.335965" y="140.992327" style="fill: #2ecc71; fill-opacity: 0.7; stroke: #2ecc71; stroke-opacity: 0.7"/>
     <use xlink:href="#m815cdd1a13" x="93.622259" y="294.463966" style="fill: #2ecc71; fill-opacity: 0.7; stroke: #2ecc71; stroke-opacity: 0.7"/>
     <use xlink:href="#m815cdd1a13" x="97.335965" y="258.453861" style="fill: #2ecc71; fill-opacity: 0.7; stroke: #2ecc71; stroke-opacity: 0.7"/>
     <use xlink:href="#m815cdd1a13" x="113.251846" y="263.598162" style="fill: #2ecc71; fill-opacity: 0.7; stroke: #2ecc71; stroke-opacity: 0.7"/>
     <use xlink:href="#m815cdd1a13" x="88.493808" y="120.843816" style="fill: #2ecc71; fill-opacity: 0.7; stroke: #2ecc71; stroke-opacity: 0.7"/>
     <use xlink:href="#m815cdd1a13" x="90.615926" y="167.142523" style="fill: #2ecc71; fill-opacity: 0.7; stroke: #2ecc71; stroke-opacity: 0.7"/>
     <use xlink:href="#m815cdd1a13" x="96.805435" y="168.428598" style="fill: #2ecc71; fill-opacity: 0.7; stroke: #2ecc71; stroke-opacity: 0.7"/>
     <use xlink:href="#m815cdd1a13" x="273.118032" y="244.735726" style="fill: #2ecc71; fill-opacity: 0.7; stroke: #2ecc71; stroke-opacity: 0.7"/>
     <use xlink:href="#m815cdd1a13" x="411.939886" y="251.166102" style="fill: #2ecc71; fill-opacity: 0.7; stroke: #2ecc71; stroke-opacity: 0.7"/>
     <use xlink:href="#m815cdd1a13" x="397.43875" y="313.326402" style="fill: #2ecc71; fill-opacity: 0.7; stroke: #2ecc71; stroke-opacity: 0.7"/>
     <use xlink:href="#m815cdd1a13" x="303.358207" y="315.469861" style="fill: #2ecc71; fill-opacity: 0.7; stroke: #2ecc71; stroke-opacity: 0.7"/>
     <use xlink:href="#m815cdd1a13" x="94.152788" y="301.751726" style="fill: #2ecc71; fill-opacity: 0.7; stroke: #2ecc71; stroke-opacity: 0.7"/>
     <use xlink:href="#m815cdd1a13" x="282.490718" y="227.159365" style="fill: #2ecc71; fill-opacity: 0.7; stroke: #2ecc71; stroke-opacity: 0.7"/>
     <use xlink:href="#m815cdd1a13" x="289.741286" y="209.154312" style="fill: #2ecc71; fill-opacity: 0.7; stroke: #2ecc71; stroke-opacity: 0.7"/>
     <use xlink:href="#m815cdd1a13" x="281.960188" y="250.73741" style="fill: #2ecc71; fill-opacity: 0.7; stroke: #2ecc71; stroke-opacity: 0.7"/>
     <use xlink:href="#m815cdd1a13" x="263.92219" y="211.297771" style="fill: #2ecc71; fill-opacity: 0.7; stroke: #2ecc71; stroke-opacity: 0.7"/>
     <use xlink:href="#m815cdd1a13" x="173.024823" y="198.437019" style="fill: #2ecc71; fill-opacity: 0.7; stroke: #2ecc71; stroke-opacity: 0.7"/>
     <use xlink:href="#m815cdd1a13" x="174.616411" y="305.609951" style="fill: #2ecc71; fill-opacity: 0.7; stroke: #2ecc71; stroke-opacity: 0.7"/>
     <use xlink:href="#m815cdd1a13" x="158.523686" y="213.441229" style="fill: #2ecc71; fill-opacity: 0.7; stroke: #2ecc71; stroke-opacity: 0.7"/>
     <use xlink:href="#m815cdd1a13" x="94.329631" y="137.991485" style="fill: #2ecc71; fill-opacity: 0.7; stroke: #2ecc71; stroke-opacity: 0.7"/>
     <use xlink:href="#m815cdd1a13" x="118.55714" y="139.706252" style="fill: #2ecc71; fill-opacity: 0.7; stroke: #2ecc71; stroke-opacity: 0.7"/>
     <use xlink:href="#m815cdd1a13" x="121.38663" y="214.298613" style="fill: #2ecc71; fill-opacity: 0.7; stroke: #2ecc71; stroke-opacity: 0.7"/>
     <use xlink:href="#m815cdd1a13" x="107.592866" y="131.989801" style="fill: #2ecc71; fill-opacity: 0.7; stroke: #2ecc71; stroke-opacity: 0.7"/>
     <use xlink:href="#m815cdd1a13" x="111.837101" y="69.8295" style="fill: #2ecc71; fill-opacity: 0.7; stroke: #2ecc71; stroke-opacity: 0.7"/>
     <use xlink:href="#m815cdd1a13" x="140.839374" y="354.9095" style="fill: #2ecc71; fill-opacity: 0.7; stroke: #2ecc71; stroke-opacity: 0.7"/>
     <use xlink:href="#m815cdd1a13" x="148.797314" y="120.415124" style="fill: #2ecc71; fill-opacity: 0.7; stroke: #2ecc71; stroke-opacity: 0.7"/>
     <use xlink:href="#m815cdd1a13" x="138.894099" y="185.147575" style="fill: #2ecc71; fill-opacity: 0.7; stroke: #2ecc71; stroke-opacity: 0.7"/>
     <use xlink:href="#m815cdd1a13" x="143.492021" y="240.020117" style="fill: #2ecc71; fill-opacity: 0.7; stroke: #2ecc71; stroke-opacity: 0.7"/>
     <use xlink:href="#m815cdd1a13" x="158.17" y="120.415124" style="fill: #2ecc71; fill-opacity: 0.7; stroke: #2ecc71; stroke-opacity: 0.7"/>
     <use xlink:href="#m815cdd1a13" x="251.366328" y="209.154312" style="fill: #2ecc71; fill-opacity: 0.7; stroke: #2ecc71; stroke-opacity: 0.7"/>
     <use xlink:href="#m815cdd1a13" x="190.001763" y="253.30956" style="fill: #2ecc71; fill-opacity: 0.7; stroke: #2ecc71; stroke-opacity: 0.7"/>
     <use xlink:href="#m815cdd1a13" x="180.629077" y="207.868237" style="fill: #2ecc71; fill-opacity: 0.7; stroke: #2ecc71; stroke-opacity: 0.7"/>
     <use xlink:href="#m815cdd1a13" x="260.56217" y="265.312929" style="fill: #2ecc71; fill-opacity: 0.7; stroke: #2ecc71; stroke-opacity: 0.7"/>
     <use xlink:href="#m815cdd1a13" x="246.591563" y="327.044538" style="fill: #2ecc71; fill-opacity: 0.7; stroke: #2ecc71; stroke-opacity: 0.7"/>
    </g>
   </g>
   <g id="PathCollection_2">
    <defs>
     <path id="m36a041dfda" d="M -5 5 
L 5 5 
L 5 -5 
L -5 -5 
z
" style="stroke: #e74c3c; stroke-opacity: 0.7"/>
    </defs>
    <g clip-path="url(#pea160839a8)">
     <use xlink:href="#m36a041dfda" x="91.500141" y="334.332297" style="fill: #e74c3c; fill-opacity: 0.7; stroke: #e74c3c; stroke-opacity: 0.7"/>
     <use xlink:href="#m36a041dfda" x="91.500141" y="306.467335" style="fill: #e74c3c; fill-opacity: 0.7; stroke: #e74c3c; stroke-opacity: 0.7"/>
     <use xlink:href="#m36a041dfda" x="64.443143" y="348.050432" style="fill: #e74c3c; fill-opacity: 0.7; stroke: #e74c3c; stroke-opacity: 0.7"/>
     <use xlink:href="#m36a041dfda" x="63.912614" y="347.193049" style="fill: #e74c3c; fill-opacity: 0.7; stroke: #e74c3c; stroke-opacity: 0.7"/>
    </g>
   </g>
   <g id="line2d_17">
    <path d="M 63.912614 208.105437 
L 67.428041 208.732592 
L 70.943468 209.359746 
L 74.458895 209.986901 
L 77.974322 210.614055 
L 81.489749 211.24121 
L 85.005176 211.868364 
L 88.520603 212.495519 
L 92.03603 213.122673 
L 95.551457 213.749828 
L 99.066884 214.376982 
L 102.582311 215.004137 
L 106.097738 215.631291 
L 109.613165 216.258446 
L 113.128592 216.885601 
L 116.644019 217.512755 
L 120.159446 218.13991 
L 123.674873 218.767064 
L 127.1903 219.394219 
L 130.705727 220.021373 
L 134.221154 220.648528 
L 137.736581 221.275682 
L 141.252008 221.902837 
L 144.767435 222.529991 
L 148.282862 223.157146 
L 151.798289 223.7843 
L 155.313716 224.411455 
L 158.829143 225.038609 
L 162.34457 225.665764 
L 165.859997 226.292918 
L 169.375424 226.920073 
L 172.890851 227.547228 
L 176.406278 228.174382 
L 179.921705 228.801537 
L 183.437132 229.428691 
L 186.952559 230.055846 
L 190.467986 230.683 
L 193.983413 231.310155 
L 197.49884 231.937309 
L 201.014267 232.564464 
L 204.529694 233.191618 
L 208.045121 233.818773 
L 211.560548 234.445927 
L 215.075975 235.073082 
L 218.591402 235.700236 
L 222.106829 236.327391 
L 225.622256 236.954545 
L 229.137683 237.5817 
L 232.65311 238.208855 
L 236.168537 238.836009 
L 239.683963 239.463164 
L 243.19939 240.090318 
L 246.714817 240.717473 
L 250.230244 241.344627 
L 253.745671 241.971782 
L 257.261098 242.598936 
L 260.776525 243.226091 
L 264.291952 243.853245 
L 267.807379 244.4804 
L 271.322806 245.107554 
L 274.838233 245.734709 
L 278.35366 246.361863 
L 281.869087 246.989018 
L 285.384514 247.616172 
L 288.899941 248.243327 
L 292.415368 248.870482 
L 295.930795 249.497636 
L 299.446222 250.124791 
L 302.961649 250.751945 
L 306.477076 251.3791 
L 309.992503 252.006254 
L 313.50793 252.633409 
L 317.023357 253.260563 
L 320.538784 253.887718 
L 324.054211 254.514872 
L 327.569638 255.142027 
L 331.085065 255.769181 
L 334.600492 256.396336 
L 338.115919 257.02349 
L 341.631346 257.650645 
L 345.146773 258.277799 
L 348.6622 258.904954 
L 352.177627 259.532109 
L 355.693054 260.159263 
L 359.208481 260.786418 
L 362.723908 261.413572 
L 366.239335 262.040727 
L 369.754762 262.667881 
L 373.270189 263.295036 
L 376.785616 263.92219 
L 380.301043 264.549345 
L 383.81647 265.176499 
L 387.331897 265.803654 
L 390.847324 266.430808 
L 394.362751 267.057963 
L 397.878178 267.685117 
L 401.393605 268.312272 
L 404.909032 268.939426 
L 408.424459 269.566581 
L 411.939886 270.193736 
" clip-path="url(#pea160839a8)" style="fill: none; stroke-dasharray: 7.4,3.2; stroke-dashoffset: 0; stroke: #34495e; stroke-opacity: 0.8; stroke-width: 2"/>
   </g>
   <g id="patch_3">
    <path d="M 46.51125 369.1635 
L 46.51125 55.5755 
" style="fill: none; stroke: #cccccc; stroke-width: 1.5; stroke-linejoin: miter; stroke-linecap: square"/>
   </g>
   <g id="patch_4">
    <path d="M 46.51125 369.1635 
L 429.34125 369.1635 
" style="fill: none; stroke: #cccccc; stroke-width: 1.5; stroke-linejoin: miter; stroke-linecap: square"/>
   </g>
   <g id="text_19">
    <!-- LUMO vs. PCE -->
    <g style="fill: #262626" transform="translate(183.69625 18.6525) scale(0.16 -0.16)">
     <defs>
      <path id="ArialMT-76" d="M 1344 0 
L 81 3319 
L 675 3319 
L 1388 1331 
Q 1503 1009 1600 663 
Q 1675 925 1809 1294 
L 2547 3319 
L 3125 3319 
L 1869 0 
L 1344 0 
z
" transform="scale(0.015625)"/>
      <path id="ArialMT-73" d="M 197 991 
L 753 1078 
Q 800 744 1014 566 
Q 1228 388 1613 388 
Q 2000 388 2187 545 
Q 2375 703 2375 916 
Q 2375 1106 2209 1216 
Q 2094 1291 1634 1406 
Q 1016 1563 777 1677 
Q 538 1791 414 1992 
Q 291 2194 291 2438 
Q 291 2659 392 2848 
Q 494 3038 669 3163 
Q 800 3259 1026 3326 
Q 1253 3394 1513 3394 
Q 1903 3394 2198 3281 
Q 2494 3169 2634 2976 
Q 2775 2784 2828 2463 
L 2278 2388 
Q 2241 2644 2061 2787 
Q 1881 2931 1553 2931 
Q 1166 2931 1000 2803 
Q 834 2675 834 2503 
Q 834 2394 903 2306 
Q 972 2216 1119 2156 
Q 1203 2125 1616 2013 
Q 2213 1853 2448 1751 
Q 2684 1650 2818 1456 
Q 2953 1263 2953 975 
Q 2953 694 2789 445 
Q 2625 197 2315 61 
Q 2006 -75 1616 -75 
Q 969 -75 630 194 
Q 291 463 197 991 
z
" transform="scale(0.015625)"/>
     </defs>
     <use xlink:href="#ArialMT-4c"/>
     <use xlink:href="#ArialMT-55" x="55.615234"/>
     <use xlink:href="#ArialMT-4d" x="127.832031"/>
     <use xlink:href="#ArialMT-4f" x="211.132812"/>
     <use xlink:href="#ArialMT-20" x="288.916016"/>
     <use xlink:href="#ArialMT-76" x="316.699219"/>
     <use xlink:href="#ArialMT-73" x="366.699219"/>
     <use xlink:href="#ArialMT-2e" x="416.699219"/>
     <use xlink:href="#ArialMT-20" x="444.482422"/>
     <use xlink:href="#ArialMT-50" x="472.265625"/>
     <use xlink:href="#ArialMT-43" x="538.964844"/>
     <use xlink:href="#ArialMT-45" x="611.181641"/>
    </g>
    <!-- ENSEMBLE -->
    <g style="fill: #262626" transform="translate(194.355 35.5755) scale(0.16 -0.16)">
     <defs>
      <path id="ArialMT-4e" d="M 488 0 
L 488 4581 
L 1109 4581 
L 3516 984 
L 3516 4581 
L 4097 4581 
L 4097 0 
L 3475 0 
L 1069 3600 
L 1069 0 
L 488 0 
z
" transform="scale(0.015625)"/>
      <path id="ArialMT-53" d="M 288 1472 
L 859 1522 
Q 900 1178 1048 958 
Q 1197 738 1509 602 
Q 1822 466 2213 466 
Q 2559 466 2825 569 
Q 3091 672 3220 851 
Q 3350 1031 3350 1244 
Q 3350 1459 3225 1620 
Q 3100 1781 2813 1891 
Q 2628 1963 1997 2114 
Q 1366 2266 1113 2400 
Q 784 2572 623 2826 
Q 463 3081 463 3397 
Q 463 3744 659 4045 
Q 856 4347 1234 4503 
Q 1613 4659 2075 4659 
Q 2584 4659 2973 4495 
Q 3363 4331 3572 4012 
Q 3781 3694 3797 3291 
L 3216 3247 
Q 3169 3681 2898 3903 
Q 2628 4125 2100 4125 
Q 1550 4125 1298 3923 
Q 1047 3722 1047 3438 
Q 1047 3191 1225 3031 
Q 1400 2872 2139 2705 
Q 2878 2538 3153 2413 
Q 3553 2228 3743 1945 
Q 3934 1663 3934 1294 
Q 3934 928 3725 604 
Q 3516 281 3123 101 
Q 2731 -78 2241 -78 
Q 1619 -78 1198 103 
Q 778 284 539 648 
Q 300 1013 288 1472 
z
" transform="scale(0.015625)"/>
      <path id="ArialMT-42" d="M 469 0 
L 469 4581 
L 2188 4581 
Q 2713 4581 3030 4442 
Q 3347 4303 3526 4014 
Q 3706 3725 3706 3409 
Q 3706 3116 3547 2856 
Q 3388 2597 3066 2438 
Q 3481 2316 3704 2022 
Q 3928 1728 3928 1328 
Q 3928 1006 3792 729 
Q 3656 453 3456 303 
Q 3256 153 2954 76 
Q 2653 0 2216 0 
L 469 0 
z
M 1075 2656 
L 2066 2656 
Q 2469 2656 2644 2709 
Q 2875 2778 2992 2937 
Q 3109 3097 3109 3338 
Q 3109 3566 3000 3739 
Q 2891 3913 2687 3977 
Q 2484 4041 1991 4041 
L 1075 4041 
L 1075 2656 
z
M 1075 541 
L 2216 541 
Q 2509 541 2628 563 
Q 2838 600 2978 687 
Q 3119 775 3209 942 
Q 3300 1109 3300 1328 
Q 3300 1584 3169 1773 
Q 3038 1963 2805 2039 
Q 2572 2116 2134 2116 
L 1075 2116 
L 1075 541 
z
" transform="scale(0.015625)"/>
     </defs>
     <use xlink:href="#ArialMT-45"/>
     <use xlink:href="#ArialMT-4e" x="66.699219"/>
     <use xlink:href="#ArialMT-53" x="138.916016"/>
     <use xlink:href="#ArialMT-45" x="205.615234"/>
     <use xlink:href="#ArialMT-4d" x="272.314453"/>
     <use xlink:href="#ArialMT-42" x="355.615234"/>
     <use xlink:href="#ArialMT-4c" x="422.314453"/>
     <use xlink:href="#ArialMT-45" x="477.929688"/>
    </g>
   </g>
   <g id="legend_1">
    <g id="patch_5">
     <path d="M 456.88275 116.379875 
L 551.647125 116.379875 
Q 554.047125 116.379875 554.047125 113.979875 
L 554.047125 63.9755 
Q 554.047125 61.5755 551.647125 61.5755 
L 456.88275 61.5755 
Q 454.48275 61.5755 454.48275 63.9755 
L 454.48275 113.979875 
Q 454.48275 116.379875 456.88275 116.379875 
z
" style="fill: #ffffff; opacity: 0.8; stroke: #cccccc; stroke-linejoin: miter"/>
    </g>
    <g id="PathCollection_3">
     <g>
      <use xlink:href="#m815cdd1a13" x="471.28275" y="71.814875" style="fill: #2ecc71; fill-opacity: 0.7; stroke: #2ecc71; stroke-opacity: 0.7"/>
     </g>
    </g>
    <g id="text_20">
     <!-- Training -->
     <g style="fill: #262626" transform="translate(492.88275 74.964875) scale(0.12 -0.12)">
      <defs>
       <path id="ArialMT-54" d="M 1659 0 
L 1659 4041 
L 150 4041 
L 150 4581 
L 3781 4581 
L 3781 4041 
L 2266 4041 
L 2266 0 
L 1659 0 
z
" transform="scale(0.015625)"/>
       <path id="ArialMT-72" d="M 416 0 
L 416 3319 
L 922 3319 
L 922 2816 
Q 1116 3169 1280 3281 
Q 1444 3394 1641 3394 
Q 1925 3394 2219 3213 
L 2025 2691 
Q 1819 2813 1613 2813 
Q 1428 2813 1281 2702 
Q 1134 2591 1072 2394 
Q 978 2094 978 1738 
L 978 0 
L 416 0 
z
" transform="scale(0.015625)"/>
       <path id="ArialMT-61" d="M 2588 409 
Q 2275 144 1986 34 
Q 1697 -75 1366 -75 
Q 819 -75 525 192 
Q 231 459 231 875 
Q 231 1119 342 1320 
Q 453 1522 633 1644 
Q 813 1766 1038 1828 
Q 1203 1872 1538 1913 
Q 2219 1994 2541 2106 
Q 2544 2222 2544 2253 
Q 2544 2597 2384 2738 
Q 2169 2928 1744 2928 
Q 1347 2928 1158 2789 
Q 969 2650 878 2297 
L 328 2372 
Q 403 2725 575 2942 
Q 747 3159 1072 3276 
Q 1397 3394 1825 3394 
Q 2250 3394 2515 3294 
Q 2781 3194 2906 3042 
Q 3031 2891 3081 2659 
Q 3109 2516 3109 2141 
L 3109 1391 
Q 3109 606 3145 398 
Q 3181 191 3288 0 
L 2700 0 
Q 2613 175 2588 409 
z
M 2541 1666 
Q 2234 1541 1622 1453 
Q 1275 1403 1131 1340 
Q 988 1278 909 1158 
Q 831 1038 831 891 
Q 831 666 1001 516 
Q 1172 366 1500 366 
Q 1825 366 2078 508 
Q 2331 650 2450 897 
Q 2541 1088 2541 1459 
L 2541 1666 
z
" transform="scale(0.015625)"/>
       <path id="ArialMT-69" d="M 425 3934 
L 425 4581 
L 988 4581 
L 988 3934 
L 425 3934 
z
M 425 0 
L 425 3319 
L 988 3319 
L 988 0 
L 425 0 
z
" transform="scale(0.015625)"/>
       <path id="ArialMT-6e" d="M 422 0 
L 422 3319 
L 928 3319 
L 928 2847 
Q 1294 3394 1984 3394 
Q 2284 3394 2536 3286 
Q 2788 3178 2913 3003 
Q 3038 2828 3088 2588 
Q 3119 2431 3119 2041 
L 3119 0 
L 2556 0 
L 2556 2019 
Q 2556 2363 2490 2533 
Q 2425 2703 2258 2804 
Q 2091 2906 1866 2906 
Q 1506 2906 1245 2678 
Q 984 2450 984 1813 
L 984 0 
L 422 0 
z
" transform="scale(0.015625)"/>
       <path id="ArialMT-67" d="M 319 -275 
L 866 -356 
Q 900 -609 1056 -725 
Q 1266 -881 1628 -881 
Q 2019 -881 2231 -725 
Q 2444 -569 2519 -288 
Q 2563 -116 2559 434 
Q 2191 0 1641 0 
Q 956 0 581 494 
Q 206 988 206 1678 
Q 206 2153 378 2554 
Q 550 2956 876 3175 
Q 1203 3394 1644 3394 
Q 2231 3394 2613 2919 
L 2613 3319 
L 3131 3319 
L 3131 450 
Q 3131 -325 2973 -648 
Q 2816 -972 2473 -1159 
Q 2131 -1347 1631 -1347 
Q 1038 -1347 672 -1080 
Q 306 -813 319 -275 
z
M 784 1719 
Q 784 1066 1043 766 
Q 1303 466 1694 466 
Q 2081 466 2343 764 
Q 2606 1063 2606 1700 
Q 2606 2309 2336 2618 
Q 2066 2928 1684 2928 
Q 1309 2928 1046 2623 
Q 784 2319 784 1719 
z
" transform="scale(0.015625)"/>
      </defs>
      <use xlink:href="#ArialMT-54"/>
      <use xlink:href="#ArialMT-72" x="57.333984"/>
      <use xlink:href="#ArialMT-61" x="90.634766"/>
      <use xlink:href="#ArialMT-69" x="146.25"/>
      <use xlink:href="#ArialMT-6e" x="168.466797"/>
      <use xlink:href="#ArialMT-69" x="224.082031"/>
      <use xlink:href="#ArialMT-6e" x="246.298828"/>
      <use xlink:href="#ArialMT-67" x="301.914062"/>
     </g>
    </g>
    <g id="PathCollection_4">
     <g>
      <use xlink:href="#m36a041dfda" x="471.28275" y="88.929875" style="fill: #e74c3c; fill-opacity: 0.7; stroke: #e74c3c; stroke-opacity: 0.7"/>
     </g>
    </g>
    <g id="text_21">
     <!-- Testing -->
     <g style="fill: #262626" transform="translate(492.88275 92.079875) scale(0.12 -0.12)">
      <defs>
       <path id="ArialMT-65" d="M 2694 1069 
L 3275 997 
Q 3138 488 2766 206 
Q 2394 -75 1816 -75 
Q 1088 -75 661 373 
Q 234 822 234 1631 
Q 234 2469 665 2931 
Q 1097 3394 1784 3394 
Q 2450 3394 2872 2941 
Q 3294 2488 3294 1666 
Q 3294 1616 3291 1516 
L 816 1516 
Q 847 969 1125 678 
Q 1403 388 1819 388 
Q 2128 388 2347 550 
Q 2566 713 2694 1069 
z
M 847 1978 
L 2700 1978 
Q 2663 2397 2488 2606 
Q 2219 2931 1791 2931 
Q 1403 2931 1139 2672 
Q 875 2413 847 1978 
z
" transform="scale(0.015625)"/>
       <path id="ArialMT-74" d="M 1650 503 
L 1731 6 
Q 1494 -44 1306 -44 
Q 1000 -44 831 53 
Q 663 150 594 308 
Q 525 466 525 972 
L 525 2881 
L 113 2881 
L 113 3319 
L 525 3319 
L 525 4141 
L 1084 4478 
L 1084 3319 
L 1650 3319 
L 1650 2881 
L 1084 2881 
L 1084 941 
Q 1084 700 1114 631 
Q 1144 563 1211 522 
Q 1278 481 1403 481 
Q 1497 481 1650 503 
z
" transform="scale(0.015625)"/>
      </defs>
      <use xlink:href="#ArialMT-54"/>
      <use xlink:href="#ArialMT-65" x="49.958984"/>
      <use xlink:href="#ArialMT-73" x="105.574219"/>
      <use xlink:href="#ArialMT-74" x="155.574219"/>
      <use xlink:href="#ArialMT-69" x="183.357422"/>
      <use xlink:href="#ArialMT-6e" x="205.574219"/>
      <use xlink:href="#ArialMT-67" x="261.189453"/>
     </g>
    </g>
    <g id="line2d_18">
     <path d="M 459.28275 104.994875 
L 471.28275 104.994875 
L 483.28275 104.994875 
" style="fill: none; stroke-dasharray: 7.4,3.2; stroke-dashoffset: 0; stroke: #34495e; stroke-opacity: 0.8; stroke-width: 2"/>
    </g>
    <g id="text_22">
     <!-- R² = 0.045 -->
     <g style="fill: #262626" transform="translate(492.88275 109.194875) scale(0.12 -0.12)">
      <defs>
       <path id="ArialMT-52" d="M 503 0 
L 503 4581 
L 2534 4581 
Q 3147 4581 3465 4457 
Q 3784 4334 3975 4021 
Q 4166 3709 4166 3331 
Q 4166 2844 3850 2509 
Q 3534 2175 2875 2084 
Q 3116 1969 3241 1856 
Q 3506 1613 3744 1247 
L 4541 0 
L 3778 0 
L 3172 953 
Q 2906 1366 2734 1584 
Q 2563 1803 2427 1890 
Q 2291 1978 2150 2013 
Q 2047 2034 1813 2034 
L 1109 2034 
L 1109 0 
L 503 0 
z
M 1109 2559 
L 2413 2559 
Q 2828 2559 3062 2645 
Q 3297 2731 3419 2920 
Q 3541 3109 3541 3331 
Q 3541 3656 3305 3865 
Q 3069 4075 2559 4075 
L 1109 4075 
L 1109 2559 
z
" transform="scale(0.015625)"/>
       <path id="ArialMT-b2" d="M 78 2291 
Q 97 2469 225 2647 
Q 422 2916 872 3242 
Q 1322 3569 1406 3663 
Q 1522 3791 1522 3925 
Q 1522 4075 1412 4172 
Q 1303 4269 1091 4269 
Q 884 4269 782 4195 
Q 681 4122 616 3913 
L 144 3963 
Q 234 4309 457 4473 
Q 681 4638 1100 4638 
Q 1572 4638 1792 4453 
Q 2013 4269 2013 4003 
Q 2013 3741 1828 3506 
Q 1688 3331 1188 2972 
Q 928 2781 819 2669 
L 2025 2669 
L 2025 2291 
L 78 2291 
z
" transform="scale(0.015625)"/>
       <path id="ArialMT-3d" d="M 3381 2694 
L 356 2694 
L 356 3219 
L 3381 3219 
L 3381 2694 
z
M 3381 1303 
L 356 1303 
L 356 1828 
L 3381 1828 
L 3381 1303 
z
" transform="scale(0.015625)"/>
      </defs>
      <use xlink:href="#ArialMT-52"/>
      <use xlink:href="#ArialMT-b2" x="72.216797"/>
      <use xlink:href="#ArialMT-20" x="105.517578"/>
      <use xlink:href="#ArialMT-3d" x="133.300781"/>
      <use xlink:href="#ArialMT-20" x="191.699219"/>
      <use xlink:href="#ArialMT-30" x="219.482422"/>
      <use xlink:href="#ArialMT-2e" x="275.097656"/>
      <use xlink:href="#ArialMT-30" x="302.880859"/>
      <use xlink:href="#ArialMT-34" x="358.496094"/>
      <use xlink:href="#ArialMT-35" x="414.111328"/>
     </g>
    </g>
   </g>
  </g>
 </g>
 <defs>
  <clipPath id="pea160839a8">
   <rect x="46.51125" y="55.5755" width="382.83" height="313.588"/>
  </clipPath>
 </defs>
</svg>
