<?xml version="1.0" encoding="utf-8" standalone="no"?>
<!DOCTYPE svg PUBLIC "-//W3C//DTD SVG 1.1//EN"
  "http://www.w3.org/Graphics/SVG/1.1/DTD/svg11.dtd">
<svg xmlns:xlink="http://www.w3.org/1999/xlink" width="708.48pt" height="420.48pt" viewBox="0 0 708.48 420.48" xmlns="http://www.w3.org/2000/svg" version="1.1">
 <metadata>
  <rdf:RDF xmlns:dc="http://purl.org/dc/elements/1.1/" xmlns:cc="http://creativecommons.org/ns#" xmlns:rdf="http://www.w3.org/1999/02/22-rdf-syntax-ns#">
   <cc:Work>
    <dc:type rdf:resource="http://purl.org/dc/dcmitype/StillImage"/>
    <dc:date>2025-01-07T20:01:18.396880</dc:date>
    <dc:format>image/svg+xml</dc:format>
    <dc:creator>
     <cc:Agent>
      <dc:title>Matplotlib v3.9.3, https://matplotlib.org/</dc:title>
     </cc:Agent>
    </dc:creator>
   </cc:Work>
  </rdf:RDF>
 </metadata>
 <defs>
  <style type="text/css">*{stroke-linejoin: round; stroke-linecap: butt}</style>
 </defs>
 <g id="figure_1">
  <g id="patch_1">
   <path d="M 0 420.48 
L 708.48 420.48 
L 708.48 -0 
L 0 -0 
z
" style="fill: #ffffff"/>
  </g>
  <g id="axes_1">
   <g id="patch_2">
    <path d="M 60.520625 372.1675 
L 701.28 372.1675 
L 701.28 24.6525 
L 60.520625 24.6525 
z
" style="fill: #ffffff"/>
   </g>
   <g id="matplotlib.axis_1">
    <g id="xtick_1">
     <g id="line2d_1">
      <path d="M 103.426334 372.1675 
L 103.426334 24.6525 
" clip-path="url(#p138feb14c2)" style="fill: none; stroke: #cccccc; stroke-opacity: 0.3; stroke-width: 0.5; stroke-linecap: round"/>
     </g>
     <g id="text_1">
      <!-- −2 -->
      <g style="fill: #262626" transform="translate(96.585397 387.756875) scale(0.12 -0.12)">
       <defs>
        <path id="ArialMT-2212" d="M 3381 1997 
L 356 1997 
L 356 2522 
L 3381 2522 
L 3381 1997 
z
" transform="scale(0.015625)"/>
        <path id="ArialMT-32" d="M 3222 541 
L 3222 0 
L 194 0 
Q 188 203 259 391 
Q 375 700 629 1000 
Q 884 1300 1366 1694 
Q 2113 2306 2375 2664 
Q 2638 3022 2638 3341 
Q 2638 3675 2398 3904 
Q 2159 4134 1775 4134 
Q 1369 4134 1125 3890 
Q 881 3647 878 3216 
L 300 3275 
Q 359 3922 746 4261 
Q 1134 4600 1788 4600 
Q 2447 4600 2831 4234 
Q 3216 3869 3216 3328 
Q 3216 3053 3103 2787 
Q 2991 2522 2730 2228 
Q 2469 1934 1863 1422 
Q 1356 997 1212 845 
Q 1069 694 975 541 
L 3222 541 
z
" transform="scale(0.015625)"/>
       </defs>
       <use xlink:href="#ArialMT-2212"/>
       <use xlink:href="#ArialMT-32" x="58.398438"/>
      </g>
     </g>
    </g>
    <g id="xtick_2">
     <g id="line2d_2">
      <path d="M 237.816626 372.1675 
L 237.816626 24.6525 
" clip-path="url(#p138feb14c2)" style="fill: none; stroke: #cccccc; stroke-opacity: 0.3; stroke-width: 0.5; stroke-linecap: round"/>
     </g>
     <g id="text_2">
      <!-- 0 -->
      <g style="fill: #262626" transform="translate(234.480064 387.756875) scale(0.12 -0.12)">
       <defs>
        <path id="ArialMT-30" d="M 266 2259 
Q 266 3072 433 3567 
Q 600 4063 929 4331 
Q 1259 4600 1759 4600 
Q 2128 4600 2406 4451 
Q 2684 4303 2865 4023 
Q 3047 3744 3150 3342 
Q 3253 2941 3253 2259 
Q 3253 1453 3087 958 
Q 2922 463 2592 192 
Q 2263 -78 1759 -78 
Q 1097 -78 719 397 
Q 266 969 266 2259 
z
M 844 2259 
Q 844 1131 1108 757 
Q 1372 384 1759 384 
Q 2147 384 2411 759 
Q 2675 1134 2675 2259 
Q 2675 3391 2411 3762 
Q 2147 4134 1753 4134 
Q 1366 4134 1134 3806 
Q 844 3388 844 2259 
z
" transform="scale(0.015625)"/>
       </defs>
       <use xlink:href="#ArialMT-30"/>
      </g>
     </g>
    </g>
    <g id="xtick_3">
     <g id="line2d_3">
      <path d="M 372.206918 372.1675 
L 372.206918 24.6525 
" clip-path="url(#p138feb14c2)" style="fill: none; stroke: #cccccc; stroke-opacity: 0.3; stroke-width: 0.5; stroke-linecap: round"/>
     </g>
     <g id="text_3">
      <!-- 2 -->
      <g style="fill: #262626" transform="translate(368.870356 387.756875) scale(0.12 -0.12)">
       <use xlink:href="#ArialMT-32"/>
      </g>
     </g>
    </g>
    <g id="xtick_4">
     <g id="line2d_4">
      <path d="M 506.59721 372.1675 
L 506.59721 24.6525 
" clip-path="url(#p138feb14c2)" style="fill: none; stroke: #cccccc; stroke-opacity: 0.3; stroke-width: 0.5; stroke-linecap: round"/>
     </g>
     <g id="text_4">
      <!-- 4 -->
      <g style="fill: #262626" transform="translate(503.260647 387.756875) scale(0.12 -0.12)">
       <defs>
        <path id="ArialMT-34" d="M 2069 0 
L 2069 1097 
L 81 1097 
L 81 1613 
L 2172 4581 
L 2631 4581 
L 2631 1613 
L 3250 1613 
L 3250 1097 
L 2631 1097 
L 2631 0 
L 2069 0 
z
M 2069 1613 
L 2069 3678 
L 634 1613 
L 2069 1613 
z
" transform="scale(0.015625)"/>
       </defs>
       <use xlink:href="#ArialMT-34"/>
      </g>
     </g>
    </g>
    <g id="xtick_5">
     <g id="line2d_5">
      <path d="M 640.987502 372.1675 
L 640.987502 24.6525 
" clip-path="url(#p138feb14c2)" style="fill: none; stroke: #cccccc; stroke-opacity: 0.3; stroke-width: 0.5; stroke-linecap: round"/>
     </g>
     <g id="text_5">
      <!-- 6 -->
      <g style="fill: #262626" transform="translate(637.650939 387.756875) scale(0.12 -0.12)">
       <defs>
        <path id="ArialMT-36" d="M 3184 3459 
L 2625 3416 
Q 2550 3747 2413 3897 
Q 2184 4138 1850 4138 
Q 1581 4138 1378 3988 
Q 1113 3794 959 3422 
Q 806 3050 800 2363 
Q 1003 2672 1297 2822 
Q 1591 2972 1913 2972 
Q 2475 2972 2870 2558 
Q 3266 2144 3266 1488 
Q 3266 1056 3080 686 
Q 2894 316 2569 119 
Q 2244 -78 1831 -78 
Q 1128 -78 684 439 
Q 241 956 241 2144 
Q 241 3472 731 4075 
Q 1159 4600 1884 4600 
Q 2425 4600 2770 4297 
Q 3116 3994 3184 3459 
z
M 888 1484 
Q 888 1194 1011 928 
Q 1134 663 1356 523 
Q 1578 384 1822 384 
Q 2178 384 2434 671 
Q 2691 959 2691 1453 
Q 2691 1928 2437 2201 
Q 2184 2475 1800 2475 
Q 1419 2475 1153 2201 
Q 888 1928 888 1484 
z
" transform="scale(0.015625)"/>
       </defs>
       <use xlink:href="#ArialMT-36"/>
      </g>
     </g>
    </g>
    <g id="text_6">
     <!-- Error (%) -->
     <g style="fill: #262626" transform="translate(352.515312 410.333438) scale(0.14 -0.14)">
      <defs>
       <path id="ArialMT-45" d="M 506 0 
L 506 4581 
L 3819 4581 
L 3819 4041 
L 1113 4041 
L 1113 2638 
L 3647 2638 
L 3647 2100 
L 1113 2100 
L 1113 541 
L 3925 541 
L 3925 0 
L 506 0 
z
" transform="scale(0.015625)"/>
       <path id="ArialMT-72" d="M 416 0 
L 416 3319 
L 922 3319 
L 922 2816 
Q 1116 3169 1280 3281 
Q 1444 3394 1641 3394 
Q 1925 3394 2219 3213 
L 2025 2691 
Q 1819 2813 1613 2813 
Q 1428 2813 1281 2702 
Q 1134 2591 1072 2394 
Q 978 2094 978 1738 
L 978 0 
L 416 0 
z
" transform="scale(0.015625)"/>
       <path id="ArialMT-6f" d="M 213 1659 
Q 213 2581 725 3025 
Q 1153 3394 1769 3394 
Q 2453 3394 2887 2945 
Q 3322 2497 3322 1706 
Q 3322 1066 3130 698 
Q 2938 331 2570 128 
Q 2203 -75 1769 -75 
Q 1072 -75 642 372 
Q 213 819 213 1659 
z
M 791 1659 
Q 791 1022 1069 705 
Q 1347 388 1769 388 
Q 2188 388 2466 706 
Q 2744 1025 2744 1678 
Q 2744 2294 2464 2611 
Q 2184 2928 1769 2928 
Q 1347 2928 1069 2612 
Q 791 2297 791 1659 
z
" transform="scale(0.015625)"/>
       <path id="ArialMT-20" transform="scale(0.015625)"/>
       <path id="ArialMT-28" d="M 1497 -1347 
Q 1031 -759 709 28 
Q 388 816 388 1659 
Q 388 2403 628 3084 
Q 909 3875 1497 4659 
L 1900 4659 
Q 1522 4009 1400 3731 
Q 1209 3300 1100 2831 
Q 966 2247 966 1656 
Q 966 153 1900 -1347 
L 1497 -1347 
z
" transform="scale(0.015625)"/>
       <path id="ArialMT-25" d="M 372 3481 
Q 372 3972 619 4315 
Q 866 4659 1334 4659 
Q 1766 4659 2048 4351 
Q 2331 4044 2331 3447 
Q 2331 2866 2045 2552 
Q 1759 2238 1341 2238 
Q 925 2238 648 2547 
Q 372 2856 372 3481 
z
M 1350 4272 
Q 1141 4272 1002 4090 
Q 863 3909 863 3425 
Q 863 2984 1003 2804 
Q 1144 2625 1350 2625 
Q 1563 2625 1702 2806 
Q 1841 2988 1841 3469 
Q 1841 3913 1700 4092 
Q 1559 4272 1350 4272 
z
M 1353 -169 
L 3859 4659 
L 4316 4659 
L 1819 -169 
L 1353 -169 
z
M 3334 1075 
Q 3334 1569 3581 1911 
Q 3828 2253 4300 2253 
Q 4731 2253 5014 1945 
Q 5297 1638 5297 1041 
Q 5297 459 5011 145 
Q 4725 -169 4303 -169 
Q 3888 -169 3611 142 
Q 3334 453 3334 1075 
z
M 4316 1866 
Q 4103 1866 3964 1684 
Q 3825 1503 3825 1019 
Q 3825 581 3965 400 
Q 4106 219 4313 219 
Q 4528 219 4667 400 
Q 4806 581 4806 1063 
Q 4806 1506 4665 1686 
Q 4525 1866 4316 1866 
z
" transform="scale(0.015625)"/>
       <path id="ArialMT-29" d="M 791 -1347 
L 388 -1347 
Q 1322 153 1322 1656 
Q 1322 2244 1188 2822 
Q 1081 3291 891 3722 
Q 769 4003 388 4659 
L 791 4659 
Q 1378 3875 1659 3084 
Q 1900 2403 1900 1659 
Q 1900 816 1576 28 
Q 1253 -759 791 -1347 
z
" transform="scale(0.015625)"/>
      </defs>
      <use xlink:href="#ArialMT-45"/>
      <use xlink:href="#ArialMT-72" x="66.699219"/>
      <use xlink:href="#ArialMT-72" x="100"/>
      <use xlink:href="#ArialMT-6f" x="133.300781"/>
      <use xlink:href="#ArialMT-72" x="188.916016"/>
      <use xlink:href="#ArialMT-20" x="222.216797"/>
      <use xlink:href="#ArialMT-28" x="250"/>
      <use xlink:href="#ArialMT-25" x="283.300781"/>
      <use xlink:href="#ArialMT-29" x="372.216797"/>
     </g>
    </g>
   </g>
   <g id="matplotlib.axis_2">
    <g id="ytick_1">
     <g id="line2d_6">
      <path d="M 60.520625 372.1675 
L 701.28 372.1675 
" clip-path="url(#p138feb14c2)" style="fill: none; stroke: #cccccc; stroke-opacity: 0.3; stroke-width: 0.5; stroke-linecap: round"/>
     </g>
     <g id="text_7">
      <!-- 0.00 -->
      <g style="fill: #262626" transform="translate(30.1675 376.462188) scale(0.12 -0.12)">
       <defs>
        <path id="ArialMT-2e" d="M 581 0 
L 581 641 
L 1222 641 
L 1222 0 
L 581 0 
z
" transform="scale(0.015625)"/>
       </defs>
       <use xlink:href="#ArialMT-30"/>
       <use xlink:href="#ArialMT-2e" x="55.615234"/>
       <use xlink:href="#ArialMT-30" x="83.398438"/>
       <use xlink:href="#ArialMT-30" x="139.013672"/>
      </g>
     </g>
    </g>
    <g id="ytick_2">
     <g id="line2d_7">
      <path d="M 60.520625 316.896694 
L 701.28 316.896694 
" clip-path="url(#p138feb14c2)" style="fill: none; stroke: #cccccc; stroke-opacity: 0.3; stroke-width: 0.5; stroke-linecap: round"/>
     </g>
     <g id="text_8">
      <!-- 0.05 -->
      <g style="fill: #262626" transform="translate(30.1675 321.191381) scale(0.12 -0.12)">
       <defs>
        <path id="ArialMT-35" d="M 266 1200 
L 856 1250 
Q 922 819 1161 601 
Q 1400 384 1738 384 
Q 2144 384 2425 690 
Q 2706 997 2706 1503 
Q 2706 1984 2436 2262 
Q 2166 2541 1728 2541 
Q 1456 2541 1237 2417 
Q 1019 2294 894 2097 
L 366 2166 
L 809 4519 
L 3088 4519 
L 3088 3981 
L 1259 3981 
L 1013 2750 
Q 1425 3038 1878 3038 
Q 2478 3038 2890 2622 
Q 3303 2206 3303 1553 
Q 3303 931 2941 478 
Q 2500 -78 1738 -78 
Q 1113 -78 717 272 
Q 322 622 266 1200 
z
" transform="scale(0.015625)"/>
       </defs>
       <use xlink:href="#ArialMT-30"/>
       <use xlink:href="#ArialMT-2e" x="55.615234"/>
       <use xlink:href="#ArialMT-30" x="83.398438"/>
       <use xlink:href="#ArialMT-35" x="139.013672"/>
      </g>
     </g>
    </g>
    <g id="ytick_3">
     <g id="line2d_8">
      <path d="M 60.520625 261.625887 
L 701.28 261.625887 
" clip-path="url(#p138feb14c2)" style="fill: none; stroke: #cccccc; stroke-opacity: 0.3; stroke-width: 0.5; stroke-linecap: round"/>
     </g>
     <g id="text_9">
      <!-- 0.10 -->
      <g style="fill: #262626" transform="translate(30.1675 265.920575) scale(0.12 -0.12)">
       <defs>
        <path id="ArialMT-31" d="M 2384 0 
L 1822 0 
L 1822 3584 
Q 1619 3391 1289 3197 
Q 959 3003 697 2906 
L 697 3450 
Q 1169 3672 1522 3987 
Q 1875 4303 2022 4600 
L 2384 4600 
L 2384 0 
z
" transform="scale(0.015625)"/>
       </defs>
       <use xlink:href="#ArialMT-30"/>
       <use xlink:href="#ArialMT-2e" x="55.615234"/>
       <use xlink:href="#ArialMT-31" x="83.398438"/>
       <use xlink:href="#ArialMT-30" x="139.013672"/>
      </g>
     </g>
    </g>
    <g id="ytick_4">
     <g id="line2d_9">
      <path d="M 60.520625 206.355081 
L 701.28 206.355081 
" clip-path="url(#p138feb14c2)" style="fill: none; stroke: #cccccc; stroke-opacity: 0.3; stroke-width: 0.5; stroke-linecap: round"/>
     </g>
     <g id="text_10">
      <!-- 0.15 -->
      <g style="fill: #262626" transform="translate(30.1675 210.649768) scale(0.12 -0.12)">
       <use xlink:href="#ArialMT-30"/>
       <use xlink:href="#ArialMT-2e" x="55.615234"/>
       <use xlink:href="#ArialMT-31" x="83.398438"/>
       <use xlink:href="#ArialMT-35" x="139.013672"/>
      </g>
     </g>
    </g>
    <g id="ytick_5">
     <g id="line2d_10">
      <path d="M 60.520625 151.084274 
L 701.28 151.084274 
" clip-path="url(#p138feb14c2)" style="fill: none; stroke: #cccccc; stroke-opacity: 0.3; stroke-width: 0.5; stroke-linecap: round"/>
     </g>
     <g id="text_11">
      <!-- 0.20 -->
      <g style="fill: #262626" transform="translate(30.1675 155.378962) scale(0.12 -0.12)">
       <use xlink:href="#ArialMT-30"/>
       <use xlink:href="#ArialMT-2e" x="55.615234"/>
       <use xlink:href="#ArialMT-32" x="83.398438"/>
       <use xlink:href="#ArialMT-30" x="139.013672"/>
      </g>
     </g>
    </g>
    <g id="ytick_6">
     <g id="line2d_11">
      <path d="M 60.520625 95.813468 
L 701.28 95.813468 
" clip-path="url(#p138feb14c2)" style="fill: none; stroke: #cccccc; stroke-opacity: 0.3; stroke-width: 0.5; stroke-linecap: round"/>
     </g>
     <g id="text_12">
      <!-- 0.25 -->
      <g style="fill: #262626" transform="translate(30.1675 100.108155) scale(0.12 -0.12)">
       <use xlink:href="#ArialMT-30"/>
       <use xlink:href="#ArialMT-2e" x="55.615234"/>
       <use xlink:href="#ArialMT-32" x="83.398438"/>
       <use xlink:href="#ArialMT-35" x="139.013672"/>
      </g>
     </g>
    </g>
    <g id="ytick_7">
     <g id="line2d_12">
      <path d="M 60.520625 40.542661 
L 701.28 40.542661 
" clip-path="url(#p138feb14c2)" style="fill: none; stroke: #cccccc; stroke-opacity: 0.3; stroke-width: 0.5; stroke-linecap: round"/>
     </g>
     <g id="text_13">
      <!-- 0.30 -->
      <g style="fill: #262626" transform="translate(30.1675 44.837349) scale(0.12 -0.12)">
       <defs>
        <path id="ArialMT-33" d="M 269 1209 
L 831 1284 
Q 928 806 1161 595 
Q 1394 384 1728 384 
Q 2125 384 2398 659 
Q 2672 934 2672 1341 
Q 2672 1728 2419 1979 
Q 2166 2231 1775 2231 
Q 1616 2231 1378 2169 
L 1441 2663 
Q 1497 2656 1531 2656 
Q 1891 2656 2178 2843 
Q 2466 3031 2466 3422 
Q 2466 3731 2256 3934 
Q 2047 4138 1716 4138 
Q 1388 4138 1169 3931 
Q 950 3725 888 3313 
L 325 3413 
Q 428 3978 793 4289 
Q 1159 4600 1703 4600 
Q 2078 4600 2393 4439 
Q 2709 4278 2876 4000 
Q 3044 3722 3044 3409 
Q 3044 3113 2884 2869 
Q 2725 2625 2413 2481 
Q 2819 2388 3044 2092 
Q 3269 1797 3269 1353 
Q 3269 753 2831 336 
Q 2394 -81 1725 -81 
Q 1122 -81 723 278 
Q 325 638 269 1209 
z
" transform="scale(0.015625)"/>
       </defs>
       <use xlink:href="#ArialMT-30"/>
       <use xlink:href="#ArialMT-2e" x="55.615234"/>
       <use xlink:href="#ArialMT-33" x="83.398438"/>
       <use xlink:href="#ArialMT-30" x="139.013672"/>
      </g>
     </g>
    </g>
    <g id="text_14">
     <!-- Density -->
     <g style="fill: #262626" transform="translate(17.220938 221.750625) rotate(-90) scale(0.14 -0.14)">
      <defs>
       <path id="ArialMT-44" d="M 494 0 
L 494 4581 
L 2072 4581 
Q 2606 4581 2888 4516 
Q 3281 4425 3559 4188 
Q 3922 3881 4101 3404 
Q 4281 2928 4281 2316 
Q 4281 1794 4159 1391 
Q 4038 988 3847 723 
Q 3656 459 3429 307 
Q 3203 156 2883 78 
Q 2563 0 2147 0 
L 494 0 
z
M 1100 541 
L 2078 541 
Q 2531 541 2789 625 
Q 3047 709 3200 863 
Q 3416 1078 3536 1442 
Q 3656 1806 3656 2325 
Q 3656 3044 3420 3430 
Q 3184 3816 2847 3947 
Q 2603 4041 2063 4041 
L 1100 4041 
L 1100 541 
z
" transform="scale(0.015625)"/>
       <path id="ArialMT-65" d="M 2694 1069 
L 3275 997 
Q 3138 488 2766 206 
Q 2394 -75 1816 -75 
Q 1088 -75 661 373 
Q 234 822 234 1631 
Q 234 2469 665 2931 
Q 1097 3394 1784 3394 
Q 2450 3394 2872 2941 
Q 3294 2488 3294 1666 
Q 3294 1616 3291 1516 
L 816 1516 
Q 847 969 1125 678 
Q 1403 388 1819 388 
Q 2128 388 2347 550 
Q 2566 713 2694 1069 
z
M 847 1978 
L 2700 1978 
Q 2663 2397 2488 2606 
Q 2219 2931 1791 2931 
Q 1403 2931 1139 2672 
Q 875 2413 847 1978 
z
" transform="scale(0.015625)"/>
       <path id="ArialMT-6e" d="M 422 0 
L 422 3319 
L 928 3319 
L 928 2847 
Q 1294 3394 1984 3394 
Q 2284 3394 2536 3286 
Q 2788 3178 2913 3003 
Q 3038 2828 3088 2588 
Q 3119 2431 3119 2041 
L 3119 0 
L 2556 0 
L 2556 2019 
Q 2556 2363 2490 2533 
Q 2425 2703 2258 2804 
Q 2091 2906 1866 2906 
Q 1506 2906 1245 2678 
Q 984 2450 984 1813 
L 984 0 
L 422 0 
z
" transform="scale(0.015625)"/>
       <path id="ArialMT-73" d="M 197 991 
L 753 1078 
Q 800 744 1014 566 
Q 1228 388 1613 388 
Q 2000 388 2187 545 
Q 2375 703 2375 916 
Q 2375 1106 2209 1216 
Q 2094 1291 1634 1406 
Q 1016 1563 777 1677 
Q 538 1791 414 1992 
Q 291 2194 291 2438 
Q 291 2659 392 2848 
Q 494 3038 669 3163 
Q 800 3259 1026 3326 
Q 1253 3394 1513 3394 
Q 1903 3394 2198 3281 
Q 2494 3169 2634 2976 
Q 2775 2784 2828 2463 
L 2278 2388 
Q 2241 2644 2061 2787 
Q 1881 2931 1553 2931 
Q 1166 2931 1000 2803 
Q 834 2675 834 2503 
Q 834 2394 903 2306 
Q 972 2216 1119 2156 
Q 1203 2125 1616 2013 
Q 2213 1853 2448 1751 
Q 2684 1650 2818 1456 
Q 2953 1263 2953 975 
Q 2953 694 2789 445 
Q 2625 197 2315 61 
Q 2006 -75 1616 -75 
Q 969 -75 630 194 
Q 291 463 197 991 
z
" transform="scale(0.015625)"/>
       <path id="ArialMT-69" d="M 425 3934 
L 425 4581 
L 988 4581 
L 988 3934 
L 425 3934 
z
M 425 0 
L 425 3319 
L 988 3319 
L 988 0 
L 425 0 
z
" transform="scale(0.015625)"/>
       <path id="ArialMT-74" d="M 1650 503 
L 1731 6 
Q 1494 -44 1306 -44 
Q 1000 -44 831 53 
Q 663 150 594 308 
Q 525 466 525 972 
L 525 2881 
L 113 2881 
L 113 3319 
L 525 3319 
L 525 4141 
L 1084 4478 
L 1084 3319 
L 1650 3319 
L 1650 2881 
L 1084 2881 
L 1084 941 
Q 1084 700 1114 631 
Q 1144 563 1211 522 
Q 1278 481 1403 481 
Q 1497 481 1650 503 
z
" transform="scale(0.015625)"/>
       <path id="ArialMT-79" d="M 397 -1278 
L 334 -750 
Q 519 -800 656 -800 
Q 844 -800 956 -737 
Q 1069 -675 1141 -563 
Q 1194 -478 1313 -144 
Q 1328 -97 1363 -6 
L 103 3319 
L 709 3319 
L 1400 1397 
Q 1534 1031 1641 628 
Q 1738 1016 1872 1384 
L 2581 3319 
L 3144 3319 
L 1881 -56 
Q 1678 -603 1566 -809 
Q 1416 -1088 1222 -1217 
Q 1028 -1347 759 -1347 
Q 597 -1347 397 -1278 
z
" transform="scale(0.015625)"/>
      </defs>
      <use xlink:href="#ArialMT-44"/>
      <use xlink:href="#ArialMT-65" x="72.216797"/>
      <use xlink:href="#ArialMT-6e" x="127.832031"/>
      <use xlink:href="#ArialMT-73" x="183.447266"/>
      <use xlink:href="#ArialMT-69" x="233.447266"/>
      <use xlink:href="#ArialMT-74" x="255.664062"/>
      <use xlink:href="#ArialMT-79" x="283.447266"/>
     </g>
    </g>
   </g>
   <g id="PolyCollection_1">
    <defs>
     <path id="maba2b5d723" d="M 128.66353 -49.056454 
L 128.66353 -48.3125 
L 131.394641 -48.3125 
L 134.125751 -48.3125 
L 136.856862 -48.3125 
L 139.587973 -48.3125 
L 142.319084 -48.3125 
L 145.050194 -48.3125 
L 147.781305 -48.3125 
L 150.512416 -48.3125 
L 153.243527 -48.3125 
L 155.974638 -48.3125 
L 158.705748 -48.3125 
L 161.436859 -48.3125 
L 164.16797 -48.3125 
L 166.899081 -48.3125 
L 169.630191 -48.3125 
L 172.361302 -48.3125 
L 175.092413 -48.3125 
L 177.823524 -48.3125 
L 180.554635 -48.3125 
L 183.285745 -48.3125 
L 186.016856 -48.3125 
L 188.747967 -48.3125 
L 191.479078 -48.3125 
L 194.210188 -48.3125 
L 196.941299 -48.3125 
L 199.67241 -48.3125 
L 202.403521 -48.3125 
L 205.134632 -48.3125 
L 207.865742 -48.3125 
L 210.596853 -48.3125 
L 213.327964 -48.3125 
L 216.059075 -48.3125 
L 218.790185 -48.3125 
L 221.521296 -48.3125 
L 224.252407 -48.3125 
L 226.983518 -48.3125 
L 229.714628 -48.3125 
L 232.445739 -48.3125 
L 235.17685 -48.3125 
L 237.907961 -48.3125 
L 240.639072 -48.3125 
L 243.370182 -48.3125 
L 246.101293 -48.3125 
L 248.832404 -48.3125 
L 251.563515 -48.3125 
L 254.294625 -48.3125 
L 257.025736 -48.3125 
L 259.756847 -48.3125 
L 262.487958 -48.3125 
L 265.219069 -48.3125 
L 267.950179 -48.3125 
L 270.68129 -48.3125 
L 273.412401 -48.3125 
L 276.143512 -48.3125 
L 278.874622 -48.3125 
L 281.605733 -48.3125 
L 284.336844 -48.3125 
L 287.067955 -48.3125 
L 289.799066 -48.3125 
L 292.530176 -48.3125 
L 295.261287 -48.3125 
L 297.992398 -48.3125 
L 300.723509 -48.3125 
L 303.454619 -48.3125 
L 306.18573 -48.3125 
L 308.916841 -48.3125 
L 311.647952 -48.3125 
L 314.379062 -48.3125 
L 317.110173 -48.3125 
L 319.841284 -48.3125 
L 322.572395 -48.3125 
L 325.303506 -48.3125 
L 328.034616 -48.3125 
L 330.765727 -48.3125 
L 333.496838 -48.3125 
L 336.227949 -48.3125 
L 338.959059 -48.3125 
L 341.69017 -48.3125 
L 344.421281 -48.3125 
L 347.152392 -48.3125 
L 349.883503 -48.3125 
L 352.614613 -48.3125 
L 355.345724 -48.3125 
L 358.076835 -48.3125 
L 360.807946 -48.3125 
L 363.539056 -48.3125 
L 366.270167 -48.3125 
L 369.001278 -48.3125 
L 371.732389 -48.3125 
L 374.463499 -48.3125 
L 377.19461 -48.3125 
L 379.925721 -48.3125 
L 382.656832 -48.3125 
L 385.387943 -48.3125 
L 388.119053 -48.3125 
L 390.850164 -48.3125 
L 393.581275 -48.3125 
L 396.312386 -48.3125 
L 399.043496 -48.3125 
L 401.774607 -48.3125 
L 404.505718 -48.3125 
L 407.236829 -48.3125 
L 409.96794 -48.3125 
L 412.69905 -48.3125 
L 415.430161 -48.3125 
L 418.161272 -48.3125 
L 420.892383 -48.3125 
L 423.623493 -48.3125 
L 426.354604 -48.3125 
L 429.085715 -48.3125 
L 431.816826 -48.3125 
L 434.547937 -48.3125 
L 437.279047 -48.3125 
L 440.010158 -48.3125 
L 442.741269 -48.3125 
L 445.47238 -48.3125 
L 448.20349 -48.3125 
L 450.934601 -48.3125 
L 453.665712 -48.3125 
L 456.396823 -48.3125 
L 459.127933 -48.3125 
L 461.859044 -48.3125 
L 464.590155 -48.3125 
L 467.321266 -48.3125 
L 470.052377 -48.3125 
L 472.783487 -48.3125 
L 475.514598 -48.3125 
L 478.245709 -48.3125 
L 480.97682 -48.3125 
L 483.70793 -48.3125 
L 486.439041 -48.3125 
L 489.170152 -48.3125 
L 491.901263 -48.3125 
L 494.632374 -48.3125 
L 497.363484 -48.3125 
L 500.094595 -48.3125 
L 502.825706 -48.3125 
L 505.556817 -48.3125 
L 508.287927 -48.3125 
L 511.019038 -48.3125 
L 513.750149 -48.3125 
L 516.48126 -48.3125 
L 519.212371 -48.3125 
L 521.943481 -48.3125 
L 524.674592 -48.3125 
L 527.405703 -48.3125 
L 530.136814 -48.3125 
L 532.867924 -48.3125 
L 535.599035 -48.3125 
L 538.330146 -48.3125 
L 541.061257 -48.3125 
L 543.792367 -48.3125 
L 546.523478 -48.3125 
L 549.254589 -48.3125 
L 551.9857 -48.3125 
L 554.716811 -48.3125 
L 557.447921 -48.3125 
L 560.179032 -48.3125 
L 562.910143 -48.3125 
L 565.641254 -48.3125 
L 568.372364 -48.3125 
L 571.103475 -48.3125 
L 573.834586 -48.3125 
L 576.565697 -48.3125 
L 579.296808 -48.3125 
L 582.027918 -48.3125 
L 584.759029 -48.3125 
L 587.49014 -48.3125 
L 590.221251 -48.3125 
L 592.952361 -48.3125 
L 595.683472 -48.3125 
L 598.414583 -48.3125 
L 601.145694 -48.3125 
L 603.876805 -48.3125 
L 606.607915 -48.3125 
L 609.339026 -48.3125 
L 612.070137 -48.3125 
L 614.801248 -48.3125 
L 617.532358 -48.3125 
L 620.263469 -48.3125 
L 622.99458 -48.3125 
L 625.725691 -48.3125 
L 628.456801 -48.3125 
L 631.187912 -48.3125 
L 633.919023 -48.3125 
L 636.650134 -48.3125 
L 639.381245 -48.3125 
L 642.112355 -48.3125 
L 644.843466 -48.3125 
L 647.574577 -48.3125 
L 650.305688 -48.3125 
L 653.036798 -48.3125 
L 655.767909 -48.3125 
L 658.49902 -48.3125 
L 661.230131 -48.3125 
L 663.961242 -48.3125 
L 666.692352 -48.3125 
L 669.423463 -48.3125 
L 672.154574 -48.3125 
L 672.154574 -48.55734 
L 672.154574 -48.55734 
L 669.423463 -48.613762 
L 666.692352 -48.681539 
L 663.961242 -48.762561 
L 661.230131 -48.85895 
L 658.49902 -48.973066 
L 655.767909 -49.10752 
L 653.036798 -49.265177 
L 650.305688 -49.449154 
L 647.574577 -49.662819 
L 644.843466 -49.909782 
L 642.112355 -50.193877 
L 639.381245 -50.519141 
L 636.650134 -50.889789 
L 633.919023 -51.310173 
L 631.187912 -51.78475 
L 628.456801 -52.318027 
L 625.725691 -52.914514 
L 622.99458 -53.578665 
L 620.263469 -54.31482 
L 617.532358 -55.127143 
L 614.801248 -56.01956 
L 612.070137 -56.995699 
L 609.339026 -58.058835 
L 606.607915 -59.211832 
L 603.876805 -60.457106 
L 601.145694 -61.796582 
L 598.414583 -63.231672 
L 595.683472 -64.763255 
L 592.952361 -66.391676 
L 590.221251 -68.116752 
L 587.49014 -69.937794 
L 584.759029 -71.853639 
L 582.027918 -73.86269 
L 579.296808 -75.962969 
L 576.565697 -78.152173 
L 573.834586 -80.42774 
L 571.103475 -82.786909 
L 568.372364 -85.226789 
L 565.641254 -87.744422 
L 562.910143 -90.336833 
L 560.179032 -93.001087 
L 557.447921 -95.734321 
L 554.716811 -98.533781 
L 551.9857 -101.39683 
L 549.254589 -104.320963 
L 546.523478 -107.303792 
L 543.792367 -110.343037 
L 541.061257 -113.436497 
L 538.330146 -116.582017 
L 535.599035 -119.777456 
L 532.867924 -123.020644 
L 530.136814 -126.309349 
L 527.405703 -129.641243 
L 524.674592 -133.013874 
L 521.943481 -136.424647 
L 519.212371 -139.870816 
L 516.48126 -143.349488 
L 513.750149 -146.85763 
L 511.019038 -150.392094 
L 508.287927 -153.949653 
L 505.556817 -157.527034 
L 502.825706 -161.120966 
L 500.094595 -164.728226 
L 497.363484 -168.345685 
L 494.632374 -171.970353 
L 491.901263 -175.599413 
L 489.170152 -179.230251 
L 486.439041 -182.860476 
L 483.70793 -186.487926 
L 480.97682 -190.110665 
L 478.245709 -193.726966 
L 475.514598 -197.33529 
L 472.783487 -200.934252 
L 470.052377 -204.522584 
L 467.321266 -208.099097 
L 464.590155 -211.662646 
L 461.859044 -215.212096 
L 459.127933 -218.746304 
L 456.396823 -222.264101 
L 453.665712 -225.764307 
L 450.934601 -229.245738 
L 448.20349 -232.707248 
L 445.47238 -236.147779 
L 442.741269 -239.566422 
L 440.010158 -242.962497 
L 437.279047 -246.33563 
L 434.547937 -249.685846 
L 431.816826 -253.01365 
L 429.085715 -256.320107 
L 426.354604 -259.606904 
L 423.623493 -262.876402 
L 420.892383 -266.131661 
L 418.161272 -269.37644 
L 415.430161 -272.615164 
L 412.69905 -275.852871 
L 409.96794 -279.095111 
L 407.236829 -282.347827 
L 404.505718 -285.617195 
L 401.774607 -288.909446 
L 399.043496 -292.230654 
L 396.312386 -295.586516 
L 393.581275 -298.982106 
L 390.850164 -302.421636 
L 388.119053 -305.908202 
L 385.387943 -309.443546 
L 382.656832 -313.027825 
L 379.925721 -316.659404 
L 377.19461 -320.334669 
L 374.463499 -324.047874 
L 371.732389 -327.791022 
L 369.001278 -331.553792 
L 366.270167 -335.323498 
L 363.539056 -339.085103 
L 360.807946 -342.821276 
L 358.076835 -346.512498 
L 355.345724 -350.137207 
L 352.614613 -353.671996 
L 349.883503 -357.091846 
L 347.152392 -360.370395 
L 344.421281 -363.480238 
L 341.69017 -366.393257 
L 338.959059 -369.080964 
L 336.227949 -371.514855 
L 333.496838 -373.666771 
L 330.765727 -375.509259 
L 328.034616 -377.015909 
L 325.303506 -378.161688 
L 322.572395 -378.923241 
L 319.841284 -379.279167 
L 317.110173 -379.210258 
L 314.379062 -378.699706 
L 311.647952 -377.733267 
L 308.916841 -376.299391 
L 306.18573 -374.389312 
L 303.454619 -371.997102 
L 300.723509 -369.119696 
L 297.992398 -365.756887 
L 295.261287 -361.911296 
L 292.530176 -357.588325 
L 289.799066 -352.796099 
L 287.067955 -347.545389 
L 284.336844 -341.849541 
L 281.605733 -335.724389 
L 278.874622 -329.188179 
L 276.143512 -322.261479 
L 273.412401 -314.967094 
L 270.68129 -307.329979 
L 267.950179 -299.377138 
L 265.219069 -291.137517 
L 262.487958 -282.641885 
L 259.756847 -273.922687 
L 257.025736 -265.013885 
L 254.294625 -255.950769 
L 251.563515 -246.769731 
L 248.832404 -237.508027 
L 246.101293 -228.203487 
L 243.370182 -218.894216 
L 240.639072 -209.618256 
L 237.907961 -200.413235 
L 235.17685 -191.315998 
L 232.445739 -182.362232 
L 229.714628 -173.586092 
L 226.983518 -165.019836 
L 224.252407 -156.693482 
L 221.521296 -148.634492 
L 218.790185 -140.867489 
L 216.059075 -133.414025 
L 213.327964 -126.292392 
L 210.596853 -119.517497 
L 207.865742 -113.100783 
L 205.134632 -107.05022 
L 202.403521 -101.370353 
L 199.67241 -96.0624 
L 196.941299 -91.124408 
L 194.210188 -86.551457 
L 191.479078 -82.335899 
L 188.747967 -78.467639 
L 186.016856 -74.934429 
L 183.285745 -71.722191 
L 180.554635 -68.81534 
L 177.823524 -66.197114 
L 175.092413 -63.849889 
L 172.361302 -61.755492 
L 169.630191 -59.895483 
L 166.899081 -58.251422 
L 164.16797 -56.805107 
L 161.436859 -55.538779 
L 158.705748 -54.435299 
L 155.974638 -53.478295 
L 153.243527 -52.652271 
L 150.512416 -51.942698 
L 147.781305 -51.336064 
L 145.050194 -50.819913 
L 142.319084 -50.382844 
L 139.587973 -50.014512 
L 136.856862 -49.705589 
L 134.125751 -49.447735 
L 131.394641 -49.233536 
L 128.66353 -49.056454 
z
" style="stroke: #2ecc71"/>
    </defs>
    <g clip-path="url(#p138feb14c2)">
     <use xlink:href="#maba2b5d723" x="0" y="420.48" style="fill: #2ecc71; fill-opacity: 0.3; stroke: #2ecc71"/>
    </g>
   </g>
   <g id="PolyCollection_2">
    <defs>
     <path id="m49e59254c1" d="M 89.646051 -49.604263 
L 89.646051 -48.3125 
L 92.516968 -48.3125 
L 95.387886 -48.3125 
L 98.258803 -48.3125 
L 101.12972 -48.3125 
L 104.000637 -48.3125 
L 106.871554 -48.3125 
L 109.742472 -48.3125 
L 112.613389 -48.3125 
L 115.484306 -48.3125 
L 118.355223 -48.3125 
L 121.22614 -48.3125 
L 124.097058 -48.3125 
L 126.967975 -48.3125 
L 129.838892 -48.3125 
L 132.709809 -48.3125 
L 135.580726 -48.3125 
L 138.451644 -48.3125 
L 141.322561 -48.3125 
L 144.193478 -48.3125 
L 147.064395 -48.3125 
L 149.935312 -48.3125 
L 152.80623 -48.3125 
L 155.677147 -48.3125 
L 158.548064 -48.3125 
L 161.418981 -48.3125 
L 164.289898 -48.3125 
L 167.160816 -48.3125 
L 170.031733 -48.3125 
L 172.90265 -48.3125 
L 175.773567 -48.3125 
L 178.644485 -48.3125 
L 181.515402 -48.3125 
L 184.386319 -48.3125 
L 187.257236 -48.3125 
L 190.128153 -48.3125 
L 192.999071 -48.3125 
L 195.869988 -48.3125 
L 198.740905 -48.3125 
L 201.611822 -48.3125 
L 204.482739 -48.3125 
L 207.353657 -48.3125 
L 210.224574 -48.3125 
L 213.095491 -48.3125 
L 215.966408 -48.3125 
L 218.837325 -48.3125 
L 221.708243 -48.3125 
L 224.57916 -48.3125 
L 227.450077 -48.3125 
L 230.320994 -48.3125 
L 233.191911 -48.3125 
L 236.062829 -48.3125 
L 238.933746 -48.3125 
L 241.804663 -48.3125 
L 244.67558 -48.3125 
L 247.546497 -48.3125 
L 250.417415 -48.3125 
L 253.288332 -48.3125 
L 256.159249 -48.3125 
L 259.030166 -48.3125 
L 261.901083 -48.3125 
L 264.772001 -48.3125 
L 267.642918 -48.3125 
L 270.513835 -48.3125 
L 273.384752 -48.3125 
L 276.25567 -48.3125 
L 279.126587 -48.3125 
L 281.997504 -48.3125 
L 284.868421 -48.3125 
L 287.739338 -48.3125 
L 290.610256 -48.3125 
L 293.481173 -48.3125 
L 296.35209 -48.3125 
L 299.223007 -48.3125 
L 302.093924 -48.3125 
L 304.964842 -48.3125 
L 307.835759 -48.3125 
L 310.706676 -48.3125 
L 313.577593 -48.3125 
L 316.44851 -48.3125 
L 319.319428 -48.3125 
L 322.190345 -48.3125 
L 325.061262 -48.3125 
L 327.932179 -48.3125 
L 330.803096 -48.3125 
L 333.674014 -48.3125 
L 336.544931 -48.3125 
L 339.415848 -48.3125 
L 342.286765 -48.3125 
L 345.157682 -48.3125 
L 348.0286 -48.3125 
L 350.899517 -48.3125 
L 353.770434 -48.3125 
L 356.641351 -48.3125 
L 359.512268 -48.3125 
L 362.383186 -48.3125 
L 365.254103 -48.3125 
L 368.12502 -48.3125 
L 370.995937 -48.3125 
L 373.866855 -48.3125 
L 376.737772 -48.3125 
L 379.608689 -48.3125 
L 382.479606 -48.3125 
L 385.350523 -48.3125 
L 388.221441 -48.3125 
L 391.092358 -48.3125 
L 393.963275 -48.3125 
L 396.834192 -48.3125 
L 399.705109 -48.3125 
L 402.576027 -48.3125 
L 405.446944 -48.3125 
L 408.317861 -48.3125 
L 411.188778 -48.3125 
L 414.059695 -48.3125 
L 416.930613 -48.3125 
L 419.80153 -48.3125 
L 422.672447 -48.3125 
L 425.543364 -48.3125 
L 428.414281 -48.3125 
L 431.285199 -48.3125 
L 434.156116 -48.3125 
L 437.027033 -48.3125 
L 439.89795 -48.3125 
L 442.768867 -48.3125 
L 445.639785 -48.3125 
L 448.510702 -48.3125 
L 451.381619 -48.3125 
L 454.252536 -48.3125 
L 457.123454 -48.3125 
L 459.994371 -48.3125 
L 462.865288 -48.3125 
L 465.736205 -48.3125 
L 468.607122 -48.3125 
L 471.47804 -48.3125 
L 474.348957 -48.3125 
L 477.219874 -48.3125 
L 480.090791 -48.3125 
L 482.961708 -48.3125 
L 485.832626 -48.3125 
L 488.703543 -48.3125 
L 491.57446 -48.3125 
L 494.445377 -48.3125 
L 497.316294 -48.3125 
L 500.187212 -48.3125 
L 503.058129 -48.3125 
L 505.929046 -48.3125 
L 508.799963 -48.3125 
L 511.67088 -48.3125 
L 514.541798 -48.3125 
L 517.412715 -48.3125 
L 520.283632 -48.3125 
L 523.154549 -48.3125 
L 526.025466 -48.3125 
L 528.896384 -48.3125 
L 531.767301 -48.3125 
L 534.638218 -48.3125 
L 537.509135 -48.3125 
L 540.380052 -48.3125 
L 543.25097 -48.3125 
L 546.121887 -48.3125 
L 548.992804 -48.3125 
L 551.863721 -48.3125 
L 554.734639 -48.3125 
L 557.605556 -48.3125 
L 560.476473 -48.3125 
L 563.34739 -48.3125 
L 566.218307 -48.3125 
L 569.089225 -48.3125 
L 571.960142 -48.3125 
L 574.831059 -48.3125 
L 577.701976 -48.3125 
L 580.572893 -48.3125 
L 583.443811 -48.3125 
L 586.314728 -48.3125 
L 589.185645 -48.3125 
L 592.056562 -48.3125 
L 594.927479 -48.3125 
L 597.798397 -48.3125 
L 600.669314 -48.3125 
L 603.540231 -48.3125 
L 606.411148 -48.3125 
L 609.282065 -48.3125 
L 612.152983 -48.3125 
L 615.0239 -48.3125 
L 617.894817 -48.3125 
L 620.765734 -48.3125 
L 623.636651 -48.3125 
L 626.507569 -48.3125 
L 629.378486 -48.3125 
L 632.249403 -48.3125 
L 635.12032 -48.3125 
L 637.991237 -48.3125 
L 640.862155 -48.3125 
L 643.733072 -48.3125 
L 646.603989 -48.3125 
L 649.474906 -48.3125 
L 652.345824 -48.3125 
L 655.216741 -48.3125 
L 658.087658 -48.3125 
L 660.958575 -48.3125 
L 660.958575 -50.256084 
L 660.958575 -50.256084 
L 658.087658 -50.536736 
L 655.216741 -50.853003 
L 652.345824 -51.208644 
L 649.474906 -51.607704 
L 646.603989 -52.054522 
L 643.733072 -52.553738 
L 640.862155 -53.11029 
L 637.991237 -53.729422 
L 635.12032 -54.416675 
L 632.249403 -55.17788 
L 629.378486 -56.019154 
L 626.507569 -56.94688 
L 623.636651 -57.967688 
L 620.765734 -59.088439 
L 617.894817 -60.316188 
L 615.0239 -61.658156 
L 612.152983 -63.12169 
L 609.282065 -64.714219 
L 606.411148 -66.443204 
L 603.540231 -68.316085 
L 600.669314 -70.340217 
L 597.798397 -72.522809 
L 594.927479 -74.870851 
L 592.056562 -77.391042 
L 589.185645 -80.089709 
L 586.314728 -82.972724 
L 583.443811 -86.045424 
L 580.572893 -89.312523 
L 577.701976 -92.778024 
L 574.831059 -96.44513 
L 571.960142 -100.316165 
L 569.089225 -104.392482 
L 566.218307 -108.67439 
L 563.34739 -113.161075 
L 560.476473 -117.850534 
L 557.605556 -122.73951 
L 554.734639 -127.823441 
L 551.863721 -133.096418 
L 548.992804 -138.551153 
L 546.121887 -144.178957 
L 543.25097 -149.969737 
L 540.380052 -155.912001 
L 537.509135 -161.992883 
L 534.638218 -168.198179 
L 531.767301 -174.512402 
L 528.896384 -180.918851 
L 526.025466 -187.399695 
L 523.154549 -193.936077 
L 520.283632 -200.508225 
L 517.412715 -207.095586 
L 514.541798 -213.676966 
L 511.67088 -220.230682 
L 508.799963 -226.734734 
L 505.929046 -233.166971 
L 503.058129 -239.505271 
L 500.187212 -245.727729 
L 497.316294 -251.812842 
L 494.445377 -257.739693 
L 491.57446 -263.488136 
L 488.703543 -269.038977 
L 485.832626 -274.374144 
L 482.961708 -279.47685 
L 480.090791 -284.331742 
L 477.219874 -288.925042 
L 474.348957 -293.244661 
L 471.47804 -297.280308 
L 468.607122 -301.023571 
L 465.736205 -304.46798 
L 462.865288 -307.609049 
L 459.994371 -310.444299 
L 457.123454 -312.973248 
L 454.252536 -315.197395 
L 451.381619 -317.120165 
L 448.510702 -318.746845 
L 445.639785 -320.084491 
L 442.768867 -321.141823 
L 439.89795 -321.929097 
L 437.027033 -322.457963 
L 434.156116 -322.741306 
L 431.285199 -322.793084 
L 428.414281 -322.628146 
L 425.543364 -322.262049 
L 422.672447 -321.710872 
L 419.80153 -320.99102 
L 416.930613 -320.11904 
L 414.059695 -319.111431 
L 411.188778 -317.984466 
L 408.317861 -316.754013 
L 405.446944 -315.435379 
L 402.576027 -314.043149 
L 399.705109 -312.591058 
L 396.834192 -311.091855 
L 393.963275 -309.557207 
L 391.092358 -307.997597 
L 388.221441 -306.422256 
L 385.350523 -304.839106 
L 382.479606 -303.254719 
L 379.608689 -301.674299 
L 376.737772 -300.101676 
L 373.866855 -298.53932 
L 370.995937 -296.988372 
L 368.12502 -295.448686 
L 365.254103 -293.918887 
L 362.383186 -292.396443 
L 359.512268 -290.877745 
L 356.641351 -289.358202 
L 353.770434 -287.832338 
L 350.899517 -286.293901 
L 348.0286 -284.735975 
L 345.157682 -283.151098 
L 342.286765 -281.531379 
L 339.415848 -279.868623 
L 336.544931 -278.154445 
L 333.674014 -276.380395 
L 330.803096 -274.53807 
L 327.932179 -272.619229 
L 325.061262 -270.615902 
L 322.190345 -268.520488 
L 319.319428 -266.325855 
L 316.44851 -264.025428 
L 313.577593 -261.613269 
L 310.706676 -259.084152 
L 307.835759 -256.433623 
L 304.964842 -253.658059 
L 302.093924 -250.754715 
L 299.223007 -247.721753 
L 296.35209 -244.558279 
L 293.481173 -241.264349 
L 290.610256 -237.840988 
L 287.739338 -234.290178 
L 284.868421 -230.614855 
L 281.997504 -226.818882 
L 279.126587 -222.907029 
L 276.25567 -218.884928 
L 273.384752 -214.759035 
L 270.513835 -210.536575 
L 267.642918 -206.225487 
L 264.772001 -201.83436 
L 261.901083 -197.37236 
L 259.030166 -192.849165 
L 256.159249 -188.27488 
L 253.288332 -183.659962 
L 250.417415 -179.01514 
L 247.546497 -174.351327 
L 244.67558 -169.67954 
L 241.804663 -165.010819 
L 238.933746 -160.356143 
L 236.062829 -155.726353 
L 233.191911 -151.132076 
L 230.320994 -146.58365 
L 227.450077 -142.091058 
L 224.57916 -137.663864 
L 221.708243 -133.311158 
L 218.837325 -129.041497 
L 215.966408 -124.862865 
L 213.095491 -120.782633 
L 210.224574 -116.807522 
L 207.353657 -112.943584 
L 204.482739 -109.196176 
L 201.611822 -105.569953 
L 198.740905 -102.068859 
L 195.869988 -98.69613 
L 192.999071 -95.454301 
L 190.128153 -92.345216 
L 187.257236 -89.370052 
L 184.386319 -86.529336 
L 181.515402 -83.822978 
L 178.644485 -81.250298 
L 175.773567 -78.810067 
L 172.90265 -76.500538 
L 170.031733 -74.319493 
L 167.160816 -72.26428 
L 164.289898 -70.33186 
L 161.418981 -68.518847 
L 158.548064 -66.821557 
L 155.677147 -65.236046 
L 152.80623 -63.758157 
L 149.935312 -62.383559 
L 147.064395 -61.107791 
L 144.193478 -59.926296 
L 141.322561 -58.83446 
L 138.451644 -57.827643 
L 135.580726 -56.901216 
L 132.709809 -56.050584 
L 129.838892 -55.271215 
L 126.967975 -54.558662 
L 124.097058 -53.908585 
L 121.22614 -53.316769 
L 118.355223 -52.779136 
L 115.484306 -52.291764 
L 112.613389 -51.850889 
L 109.742472 -51.452921 
L 106.871554 -51.094443 
L 104.000637 -50.772218 
L 101.12972 -50.483191 
L 98.258803 -50.224488 
L 95.387886 -49.993415 
L 92.516968 -49.787454 
L 89.646051 -49.604263 
z
" style="stroke: #e74c3c"/>
    </defs>
    <g clip-path="url(#p138feb14c2)">
     <use xlink:href="#m49e59254c1" x="0" y="420.48" style="fill: #e74c3c; fill-opacity: 0.3; stroke: #e74c3c"/>
    </g>
   </g>
   <g id="patch_3">
    <path d="M 60.520625 372.1675 
L 60.520625 24.6525 
" style="fill: none; stroke: #cccccc; stroke-width: 1.5; stroke-linejoin: miter; stroke-linecap: square"/>
   </g>
   <g id="patch_4">
    <path d="M 60.520625 372.1675 
L 701.28 372.1675 
" style="fill: none; stroke: #cccccc; stroke-width: 1.5; stroke-linejoin: miter; stroke-linecap: square"/>
   </g>
   <g id="text_15">
    <!-- Distribution of Absolute Errors -->
    <g style="fill: #262626" transform="translate(275.080312 18.6525) scale(0.16 -0.16)">
     <defs>
      <path id="ArialMT-62" d="M 941 0 
L 419 0 
L 419 4581 
L 981 4581 
L 981 2947 
Q 1338 3394 1891 3394 
Q 2197 3394 2470 3270 
Q 2744 3147 2920 2923 
Q 3097 2700 3197 2384 
Q 3297 2069 3297 1709 
Q 3297 856 2875 390 
Q 2453 -75 1863 -75 
Q 1275 -75 941 416 
L 941 0 
z
M 934 1684 
Q 934 1088 1097 822 
Q 1363 388 1816 388 
Q 2184 388 2453 708 
Q 2722 1028 2722 1663 
Q 2722 2313 2464 2622 
Q 2206 2931 1841 2931 
Q 1472 2931 1203 2611 
Q 934 2291 934 1684 
z
" transform="scale(0.015625)"/>
      <path id="ArialMT-75" d="M 2597 0 
L 2597 488 
Q 2209 -75 1544 -75 
Q 1250 -75 995 37 
Q 741 150 617 320 
Q 494 491 444 738 
Q 409 903 409 1263 
L 409 3319 
L 972 3319 
L 972 1478 
Q 972 1038 1006 884 
Q 1059 663 1231 536 
Q 1403 409 1656 409 
Q 1909 409 2131 539 
Q 2353 669 2445 892 
Q 2538 1116 2538 1541 
L 2538 3319 
L 3100 3319 
L 3100 0 
L 2597 0 
z
" transform="scale(0.015625)"/>
      <path id="ArialMT-66" d="M 556 0 
L 556 2881 
L 59 2881 
L 59 3319 
L 556 3319 
L 556 3672 
Q 556 4006 616 4169 
Q 697 4388 901 4523 
Q 1106 4659 1475 4659 
Q 1713 4659 2000 4603 
L 1916 4113 
Q 1741 4144 1584 4144 
Q 1328 4144 1222 4034 
Q 1116 3925 1116 3625 
L 1116 3319 
L 1763 3319 
L 1763 2881 
L 1116 2881 
L 1116 0 
L 556 0 
z
" transform="scale(0.015625)"/>
      <path id="ArialMT-41" d="M -9 0 
L 1750 4581 
L 2403 4581 
L 4278 0 
L 3588 0 
L 3053 1388 
L 1138 1388 
L 634 0 
L -9 0 
z
M 1313 1881 
L 2866 1881 
L 2388 3150 
Q 2169 3728 2063 4100 
Q 1975 3659 1816 3225 
L 1313 1881 
z
" transform="scale(0.015625)"/>
      <path id="ArialMT-6c" d="M 409 0 
L 409 4581 
L 972 4581 
L 972 0 
L 409 0 
z
" transform="scale(0.015625)"/>
     </defs>
     <use xlink:href="#ArialMT-44"/>
     <use xlink:href="#ArialMT-69" x="72.216797"/>
     <use xlink:href="#ArialMT-73" x="94.433594"/>
     <use xlink:href="#ArialMT-74" x="144.433594"/>
     <use xlink:href="#ArialMT-72" x="172.216797"/>
     <use xlink:href="#ArialMT-69" x="205.517578"/>
     <use xlink:href="#ArialMT-62" x="227.734375"/>
     <use xlink:href="#ArialMT-75" x="283.349609"/>
     <use xlink:href="#ArialMT-74" x="338.964844"/>
     <use xlink:href="#ArialMT-69" x="366.748047"/>
     <use xlink:href="#ArialMT-6f" x="388.964844"/>
     <use xlink:href="#ArialMT-6e" x="444.580078"/>
     <use xlink:href="#ArialMT-20" x="500.195312"/>
     <use xlink:href="#ArialMT-6f" x="527.978516"/>
     <use xlink:href="#ArialMT-66" x="583.59375"/>
     <use xlink:href="#ArialMT-20" x="611.376953"/>
     <use xlink:href="#ArialMT-41" x="633.660156"/>
     <use xlink:href="#ArialMT-62" x="700.359375"/>
     <use xlink:href="#ArialMT-73" x="755.974609"/>
     <use xlink:href="#ArialMT-6f" x="805.974609"/>
     <use xlink:href="#ArialMT-6c" x="861.589844"/>
     <use xlink:href="#ArialMT-75" x="883.806641"/>
     <use xlink:href="#ArialMT-74" x="939.421875"/>
     <use xlink:href="#ArialMT-65" x="967.205078"/>
     <use xlink:href="#ArialMT-20" x="1022.820312"/>
     <use xlink:href="#ArialMT-45" x="1050.603516"/>
     <use xlink:href="#ArialMT-72" x="1117.302734"/>
     <use xlink:href="#ArialMT-72" x="1150.603516"/>
     <use xlink:href="#ArialMT-6f" x="1183.904297"/>
     <use xlink:href="#ArialMT-72" x="1239.519531"/>
     <use xlink:href="#ArialMT-73" x="1272.820312"/>
    </g>
   </g>
   <g id="legend_1">
    <g id="patch_5">
     <path d="M 497.20125 68.775 
L 692.88 68.775 
Q 695.28 68.775 695.28 66.375 
L 695.28 33.0525 
Q 695.28 30.6525 692.88 30.6525 
L 497.20125 30.6525 
Q 494.80125 30.6525 494.80125 33.0525 
L 494.80125 66.375 
Q 494.80125 68.775 497.20125 68.775 
z
" style="fill: #ffffff; opacity: 0.8; stroke: #cccccc; stroke-linejoin: miter"/>
    </g>
    <g id="patch_6">
     <path d="M 499.60125 44.188125 
L 523.60125 44.188125 
L 523.60125 35.788125 
L 499.60125 35.788125 
z
" style="fill: #2ecc71; fill-opacity: 0.3; stroke: #2ecc71; stroke-linejoin: miter"/>
    </g>
    <g id="text_16">
     <!-- Training (μ=1.86%, σ=1.21%) -->
     <g style="fill: #262626" transform="translate(533.20125 44.188125) scale(0.12 -0.12)">
      <defs>
       <path id="ArialMT-54" d="M 1659 0 
L 1659 4041 
L 150 4041 
L 150 4581 
L 3781 4581 
L 3781 4041 
L 2266 4041 
L 2266 0 
L 1659 0 
z
" transform="scale(0.015625)"/>
       <path id="ArialMT-61" d="M 2588 409 
Q 2275 144 1986 34 
Q 1697 -75 1366 -75 
Q 819 -75 525 192 
Q 231 459 231 875 
Q 231 1119 342 1320 
Q 453 1522 633 1644 
Q 813 1766 1038 1828 
Q 1203 1872 1538 1913 
Q 2219 1994 2541 2106 
Q 2544 2222 2544 2253 
Q 2544 2597 2384 2738 
Q 2169 2928 1744 2928 
Q 1347 2928 1158 2789 
Q 969 2650 878 2297 
L 328 2372 
Q 403 2725 575 2942 
Q 747 3159 1072 3276 
Q 1397 3394 1825 3394 
Q 2250 3394 2515 3294 
Q 2781 3194 2906 3042 
Q 3031 2891 3081 2659 
Q 3109 2516 3109 2141 
L 3109 1391 
Q 3109 606 3145 398 
Q 3181 191 3288 0 
L 2700 0 
Q 2613 175 2588 409 
z
M 2541 1666 
Q 2234 1541 1622 1453 
Q 1275 1403 1131 1340 
Q 988 1278 909 1158 
Q 831 1038 831 891 
Q 831 666 1001 516 
Q 1172 366 1500 366 
Q 1825 366 2078 508 
Q 2331 650 2450 897 
Q 2541 1088 2541 1459 
L 2541 1666 
z
" transform="scale(0.015625)"/>
       <path id="ArialMT-67" d="M 319 -275 
L 866 -356 
Q 900 -609 1056 -725 
Q 1266 -881 1628 -881 
Q 2019 -881 2231 -725 
Q 2444 -569 2519 -288 
Q 2563 -116 2559 434 
Q 2191 0 1641 0 
Q 956 0 581 494 
Q 206 988 206 1678 
Q 206 2153 378 2554 
Q 550 2956 876 3175 
Q 1203 3394 1644 3394 
Q 2231 3394 2613 2919 
L 2613 3319 
L 3131 3319 
L 3131 450 
Q 3131 -325 2973 -648 
Q 2816 -972 2473 -1159 
Q 2131 -1347 1631 -1347 
Q 1038 -1347 672 -1080 
Q 306 -813 319 -275 
z
M 784 1719 
Q 784 1066 1043 766 
Q 1303 466 1694 466 
Q 2081 466 2343 764 
Q 2606 1063 2606 1700 
Q 2606 2309 2336 2618 
Q 2066 2928 1684 2928 
Q 1309 2928 1046 2623 
Q 784 2319 784 1719 
z
" transform="scale(0.015625)"/>
       <path id="ArialMT-3bc" d="M 3181 3319 
L 3181 0 
L 2678 0 
L 2678 394 
Q 2516 144 2356 50 
Q 2138 -78 1847 -78 
Q 1588 -78 1388 25 
Q 1238 103 1056 334 
L 1056 -1272 
L 500 -1272 
L 500 3319 
L 1056 3319 
L 1056 1913 
Q 1056 1147 1137 920 
Q 1219 694 1401 562 
Q 1584 431 1822 431 
Q 2072 431 2269 568 
Q 2466 706 2547 923 
Q 2628 1141 2628 1903 
L 2628 3319 
L 3181 3319 
z
" transform="scale(0.015625)"/>
       <path id="ArialMT-3d" d="M 3381 2694 
L 356 2694 
L 356 3219 
L 3381 3219 
L 3381 2694 
z
M 3381 1303 
L 356 1303 
L 356 1828 
L 3381 1828 
L 3381 1303 
z
" transform="scale(0.015625)"/>
       <path id="ArialMT-38" d="M 1131 2484 
Q 781 2613 612 2850 
Q 444 3088 444 3419 
Q 444 3919 803 4259 
Q 1163 4600 1759 4600 
Q 2359 4600 2725 4251 
Q 3091 3903 3091 3403 
Q 3091 3084 2923 2848 
Q 2756 2613 2416 2484 
Q 2838 2347 3058 2040 
Q 3278 1734 3278 1309 
Q 3278 722 2862 322 
Q 2447 -78 1769 -78 
Q 1091 -78 675 323 
Q 259 725 259 1325 
Q 259 1772 486 2073 
Q 713 2375 1131 2484 
z
M 1019 3438 
Q 1019 3113 1228 2906 
Q 1438 2700 1772 2700 
Q 2097 2700 2305 2904 
Q 2513 3109 2513 3406 
Q 2513 3716 2298 3927 
Q 2084 4138 1766 4138 
Q 1444 4138 1231 3931 
Q 1019 3725 1019 3438 
z
M 838 1322 
Q 838 1081 952 856 
Q 1066 631 1291 507 
Q 1516 384 1775 384 
Q 2178 384 2440 643 
Q 2703 903 2703 1303 
Q 2703 1709 2433 1975 
Q 2163 2241 1756 2241 
Q 1359 2241 1098 1978 
Q 838 1716 838 1322 
z
" transform="scale(0.015625)"/>
       <path id="ArialMT-2c" d="M 569 0 
L 569 641 
L 1209 641 
L 1209 0 
Q 1209 -353 1084 -570 
Q 959 -788 688 -906 
L 531 -666 
Q 709 -588 793 -436 
Q 878 -284 888 0 
L 569 0 
z
" transform="scale(0.015625)"/>
       <path id="ArialMT-3c3" d="M 3809 3319 
L 3809 2863 
L 2906 2863 
Q 3322 2475 3322 1656 
Q 3322 766 2867 345 
Q 2413 -75 1763 -75 
Q 1088 -75 650 362 
Q 213 800 213 1659 
Q 213 2544 667 2969 
Q 1122 3394 1763 3394 
Q 1997 3394 2294 3319 
L 3809 3319 
z
M 1753 2928 
Q 1344 2928 1067 2609 
Q 791 2291 791 1656 
Q 791 1025 1061 706 
Q 1331 388 1763 388 
Q 2216 388 2483 720 
Q 2750 1053 2750 1659 
Q 2750 2213 2504 2570 
Q 2259 2928 1753 2928 
z
" transform="scale(0.015625)"/>
      </defs>
      <use xlink:href="#ArialMT-54"/>
      <use xlink:href="#ArialMT-72" x="57.333984"/>
      <use xlink:href="#ArialMT-61" x="90.634766"/>
      <use xlink:href="#ArialMT-69" x="146.25"/>
      <use xlink:href="#ArialMT-6e" x="168.466797"/>
      <use xlink:href="#ArialMT-69" x="224.082031"/>
      <use xlink:href="#ArialMT-6e" x="246.298828"/>
      <use xlink:href="#ArialMT-67" x="301.914062"/>
      <use xlink:href="#ArialMT-20" x="357.529297"/>
      <use xlink:href="#ArialMT-28" x="385.3125"/>
      <use xlink:href="#ArialMT-3bc" x="418.613281"/>
      <use xlink:href="#ArialMT-3d" x="476.230469"/>
      <use xlink:href="#ArialMT-31" x="534.628906"/>
      <use xlink:href="#ArialMT-2e" x="590.244141"/>
      <use xlink:href="#ArialMT-38" x="618.027344"/>
      <use xlink:href="#ArialMT-36" x="673.642578"/>
      <use xlink:href="#ArialMT-25" x="729.257812"/>
      <use xlink:href="#ArialMT-2c" x="818.173828"/>
      <use xlink:href="#ArialMT-20" x="845.957031"/>
      <use xlink:href="#ArialMT-3c3" x="873.740234"/>
      <use xlink:href="#ArialMT-3d" x="935.458984"/>
      <use xlink:href="#ArialMT-31" x="993.857422"/>
      <use xlink:href="#ArialMT-2e" x="1049.472656"/>
      <use xlink:href="#ArialMT-32" x="1077.255859"/>
      <use xlink:href="#ArialMT-31" x="1132.871094"/>
      <use xlink:href="#ArialMT-25" x="1188.486328"/>
      <use xlink:href="#ArialMT-29" x="1277.402344"/>
     </g>
    </g>
    <g id="patch_7">
     <path d="M 499.60125 61.449375 
L 523.60125 61.449375 
L 523.60125 53.049375 
L 499.60125 53.049375 
z
" style="fill: #e74c3c; fill-opacity: 0.3; stroke: #e74c3c; stroke-linejoin: miter"/>
    </g>
    <g id="text_17">
     <!-- Testing (μ=2.27%, σ=1.28%) -->
     <g style="fill: #262626" transform="translate(533.20125 61.449375) scale(0.12 -0.12)">
      <defs>
       <path id="ArialMT-37" d="M 303 3981 
L 303 4522 
L 3269 4522 
L 3269 4084 
Q 2831 3619 2401 2847 
Q 1972 2075 1738 1259 
Q 1569 684 1522 0 
L 944 0 
Q 953 541 1156 1306 
Q 1359 2072 1739 2783 
Q 2119 3494 2547 3981 
L 303 3981 
z
" transform="scale(0.015625)"/>
      </defs>
      <use xlink:href="#ArialMT-54"/>
      <use xlink:href="#ArialMT-65" x="49.958984"/>
      <use xlink:href="#ArialMT-73" x="105.574219"/>
      <use xlink:href="#ArialMT-74" x="155.574219"/>
      <use xlink:href="#ArialMT-69" x="183.357422"/>
      <use xlink:href="#ArialMT-6e" x="205.574219"/>
      <use xlink:href="#ArialMT-67" x="261.189453"/>
      <use xlink:href="#ArialMT-20" x="316.804688"/>
      <use xlink:href="#ArialMT-28" x="344.587891"/>
      <use xlink:href="#ArialMT-3bc" x="377.888672"/>
      <use xlink:href="#ArialMT-3d" x="435.505859"/>
      <use xlink:href="#ArialMT-32" x="493.904297"/>
      <use xlink:href="#ArialMT-2e" x="549.519531"/>
      <use xlink:href="#ArialMT-32" x="577.302734"/>
      <use xlink:href="#ArialMT-37" x="632.917969"/>
      <use xlink:href="#ArialMT-25" x="688.533203"/>
      <use xlink:href="#ArialMT-2c" x="777.449219"/>
      <use xlink:href="#ArialMT-20" x="805.232422"/>
      <use xlink:href="#ArialMT-3c3" x="833.015625"/>
      <use xlink:href="#ArialMT-3d" x="894.734375"/>
      <use xlink:href="#ArialMT-31" x="953.132812"/>
      <use xlink:href="#ArialMT-2e" x="1008.748047"/>
      <use xlink:href="#ArialMT-32" x="1036.53125"/>
      <use xlink:href="#ArialMT-38" x="1092.146484"/>
      <use xlink:href="#ArialMT-25" x="1147.761719"/>
      <use xlink:href="#ArialMT-29" x="1236.677734"/>
     </g>
    </g>
   </g>
  </g>
 </g>
 <defs>
  <clipPath id="p138feb14c2">
   <rect x="60.520625" y="24.6525" width="640.759375" height="347.515"/>
  </clipPath>
 </defs>
</svg>
