<?xml version="1.0" encoding="utf-8" standalone="no"?>
<!DOCTYPE svg PUBLIC "-//W3C//DTD SVG 1.1//EN"
  "http://www.w3.org/Graphics/SVG/1.1/DTD/svg11.dtd">
<svg xmlns:xlink="http://www.w3.org/1999/xlink" width="708.48pt" height="420.48pt" viewBox="0 0 708.48 420.48" xmlns="http://www.w3.org/2000/svg" version="1.1">
 <metadata>
  <rdf:RDF xmlns:dc="http://purl.org/dc/elements/1.1/" xmlns:cc="http://creativecommons.org/ns#" xmlns:rdf="http://www.w3.org/1999/02/22-rdf-syntax-ns#">
   <cc:Work>
    <dc:type rdf:resource="http://purl.org/dc/dcmitype/StillImage"/>
    <dc:date>2025-01-07T19:59:34.962252</dc:date>
    <dc:format>image/svg+xml</dc:format>
    <dc:creator>
     <cc:Agent>
      <dc:title>Matplotlib v3.9.3, https://matplotlib.org/</dc:title>
     </cc:Agent>
    </dc:creator>
   </cc:Work>
  </rdf:RDF>
 </metadata>
 <defs>
  <style type="text/css">*{stroke-linejoin: round; stroke-linecap: butt}</style>
 </defs>
 <g id="figure_1">
  <g id="patch_1">
   <path d="M 0 420.48 
L 708.48 420.48 
L 708.48 -0 
L 0 -0 
z
" style="fill: #ffffff"/>
  </g>
  <g id="axes_1">
   <g id="patch_2">
    <path d="M 60.520625 372.1675 
L 701.28 372.1675 
L 701.28 24.6525 
L 60.520625 24.6525 
z
" style="fill: #ffffff"/>
   </g>
   <g id="matplotlib.axis_1">
    <g id="xtick_1">
     <g id="line2d_1">
      <path d="M 65.631435 372.1675 
L 65.631435 24.6525 
" clip-path="url(#pbb5c9dc3da)" style="fill: none; stroke: #cccccc; stroke-opacity: 0.3; stroke-width: 0.5; stroke-linecap: round"/>
     </g>
     <g id="text_1">
      <!-- −2 -->
      <g style="fill: #262626" transform="translate(58.790498 387.756875) scale(0.12 -0.12)">
       <defs>
        <path id="ArialMT-2212" d="M 3381 1997 
L 356 1997 
L 356 2522 
L 3381 2522 
L 3381 1997 
z
" transform="scale(0.015625)"/>
        <path id="ArialMT-32" d="M 3222 541 
L 3222 0 
L 194 0 
Q 188 203 259 391 
Q 375 700 629 1000 
Q 884 1300 1366 1694 
Q 2113 2306 2375 2664 
Q 2638 3022 2638 3341 
Q 2638 3675 2398 3904 
Q 2159 4134 1775 4134 
Q 1369 4134 1125 3890 
Q 881 3647 878 3216 
L 300 3275 
Q 359 3922 746 4261 
Q 1134 4600 1788 4600 
Q 2447 4600 2831 4234 
Q 3216 3869 3216 3328 
Q 3216 3053 3103 2787 
Q 2991 2522 2730 2228 
Q 2469 1934 1863 1422 
Q 1356 997 1212 845 
Q 1069 694 975 541 
L 3222 541 
z
" transform="scale(0.015625)"/>
       </defs>
       <use xlink:href="#ArialMT-2212"/>
       <use xlink:href="#ArialMT-32" x="58.398438"/>
      </g>
     </g>
    </g>
    <g id="xtick_2">
     <g id="line2d_2">
      <path d="M 142.77388 372.1675 
L 142.77388 24.6525 
" clip-path="url(#pbb5c9dc3da)" style="fill: none; stroke: #cccccc; stroke-opacity: 0.3; stroke-width: 0.5; stroke-linecap: round"/>
     </g>
     <g id="text_2">
      <!-- −1 -->
      <g style="fill: #262626" transform="translate(135.932943 387.756875) scale(0.12 -0.12)">
       <defs>
        <path id="ArialMT-31" d="M 2384 0 
L 1822 0 
L 1822 3584 
Q 1619 3391 1289 3197 
Q 959 3003 697 2906 
L 697 3450 
Q 1169 3672 1522 3987 
Q 1875 4303 2022 4600 
L 2384 4600 
L 2384 0 
z
" transform="scale(0.015625)"/>
       </defs>
       <use xlink:href="#ArialMT-2212"/>
       <use xlink:href="#ArialMT-31" x="58.398438"/>
      </g>
     </g>
    </g>
    <g id="xtick_3">
     <g id="line2d_3">
      <path d="M 219.916325 372.1675 
L 219.916325 24.6525 
" clip-path="url(#pbb5c9dc3da)" style="fill: none; stroke: #cccccc; stroke-opacity: 0.3; stroke-width: 0.5; stroke-linecap: round"/>
     </g>
     <g id="text_3">
      <!-- 0 -->
      <g style="fill: #262626" transform="translate(216.579763 387.756875) scale(0.12 -0.12)">
       <defs>
        <path id="ArialMT-30" d="M 266 2259 
Q 266 3072 433 3567 
Q 600 4063 929 4331 
Q 1259 4600 1759 4600 
Q 2128 4600 2406 4451 
Q 2684 4303 2865 4023 
Q 3047 3744 3150 3342 
Q 3253 2941 3253 2259 
Q 3253 1453 3087 958 
Q 2922 463 2592 192 
Q 2263 -78 1759 -78 
Q 1097 -78 719 397 
Q 266 969 266 2259 
z
M 844 2259 
Q 844 1131 1108 757 
Q 1372 384 1759 384 
Q 2147 384 2411 759 
Q 2675 1134 2675 2259 
Q 2675 3391 2411 3762 
Q 2147 4134 1753 4134 
Q 1366 4134 1134 3806 
Q 844 3388 844 2259 
z
" transform="scale(0.015625)"/>
       </defs>
       <use xlink:href="#ArialMT-30"/>
      </g>
     </g>
    </g>
    <g id="xtick_4">
     <g id="line2d_4">
      <path d="M 297.05877 372.1675 
L 297.05877 24.6525 
" clip-path="url(#pbb5c9dc3da)" style="fill: none; stroke: #cccccc; stroke-opacity: 0.3; stroke-width: 0.5; stroke-linecap: round"/>
     </g>
     <g id="text_4">
      <!-- 1 -->
      <g style="fill: #262626" transform="translate(293.722208 387.756875) scale(0.12 -0.12)">
       <use xlink:href="#ArialMT-31"/>
      </g>
     </g>
    </g>
    <g id="xtick_5">
     <g id="line2d_5">
      <path d="M 374.201216 372.1675 
L 374.201216 24.6525 
" clip-path="url(#pbb5c9dc3da)" style="fill: none; stroke: #cccccc; stroke-opacity: 0.3; stroke-width: 0.5; stroke-linecap: round"/>
     </g>
     <g id="text_5">
      <!-- 2 -->
      <g style="fill: #262626" transform="translate(370.864653 387.756875) scale(0.12 -0.12)">
       <use xlink:href="#ArialMT-32"/>
      </g>
     </g>
    </g>
    <g id="xtick_6">
     <g id="line2d_6">
      <path d="M 451.343661 372.1675 
L 451.343661 24.6525 
" clip-path="url(#pbb5c9dc3da)" style="fill: none; stroke: #cccccc; stroke-opacity: 0.3; stroke-width: 0.5; stroke-linecap: round"/>
     </g>
     <g id="text_6">
      <!-- 3 -->
      <g style="fill: #262626" transform="translate(448.007098 387.756875) scale(0.12 -0.12)">
       <defs>
        <path id="ArialMT-33" d="M 269 1209 
L 831 1284 
Q 928 806 1161 595 
Q 1394 384 1728 384 
Q 2125 384 2398 659 
Q 2672 934 2672 1341 
Q 2672 1728 2419 1979 
Q 2166 2231 1775 2231 
Q 1616 2231 1378 2169 
L 1441 2663 
Q 1497 2656 1531 2656 
Q 1891 2656 2178 2843 
Q 2466 3031 2466 3422 
Q 2466 3731 2256 3934 
Q 2047 4138 1716 4138 
Q 1388 4138 1169 3931 
Q 950 3725 888 3313 
L 325 3413 
Q 428 3978 793 4289 
Q 1159 4600 1703 4600 
Q 2078 4600 2393 4439 
Q 2709 4278 2876 4000 
Q 3044 3722 3044 3409 
Q 3044 3113 2884 2869 
Q 2725 2625 2413 2481 
Q 2819 2388 3044 2092 
Q 3269 1797 3269 1353 
Q 3269 753 2831 336 
Q 2394 -81 1725 -81 
Q 1122 -81 723 278 
Q 325 638 269 1209 
z
" transform="scale(0.015625)"/>
       </defs>
       <use xlink:href="#ArialMT-33"/>
      </g>
     </g>
    </g>
    <g id="xtick_7">
     <g id="line2d_7">
      <path d="M 528.486106 372.1675 
L 528.486106 24.6525 
" clip-path="url(#pbb5c9dc3da)" style="fill: none; stroke: #cccccc; stroke-opacity: 0.3; stroke-width: 0.5; stroke-linecap: round"/>
     </g>
     <g id="text_7">
      <!-- 4 -->
      <g style="fill: #262626" transform="translate(525.149543 387.756875) scale(0.12 -0.12)">
       <defs>
        <path id="ArialMT-34" d="M 2069 0 
L 2069 1097 
L 81 1097 
L 81 1613 
L 2172 4581 
L 2631 4581 
L 2631 1613 
L 3250 1613 
L 3250 1097 
L 2631 1097 
L 2631 0 
L 2069 0 
z
M 2069 1613 
L 2069 3678 
L 634 1613 
L 2069 1613 
z
" transform="scale(0.015625)"/>
       </defs>
       <use xlink:href="#ArialMT-34"/>
      </g>
     </g>
    </g>
    <g id="xtick_8">
     <g id="line2d_8">
      <path d="M 605.628551 372.1675 
L 605.628551 24.6525 
" clip-path="url(#pbb5c9dc3da)" style="fill: none; stroke: #cccccc; stroke-opacity: 0.3; stroke-width: 0.5; stroke-linecap: round"/>
     </g>
     <g id="text_8">
      <!-- 5 -->
      <g style="fill: #262626" transform="translate(602.291988 387.756875) scale(0.12 -0.12)">
       <defs>
        <path id="ArialMT-35" d="M 266 1200 
L 856 1250 
Q 922 819 1161 601 
Q 1400 384 1738 384 
Q 2144 384 2425 690 
Q 2706 997 2706 1503 
Q 2706 1984 2436 2262 
Q 2166 2541 1728 2541 
Q 1456 2541 1237 2417 
Q 1019 2294 894 2097 
L 366 2166 
L 809 4519 
L 3088 4519 
L 3088 3981 
L 1259 3981 
L 1013 2750 
Q 1425 3038 1878 3038 
Q 2478 3038 2890 2622 
Q 3303 2206 3303 1553 
Q 3303 931 2941 478 
Q 2500 -78 1738 -78 
Q 1113 -78 717 272 
Q 322 622 266 1200 
z
" transform="scale(0.015625)"/>
       </defs>
       <use xlink:href="#ArialMT-35"/>
      </g>
     </g>
    </g>
    <g id="xtick_9">
     <g id="line2d_9">
      <path d="M 682.770996 372.1675 
L 682.770996 24.6525 
" clip-path="url(#pbb5c9dc3da)" style="fill: none; stroke: #cccccc; stroke-opacity: 0.3; stroke-width: 0.5; stroke-linecap: round"/>
     </g>
     <g id="text_9">
      <!-- 6 -->
      <g style="fill: #262626" transform="translate(679.434434 387.756875) scale(0.12 -0.12)">
       <defs>
        <path id="ArialMT-36" d="M 3184 3459 
L 2625 3416 
Q 2550 3747 2413 3897 
Q 2184 4138 1850 4138 
Q 1581 4138 1378 3988 
Q 1113 3794 959 3422 
Q 806 3050 800 2363 
Q 1003 2672 1297 2822 
Q 1591 2972 1913 2972 
Q 2475 2972 2870 2558 
Q 3266 2144 3266 1488 
Q 3266 1056 3080 686 
Q 2894 316 2569 119 
Q 2244 -78 1831 -78 
Q 1128 -78 684 439 
Q 241 956 241 2144 
Q 241 3472 731 4075 
Q 1159 4600 1884 4600 
Q 2425 4600 2770 4297 
Q 3116 3994 3184 3459 
z
M 888 1484 
Q 888 1194 1011 928 
Q 1134 663 1356 523 
Q 1578 384 1822 384 
Q 2178 384 2434 671 
Q 2691 959 2691 1453 
Q 2691 1928 2437 2201 
Q 2184 2475 1800 2475 
Q 1419 2475 1153 2201 
Q 888 1928 888 1484 
z
" transform="scale(0.015625)"/>
       </defs>
       <use xlink:href="#ArialMT-36"/>
      </g>
     </g>
    </g>
    <g id="text_10">
     <!-- Error (%) -->
     <g style="fill: #262626" transform="translate(352.515312 410.333438) scale(0.14 -0.14)">
      <defs>
       <path id="ArialMT-45" d="M 506 0 
L 506 4581 
L 3819 4581 
L 3819 4041 
L 1113 4041 
L 1113 2638 
L 3647 2638 
L 3647 2100 
L 1113 2100 
L 1113 541 
L 3925 541 
L 3925 0 
L 506 0 
z
" transform="scale(0.015625)"/>
       <path id="ArialMT-72" d="M 416 0 
L 416 3319 
L 922 3319 
L 922 2816 
Q 1116 3169 1280 3281 
Q 1444 3394 1641 3394 
Q 1925 3394 2219 3213 
L 2025 2691 
Q 1819 2813 1613 2813 
Q 1428 2813 1281 2702 
Q 1134 2591 1072 2394 
Q 978 2094 978 1738 
L 978 0 
L 416 0 
z
" transform="scale(0.015625)"/>
       <path id="ArialMT-6f" d="M 213 1659 
Q 213 2581 725 3025 
Q 1153 3394 1769 3394 
Q 2453 3394 2887 2945 
Q 3322 2497 3322 1706 
Q 3322 1066 3130 698 
Q 2938 331 2570 128 
Q 2203 -75 1769 -75 
Q 1072 -75 642 372 
Q 213 819 213 1659 
z
M 791 1659 
Q 791 1022 1069 705 
Q 1347 388 1769 388 
Q 2188 388 2466 706 
Q 2744 1025 2744 1678 
Q 2744 2294 2464 2611 
Q 2184 2928 1769 2928 
Q 1347 2928 1069 2612 
Q 791 2297 791 1659 
z
" transform="scale(0.015625)"/>
       <path id="ArialMT-20" transform="scale(0.015625)"/>
       <path id="ArialMT-28" d="M 1497 -1347 
Q 1031 -759 709 28 
Q 388 816 388 1659 
Q 388 2403 628 3084 
Q 909 3875 1497 4659 
L 1900 4659 
Q 1522 4009 1400 3731 
Q 1209 3300 1100 2831 
Q 966 2247 966 1656 
Q 966 153 1900 -1347 
L 1497 -1347 
z
" transform="scale(0.015625)"/>
       <path id="ArialMT-25" d="M 372 3481 
Q 372 3972 619 4315 
Q 866 4659 1334 4659 
Q 1766 4659 2048 4351 
Q 2331 4044 2331 3447 
Q 2331 2866 2045 2552 
Q 1759 2238 1341 2238 
Q 925 2238 648 2547 
Q 372 2856 372 3481 
z
M 1350 4272 
Q 1141 4272 1002 4090 
Q 863 3909 863 3425 
Q 863 2984 1003 2804 
Q 1144 2625 1350 2625 
Q 1563 2625 1702 2806 
Q 1841 2988 1841 3469 
Q 1841 3913 1700 4092 
Q 1559 4272 1350 4272 
z
M 1353 -169 
L 3859 4659 
L 4316 4659 
L 1819 -169 
L 1353 -169 
z
M 3334 1075 
Q 3334 1569 3581 1911 
Q 3828 2253 4300 2253 
Q 4731 2253 5014 1945 
Q 5297 1638 5297 1041 
Q 5297 459 5011 145 
Q 4725 -169 4303 -169 
Q 3888 -169 3611 142 
Q 3334 453 3334 1075 
z
M 4316 1866 
Q 4103 1866 3964 1684 
Q 3825 1503 3825 1019 
Q 3825 581 3965 400 
Q 4106 219 4313 219 
Q 4528 219 4667 400 
Q 4806 581 4806 1063 
Q 4806 1506 4665 1686 
Q 4525 1866 4316 1866 
z
" transform="scale(0.015625)"/>
       <path id="ArialMT-29" d="M 791 -1347 
L 388 -1347 
Q 1322 153 1322 1656 
Q 1322 2244 1188 2822 
Q 1081 3291 891 3722 
Q 769 4003 388 4659 
L 791 4659 
Q 1378 3875 1659 3084 
Q 1900 2403 1900 1659 
Q 1900 816 1576 28 
Q 1253 -759 791 -1347 
z
" transform="scale(0.015625)"/>
      </defs>
      <use xlink:href="#ArialMT-45"/>
      <use xlink:href="#ArialMT-72" x="66.699219"/>
      <use xlink:href="#ArialMT-72" x="100"/>
      <use xlink:href="#ArialMT-6f" x="133.300781"/>
      <use xlink:href="#ArialMT-72" x="188.916016"/>
      <use xlink:href="#ArialMT-20" x="222.216797"/>
      <use xlink:href="#ArialMT-28" x="250"/>
      <use xlink:href="#ArialMT-25" x="283.300781"/>
      <use xlink:href="#ArialMT-29" x="372.216797"/>
     </g>
    </g>
   </g>
   <g id="matplotlib.axis_2">
    <g id="ytick_1">
     <g id="line2d_10">
      <path d="M 60.520625 372.1675 
L 701.28 372.1675 
" clip-path="url(#pbb5c9dc3da)" style="fill: none; stroke: #cccccc; stroke-opacity: 0.3; stroke-width: 0.5; stroke-linecap: round"/>
     </g>
     <g id="text_11">
      <!-- 0.00 -->
      <g style="fill: #262626" transform="translate(30.1675 376.462188) scale(0.12 -0.12)">
       <defs>
        <path id="ArialMT-2e" d="M 581 0 
L 581 641 
L 1222 641 
L 1222 0 
L 581 0 
z
" transform="scale(0.015625)"/>
       </defs>
       <use xlink:href="#ArialMT-30"/>
       <use xlink:href="#ArialMT-2e" x="55.615234"/>
       <use xlink:href="#ArialMT-30" x="83.398438"/>
       <use xlink:href="#ArialMT-30" x="139.013672"/>
      </g>
     </g>
    </g>
    <g id="ytick_2">
     <g id="line2d_11">
      <path d="M 60.520625 327.014155 
L 701.28 327.014155 
" clip-path="url(#pbb5c9dc3da)" style="fill: none; stroke: #cccccc; stroke-opacity: 0.3; stroke-width: 0.5; stroke-linecap: round"/>
     </g>
     <g id="text_12">
      <!-- 0.05 -->
      <g style="fill: #262626" transform="translate(30.1675 331.308842) scale(0.12 -0.12)">
       <use xlink:href="#ArialMT-30"/>
       <use xlink:href="#ArialMT-2e" x="55.615234"/>
       <use xlink:href="#ArialMT-30" x="83.398438"/>
       <use xlink:href="#ArialMT-35" x="139.013672"/>
      </g>
     </g>
    </g>
    <g id="ytick_3">
     <g id="line2d_12">
      <path d="M 60.520625 281.860809 
L 701.28 281.860809 
" clip-path="url(#pbb5c9dc3da)" style="fill: none; stroke: #cccccc; stroke-opacity: 0.3; stroke-width: 0.5; stroke-linecap: round"/>
     </g>
     <g id="text_13">
      <!-- 0.10 -->
      <g style="fill: #262626" transform="translate(30.1675 286.155497) scale(0.12 -0.12)">
       <use xlink:href="#ArialMT-30"/>
       <use xlink:href="#ArialMT-2e" x="55.615234"/>
       <use xlink:href="#ArialMT-31" x="83.398438"/>
       <use xlink:href="#ArialMT-30" x="139.013672"/>
      </g>
     </g>
    </g>
    <g id="ytick_4">
     <g id="line2d_13">
      <path d="M 60.520625 236.707464 
L 701.28 236.707464 
" clip-path="url(#pbb5c9dc3da)" style="fill: none; stroke: #cccccc; stroke-opacity: 0.3; stroke-width: 0.5; stroke-linecap: round"/>
     </g>
     <g id="text_14">
      <!-- 0.15 -->
      <g style="fill: #262626" transform="translate(30.1675 241.002151) scale(0.12 -0.12)">
       <use xlink:href="#ArialMT-30"/>
       <use xlink:href="#ArialMT-2e" x="55.615234"/>
       <use xlink:href="#ArialMT-31" x="83.398438"/>
       <use xlink:href="#ArialMT-35" x="139.013672"/>
      </g>
     </g>
    </g>
    <g id="ytick_5">
     <g id="line2d_14">
      <path d="M 60.520625 191.554118 
L 701.28 191.554118 
" clip-path="url(#pbb5c9dc3da)" style="fill: none; stroke: #cccccc; stroke-opacity: 0.3; stroke-width: 0.5; stroke-linecap: round"/>
     </g>
     <g id="text_15">
      <!-- 0.20 -->
      <g style="fill: #262626" transform="translate(30.1675 195.848806) scale(0.12 -0.12)">
       <use xlink:href="#ArialMT-30"/>
       <use xlink:href="#ArialMT-2e" x="55.615234"/>
       <use xlink:href="#ArialMT-32" x="83.398438"/>
       <use xlink:href="#ArialMT-30" x="139.013672"/>
      </g>
     </g>
    </g>
    <g id="ytick_6">
     <g id="line2d_15">
      <path d="M 60.520625 146.400773 
L 701.28 146.400773 
" clip-path="url(#pbb5c9dc3da)" style="fill: none; stroke: #cccccc; stroke-opacity: 0.3; stroke-width: 0.5; stroke-linecap: round"/>
     </g>
     <g id="text_16">
      <!-- 0.25 -->
      <g style="fill: #262626" transform="translate(30.1675 150.69546) scale(0.12 -0.12)">
       <use xlink:href="#ArialMT-30"/>
       <use xlink:href="#ArialMT-2e" x="55.615234"/>
       <use xlink:href="#ArialMT-32" x="83.398438"/>
       <use xlink:href="#ArialMT-35" x="139.013672"/>
      </g>
     </g>
    </g>
    <g id="ytick_7">
     <g id="line2d_16">
      <path d="M 60.520625 101.247427 
L 701.28 101.247427 
" clip-path="url(#pbb5c9dc3da)" style="fill: none; stroke: #cccccc; stroke-opacity: 0.3; stroke-width: 0.5; stroke-linecap: round"/>
     </g>
     <g id="text_17">
      <!-- 0.30 -->
      <g style="fill: #262626" transform="translate(30.1675 105.542115) scale(0.12 -0.12)">
       <use xlink:href="#ArialMT-30"/>
       <use xlink:href="#ArialMT-2e" x="55.615234"/>
       <use xlink:href="#ArialMT-33" x="83.398438"/>
       <use xlink:href="#ArialMT-30" x="139.013672"/>
      </g>
     </g>
    </g>
    <g id="ytick_8">
     <g id="line2d_17">
      <path d="M 60.520625 56.094082 
L 701.28 56.094082 
" clip-path="url(#pbb5c9dc3da)" style="fill: none; stroke: #cccccc; stroke-opacity: 0.3; stroke-width: 0.5; stroke-linecap: round"/>
     </g>
     <g id="text_18">
      <!-- 0.35 -->
      <g style="fill: #262626" transform="translate(30.1675 60.388769) scale(0.12 -0.12)">
       <use xlink:href="#ArialMT-30"/>
       <use xlink:href="#ArialMT-2e" x="55.615234"/>
       <use xlink:href="#ArialMT-33" x="83.398438"/>
       <use xlink:href="#ArialMT-35" x="139.013672"/>
      </g>
     </g>
    </g>
    <g id="text_19">
     <!-- Density -->
     <g style="fill: #262626" transform="translate(17.220938 221.750625) rotate(-90) scale(0.14 -0.14)">
      <defs>
       <path id="ArialMT-44" d="M 494 0 
L 494 4581 
L 2072 4581 
Q 2606 4581 2888 4516 
Q 3281 4425 3559 4188 
Q 3922 3881 4101 3404 
Q 4281 2928 4281 2316 
Q 4281 1794 4159 1391 
Q 4038 988 3847 723 
Q 3656 459 3429 307 
Q 3203 156 2883 78 
Q 2563 0 2147 0 
L 494 0 
z
M 1100 541 
L 2078 541 
Q 2531 541 2789 625 
Q 3047 709 3200 863 
Q 3416 1078 3536 1442 
Q 3656 1806 3656 2325 
Q 3656 3044 3420 3430 
Q 3184 3816 2847 3947 
Q 2603 4041 2063 4041 
L 1100 4041 
L 1100 541 
z
" transform="scale(0.015625)"/>
       <path id="ArialMT-65" d="M 2694 1069 
L 3275 997 
Q 3138 488 2766 206 
Q 2394 -75 1816 -75 
Q 1088 -75 661 373 
Q 234 822 234 1631 
Q 234 2469 665 2931 
Q 1097 3394 1784 3394 
Q 2450 3394 2872 2941 
Q 3294 2488 3294 1666 
Q 3294 1616 3291 1516 
L 816 1516 
Q 847 969 1125 678 
Q 1403 388 1819 388 
Q 2128 388 2347 550 
Q 2566 713 2694 1069 
z
M 847 1978 
L 2700 1978 
Q 2663 2397 2488 2606 
Q 2219 2931 1791 2931 
Q 1403 2931 1139 2672 
Q 875 2413 847 1978 
z
" transform="scale(0.015625)"/>
       <path id="ArialMT-6e" d="M 422 0 
L 422 3319 
L 928 3319 
L 928 2847 
Q 1294 3394 1984 3394 
Q 2284 3394 2536 3286 
Q 2788 3178 2913 3003 
Q 3038 2828 3088 2588 
Q 3119 2431 3119 2041 
L 3119 0 
L 2556 0 
L 2556 2019 
Q 2556 2363 2490 2533 
Q 2425 2703 2258 2804 
Q 2091 2906 1866 2906 
Q 1506 2906 1245 2678 
Q 984 2450 984 1813 
L 984 0 
L 422 0 
z
" transform="scale(0.015625)"/>
       <path id="ArialMT-73" d="M 197 991 
L 753 1078 
Q 800 744 1014 566 
Q 1228 388 1613 388 
Q 2000 388 2187 545 
Q 2375 703 2375 916 
Q 2375 1106 2209 1216 
Q 2094 1291 1634 1406 
Q 1016 1563 777 1677 
Q 538 1791 414 1992 
Q 291 2194 291 2438 
Q 291 2659 392 2848 
Q 494 3038 669 3163 
Q 800 3259 1026 3326 
Q 1253 3394 1513 3394 
Q 1903 3394 2198 3281 
Q 2494 3169 2634 2976 
Q 2775 2784 2828 2463 
L 2278 2388 
Q 2241 2644 2061 2787 
Q 1881 2931 1553 2931 
Q 1166 2931 1000 2803 
Q 834 2675 834 2503 
Q 834 2394 903 2306 
Q 972 2216 1119 2156 
Q 1203 2125 1616 2013 
Q 2213 1853 2448 1751 
Q 2684 1650 2818 1456 
Q 2953 1263 2953 975 
Q 2953 694 2789 445 
Q 2625 197 2315 61 
Q 2006 -75 1616 -75 
Q 969 -75 630 194 
Q 291 463 197 991 
z
" transform="scale(0.015625)"/>
       <path id="ArialMT-69" d="M 425 3934 
L 425 4581 
L 988 4581 
L 988 3934 
L 425 3934 
z
M 425 0 
L 425 3319 
L 988 3319 
L 988 0 
L 425 0 
z
" transform="scale(0.015625)"/>
       <path id="ArialMT-74" d="M 1650 503 
L 1731 6 
Q 1494 -44 1306 -44 
Q 1000 -44 831 53 
Q 663 150 594 308 
Q 525 466 525 972 
L 525 2881 
L 113 2881 
L 113 3319 
L 525 3319 
L 525 4141 
L 1084 4478 
L 1084 3319 
L 1650 3319 
L 1650 2881 
L 1084 2881 
L 1084 941 
Q 1084 700 1114 631 
Q 1144 563 1211 522 
Q 1278 481 1403 481 
Q 1497 481 1650 503 
z
" transform="scale(0.015625)"/>
       <path id="ArialMT-79" d="M 397 -1278 
L 334 -750 
Q 519 -800 656 -800 
Q 844 -800 956 -737 
Q 1069 -675 1141 -563 
Q 1194 -478 1313 -144 
Q 1328 -97 1363 -6 
L 103 3319 
L 709 3319 
L 1400 1397 
Q 1534 1031 1641 628 
Q 1738 1016 1872 1384 
L 2581 3319 
L 3144 3319 
L 1881 -56 
Q 1678 -603 1566 -809 
Q 1416 -1088 1222 -1217 
Q 1028 -1347 759 -1347 
Q 597 -1347 397 -1278 
z
" transform="scale(0.015625)"/>
      </defs>
      <use xlink:href="#ArialMT-44"/>
      <use xlink:href="#ArialMT-65" x="72.216797"/>
      <use xlink:href="#ArialMT-6e" x="127.832031"/>
      <use xlink:href="#ArialMT-73" x="183.447266"/>
      <use xlink:href="#ArialMT-69" x="233.447266"/>
      <use xlink:href="#ArialMT-74" x="255.664062"/>
      <use xlink:href="#ArialMT-79" x="283.447266"/>
     </g>
    </g>
   </g>
   <g id="PolyCollection_1">
    <defs>
     <path id="m91c6aefc00" d="M 120.073472 -48.89366 
L 120.073472 -48.3125 
L 122.847748 -48.3125 
L 125.622025 -48.3125 
L 128.396302 -48.3125 
L 131.170579 -48.3125 
L 133.944856 -48.3125 
L 136.719133 -48.3125 
L 139.49341 -48.3125 
L 142.267687 -48.3125 
L 145.041964 -48.3125 
L 147.81624 -48.3125 
L 150.590517 -48.3125 
L 153.364794 -48.3125 
L 156.139071 -48.3125 
L 158.913348 -48.3125 
L 161.687625 -48.3125 
L 164.461902 -48.3125 
L 167.236179 -48.3125 
L 170.010456 -48.3125 
L 172.784733 -48.3125 
L 175.559009 -48.3125 
L 178.333286 -48.3125 
L 181.107563 -48.3125 
L 183.88184 -48.3125 
L 186.656117 -48.3125 
L 189.430394 -48.3125 
L 192.204671 -48.3125 
L 194.978948 -48.3125 
L 197.753225 -48.3125 
L 200.527502 -48.3125 
L 203.301778 -48.3125 
L 206.076055 -48.3125 
L 208.850332 -48.3125 
L 211.624609 -48.3125 
L 214.398886 -48.3125 
L 217.173163 -48.3125 
L 219.94744 -48.3125 
L 222.721717 -48.3125 
L 225.495994 -48.3125 
L 228.27027 -48.3125 
L 231.044547 -48.3125 
L 233.818824 -48.3125 
L 236.593101 -48.3125 
L 239.367378 -48.3125 
L 242.141655 -48.3125 
L 244.915932 -48.3125 
L 247.690209 -48.3125 
L 250.464486 -48.3125 
L 253.238763 -48.3125 
L 256.013039 -48.3125 
L 258.787316 -48.3125 
L 261.561593 -48.3125 
L 264.33587 -48.3125 
L 267.110147 -48.3125 
L 269.884424 -48.3125 
L 272.658701 -48.3125 
L 275.432978 -48.3125 
L 278.207255 -48.3125 
L 280.981531 -48.3125 
L 283.755808 -48.3125 
L 286.530085 -48.3125 
L 289.304362 -48.3125 
L 292.078639 -48.3125 
L 294.852916 -48.3125 
L 297.627193 -48.3125 
L 300.40147 -48.3125 
L 303.175747 -48.3125 
L 305.950024 -48.3125 
L 308.7243 -48.3125 
L 311.498577 -48.3125 
L 314.272854 -48.3125 
L 317.047131 -48.3125 
L 319.821408 -48.3125 
L 322.595685 -48.3125 
L 325.369962 -48.3125 
L 328.144239 -48.3125 
L 330.918516 -48.3125 
L 333.692793 -48.3125 
L 336.467069 -48.3125 
L 339.241346 -48.3125 
L 342.015623 -48.3125 
L 344.7899 -48.3125 
L 347.564177 -48.3125 
L 350.338454 -48.3125 
L 353.112731 -48.3125 
L 355.887008 -48.3125 
L 358.661285 -48.3125 
L 361.435561 -48.3125 
L 364.209838 -48.3125 
L 366.984115 -48.3125 
L 369.758392 -48.3125 
L 372.532669 -48.3125 
L 375.306946 -48.3125 
L 378.081223 -48.3125 
L 380.8555 -48.3125 
L 383.629777 -48.3125 
L 386.404054 -48.3125 
L 389.17833 -48.3125 
L 391.952607 -48.3125 
L 394.726884 -48.3125 
L 397.501161 -48.3125 
L 400.275438 -48.3125 
L 403.049715 -48.3125 
L 405.823992 -48.3125 
L 408.598269 -48.3125 
L 411.372546 -48.3125 
L 414.146823 -48.3125 
L 416.921099 -48.3125 
L 419.695376 -48.3125 
L 422.469653 -48.3125 
L 425.24393 -48.3125 
L 428.018207 -48.3125 
L 430.792484 -48.3125 
L 433.566761 -48.3125 
L 436.341038 -48.3125 
L 439.115315 -48.3125 
L 441.889591 -48.3125 
L 444.663868 -48.3125 
L 447.438145 -48.3125 
L 450.212422 -48.3125 
L 452.986699 -48.3125 
L 455.760976 -48.3125 
L 458.535253 -48.3125 
L 461.30953 -48.3125 
L 464.083807 -48.3125 
L 466.858084 -48.3125 
L 469.63236 -48.3125 
L 472.406637 -48.3125 
L 475.180914 -48.3125 
L 477.955191 -48.3125 
L 480.729468 -48.3125 
L 483.503745 -48.3125 
L 486.278022 -48.3125 
L 489.052299 -48.3125 
L 491.826576 -48.3125 
L 494.600853 -48.3125 
L 497.375129 -48.3125 
L 500.149406 -48.3125 
L 502.923683 -48.3125 
L 505.69796 -48.3125 
L 508.472237 -48.3125 
L 511.246514 -48.3125 
L 514.020791 -48.3125 
L 516.795068 -48.3125 
L 519.569345 -48.3125 
L 522.343621 -48.3125 
L 525.117898 -48.3125 
L 527.892175 -48.3125 
L 530.666452 -48.3125 
L 533.440729 -48.3125 
L 536.215006 -48.3125 
L 538.989283 -48.3125 
L 541.76356 -48.3125 
L 544.537837 -48.3125 
L 547.312114 -48.3125 
L 550.08639 -48.3125 
L 552.860667 -48.3125 
L 555.634944 -48.3125 
L 558.409221 -48.3125 
L 561.183498 -48.3125 
L 563.957775 -48.3125 
L 566.732052 -48.3125 
L 569.506329 -48.3125 
L 572.280606 -48.3125 
L 575.054882 -48.3125 
L 577.829159 -48.3125 
L 580.603436 -48.3125 
L 583.377713 -48.3125 
L 586.15199 -48.3125 
L 588.926267 -48.3125 
L 591.700544 -48.3125 
L 594.474821 -48.3125 
L 597.249098 -48.3125 
L 600.023375 -48.3125 
L 602.797651 -48.3125 
L 605.571928 -48.3125 
L 608.346205 -48.3125 
L 611.120482 -48.3125 
L 613.894759 -48.3125 
L 616.669036 -48.3125 
L 619.443313 -48.3125 
L 622.21759 -48.3125 
L 624.991867 -48.3125 
L 627.766144 -48.3125 
L 630.54042 -48.3125 
L 633.314697 -48.3125 
L 636.088974 -48.3125 
L 638.863251 -48.3125 
L 641.637528 -48.3125 
L 644.411805 -48.3125 
L 647.186082 -48.3125 
L 649.960359 -48.3125 
L 652.734636 -48.3125 
L 655.508912 -48.3125 
L 658.283189 -48.3125 
L 661.057466 -48.3125 
L 663.831743 -48.3125 
L 666.60602 -48.3125 
L 669.380297 -48.3125 
L 672.154574 -48.3125 
L 672.154574 -48.615352 
L 672.154574 -48.615352 
L 669.380297 -48.683489 
L 666.60602 -48.765145 
L 663.831743 -48.862582 
L 661.057466 -48.978348 
L 658.283189 -49.115299 
L 655.508912 -49.276612 
L 652.734636 -49.465806 
L 649.960359 -49.686747 
L 647.186082 -49.943655 
L 644.411805 -50.241106 
L 641.637528 -50.584028 
L 638.863251 -50.977685 
L 636.088974 -51.427663 
L 633.314697 -51.939837 
L 630.54042 -52.52034 
L 627.766144 -53.175517 
L 624.991867 -53.911868 
L 622.21759 -54.735995 
L 619.443313 -55.654526 
L 616.669036 -56.67404 
L 613.894759 -57.800991 
L 611.120482 -59.041613 
L 608.346205 -60.401839 
L 605.571928 -61.887203 
L 602.797651 -63.50276 
L 600.023375 -65.252989 
L 597.249098 -67.14172 
L 594.474821 -69.172056 
L 591.700544 -71.346306 
L 588.926267 -73.665934 
L 586.15199 -76.131515 
L 583.377713 -78.742704 
L 580.603436 -81.498221 
L 577.829159 -84.395852 
L 575.054882 -87.432459 
L 572.280606 -90.604006 
L 569.506329 -93.905598 
L 566.732052 -97.331526 
L 563.957775 -100.87533 
L 561.183498 -104.529854 
L 558.409221 -108.28732 
L 555.634944 -112.139393 
L 552.860667 -116.077254 
L 550.08639 -120.091661 
L 547.312114 -124.173015 
L 544.537837 -128.311416 
L 541.76356 -132.496712 
L 538.989283 -136.718542 
L 536.215006 -140.966378 
L 533.440729 -145.229551 
L 530.666452 -149.497282 
L 527.892175 -153.758706 
L 525.117898 -158.002897 
L 522.343621 -162.218895 
L 519.569345 -166.395738 
L 516.795068 -170.522496 
L 514.020791 -174.588321 
L 511.246514 -178.582503 
L 508.472237 -182.494535 
L 505.69796 -186.314195 
L 502.923683 -190.031635 
L 500.149406 -193.637485 
L 497.375129 -197.122962 
L 494.600853 -200.479988 
L 491.826576 -203.701312 
L 489.052299 -206.780631 
L 486.278022 -209.712707 
L 483.503745 -212.49348 
L 480.729468 -215.120168 
L 477.955191 -217.591354 
L 475.180914 -219.90705 
L 472.406637 -222.068745 
L 469.63236 -224.079432 
L 466.858084 -225.943604 
L 464.083807 -227.667233 
L 461.30953 -229.257717 
L 458.535253 -230.723809 
L 455.760976 -232.07552 
L 452.986699 -233.324009 
L 450.212422 -234.481448 
L 447.438145 -235.560879 
L 444.663868 -236.57606 
L 441.889591 -237.541301 
L 439.115315 -238.4713 
L 436.341038 -239.38098 
L 433.566761 -240.285317 
L 430.792484 -241.19919 
L 428.018207 -242.137217 
L 425.24393 -243.113611 
L 422.469653 -244.142042 
L 419.695376 -245.235499 
L 416.921099 -246.406169 
L 414.146823 -247.665319 
L 411.372546 -249.023182 
L 408.598269 -250.488855 
L 405.823992 -252.070202 
L 403.049715 -253.773758 
L 400.275438 -255.604647 
L 397.501161 -257.566499 
L 394.726884 -259.661378 
L 391.952607 -261.889717 
L 389.17833 -264.250262 
L 386.404054 -266.740028 
L 383.629777 -269.354261 
L 380.8555 -272.086423 
L 378.081223 -274.928185 
L 375.306946 -277.869437 
L 372.532669 -280.898317 
L 369.758392 -284.00126 
L 366.984115 -287.163057 
L 364.209838 -290.366942 
L 361.435561 -293.594691 
L 358.661285 -296.826739 
L 355.887008 -300.042311 
L 353.112731 -303.219571 
L 350.338454 -306.335775 
L 347.564177 -309.367445 
L 344.7899 -312.290538 
L 342.015623 -315.080632 
L 339.241346 -317.713109 
L 336.467069 -320.163339 
L 333.692793 -322.406872 
L 330.918516 -324.419618 
L 328.144239 -326.178036 
L 325.369962 -327.659311 
L 322.595685 -328.841531 
L 319.821408 -329.703863 
L 317.047131 -330.22672 
L 314.272854 -330.391927 
L 311.498577 -330.182882 
L 308.7243 -329.584716 
L 305.950024 -328.58444 
L 303.175747 -327.171099 
L 300.40147 -325.335908 
L 297.627193 -323.07239 
L 294.852916 -320.3765 
L 292.078639 -317.246745 
L 289.304362 -313.684278 
L 286.530085 -309.692995 
L 283.755808 -305.279596 
L 280.981531 -300.453637 
L 278.207255 -295.227548 
L 275.432978 -289.616633 
L 272.658701 -283.639027 
L 269.884424 -277.315632 
L 267.110147 -270.670007 
L 264.33587 -263.72823 
L 261.561593 -256.518715 
L 258.787316 -249.071997 
L 256.013039 -241.420476 
L 253.238763 -233.598133 
L 250.464486 -225.640209 
L 247.690209 -217.582863 
L 244.915932 -209.462804 
L 242.141655 -201.316912 
L 239.367378 -193.181845 
L 236.593101 -185.093652 
L 233.818824 -177.087383 
L 231.044547 -169.19672 
L 228.27027 -161.453624 
L 225.495994 -153.888012 
L 222.721717 -146.527466 
L 219.94744 -139.396987 
L 217.173163 -132.518781 
L 214.398886 -125.912109 
L 211.624609 -119.593172 
L 208.850332 -113.575053 
L 206.076055 -107.86771 
L 203.301778 -102.478018 
L 200.527502 -97.409852 
L 197.753225 -92.664217 
L 194.978948 -88.239414 
L 192.204671 -84.13124 
L 189.430394 -80.333211 
L 186.656117 -76.836809 
L 183.88184 -73.631745 
L 181.107563 -70.706219 
L 178.333286 -68.047199 
L 175.559009 -65.640683 
L 172.784733 -63.471957 
L 170.010456 -61.525842 
L 167.236179 -59.786925 
L 164.461902 -58.239763 
L 161.687625 -56.869077 
L 158.913348 -55.659914 
L 156.139071 -54.597788 
L 153.364794 -53.668798 
L 150.590517 -52.859722 
L 147.81624 -52.158089 
L 145.041964 -51.552226 
L 142.267687 -51.031296 
L 139.49341 -50.585303 
L 136.719133 -50.205098 
L 133.944856 -49.88236 
L 131.170579 -49.609574 
L 128.396302 -49.379992 
L 125.622025 -49.187596 
L 122.847748 -49.027053 
L 120.073472 -48.89366 
z
" style="stroke: #2ecc71"/>
    </defs>
    <g clip-path="url(#pbb5c9dc3da)">
     <use xlink:href="#m91c6aefc00" x="0" y="420.48" style="fill: #2ecc71; fill-opacity: 0.3; stroke: #2ecc71"/>
    </g>
   </g>
   <g id="PolyCollection_2">
    <defs>
     <path id="m8741790d67" d="M 89.646051 -50.03425 
L 89.646051 -48.3125 
L 91.77262 -48.3125 
L 93.899189 -48.3125 
L 96.025757 -48.3125 
L 98.152326 -48.3125 
L 100.278895 -48.3125 
L 102.405464 -48.3125 
L 104.532033 -48.3125 
L 106.658601 -48.3125 
L 108.78517 -48.3125 
L 110.911739 -48.3125 
L 113.038308 -48.3125 
L 115.164876 -48.3125 
L 117.291445 -48.3125 
L 119.418014 -48.3125 
L 121.544583 -48.3125 
L 123.671152 -48.3125 
L 125.79772 -48.3125 
L 127.924289 -48.3125 
L 130.050858 -48.3125 
L 132.177427 -48.3125 
L 134.303996 -48.3125 
L 136.430564 -48.3125 
L 138.557133 -48.3125 
L 140.683702 -48.3125 
L 142.810271 -48.3125 
L 144.936839 -48.3125 
L 147.063408 -48.3125 
L 149.189977 -48.3125 
L 151.316546 -48.3125 
L 153.443115 -48.3125 
L 155.569683 -48.3125 
L 157.696252 -48.3125 
L 159.822821 -48.3125 
L 161.94939 -48.3125 
L 164.075958 -48.3125 
L 166.202527 -48.3125 
L 168.329096 -48.3125 
L 170.455665 -48.3125 
L 172.582234 -48.3125 
L 174.708802 -48.3125 
L 176.835371 -48.3125 
L 178.96194 -48.3125 
L 181.088509 -48.3125 
L 183.215077 -48.3125 
L 185.341646 -48.3125 
L 187.468215 -48.3125 
L 189.594784 -48.3125 
L 191.721353 -48.3125 
L 193.847921 -48.3125 
L 195.97449 -48.3125 
L 198.101059 -48.3125 
L 200.227628 -48.3125 
L 202.354196 -48.3125 
L 204.480765 -48.3125 
L 206.607334 -48.3125 
L 208.733903 -48.3125 
L 210.860472 -48.3125 
L 212.98704 -48.3125 
L 215.113609 -48.3125 
L 217.240178 -48.3125 
L 219.366747 -48.3125 
L 221.493316 -48.3125 
L 223.619884 -48.3125 
L 225.746453 -48.3125 
L 227.873022 -48.3125 
L 229.999591 -48.3125 
L 232.126159 -48.3125 
L 234.252728 -48.3125 
L 236.379297 -48.3125 
L 238.505866 -48.3125 
L 240.632435 -48.3125 
L 242.759003 -48.3125 
L 244.885572 -48.3125 
L 247.012141 -48.3125 
L 249.13871 -48.3125 
L 251.265278 -48.3125 
L 253.391847 -48.3125 
L 255.518416 -48.3125 
L 257.644985 -48.3125 
L 259.771554 -48.3125 
L 261.898122 -48.3125 
L 264.024691 -48.3125 
L 266.15126 -48.3125 
L 268.277829 -48.3125 
L 270.404397 -48.3125 
L 272.530966 -48.3125 
L 274.657535 -48.3125 
L 276.784104 -48.3125 
L 278.910673 -48.3125 
L 281.037241 -48.3125 
L 283.16381 -48.3125 
L 285.290379 -48.3125 
L 287.416948 -48.3125 
L 289.543516 -48.3125 
L 291.670085 -48.3125 
L 293.796654 -48.3125 
L 295.923223 -48.3125 
L 298.049792 -48.3125 
L 300.17636 -48.3125 
L 302.302929 -48.3125 
L 304.429498 -48.3125 
L 306.556067 -48.3125 
L 308.682635 -48.3125 
L 310.809204 -48.3125 
L 312.935773 -48.3125 
L 315.062342 -48.3125 
L 317.188911 -48.3125 
L 319.315479 -48.3125 
L 321.442048 -48.3125 
L 323.568617 -48.3125 
L 325.695186 -48.3125 
L 327.821755 -48.3125 
L 329.948323 -48.3125 
L 332.074892 -48.3125 
L 334.201461 -48.3125 
L 336.32803 -48.3125 
L 338.454598 -48.3125 
L 340.581167 -48.3125 
L 342.707736 -48.3125 
L 344.834305 -48.3125 
L 346.960874 -48.3125 
L 349.087442 -48.3125 
L 351.214011 -48.3125 
L 353.34058 -48.3125 
L 355.467149 -48.3125 
L 357.593717 -48.3125 
L 359.720286 -48.3125 
L 361.846855 -48.3125 
L 363.973424 -48.3125 
L 366.099993 -48.3125 
L 368.226561 -48.3125 
L 370.35313 -48.3125 
L 372.479699 -48.3125 
L 374.606268 -48.3125 
L 376.732836 -48.3125 
L 378.859405 -48.3125 
L 380.985974 -48.3125 
L 383.112543 -48.3125 
L 385.239112 -48.3125 
L 387.36568 -48.3125 
L 389.492249 -48.3125 
L 391.618818 -48.3125 
L 393.745387 -48.3125 
L 395.871955 -48.3125 
L 397.998524 -48.3125 
L 400.125093 -48.3125 
L 402.251662 -48.3125 
L 404.378231 -48.3125 
L 406.504799 -48.3125 
L 408.631368 -48.3125 
L 410.757937 -48.3125 
L 412.884506 -48.3125 
L 415.011074 -48.3125 
L 417.137643 -48.3125 
L 419.264212 -48.3125 
L 421.390781 -48.3125 
L 423.51735 -48.3125 
L 425.643918 -48.3125 
L 427.770487 -48.3125 
L 429.897056 -48.3125 
L 432.023625 -48.3125 
L 434.150194 -48.3125 
L 436.276762 -48.3125 
L 438.403331 -48.3125 
L 440.5299 -48.3125 
L 442.656469 -48.3125 
L 444.783037 -48.3125 
L 446.909606 -48.3125 
L 449.036175 -48.3125 
L 451.162744 -48.3125 
L 453.289313 -48.3125 
L 455.415881 -48.3125 
L 457.54245 -48.3125 
L 459.669019 -48.3125 
L 461.795588 -48.3125 
L 463.922156 -48.3125 
L 466.048725 -48.3125 
L 468.175294 -48.3125 
L 470.301863 -48.3125 
L 472.428432 -48.3125 
L 474.555 -48.3125 
L 476.681569 -48.3125 
L 478.808138 -48.3125 
L 480.934707 -48.3125 
L 483.061275 -48.3125 
L 485.187844 -48.3125 
L 487.314413 -48.3125 
L 489.440982 -48.3125 
L 491.567551 -48.3125 
L 493.694119 -48.3125 
L 495.820688 -48.3125 
L 497.947257 -48.3125 
L 500.073826 -48.3125 
L 502.200394 -48.3125 
L 504.326963 -48.3125 
L 506.453532 -48.3125 
L 508.580101 -48.3125 
L 510.70667 -48.3125 
L 512.833238 -48.3125 
L 512.833238 -50.158532 
L 512.833238 -50.158532 
L 510.70667 -50.427719 
L 508.580101 -50.731535 
L 506.453532 -51.073718 
L 504.326963 -51.458302 
L 502.200394 -51.889634 
L 500.073826 -52.372377 
L 497.947257 -52.911519 
L 495.820688 -53.512377 
L 493.694119 -54.180597 
L 491.567551 -54.922154 
L 489.440982 -55.743345 
L 487.314413 -56.650784 
L 485.187844 -57.651386 
L 483.061275 -58.752351 
L 480.934707 -59.961143 
L 478.808138 -61.285461 
L 476.681569 -62.733213 
L 474.555 -64.31247 
L 472.428432 -66.031429 
L 470.301863 -67.898365 
L 468.175294 -69.921574 
L 466.048725 -72.109313 
L 463.922156 -74.469737 
L 461.795588 -77.010829 
L 459.669019 -79.740322 
L 457.54245 -82.665619 
L 455.415881 -85.793714 
L 453.289313 -89.1311 
L 451.162744 -92.683682 
L 449.036175 -96.456684 
L 446.909606 -100.454559 
L 444.783037 -104.680894 
L 442.656469 -109.138322 
L 440.5299 -113.828436 
L 438.403331 -118.751696 
L 436.276762 -123.907361 
L 434.150194 -129.293407 
L 432.023625 -134.906466 
L 429.897056 -140.74177 
L 427.770487 -146.793099 
L 425.643918 -153.052756 
L 423.51735 -159.511535 
L 421.390781 -166.158719 
L 419.264212 -172.982083 
L 417.137643 -179.967916 
L 415.011074 -187.101059 
L 412.884506 -194.364957 
L 410.757937 -201.741733 
L 408.631368 -209.212269 
L 406.504799 -216.756317 
L 404.378231 -224.352614 
L 402.251662 -231.979014 
L 400.125093 -239.612647 
L 397.998524 -247.230069 
L 395.871955 -254.807446 
L 393.745387 -262.320733 
L 391.618818 -269.745869 
L 389.492249 -277.058974 
L 387.36568 -284.236551 
L 385.239112 -291.255693 
L 383.112543 -298.094284 
L 380.985974 -304.731199 
L 378.859405 -311.146498 
L 376.732836 -317.321613 
L 374.606268 -323.239518 
L 372.479699 -328.884896 
L 370.35313 -334.244277 
L 368.226561 -339.306165 
L 366.099993 -344.061151 
L 363.973424 -348.501986 
L 361.846855 -352.623654 
L 359.720286 -356.423398 
L 357.593717 -359.900735 
L 355.467149 -363.057443 
L 353.34058 -365.897514 
L 351.214011 -368.427091 
L 349.087442 -370.654373 
L 346.960874 -372.589495 
L 344.834305 -374.244395 
L 342.707736 -375.632641 
L 340.581167 -376.769259 
L 338.454598 -377.670524 
L 336.32803 -378.353754 
L 334.201461 -378.837078 
L 332.074892 -379.139202 
L 329.948323 -379.279167 
L 327.821755 -379.276103 
L 325.695186 -379.148987 
L 323.568617 -378.916397 
L 321.442048 -378.596281 
L 319.315479 -378.205733 
L 317.188911 -377.760776 
L 315.062342 -377.27617 
L 312.935773 -376.765233 
L 310.809204 -376.239679 
L 308.682635 -375.709486 
L 306.556067 -375.182784 
L 304.429498 -374.665764 
L 302.302929 -374.162625 
L 300.17636 -373.675531 
L 298.049792 -373.204616 
L 295.923223 -372.747994 
L 293.796654 -372.301815 
L 291.670085 -371.86033 
L 289.543516 -371.415995 
L 287.416948 -370.959584 
L 285.290379 -370.480335 
L 283.16381 -369.966109 
L 281.037241 -369.403562 
L 278.910673 -368.778343 
L 276.784104 -368.075286 
L 274.657535 -367.278631 
L 272.530966 -366.372231 
L 270.404397 -365.339778 
L 268.277829 -364.165022 
L 266.15126 -362.831984 
L 264.024691 -361.325172 
L 261.898122 -359.629786 
L 259.771554 -357.731907 
L 257.644985 -355.618683 
L 255.518416 -353.278498 
L 253.391847 -350.701115 
L 251.265278 -347.877819 
L 249.13871 -344.801523 
L 247.012141 -341.466869 
L 244.885572 -337.870297 
L 242.759003 -334.010098 
L 240.632435 -329.886447 
L 238.505866 -325.501412 
L 236.379297 -320.85894 
L 234.252728 -315.964831 
L 232.126159 -310.826681 
L 229.999591 -305.453818 
L 227.873022 -299.857213 
L 225.746453 -294.049376 
L 223.619884 -288.044246 
L 221.493316 -281.857055 
L 219.366747 -275.504195 
L 217.240178 -269.003065 
L 215.113609 -262.37192 
L 212.98704 -255.62971 
L 210.860472 -248.795917 
L 208.733903 -241.890392 
L 206.607334 -234.933191 
L 204.480765 -227.944416 
L 202.354196 -220.944059 
L 200.227628 -213.951851 
L 198.101059 -206.987118 
L 195.97449 -200.068649 
L 193.847921 -193.21457 
L 191.721353 -186.442229 
L 189.594784 -179.768094 
L 187.468215 -173.207662 
L 185.341646 -166.775382 
L 183.215077 -160.484588 
L 181.088509 -154.347447 
L 178.96194 -148.374921 
L 176.835371 -142.576738 
L 174.708802 -136.961378 
L 172.582234 -131.536072 
L 170.455665 -126.306809 
L 168.329096 -121.278355 
L 166.202527 -116.454286 
L 164.075958 -111.837018 
L 161.94939 -107.427864 
L 159.822821 -103.227077 
L 157.696252 -99.233915 
L 155.569683 -95.446704 
L 153.443115 -91.862907 
L 151.316546 -88.479195 
L 149.189977 -85.29152 
L 147.063408 -82.295191 
L 144.936839 -79.48495 
L 142.810271 -76.855046 
L 140.683702 -74.399306 
L 138.557133 -72.111212 
L 136.430564 -69.983968 
L 134.303996 -68.010565 
L 132.177427 -66.183844 
L 130.050858 -64.496559 
L 127.924289 -62.941426 
L 125.79772 -61.511178 
L 123.671152 -60.198608 
L 121.544583 -58.996615 
L 119.418014 -57.898234 
L 117.291445 -56.896677 
L 115.164876 -55.985351 
L 113.038308 -55.157891 
L 110.911739 -54.408173 
L 108.78517 -53.730333 
L 106.658601 -53.118776 
L 104.532033 -52.568186 
L 102.405464 -52.073532 
L 100.278895 -51.630067 
L 98.152326 -51.23333 
L 96.025757 -50.879145 
L 93.899189 -50.563612 
L 91.77262 -50.283101 
L 89.646051 -50.03425 
z
" style="stroke: #e74c3c"/>
    </defs>
    <g clip-path="url(#pbb5c9dc3da)">
     <use xlink:href="#m8741790d67" x="0" y="420.48" style="fill: #e74c3c; fill-opacity: 0.3; stroke: #e74c3c"/>
    </g>
   </g>
   <g id="patch_3">
    <path d="M 60.520625 372.1675 
L 60.520625 24.6525 
" style="fill: none; stroke: #cccccc; stroke-width: 1.5; stroke-linejoin: miter; stroke-linecap: square"/>
   </g>
   <g id="patch_4">
    <path d="M 60.520625 372.1675 
L 701.28 372.1675 
" style="fill: none; stroke: #cccccc; stroke-width: 1.5; stroke-linejoin: miter; stroke-linecap: square"/>
   </g>
   <g id="text_20">
    <!-- Distribution of Absolute Errors -->
    <g style="fill: #262626" transform="translate(275.080312 18.6525) scale(0.16 -0.16)">
     <defs>
      <path id="ArialMT-62" d="M 941 0 
L 419 0 
L 419 4581 
L 981 4581 
L 981 2947 
Q 1338 3394 1891 3394 
Q 2197 3394 2470 3270 
Q 2744 3147 2920 2923 
Q 3097 2700 3197 2384 
Q 3297 2069 3297 1709 
Q 3297 856 2875 390 
Q 2453 -75 1863 -75 
Q 1275 -75 941 416 
L 941 0 
z
M 934 1684 
Q 934 1088 1097 822 
Q 1363 388 1816 388 
Q 2184 388 2453 708 
Q 2722 1028 2722 1663 
Q 2722 2313 2464 2622 
Q 2206 2931 1841 2931 
Q 1472 2931 1203 2611 
Q 934 2291 934 1684 
z
" transform="scale(0.015625)"/>
      <path id="ArialMT-75" d="M 2597 0 
L 2597 488 
Q 2209 -75 1544 -75 
Q 1250 -75 995 37 
Q 741 150 617 320 
Q 494 491 444 738 
Q 409 903 409 1263 
L 409 3319 
L 972 3319 
L 972 1478 
Q 972 1038 1006 884 
Q 1059 663 1231 536 
Q 1403 409 1656 409 
Q 1909 409 2131 539 
Q 2353 669 2445 892 
Q 2538 1116 2538 1541 
L 2538 3319 
L 3100 3319 
L 3100 0 
L 2597 0 
z
" transform="scale(0.015625)"/>
      <path id="ArialMT-66" d="M 556 0 
L 556 2881 
L 59 2881 
L 59 3319 
L 556 3319 
L 556 3672 
Q 556 4006 616 4169 
Q 697 4388 901 4523 
Q 1106 4659 1475 4659 
Q 1713 4659 2000 4603 
L 1916 4113 
Q 1741 4144 1584 4144 
Q 1328 4144 1222 4034 
Q 1116 3925 1116 3625 
L 1116 3319 
L 1763 3319 
L 1763 2881 
L 1116 2881 
L 1116 0 
L 556 0 
z
" transform="scale(0.015625)"/>
      <path id="ArialMT-41" d="M -9 0 
L 1750 4581 
L 2403 4581 
L 4278 0 
L 3588 0 
L 3053 1388 
L 1138 1388 
L 634 0 
L -9 0 
z
M 1313 1881 
L 2866 1881 
L 2388 3150 
Q 2169 3728 2063 4100 
Q 1975 3659 1816 3225 
L 1313 1881 
z
" transform="scale(0.015625)"/>
      <path id="ArialMT-6c" d="M 409 0 
L 409 4581 
L 972 4581 
L 972 0 
L 409 0 
z
" transform="scale(0.015625)"/>
     </defs>
     <use xlink:href="#ArialMT-44"/>
     <use xlink:href="#ArialMT-69" x="72.216797"/>
     <use xlink:href="#ArialMT-73" x="94.433594"/>
     <use xlink:href="#ArialMT-74" x="144.433594"/>
     <use xlink:href="#ArialMT-72" x="172.216797"/>
     <use xlink:href="#ArialMT-69" x="205.517578"/>
     <use xlink:href="#ArialMT-62" x="227.734375"/>
     <use xlink:href="#ArialMT-75" x="283.349609"/>
     <use xlink:href="#ArialMT-74" x="338.964844"/>
     <use xlink:href="#ArialMT-69" x="366.748047"/>
     <use xlink:href="#ArialMT-6f" x="388.964844"/>
     <use xlink:href="#ArialMT-6e" x="444.580078"/>
     <use xlink:href="#ArialMT-20" x="500.195312"/>
     <use xlink:href="#ArialMT-6f" x="527.978516"/>
     <use xlink:href="#ArialMT-66" x="583.59375"/>
     <use xlink:href="#ArialMT-20" x="611.376953"/>
     <use xlink:href="#ArialMT-41" x="633.660156"/>
     <use xlink:href="#ArialMT-62" x="700.359375"/>
     <use xlink:href="#ArialMT-73" x="755.974609"/>
     <use xlink:href="#ArialMT-6f" x="805.974609"/>
     <use xlink:href="#ArialMT-6c" x="861.589844"/>
     <use xlink:href="#ArialMT-75" x="883.806641"/>
     <use xlink:href="#ArialMT-74" x="939.421875"/>
     <use xlink:href="#ArialMT-65" x="967.205078"/>
     <use xlink:href="#ArialMT-20" x="1022.820312"/>
     <use xlink:href="#ArialMT-45" x="1050.603516"/>
     <use xlink:href="#ArialMT-72" x="1117.302734"/>
     <use xlink:href="#ArialMT-72" x="1150.603516"/>
     <use xlink:href="#ArialMT-6f" x="1183.904297"/>
     <use xlink:href="#ArialMT-72" x="1239.519531"/>
     <use xlink:href="#ArialMT-73" x="1272.820312"/>
    </g>
   </g>
   <g id="legend_1">
    <g id="patch_5">
     <path d="M 497.20125 68.775 
L 692.88 68.775 
Q 695.28 68.775 695.28 66.375 
L 695.28 33.0525 
Q 695.28 30.6525 692.88 30.6525 
L 497.20125 30.6525 
Q 494.80125 30.6525 494.80125 33.0525 
L 494.80125 66.375 
Q 494.80125 68.775 497.20125 68.775 
z
" style="fill: #ffffff; opacity: 0.8; stroke: #cccccc; stroke-linejoin: miter"/>
    </g>
    <g id="patch_6">
     <path d="M 499.60125 44.188125 
L 523.60125 44.188125 
L 523.60125 35.788125 
L 499.60125 35.788125 
z
" style="fill: #2ecc71; fill-opacity: 0.3; stroke: #2ecc71; stroke-linejoin: miter"/>
    </g>
    <g id="text_21">
     <!-- Training (μ=1.97%, σ=1.13%) -->
     <g style="fill: #262626" transform="translate(533.20125 44.188125) scale(0.12 -0.12)">
      <defs>
       <path id="ArialMT-54" d="M 1659 0 
L 1659 4041 
L 150 4041 
L 150 4581 
L 3781 4581 
L 3781 4041 
L 2266 4041 
L 2266 0 
L 1659 0 
z
" transform="scale(0.015625)"/>
       <path id="ArialMT-61" d="M 2588 409 
Q 2275 144 1986 34 
Q 1697 -75 1366 -75 
Q 819 -75 525 192 
Q 231 459 231 875 
Q 231 1119 342 1320 
Q 453 1522 633 1644 
Q 813 1766 1038 1828 
Q 1203 1872 1538 1913 
Q 2219 1994 2541 2106 
Q 2544 2222 2544 2253 
Q 2544 2597 2384 2738 
Q 2169 2928 1744 2928 
Q 1347 2928 1158 2789 
Q 969 2650 878 2297 
L 328 2372 
Q 403 2725 575 2942 
Q 747 3159 1072 3276 
Q 1397 3394 1825 3394 
Q 2250 3394 2515 3294 
Q 2781 3194 2906 3042 
Q 3031 2891 3081 2659 
Q 3109 2516 3109 2141 
L 3109 1391 
Q 3109 606 3145 398 
Q 3181 191 3288 0 
L 2700 0 
Q 2613 175 2588 409 
z
M 2541 1666 
Q 2234 1541 1622 1453 
Q 1275 1403 1131 1340 
Q 988 1278 909 1158 
Q 831 1038 831 891 
Q 831 666 1001 516 
Q 1172 366 1500 366 
Q 1825 366 2078 508 
Q 2331 650 2450 897 
Q 2541 1088 2541 1459 
L 2541 1666 
z
" transform="scale(0.015625)"/>
       <path id="ArialMT-67" d="M 319 -275 
L 866 -356 
Q 900 -609 1056 -725 
Q 1266 -881 1628 -881 
Q 2019 -881 2231 -725 
Q 2444 -569 2519 -288 
Q 2563 -116 2559 434 
Q 2191 0 1641 0 
Q 956 0 581 494 
Q 206 988 206 1678 
Q 206 2153 378 2554 
Q 550 2956 876 3175 
Q 1203 3394 1644 3394 
Q 2231 3394 2613 2919 
L 2613 3319 
L 3131 3319 
L 3131 450 
Q 3131 -325 2973 -648 
Q 2816 -972 2473 -1159 
Q 2131 -1347 1631 -1347 
Q 1038 -1347 672 -1080 
Q 306 -813 319 -275 
z
M 784 1719 
Q 784 1066 1043 766 
Q 1303 466 1694 466 
Q 2081 466 2343 764 
Q 2606 1063 2606 1700 
Q 2606 2309 2336 2618 
Q 2066 2928 1684 2928 
Q 1309 2928 1046 2623 
Q 784 2319 784 1719 
z
" transform="scale(0.015625)"/>
       <path id="ArialMT-3bc" d="M 3181 3319 
L 3181 0 
L 2678 0 
L 2678 394 
Q 2516 144 2356 50 
Q 2138 -78 1847 -78 
Q 1588 -78 1388 25 
Q 1238 103 1056 334 
L 1056 -1272 
L 500 -1272 
L 500 3319 
L 1056 3319 
L 1056 1913 
Q 1056 1147 1137 920 
Q 1219 694 1401 562 
Q 1584 431 1822 431 
Q 2072 431 2269 568 
Q 2466 706 2547 923 
Q 2628 1141 2628 1903 
L 2628 3319 
L 3181 3319 
z
" transform="scale(0.015625)"/>
       <path id="ArialMT-3d" d="M 3381 2694 
L 356 2694 
L 356 3219 
L 3381 3219 
L 3381 2694 
z
M 3381 1303 
L 356 1303 
L 356 1828 
L 3381 1828 
L 3381 1303 
z
" transform="scale(0.015625)"/>
       <path id="ArialMT-39" d="M 350 1059 
L 891 1109 
Q 959 728 1153 556 
Q 1347 384 1650 384 
Q 1909 384 2104 503 
Q 2300 622 2425 820 
Q 2550 1019 2634 1356 
Q 2719 1694 2719 2044 
Q 2719 2081 2716 2156 
Q 2547 1888 2255 1720 
Q 1963 1553 1622 1553 
Q 1053 1553 659 1965 
Q 266 2378 266 3053 
Q 266 3750 677 4175 
Q 1088 4600 1706 4600 
Q 2153 4600 2523 4359 
Q 2894 4119 3086 3673 
Q 3278 3228 3278 2384 
Q 3278 1506 3087 986 
Q 2897 466 2520 194 
Q 2144 -78 1638 -78 
Q 1100 -78 759 220 
Q 419 519 350 1059 
z
M 2653 3081 
Q 2653 3566 2395 3850 
Q 2138 4134 1775 4134 
Q 1400 4134 1122 3828 
Q 844 3522 844 3034 
Q 844 2597 1108 2323 
Q 1372 2050 1759 2050 
Q 2150 2050 2401 2323 
Q 2653 2597 2653 3081 
z
" transform="scale(0.015625)"/>
       <path id="ArialMT-37" d="M 303 3981 
L 303 4522 
L 3269 4522 
L 3269 4084 
Q 2831 3619 2401 2847 
Q 1972 2075 1738 1259 
Q 1569 684 1522 0 
L 944 0 
Q 953 541 1156 1306 
Q 1359 2072 1739 2783 
Q 2119 3494 2547 3981 
L 303 3981 
z
" transform="scale(0.015625)"/>
       <path id="ArialMT-2c" d="M 569 0 
L 569 641 
L 1209 641 
L 1209 0 
Q 1209 -353 1084 -570 
Q 959 -788 688 -906 
L 531 -666 
Q 709 -588 793 -436 
Q 878 -284 888 0 
L 569 0 
z
" transform="scale(0.015625)"/>
       <path id="ArialMT-3c3" d="M 3809 3319 
L 3809 2863 
L 2906 2863 
Q 3322 2475 3322 1656 
Q 3322 766 2867 345 
Q 2413 -75 1763 -75 
Q 1088 -75 650 362 
Q 213 800 213 1659 
Q 213 2544 667 2969 
Q 1122 3394 1763 3394 
Q 1997 3394 2294 3319 
L 3809 3319 
z
M 1753 2928 
Q 1344 2928 1067 2609 
Q 791 2291 791 1656 
Q 791 1025 1061 706 
Q 1331 388 1763 388 
Q 2216 388 2483 720 
Q 2750 1053 2750 1659 
Q 2750 2213 2504 2570 
Q 2259 2928 1753 2928 
z
" transform="scale(0.015625)"/>
      </defs>
      <use xlink:href="#ArialMT-54"/>
      <use xlink:href="#ArialMT-72" x="57.333984"/>
      <use xlink:href="#ArialMT-61" x="90.634766"/>
      <use xlink:href="#ArialMT-69" x="146.25"/>
      <use xlink:href="#ArialMT-6e" x="168.466797"/>
      <use xlink:href="#ArialMT-69" x="224.082031"/>
      <use xlink:href="#ArialMT-6e" x="246.298828"/>
      <use xlink:href="#ArialMT-67" x="301.914062"/>
      <use xlink:href="#ArialMT-20" x="357.529297"/>
      <use xlink:href="#ArialMT-28" x="385.3125"/>
      <use xlink:href="#ArialMT-3bc" x="418.613281"/>
      <use xlink:href="#ArialMT-3d" x="476.230469"/>
      <use xlink:href="#ArialMT-31" x="534.628906"/>
      <use xlink:href="#ArialMT-2e" x="590.244141"/>
      <use xlink:href="#ArialMT-39" x="618.027344"/>
      <use xlink:href="#ArialMT-37" x="673.642578"/>
      <use xlink:href="#ArialMT-25" x="729.257812"/>
      <use xlink:href="#ArialMT-2c" x="818.173828"/>
      <use xlink:href="#ArialMT-20" x="845.957031"/>
      <use xlink:href="#ArialMT-3c3" x="873.740234"/>
      <use xlink:href="#ArialMT-3d" x="935.458984"/>
      <use xlink:href="#ArialMT-31" x="993.857422"/>
      <use xlink:href="#ArialMT-2e" x="1049.472656"/>
      <use xlink:href="#ArialMT-31" x="1077.255859"/>
      <use xlink:href="#ArialMT-33" x="1132.871094"/>
      <use xlink:href="#ArialMT-25" x="1188.486328"/>
      <use xlink:href="#ArialMT-29" x="1277.402344"/>
     </g>
    </g>
    <g id="patch_7">
     <path d="M 499.60125 61.449375 
L 523.60125 61.449375 
L 523.60125 53.049375 
L 499.60125 53.049375 
z
" style="fill: #e74c3c; fill-opacity: 0.3; stroke: #e74c3c; stroke-linejoin: miter"/>
    </g>
    <g id="text_22">
     <!-- Testing (μ=1.09%, σ=0.82%) -->
     <g style="fill: #262626" transform="translate(533.20125 61.449375) scale(0.12 -0.12)">
      <defs>
       <path id="ArialMT-38" d="M 1131 2484 
Q 781 2613 612 2850 
Q 444 3088 444 3419 
Q 444 3919 803 4259 
Q 1163 4600 1759 4600 
Q 2359 4600 2725 4251 
Q 3091 3903 3091 3403 
Q 3091 3084 2923 2848 
Q 2756 2613 2416 2484 
Q 2838 2347 3058 2040 
Q 3278 1734 3278 1309 
Q 3278 722 2862 322 
Q 2447 -78 1769 -78 
Q 1091 -78 675 323 
Q 259 725 259 1325 
Q 259 1772 486 2073 
Q 713 2375 1131 2484 
z
M 1019 3438 
Q 1019 3113 1228 2906 
Q 1438 2700 1772 2700 
Q 2097 2700 2305 2904 
Q 2513 3109 2513 3406 
Q 2513 3716 2298 3927 
Q 2084 4138 1766 4138 
Q 1444 4138 1231 3931 
Q 1019 3725 1019 3438 
z
M 838 1322 
Q 838 1081 952 856 
Q 1066 631 1291 507 
Q 1516 384 1775 384 
Q 2178 384 2440 643 
Q 2703 903 2703 1303 
Q 2703 1709 2433 1975 
Q 2163 2241 1756 2241 
Q 1359 2241 1098 1978 
Q 838 1716 838 1322 
z
" transform="scale(0.015625)"/>
      </defs>
      <use xlink:href="#ArialMT-54"/>
      <use xlink:href="#ArialMT-65" x="49.958984"/>
      <use xlink:href="#ArialMT-73" x="105.574219"/>
      <use xlink:href="#ArialMT-74" x="155.574219"/>
      <use xlink:href="#ArialMT-69" x="183.357422"/>
      <use xlink:href="#ArialMT-6e" x="205.574219"/>
      <use xlink:href="#ArialMT-67" x="261.189453"/>
      <use xlink:href="#ArialMT-20" x="316.804688"/>
      <use xlink:href="#ArialMT-28" x="344.587891"/>
      <use xlink:href="#ArialMT-3bc" x="377.888672"/>
      <use xlink:href="#ArialMT-3d" x="435.505859"/>
      <use xlink:href="#ArialMT-31" x="493.904297"/>
      <use xlink:href="#ArialMT-2e" x="549.519531"/>
      <use xlink:href="#ArialMT-30" x="577.302734"/>
      <use xlink:href="#ArialMT-39" x="632.917969"/>
      <use xlink:href="#ArialMT-25" x="688.533203"/>
      <use xlink:href="#ArialMT-2c" x="777.449219"/>
      <use xlink:href="#ArialMT-20" x="805.232422"/>
      <use xlink:href="#ArialMT-3c3" x="833.015625"/>
      <use xlink:href="#ArialMT-3d" x="894.734375"/>
      <use xlink:href="#ArialMT-30" x="953.132812"/>
      <use xlink:href="#ArialMT-2e" x="1008.748047"/>
      <use xlink:href="#ArialMT-38" x="1036.53125"/>
      <use xlink:href="#ArialMT-32" x="1092.146484"/>
      <use xlink:href="#ArialMT-25" x="1147.761719"/>
      <use xlink:href="#ArialMT-29" x="1236.677734"/>
     </g>
    </g>
   </g>
  </g>
 </g>
 <defs>
  <clipPath id="pbb5c9dc3da">
   <rect x="60.520625" y="24.6525" width="640.759375" height="347.515"/>
  </clipPath>
 </defs>
</svg>
