<?xml version="1.0" encoding="utf-8" standalone="no"?>
<!DOCTYPE svg PUBLIC "-//W3C//DTD SVG 1.1//EN"
  "http://www.w3.org/Graphics/SVG/1.1/DTD/svg11.dtd">
<svg xmlns:xlink="http://www.w3.org/1999/xlink" width="708.48pt" height="420.48pt" viewBox="0 0 708.48 420.48" xmlns="http://www.w3.org/2000/svg" version="1.1">
 <metadata>
  <rdf:RDF xmlns:dc="http://purl.org/dc/elements/1.1/" xmlns:cc="http://creativecommons.org/ns#" xmlns:rdf="http://www.w3.org/1999/02/22-rdf-syntax-ns#">
   <cc:Work>
    <dc:type rdf:resource="http://purl.org/dc/dcmitype/StillImage"/>
    <dc:date>2025-01-07T20:26:18.884480</dc:date>
    <dc:format>image/svg+xml</dc:format>
    <dc:creator>
     <cc:Agent>
      <dc:title>Matplotlib v3.9.3, https://matplotlib.org/</dc:title>
     </cc:Agent>
    </dc:creator>
   </cc:Work>
  </rdf:RDF>
 </metadata>
 <defs>
  <style type="text/css">*{stroke-linejoin: round; stroke-linecap: butt}</style>
 </defs>
 <g id="figure_1">
  <g id="patch_1">
   <path d="M 0 420.48 
L 708.48 420.48 
L 708.48 -0 
L 0 -0 
z
" style="fill: #ffffff"/>
  </g>
  <g id="axes_1">
   <g id="patch_2">
    <path d="M 53.8475 372.1675 
L 701.28 372.1675 
L 701.28 24.6525 
L 53.8475 24.6525 
z
" style="fill: #ffffff"/>
   </g>
   <g id="matplotlib.axis_1">
    <g id="xtick_1">
     <g id="line2d_1">
      <path d="M 71.382998 372.1675 
L 71.382998 24.6525 
" clip-path="url(#p83ddd1fd03)" style="fill: none; stroke: #cccccc; stroke-opacity: 0.3; stroke-width: 0.5; stroke-linecap: round"/>
     </g>
     <g id="text_1">
      <!-- −2 -->
      <g style="fill: #262626" transform="translate(64.542061 387.756875) scale(0.12 -0.12)">
       <defs>
        <path id="ArialMT-2212" d="M 3381 1997 
L 356 1997 
L 356 2522 
L 3381 2522 
L 3381 1997 
z
" transform="scale(0.015625)"/>
        <path id="ArialMT-32" d="M 3222 541 
L 3222 0 
L 194 0 
Q 188 203 259 391 
Q 375 700 629 1000 
Q 884 1300 1366 1694 
Q 2113 2306 2375 2664 
Q 2638 3022 2638 3341 
Q 2638 3675 2398 3904 
Q 2159 4134 1775 4134 
Q 1369 4134 1125 3890 
Q 881 3647 878 3216 
L 300 3275 
Q 359 3922 746 4261 
Q 1134 4600 1788 4600 
Q 2447 4600 2831 4234 
Q 3216 3869 3216 3328 
Q 3216 3053 3103 2787 
Q 2991 2522 2730 2228 
Q 2469 1934 1863 1422 
Q 1356 997 1212 845 
Q 1069 694 975 541 
L 3222 541 
z
" transform="scale(0.015625)"/>
       </defs>
       <use xlink:href="#ArialMT-2212"/>
       <use xlink:href="#ArialMT-32" x="58.398438"/>
      </g>
     </g>
    </g>
    <g id="xtick_2">
     <g id="line2d_2">
      <path d="M 145.807445 372.1675 
L 145.807445 24.6525 
" clip-path="url(#p83ddd1fd03)" style="fill: none; stroke: #cccccc; stroke-opacity: 0.3; stroke-width: 0.5; stroke-linecap: round"/>
     </g>
     <g id="text_2">
      <!-- −1 -->
      <g style="fill: #262626" transform="translate(138.966507 387.756875) scale(0.12 -0.12)">
       <defs>
        <path id="ArialMT-31" d="M 2384 0 
L 1822 0 
L 1822 3584 
Q 1619 3391 1289 3197 
Q 959 3003 697 2906 
L 697 3450 
Q 1169 3672 1522 3987 
Q 1875 4303 2022 4600 
L 2384 4600 
L 2384 0 
z
" transform="scale(0.015625)"/>
       </defs>
       <use xlink:href="#ArialMT-2212"/>
       <use xlink:href="#ArialMT-31" x="58.398438"/>
      </g>
     </g>
    </g>
    <g id="xtick_3">
     <g id="line2d_3">
      <path d="M 220.231892 372.1675 
L 220.231892 24.6525 
" clip-path="url(#p83ddd1fd03)" style="fill: none; stroke: #cccccc; stroke-opacity: 0.3; stroke-width: 0.5; stroke-linecap: round"/>
     </g>
     <g id="text_3">
      <!-- 0 -->
      <g style="fill: #262626" transform="translate(216.895329 387.756875) scale(0.12 -0.12)">
       <defs>
        <path id="ArialMT-30" d="M 266 2259 
Q 266 3072 433 3567 
Q 600 4063 929 4331 
Q 1259 4600 1759 4600 
Q 2128 4600 2406 4451 
Q 2684 4303 2865 4023 
Q 3047 3744 3150 3342 
Q 3253 2941 3253 2259 
Q 3253 1453 3087 958 
Q 2922 463 2592 192 
Q 2263 -78 1759 -78 
Q 1097 -78 719 397 
Q 266 969 266 2259 
z
M 844 2259 
Q 844 1131 1108 757 
Q 1372 384 1759 384 
Q 2147 384 2411 759 
Q 2675 1134 2675 2259 
Q 2675 3391 2411 3762 
Q 2147 4134 1753 4134 
Q 1366 4134 1134 3806 
Q 844 3388 844 2259 
z
" transform="scale(0.015625)"/>
       </defs>
       <use xlink:href="#ArialMT-30"/>
      </g>
     </g>
    </g>
    <g id="xtick_4">
     <g id="line2d_4">
      <path d="M 294.656338 372.1675 
L 294.656338 24.6525 
" clip-path="url(#p83ddd1fd03)" style="fill: none; stroke: #cccccc; stroke-opacity: 0.3; stroke-width: 0.5; stroke-linecap: round"/>
     </g>
     <g id="text_4">
      <!-- 1 -->
      <g style="fill: #262626" transform="translate(291.319776 387.756875) scale(0.12 -0.12)">
       <use xlink:href="#ArialMT-31"/>
      </g>
     </g>
    </g>
    <g id="xtick_5">
     <g id="line2d_5">
      <path d="M 369.080785 372.1675 
L 369.080785 24.6525 
" clip-path="url(#p83ddd1fd03)" style="fill: none; stroke: #cccccc; stroke-opacity: 0.3; stroke-width: 0.5; stroke-linecap: round"/>
     </g>
     <g id="text_5">
      <!-- 2 -->
      <g style="fill: #262626" transform="translate(365.744223 387.756875) scale(0.12 -0.12)">
       <use xlink:href="#ArialMT-32"/>
      </g>
     </g>
    </g>
    <g id="xtick_6">
     <g id="line2d_6">
      <path d="M 443.505232 372.1675 
L 443.505232 24.6525 
" clip-path="url(#p83ddd1fd03)" style="fill: none; stroke: #cccccc; stroke-opacity: 0.3; stroke-width: 0.5; stroke-linecap: round"/>
     </g>
     <g id="text_6">
      <!-- 3 -->
      <g style="fill: #262626" transform="translate(440.168669 387.756875) scale(0.12 -0.12)">
       <defs>
        <path id="ArialMT-33" d="M 269 1209 
L 831 1284 
Q 928 806 1161 595 
Q 1394 384 1728 384 
Q 2125 384 2398 659 
Q 2672 934 2672 1341 
Q 2672 1728 2419 1979 
Q 2166 2231 1775 2231 
Q 1616 2231 1378 2169 
L 1441 2663 
Q 1497 2656 1531 2656 
Q 1891 2656 2178 2843 
Q 2466 3031 2466 3422 
Q 2466 3731 2256 3934 
Q 2047 4138 1716 4138 
Q 1388 4138 1169 3931 
Q 950 3725 888 3313 
L 325 3413 
Q 428 3978 793 4289 
Q 1159 4600 1703 4600 
Q 2078 4600 2393 4439 
Q 2709 4278 2876 4000 
Q 3044 3722 3044 3409 
Q 3044 3113 2884 2869 
Q 2725 2625 2413 2481 
Q 2819 2388 3044 2092 
Q 3269 1797 3269 1353 
Q 3269 753 2831 336 
Q 2394 -81 1725 -81 
Q 1122 -81 723 278 
Q 325 638 269 1209 
z
" transform="scale(0.015625)"/>
       </defs>
       <use xlink:href="#ArialMT-33"/>
      </g>
     </g>
    </g>
    <g id="xtick_7">
     <g id="line2d_7">
      <path d="M 517.929679 372.1675 
L 517.929679 24.6525 
" clip-path="url(#p83ddd1fd03)" style="fill: none; stroke: #cccccc; stroke-opacity: 0.3; stroke-width: 0.5; stroke-linecap: round"/>
     </g>
     <g id="text_7">
      <!-- 4 -->
      <g style="fill: #262626" transform="translate(514.593116 387.756875) scale(0.12 -0.12)">
       <defs>
        <path id="ArialMT-34" d="M 2069 0 
L 2069 1097 
L 81 1097 
L 81 1613 
L 2172 4581 
L 2631 4581 
L 2631 1613 
L 3250 1613 
L 3250 1097 
L 2631 1097 
L 2631 0 
L 2069 0 
z
M 2069 1613 
L 2069 3678 
L 634 1613 
L 2069 1613 
z
" transform="scale(0.015625)"/>
       </defs>
       <use xlink:href="#ArialMT-34"/>
      </g>
     </g>
    </g>
    <g id="xtick_8">
     <g id="line2d_8">
      <path d="M 592.354126 372.1675 
L 592.354126 24.6525 
" clip-path="url(#p83ddd1fd03)" style="fill: none; stroke: #cccccc; stroke-opacity: 0.3; stroke-width: 0.5; stroke-linecap: round"/>
     </g>
     <g id="text_8">
      <!-- 5 -->
      <g style="fill: #262626" transform="translate(589.017563 387.756875) scale(0.12 -0.12)">
       <defs>
        <path id="ArialMT-35" d="M 266 1200 
L 856 1250 
Q 922 819 1161 601 
Q 1400 384 1738 384 
Q 2144 384 2425 690 
Q 2706 997 2706 1503 
Q 2706 1984 2436 2262 
Q 2166 2541 1728 2541 
Q 1456 2541 1237 2417 
Q 1019 2294 894 2097 
L 366 2166 
L 809 4519 
L 3088 4519 
L 3088 3981 
L 1259 3981 
L 1013 2750 
Q 1425 3038 1878 3038 
Q 2478 3038 2890 2622 
Q 3303 2206 3303 1553 
Q 3303 931 2941 478 
Q 2500 -78 1738 -78 
Q 1113 -78 717 272 
Q 322 622 266 1200 
z
" transform="scale(0.015625)"/>
       </defs>
       <use xlink:href="#ArialMT-35"/>
      </g>
     </g>
    </g>
    <g id="xtick_9">
     <g id="line2d_9">
      <path d="M 666.778572 372.1675 
L 666.778572 24.6525 
" clip-path="url(#p83ddd1fd03)" style="fill: none; stroke: #cccccc; stroke-opacity: 0.3; stroke-width: 0.5; stroke-linecap: round"/>
     </g>
     <g id="text_9">
      <!-- 6 -->
      <g style="fill: #262626" transform="translate(663.44201 387.756875) scale(0.12 -0.12)">
       <defs>
        <path id="ArialMT-36" d="M 3184 3459 
L 2625 3416 
Q 2550 3747 2413 3897 
Q 2184 4138 1850 4138 
Q 1581 4138 1378 3988 
Q 1113 3794 959 3422 
Q 806 3050 800 2363 
Q 1003 2672 1297 2822 
Q 1591 2972 1913 2972 
Q 2475 2972 2870 2558 
Q 3266 2144 3266 1488 
Q 3266 1056 3080 686 
Q 2894 316 2569 119 
Q 2244 -78 1831 -78 
Q 1128 -78 684 439 
Q 241 956 241 2144 
Q 241 3472 731 4075 
Q 1159 4600 1884 4600 
Q 2425 4600 2770 4297 
Q 3116 3994 3184 3459 
z
M 888 1484 
Q 888 1194 1011 928 
Q 1134 663 1356 523 
Q 1578 384 1822 384 
Q 2178 384 2434 671 
Q 2691 959 2691 1453 
Q 2691 1928 2437 2201 
Q 2184 2475 1800 2475 
Q 1419 2475 1153 2201 
Q 888 1928 888 1484 
z
" transform="scale(0.015625)"/>
       </defs>
       <use xlink:href="#ArialMT-36"/>
      </g>
     </g>
    </g>
    <g id="text_10">
     <!-- Error (%) -->
     <g style="fill: #262626" transform="translate(349.17875 410.333438) scale(0.14 -0.14)">
      <defs>
       <path id="ArialMT-45" d="M 506 0 
L 506 4581 
L 3819 4581 
L 3819 4041 
L 1113 4041 
L 1113 2638 
L 3647 2638 
L 3647 2100 
L 1113 2100 
L 1113 541 
L 3925 541 
L 3925 0 
L 506 0 
z
" transform="scale(0.015625)"/>
       <path id="ArialMT-72" d="M 416 0 
L 416 3319 
L 922 3319 
L 922 2816 
Q 1116 3169 1280 3281 
Q 1444 3394 1641 3394 
Q 1925 3394 2219 3213 
L 2025 2691 
Q 1819 2813 1613 2813 
Q 1428 2813 1281 2702 
Q 1134 2591 1072 2394 
Q 978 2094 978 1738 
L 978 0 
L 416 0 
z
" transform="scale(0.015625)"/>
       <path id="ArialMT-6f" d="M 213 1659 
Q 213 2581 725 3025 
Q 1153 3394 1769 3394 
Q 2453 3394 2887 2945 
Q 3322 2497 3322 1706 
Q 3322 1066 3130 698 
Q 2938 331 2570 128 
Q 2203 -75 1769 -75 
Q 1072 -75 642 372 
Q 213 819 213 1659 
z
M 791 1659 
Q 791 1022 1069 705 
Q 1347 388 1769 388 
Q 2188 388 2466 706 
Q 2744 1025 2744 1678 
Q 2744 2294 2464 2611 
Q 2184 2928 1769 2928 
Q 1347 2928 1069 2612 
Q 791 2297 791 1659 
z
" transform="scale(0.015625)"/>
       <path id="ArialMT-20" transform="scale(0.015625)"/>
       <path id="ArialMT-28" d="M 1497 -1347 
Q 1031 -759 709 28 
Q 388 816 388 1659 
Q 388 2403 628 3084 
Q 909 3875 1497 4659 
L 1900 4659 
Q 1522 4009 1400 3731 
Q 1209 3300 1100 2831 
Q 966 2247 966 1656 
Q 966 153 1900 -1347 
L 1497 -1347 
z
" transform="scale(0.015625)"/>
       <path id="ArialMT-25" d="M 372 3481 
Q 372 3972 619 4315 
Q 866 4659 1334 4659 
Q 1766 4659 2048 4351 
Q 2331 4044 2331 3447 
Q 2331 2866 2045 2552 
Q 1759 2238 1341 2238 
Q 925 2238 648 2547 
Q 372 2856 372 3481 
z
M 1350 4272 
Q 1141 4272 1002 4090 
Q 863 3909 863 3425 
Q 863 2984 1003 2804 
Q 1144 2625 1350 2625 
Q 1563 2625 1702 2806 
Q 1841 2988 1841 3469 
Q 1841 3913 1700 4092 
Q 1559 4272 1350 4272 
z
M 1353 -169 
L 3859 4659 
L 4316 4659 
L 1819 -169 
L 1353 -169 
z
M 3334 1075 
Q 3334 1569 3581 1911 
Q 3828 2253 4300 2253 
Q 4731 2253 5014 1945 
Q 5297 1638 5297 1041 
Q 5297 459 5011 145 
Q 4725 -169 4303 -169 
Q 3888 -169 3611 142 
Q 3334 453 3334 1075 
z
M 4316 1866 
Q 4103 1866 3964 1684 
Q 3825 1503 3825 1019 
Q 3825 581 3965 400 
Q 4106 219 4313 219 
Q 4528 219 4667 400 
Q 4806 581 4806 1063 
Q 4806 1506 4665 1686 
Q 4525 1866 4316 1866 
z
" transform="scale(0.015625)"/>
       <path id="ArialMT-29" d="M 791 -1347 
L 388 -1347 
Q 1322 153 1322 1656 
Q 1322 2244 1188 2822 
Q 1081 3291 891 3722 
Q 769 4003 388 4659 
L 791 4659 
Q 1378 3875 1659 3084 
Q 1900 2403 1900 1659 
Q 1900 816 1576 28 
Q 1253 -759 791 -1347 
z
" transform="scale(0.015625)"/>
      </defs>
      <use xlink:href="#ArialMT-45"/>
      <use xlink:href="#ArialMT-72" x="66.699219"/>
      <use xlink:href="#ArialMT-72" x="100"/>
      <use xlink:href="#ArialMT-6f" x="133.300781"/>
      <use xlink:href="#ArialMT-72" x="188.916016"/>
      <use xlink:href="#ArialMT-20" x="222.216797"/>
      <use xlink:href="#ArialMT-28" x="250"/>
      <use xlink:href="#ArialMT-25" x="283.300781"/>
      <use xlink:href="#ArialMT-29" x="372.216797"/>
     </g>
    </g>
   </g>
   <g id="matplotlib.axis_2">
    <g id="ytick_1">
     <g id="line2d_10">
      <path d="M 53.8475 372.1675 
L 701.28 372.1675 
" clip-path="url(#p83ddd1fd03)" style="fill: none; stroke: #cccccc; stroke-opacity: 0.3; stroke-width: 0.5; stroke-linecap: round"/>
     </g>
     <g id="text_11">
      <!-- 0.0 -->
      <g style="fill: #262626" transform="translate(30.1675 376.462188) scale(0.12 -0.12)">
       <defs>
        <path id="ArialMT-2e" d="M 581 0 
L 581 641 
L 1222 641 
L 1222 0 
L 581 0 
z
" transform="scale(0.015625)"/>
       </defs>
       <use xlink:href="#ArialMT-30"/>
       <use xlink:href="#ArialMT-2e" x="55.615234"/>
       <use xlink:href="#ArialMT-30" x="83.398438"/>
      </g>
     </g>
    </g>
    <g id="ytick_2">
     <g id="line2d_11">
      <path d="M 53.8475 321.171115 
L 701.28 321.171115 
" clip-path="url(#p83ddd1fd03)" style="fill: none; stroke: #cccccc; stroke-opacity: 0.3; stroke-width: 0.5; stroke-linecap: round"/>
     </g>
     <g id="text_12">
      <!-- 0.1 -->
      <g style="fill: #262626" transform="translate(30.1675 325.465802) scale(0.12 -0.12)">
       <use xlink:href="#ArialMT-30"/>
       <use xlink:href="#ArialMT-2e" x="55.615234"/>
       <use xlink:href="#ArialMT-31" x="83.398438"/>
      </g>
     </g>
    </g>
    <g id="ytick_3">
     <g id="line2d_12">
      <path d="M 53.8475 270.174729 
L 701.28 270.174729 
" clip-path="url(#p83ddd1fd03)" style="fill: none; stroke: #cccccc; stroke-opacity: 0.3; stroke-width: 0.5; stroke-linecap: round"/>
     </g>
     <g id="text_13">
      <!-- 0.2 -->
      <g style="fill: #262626" transform="translate(30.1675 274.469417) scale(0.12 -0.12)">
       <use xlink:href="#ArialMT-30"/>
       <use xlink:href="#ArialMT-2e" x="55.615234"/>
       <use xlink:href="#ArialMT-32" x="83.398438"/>
      </g>
     </g>
    </g>
    <g id="ytick_4">
     <g id="line2d_13">
      <path d="M 53.8475 219.178344 
L 701.28 219.178344 
" clip-path="url(#p83ddd1fd03)" style="fill: none; stroke: #cccccc; stroke-opacity: 0.3; stroke-width: 0.5; stroke-linecap: round"/>
     </g>
     <g id="text_14">
      <!-- 0.3 -->
      <g style="fill: #262626" transform="translate(30.1675 223.473032) scale(0.12 -0.12)">
       <use xlink:href="#ArialMT-30"/>
       <use xlink:href="#ArialMT-2e" x="55.615234"/>
       <use xlink:href="#ArialMT-33" x="83.398438"/>
      </g>
     </g>
    </g>
    <g id="ytick_5">
     <g id="line2d_14">
      <path d="M 53.8475 168.181959 
L 701.28 168.181959 
" clip-path="url(#p83ddd1fd03)" style="fill: none; stroke: #cccccc; stroke-opacity: 0.3; stroke-width: 0.5; stroke-linecap: round"/>
     </g>
     <g id="text_15">
      <!-- 0.4 -->
      <g style="fill: #262626" transform="translate(30.1675 172.476646) scale(0.12 -0.12)">
       <use xlink:href="#ArialMT-30"/>
       <use xlink:href="#ArialMT-2e" x="55.615234"/>
       <use xlink:href="#ArialMT-34" x="83.398438"/>
      </g>
     </g>
    </g>
    <g id="ytick_6">
     <g id="line2d_15">
      <path d="M 53.8475 117.185574 
L 701.28 117.185574 
" clip-path="url(#p83ddd1fd03)" style="fill: none; stroke: #cccccc; stroke-opacity: 0.3; stroke-width: 0.5; stroke-linecap: round"/>
     </g>
     <g id="text_16">
      <!-- 0.5 -->
      <g style="fill: #262626" transform="translate(30.1675 121.480261) scale(0.12 -0.12)">
       <use xlink:href="#ArialMT-30"/>
       <use xlink:href="#ArialMT-2e" x="55.615234"/>
       <use xlink:href="#ArialMT-35" x="83.398438"/>
      </g>
     </g>
    </g>
    <g id="ytick_7">
     <g id="line2d_16">
      <path d="M 53.8475 66.189188 
L 701.28 66.189188 
" clip-path="url(#p83ddd1fd03)" style="fill: none; stroke: #cccccc; stroke-opacity: 0.3; stroke-width: 0.5; stroke-linecap: round"/>
     </g>
     <g id="text_17">
      <!-- 0.6 -->
      <g style="fill: #262626" transform="translate(30.1675 70.483876) scale(0.12 -0.12)">
       <use xlink:href="#ArialMT-30"/>
       <use xlink:href="#ArialMT-2e" x="55.615234"/>
       <use xlink:href="#ArialMT-36" x="83.398438"/>
      </g>
     </g>
    </g>
    <g id="text_18">
     <!-- Density -->
     <g style="fill: #262626" transform="translate(17.220938 221.750625) rotate(-90) scale(0.14 -0.14)">
      <defs>
       <path id="ArialMT-44" d="M 494 0 
L 494 4581 
L 2072 4581 
Q 2606 4581 2888 4516 
Q 3281 4425 3559 4188 
Q 3922 3881 4101 3404 
Q 4281 2928 4281 2316 
Q 4281 1794 4159 1391 
Q 4038 988 3847 723 
Q 3656 459 3429 307 
Q 3203 156 2883 78 
Q 2563 0 2147 0 
L 494 0 
z
M 1100 541 
L 2078 541 
Q 2531 541 2789 625 
Q 3047 709 3200 863 
Q 3416 1078 3536 1442 
Q 3656 1806 3656 2325 
Q 3656 3044 3420 3430 
Q 3184 3816 2847 3947 
Q 2603 4041 2063 4041 
L 1100 4041 
L 1100 541 
z
" transform="scale(0.015625)"/>
       <path id="ArialMT-65" d="M 2694 1069 
L 3275 997 
Q 3138 488 2766 206 
Q 2394 -75 1816 -75 
Q 1088 -75 661 373 
Q 234 822 234 1631 
Q 234 2469 665 2931 
Q 1097 3394 1784 3394 
Q 2450 3394 2872 2941 
Q 3294 2488 3294 1666 
Q 3294 1616 3291 1516 
L 816 1516 
Q 847 969 1125 678 
Q 1403 388 1819 388 
Q 2128 388 2347 550 
Q 2566 713 2694 1069 
z
M 847 1978 
L 2700 1978 
Q 2663 2397 2488 2606 
Q 2219 2931 1791 2931 
Q 1403 2931 1139 2672 
Q 875 2413 847 1978 
z
" transform="scale(0.015625)"/>
       <path id="ArialMT-6e" d="M 422 0 
L 422 3319 
L 928 3319 
L 928 2847 
Q 1294 3394 1984 3394 
Q 2284 3394 2536 3286 
Q 2788 3178 2913 3003 
Q 3038 2828 3088 2588 
Q 3119 2431 3119 2041 
L 3119 0 
L 2556 0 
L 2556 2019 
Q 2556 2363 2490 2533 
Q 2425 2703 2258 2804 
Q 2091 2906 1866 2906 
Q 1506 2906 1245 2678 
Q 984 2450 984 1813 
L 984 0 
L 422 0 
z
" transform="scale(0.015625)"/>
       <path id="ArialMT-73" d="M 197 991 
L 753 1078 
Q 800 744 1014 566 
Q 1228 388 1613 388 
Q 2000 388 2187 545 
Q 2375 703 2375 916 
Q 2375 1106 2209 1216 
Q 2094 1291 1634 1406 
Q 1016 1563 777 1677 
Q 538 1791 414 1992 
Q 291 2194 291 2438 
Q 291 2659 392 2848 
Q 494 3038 669 3163 
Q 800 3259 1026 3326 
Q 1253 3394 1513 3394 
Q 1903 3394 2198 3281 
Q 2494 3169 2634 2976 
Q 2775 2784 2828 2463 
L 2278 2388 
Q 2241 2644 2061 2787 
Q 1881 2931 1553 2931 
Q 1166 2931 1000 2803 
Q 834 2675 834 2503 
Q 834 2394 903 2306 
Q 972 2216 1119 2156 
Q 1203 2125 1616 2013 
Q 2213 1853 2448 1751 
Q 2684 1650 2818 1456 
Q 2953 1263 2953 975 
Q 2953 694 2789 445 
Q 2625 197 2315 61 
Q 2006 -75 1616 -75 
Q 969 -75 630 194 
Q 291 463 197 991 
z
" transform="scale(0.015625)"/>
       <path id="ArialMT-69" d="M 425 3934 
L 425 4581 
L 988 4581 
L 988 3934 
L 425 3934 
z
M 425 0 
L 425 3319 
L 988 3319 
L 988 0 
L 425 0 
z
" transform="scale(0.015625)"/>
       <path id="ArialMT-74" d="M 1650 503 
L 1731 6 
Q 1494 -44 1306 -44 
Q 1000 -44 831 53 
Q 663 150 594 308 
Q 525 466 525 972 
L 525 2881 
L 113 2881 
L 113 3319 
L 525 3319 
L 525 4141 
L 1084 4478 
L 1084 3319 
L 1650 3319 
L 1650 2881 
L 1084 2881 
L 1084 941 
Q 1084 700 1114 631 
Q 1144 563 1211 522 
Q 1278 481 1403 481 
Q 1497 481 1650 503 
z
" transform="scale(0.015625)"/>
       <path id="ArialMT-79" d="M 397 -1278 
L 334 -750 
Q 519 -800 656 -800 
Q 844 -800 956 -737 
Q 1069 -675 1141 -563 
Q 1194 -478 1313 -144 
Q 1328 -97 1363 -6 
L 103 3319 
L 709 3319 
L 1400 1397 
Q 1534 1031 1641 628 
Q 1738 1016 1872 1384 
L 2581 3319 
L 3144 3319 
L 1881 -56 
Q 1678 -603 1566 -809 
Q 1416 -1088 1222 -1217 
Q 1028 -1347 759 -1347 
Q 597 -1347 397 -1278 
z
" transform="scale(0.015625)"/>
      </defs>
      <use xlink:href="#ArialMT-44"/>
      <use xlink:href="#ArialMT-65" x="72.216797"/>
      <use xlink:href="#ArialMT-6e" x="127.832031"/>
      <use xlink:href="#ArialMT-73" x="183.447266"/>
      <use xlink:href="#ArialMT-69" x="233.447266"/>
      <use xlink:href="#ArialMT-74" x="255.664062"/>
      <use xlink:href="#ArialMT-79" x="283.447266"/>
     </g>
    </g>
   </g>
   <g id="PolyCollection_1">
    <defs>
     <path id="m5f65d6bb44" d="M 83.27625 -48.648999 
L 83.27625 -48.3125 
L 86.233913 -48.3125 
L 89.191577 -48.3125 
L 92.14924 -48.3125 
L 95.106903 -48.3125 
L 98.064567 -48.3125 
L 101.02223 -48.3125 
L 103.979893 -48.3125 
L 106.937557 -48.3125 
L 109.89522 -48.3125 
L 112.852883 -48.3125 
L 115.810546 -48.3125 
L 118.76821 -48.3125 
L 121.725873 -48.3125 
L 124.683536 -48.3125 
L 127.6412 -48.3125 
L 130.598863 -48.3125 
L 133.556526 -48.3125 
L 136.51419 -48.3125 
L 139.471853 -48.3125 
L 142.429516 -48.3125 
L 145.38718 -48.3125 
L 148.344843 -48.3125 
L 151.302506 -48.3125 
L 154.26017 -48.3125 
L 157.217833 -48.3125 
L 160.175496 -48.3125 
L 163.13316 -48.3125 
L 166.090823 -48.3125 
L 169.048486 -48.3125 
L 172.006149 -48.3125 
L 174.963813 -48.3125 
L 177.921476 -48.3125 
L 180.879139 -48.3125 
L 183.836803 -48.3125 
L 186.794466 -48.3125 
L 189.752129 -48.3125 
L 192.709793 -48.3125 
L 195.667456 -48.3125 
L 198.625119 -48.3125 
L 201.582783 -48.3125 
L 204.540446 -48.3125 
L 207.498109 -48.3125 
L 210.455773 -48.3125 
L 213.413436 -48.3125 
L 216.371099 -48.3125 
L 219.328763 -48.3125 
L 222.286426 -48.3125 
L 225.244089 -48.3125 
L 228.201753 -48.3125 
L 231.159416 -48.3125 
L 234.117079 -48.3125 
L 237.074742 -48.3125 
L 240.032406 -48.3125 
L 242.990069 -48.3125 
L 245.947732 -48.3125 
L 248.905396 -48.3125 
L 251.863059 -48.3125 
L 254.820722 -48.3125 
L 257.778386 -48.3125 
L 260.736049 -48.3125 
L 263.693712 -48.3125 
L 266.651376 -48.3125 
L 269.609039 -48.3125 
L 272.566702 -48.3125 
L 275.524366 -48.3125 
L 278.482029 -48.3125 
L 281.439692 -48.3125 
L 284.397356 -48.3125 
L 287.355019 -48.3125 
L 290.312682 -48.3125 
L 293.270345 -48.3125 
L 296.228009 -48.3125 
L 299.185672 -48.3125 
L 302.143335 -48.3125 
L 305.100999 -48.3125 
L 308.058662 -48.3125 
L 311.016325 -48.3125 
L 313.973989 -48.3125 
L 316.931652 -48.3125 
L 319.889315 -48.3125 
L 322.846979 -48.3125 
L 325.804642 -48.3125 
L 328.762305 -48.3125 
L 331.719969 -48.3125 
L 334.677632 -48.3125 
L 337.635295 -48.3125 
L 340.592959 -48.3125 
L 343.550622 -48.3125 
L 346.508285 -48.3125 
L 349.465948 -48.3125 
L 352.423612 -48.3125 
L 355.381275 -48.3125 
L 358.338938 -48.3125 
L 361.296602 -48.3125 
L 364.254265 -48.3125 
L 367.211928 -48.3125 
L 370.169592 -48.3125 
L 373.127255 -48.3125 
L 376.084918 -48.3125 
L 379.042582 -48.3125 
L 382.000245 -48.3125 
L 384.957908 -48.3125 
L 387.915572 -48.3125 
L 390.873235 -48.3125 
L 393.830898 -48.3125 
L 396.788562 -48.3125 
L 399.746225 -48.3125 
L 402.703888 -48.3125 
L 405.661552 -48.3125 
L 408.619215 -48.3125 
L 411.576878 -48.3125 
L 414.534541 -48.3125 
L 417.492205 -48.3125 
L 420.449868 -48.3125 
L 423.407531 -48.3125 
L 426.365195 -48.3125 
L 429.322858 -48.3125 
L 432.280521 -48.3125 
L 435.238185 -48.3125 
L 438.195848 -48.3125 
L 441.153511 -48.3125 
L 444.111175 -48.3125 
L 447.068838 -48.3125 
L 450.026501 -48.3125 
L 452.984165 -48.3125 
L 455.941828 -48.3125 
L 458.899491 -48.3125 
L 461.857155 -48.3125 
L 464.814818 -48.3125 
L 467.772481 -48.3125 
L 470.730144 -48.3125 
L 473.687808 -48.3125 
L 476.645471 -48.3125 
L 479.603134 -48.3125 
L 482.560798 -48.3125 
L 485.518461 -48.3125 
L 488.476124 -48.3125 
L 491.433788 -48.3125 
L 494.391451 -48.3125 
L 497.349114 -48.3125 
L 500.306778 -48.3125 
L 503.264441 -48.3125 
L 506.222104 -48.3125 
L 509.179768 -48.3125 
L 512.137431 -48.3125 
L 515.095094 -48.3125 
L 518.052758 -48.3125 
L 521.010421 -48.3125 
L 523.968084 -48.3125 
L 526.925747 -48.3125 
L 529.883411 -48.3125 
L 532.841074 -48.3125 
L 535.798737 -48.3125 
L 538.756401 -48.3125 
L 541.714064 -48.3125 
L 544.671727 -48.3125 
L 547.629391 -48.3125 
L 550.587054 -48.3125 
L 553.544717 -48.3125 
L 556.502381 -48.3125 
L 559.460044 -48.3125 
L 562.417707 -48.3125 
L 565.375371 -48.3125 
L 568.333034 -48.3125 
L 571.290697 -48.3125 
L 574.248361 -48.3125 
L 577.206024 -48.3125 
L 580.163687 -48.3125 
L 583.121351 -48.3125 
L 586.079014 -48.3125 
L 589.036677 -48.3125 
L 591.99434 -48.3125 
L 594.952004 -48.3125 
L 597.909667 -48.3125 
L 600.86733 -48.3125 
L 603.824994 -48.3125 
L 606.782657 -48.3125 
L 609.74032 -48.3125 
L 612.697984 -48.3125 
L 615.655647 -48.3125 
L 618.61331 -48.3125 
L 621.570974 -48.3125 
L 624.528637 -48.3125 
L 627.4863 -48.3125 
L 630.443964 -48.3125 
L 633.401627 -48.3125 
L 636.35929 -48.3125 
L 639.316954 -48.3125 
L 642.274617 -48.3125 
L 645.23228 -48.3125 
L 648.189943 -48.3125 
L 651.147607 -48.3125 
L 654.10527 -48.3125 
L 657.062933 -48.3125 
L 660.020597 -48.3125 
L 662.97826 -48.3125 
L 665.935923 -48.3125 
L 668.893587 -48.3125 
L 671.85125 -48.3125 
L 671.85125 -48.535388 
L 671.85125 -48.535388 
L 668.893587 -48.584624 
L 665.935923 -48.643452 
L 662.97826 -48.713446 
L 660.020597 -48.796373 
L 657.062933 -48.894208 
L 654.10527 -49.009143 
L 651.147607 -49.143593 
L 648.189943 -49.300205 
L 645.23228 -49.481858 
L 642.274617 -49.691658 
L 639.316954 -49.932937 
L 636.35929 -50.209233 
L 633.401627 -50.524278 
L 630.443964 -50.881972 
L 627.4863 -51.28635 
L 624.528637 -51.741549 
L 621.570974 -52.251759 
L 618.61331 -52.821176 
L 615.655647 -53.453944 
L 612.697984 -54.154094 
L 609.74032 -54.925474 
L 606.782657 -55.771684 
L 603.824994 -56.696 
L 600.86733 -57.701303 
L 597.909667 -58.790007 
L 594.952004 -59.963992 
L 591.99434 -61.224537 
L 589.036677 -62.572269 
L 586.079014 -64.00711 
L 583.121351 -65.528246 
L 580.163687 -67.134098 
L 577.206024 -68.822315 
L 574.248361 -70.589779 
L 571.290697 -72.432624 
L 568.333034 -74.346272 
L 565.375371 -76.325489 
L 562.417707 -78.364448 
L 559.460044 -80.456813 
L 556.502381 -82.595834 
L 553.544717 -84.774445 
L 550.587054 -86.985383 
L 547.629391 -89.221296 
L 544.671727 -91.47487 
L 541.714064 -93.738939 
L 538.756401 -96.006598 
L 535.798737 -98.271311 
L 532.841074 -100.527005 
L 529.883411 -102.768149 
L 526.925747 -104.989822 
L 523.968084 -107.187767 
L 521.010421 -109.358418 
L 518.052758 -111.498918 
L 515.095094 -113.607119 
L 512.137431 -115.681553 
L 509.179768 -117.721405 
L 506.222104 -119.726455 
L 503.264441 -121.697018 
L 500.306778 -123.633865 
L 497.349114 -125.538148 
L 494.391451 -127.411305 
L 491.433788 -129.254975 
L 488.476124 -131.070903 
L 485.518461 -132.86085 
L 482.560798 -134.626509 
L 479.603134 -136.369424 
L 476.645471 -138.090908 
L 473.687808 -139.791984 
L 470.730144 -141.473316 
L 467.772481 -143.135165 
L 464.814818 -144.777339 
L 461.857155 -146.399162 
L 458.899491 -147.999446 
L 455.941828 -149.576476 
L 452.984165 -151.128003 
L 450.026501 -152.651241 
L 447.068838 -154.142882 
L 444.111175 -155.599116 
L 441.153511 -157.015661 
L 438.195848 -158.387807 
L 435.238185 -159.710469 
L 432.280521 -160.978256 
L 429.322858 -162.185543 
L 426.365195 -163.32657 
L 423.407531 -164.395537 
L 420.449868 -165.386723 
L 417.492205 -166.294606 
L 414.534541 -167.113996 
L 411.576878 -167.840169 
L 408.619215 -168.46901 
L 405.661552 -168.997151 
L 402.703888 -169.422101 
L 399.746225 -169.742375 
L 396.788562 -169.957608 
L 393.830898 -170.068644 
L 390.873235 -170.077619 
L 387.915572 -169.988003 
L 384.957908 -169.804625 
L 382.000245 -169.533663 
L 379.042582 -169.182605 
L 376.084918 -168.76017 
L 373.127255 -168.276202 
L 370.169592 -167.741533 
L 367.211928 -167.167809 
L 364.254265 -166.567296 
L 361.296602 -165.952663 
L 358.338938 -165.336739 
L 355.381275 -164.732269 
L 352.423612 -164.151656 
L 349.465948 -163.606701 
L 346.508285 -163.108356 
L 343.550622 -162.666479 
L 340.592959 -162.289617 
L 337.635295 -161.984799 
L 334.677632 -161.757369 
L 331.719969 -161.610842 
L 328.762305 -161.546796 
L 325.804642 -161.564802 
L 322.846979 -161.662393 
L 319.889315 -161.835066 
L 316.931652 -162.07633 
L 313.973989 -162.377781 
L 311.016325 -162.729218 
L 308.058662 -163.118791 
L 305.100999 -163.533175 
L 302.143335 -163.957766 
L 299.185672 -164.376908 
L 296.228009 -164.774127 
L 293.270345 -165.13238 
L 290.312682 -165.434318 
L 287.355019 -165.662545 
L 284.397356 -165.799882 
L 281.439692 -165.829627 
L 278.482029 -165.735802 
L 275.524366 -165.503397 
L 272.566702 -165.11859 
L 269.609039 -164.568959 
L 266.651376 -163.843664 
L 263.693712 -162.933612 
L 260.736049 -161.831597 
L 257.778386 -160.532406 
L 254.820722 -159.03291 
L 251.863059 -157.332109 
L 248.905396 -155.431158 
L 245.947732 -153.333358 
L 242.990069 -151.044119 
L 240.032406 -148.570889 
L 237.074742 -145.923057 
L 234.117079 -143.111827 
L 231.159416 -140.150066 
L 228.201753 -137.052133 
L 225.244089 -133.83368 
L 222.286426 -130.511445 
L 219.328763 -127.103026 
L 216.371099 -123.626646 
L 213.413436 -120.100916 
L 210.455773 -116.544592 
L 207.498109 -112.97634 
L 204.540446 -109.414506 
L 201.582783 -105.876898 
L 198.625119 -102.380579 
L 195.667456 -98.941685 
L 192.709793 -95.575258 
L 189.752129 -92.295104 
L 186.794466 -89.11368 
L 183.836803 -86.041999 
L 180.879139 -83.089569 
L 177.921476 -80.264354 
L 174.963813 -77.572767 
L 172.006149 -75.019679 
L 169.048486 -72.608458 
L 166.090823 -70.34103 
L 163.13316 -68.217949 
L 160.175496 -66.238498 
L 157.217833 -64.400789 
L 154.26017 -62.70188 
L 151.302506 -61.1379 
L 148.344843 -59.704176 
L 145.38718 -58.395359 
L 142.429516 -57.205554 
L 139.471853 -56.128445 
L 136.51419 -55.15741 
L 133.556526 -54.285634 
L 130.598863 -53.506214 
L 127.6412 -52.812248 
L 124.683536 -52.19692 
L 121.725873 -51.653569 
L 118.76821 -51.175756 
L 115.810546 -50.757304 
L 112.852883 -50.392348 
L 109.89522 -50.075357 
L 106.937557 -49.80116 
L 103.979893 -49.564954 
L 101.02223 -49.362309 
L 98.064567 -49.189172 
L 95.106903 -49.041852 
L 92.14924 -48.917013 
L 89.191577 -48.81166 
L 86.233913 -48.723114 
L 83.27625 -48.648999 
z
" style="stroke: #2ecc71"/>
    </defs>
    <g clip-path="url(#p83ddd1fd03)">
     <use xlink:href="#m5f65d6bb44" x="0" y="420.48" style="fill: #2ecc71; fill-opacity: 0.3; stroke: #2ecc71"/>
    </g>
   </g>
   <g id="PolyCollection_2">
    <defs>
     <path id="m3b13bf7dd7" d="M 172.564227 -51.1734 
L 172.564227 -48.3125 
L 173.636575 -48.3125 
L 174.708922 -48.3125 
L 175.78127 -48.3125 
L 176.853618 -48.3125 
L 177.925966 -48.3125 
L 178.998314 -48.3125 
L 180.070662 -48.3125 
L 181.14301 -48.3125 
L 182.215358 -48.3125 
L 183.287706 -48.3125 
L 184.360054 -48.3125 
L 185.432402 -48.3125 
L 186.50475 -48.3125 
L 187.577098 -48.3125 
L 188.649445 -48.3125 
L 189.721793 -48.3125 
L 190.794141 -48.3125 
L 191.866489 -48.3125 
L 192.938837 -48.3125 
L 194.011185 -48.3125 
L 195.083533 -48.3125 
L 196.155881 -48.3125 
L 197.228229 -48.3125 
L 198.300577 -48.3125 
L 199.372925 -48.3125 
L 200.445273 -48.3125 
L 201.517621 -48.3125 
L 202.589969 -48.3125 
L 203.662316 -48.3125 
L 204.734664 -48.3125 
L 205.807012 -48.3125 
L 206.87936 -48.3125 
L 207.951708 -48.3125 
L 209.024056 -48.3125 
L 210.096404 -48.3125 
L 211.168752 -48.3125 
L 212.2411 -48.3125 
L 213.313448 -48.3125 
L 214.385796 -48.3125 
L 215.458144 -48.3125 
L 216.530492 -48.3125 
L 217.60284 -48.3125 
L 218.675187 -48.3125 
L 219.747535 -48.3125 
L 220.819883 -48.3125 
L 221.892231 -48.3125 
L 222.964579 -48.3125 
L 224.036927 -48.3125 
L 225.109275 -48.3125 
L 226.181623 -48.3125 
L 227.253971 -48.3125 
L 228.326319 -48.3125 
L 229.398667 -48.3125 
L 230.471015 -48.3125 
L 231.543363 -48.3125 
L 232.61571 -48.3125 
L 233.688058 -48.3125 
L 234.760406 -48.3125 
L 235.832754 -48.3125 
L 236.905102 -48.3125 
L 237.97745 -48.3125 
L 239.049798 -48.3125 
L 240.122146 -48.3125 
L 241.194494 -48.3125 
L 242.266842 -48.3125 
L 243.33919 -48.3125 
L 244.411538 -48.3125 
L 245.483886 -48.3125 
L 246.556234 -48.3125 
L 247.628581 -48.3125 
L 248.700929 -48.3125 
L 249.773277 -48.3125 
L 250.845625 -48.3125 
L 251.917973 -48.3125 
L 252.990321 -48.3125 
L 254.062669 -48.3125 
L 255.135017 -48.3125 
L 256.207365 -48.3125 
L 257.279713 -48.3125 
L 258.352061 -48.3125 
L 259.424409 -48.3125 
L 260.496757 -48.3125 
L 261.569105 -48.3125 
L 262.641452 -48.3125 
L 263.7138 -48.3125 
L 264.786148 -48.3125 
L 265.858496 -48.3125 
L 266.930844 -48.3125 
L 268.003192 -48.3125 
L 269.07554 -48.3125 
L 270.147888 -48.3125 
L 271.220236 -48.3125 
L 272.292584 -48.3125 
L 273.364932 -48.3125 
L 274.43728 -48.3125 
L 275.509628 -48.3125 
L 276.581975 -48.3125 
L 277.654323 -48.3125 
L 278.726671 -48.3125 
L 279.799019 -48.3125 
L 280.871367 -48.3125 
L 281.943715 -48.3125 
L 283.016063 -48.3125 
L 284.088411 -48.3125 
L 285.160759 -48.3125 
L 286.233107 -48.3125 
L 287.305455 -48.3125 
L 288.377803 -48.3125 
L 289.450151 -48.3125 
L 290.522499 -48.3125 
L 291.594846 -48.3125 
L 292.667194 -48.3125 
L 293.739542 -48.3125 
L 294.81189 -48.3125 
L 295.884238 -48.3125 
L 296.956586 -48.3125 
L 298.028934 -48.3125 
L 299.101282 -48.3125 
L 300.17363 -48.3125 
L 301.245978 -48.3125 
L 302.318326 -48.3125 
L 303.390674 -48.3125 
L 304.463022 -48.3125 
L 305.53537 -48.3125 
L 306.607717 -48.3125 
L 307.680065 -48.3125 
L 308.752413 -48.3125 
L 309.824761 -48.3125 
L 310.897109 -48.3125 
L 311.969457 -48.3125 
L 313.041805 -48.3125 
L 314.114153 -48.3125 
L 315.186501 -48.3125 
L 316.258849 -48.3125 
L 317.331197 -48.3125 
L 318.403545 -48.3125 
L 319.475893 -48.3125 
L 320.54824 -48.3125 
L 321.620588 -48.3125 
L 322.692936 -48.3125 
L 323.765284 -48.3125 
L 324.837632 -48.3125 
L 325.90998 -48.3125 
L 326.982328 -48.3125 
L 328.054676 -48.3125 
L 329.127024 -48.3125 
L 330.199372 -48.3125 
L 331.27172 -48.3125 
L 332.344068 -48.3125 
L 333.416416 -48.3125 
L 334.488764 -48.3125 
L 335.561111 -48.3125 
L 336.633459 -48.3125 
L 337.705807 -48.3125 
L 338.778155 -48.3125 
L 339.850503 -48.3125 
L 340.922851 -48.3125 
L 341.995199 -48.3125 
L 343.067547 -48.3125 
L 344.139895 -48.3125 
L 345.212243 -48.3125 
L 346.284591 -48.3125 
L 347.356939 -48.3125 
L 348.429287 -48.3125 
L 349.501635 -48.3125 
L 350.573982 -48.3125 
L 351.64633 -48.3125 
L 352.718678 -48.3125 
L 353.791026 -48.3125 
L 354.863374 -48.3125 
L 355.935722 -48.3125 
L 357.00807 -48.3125 
L 358.080418 -48.3125 
L 359.152766 -48.3125 
L 360.225114 -48.3125 
L 361.297462 -48.3125 
L 362.36981 -48.3125 
L 363.442158 -48.3125 
L 364.514505 -48.3125 
L 365.586853 -48.3125 
L 366.659201 -48.3125 
L 367.731549 -48.3125 
L 368.803897 -48.3125 
L 369.876245 -48.3125 
L 370.948593 -48.3125 
L 372.020941 -48.3125 
L 373.093289 -48.3125 
L 374.165637 -48.3125 
L 375.237985 -48.3125 
L 376.310333 -48.3125 
L 377.382681 -48.3125 
L 378.455029 -48.3125 
L 379.527376 -48.3125 
L 380.599724 -48.3125 
L 381.672072 -48.3125 
L 382.74442 -48.3125 
L 383.816768 -48.3125 
L 384.889116 -48.3125 
L 385.961464 -48.3125 
L 385.961464 -50.663036 
L 385.961464 -50.663036 
L 384.889116 -50.990355 
L 383.816768 -51.357822 
L 382.74442 -51.76955 
L 381.672072 -52.229959 
L 380.599724 -52.743786 
L 379.527376 -53.316089 
L 378.455029 -53.952253 
L 377.382681 -54.657993 
L 376.310333 -55.439349 
L 375.237985 -56.302683 
L 374.165637 -57.254672 
L 373.093289 -58.302294 
L 372.020941 -59.452815 
L 370.948593 -60.713764 
L 369.876245 -62.092908 
L 368.803897 -63.598225 
L 367.731549 -65.237863 
L 366.659201 -67.020101 
L 365.586853 -68.953303 
L 364.514505 -71.045859 
L 363.442158 -73.306135 
L 362.36981 -75.742399 
L 361.297462 -78.362761 
L 360.225114 -81.175091 
L 359.152766 -84.18694 
L 358.080418 -87.40546 
L 357.00807 -90.837313 
L 355.935722 -94.488579 
L 354.863374 -98.364666 
L 353.791026 -102.47021 
L 352.718678 -106.808986 
L 351.64633 -111.383807 
L 350.573982 -116.196434 
L 349.501635 -121.247482 
L 348.429287 -126.536338 
L 347.356939 -132.061078 
L 346.284591 -137.818391 
L 345.212243 -143.803515 
L 344.139895 -150.010179 
L 343.067547 -156.43056 
L 341.995199 -163.055244 
L 340.922851 -169.873213 
L 339.850503 -176.871832 
L 338.778155 -184.036864 
L 337.705807 -191.352493 
L 336.633459 -198.801369 
L 335.561111 -206.364669 
L 334.488764 -214.022172 
L 333.416416 -221.752362 
L 332.344068 -229.532534 
L 331.27172 -237.338937 
L 330.199372 -245.146912 
L 329.127024 -252.931065 
L 328.054676 -260.665443 
L 326.982328 -268.323727 
L 325.90998 -275.879441 
L 324.837632 -283.306162 
L 323.765284 -290.577745 
L 322.692936 -297.668552 
L 321.620588 -304.553685 
L 320.54824 -311.209213 
L 319.475893 -317.612405 
L 318.403545 -323.741955 
L 317.331197 -329.578195 
L 316.258849 -335.103306 
L 315.186501 -340.301504 
L 314.114153 -345.159219 
L 313.041805 -349.665251 
L 311.969457 -353.810906 
L 310.897109 -357.590106 
L 309.824761 -360.999473 
L 308.752413 -364.038393 
L 307.680065 -366.70904 
L 306.607717 -369.016378 
L 305.53537 -370.96813 
L 304.463022 -372.574714 
L 303.390674 -373.849153 
L 302.318326 -374.806952 
L 301.245978 -375.465943 
L 300.17363 -375.846105 
L 299.101282 -375.969356 
L 298.028934 -375.859325 
L 296.956586 -375.541091 
L 295.884238 -375.040918 
L 294.81189 -374.385959 
L 293.739542 -373.603955 
L 292.667194 -372.722926 
L 291.594846 -371.770851 
L 290.522499 -370.775345 
L 289.450151 -369.763347 
L 288.377803 -368.760804 
L 287.305455 -367.792371 
L 286.233107 -366.881119 
L 285.160759 -366.048262 
L 284.088411 -365.312913 
L 283.016063 -364.691845 
L 281.943715 -364.199299 
L 280.871367 -363.846807 
L 279.799019 -363.643053 
L 278.726671 -363.593767 
L 277.654323 -363.70165 
L 276.581975 -363.966337 
L 275.509628 -364.3844 
L 274.43728 -364.949382 
L 273.364932 -365.651868 
L 272.292584 -366.479592 
L 271.220236 -367.417579 
L 270.147888 -368.448316 
L 269.07554 -369.551955 
L 268.003192 -370.706542 
L 266.930844 -371.888274 
L 265.858496 -373.071767 
L 264.786148 -374.230359 
L 263.7138 -375.336408 
L 262.641452 -376.361614 
L 261.569105 -377.277341 
L 260.496757 -378.054943 
L 259.424409 -378.66609 
L 258.352061 -379.083083 
L 257.279713 -379.279167 
L 256.207365 -379.228824 
L 255.135017 -378.908057 
L 254.062669 -378.294647 
L 252.990321 -377.368388 
L 251.917973 -376.111308 
L 250.845625 -374.507846 
L 249.773277 -372.545011 
L 248.700929 -370.212511 
L 247.628581 -367.502841 
L 246.556234 -364.41135 
L 245.483886 -360.936273 
L 244.411538 -357.078721 
L 243.33919 -352.842659 
L 242.266842 -348.234835 
L 241.194494 -343.264694 
L 240.122146 -337.944257 
L 239.049798 -332.287982 
L 237.97745 -326.312594 
L 236.905102 -320.036906 
L 235.832754 -313.481612 
L 234.760406 -306.669078 
L 233.688058 -299.623108 
L 232.61571 -292.368713 
L 231.543363 -284.931871 
L 230.471015 -277.339284 
L 229.398667 -269.618136 
L 228.326319 -261.795856 
L 227.253971 -253.899887 
L 226.181623 -245.957458 
L 225.109275 -237.995379 
L 224.036927 -230.039835 
L 222.964579 -222.116203 
L 221.892231 -214.248881 
L 220.819883 -206.461138 
L 219.747535 -198.774977 
L 218.675187 -191.211021 
L 217.60284 -183.788413 
L 216.530492 -176.524742 
L 215.458144 -169.43598 
L 214.385796 -162.536444 
L 213.313448 -155.838773 
L 212.2411 -149.35392 
L 211.168752 -143.091163 
L 210.096404 -137.058135 
L 209.024056 -131.260856 
L 207.951708 -125.70379 
L 206.87936 -120.389906 
L 205.807012 -115.320749 
L 204.734664 -110.496523 
L 203.662316 -105.916179 
L 202.589969 -101.577502 
L 201.517621 -97.477214 
L 200.445273 -93.611071 
L 199.372925 -89.973962 
L 198.300577 -86.56001 
L 197.228229 -83.362672 
L 196.155881 -80.374837 
L 195.083533 -77.588919 
L 194.011185 -74.996949 
L 192.938837 -72.590662 
L 191.866489 -70.361578 
L 190.794141 -68.301081 
L 189.721793 -66.400486 
L 188.649445 -64.651107 
L 187.577098 -63.044316 
L 186.50475 -61.571593 
L 185.432402 -60.224578 
L 184.360054 -58.995108 
L 183.287706 -57.875255 
L 182.215358 -56.857354 
L 181.14301 -55.934029 
L 180.070662 -55.098209 
L 178.998314 -54.343149 
L 177.925966 -53.662434 
L 176.853618 -53.049991 
L 175.78127 -52.500087 
L 174.708922 -52.007332 
L 173.636575 -51.566676 
L 172.564227 -51.1734 
z
" style="stroke: #e74c3c"/>
    </defs>
    <g clip-path="url(#p83ddd1fd03)">
     <use xlink:href="#m3b13bf7dd7" x="0" y="420.48" style="fill: #e74c3c; fill-opacity: 0.3; stroke: #e74c3c"/>
    </g>
   </g>
   <g id="patch_3">
    <path d="M 53.8475 372.1675 
L 53.8475 24.6525 
" style="fill: none; stroke: #cccccc; stroke-width: 1.5; stroke-linejoin: miter; stroke-linecap: square"/>
   </g>
   <g id="patch_4">
    <path d="M 53.8475 372.1675 
L 701.28 372.1675 
" style="fill: none; stroke: #cccccc; stroke-width: 1.5; stroke-linejoin: miter; stroke-linecap: square"/>
   </g>
   <g id="text_19">
    <!-- Distribution of Absolute Errors -->
    <g style="fill: #262626" transform="translate(271.74375 18.6525) scale(0.16 -0.16)">
     <defs>
      <path id="ArialMT-62" d="M 941 0 
L 419 0 
L 419 4581 
L 981 4581 
L 981 2947 
Q 1338 3394 1891 3394 
Q 2197 3394 2470 3270 
Q 2744 3147 2920 2923 
Q 3097 2700 3197 2384 
Q 3297 2069 3297 1709 
Q 3297 856 2875 390 
Q 2453 -75 1863 -75 
Q 1275 -75 941 416 
L 941 0 
z
M 934 1684 
Q 934 1088 1097 822 
Q 1363 388 1816 388 
Q 2184 388 2453 708 
Q 2722 1028 2722 1663 
Q 2722 2313 2464 2622 
Q 2206 2931 1841 2931 
Q 1472 2931 1203 2611 
Q 934 2291 934 1684 
z
" transform="scale(0.015625)"/>
      <path id="ArialMT-75" d="M 2597 0 
L 2597 488 
Q 2209 -75 1544 -75 
Q 1250 -75 995 37 
Q 741 150 617 320 
Q 494 491 444 738 
Q 409 903 409 1263 
L 409 3319 
L 972 3319 
L 972 1478 
Q 972 1038 1006 884 
Q 1059 663 1231 536 
Q 1403 409 1656 409 
Q 1909 409 2131 539 
Q 2353 669 2445 892 
Q 2538 1116 2538 1541 
L 2538 3319 
L 3100 3319 
L 3100 0 
L 2597 0 
z
" transform="scale(0.015625)"/>
      <path id="ArialMT-66" d="M 556 0 
L 556 2881 
L 59 2881 
L 59 3319 
L 556 3319 
L 556 3672 
Q 556 4006 616 4169 
Q 697 4388 901 4523 
Q 1106 4659 1475 4659 
Q 1713 4659 2000 4603 
L 1916 4113 
Q 1741 4144 1584 4144 
Q 1328 4144 1222 4034 
Q 1116 3925 1116 3625 
L 1116 3319 
L 1763 3319 
L 1763 2881 
L 1116 2881 
L 1116 0 
L 556 0 
z
" transform="scale(0.015625)"/>
      <path id="ArialMT-41" d="M -9 0 
L 1750 4581 
L 2403 4581 
L 4278 0 
L 3588 0 
L 3053 1388 
L 1138 1388 
L 634 0 
L -9 0 
z
M 1313 1881 
L 2866 1881 
L 2388 3150 
Q 2169 3728 2063 4100 
Q 1975 3659 1816 3225 
L 1313 1881 
z
" transform="scale(0.015625)"/>
      <path id="ArialMT-6c" d="M 409 0 
L 409 4581 
L 972 4581 
L 972 0 
L 409 0 
z
" transform="scale(0.015625)"/>
     </defs>
     <use xlink:href="#ArialMT-44"/>
     <use xlink:href="#ArialMT-69" x="72.216797"/>
     <use xlink:href="#ArialMT-73" x="94.433594"/>
     <use xlink:href="#ArialMT-74" x="144.433594"/>
     <use xlink:href="#ArialMT-72" x="172.216797"/>
     <use xlink:href="#ArialMT-69" x="205.517578"/>
     <use xlink:href="#ArialMT-62" x="227.734375"/>
     <use xlink:href="#ArialMT-75" x="283.349609"/>
     <use xlink:href="#ArialMT-74" x="338.964844"/>
     <use xlink:href="#ArialMT-69" x="366.748047"/>
     <use xlink:href="#ArialMT-6f" x="388.964844"/>
     <use xlink:href="#ArialMT-6e" x="444.580078"/>
     <use xlink:href="#ArialMT-20" x="500.195312"/>
     <use xlink:href="#ArialMT-6f" x="527.978516"/>
     <use xlink:href="#ArialMT-66" x="583.59375"/>
     <use xlink:href="#ArialMT-20" x="611.376953"/>
     <use xlink:href="#ArialMT-41" x="633.660156"/>
     <use xlink:href="#ArialMT-62" x="700.359375"/>
     <use xlink:href="#ArialMT-73" x="755.974609"/>
     <use xlink:href="#ArialMT-6f" x="805.974609"/>
     <use xlink:href="#ArialMT-6c" x="861.589844"/>
     <use xlink:href="#ArialMT-75" x="883.806641"/>
     <use xlink:href="#ArialMT-74" x="939.421875"/>
     <use xlink:href="#ArialMT-65" x="967.205078"/>
     <use xlink:href="#ArialMT-20" x="1022.820312"/>
     <use xlink:href="#ArialMT-45" x="1050.603516"/>
     <use xlink:href="#ArialMT-72" x="1117.302734"/>
     <use xlink:href="#ArialMT-72" x="1150.603516"/>
     <use xlink:href="#ArialMT-6f" x="1183.904297"/>
     <use xlink:href="#ArialMT-72" x="1239.519531"/>
     <use xlink:href="#ArialMT-73" x="1272.820312"/>
    </g>
   </g>
   <g id="legend_1">
    <g id="patch_5">
     <path d="M 497.20125 68.775 
L 692.88 68.775 
Q 695.28 68.775 695.28 66.375 
L 695.28 33.0525 
Q 695.28 30.6525 692.88 30.6525 
L 497.20125 30.6525 
Q 494.80125 30.6525 494.80125 33.0525 
L 494.80125 66.375 
Q 494.80125 68.775 497.20125 68.775 
z
" style="fill: #ffffff; opacity: 0.8; stroke: #cccccc; stroke-linejoin: miter"/>
    </g>
    <g id="patch_6">
     <path d="M 499.60125 44.188125 
L 523.60125 44.188125 
L 523.60125 35.788125 
L 499.60125 35.788125 
z
" style="fill: #2ecc71; fill-opacity: 0.3; stroke: #2ecc71; stroke-linejoin: miter"/>
    </g>
    <g id="text_20">
     <!-- Training (μ=1.93%, σ=1.28%) -->
     <g style="fill: #262626" transform="translate(533.20125 44.188125) scale(0.12 -0.12)">
      <defs>
       <path id="ArialMT-54" d="M 1659 0 
L 1659 4041 
L 150 4041 
L 150 4581 
L 3781 4581 
L 3781 4041 
L 2266 4041 
L 2266 0 
L 1659 0 
z
" transform="scale(0.015625)"/>
       <path id="ArialMT-61" d="M 2588 409 
Q 2275 144 1986 34 
Q 1697 -75 1366 -75 
Q 819 -75 525 192 
Q 231 459 231 875 
Q 231 1119 342 1320 
Q 453 1522 633 1644 
Q 813 1766 1038 1828 
Q 1203 1872 1538 1913 
Q 2219 1994 2541 2106 
Q 2544 2222 2544 2253 
Q 2544 2597 2384 2738 
Q 2169 2928 1744 2928 
Q 1347 2928 1158 2789 
Q 969 2650 878 2297 
L 328 2372 
Q 403 2725 575 2942 
Q 747 3159 1072 3276 
Q 1397 3394 1825 3394 
Q 2250 3394 2515 3294 
Q 2781 3194 2906 3042 
Q 3031 2891 3081 2659 
Q 3109 2516 3109 2141 
L 3109 1391 
Q 3109 606 3145 398 
Q 3181 191 3288 0 
L 2700 0 
Q 2613 175 2588 409 
z
M 2541 1666 
Q 2234 1541 1622 1453 
Q 1275 1403 1131 1340 
Q 988 1278 909 1158 
Q 831 1038 831 891 
Q 831 666 1001 516 
Q 1172 366 1500 366 
Q 1825 366 2078 508 
Q 2331 650 2450 897 
Q 2541 1088 2541 1459 
L 2541 1666 
z
" transform="scale(0.015625)"/>
       <path id="ArialMT-67" d="M 319 -275 
L 866 -356 
Q 900 -609 1056 -725 
Q 1266 -881 1628 -881 
Q 2019 -881 2231 -725 
Q 2444 -569 2519 -288 
Q 2563 -116 2559 434 
Q 2191 0 1641 0 
Q 956 0 581 494 
Q 206 988 206 1678 
Q 206 2153 378 2554 
Q 550 2956 876 3175 
Q 1203 3394 1644 3394 
Q 2231 3394 2613 2919 
L 2613 3319 
L 3131 3319 
L 3131 450 
Q 3131 -325 2973 -648 
Q 2816 -972 2473 -1159 
Q 2131 -1347 1631 -1347 
Q 1038 -1347 672 -1080 
Q 306 -813 319 -275 
z
M 784 1719 
Q 784 1066 1043 766 
Q 1303 466 1694 466 
Q 2081 466 2343 764 
Q 2606 1063 2606 1700 
Q 2606 2309 2336 2618 
Q 2066 2928 1684 2928 
Q 1309 2928 1046 2623 
Q 784 2319 784 1719 
z
" transform="scale(0.015625)"/>
       <path id="ArialMT-3bc" d="M 3181 3319 
L 3181 0 
L 2678 0 
L 2678 394 
Q 2516 144 2356 50 
Q 2138 -78 1847 -78 
Q 1588 -78 1388 25 
Q 1238 103 1056 334 
L 1056 -1272 
L 500 -1272 
L 500 3319 
L 1056 3319 
L 1056 1913 
Q 1056 1147 1137 920 
Q 1219 694 1401 562 
Q 1584 431 1822 431 
Q 2072 431 2269 568 
Q 2466 706 2547 923 
Q 2628 1141 2628 1903 
L 2628 3319 
L 3181 3319 
z
" transform="scale(0.015625)"/>
       <path id="ArialMT-3d" d="M 3381 2694 
L 356 2694 
L 356 3219 
L 3381 3219 
L 3381 2694 
z
M 3381 1303 
L 356 1303 
L 356 1828 
L 3381 1828 
L 3381 1303 
z
" transform="scale(0.015625)"/>
       <path id="ArialMT-39" d="M 350 1059 
L 891 1109 
Q 959 728 1153 556 
Q 1347 384 1650 384 
Q 1909 384 2104 503 
Q 2300 622 2425 820 
Q 2550 1019 2634 1356 
Q 2719 1694 2719 2044 
Q 2719 2081 2716 2156 
Q 2547 1888 2255 1720 
Q 1963 1553 1622 1553 
Q 1053 1553 659 1965 
Q 266 2378 266 3053 
Q 266 3750 677 4175 
Q 1088 4600 1706 4600 
Q 2153 4600 2523 4359 
Q 2894 4119 3086 3673 
Q 3278 3228 3278 2384 
Q 3278 1506 3087 986 
Q 2897 466 2520 194 
Q 2144 -78 1638 -78 
Q 1100 -78 759 220 
Q 419 519 350 1059 
z
M 2653 3081 
Q 2653 3566 2395 3850 
Q 2138 4134 1775 4134 
Q 1400 4134 1122 3828 
Q 844 3522 844 3034 
Q 844 2597 1108 2323 
Q 1372 2050 1759 2050 
Q 2150 2050 2401 2323 
Q 2653 2597 2653 3081 
z
" transform="scale(0.015625)"/>
       <path id="ArialMT-2c" d="M 569 0 
L 569 641 
L 1209 641 
L 1209 0 
Q 1209 -353 1084 -570 
Q 959 -788 688 -906 
L 531 -666 
Q 709 -588 793 -436 
Q 878 -284 888 0 
L 569 0 
z
" transform="scale(0.015625)"/>
       <path id="ArialMT-3c3" d="M 3809 3319 
L 3809 2863 
L 2906 2863 
Q 3322 2475 3322 1656 
Q 3322 766 2867 345 
Q 2413 -75 1763 -75 
Q 1088 -75 650 362 
Q 213 800 213 1659 
Q 213 2544 667 2969 
Q 1122 3394 1763 3394 
Q 1997 3394 2294 3319 
L 3809 3319 
z
M 1753 2928 
Q 1344 2928 1067 2609 
Q 791 2291 791 1656 
Q 791 1025 1061 706 
Q 1331 388 1763 388 
Q 2216 388 2483 720 
Q 2750 1053 2750 1659 
Q 2750 2213 2504 2570 
Q 2259 2928 1753 2928 
z
" transform="scale(0.015625)"/>
       <path id="ArialMT-38" d="M 1131 2484 
Q 781 2613 612 2850 
Q 444 3088 444 3419 
Q 444 3919 803 4259 
Q 1163 4600 1759 4600 
Q 2359 4600 2725 4251 
Q 3091 3903 3091 3403 
Q 3091 3084 2923 2848 
Q 2756 2613 2416 2484 
Q 2838 2347 3058 2040 
Q 3278 1734 3278 1309 
Q 3278 722 2862 322 
Q 2447 -78 1769 -78 
Q 1091 -78 675 323 
Q 259 725 259 1325 
Q 259 1772 486 2073 
Q 713 2375 1131 2484 
z
M 1019 3438 
Q 1019 3113 1228 2906 
Q 1438 2700 1772 2700 
Q 2097 2700 2305 2904 
Q 2513 3109 2513 3406 
Q 2513 3716 2298 3927 
Q 2084 4138 1766 4138 
Q 1444 4138 1231 3931 
Q 1019 3725 1019 3438 
z
M 838 1322 
Q 838 1081 952 856 
Q 1066 631 1291 507 
Q 1516 384 1775 384 
Q 2178 384 2440 643 
Q 2703 903 2703 1303 
Q 2703 1709 2433 1975 
Q 2163 2241 1756 2241 
Q 1359 2241 1098 1978 
Q 838 1716 838 1322 
z
" transform="scale(0.015625)"/>
      </defs>
      <use xlink:href="#ArialMT-54"/>
      <use xlink:href="#ArialMT-72" x="57.333984"/>
      <use xlink:href="#ArialMT-61" x="90.634766"/>
      <use xlink:href="#ArialMT-69" x="146.25"/>
      <use xlink:href="#ArialMT-6e" x="168.466797"/>
      <use xlink:href="#ArialMT-69" x="224.082031"/>
      <use xlink:href="#ArialMT-6e" x="246.298828"/>
      <use xlink:href="#ArialMT-67" x="301.914062"/>
      <use xlink:href="#ArialMT-20" x="357.529297"/>
      <use xlink:href="#ArialMT-28" x="385.3125"/>
      <use xlink:href="#ArialMT-3bc" x="418.613281"/>
      <use xlink:href="#ArialMT-3d" x="476.230469"/>
      <use xlink:href="#ArialMT-31" x="534.628906"/>
      <use xlink:href="#ArialMT-2e" x="590.244141"/>
      <use xlink:href="#ArialMT-39" x="618.027344"/>
      <use xlink:href="#ArialMT-33" x="673.642578"/>
      <use xlink:href="#ArialMT-25" x="729.257812"/>
      <use xlink:href="#ArialMT-2c" x="818.173828"/>
      <use xlink:href="#ArialMT-20" x="845.957031"/>
      <use xlink:href="#ArialMT-3c3" x="873.740234"/>
      <use xlink:href="#ArialMT-3d" x="935.458984"/>
      <use xlink:href="#ArialMT-31" x="993.857422"/>
      <use xlink:href="#ArialMT-2e" x="1049.472656"/>
      <use xlink:href="#ArialMT-32" x="1077.255859"/>
      <use xlink:href="#ArialMT-38" x="1132.871094"/>
      <use xlink:href="#ArialMT-25" x="1188.486328"/>
      <use xlink:href="#ArialMT-29" x="1277.402344"/>
     </g>
    </g>
    <g id="patch_7">
     <path d="M 499.60125 61.449375 
L 523.60125 61.449375 
L 523.60125 53.049375 
L 499.60125 53.049375 
z
" style="fill: #e74c3c; fill-opacity: 0.3; stroke: #e74c3c; stroke-linejoin: miter"/>
    </g>
    <g id="text_21">
     <!-- Testing (μ=0.78%, σ=0.45%) -->
     <g style="fill: #262626" transform="translate(533.20125 61.449375) scale(0.12 -0.12)">
      <defs>
       <path id="ArialMT-37" d="M 303 3981 
L 303 4522 
L 3269 4522 
L 3269 4084 
Q 2831 3619 2401 2847 
Q 1972 2075 1738 1259 
Q 1569 684 1522 0 
L 944 0 
Q 953 541 1156 1306 
Q 1359 2072 1739 2783 
Q 2119 3494 2547 3981 
L 303 3981 
z
" transform="scale(0.015625)"/>
      </defs>
      <use xlink:href="#ArialMT-54"/>
      <use xlink:href="#ArialMT-65" x="49.958984"/>
      <use xlink:href="#ArialMT-73" x="105.574219"/>
      <use xlink:href="#ArialMT-74" x="155.574219"/>
      <use xlink:href="#ArialMT-69" x="183.357422"/>
      <use xlink:href="#ArialMT-6e" x="205.574219"/>
      <use xlink:href="#ArialMT-67" x="261.189453"/>
      <use xlink:href="#ArialMT-20" x="316.804688"/>
      <use xlink:href="#ArialMT-28" x="344.587891"/>
      <use xlink:href="#ArialMT-3bc" x="377.888672"/>
      <use xlink:href="#ArialMT-3d" x="435.505859"/>
      <use xlink:href="#ArialMT-30" x="493.904297"/>
      <use xlink:href="#ArialMT-2e" x="549.519531"/>
      <use xlink:href="#ArialMT-37" x="577.302734"/>
      <use xlink:href="#ArialMT-38" x="632.917969"/>
      <use xlink:href="#ArialMT-25" x="688.533203"/>
      <use xlink:href="#ArialMT-2c" x="777.449219"/>
      <use xlink:href="#ArialMT-20" x="805.232422"/>
      <use xlink:href="#ArialMT-3c3" x="833.015625"/>
      <use xlink:href="#ArialMT-3d" x="894.734375"/>
      <use xlink:href="#ArialMT-30" x="953.132812"/>
      <use xlink:href="#ArialMT-2e" x="1008.748047"/>
      <use xlink:href="#ArialMT-34" x="1036.53125"/>
      <use xlink:href="#ArialMT-35" x="1092.146484"/>
      <use xlink:href="#ArialMT-25" x="1147.761719"/>
      <use xlink:href="#ArialMT-29" x="1236.677734"/>
     </g>
    </g>
   </g>
  </g>
 </g>
 <defs>
  <clipPath id="p83ddd1fd03">
   <rect x="53.8475" y="24.6525" width="647.4325" height="347.515"/>
  </clipPath>
 </defs>
</svg>
