<?xml version="1.0" encoding="utf-8" standalone="no"?>
<!DOCTYPE svg PUBLIC "-//W3C//DTD SVG 1.1//EN"
  "http://www.w3.org/Graphics/SVG/1.1/DTD/svg11.dtd">
<svg xmlns:xlink="http://www.w3.org/1999/xlink" width="708.48pt" height="420.48pt" viewBox="0 0 708.48 420.48" xmlns="http://www.w3.org/2000/svg" version="1.1">
 <metadata>
  <rdf:RDF xmlns:dc="http://purl.org/dc/elements/1.1/" xmlns:cc="http://creativecommons.org/ns#" xmlns:rdf="http://www.w3.org/1999/02/22-rdf-syntax-ns#">
   <cc:Work>
    <dc:type rdf:resource="http://purl.org/dc/dcmitype/StillImage"/>
    <dc:date>2025-01-07T19:50:09.840406</dc:date>
    <dc:format>image/svg+xml</dc:format>
    <dc:creator>
     <cc:Agent>
      <dc:title>Matplotlib v3.9.3, https://matplotlib.org/</dc:title>
     </cc:Agent>
    </dc:creator>
   </cc:Work>
  </rdf:RDF>
 </metadata>
 <defs>
  <style type="text/css">*{stroke-linejoin: round; stroke-linecap: butt}</style>
 </defs>
 <g id="figure_1">
  <g id="patch_1">
   <path d="M 0 420.48 
L 708.48 420.48 
L 708.48 -0 
L 0 -0 
z
" style="fill: #ffffff"/>
  </g>
  <g id="axes_1">
   <g id="patch_2">
    <path d="M 60.520625 372.1675 
L 701.28 372.1675 
L 701.28 24.6525 
L 60.520625 24.6525 
z
" style="fill: #ffffff"/>
   </g>
   <g id="matplotlib.axis_1">
    <g id="xtick_1">
     <g id="line2d_1">
      <path d="M 95.416221 372.1675 
L 95.416221 24.6525 
" clip-path="url(#pfc01d7da9e)" style="fill: none; stroke: #cccccc; stroke-opacity: 0.3; stroke-width: 0.5; stroke-linecap: round"/>
     </g>
     <g id="text_1">
      <!-- −2 -->
      <g style="fill: #262626" transform="translate(88.575284 387.756875) scale(0.12 -0.12)">
       <defs>
        <path id="ArialMT-2212" d="M 3381 1997 
L 356 1997 
L 356 2522 
L 3381 2522 
L 3381 1997 
z
" transform="scale(0.015625)"/>
        <path id="ArialMT-32" d="M 3222 541 
L 3222 0 
L 194 0 
Q 188 203 259 391 
Q 375 700 629 1000 
Q 884 1300 1366 1694 
Q 2113 2306 2375 2664 
Q 2638 3022 2638 3341 
Q 2638 3675 2398 3904 
Q 2159 4134 1775 4134 
Q 1369 4134 1125 3890 
Q 881 3647 878 3216 
L 300 3275 
Q 359 3922 746 4261 
Q 1134 4600 1788 4600 
Q 2447 4600 2831 4234 
Q 3216 3869 3216 3328 
Q 3216 3053 3103 2787 
Q 2991 2522 2730 2228 
Q 2469 1934 1863 1422 
Q 1356 997 1212 845 
Q 1069 694 975 541 
L 3222 541 
z
" transform="scale(0.015625)"/>
       </defs>
       <use xlink:href="#ArialMT-2212"/>
       <use xlink:href="#ArialMT-32" x="58.398438"/>
      </g>
     </g>
    </g>
    <g id="xtick_2">
     <g id="line2d_2">
      <path d="M 232.093106 372.1675 
L 232.093106 24.6525 
" clip-path="url(#pfc01d7da9e)" style="fill: none; stroke: #cccccc; stroke-opacity: 0.3; stroke-width: 0.5; stroke-linecap: round"/>
     </g>
     <g id="text_2">
      <!-- 0 -->
      <g style="fill: #262626" transform="translate(228.756544 387.756875) scale(0.12 -0.12)">
       <defs>
        <path id="ArialMT-30" d="M 266 2259 
Q 266 3072 433 3567 
Q 600 4063 929 4331 
Q 1259 4600 1759 4600 
Q 2128 4600 2406 4451 
Q 2684 4303 2865 4023 
Q 3047 3744 3150 3342 
Q 3253 2941 3253 2259 
Q 3253 1453 3087 958 
Q 2922 463 2592 192 
Q 2263 -78 1759 -78 
Q 1097 -78 719 397 
Q 266 969 266 2259 
z
M 844 2259 
Q 844 1131 1108 757 
Q 1372 384 1759 384 
Q 2147 384 2411 759 
Q 2675 1134 2675 2259 
Q 2675 3391 2411 3762 
Q 2147 4134 1753 4134 
Q 1366 4134 1134 3806 
Q 844 3388 844 2259 
z
" transform="scale(0.015625)"/>
       </defs>
       <use xlink:href="#ArialMT-30"/>
      </g>
     </g>
    </g>
    <g id="xtick_3">
     <g id="line2d_3">
      <path d="M 368.769991 372.1675 
L 368.769991 24.6525 
" clip-path="url(#pfc01d7da9e)" style="fill: none; stroke: #cccccc; stroke-opacity: 0.3; stroke-width: 0.5; stroke-linecap: round"/>
     </g>
     <g id="text_3">
      <!-- 2 -->
      <g style="fill: #262626" transform="translate(365.433429 387.756875) scale(0.12 -0.12)">
       <use xlink:href="#ArialMT-32"/>
      </g>
     </g>
    </g>
    <g id="xtick_4">
     <g id="line2d_4">
      <path d="M 505.446876 372.1675 
L 505.446876 24.6525 
" clip-path="url(#pfc01d7da9e)" style="fill: none; stroke: #cccccc; stroke-opacity: 0.3; stroke-width: 0.5; stroke-linecap: round"/>
     </g>
     <g id="text_4">
      <!-- 4 -->
      <g style="fill: #262626" transform="translate(502.110314 387.756875) scale(0.12 -0.12)">
       <defs>
        <path id="ArialMT-34" d="M 2069 0 
L 2069 1097 
L 81 1097 
L 81 1613 
L 2172 4581 
L 2631 4581 
L 2631 1613 
L 3250 1613 
L 3250 1097 
L 2631 1097 
L 2631 0 
L 2069 0 
z
M 2069 1613 
L 2069 3678 
L 634 1613 
L 2069 1613 
z
" transform="scale(0.015625)"/>
       </defs>
       <use xlink:href="#ArialMT-34"/>
      </g>
     </g>
    </g>
    <g id="xtick_5">
     <g id="line2d_5">
      <path d="M 642.123761 372.1675 
L 642.123761 24.6525 
" clip-path="url(#pfc01d7da9e)" style="fill: none; stroke: #cccccc; stroke-opacity: 0.3; stroke-width: 0.5; stroke-linecap: round"/>
     </g>
     <g id="text_5">
      <!-- 6 -->
      <g style="fill: #262626" transform="translate(638.787199 387.756875) scale(0.12 -0.12)">
       <defs>
        <path id="ArialMT-36" d="M 3184 3459 
L 2625 3416 
Q 2550 3747 2413 3897 
Q 2184 4138 1850 4138 
Q 1581 4138 1378 3988 
Q 1113 3794 959 3422 
Q 806 3050 800 2363 
Q 1003 2672 1297 2822 
Q 1591 2972 1913 2972 
Q 2475 2972 2870 2558 
Q 3266 2144 3266 1488 
Q 3266 1056 3080 686 
Q 2894 316 2569 119 
Q 2244 -78 1831 -78 
Q 1128 -78 684 439 
Q 241 956 241 2144 
Q 241 3472 731 4075 
Q 1159 4600 1884 4600 
Q 2425 4600 2770 4297 
Q 3116 3994 3184 3459 
z
M 888 1484 
Q 888 1194 1011 928 
Q 1134 663 1356 523 
Q 1578 384 1822 384 
Q 2178 384 2434 671 
Q 2691 959 2691 1453 
Q 2691 1928 2437 2201 
Q 2184 2475 1800 2475 
Q 1419 2475 1153 2201 
Q 888 1928 888 1484 
z
" transform="scale(0.015625)"/>
       </defs>
       <use xlink:href="#ArialMT-36"/>
      </g>
     </g>
    </g>
    <g id="text_6">
     <!-- Error (%) -->
     <g style="fill: #262626" transform="translate(352.515312 410.333438) scale(0.14 -0.14)">
      <defs>
       <path id="ArialMT-45" d="M 506 0 
L 506 4581 
L 3819 4581 
L 3819 4041 
L 1113 4041 
L 1113 2638 
L 3647 2638 
L 3647 2100 
L 1113 2100 
L 1113 541 
L 3925 541 
L 3925 0 
L 506 0 
z
" transform="scale(0.015625)"/>
       <path id="ArialMT-72" d="M 416 0 
L 416 3319 
L 922 3319 
L 922 2816 
Q 1116 3169 1280 3281 
Q 1444 3394 1641 3394 
Q 1925 3394 2219 3213 
L 2025 2691 
Q 1819 2813 1613 2813 
Q 1428 2813 1281 2702 
Q 1134 2591 1072 2394 
Q 978 2094 978 1738 
L 978 0 
L 416 0 
z
" transform="scale(0.015625)"/>
       <path id="ArialMT-6f" d="M 213 1659 
Q 213 2581 725 3025 
Q 1153 3394 1769 3394 
Q 2453 3394 2887 2945 
Q 3322 2497 3322 1706 
Q 3322 1066 3130 698 
Q 2938 331 2570 128 
Q 2203 -75 1769 -75 
Q 1072 -75 642 372 
Q 213 819 213 1659 
z
M 791 1659 
Q 791 1022 1069 705 
Q 1347 388 1769 388 
Q 2188 388 2466 706 
Q 2744 1025 2744 1678 
Q 2744 2294 2464 2611 
Q 2184 2928 1769 2928 
Q 1347 2928 1069 2612 
Q 791 2297 791 1659 
z
" transform="scale(0.015625)"/>
       <path id="ArialMT-20" transform="scale(0.015625)"/>
       <path id="ArialMT-28" d="M 1497 -1347 
Q 1031 -759 709 28 
Q 388 816 388 1659 
Q 388 2403 628 3084 
Q 909 3875 1497 4659 
L 1900 4659 
Q 1522 4009 1400 3731 
Q 1209 3300 1100 2831 
Q 966 2247 966 1656 
Q 966 153 1900 -1347 
L 1497 -1347 
z
" transform="scale(0.015625)"/>
       <path id="ArialMT-25" d="M 372 3481 
Q 372 3972 619 4315 
Q 866 4659 1334 4659 
Q 1766 4659 2048 4351 
Q 2331 4044 2331 3447 
Q 2331 2866 2045 2552 
Q 1759 2238 1341 2238 
Q 925 2238 648 2547 
Q 372 2856 372 3481 
z
M 1350 4272 
Q 1141 4272 1002 4090 
Q 863 3909 863 3425 
Q 863 2984 1003 2804 
Q 1144 2625 1350 2625 
Q 1563 2625 1702 2806 
Q 1841 2988 1841 3469 
Q 1841 3913 1700 4092 
Q 1559 4272 1350 4272 
z
M 1353 -169 
L 3859 4659 
L 4316 4659 
L 1819 -169 
L 1353 -169 
z
M 3334 1075 
Q 3334 1569 3581 1911 
Q 3828 2253 4300 2253 
Q 4731 2253 5014 1945 
Q 5297 1638 5297 1041 
Q 5297 459 5011 145 
Q 4725 -169 4303 -169 
Q 3888 -169 3611 142 
Q 3334 453 3334 1075 
z
M 4316 1866 
Q 4103 1866 3964 1684 
Q 3825 1503 3825 1019 
Q 3825 581 3965 400 
Q 4106 219 4313 219 
Q 4528 219 4667 400 
Q 4806 581 4806 1063 
Q 4806 1506 4665 1686 
Q 4525 1866 4316 1866 
z
" transform="scale(0.015625)"/>
       <path id="ArialMT-29" d="M 791 -1347 
L 388 -1347 
Q 1322 153 1322 1656 
Q 1322 2244 1188 2822 
Q 1081 3291 891 3722 
Q 769 4003 388 4659 
L 791 4659 
Q 1378 3875 1659 3084 
Q 1900 2403 1900 1659 
Q 1900 816 1576 28 
Q 1253 -759 791 -1347 
z
" transform="scale(0.015625)"/>
      </defs>
      <use xlink:href="#ArialMT-45"/>
      <use xlink:href="#ArialMT-72" x="66.699219"/>
      <use xlink:href="#ArialMT-72" x="100"/>
      <use xlink:href="#ArialMT-6f" x="133.300781"/>
      <use xlink:href="#ArialMT-72" x="188.916016"/>
      <use xlink:href="#ArialMT-20" x="222.216797"/>
      <use xlink:href="#ArialMT-28" x="250"/>
      <use xlink:href="#ArialMT-25" x="283.300781"/>
      <use xlink:href="#ArialMT-29" x="372.216797"/>
     </g>
    </g>
   </g>
   <g id="matplotlib.axis_2">
    <g id="ytick_1">
     <g id="line2d_6">
      <path d="M 60.520625 372.1675 
L 701.28 372.1675 
" clip-path="url(#pfc01d7da9e)" style="fill: none; stroke: #cccccc; stroke-opacity: 0.3; stroke-width: 0.5; stroke-linecap: round"/>
     </g>
     <g id="text_7">
      <!-- 0.00 -->
      <g style="fill: #262626" transform="translate(30.1675 376.462188) scale(0.12 -0.12)">
       <defs>
        <path id="ArialMT-2e" d="M 581 0 
L 581 641 
L 1222 641 
L 1222 0 
L 581 0 
z
" transform="scale(0.015625)"/>
       </defs>
       <use xlink:href="#ArialMT-30"/>
       <use xlink:href="#ArialMT-2e" x="55.615234"/>
       <use xlink:href="#ArialMT-30" x="83.398438"/>
       <use xlink:href="#ArialMT-30" x="139.013672"/>
      </g>
     </g>
    </g>
    <g id="ytick_2">
     <g id="line2d_7">
      <path d="M 60.520625 316.588554 
L 701.28 316.588554 
" clip-path="url(#pfc01d7da9e)" style="fill: none; stroke: #cccccc; stroke-opacity: 0.3; stroke-width: 0.5; stroke-linecap: round"/>
     </g>
     <g id="text_8">
      <!-- 0.05 -->
      <g style="fill: #262626" transform="translate(30.1675 320.883242) scale(0.12 -0.12)">
       <defs>
        <path id="ArialMT-35" d="M 266 1200 
L 856 1250 
Q 922 819 1161 601 
Q 1400 384 1738 384 
Q 2144 384 2425 690 
Q 2706 997 2706 1503 
Q 2706 1984 2436 2262 
Q 2166 2541 1728 2541 
Q 1456 2541 1237 2417 
Q 1019 2294 894 2097 
L 366 2166 
L 809 4519 
L 3088 4519 
L 3088 3981 
L 1259 3981 
L 1013 2750 
Q 1425 3038 1878 3038 
Q 2478 3038 2890 2622 
Q 3303 2206 3303 1553 
Q 3303 931 2941 478 
Q 2500 -78 1738 -78 
Q 1113 -78 717 272 
Q 322 622 266 1200 
z
" transform="scale(0.015625)"/>
       </defs>
       <use xlink:href="#ArialMT-30"/>
       <use xlink:href="#ArialMT-2e" x="55.615234"/>
       <use xlink:href="#ArialMT-30" x="83.398438"/>
       <use xlink:href="#ArialMT-35" x="139.013672"/>
      </g>
     </g>
    </g>
    <g id="ytick_3">
     <g id="line2d_8">
      <path d="M 60.520625 261.009608 
L 701.28 261.009608 
" clip-path="url(#pfc01d7da9e)" style="fill: none; stroke: #cccccc; stroke-opacity: 0.3; stroke-width: 0.5; stroke-linecap: round"/>
     </g>
     <g id="text_9">
      <!-- 0.10 -->
      <g style="fill: #262626" transform="translate(30.1675 265.304296) scale(0.12 -0.12)">
       <defs>
        <path id="ArialMT-31" d="M 2384 0 
L 1822 0 
L 1822 3584 
Q 1619 3391 1289 3197 
Q 959 3003 697 2906 
L 697 3450 
Q 1169 3672 1522 3987 
Q 1875 4303 2022 4600 
L 2384 4600 
L 2384 0 
z
" transform="scale(0.015625)"/>
       </defs>
       <use xlink:href="#ArialMT-30"/>
       <use xlink:href="#ArialMT-2e" x="55.615234"/>
       <use xlink:href="#ArialMT-31" x="83.398438"/>
       <use xlink:href="#ArialMT-30" x="139.013672"/>
      </g>
     </g>
    </g>
    <g id="ytick_4">
     <g id="line2d_9">
      <path d="M 60.520625 205.430662 
L 701.28 205.430662 
" clip-path="url(#pfc01d7da9e)" style="fill: none; stroke: #cccccc; stroke-opacity: 0.3; stroke-width: 0.5; stroke-linecap: round"/>
     </g>
     <g id="text_10">
      <!-- 0.15 -->
      <g style="fill: #262626" transform="translate(30.1675 209.72535) scale(0.12 -0.12)">
       <use xlink:href="#ArialMT-30"/>
       <use xlink:href="#ArialMT-2e" x="55.615234"/>
       <use xlink:href="#ArialMT-31" x="83.398438"/>
       <use xlink:href="#ArialMT-35" x="139.013672"/>
      </g>
     </g>
    </g>
    <g id="ytick_5">
     <g id="line2d_10">
      <path d="M 60.520625 149.851716 
L 701.28 149.851716 
" clip-path="url(#pfc01d7da9e)" style="fill: none; stroke: #cccccc; stroke-opacity: 0.3; stroke-width: 0.5; stroke-linecap: round"/>
     </g>
     <g id="text_11">
      <!-- 0.20 -->
      <g style="fill: #262626" transform="translate(30.1675 154.146404) scale(0.12 -0.12)">
       <use xlink:href="#ArialMT-30"/>
       <use xlink:href="#ArialMT-2e" x="55.615234"/>
       <use xlink:href="#ArialMT-32" x="83.398438"/>
       <use xlink:href="#ArialMT-30" x="139.013672"/>
      </g>
     </g>
    </g>
    <g id="ytick_6">
     <g id="line2d_11">
      <path d="M 60.520625 94.27277 
L 701.28 94.27277 
" clip-path="url(#pfc01d7da9e)" style="fill: none; stroke: #cccccc; stroke-opacity: 0.3; stroke-width: 0.5; stroke-linecap: round"/>
     </g>
     <g id="text_12">
      <!-- 0.25 -->
      <g style="fill: #262626" transform="translate(30.1675 98.567458) scale(0.12 -0.12)">
       <use xlink:href="#ArialMT-30"/>
       <use xlink:href="#ArialMT-2e" x="55.615234"/>
       <use xlink:href="#ArialMT-32" x="83.398438"/>
       <use xlink:href="#ArialMT-35" x="139.013672"/>
      </g>
     </g>
    </g>
    <g id="ytick_7">
     <g id="line2d_12">
      <path d="M 60.520625 38.693825 
L 701.28 38.693825 
" clip-path="url(#pfc01d7da9e)" style="fill: none; stroke: #cccccc; stroke-opacity: 0.3; stroke-width: 0.5; stroke-linecap: round"/>
     </g>
     <g id="text_13">
      <!-- 0.30 -->
      <g style="fill: #262626" transform="translate(30.1675 42.988512) scale(0.12 -0.12)">
       <defs>
        <path id="ArialMT-33" d="M 269 1209 
L 831 1284 
Q 928 806 1161 595 
Q 1394 384 1728 384 
Q 2125 384 2398 659 
Q 2672 934 2672 1341 
Q 2672 1728 2419 1979 
Q 2166 2231 1775 2231 
Q 1616 2231 1378 2169 
L 1441 2663 
Q 1497 2656 1531 2656 
Q 1891 2656 2178 2843 
Q 2466 3031 2466 3422 
Q 2466 3731 2256 3934 
Q 2047 4138 1716 4138 
Q 1388 4138 1169 3931 
Q 950 3725 888 3313 
L 325 3413 
Q 428 3978 793 4289 
Q 1159 4600 1703 4600 
Q 2078 4600 2393 4439 
Q 2709 4278 2876 4000 
Q 3044 3722 3044 3409 
Q 3044 3113 2884 2869 
Q 2725 2625 2413 2481 
Q 2819 2388 3044 2092 
Q 3269 1797 3269 1353 
Q 3269 753 2831 336 
Q 2394 -81 1725 -81 
Q 1122 -81 723 278 
Q 325 638 269 1209 
z
" transform="scale(0.015625)"/>
       </defs>
       <use xlink:href="#ArialMT-30"/>
       <use xlink:href="#ArialMT-2e" x="55.615234"/>
       <use xlink:href="#ArialMT-33" x="83.398438"/>
       <use xlink:href="#ArialMT-30" x="139.013672"/>
      </g>
     </g>
    </g>
    <g id="text_14">
     <!-- Density -->
     <g style="fill: #262626" transform="translate(17.220938 221.750625) rotate(-90) scale(0.14 -0.14)">
      <defs>
       <path id="ArialMT-44" d="M 494 0 
L 494 4581 
L 2072 4581 
Q 2606 4581 2888 4516 
Q 3281 4425 3559 4188 
Q 3922 3881 4101 3404 
Q 4281 2928 4281 2316 
Q 4281 1794 4159 1391 
Q 4038 988 3847 723 
Q 3656 459 3429 307 
Q 3203 156 2883 78 
Q 2563 0 2147 0 
L 494 0 
z
M 1100 541 
L 2078 541 
Q 2531 541 2789 625 
Q 3047 709 3200 863 
Q 3416 1078 3536 1442 
Q 3656 1806 3656 2325 
Q 3656 3044 3420 3430 
Q 3184 3816 2847 3947 
Q 2603 4041 2063 4041 
L 1100 4041 
L 1100 541 
z
" transform="scale(0.015625)"/>
       <path id="ArialMT-65" d="M 2694 1069 
L 3275 997 
Q 3138 488 2766 206 
Q 2394 -75 1816 -75 
Q 1088 -75 661 373 
Q 234 822 234 1631 
Q 234 2469 665 2931 
Q 1097 3394 1784 3394 
Q 2450 3394 2872 2941 
Q 3294 2488 3294 1666 
Q 3294 1616 3291 1516 
L 816 1516 
Q 847 969 1125 678 
Q 1403 388 1819 388 
Q 2128 388 2347 550 
Q 2566 713 2694 1069 
z
M 847 1978 
L 2700 1978 
Q 2663 2397 2488 2606 
Q 2219 2931 1791 2931 
Q 1403 2931 1139 2672 
Q 875 2413 847 1978 
z
" transform="scale(0.015625)"/>
       <path id="ArialMT-6e" d="M 422 0 
L 422 3319 
L 928 3319 
L 928 2847 
Q 1294 3394 1984 3394 
Q 2284 3394 2536 3286 
Q 2788 3178 2913 3003 
Q 3038 2828 3088 2588 
Q 3119 2431 3119 2041 
L 3119 0 
L 2556 0 
L 2556 2019 
Q 2556 2363 2490 2533 
Q 2425 2703 2258 2804 
Q 2091 2906 1866 2906 
Q 1506 2906 1245 2678 
Q 984 2450 984 1813 
L 984 0 
L 422 0 
z
" transform="scale(0.015625)"/>
       <path id="ArialMT-73" d="M 197 991 
L 753 1078 
Q 800 744 1014 566 
Q 1228 388 1613 388 
Q 2000 388 2187 545 
Q 2375 703 2375 916 
Q 2375 1106 2209 1216 
Q 2094 1291 1634 1406 
Q 1016 1563 777 1677 
Q 538 1791 414 1992 
Q 291 2194 291 2438 
Q 291 2659 392 2848 
Q 494 3038 669 3163 
Q 800 3259 1026 3326 
Q 1253 3394 1513 3394 
Q 1903 3394 2198 3281 
Q 2494 3169 2634 2976 
Q 2775 2784 2828 2463 
L 2278 2388 
Q 2241 2644 2061 2787 
Q 1881 2931 1553 2931 
Q 1166 2931 1000 2803 
Q 834 2675 834 2503 
Q 834 2394 903 2306 
Q 972 2216 1119 2156 
Q 1203 2125 1616 2013 
Q 2213 1853 2448 1751 
Q 2684 1650 2818 1456 
Q 2953 1263 2953 975 
Q 2953 694 2789 445 
Q 2625 197 2315 61 
Q 2006 -75 1616 -75 
Q 969 -75 630 194 
Q 291 463 197 991 
z
" transform="scale(0.015625)"/>
       <path id="ArialMT-69" d="M 425 3934 
L 425 4581 
L 988 4581 
L 988 3934 
L 425 3934 
z
M 425 0 
L 425 3319 
L 988 3319 
L 988 0 
L 425 0 
z
" transform="scale(0.015625)"/>
       <path id="ArialMT-74" d="M 1650 503 
L 1731 6 
Q 1494 -44 1306 -44 
Q 1000 -44 831 53 
Q 663 150 594 308 
Q 525 466 525 972 
L 525 2881 
L 113 2881 
L 113 3319 
L 525 3319 
L 525 4141 
L 1084 4478 
L 1084 3319 
L 1650 3319 
L 1650 2881 
L 1084 2881 
L 1084 941 
Q 1084 700 1114 631 
Q 1144 563 1211 522 
Q 1278 481 1403 481 
Q 1497 481 1650 503 
z
" transform="scale(0.015625)"/>
       <path id="ArialMT-79" d="M 397 -1278 
L 334 -750 
Q 519 -800 656 -800 
Q 844 -800 956 -737 
Q 1069 -675 1141 -563 
Q 1194 -478 1313 -144 
Q 1328 -97 1363 -6 
L 103 3319 
L 709 3319 
L 1400 1397 
Q 1534 1031 1641 628 
Q 1738 1016 1872 1384 
L 2581 3319 
L 3144 3319 
L 1881 -56 
Q 1678 -603 1566 -809 
Q 1416 -1088 1222 -1217 
Q 1028 -1347 759 -1347 
Q 597 -1347 397 -1278 
z
" transform="scale(0.015625)"/>
      </defs>
      <use xlink:href="#ArialMT-44"/>
      <use xlink:href="#ArialMT-65" x="72.216797"/>
      <use xlink:href="#ArialMT-6e" x="127.832031"/>
      <use xlink:href="#ArialMT-73" x="183.447266"/>
      <use xlink:href="#ArialMT-69" x="233.447266"/>
      <use xlink:href="#ArialMT-74" x="255.664062"/>
      <use xlink:href="#ArialMT-79" x="283.447266"/>
     </g>
    </g>
   </g>
   <g id="PolyCollection_1">
    <defs>
     <path id="mfe551df3ff" d="M 120.796047 -49.063655 
L 120.796047 -48.3125 
L 123.566693 -48.3125 
L 126.337339 -48.3125 
L 129.107985 -48.3125 
L 131.878631 -48.3125 
L 134.649276 -48.3125 
L 137.419922 -48.3125 
L 140.190568 -48.3125 
L 142.961214 -48.3125 
L 145.73186 -48.3125 
L 148.502506 -48.3125 
L 151.273152 -48.3125 
L 154.043797 -48.3125 
L 156.814443 -48.3125 
L 159.585089 -48.3125 
L 162.355735 -48.3125 
L 165.126381 -48.3125 
L 167.897027 -48.3125 
L 170.667673 -48.3125 
L 173.438319 -48.3125 
L 176.208964 -48.3125 
L 178.97961 -48.3125 
L 181.750256 -48.3125 
L 184.520902 -48.3125 
L 187.291548 -48.3125 
L 190.062194 -48.3125 
L 192.83284 -48.3125 
L 195.603485 -48.3125 
L 198.374131 -48.3125 
L 201.144777 -48.3125 
L 203.915423 -48.3125 
L 206.686069 -48.3125 
L 209.456715 -48.3125 
L 212.227361 -48.3125 
L 214.998006 -48.3125 
L 217.768652 -48.3125 
L 220.539298 -48.3125 
L 223.309944 -48.3125 
L 226.08059 -48.3125 
L 228.851236 -48.3125 
L 231.621882 -48.3125 
L 234.392528 -48.3125 
L 237.163173 -48.3125 
L 239.933819 -48.3125 
L 242.704465 -48.3125 
L 245.475111 -48.3125 
L 248.245757 -48.3125 
L 251.016403 -48.3125 
L 253.787049 -48.3125 
L 256.557694 -48.3125 
L 259.32834 -48.3125 
L 262.098986 -48.3125 
L 264.869632 -48.3125 
L 267.640278 -48.3125 
L 270.410924 -48.3125 
L 273.18157 -48.3125 
L 275.952215 -48.3125 
L 278.722861 -48.3125 
L 281.493507 -48.3125 
L 284.264153 -48.3125 
L 287.034799 -48.3125 
L 289.805445 -48.3125 
L 292.576091 -48.3125 
L 295.346736 -48.3125 
L 298.117382 -48.3125 
L 300.888028 -48.3125 
L 303.658674 -48.3125 
L 306.42932 -48.3125 
L 309.199966 -48.3125 
L 311.970612 -48.3125 
L 314.741258 -48.3125 
L 317.511903 -48.3125 
L 320.282549 -48.3125 
L 323.053195 -48.3125 
L 325.823841 -48.3125 
L 328.594487 -48.3125 
L 331.365133 -48.3125 
L 334.135779 -48.3125 
L 336.906424 -48.3125 
L 339.67707 -48.3125 
L 342.447716 -48.3125 
L 345.218362 -48.3125 
L 347.989008 -48.3125 
L 350.759654 -48.3125 
L 353.5303 -48.3125 
L 356.300945 -48.3125 
L 359.071591 -48.3125 
L 361.842237 -48.3125 
L 364.612883 -48.3125 
L 367.383529 -48.3125 
L 370.154175 -48.3125 
L 372.924821 -48.3125 
L 375.695467 -48.3125 
L 378.466112 -48.3125 
L 381.236758 -48.3125 
L 384.007404 -48.3125 
L 386.77805 -48.3125 
L 389.548696 -48.3125 
L 392.319342 -48.3125 
L 395.089988 -48.3125 
L 397.860633 -48.3125 
L 400.631279 -48.3125 
L 403.401925 -48.3125 
L 406.172571 -48.3125 
L 408.943217 -48.3125 
L 411.713863 -48.3125 
L 414.484509 -48.3125 
L 417.255154 -48.3125 
L 420.0258 -48.3125 
L 422.796446 -48.3125 
L 425.567092 -48.3125 
L 428.337738 -48.3125 
L 431.108384 -48.3125 
L 433.87903 -48.3125 
L 436.649676 -48.3125 
L 439.420321 -48.3125 
L 442.190967 -48.3125 
L 444.961613 -48.3125 
L 447.732259 -48.3125 
L 450.502905 -48.3125 
L 453.273551 -48.3125 
L 456.044197 -48.3125 
L 458.814842 -48.3125 
L 461.585488 -48.3125 
L 464.356134 -48.3125 
L 467.12678 -48.3125 
L 469.897426 -48.3125 
L 472.668072 -48.3125 
L 475.438718 -48.3125 
L 478.209363 -48.3125 
L 480.980009 -48.3125 
L 483.750655 -48.3125 
L 486.521301 -48.3125 
L 489.291947 -48.3125 
L 492.062593 -48.3125 
L 494.833239 -48.3125 
L 497.603884 -48.3125 
L 500.37453 -48.3125 
L 503.145176 -48.3125 
L 505.915822 -48.3125 
L 508.686468 -48.3125 
L 511.457114 -48.3125 
L 514.22776 -48.3125 
L 516.998406 -48.3125 
L 519.769051 -48.3125 
L 522.539697 -48.3125 
L 525.310343 -48.3125 
L 528.080989 -48.3125 
L 530.851635 -48.3125 
L 533.622281 -48.3125 
L 536.392927 -48.3125 
L 539.163572 -48.3125 
L 541.934218 -48.3125 
L 544.704864 -48.3125 
L 547.47551 -48.3125 
L 550.246156 -48.3125 
L 553.016802 -48.3125 
L 555.787448 -48.3125 
L 558.558093 -48.3125 
L 561.328739 -48.3125 
L 564.099385 -48.3125 
L 566.870031 -48.3125 
L 569.640677 -48.3125 
L 572.411323 -48.3125 
L 575.181969 -48.3125 
L 577.952615 -48.3125 
L 580.72326 -48.3125 
L 583.493906 -48.3125 
L 586.264552 -48.3125 
L 589.035198 -48.3125 
L 591.805844 -48.3125 
L 594.57649 -48.3125 
L 597.347136 -48.3125 
L 600.117781 -48.3125 
L 602.888427 -48.3125 
L 605.659073 -48.3125 
L 608.429719 -48.3125 
L 611.200365 -48.3125 
L 613.971011 -48.3125 
L 616.741657 -48.3125 
L 619.512302 -48.3125 
L 622.282948 -48.3125 
L 625.053594 -48.3125 
L 627.82424 -48.3125 
L 630.594886 -48.3125 
L 633.365532 -48.3125 
L 636.136178 -48.3125 
L 638.906824 -48.3125 
L 641.677469 -48.3125 
L 644.448115 -48.3125 
L 647.218761 -48.3125 
L 649.989407 -48.3125 
L 652.760053 -48.3125 
L 655.530699 -48.3125 
L 658.301345 -48.3125 
L 661.07199 -48.3125 
L 663.842636 -48.3125 
L 666.613282 -48.3125 
L 669.383928 -48.3125 
L 672.154574 -48.3125 
L 672.154574 -48.55907 
L 672.154574 -48.55907 
L 669.383928 -48.615912 
L 666.613282 -48.684199 
L 663.842636 -48.765838 
L 661.07199 -48.862968 
L 658.301345 -48.977974 
L 655.530699 -49.11349 
L 652.760053 -49.272408 
L 649.989407 -49.45788 
L 647.218761 -49.673309 
L 644.448115 -49.922346 
L 641.677469 -50.208871 
L 638.906824 -50.536974 
L 636.136178 -50.910927 
L 633.365532 -51.335149 
L 630.594886 -51.814168 
L 627.82424 -52.352572 
L 625.053594 -52.954963 
L 622.282948 -53.625892 
L 619.512302 -54.369811 
L 616.741657 -55.191004 
L 613.971011 -56.093529 
L 611.200365 -57.081158 
L 608.429719 -58.157318 
L 605.659073 -59.325044 
L 602.888427 -60.586927 
L 600.117781 -61.945079 
L 597.347136 -63.401106 
L 594.57649 -64.956088 
L 591.805844 -66.610574 
L 589.035198 -68.364584 
L 586.264552 -70.217629 
L 583.493906 -72.168735 
L 580.72326 -74.216478 
L 577.952615 -76.359035 
L 575.181969 -78.594229 
L 572.411323 -80.91959 
L 569.640677 -83.332408 
L 566.870031 -85.829796 
L 564.099385 -88.408745 
L 561.328739 -91.066171 
L 558.558093 -93.798963 
L 555.787448 -96.604019 
L 553.016802 -99.478272 
L 550.246156 -102.418708 
L 547.47551 -105.422374 
L 544.704864 -108.486374 
L 541.934218 -111.607863 
L 539.163572 -114.784025 
L 536.392927 -118.012059 
L 533.622281 -121.289147 
L 530.851635 -124.612439 
L 528.080989 -127.979025 
L 525.310343 -131.385919 
L 522.539697 -134.830054 
L 519.769051 -138.30827 
L 516.998406 -141.817329 
L 514.22776 -145.353928 
L 511.457114 -148.914719 
L 508.686468 -152.49635 
L 505.915822 -156.095498 
L 503.145176 -159.708917 
L 500.37453 -163.333484 
L 497.603884 -166.966244 
L 494.833239 -170.604459 
L 492.062593 -174.245637 
L 489.291947 -177.887571 
L 486.521301 -181.528356 
L 483.750655 -185.166397 
L 480.980009 -188.800408 
L 478.209363 -192.429396 
L 475.438718 -196.052636 
L 472.668072 -199.669632 
L 469.897426 -203.280079 
L 467.12678 -206.883808 
L 464.356134 -210.480739 
L 461.585488 -214.070828 
L 458.814842 -217.654024 
L 456.044197 -221.23023 
L 453.273551 -224.799271 
L 450.502905 -228.360883 
L 447.732259 -231.914705 
L 444.961613 -235.460294 
L 442.190967 -238.997146 
L 439.420321 -242.524735 
L 436.649676 -246.042564 
L 433.87903 -249.550218 
L 431.108384 -253.047427 
L 428.337738 -256.53413 
L 425.567092 -260.010535 
L 422.796446 -263.477173 
L 420.0258 -266.93494 
L 417.255154 -270.38513 
L 414.484509 -273.829443 
L 411.713863 -277.269978 
L 408.943217 -280.709203 
L 406.172571 -284.149901 
L 403.401925 -287.595091 
L 400.631279 -291.047929 
L 397.860633 -294.511584 
L 395.089988 -297.989095 
L 392.319342 -301.48321 
L 389.548696 -304.996213 
L 386.77805 -308.529737 
L 384.007404 -312.084574 
L 381.236758 -315.660486 
L 378.466112 -319.256012 
L 375.695467 -322.868297 
L 372.924821 -326.492923 
L 370.154175 -330.123768 
L 367.383529 -333.752885 
L 364.612883 -337.370415 
L 361.842237 -340.96453 
L 359.071591 -344.521413 
L 356.300945 -348.025284 
L 353.5303 -351.458458 
L 350.759654 -354.801456 
L 347.989008 -358.033154 
L 345.218362 -361.130969 
L 342.447716 -364.071093 
L 339.67707 -366.828757 
L 336.906424 -369.378518 
L 334.135779 -371.694582 
L 331.365133 -373.751135 
L 328.594487 -375.522686 
L 325.823841 -376.984404 
L 323.053195 -378.112461 
L 320.282549 -378.884346 
L 317.511903 -379.279167 
L 314.741258 -379.277912 
L 311.970612 -378.863692 
L 309.199966 -378.021928 
L 306.42932 -376.740509 
L 303.658674 -375.009909 
L 300.888028 -372.823252 
L 298.117382 -370.176352 
L 295.346736 -367.06771 
L 292.576091 -363.498485 
L 289.805445 -359.472438 
L 287.034799 -354.995861 
L 284.264153 -350.077492 
L 281.493507 -344.728419 
L 278.722861 -338.961994 
L 275.952215 -332.793735 
L 273.18157 -326.241242 
L 270.410924 -319.324117 
L 267.640278 -312.063888 
L 264.869632 -304.483936 
L 262.098986 -296.60943 
L 259.32834 -288.467246 
L 256.557694 -280.085887 
L 253.787049 -271.49539 
L 251.016403 -262.727203 
L 248.245757 -253.814053 
L 245.475111 -244.789771 
L 242.704465 -235.689098 
L 239.933819 -226.547449 
L 237.163173 -217.400649 
L 234.392528 -208.284638 
L 231.621882 -199.23515 
L 228.851236 -190.287368 
L 226.08059 -181.475564 
L 223.309944 -172.832739 
L 220.539298 -164.390259 
L 217.768652 -156.177506 
L 214.998006 -148.221552 
L 212.227361 -140.546865 
L 209.456715 -133.175048 
L 206.686069 -126.124636 
L 203.915423 -119.410935 
L 201.144777 -113.045924 
L 198.374131 -107.038215 
L 195.603485 -101.393067 
L 192.83284 -96.11247 
L 190.062194 -91.195266 
L 187.291548 -86.637336 
L 184.520902 -82.431823 
L 181.750256 -78.569385 
L 178.97961 -75.038492 
L 176.208964 -71.825727 
L 173.438319 -68.916106 
L 170.667673 -66.293405 
L 167.897027 -63.940472 
L 165.126381 -61.83954 
L 162.355735 -59.972511 
L 159.585089 -58.321228 
L 156.814443 -56.867716 
L 154.043797 -55.594392 
L 151.273152 -54.48425 
L 148.502506 -53.52101 
L 145.73186 -52.689238 
L 142.961214 -51.974435 
L 140.190568 -51.363103 
L 137.419922 -50.842776 
L 134.649276 -50.402036 
L 131.878631 -50.030507 
L 129.107985 -49.718827 
L 126.337339 -49.458615 
L 123.566693 -49.242417 
L 120.796047 -49.063655 
z
" style="stroke: #2ecc71"/>
    </defs>
    <g clip-path="url(#pfc01d7da9e)">
     <use xlink:href="#mfe551df3ff" x="0" y="420.48" style="fill: #2ecc71; fill-opacity: 0.3; stroke: #2ecc71"/>
    </g>
   </g>
   <g id="PolyCollection_2">
    <defs>
     <path id="m4404de4720" d="M 89.646051 -49.655016 
L 89.646051 -48.3125 
L 92.468389 -48.3125 
L 95.290727 -48.3125 
L 98.113065 -48.3125 
L 100.935403 -48.3125 
L 103.757741 -48.3125 
L 106.580079 -48.3125 
L 109.402417 -48.3125 
L 112.224755 -48.3125 
L 115.047092 -48.3125 
L 117.86943 -48.3125 
L 120.691768 -48.3125 
L 123.514106 -48.3125 
L 126.336444 -48.3125 
L 129.158782 -48.3125 
L 131.98112 -48.3125 
L 134.803458 -48.3125 
L 137.625796 -48.3125 
L 140.448134 -48.3125 
L 143.270472 -48.3125 
L 146.09281 -48.3125 
L 148.915148 -48.3125 
L 151.737486 -48.3125 
L 154.559823 -48.3125 
L 157.382161 -48.3125 
L 160.204499 -48.3125 
L 163.026837 -48.3125 
L 165.849175 -48.3125 
L 168.671513 -48.3125 
L 171.493851 -48.3125 
L 174.316189 -48.3125 
L 177.138527 -48.3125 
L 179.960865 -48.3125 
L 182.783203 -48.3125 
L 185.605541 -48.3125 
L 188.427879 -48.3125 
L 191.250217 -48.3125 
L 194.072554 -48.3125 
L 196.894892 -48.3125 
L 199.71723 -48.3125 
L 202.539568 -48.3125 
L 205.361906 -48.3125 
L 208.184244 -48.3125 
L 211.006582 -48.3125 
L 213.82892 -48.3125 
L 216.651258 -48.3125 
L 219.473596 -48.3125 
L 222.295934 -48.3125 
L 225.118272 -48.3125 
L 227.94061 -48.3125 
L 230.762948 -48.3125 
L 233.585285 -48.3125 
L 236.407623 -48.3125 
L 239.229961 -48.3125 
L 242.052299 -48.3125 
L 244.874637 -48.3125 
L 247.696975 -48.3125 
L 250.519313 -48.3125 
L 253.341651 -48.3125 
L 256.163989 -48.3125 
L 258.986327 -48.3125 
L 261.808665 -48.3125 
L 264.631003 -48.3125 
L 267.453341 -48.3125 
L 270.275678 -48.3125 
L 273.098016 -48.3125 
L 275.920354 -48.3125 
L 278.742692 -48.3125 
L 281.56503 -48.3125 
L 284.387368 -48.3125 
L 287.209706 -48.3125 
L 290.032044 -48.3125 
L 292.854382 -48.3125 
L 295.67672 -48.3125 
L 298.499058 -48.3125 
L 301.321396 -48.3125 
L 304.143734 -48.3125 
L 306.966072 -48.3125 
L 309.788409 -48.3125 
L 312.610747 -48.3125 
L 315.433085 -48.3125 
L 318.255423 -48.3125 
L 321.077761 -48.3125 
L 323.900099 -48.3125 
L 326.722437 -48.3125 
L 329.544775 -48.3125 
L 332.367113 -48.3125 
L 335.189451 -48.3125 
L 338.011789 -48.3125 
L 340.834127 -48.3125 
L 343.656465 -48.3125 
L 346.478803 -48.3125 
L 349.30114 -48.3125 
L 352.123478 -48.3125 
L 354.945816 -48.3125 
L 357.768154 -48.3125 
L 360.590492 -48.3125 
L 363.41283 -48.3125 
L 366.235168 -48.3125 
L 369.057506 -48.3125 
L 371.879844 -48.3125 
L 374.702182 -48.3125 
L 377.52452 -48.3125 
L 380.346858 -48.3125 
L 383.169196 -48.3125 
L 385.991534 -48.3125 
L 388.813871 -48.3125 
L 391.636209 -48.3125 
L 394.458547 -48.3125 
L 397.280885 -48.3125 
L 400.103223 -48.3125 
L 402.925561 -48.3125 
L 405.747899 -48.3125 
L 408.570237 -48.3125 
L 411.392575 -48.3125 
L 414.214913 -48.3125 
L 417.037251 -48.3125 
L 419.859589 -48.3125 
L 422.681927 -48.3125 
L 425.504264 -48.3125 
L 428.326602 -48.3125 
L 431.14894 -48.3125 
L 433.971278 -48.3125 
L 436.793616 -48.3125 
L 439.615954 -48.3125 
L 442.438292 -48.3125 
L 445.26063 -48.3125 
L 448.082968 -48.3125 
L 450.905306 -48.3125 
L 453.727644 -48.3125 
L 456.549982 -48.3125 
L 459.37232 -48.3125 
L 462.194658 -48.3125 
L 465.016995 -48.3125 
L 467.839333 -48.3125 
L 470.661671 -48.3125 
L 473.484009 -48.3125 
L 476.306347 -48.3125 
L 479.128685 -48.3125 
L 481.951023 -48.3125 
L 484.773361 -48.3125 
L 487.595699 -48.3125 
L 490.418037 -48.3125 
L 493.240375 -48.3125 
L 496.062713 -48.3125 
L 498.885051 -48.3125 
L 501.707389 -48.3125 
L 504.529726 -48.3125 
L 507.352064 -48.3125 
L 510.174402 -48.3125 
L 512.99674 -48.3125 
L 515.819078 -48.3125 
L 518.641416 -48.3125 
L 521.463754 -48.3125 
L 524.286092 -48.3125 
L 527.10843 -48.3125 
L 529.930768 -48.3125 
L 532.753106 -48.3125 
L 535.575444 -48.3125 
L 538.397782 -48.3125 
L 541.22012 -48.3125 
L 544.042457 -48.3125 
L 546.864795 -48.3125 
L 549.687133 -48.3125 
L 552.509471 -48.3125 
L 555.331809 -48.3125 
L 558.154147 -48.3125 
L 560.976485 -48.3125 
L 563.798823 -48.3125 
L 566.621161 -48.3125 
L 569.443499 -48.3125 
L 572.265837 -48.3125 
L 575.088175 -48.3125 
L 577.910513 -48.3125 
L 580.732851 -48.3125 
L 583.555188 -48.3125 
L 586.377526 -48.3125 
L 589.199864 -48.3125 
L 592.022202 -48.3125 
L 594.84454 -48.3125 
L 597.666878 -48.3125 
L 600.489216 -48.3125 
L 603.311554 -48.3125 
L 606.133892 -48.3125 
L 608.95623 -48.3125 
L 611.778568 -48.3125 
L 614.600906 -48.3125 
L 617.423244 -48.3125 
L 620.245581 -48.3125 
L 623.067919 -48.3125 
L 625.890257 -48.3125 
L 628.712595 -48.3125 
L 631.534933 -48.3125 
L 634.357271 -48.3125 
L 637.179609 -48.3125 
L 640.001947 -48.3125 
L 642.824285 -48.3125 
L 645.646623 -48.3125 
L 648.468961 -48.3125 
L 651.291299 -48.3125 
L 651.291299 -50.492012 
L 651.291299 -50.492012 
L 648.468961 -50.803251 
L 645.646623 -51.153468 
L 642.824285 -51.546707 
L 640.001947 -51.987307 
L 637.179609 -52.479916 
L 634.357271 -53.02949 
L 631.534933 -53.641297 
L 628.712595 -54.320911 
L 625.890257 -55.074211 
L 623.067919 -55.907372 
L 620.245581 -56.826848 
L 617.423244 -57.839359 
L 614.600906 -58.95187 
L 611.778568 -60.171558 
L 608.95623 -61.505788 
L 606.133892 -62.962069 
L 603.311554 -64.548016 
L 600.489216 -66.271298 
L 597.666878 -68.139586 
L 594.84454 -70.160493 
L 592.022202 -72.341507 
L 589.199864 -74.689925 
L 586.377526 -77.212774 
L 583.555188 -79.916734 
L 580.732851 -82.808056 
L 577.910513 -85.892474 
L 575.088175 -89.175117 
L 572.265837 -92.660422 
L 569.443499 -96.352041 
L 566.621161 -100.252754 
L 563.798823 -104.364381 
L 560.976485 -108.687697 
L 558.154147 -113.222353 
L 555.331809 -117.966803 
L 552.509471 -122.918232 
L 549.687133 -128.072504 
L 546.864795 -133.424108 
L 544.042457 -138.966121 
L 541.22012 -144.690182 
L 538.397782 -150.586478 
L 535.575444 -156.643749 
L 532.753106 -162.849299 
L 529.930768 -169.189031 
L 527.10843 -175.647494 
L 524.286092 -182.207949 
L 521.463754 -188.852448 
L 518.641416 -195.561932 
L 515.819078 -202.31634 
L 512.99674 -209.094746 
L 510.174402 -215.875492 
L 507.352064 -222.636345 
L 504.529726 -229.354666 
L 501.707389 -236.007585 
L 498.885051 -242.572184 
L 496.062713 -249.025688 
L 493.240375 -255.345656 
L 490.418037 -261.510179 
L 487.595699 -267.498073 
L 484.773361 -273.289067 
L 481.951023 -278.863989 
L 479.128685 -284.204937 
L 476.306347 -289.295448 
L 473.484009 -294.120646 
L 470.661671 -298.667374 
L 467.839333 -302.924317 
L 465.016995 -306.882095 
L 462.194658 -310.533339 
L 459.37232 -313.872754 
L 456.549982 -316.89714 
L 453.727644 -319.605408 
L 450.905306 -321.998562 
L 448.082968 -324.079661 
L 445.26063 -325.853753 
L 442.438292 -327.327796 
L 439.615954 -328.510549 
L 436.793616 -329.412447 
L 433.971278 -330.045456 
L 431.14894 -330.422916 
L 428.326602 -330.559366 
L 425.504264 -330.470358 
L 422.681927 -330.172264 
L 419.859589 -329.682077 
L 417.037251 -329.017206 
L 414.214913 -328.19527 
L 411.392575 -327.233901 
L 408.570237 -326.150539 
L 405.747899 -324.962245 
L 402.925561 -323.685517 
L 400.103223 -322.336124 
L 397.280885 -320.928941 
L 394.458547 -319.477817 
L 391.636209 -317.995443 
L 388.813871 -316.493246 
L 385.991534 -314.981302 
L 383.169196 -313.468265 
L 380.346858 -311.961316 
L 377.52452 -310.466138 
L 374.702182 -308.986896 
L 371.879844 -307.526254 
L 369.057506 -306.085393 
L 366.235168 -304.664061 
L 363.41283 -303.260627 
L 360.590492 -301.872157 
L 357.768154 -300.494503 
L 354.945816 -299.122399 
L 352.123478 -297.749572 
L 349.30114 -296.36886 
L 346.478803 -294.972336 
L 343.656465 -293.551438 
L 340.834127 -292.097105 
L 338.011789 -290.599907 
L 335.189451 -289.050186 
L 332.367113 -287.438186 
L 329.544775 -285.754188 
L 326.722437 -283.988634 
L 323.900099 -282.132254 
L 321.077761 -280.176179 
L 318.255423 -278.112051 
L 315.433085 -275.932122 
L 312.610747 -273.629352 
L 309.788409 -271.197483 
L 306.966072 -268.631119 
L 304.143734 -265.925785 
L 301.321396 -263.077978 
L 298.499058 -260.08521 
L 295.67672 -256.946037 
L 292.854382 -253.660077 
L 290.032044 -250.22802 
L 287.209706 -246.651624 
L 284.387368 -242.933706 
L 281.56503 -239.078118 
L 278.742692 -235.089712 
L 275.920354 -230.974305 
L 273.098016 -226.73863 
L 270.275678 -222.390274 
L 267.453341 -217.93762 
L 264.631003 -213.389778 
L 261.808665 -208.756506 
L 258.986327 -204.048132 
L 256.163989 -199.275475 
L 253.341651 -194.449753 
L 250.519313 -189.582497 
L 247.696975 -184.685465 
L 244.874637 -179.770548 
L 242.052299 -174.849685 
L 239.229961 -169.934772 
L 236.407623 -165.037583 
L 233.585285 -160.169683 
L 230.762948 -155.342351 
L 227.94061 -150.56651 
L 225.118272 -145.852655 
L 222.295934 -141.210792 
L 219.473596 -136.65038 
L 216.651258 -132.180283 
L 213.82892 -127.808727 
L 211.006582 -123.543259 
L 208.184244 -119.390723 
L 205.361906 -115.357238 
L 202.539568 -111.448176 
L 199.71723 -107.668163 
L 196.894892 -104.021072 
L 194.072554 -100.510029 
L 191.250217 -97.137427 
L 188.427879 -93.904941 
L 185.605541 -90.813548 
L 182.783203 -87.863561 
L 179.960865 -85.054654 
L 177.138527 -82.3859 
L 174.316189 -79.85581 
L 171.493851 -77.462372 
L 168.671513 -75.203096 
L 165.849175 -73.075059 
L 163.026837 -71.074948 
L 160.204499 -69.199106 
L 157.382161 -67.443582 
L 154.559823 -65.80417 
L 151.737486 -64.276458 
L 148.915148 -62.855867 
L 146.09281 -61.537696 
L 143.270472 -60.317158 
L 140.448134 -59.189416 
L 137.625796 -58.14962 
L 134.803458 -57.192939 
L 131.98112 -56.314586 
L 129.158782 -55.509848 
L 126.336444 -54.774106 
L 123.514106 -54.102858 
L 120.691768 -53.491736 
L 117.86943 -52.936522 
L 115.047092 -52.433156 
L 112.224755 -51.97775 
L 109.402417 -51.566597 
L 106.580079 -51.196169 
L 103.757741 -50.863129 
L 100.935403 -50.564326 
L 98.113065 -50.296798 
L 95.290727 -50.057769 
L 92.468389 -49.844647 
L 89.646051 -49.655016 
z
" style="stroke: #e74c3c"/>
    </defs>
    <g clip-path="url(#pfc01d7da9e)">
     <use xlink:href="#m4404de4720" x="0" y="420.48" style="fill: #e74c3c; fill-opacity: 0.3; stroke: #e74c3c"/>
    </g>
   </g>
   <g id="patch_3">
    <path d="M 60.520625 372.1675 
L 60.520625 24.6525 
" style="fill: none; stroke: #cccccc; stroke-width: 1.5; stroke-linejoin: miter; stroke-linecap: square"/>
   </g>
   <g id="patch_4">
    <path d="M 60.520625 372.1675 
L 701.28 372.1675 
" style="fill: none; stroke: #cccccc; stroke-width: 1.5; stroke-linejoin: miter; stroke-linecap: square"/>
   </g>
   <g id="text_15">
    <!-- Distribution of Absolute Errors -->
    <g style="fill: #262626" transform="translate(275.080312 18.6525) scale(0.16 -0.16)">
     <defs>
      <path id="ArialMT-62" d="M 941 0 
L 419 0 
L 419 4581 
L 981 4581 
L 981 2947 
Q 1338 3394 1891 3394 
Q 2197 3394 2470 3270 
Q 2744 3147 2920 2923 
Q 3097 2700 3197 2384 
Q 3297 2069 3297 1709 
Q 3297 856 2875 390 
Q 2453 -75 1863 -75 
Q 1275 -75 941 416 
L 941 0 
z
M 934 1684 
Q 934 1088 1097 822 
Q 1363 388 1816 388 
Q 2184 388 2453 708 
Q 2722 1028 2722 1663 
Q 2722 2313 2464 2622 
Q 2206 2931 1841 2931 
Q 1472 2931 1203 2611 
Q 934 2291 934 1684 
z
" transform="scale(0.015625)"/>
      <path id="ArialMT-75" d="M 2597 0 
L 2597 488 
Q 2209 -75 1544 -75 
Q 1250 -75 995 37 
Q 741 150 617 320 
Q 494 491 444 738 
Q 409 903 409 1263 
L 409 3319 
L 972 3319 
L 972 1478 
Q 972 1038 1006 884 
Q 1059 663 1231 536 
Q 1403 409 1656 409 
Q 1909 409 2131 539 
Q 2353 669 2445 892 
Q 2538 1116 2538 1541 
L 2538 3319 
L 3100 3319 
L 3100 0 
L 2597 0 
z
" transform="scale(0.015625)"/>
      <path id="ArialMT-66" d="M 556 0 
L 556 2881 
L 59 2881 
L 59 3319 
L 556 3319 
L 556 3672 
Q 556 4006 616 4169 
Q 697 4388 901 4523 
Q 1106 4659 1475 4659 
Q 1713 4659 2000 4603 
L 1916 4113 
Q 1741 4144 1584 4144 
Q 1328 4144 1222 4034 
Q 1116 3925 1116 3625 
L 1116 3319 
L 1763 3319 
L 1763 2881 
L 1116 2881 
L 1116 0 
L 556 0 
z
" transform="scale(0.015625)"/>
      <path id="ArialMT-41" d="M -9 0 
L 1750 4581 
L 2403 4581 
L 4278 0 
L 3588 0 
L 3053 1388 
L 1138 1388 
L 634 0 
L -9 0 
z
M 1313 1881 
L 2866 1881 
L 2388 3150 
Q 2169 3728 2063 4100 
Q 1975 3659 1816 3225 
L 1313 1881 
z
" transform="scale(0.015625)"/>
      <path id="ArialMT-6c" d="M 409 0 
L 409 4581 
L 972 4581 
L 972 0 
L 409 0 
z
" transform="scale(0.015625)"/>
     </defs>
     <use xlink:href="#ArialMT-44"/>
     <use xlink:href="#ArialMT-69" x="72.216797"/>
     <use xlink:href="#ArialMT-73" x="94.433594"/>
     <use xlink:href="#ArialMT-74" x="144.433594"/>
     <use xlink:href="#ArialMT-72" x="172.216797"/>
     <use xlink:href="#ArialMT-69" x="205.517578"/>
     <use xlink:href="#ArialMT-62" x="227.734375"/>
     <use xlink:href="#ArialMT-75" x="283.349609"/>
     <use xlink:href="#ArialMT-74" x="338.964844"/>
     <use xlink:href="#ArialMT-69" x="366.748047"/>
     <use xlink:href="#ArialMT-6f" x="388.964844"/>
     <use xlink:href="#ArialMT-6e" x="444.580078"/>
     <use xlink:href="#ArialMT-20" x="500.195312"/>
     <use xlink:href="#ArialMT-6f" x="527.978516"/>
     <use xlink:href="#ArialMT-66" x="583.59375"/>
     <use xlink:href="#ArialMT-20" x="611.376953"/>
     <use xlink:href="#ArialMT-41" x="633.660156"/>
     <use xlink:href="#ArialMT-62" x="700.359375"/>
     <use xlink:href="#ArialMT-73" x="755.974609"/>
     <use xlink:href="#ArialMT-6f" x="805.974609"/>
     <use xlink:href="#ArialMT-6c" x="861.589844"/>
     <use xlink:href="#ArialMT-75" x="883.806641"/>
     <use xlink:href="#ArialMT-74" x="939.421875"/>
     <use xlink:href="#ArialMT-65" x="967.205078"/>
     <use xlink:href="#ArialMT-20" x="1022.820312"/>
     <use xlink:href="#ArialMT-45" x="1050.603516"/>
     <use xlink:href="#ArialMT-72" x="1117.302734"/>
     <use xlink:href="#ArialMT-72" x="1150.603516"/>
     <use xlink:href="#ArialMT-6f" x="1183.904297"/>
     <use xlink:href="#ArialMT-72" x="1239.519531"/>
     <use xlink:href="#ArialMT-73" x="1272.820312"/>
    </g>
   </g>
   <g id="legend_1">
    <g id="patch_5">
     <path d="M 497.20125 68.775 
L 692.88 68.775 
Q 695.28 68.775 695.28 66.375 
L 695.28 33.0525 
Q 695.28 30.6525 692.88 30.6525 
L 497.20125 30.6525 
Q 494.80125 30.6525 494.80125 33.0525 
L 494.80125 66.375 
Q 494.80125 68.775 497.20125 68.775 
z
" style="fill: #ffffff; opacity: 0.8; stroke: #cccccc; stroke-linejoin: miter"/>
    </g>
    <g id="patch_6">
     <path d="M 499.60125 44.188125 
L 523.60125 44.188125 
L 523.60125 35.788125 
L 499.60125 35.788125 
z
" style="fill: #2ecc71; fill-opacity: 0.3; stroke: #2ecc71; stroke-linejoin: miter"/>
    </g>
    <g id="text_16">
     <!-- Training (μ=1.86%, σ=1.21%) -->
     <g style="fill: #262626" transform="translate(533.20125 44.188125) scale(0.12 -0.12)">
      <defs>
       <path id="ArialMT-54" d="M 1659 0 
L 1659 4041 
L 150 4041 
L 150 4581 
L 3781 4581 
L 3781 4041 
L 2266 4041 
L 2266 0 
L 1659 0 
z
" transform="scale(0.015625)"/>
       <path id="ArialMT-61" d="M 2588 409 
Q 2275 144 1986 34 
Q 1697 -75 1366 -75 
Q 819 -75 525 192 
Q 231 459 231 875 
Q 231 1119 342 1320 
Q 453 1522 633 1644 
Q 813 1766 1038 1828 
Q 1203 1872 1538 1913 
Q 2219 1994 2541 2106 
Q 2544 2222 2544 2253 
Q 2544 2597 2384 2738 
Q 2169 2928 1744 2928 
Q 1347 2928 1158 2789 
Q 969 2650 878 2297 
L 328 2372 
Q 403 2725 575 2942 
Q 747 3159 1072 3276 
Q 1397 3394 1825 3394 
Q 2250 3394 2515 3294 
Q 2781 3194 2906 3042 
Q 3031 2891 3081 2659 
Q 3109 2516 3109 2141 
L 3109 1391 
Q 3109 606 3145 398 
Q 3181 191 3288 0 
L 2700 0 
Q 2613 175 2588 409 
z
M 2541 1666 
Q 2234 1541 1622 1453 
Q 1275 1403 1131 1340 
Q 988 1278 909 1158 
Q 831 1038 831 891 
Q 831 666 1001 516 
Q 1172 366 1500 366 
Q 1825 366 2078 508 
Q 2331 650 2450 897 
Q 2541 1088 2541 1459 
L 2541 1666 
z
" transform="scale(0.015625)"/>
       <path id="ArialMT-67" d="M 319 -275 
L 866 -356 
Q 900 -609 1056 -725 
Q 1266 -881 1628 -881 
Q 2019 -881 2231 -725 
Q 2444 -569 2519 -288 
Q 2563 -116 2559 434 
Q 2191 0 1641 0 
Q 956 0 581 494 
Q 206 988 206 1678 
Q 206 2153 378 2554 
Q 550 2956 876 3175 
Q 1203 3394 1644 3394 
Q 2231 3394 2613 2919 
L 2613 3319 
L 3131 3319 
L 3131 450 
Q 3131 -325 2973 -648 
Q 2816 -972 2473 -1159 
Q 2131 -1347 1631 -1347 
Q 1038 -1347 672 -1080 
Q 306 -813 319 -275 
z
M 784 1719 
Q 784 1066 1043 766 
Q 1303 466 1694 466 
Q 2081 466 2343 764 
Q 2606 1063 2606 1700 
Q 2606 2309 2336 2618 
Q 2066 2928 1684 2928 
Q 1309 2928 1046 2623 
Q 784 2319 784 1719 
z
" transform="scale(0.015625)"/>
       <path id="ArialMT-3bc" d="M 3181 3319 
L 3181 0 
L 2678 0 
L 2678 394 
Q 2516 144 2356 50 
Q 2138 -78 1847 -78 
Q 1588 -78 1388 25 
Q 1238 103 1056 334 
L 1056 -1272 
L 500 -1272 
L 500 3319 
L 1056 3319 
L 1056 1913 
Q 1056 1147 1137 920 
Q 1219 694 1401 562 
Q 1584 431 1822 431 
Q 2072 431 2269 568 
Q 2466 706 2547 923 
Q 2628 1141 2628 1903 
L 2628 3319 
L 3181 3319 
z
" transform="scale(0.015625)"/>
       <path id="ArialMT-3d" d="M 3381 2694 
L 356 2694 
L 356 3219 
L 3381 3219 
L 3381 2694 
z
M 3381 1303 
L 356 1303 
L 356 1828 
L 3381 1828 
L 3381 1303 
z
" transform="scale(0.015625)"/>
       <path id="ArialMT-38" d="M 1131 2484 
Q 781 2613 612 2850 
Q 444 3088 444 3419 
Q 444 3919 803 4259 
Q 1163 4600 1759 4600 
Q 2359 4600 2725 4251 
Q 3091 3903 3091 3403 
Q 3091 3084 2923 2848 
Q 2756 2613 2416 2484 
Q 2838 2347 3058 2040 
Q 3278 1734 3278 1309 
Q 3278 722 2862 322 
Q 2447 -78 1769 -78 
Q 1091 -78 675 323 
Q 259 725 259 1325 
Q 259 1772 486 2073 
Q 713 2375 1131 2484 
z
M 1019 3438 
Q 1019 3113 1228 2906 
Q 1438 2700 1772 2700 
Q 2097 2700 2305 2904 
Q 2513 3109 2513 3406 
Q 2513 3716 2298 3927 
Q 2084 4138 1766 4138 
Q 1444 4138 1231 3931 
Q 1019 3725 1019 3438 
z
M 838 1322 
Q 838 1081 952 856 
Q 1066 631 1291 507 
Q 1516 384 1775 384 
Q 2178 384 2440 643 
Q 2703 903 2703 1303 
Q 2703 1709 2433 1975 
Q 2163 2241 1756 2241 
Q 1359 2241 1098 1978 
Q 838 1716 838 1322 
z
" transform="scale(0.015625)"/>
       <path id="ArialMT-2c" d="M 569 0 
L 569 641 
L 1209 641 
L 1209 0 
Q 1209 -353 1084 -570 
Q 959 -788 688 -906 
L 531 -666 
Q 709 -588 793 -436 
Q 878 -284 888 0 
L 569 0 
z
" transform="scale(0.015625)"/>
       <path id="ArialMT-3c3" d="M 3809 3319 
L 3809 2863 
L 2906 2863 
Q 3322 2475 3322 1656 
Q 3322 766 2867 345 
Q 2413 -75 1763 -75 
Q 1088 -75 650 362 
Q 213 800 213 1659 
Q 213 2544 667 2969 
Q 1122 3394 1763 3394 
Q 1997 3394 2294 3319 
L 3809 3319 
z
M 1753 2928 
Q 1344 2928 1067 2609 
Q 791 2291 791 1656 
Q 791 1025 1061 706 
Q 1331 388 1763 388 
Q 2216 388 2483 720 
Q 2750 1053 2750 1659 
Q 2750 2213 2504 2570 
Q 2259 2928 1753 2928 
z
" transform="scale(0.015625)"/>
      </defs>
      <use xlink:href="#ArialMT-54"/>
      <use xlink:href="#ArialMT-72" x="57.333984"/>
      <use xlink:href="#ArialMT-61" x="90.634766"/>
      <use xlink:href="#ArialMT-69" x="146.25"/>
      <use xlink:href="#ArialMT-6e" x="168.466797"/>
      <use xlink:href="#ArialMT-69" x="224.082031"/>
      <use xlink:href="#ArialMT-6e" x="246.298828"/>
      <use xlink:href="#ArialMT-67" x="301.914062"/>
      <use xlink:href="#ArialMT-20" x="357.529297"/>
      <use xlink:href="#ArialMT-28" x="385.3125"/>
      <use xlink:href="#ArialMT-3bc" x="418.613281"/>
      <use xlink:href="#ArialMT-3d" x="476.230469"/>
      <use xlink:href="#ArialMT-31" x="534.628906"/>
      <use xlink:href="#ArialMT-2e" x="590.244141"/>
      <use xlink:href="#ArialMT-38" x="618.027344"/>
      <use xlink:href="#ArialMT-36" x="673.642578"/>
      <use xlink:href="#ArialMT-25" x="729.257812"/>
      <use xlink:href="#ArialMT-2c" x="818.173828"/>
      <use xlink:href="#ArialMT-20" x="845.957031"/>
      <use xlink:href="#ArialMT-3c3" x="873.740234"/>
      <use xlink:href="#ArialMT-3d" x="935.458984"/>
      <use xlink:href="#ArialMT-31" x="993.857422"/>
      <use xlink:href="#ArialMT-2e" x="1049.472656"/>
      <use xlink:href="#ArialMT-32" x="1077.255859"/>
      <use xlink:href="#ArialMT-31" x="1132.871094"/>
      <use xlink:href="#ArialMT-25" x="1188.486328"/>
      <use xlink:href="#ArialMT-29" x="1277.402344"/>
     </g>
    </g>
    <g id="patch_7">
     <path d="M 499.60125 61.449375 
L 523.60125 61.449375 
L 523.60125 53.049375 
L 499.60125 53.049375 
z
" style="fill: #e74c3c; fill-opacity: 0.3; stroke: #e74c3c; stroke-linejoin: miter"/>
    </g>
    <g id="text_17">
     <!-- Testing (μ=2.24%, σ=1.24%) -->
     <g style="fill: #262626" transform="translate(533.20125 61.449375) scale(0.12 -0.12)">
      <use xlink:href="#ArialMT-54"/>
      <use xlink:href="#ArialMT-65" x="49.958984"/>
      <use xlink:href="#ArialMT-73" x="105.574219"/>
      <use xlink:href="#ArialMT-74" x="155.574219"/>
      <use xlink:href="#ArialMT-69" x="183.357422"/>
      <use xlink:href="#ArialMT-6e" x="205.574219"/>
      <use xlink:href="#ArialMT-67" x="261.189453"/>
      <use xlink:href="#ArialMT-20" x="316.804688"/>
      <use xlink:href="#ArialMT-28" x="344.587891"/>
      <use xlink:href="#ArialMT-3bc" x="377.888672"/>
      <use xlink:href="#ArialMT-3d" x="435.505859"/>
      <use xlink:href="#ArialMT-32" x="493.904297"/>
      <use xlink:href="#ArialMT-2e" x="549.519531"/>
      <use xlink:href="#ArialMT-32" x="577.302734"/>
      <use xlink:href="#ArialMT-34" x="632.917969"/>
      <use xlink:href="#ArialMT-25" x="688.533203"/>
      <use xlink:href="#ArialMT-2c" x="777.449219"/>
      <use xlink:href="#ArialMT-20" x="805.232422"/>
      <use xlink:href="#ArialMT-3c3" x="833.015625"/>
      <use xlink:href="#ArialMT-3d" x="894.734375"/>
      <use xlink:href="#ArialMT-31" x="953.132812"/>
      <use xlink:href="#ArialMT-2e" x="1008.748047"/>
      <use xlink:href="#ArialMT-32" x="1036.53125"/>
      <use xlink:href="#ArialMT-34" x="1092.146484"/>
      <use xlink:href="#ArialMT-25" x="1147.761719"/>
      <use xlink:href="#ArialMT-29" x="1236.677734"/>
     </g>
    </g>
   </g>
  </g>
 </g>
 <defs>
  <clipPath id="pfc01d7da9e">
   <rect x="60.520625" y="24.6525" width="640.759375" height="347.515"/>
  </clipPath>
 </defs>
</svg>
