<?xml version="1.0" encoding="utf-8" standalone="no"?>
<!DOCTYPE svg PUBLIC "-//W3C//DTD SVG 1.1//EN"
  "http://www.w3.org/Graphics/SVG/1.1/DTD/svg11.dtd">
<svg xmlns:xlink="http://www.w3.org/1999/xlink" width="708.48pt" height="420.48pt" viewBox="0 0 708.48 420.48" xmlns="http://www.w3.org/2000/svg" version="1.1">
 <metadata>
  <rdf:RDF xmlns:dc="http://purl.org/dc/elements/1.1/" xmlns:cc="http://creativecommons.org/ns#" xmlns:rdf="http://www.w3.org/1999/02/22-rdf-syntax-ns#">
   <cc:Work>
    <dc:type rdf:resource="http://purl.org/dc/dcmitype/StillImage"/>
    <dc:date>2025-01-07T19:49:04.997130</dc:date>
    <dc:format>image/svg+xml</dc:format>
    <dc:creator>
     <cc:Agent>
      <dc:title>Matplotlib v3.9.3, https://matplotlib.org/</dc:title>
     </cc:Agent>
    </dc:creator>
   </cc:Work>
  </rdf:RDF>
 </metadata>
 <defs>
  <style type="text/css">*{stroke-linejoin: round; stroke-linecap: butt}</style>
 </defs>
 <g id="figure_1">
  <g id="patch_1">
   <path d="M 0 420.48 
L 708.48 420.48 
L 708.48 -0 
L 0 -0 
z
" style="fill: #ffffff"/>
  </g>
  <g id="axes_1">
   <g id="patch_2">
    <path d="M 60.520625 372.1675 
L 701.28 372.1675 
L 701.28 24.6525 
L 60.520625 24.6525 
z
" style="fill: #ffffff"/>
   </g>
   <g id="matplotlib.axis_1">
    <g id="xtick_1">
     <g id="line2d_1">
      <path d="M 63.646961 372.1675 
L 63.646961 24.6525 
" clip-path="url(#p0669280be7)" style="fill: none; stroke: #cccccc; stroke-opacity: 0.3; stroke-width: 0.5; stroke-linecap: round"/>
     </g>
     <g id="text_1">
      <!-- −2 -->
      <g style="fill: #262626" transform="translate(56.806023 387.756875) scale(0.12 -0.12)">
       <defs>
        <path id="ArialMT-2212" d="M 3381 1997 
L 356 1997 
L 356 2522 
L 3381 2522 
L 3381 1997 
z
" transform="scale(0.015625)"/>
        <path id="ArialMT-32" d="M 3222 541 
L 3222 0 
L 194 0 
Q 188 203 259 391 
Q 375 700 629 1000 
Q 884 1300 1366 1694 
Q 2113 2306 2375 2664 
Q 2638 3022 2638 3341 
Q 2638 3675 2398 3904 
Q 2159 4134 1775 4134 
Q 1369 4134 1125 3890 
Q 881 3647 878 3216 
L 300 3275 
Q 359 3922 746 4261 
Q 1134 4600 1788 4600 
Q 2447 4600 2831 4234 
Q 3216 3869 3216 3328 
Q 3216 3053 3103 2787 
Q 2991 2522 2730 2228 
Q 2469 1934 1863 1422 
Q 1356 997 1212 845 
Q 1069 694 975 541 
L 3222 541 
z
" transform="scale(0.015625)"/>
       </defs>
       <use xlink:href="#ArialMT-2212"/>
       <use xlink:href="#ArialMT-32" x="58.398438"/>
      </g>
     </g>
    </g>
    <g id="xtick_2">
     <g id="line2d_2">
      <path d="M 141.094752 372.1675 
L 141.094752 24.6525 
" clip-path="url(#p0669280be7)" style="fill: none; stroke: #cccccc; stroke-opacity: 0.3; stroke-width: 0.5; stroke-linecap: round"/>
     </g>
     <g id="text_2">
      <!-- −1 -->
      <g style="fill: #262626" transform="translate(134.253814 387.756875) scale(0.12 -0.12)">
       <defs>
        <path id="ArialMT-31" d="M 2384 0 
L 1822 0 
L 1822 3584 
Q 1619 3391 1289 3197 
Q 959 3003 697 2906 
L 697 3450 
Q 1169 3672 1522 3987 
Q 1875 4303 2022 4600 
L 2384 4600 
L 2384 0 
z
" transform="scale(0.015625)"/>
       </defs>
       <use xlink:href="#ArialMT-2212"/>
       <use xlink:href="#ArialMT-31" x="58.398438"/>
      </g>
     </g>
    </g>
    <g id="xtick_3">
     <g id="line2d_3">
      <path d="M 218.542543 372.1675 
L 218.542543 24.6525 
" clip-path="url(#p0669280be7)" style="fill: none; stroke: #cccccc; stroke-opacity: 0.3; stroke-width: 0.5; stroke-linecap: round"/>
     </g>
     <g id="text_3">
      <!-- 0 -->
      <g style="fill: #262626" transform="translate(215.205981 387.756875) scale(0.12 -0.12)">
       <defs>
        <path id="ArialMT-30" d="M 266 2259 
Q 266 3072 433 3567 
Q 600 4063 929 4331 
Q 1259 4600 1759 4600 
Q 2128 4600 2406 4451 
Q 2684 4303 2865 4023 
Q 3047 3744 3150 3342 
Q 3253 2941 3253 2259 
Q 3253 1453 3087 958 
Q 2922 463 2592 192 
Q 2263 -78 1759 -78 
Q 1097 -78 719 397 
Q 266 969 266 2259 
z
M 844 2259 
Q 844 1131 1108 757 
Q 1372 384 1759 384 
Q 2147 384 2411 759 
Q 2675 1134 2675 2259 
Q 2675 3391 2411 3762 
Q 2147 4134 1753 4134 
Q 1366 4134 1134 3806 
Q 844 3388 844 2259 
z
" transform="scale(0.015625)"/>
       </defs>
       <use xlink:href="#ArialMT-30"/>
      </g>
     </g>
    </g>
    <g id="xtick_4">
     <g id="line2d_4">
      <path d="M 295.990334 372.1675 
L 295.990334 24.6525 
" clip-path="url(#p0669280be7)" style="fill: none; stroke: #cccccc; stroke-opacity: 0.3; stroke-width: 0.5; stroke-linecap: round"/>
     </g>
     <g id="text_4">
      <!-- 1 -->
      <g style="fill: #262626" transform="translate(292.653772 387.756875) scale(0.12 -0.12)">
       <use xlink:href="#ArialMT-31"/>
      </g>
     </g>
    </g>
    <g id="xtick_5">
     <g id="line2d_5">
      <path d="M 373.438126 372.1675 
L 373.438126 24.6525 
" clip-path="url(#p0669280be7)" style="fill: none; stroke: #cccccc; stroke-opacity: 0.3; stroke-width: 0.5; stroke-linecap: round"/>
     </g>
     <g id="text_5">
      <!-- 2 -->
      <g style="fill: #262626" transform="translate(370.101563 387.756875) scale(0.12 -0.12)">
       <use xlink:href="#ArialMT-32"/>
      </g>
     </g>
    </g>
    <g id="xtick_6">
     <g id="line2d_6">
      <path d="M 450.885917 372.1675 
L 450.885917 24.6525 
" clip-path="url(#p0669280be7)" style="fill: none; stroke: #cccccc; stroke-opacity: 0.3; stroke-width: 0.5; stroke-linecap: round"/>
     </g>
     <g id="text_6">
      <!-- 3 -->
      <g style="fill: #262626" transform="translate(447.549354 387.756875) scale(0.12 -0.12)">
       <defs>
        <path id="ArialMT-33" d="M 269 1209 
L 831 1284 
Q 928 806 1161 595 
Q 1394 384 1728 384 
Q 2125 384 2398 659 
Q 2672 934 2672 1341 
Q 2672 1728 2419 1979 
Q 2166 2231 1775 2231 
Q 1616 2231 1378 2169 
L 1441 2663 
Q 1497 2656 1531 2656 
Q 1891 2656 2178 2843 
Q 2466 3031 2466 3422 
Q 2466 3731 2256 3934 
Q 2047 4138 1716 4138 
Q 1388 4138 1169 3931 
Q 950 3725 888 3313 
L 325 3413 
Q 428 3978 793 4289 
Q 1159 4600 1703 4600 
Q 2078 4600 2393 4439 
Q 2709 4278 2876 4000 
Q 3044 3722 3044 3409 
Q 3044 3113 2884 2869 
Q 2725 2625 2413 2481 
Q 2819 2388 3044 2092 
Q 3269 1797 3269 1353 
Q 3269 753 2831 336 
Q 2394 -81 1725 -81 
Q 1122 -81 723 278 
Q 325 638 269 1209 
z
" transform="scale(0.015625)"/>
       </defs>
       <use xlink:href="#ArialMT-33"/>
      </g>
     </g>
    </g>
    <g id="xtick_7">
     <g id="line2d_7">
      <path d="M 528.333708 372.1675 
L 528.333708 24.6525 
" clip-path="url(#p0669280be7)" style="fill: none; stroke: #cccccc; stroke-opacity: 0.3; stroke-width: 0.5; stroke-linecap: round"/>
     </g>
     <g id="text_7">
      <!-- 4 -->
      <g style="fill: #262626" transform="translate(524.997146 387.756875) scale(0.12 -0.12)">
       <defs>
        <path id="ArialMT-34" d="M 2069 0 
L 2069 1097 
L 81 1097 
L 81 1613 
L 2172 4581 
L 2631 4581 
L 2631 1613 
L 3250 1613 
L 3250 1097 
L 2631 1097 
L 2631 0 
L 2069 0 
z
M 2069 1613 
L 2069 3678 
L 634 1613 
L 2069 1613 
z
" transform="scale(0.015625)"/>
       </defs>
       <use xlink:href="#ArialMT-34"/>
      </g>
     </g>
    </g>
    <g id="xtick_8">
     <g id="line2d_8">
      <path d="M 605.781499 372.1675 
L 605.781499 24.6525 
" clip-path="url(#p0669280be7)" style="fill: none; stroke: #cccccc; stroke-opacity: 0.3; stroke-width: 0.5; stroke-linecap: round"/>
     </g>
     <g id="text_8">
      <!-- 5 -->
      <g style="fill: #262626" transform="translate(602.444937 387.756875) scale(0.12 -0.12)">
       <defs>
        <path id="ArialMT-35" d="M 266 1200 
L 856 1250 
Q 922 819 1161 601 
Q 1400 384 1738 384 
Q 2144 384 2425 690 
Q 2706 997 2706 1503 
Q 2706 1984 2436 2262 
Q 2166 2541 1728 2541 
Q 1456 2541 1237 2417 
Q 1019 2294 894 2097 
L 366 2166 
L 809 4519 
L 3088 4519 
L 3088 3981 
L 1259 3981 
L 1013 2750 
Q 1425 3038 1878 3038 
Q 2478 3038 2890 2622 
Q 3303 2206 3303 1553 
Q 3303 931 2941 478 
Q 2500 -78 1738 -78 
Q 1113 -78 717 272 
Q 322 622 266 1200 
z
" transform="scale(0.015625)"/>
       </defs>
       <use xlink:href="#ArialMT-35"/>
      </g>
     </g>
    </g>
    <g id="xtick_9">
     <g id="line2d_9">
      <path d="M 683.22929 372.1675 
L 683.22929 24.6525 
" clip-path="url(#p0669280be7)" style="fill: none; stroke: #cccccc; stroke-opacity: 0.3; stroke-width: 0.5; stroke-linecap: round"/>
     </g>
     <g id="text_9">
      <!-- 6 -->
      <g style="fill: #262626" transform="translate(679.892728 387.756875) scale(0.12 -0.12)">
       <defs>
        <path id="ArialMT-36" d="M 3184 3459 
L 2625 3416 
Q 2550 3747 2413 3897 
Q 2184 4138 1850 4138 
Q 1581 4138 1378 3988 
Q 1113 3794 959 3422 
Q 806 3050 800 2363 
Q 1003 2672 1297 2822 
Q 1591 2972 1913 2972 
Q 2475 2972 2870 2558 
Q 3266 2144 3266 1488 
Q 3266 1056 3080 686 
Q 2894 316 2569 119 
Q 2244 -78 1831 -78 
Q 1128 -78 684 439 
Q 241 956 241 2144 
Q 241 3472 731 4075 
Q 1159 4600 1884 4600 
Q 2425 4600 2770 4297 
Q 3116 3994 3184 3459 
z
M 888 1484 
Q 888 1194 1011 928 
Q 1134 663 1356 523 
Q 1578 384 1822 384 
Q 2178 384 2434 671 
Q 2691 959 2691 1453 
Q 2691 1928 2437 2201 
Q 2184 2475 1800 2475 
Q 1419 2475 1153 2201 
Q 888 1928 888 1484 
z
" transform="scale(0.015625)"/>
       </defs>
       <use xlink:href="#ArialMT-36"/>
      </g>
     </g>
    </g>
    <g id="text_10">
     <!-- Error (%) -->
     <g style="fill: #262626" transform="translate(352.515312 410.333438) scale(0.14 -0.14)">
      <defs>
       <path id="ArialMT-45" d="M 506 0 
L 506 4581 
L 3819 4581 
L 3819 4041 
L 1113 4041 
L 1113 2638 
L 3647 2638 
L 3647 2100 
L 1113 2100 
L 1113 541 
L 3925 541 
L 3925 0 
L 506 0 
z
" transform="scale(0.015625)"/>
       <path id="ArialMT-72" d="M 416 0 
L 416 3319 
L 922 3319 
L 922 2816 
Q 1116 3169 1280 3281 
Q 1444 3394 1641 3394 
Q 1925 3394 2219 3213 
L 2025 2691 
Q 1819 2813 1613 2813 
Q 1428 2813 1281 2702 
Q 1134 2591 1072 2394 
Q 978 2094 978 1738 
L 978 0 
L 416 0 
z
" transform="scale(0.015625)"/>
       <path id="ArialMT-6f" d="M 213 1659 
Q 213 2581 725 3025 
Q 1153 3394 1769 3394 
Q 2453 3394 2887 2945 
Q 3322 2497 3322 1706 
Q 3322 1066 3130 698 
Q 2938 331 2570 128 
Q 2203 -75 1769 -75 
Q 1072 -75 642 372 
Q 213 819 213 1659 
z
M 791 1659 
Q 791 1022 1069 705 
Q 1347 388 1769 388 
Q 2188 388 2466 706 
Q 2744 1025 2744 1678 
Q 2744 2294 2464 2611 
Q 2184 2928 1769 2928 
Q 1347 2928 1069 2612 
Q 791 2297 791 1659 
z
" transform="scale(0.015625)"/>
       <path id="ArialMT-20" transform="scale(0.015625)"/>
       <path id="ArialMT-28" d="M 1497 -1347 
Q 1031 -759 709 28 
Q 388 816 388 1659 
Q 388 2403 628 3084 
Q 909 3875 1497 4659 
L 1900 4659 
Q 1522 4009 1400 3731 
Q 1209 3300 1100 2831 
Q 966 2247 966 1656 
Q 966 153 1900 -1347 
L 1497 -1347 
z
" transform="scale(0.015625)"/>
       <path id="ArialMT-25" d="M 372 3481 
Q 372 3972 619 4315 
Q 866 4659 1334 4659 
Q 1766 4659 2048 4351 
Q 2331 4044 2331 3447 
Q 2331 2866 2045 2552 
Q 1759 2238 1341 2238 
Q 925 2238 648 2547 
Q 372 2856 372 3481 
z
M 1350 4272 
Q 1141 4272 1002 4090 
Q 863 3909 863 3425 
Q 863 2984 1003 2804 
Q 1144 2625 1350 2625 
Q 1563 2625 1702 2806 
Q 1841 2988 1841 3469 
Q 1841 3913 1700 4092 
Q 1559 4272 1350 4272 
z
M 1353 -169 
L 3859 4659 
L 4316 4659 
L 1819 -169 
L 1353 -169 
z
M 3334 1075 
Q 3334 1569 3581 1911 
Q 3828 2253 4300 2253 
Q 4731 2253 5014 1945 
Q 5297 1638 5297 1041 
Q 5297 459 5011 145 
Q 4725 -169 4303 -169 
Q 3888 -169 3611 142 
Q 3334 453 3334 1075 
z
M 4316 1866 
Q 4103 1866 3964 1684 
Q 3825 1503 3825 1019 
Q 3825 581 3965 400 
Q 4106 219 4313 219 
Q 4528 219 4667 400 
Q 4806 581 4806 1063 
Q 4806 1506 4665 1686 
Q 4525 1866 4316 1866 
z
" transform="scale(0.015625)"/>
       <path id="ArialMT-29" d="M 791 -1347 
L 388 -1347 
Q 1322 153 1322 1656 
Q 1322 2244 1188 2822 
Q 1081 3291 891 3722 
Q 769 4003 388 4659 
L 791 4659 
Q 1378 3875 1659 3084 
Q 1900 2403 1900 1659 
Q 1900 816 1576 28 
Q 1253 -759 791 -1347 
z
" transform="scale(0.015625)"/>
      </defs>
      <use xlink:href="#ArialMT-45"/>
      <use xlink:href="#ArialMT-72" x="66.699219"/>
      <use xlink:href="#ArialMT-72" x="100"/>
      <use xlink:href="#ArialMT-6f" x="133.300781"/>
      <use xlink:href="#ArialMT-72" x="188.916016"/>
      <use xlink:href="#ArialMT-20" x="222.216797"/>
      <use xlink:href="#ArialMT-28" x="250"/>
      <use xlink:href="#ArialMT-25" x="283.300781"/>
      <use xlink:href="#ArialMT-29" x="372.216797"/>
     </g>
    </g>
   </g>
   <g id="matplotlib.axis_2">
    <g id="ytick_1">
     <g id="line2d_10">
      <path d="M 60.520625 372.1675 
L 701.28 372.1675 
" clip-path="url(#p0669280be7)" style="fill: none; stroke: #cccccc; stroke-opacity: 0.3; stroke-width: 0.5; stroke-linecap: round"/>
     </g>
     <g id="text_11">
      <!-- 0.00 -->
      <g style="fill: #262626" transform="translate(30.1675 376.462188) scale(0.12 -0.12)">
       <defs>
        <path id="ArialMT-2e" d="M 581 0 
L 581 641 
L 1222 641 
L 1222 0 
L 581 0 
z
" transform="scale(0.015625)"/>
       </defs>
       <use xlink:href="#ArialMT-30"/>
       <use xlink:href="#ArialMT-2e" x="55.615234"/>
       <use xlink:href="#ArialMT-30" x="83.398438"/>
       <use xlink:href="#ArialMT-30" x="139.013672"/>
      </g>
     </g>
    </g>
    <g id="ytick_2">
     <g id="line2d_11">
      <path d="M 60.520625 327.079099 
L 701.28 327.079099 
" clip-path="url(#p0669280be7)" style="fill: none; stroke: #cccccc; stroke-opacity: 0.3; stroke-width: 0.5; stroke-linecap: round"/>
     </g>
     <g id="text_12">
      <!-- 0.05 -->
      <g style="fill: #262626" transform="translate(30.1675 331.373786) scale(0.12 -0.12)">
       <use xlink:href="#ArialMT-30"/>
       <use xlink:href="#ArialMT-2e" x="55.615234"/>
       <use xlink:href="#ArialMT-30" x="83.398438"/>
       <use xlink:href="#ArialMT-35" x="139.013672"/>
      </g>
     </g>
    </g>
    <g id="ytick_3">
     <g id="line2d_12">
      <path d="M 60.520625 281.990698 
L 701.28 281.990698 
" clip-path="url(#p0669280be7)" style="fill: none; stroke: #cccccc; stroke-opacity: 0.3; stroke-width: 0.5; stroke-linecap: round"/>
     </g>
     <g id="text_13">
      <!-- 0.10 -->
      <g style="fill: #262626" transform="translate(30.1675 286.285385) scale(0.12 -0.12)">
       <use xlink:href="#ArialMT-30"/>
       <use xlink:href="#ArialMT-2e" x="55.615234"/>
       <use xlink:href="#ArialMT-31" x="83.398438"/>
       <use xlink:href="#ArialMT-30" x="139.013672"/>
      </g>
     </g>
    </g>
    <g id="ytick_4">
     <g id="line2d_13">
      <path d="M 60.520625 236.902297 
L 701.28 236.902297 
" clip-path="url(#p0669280be7)" style="fill: none; stroke: #cccccc; stroke-opacity: 0.3; stroke-width: 0.5; stroke-linecap: round"/>
     </g>
     <g id="text_14">
      <!-- 0.15 -->
      <g style="fill: #262626" transform="translate(30.1675 241.196984) scale(0.12 -0.12)">
       <use xlink:href="#ArialMT-30"/>
       <use xlink:href="#ArialMT-2e" x="55.615234"/>
       <use xlink:href="#ArialMT-31" x="83.398438"/>
       <use xlink:href="#ArialMT-35" x="139.013672"/>
      </g>
     </g>
    </g>
    <g id="ytick_5">
     <g id="line2d_14">
      <path d="M 60.520625 191.813896 
L 701.28 191.813896 
" clip-path="url(#p0669280be7)" style="fill: none; stroke: #cccccc; stroke-opacity: 0.3; stroke-width: 0.5; stroke-linecap: round"/>
     </g>
     <g id="text_15">
      <!-- 0.20 -->
      <g style="fill: #262626" transform="translate(30.1675 196.108583) scale(0.12 -0.12)">
       <use xlink:href="#ArialMT-30"/>
       <use xlink:href="#ArialMT-2e" x="55.615234"/>
       <use xlink:href="#ArialMT-32" x="83.398438"/>
       <use xlink:href="#ArialMT-30" x="139.013672"/>
      </g>
     </g>
    </g>
    <g id="ytick_6">
     <g id="line2d_15">
      <path d="M 60.520625 146.725495 
L 701.28 146.725495 
" clip-path="url(#p0669280be7)" style="fill: none; stroke: #cccccc; stroke-opacity: 0.3; stroke-width: 0.5; stroke-linecap: round"/>
     </g>
     <g id="text_16">
      <!-- 0.25 -->
      <g style="fill: #262626" transform="translate(30.1675 151.020182) scale(0.12 -0.12)">
       <use xlink:href="#ArialMT-30"/>
       <use xlink:href="#ArialMT-2e" x="55.615234"/>
       <use xlink:href="#ArialMT-32" x="83.398438"/>
       <use xlink:href="#ArialMT-35" x="139.013672"/>
      </g>
     </g>
    </g>
    <g id="ytick_7">
     <g id="line2d_16">
      <path d="M 60.520625 101.637094 
L 701.28 101.637094 
" clip-path="url(#p0669280be7)" style="fill: none; stroke: #cccccc; stroke-opacity: 0.3; stroke-width: 0.5; stroke-linecap: round"/>
     </g>
     <g id="text_17">
      <!-- 0.30 -->
      <g style="fill: #262626" transform="translate(30.1675 105.931781) scale(0.12 -0.12)">
       <use xlink:href="#ArialMT-30"/>
       <use xlink:href="#ArialMT-2e" x="55.615234"/>
       <use xlink:href="#ArialMT-33" x="83.398438"/>
       <use xlink:href="#ArialMT-30" x="139.013672"/>
      </g>
     </g>
    </g>
    <g id="ytick_8">
     <g id="line2d_17">
      <path d="M 60.520625 56.548692 
L 701.28 56.548692 
" clip-path="url(#p0669280be7)" style="fill: none; stroke: #cccccc; stroke-opacity: 0.3; stroke-width: 0.5; stroke-linecap: round"/>
     </g>
     <g id="text_18">
      <!-- 0.35 -->
      <g style="fill: #262626" transform="translate(30.1675 60.84338) scale(0.12 -0.12)">
       <use xlink:href="#ArialMT-30"/>
       <use xlink:href="#ArialMT-2e" x="55.615234"/>
       <use xlink:href="#ArialMT-33" x="83.398438"/>
       <use xlink:href="#ArialMT-35" x="139.013672"/>
      </g>
     </g>
    </g>
    <g id="text_19">
     <!-- Density -->
     <g style="fill: #262626" transform="translate(17.220938 221.750625) rotate(-90) scale(0.14 -0.14)">
      <defs>
       <path id="ArialMT-44" d="M 494 0 
L 494 4581 
L 2072 4581 
Q 2606 4581 2888 4516 
Q 3281 4425 3559 4188 
Q 3922 3881 4101 3404 
Q 4281 2928 4281 2316 
Q 4281 1794 4159 1391 
Q 4038 988 3847 723 
Q 3656 459 3429 307 
Q 3203 156 2883 78 
Q 2563 0 2147 0 
L 494 0 
z
M 1100 541 
L 2078 541 
Q 2531 541 2789 625 
Q 3047 709 3200 863 
Q 3416 1078 3536 1442 
Q 3656 1806 3656 2325 
Q 3656 3044 3420 3430 
Q 3184 3816 2847 3947 
Q 2603 4041 2063 4041 
L 1100 4041 
L 1100 541 
z
" transform="scale(0.015625)"/>
       <path id="ArialMT-65" d="M 2694 1069 
L 3275 997 
Q 3138 488 2766 206 
Q 2394 -75 1816 -75 
Q 1088 -75 661 373 
Q 234 822 234 1631 
Q 234 2469 665 2931 
Q 1097 3394 1784 3394 
Q 2450 3394 2872 2941 
Q 3294 2488 3294 1666 
Q 3294 1616 3291 1516 
L 816 1516 
Q 847 969 1125 678 
Q 1403 388 1819 388 
Q 2128 388 2347 550 
Q 2566 713 2694 1069 
z
M 847 1978 
L 2700 1978 
Q 2663 2397 2488 2606 
Q 2219 2931 1791 2931 
Q 1403 2931 1139 2672 
Q 875 2413 847 1978 
z
" transform="scale(0.015625)"/>
       <path id="ArialMT-6e" d="M 422 0 
L 422 3319 
L 928 3319 
L 928 2847 
Q 1294 3394 1984 3394 
Q 2284 3394 2536 3286 
Q 2788 3178 2913 3003 
Q 3038 2828 3088 2588 
Q 3119 2431 3119 2041 
L 3119 0 
L 2556 0 
L 2556 2019 
Q 2556 2363 2490 2533 
Q 2425 2703 2258 2804 
Q 2091 2906 1866 2906 
Q 1506 2906 1245 2678 
Q 984 2450 984 1813 
L 984 0 
L 422 0 
z
" transform="scale(0.015625)"/>
       <path id="ArialMT-73" d="M 197 991 
L 753 1078 
Q 800 744 1014 566 
Q 1228 388 1613 388 
Q 2000 388 2187 545 
Q 2375 703 2375 916 
Q 2375 1106 2209 1216 
Q 2094 1291 1634 1406 
Q 1016 1563 777 1677 
Q 538 1791 414 1992 
Q 291 2194 291 2438 
Q 291 2659 392 2848 
Q 494 3038 669 3163 
Q 800 3259 1026 3326 
Q 1253 3394 1513 3394 
Q 1903 3394 2198 3281 
Q 2494 3169 2634 2976 
Q 2775 2784 2828 2463 
L 2278 2388 
Q 2241 2644 2061 2787 
Q 1881 2931 1553 2931 
Q 1166 2931 1000 2803 
Q 834 2675 834 2503 
Q 834 2394 903 2306 
Q 972 2216 1119 2156 
Q 1203 2125 1616 2013 
Q 2213 1853 2448 1751 
Q 2684 1650 2818 1456 
Q 2953 1263 2953 975 
Q 2953 694 2789 445 
Q 2625 197 2315 61 
Q 2006 -75 1616 -75 
Q 969 -75 630 194 
Q 291 463 197 991 
z
" transform="scale(0.015625)"/>
       <path id="ArialMT-69" d="M 425 3934 
L 425 4581 
L 988 4581 
L 988 3934 
L 425 3934 
z
M 425 0 
L 425 3319 
L 988 3319 
L 988 0 
L 425 0 
z
" transform="scale(0.015625)"/>
       <path id="ArialMT-74" d="M 1650 503 
L 1731 6 
Q 1494 -44 1306 -44 
Q 1000 -44 831 53 
Q 663 150 594 308 
Q 525 466 525 972 
L 525 2881 
L 113 2881 
L 113 3319 
L 525 3319 
L 525 4141 
L 1084 4478 
L 1084 3319 
L 1650 3319 
L 1650 2881 
L 1084 2881 
L 1084 941 
Q 1084 700 1114 631 
Q 1144 563 1211 522 
Q 1278 481 1403 481 
Q 1497 481 1650 503 
z
" transform="scale(0.015625)"/>
       <path id="ArialMT-79" d="M 397 -1278 
L 334 -750 
Q 519 -800 656 -800 
Q 844 -800 956 -737 
Q 1069 -675 1141 -563 
Q 1194 -478 1313 -144 
Q 1328 -97 1363 -6 
L 103 3319 
L 709 3319 
L 1400 1397 
Q 1534 1031 1641 628 
Q 1738 1016 1872 1384 
L 2581 3319 
L 3144 3319 
L 1881 -56 
Q 1678 -603 1566 -809 
Q 1416 -1088 1222 -1217 
Q 1028 -1347 759 -1347 
Q 597 -1347 397 -1278 
z
" transform="scale(0.015625)"/>
      </defs>
      <use xlink:href="#ArialMT-44"/>
      <use xlink:href="#ArialMT-65" x="72.216797"/>
      <use xlink:href="#ArialMT-6e" x="127.832031"/>
      <use xlink:href="#ArialMT-73" x="183.447266"/>
      <use xlink:href="#ArialMT-69" x="233.447266"/>
      <use xlink:href="#ArialMT-74" x="255.664062"/>
      <use xlink:href="#ArialMT-79" x="283.447266"/>
     </g>
    </g>
   </g>
   <g id="PolyCollection_1">
    <defs>
     <path id="mf42fca3f5f" d="M 120.491197 -48.957792 
L 120.491197 -48.3125 
L 123.263374 -48.3125 
L 126.035552 -48.3125 
L 128.80773 -48.3125 
L 131.579908 -48.3125 
L 134.352086 -48.3125 
L 137.124263 -48.3125 
L 139.896441 -48.3125 
L 142.668619 -48.3125 
L 145.440797 -48.3125 
L 148.212974 -48.3125 
L 150.985152 -48.3125 
L 153.75733 -48.3125 
L 156.529508 -48.3125 
L 159.301685 -48.3125 
L 162.073863 -48.3125 
L 164.846041 -48.3125 
L 167.618219 -48.3125 
L 170.390397 -48.3125 
L 173.162574 -48.3125 
L 175.934752 -48.3125 
L 178.70693 -48.3125 
L 181.479108 -48.3125 
L 184.251285 -48.3125 
L 187.023463 -48.3125 
L 189.795641 -48.3125 
L 192.567819 -48.3125 
L 195.339997 -48.3125 
L 198.112174 -48.3125 
L 200.884352 -48.3125 
L 203.65653 -48.3125 
L 206.428708 -48.3125 
L 209.200885 -48.3125 
L 211.973063 -48.3125 
L 214.745241 -48.3125 
L 217.517419 -48.3125 
L 220.289597 -48.3125 
L 223.061774 -48.3125 
L 225.833952 -48.3125 
L 228.60613 -48.3125 
L 231.378308 -48.3125 
L 234.150485 -48.3125 
L 236.922663 -48.3125 
L 239.694841 -48.3125 
L 242.467019 -48.3125 
L 245.239197 -48.3125 
L 248.011374 -48.3125 
L 250.783552 -48.3125 
L 253.55573 -48.3125 
L 256.327908 -48.3125 
L 259.100085 -48.3125 
L 261.872263 -48.3125 
L 264.644441 -48.3125 
L 267.416619 -48.3125 
L 270.188796 -48.3125 
L 272.960974 -48.3125 
L 275.733152 -48.3125 
L 278.50533 -48.3125 
L 281.277508 -48.3125 
L 284.049685 -48.3125 
L 286.821863 -48.3125 
L 289.594041 -48.3125 
L 292.366219 -48.3125 
L 295.138396 -48.3125 
L 297.910574 -48.3125 
L 300.682752 -48.3125 
L 303.45493 -48.3125 
L 306.227108 -48.3125 
L 308.999285 -48.3125 
L 311.771463 -48.3125 
L 314.543641 -48.3125 
L 317.315819 -48.3125 
L 320.087996 -48.3125 
L 322.860174 -48.3125 
L 325.632352 -48.3125 
L 328.40453 -48.3125 
L 331.176708 -48.3125 
L 333.948885 -48.3125 
L 336.721063 -48.3125 
L 339.493241 -48.3125 
L 342.265419 -48.3125 
L 345.037596 -48.3125 
L 347.809774 -48.3125 
L 350.581952 -48.3125 
L 353.35413 -48.3125 
L 356.126308 -48.3125 
L 358.898485 -48.3125 
L 361.670663 -48.3125 
L 364.442841 -48.3125 
L 367.215019 -48.3125 
L 369.987196 -48.3125 
L 372.759374 -48.3125 
L 375.531552 -48.3125 
L 378.30373 -48.3125 
L 381.075907 -48.3125 
L 383.848085 -48.3125 
L 386.620263 -48.3125 
L 389.392441 -48.3125 
L 392.164619 -48.3125 
L 394.936796 -48.3125 
L 397.708974 -48.3125 
L 400.481152 -48.3125 
L 403.25333 -48.3125 
L 406.025507 -48.3125 
L 408.797685 -48.3125 
L 411.569863 -48.3125 
L 414.342041 -48.3125 
L 417.114219 -48.3125 
L 419.886396 -48.3125 
L 422.658574 -48.3125 
L 425.430752 -48.3125 
L 428.20293 -48.3125 
L 430.975107 -48.3125 
L 433.747285 -48.3125 
L 436.519463 -48.3125 
L 439.291641 -48.3125 
L 442.063819 -48.3125 
L 444.835996 -48.3125 
L 447.608174 -48.3125 
L 450.380352 -48.3125 
L 453.15253 -48.3125 
L 455.924707 -48.3125 
L 458.696885 -48.3125 
L 461.469063 -48.3125 
L 464.241241 -48.3125 
L 467.013419 -48.3125 
L 469.785596 -48.3125 
L 472.557774 -48.3125 
L 475.329952 -48.3125 
L 478.10213 -48.3125 
L 480.874307 -48.3125 
L 483.646485 -48.3125 
L 486.418663 -48.3125 
L 489.190841 -48.3125 
L 491.963018 -48.3125 
L 494.735196 -48.3125 
L 497.507374 -48.3125 
L 500.279552 -48.3125 
L 503.05173 -48.3125 
L 505.823907 -48.3125 
L 508.596085 -48.3125 
L 511.368263 -48.3125 
L 514.140441 -48.3125 
L 516.912618 -48.3125 
L 519.684796 -48.3125 
L 522.456974 -48.3125 
L 525.229152 -48.3125 
L 528.00133 -48.3125 
L 530.773507 -48.3125 
L 533.545685 -48.3125 
L 536.317863 -48.3125 
L 539.090041 -48.3125 
L 541.862218 -48.3125 
L 544.634396 -48.3125 
L 547.406574 -48.3125 
L 550.178752 -48.3125 
L 552.95093 -48.3125 
L 555.723107 -48.3125 
L 558.495285 -48.3125 
L 561.267463 -48.3125 
L 564.039641 -48.3125 
L 566.811818 -48.3125 
L 569.583996 -48.3125 
L 572.356174 -48.3125 
L 575.128352 -48.3125 
L 577.90053 -48.3125 
L 580.672707 -48.3125 
L 583.444885 -48.3125 
L 586.217063 -48.3125 
L 588.989241 -48.3125 
L 591.761418 -48.3125 
L 594.533596 -48.3125 
L 597.305774 -48.3125 
L 600.077952 -48.3125 
L 602.850129 -48.3125 
L 605.622307 -48.3125 
L 608.394485 -48.3125 
L 611.166663 -48.3125 
L 613.938841 -48.3125 
L 616.711018 -48.3125 
L 619.483196 -48.3125 
L 622.255374 -48.3125 
L 625.027552 -48.3125 
L 627.799729 -48.3125 
L 630.571907 -48.3125 
L 633.344085 -48.3125 
L 636.116263 -48.3125 
L 638.888441 -48.3125 
L 641.660618 -48.3125 
L 644.432796 -48.3125 
L 647.204974 -48.3125 
L 649.977152 -48.3125 
L 652.749329 -48.3125 
L 655.521507 -48.3125 
L 658.293685 -48.3125 
L 661.065863 -48.3125 
L 663.838041 -48.3125 
L 666.610218 -48.3125 
L 669.382396 -48.3125 
L 672.154574 -48.3125 
L 672.154574 -48.61619 
L 672.154574 -48.61619 
L 669.382396 -48.684379 
L 666.610218 -48.766084 
L 663.838041 -48.863568 
L 661.065863 -48.979379 
L 658.293685 -49.116377 
L 655.521507 -49.277748 
L 652.749329 -49.467016 
L 649.977152 -49.688061 
L 647.204974 -49.945119 
L 644.432796 -50.242789 
L 641.660618 -50.586025 
L 638.888441 -50.980127 
L 636.116263 -51.43072 
L 633.344085 -51.943731 
L 630.571907 -52.525348 
L 627.799729 -53.181981 
L 625.027552 -53.920204 
L 622.255374 -54.746699 
L 619.483196 -55.668178 
L 616.711018 -56.691312 
L 613.938841 -57.822642 
L 611.166663 -59.068495 
L 608.394485 -60.434884 
L 605.622307 -61.927419 
L 602.850129 -63.551211 
L 600.077952 -65.310778 
L 597.305774 -67.209959 
L 594.533596 -69.251835 
L 591.761418 -71.438653 
L 588.989241 -73.771768 
L 586.217063 -76.251596 
L 583.444885 -78.877575 
L 580.672707 -81.648152 
L 577.90053 -84.560773 
L 575.128352 -87.611898 
L 572.356174 -90.797031 
L 569.583996 -94.110755 
L 566.811818 -97.546794 
L 564.039641 -101.098071 
L 561.267463 -104.756791 
L 558.495285 -108.514518 
L 555.723107 -112.362259 
L 552.95093 -116.29056 
L 550.178752 -120.289585 
L 547.406574 -124.349201 
L 544.634396 -128.459064 
L 541.862218 -132.608681 
L 539.090041 -136.787486 
L 536.317863 -140.984886 
L 533.545685 -145.19032 
L 530.773507 -149.393291 
L 528.00133 -153.583406 
L 525.229152 -157.750402 
L 522.456974 -161.884171 
L 519.684796 -165.974787 
L 516.912618 -170.012526 
L 514.140441 -173.987894 
L 511.368263 -177.891661 
L 508.596085 -181.714893 
L 505.823907 -185.448996 
L 503.05173 -189.085773 
L 500.279552 -192.617478 
L 497.507374 -196.036883 
L 494.735196 -199.337354 
L 491.963018 -202.512927 
L 489.190841 -205.55839 
L 486.418663 -208.469362 
L 483.646485 -211.242376 
L 480.874307 -213.874953 
L 478.10213 -216.365669 
L 475.329952 -218.714212 
L 472.557774 -220.921432 
L 469.785596 -222.98937 
L 467.013419 -224.921275 
L 464.241241 -226.721608 
L 461.469063 -228.396023 
L 458.696885 -229.951335 
L 455.924707 -231.395475 
L 453.15253 -232.737425 
L 450.380352 -233.987141 
L 447.608174 -235.155464 
L 444.835996 -236.254021 
L 442.063819 -237.295119 
L 439.291641 -238.291625 
L 436.519463 -239.25685 
L 433.747285 -240.204417 
L 430.975107 -241.148139 
L 428.20293 -242.10188 
L 425.430752 -243.079423 
L 422.658574 -244.094339 
L 419.886396 -245.159842 
L 417.114219 -246.288656 
L 414.342041 -247.492875 
L 411.569863 -248.783823 
L 408.797685 -250.171919 
L 406.025507 -251.666532 
L 403.25333 -253.275856 
L 400.481152 -255.006772 
L 397.708974 -256.864729 
L 394.936796 -258.853624 
L 392.164619 -260.975695 
L 389.392441 -263.231432 
L 386.620263 -265.619497 
L 383.848085 -268.13666 
L 381.075907 -270.777762 
L 378.30373 -273.535693 
L 375.531552 -276.401396 
L 372.759374 -279.36389 
L 369.987196 -282.410325 
L 367.215019 -285.526052 
L 364.442841 -288.69472 
L 361.670663 -291.898392 
L 358.898485 -295.117686 
L 356.126308 -298.331924 
L 353.35413 -301.519299 
L 350.581952 -304.657057 
L 347.809774 -307.721684 
L 345.037596 -310.689092 
L 342.265419 -313.534821 
L 339.493241 -316.234226 
L 336.721063 -318.762677 
L 333.948885 -321.095738 
L 331.176708 -323.209354 
L 328.40453 -325.080026 
L 325.632352 -326.684979 
L 322.860174 -328.002326 
L 320.087996 -329.01122 
L 317.315819 -329.692007 
L 314.543641 -330.026369 
L 311.771463 -329.997465 
L 308.999285 -329.590067 
L 306.227108 -328.790698 
L 303.45493 -327.587758 
L 300.682752 -325.971655 
L 297.910574 -323.934936 
L 295.138396 -321.4724 
L 292.366219 -318.581224 
L 289.594041 -315.261063 
L 286.821863 -311.514155 
L 284.049685 -307.345404 
L 281.277508 -302.762447 
L 278.50533 -297.775706 
L 275.733152 -292.398409 
L 272.960974 -286.646589 
L 270.188796 -280.53905 
L 267.416619 -274.097299 
L 264.644441 -267.345439 
L 261.872263 -260.31003 
L 259.100085 -253.019907 
L 256.327908 -245.505957 
L 253.55573 -237.800866 
L 250.783552 -229.938824 
L 248.011374 -221.955201 
L 245.239197 -213.886196 
L 242.467019 -205.768468 
L 239.694841 -197.638746 
L 236.922663 -189.533436 
L 234.150485 -181.488224 
L 231.378308 -173.537692 
L 228.60613 -165.714945 
L 225.833952 -158.051261 
L 223.061774 -150.575773 
L 220.289597 -143.315187 
L 217.517419 -136.293542 
L 214.745241 -129.532014 
L 211.973063 -123.048771 
L 209.200885 -116.858882 
L 206.428708 -110.974271 
L 203.65653 -105.403727 
L 200.884352 -100.152964 
L 198.112174 -95.224721 
L 195.339997 -90.618906 
L 192.567819 -86.332782 
L 189.795641 -82.361173 
L 187.023463 -78.696707 
L 184.251285 -75.330065 
L 181.479108 -72.250254 
L 178.70693 -69.444873 
L 175.934752 -66.900393 
L 173.162574 -64.602417 
L 170.390397 -62.535941 
L 167.618219 -60.685595 
L 164.846041 -59.035864 
L 162.073863 -57.571293 
L 159.301685 -56.276666 
L 156.529508 -55.137164 
L 153.75733 -54.138494 
L 150.985152 -53.266998 
L 148.212974 -52.509738 
L 145.440797 -51.854558 
L 142.668619 -51.290123 
L 139.896441 -50.805949 
L 137.124263 -50.392399 
L 134.352086 -50.040684 
L 131.579908 -49.742839 
L 128.80773 -49.491691 
L 126.035552 -49.280826 
L 123.263374 -49.10454 
L 120.491197 -48.957792 
z
" style="stroke: #2ecc71"/>
    </defs>
    <g clip-path="url(#p0669280be7)">
     <use xlink:href="#mf42fca3f5f" x="0" y="420.48" style="fill: #2ecc71; fill-opacity: 0.3; stroke: #2ecc71"/>
    </g>
   </g>
   <g id="PolyCollection_2">
    <defs>
     <path id="mae0dcb81d1" d="M 89.646051 -50.040362 
L 89.646051 -48.3125 
L 91.775344 -48.3125 
L 93.904637 -48.3125 
L 96.03393 -48.3125 
L 98.163223 -48.3125 
L 100.292516 -48.3125 
L 102.421809 -48.3125 
L 104.551102 -48.3125 
L 106.680395 -48.3125 
L 108.809688 -48.3125 
L 110.938981 -48.3125 
L 113.068274 -48.3125 
L 115.197567 -48.3125 
L 117.32686 -48.3125 
L 119.456153 -48.3125 
L 121.585446 -48.3125 
L 123.714739 -48.3125 
L 125.844031 -48.3125 
L 127.973324 -48.3125 
L 130.102617 -48.3125 
L 132.23191 -48.3125 
L 134.361203 -48.3125 
L 136.490496 -48.3125 
L 138.619789 -48.3125 
L 140.749082 -48.3125 
L 142.878375 -48.3125 
L 145.007668 -48.3125 
L 147.136961 -48.3125 
L 149.266254 -48.3125 
L 151.395547 -48.3125 
L 153.52484 -48.3125 
L 155.654133 -48.3125 
L 157.783426 -48.3125 
L 159.912719 -48.3125 
L 162.042012 -48.3125 
L 164.171305 -48.3125 
L 166.300598 -48.3125 
L 168.429891 -48.3125 
L 170.559184 -48.3125 
L 172.688477 -48.3125 
L 174.81777 -48.3125 
L 176.947063 -48.3125 
L 179.076356 -48.3125 
L 181.205648 -48.3125 
L 183.334941 -48.3125 
L 185.464234 -48.3125 
L 187.593527 -48.3125 
L 189.72282 -48.3125 
L 191.852113 -48.3125 
L 193.981406 -48.3125 
L 196.110699 -48.3125 
L 198.239992 -48.3125 
L 200.369285 -48.3125 
L 202.498578 -48.3125 
L 204.627871 -48.3125 
L 206.757164 -48.3125 
L 208.886457 -48.3125 
L 211.01575 -48.3125 
L 213.145043 -48.3125 
L 215.274336 -48.3125 
L 217.403629 -48.3125 
L 219.532922 -48.3125 
L 221.662215 -48.3125 
L 223.791508 -48.3125 
L 225.920801 -48.3125 
L 228.050094 -48.3125 
L 230.179387 -48.3125 
L 232.30868 -48.3125 
L 234.437973 -48.3125 
L 236.567266 -48.3125 
L 238.696558 -48.3125 
L 240.825851 -48.3125 
L 242.955144 -48.3125 
L 245.084437 -48.3125 
L 247.21373 -48.3125 
L 249.343023 -48.3125 
L 251.472316 -48.3125 
L 253.601609 -48.3125 
L 255.730902 -48.3125 
L 257.860195 -48.3125 
L 259.989488 -48.3125 
L 262.118781 -48.3125 
L 264.248074 -48.3125 
L 266.377367 -48.3125 
L 268.50666 -48.3125 
L 270.635953 -48.3125 
L 272.765246 -48.3125 
L 274.894539 -48.3125 
L 277.023832 -48.3125 
L 279.153125 -48.3125 
L 281.282418 -48.3125 
L 283.411711 -48.3125 
L 285.541004 -48.3125 
L 287.670297 -48.3125 
L 289.79959 -48.3125 
L 291.928883 -48.3125 
L 294.058175 -48.3125 
L 296.187468 -48.3125 
L 298.316761 -48.3125 
L 300.446054 -48.3125 
L 302.575347 -48.3125 
L 304.70464 -48.3125 
L 306.833933 -48.3125 
L 308.963226 -48.3125 
L 311.092519 -48.3125 
L 313.221812 -48.3125 
L 315.351105 -48.3125 
L 317.480398 -48.3125 
L 319.609691 -48.3125 
L 321.738984 -48.3125 
L 323.868277 -48.3125 
L 325.99757 -48.3125 
L 328.126863 -48.3125 
L 330.256156 -48.3125 
L 332.385449 -48.3125 
L 334.514742 -48.3125 
L 336.644035 -48.3125 
L 338.773328 -48.3125 
L 340.902621 -48.3125 
L 343.031914 -48.3125 
L 345.161207 -48.3125 
L 347.2905 -48.3125 
L 349.419792 -48.3125 
L 351.549085 -48.3125 
L 353.678378 -48.3125 
L 355.807671 -48.3125 
L 357.936964 -48.3125 
L 360.066257 -48.3125 
L 362.19555 -48.3125 
L 364.324843 -48.3125 
L 366.454136 -48.3125 
L 368.583429 -48.3125 
L 370.712722 -48.3125 
L 372.842015 -48.3125 
L 374.971308 -48.3125 
L 377.100601 -48.3125 
L 379.229894 -48.3125 
L 381.359187 -48.3125 
L 383.48848 -48.3125 
L 385.617773 -48.3125 
L 387.747066 -48.3125 
L 389.876359 -48.3125 
L 392.005652 -48.3125 
L 394.134945 -48.3125 
L 396.264238 -48.3125 
L 398.393531 -48.3125 
L 400.522824 -48.3125 
L 402.652117 -48.3125 
L 404.781409 -48.3125 
L 406.910702 -48.3125 
L 409.039995 -48.3125 
L 411.169288 -48.3125 
L 413.298581 -48.3125 
L 415.427874 -48.3125 
L 417.557167 -48.3125 
L 419.68646 -48.3125 
L 421.815753 -48.3125 
L 423.945046 -48.3125 
L 426.074339 -48.3125 
L 428.203632 -48.3125 
L 430.332925 -48.3125 
L 432.462218 -48.3125 
L 434.591511 -48.3125 
L 436.720804 -48.3125 
L 438.850097 -48.3125 
L 440.97939 -48.3125 
L 443.108683 -48.3125 
L 445.237976 -48.3125 
L 447.367269 -48.3125 
L 449.496562 -48.3125 
L 451.625855 -48.3125 
L 453.755148 -48.3125 
L 455.884441 -48.3125 
L 458.013734 -48.3125 
L 460.143026 -48.3125 
L 462.272319 -48.3125 
L 464.401612 -48.3125 
L 466.530905 -48.3125 
L 468.660198 -48.3125 
L 470.789491 -48.3125 
L 472.918784 -48.3125 
L 475.048077 -48.3125 
L 477.17737 -48.3125 
L 479.306663 -48.3125 
L 481.435956 -48.3125 
L 483.565249 -48.3125 
L 485.694542 -48.3125 
L 487.823835 -48.3125 
L 489.953128 -48.3125 
L 492.082421 -48.3125 
L 494.211714 -48.3125 
L 496.341007 -48.3125 
L 498.4703 -48.3125 
L 500.599593 -48.3125 
L 502.728886 -48.3125 
L 504.858179 -48.3125 
L 506.987472 -48.3125 
L 509.116765 -48.3125 
L 511.246058 -48.3125 
L 513.375351 -48.3125 
L 513.375351 -50.149726 
L 513.375351 -50.149726 
L 511.246058 -50.417558 
L 509.116765 -50.719832 
L 506.987472 -51.060265 
L 504.858179 -51.442867 
L 502.728886 -51.871958 
L 500.599593 -52.352174 
L 498.4703 -52.888474 
L 496.341007 -53.48614 
L 494.211714 -54.150785 
L 492.082421 -54.888347 
L 489.953128 -55.705086 
L 487.823835 -56.607572 
L 485.694542 -57.60268 
L 483.565249 -58.697564 
L 481.435956 -59.899642 
L 479.306663 -61.216568 
L 477.17737 -62.656199 
L 475.048077 -64.226558 
L 472.918784 -65.935794 
L 470.789491 -67.792133 
L 468.660198 -69.803823 
L 466.530905 -71.979075 
L 464.401612 -74.326 
L 462.272319 -76.852539 
L 460.143026 -79.566388 
L 458.013734 -82.474919 
L 455.884441 -85.585096 
L 453.755148 -88.903392 
L 451.625855 -92.435697 
L 449.496562 -96.187228 
L 447.367269 -100.162442 
L 445.237976 -104.364939 
L 443.108683 -108.797375 
L 440.97939 -113.461377 
L 438.850097 -118.357455 
L 436.720804 -123.484926 
L 434.591511 -128.84184 
L 432.462218 -134.424919 
L 430.332925 -140.229493 
L 428.203632 -146.249464 
L 426.074339 -152.477262 
L 423.945046 -158.903827 
L 421.815753 -165.518602 
L 419.68646 -172.309533 
L 417.557167 -179.263094 
L 415.427874 -186.364321 
L 413.298581 -193.596866 
L 411.169288 -200.943064 
L 409.039995 -208.384021 
L 406.910702 -215.899713 
L 404.781409 -223.469105 
L 402.652117 -231.070284 
L 400.522824 -238.680604 
L 398.393531 -246.276849 
L 396.264238 -253.8354 
L 394.134945 -261.332423 
L 392.005652 -268.744052 
L 389.876359 -276.046591 
L 387.747066 -283.21671 
L 385.617773 -290.231652 
L 383.48848 -297.069427 
L 381.359187 -303.709018 
L 379.229894 -310.130566 
L 377.100601 -316.31556 
L 374.971308 -322.247006 
L 372.842015 -327.909589 
L 370.712722 -333.289817 
L 368.583429 -338.376145 
L 366.454136 -343.159086 
L 364.324843 -347.631293 
L 362.19555 -351.78762 
L 360.066257 -355.625162 
L 357.936964 -359.143269 
L 355.807671 -362.343529 
L 353.678378 -365.22973 
L 351.549085 -367.807798 
L 349.419792 -370.085702 
L 347.2905 -372.073344 
L 345.161207 -373.78242 
L 343.031914 -375.226257 
L 340.902621 -376.419639 
L 338.773328 -377.378607 
L 336.644035 -378.120251 
L 334.514742 -378.66248 
L 332.385449 -379.023792 
L 330.256156 -379.223037 
L 328.126863 -379.279167 
L 325.99757 -379.210996 
L 323.868277 -379.036961 
L 321.738984 -378.774886 
L 319.609691 -378.441754 
L 317.480398 -378.053503 
L 315.351105 -377.62482 
L 313.221812 -377.168966 
L 311.092519 -376.697614 
L 308.963226 -376.220715 
L 306.833933 -375.74638 
L 304.70464 -375.280793 
L 302.575347 -374.828149 
L 300.446054 -374.390617 
L 298.316761 -373.968333 
L 296.187468 -373.559417 
L 294.058175 -373.160018 
L 291.928883 -372.764385 
L 289.79959 -372.364962 
L 287.670297 -371.952505 
L 285.541004 -371.516223 
L 283.411711 -371.043936 
L 281.282418 -370.522251 
L 279.153125 -369.93675 
L 277.023832 -369.272194 
L 274.894539 -368.512733 
L 272.765246 -367.642122 
L 270.635953 -366.643944 
L 268.50666 -365.501829 
L 266.377367 -364.199673 
L 264.248074 -362.721854 
L 262.118781 -361.053435 
L 259.989488 -359.180361 
L 257.860195 -357.089646 
L 255.730902 -354.769539 
L 253.601609 -352.209679 
L 251.472316 -349.40123 
L 249.343023 -346.336998 
L 247.21373 -343.011529 
L 245.084437 -339.421178 
L 242.955144 -335.564174 
L 240.825851 -331.440641 
L 238.696558 -327.052617 
L 236.567266 -322.40404 
L 234.437973 -317.500718 
L 232.30868 -312.35028 
L 230.179387 -306.962104 
L 228.050094 -301.347233 
L 225.920801 -295.518269 
L 223.791508 -289.48926 
L 221.662215 -283.275569 
L 219.532922 -276.893731 
L 217.403629 -270.361306 
L 215.274336 -263.696724 
L 213.145043 -256.919118 
L 211.01575 -250.048166 
L 208.886457 -243.10392 
L 206.757164 -236.106645 
L 204.627871 -229.076653 
L 202.498578 -222.034149 
L 200.369285 -214.999074 
L 198.239992 -207.990965 
L 196.110699 -201.028814 
L 193.981406 -194.130947 
L 191.852113 -187.314901 
L 189.72282 -180.597326 
L 187.593527 -173.993893 
L 185.464234 -167.519208 
L 183.334941 -161.186755 
L 181.205648 -155.008837 
L 179.076356 -148.996536 
L 176.947063 -143.159689 
L 174.81777 -137.506873 
L 172.688477 -132.045398 
L 170.559184 -126.781322 
L 168.429891 -121.719465 
L 166.300598 -116.863444 
L 164.171305 -112.215707 
L 162.042012 -107.777583 
L 159.912719 -103.549332 
L 157.783426 -99.53021 
L 155.654133 -95.718532 
L 153.52484 -92.111739 
L 151.395547 -88.706474 
L 149.266254 -85.498655 
L 147.136961 -82.48355 
L 145.007668 -79.655857 
L 142.878375 -77.009772 
L 140.749082 -74.539073 
L 138.619789 -72.237186 
L 136.490496 -70.097256 
L 134.361203 -68.112216 
L 132.23191 -66.27485 
L 130.102617 -64.57785 
L 127.973324 -63.013876 
L 125.844031 -61.575602 
L 123.714739 -60.255765 
L 121.585446 -59.047209 
L 119.456153 -57.942916 
L 117.32686 -56.936046 
L 115.197567 -56.019959 
L 113.068274 -55.188243 
L 110.938981 -54.43473 
L 108.809688 -53.753514 
L 106.680395 -53.138963 
L 104.551102 -52.585723 
L 102.421809 -52.08873 
L 100.292516 -51.643206 
L 98.163223 -51.244662 
L 96.03393 -50.888893 
L 93.904637 -50.571977 
L 91.775344 -50.290261 
L 89.646051 -50.040362 
z
" style="stroke: #e74c3c"/>
    </defs>
    <g clip-path="url(#p0669280be7)">
     <use xlink:href="#mae0dcb81d1" x="0" y="420.48" style="fill: #e74c3c; fill-opacity: 0.3; stroke: #e74c3c"/>
    </g>
   </g>
   <g id="patch_3">
    <path d="M 60.520625 372.1675 
L 60.520625 24.6525 
" style="fill: none; stroke: #cccccc; stroke-width: 1.5; stroke-linejoin: miter; stroke-linecap: square"/>
   </g>
   <g id="patch_4">
    <path d="M 60.520625 372.1675 
L 701.28 372.1675 
" style="fill: none; stroke: #cccccc; stroke-width: 1.5; stroke-linejoin: miter; stroke-linecap: square"/>
   </g>
   <g id="text_20">
    <!-- Distribution of Absolute Errors -->
    <g style="fill: #262626" transform="translate(275.080312 18.6525) scale(0.16 -0.16)">
     <defs>
      <path id="ArialMT-62" d="M 941 0 
L 419 0 
L 419 4581 
L 981 4581 
L 981 2947 
Q 1338 3394 1891 3394 
Q 2197 3394 2470 3270 
Q 2744 3147 2920 2923 
Q 3097 2700 3197 2384 
Q 3297 2069 3297 1709 
Q 3297 856 2875 390 
Q 2453 -75 1863 -75 
Q 1275 -75 941 416 
L 941 0 
z
M 934 1684 
Q 934 1088 1097 822 
Q 1363 388 1816 388 
Q 2184 388 2453 708 
Q 2722 1028 2722 1663 
Q 2722 2313 2464 2622 
Q 2206 2931 1841 2931 
Q 1472 2931 1203 2611 
Q 934 2291 934 1684 
z
" transform="scale(0.015625)"/>
      <path id="ArialMT-75" d="M 2597 0 
L 2597 488 
Q 2209 -75 1544 -75 
Q 1250 -75 995 37 
Q 741 150 617 320 
Q 494 491 444 738 
Q 409 903 409 1263 
L 409 3319 
L 972 3319 
L 972 1478 
Q 972 1038 1006 884 
Q 1059 663 1231 536 
Q 1403 409 1656 409 
Q 1909 409 2131 539 
Q 2353 669 2445 892 
Q 2538 1116 2538 1541 
L 2538 3319 
L 3100 3319 
L 3100 0 
L 2597 0 
z
" transform="scale(0.015625)"/>
      <path id="ArialMT-66" d="M 556 0 
L 556 2881 
L 59 2881 
L 59 3319 
L 556 3319 
L 556 3672 
Q 556 4006 616 4169 
Q 697 4388 901 4523 
Q 1106 4659 1475 4659 
Q 1713 4659 2000 4603 
L 1916 4113 
Q 1741 4144 1584 4144 
Q 1328 4144 1222 4034 
Q 1116 3925 1116 3625 
L 1116 3319 
L 1763 3319 
L 1763 2881 
L 1116 2881 
L 1116 0 
L 556 0 
z
" transform="scale(0.015625)"/>
      <path id="ArialMT-41" d="M -9 0 
L 1750 4581 
L 2403 4581 
L 4278 0 
L 3588 0 
L 3053 1388 
L 1138 1388 
L 634 0 
L -9 0 
z
M 1313 1881 
L 2866 1881 
L 2388 3150 
Q 2169 3728 2063 4100 
Q 1975 3659 1816 3225 
L 1313 1881 
z
" transform="scale(0.015625)"/>
      <path id="ArialMT-6c" d="M 409 0 
L 409 4581 
L 972 4581 
L 972 0 
L 409 0 
z
" transform="scale(0.015625)"/>
     </defs>
     <use xlink:href="#ArialMT-44"/>
     <use xlink:href="#ArialMT-69" x="72.216797"/>
     <use xlink:href="#ArialMT-73" x="94.433594"/>
     <use xlink:href="#ArialMT-74" x="144.433594"/>
     <use xlink:href="#ArialMT-72" x="172.216797"/>
     <use xlink:href="#ArialMT-69" x="205.517578"/>
     <use xlink:href="#ArialMT-62" x="227.734375"/>
     <use xlink:href="#ArialMT-75" x="283.349609"/>
     <use xlink:href="#ArialMT-74" x="338.964844"/>
     <use xlink:href="#ArialMT-69" x="366.748047"/>
     <use xlink:href="#ArialMT-6f" x="388.964844"/>
     <use xlink:href="#ArialMT-6e" x="444.580078"/>
     <use xlink:href="#ArialMT-20" x="500.195312"/>
     <use xlink:href="#ArialMT-6f" x="527.978516"/>
     <use xlink:href="#ArialMT-66" x="583.59375"/>
     <use xlink:href="#ArialMT-20" x="611.376953"/>
     <use xlink:href="#ArialMT-41" x="633.660156"/>
     <use xlink:href="#ArialMT-62" x="700.359375"/>
     <use xlink:href="#ArialMT-73" x="755.974609"/>
     <use xlink:href="#ArialMT-6f" x="805.974609"/>
     <use xlink:href="#ArialMT-6c" x="861.589844"/>
     <use xlink:href="#ArialMT-75" x="883.806641"/>
     <use xlink:href="#ArialMT-74" x="939.421875"/>
     <use xlink:href="#ArialMT-65" x="967.205078"/>
     <use xlink:href="#ArialMT-20" x="1022.820312"/>
     <use xlink:href="#ArialMT-45" x="1050.603516"/>
     <use xlink:href="#ArialMT-72" x="1117.302734"/>
     <use xlink:href="#ArialMT-72" x="1150.603516"/>
     <use xlink:href="#ArialMT-6f" x="1183.904297"/>
     <use xlink:href="#ArialMT-72" x="1239.519531"/>
     <use xlink:href="#ArialMT-73" x="1272.820312"/>
    </g>
   </g>
   <g id="legend_1">
    <g id="patch_5">
     <path d="M 497.20125 68.775 
L 692.88 68.775 
Q 695.28 68.775 695.28 66.375 
L 695.28 33.0525 
Q 695.28 30.6525 692.88 30.6525 
L 497.20125 30.6525 
Q 494.80125 30.6525 494.80125 33.0525 
L 494.80125 66.375 
Q 494.80125 68.775 497.20125 68.775 
z
" style="fill: #ffffff; opacity: 0.8; stroke: #cccccc; stroke-linejoin: miter"/>
    </g>
    <g id="patch_6">
     <path d="M 499.60125 44.188125 
L 523.60125 44.188125 
L 523.60125 35.788125 
L 499.60125 35.788125 
z
" style="fill: #2ecc71; fill-opacity: 0.3; stroke: #2ecc71; stroke-linejoin: miter"/>
    </g>
    <g id="text_21">
     <!-- Training (μ=1.97%, σ=1.13%) -->
     <g style="fill: #262626" transform="translate(533.20125 44.188125) scale(0.12 -0.12)">
      <defs>
       <path id="ArialMT-54" d="M 1659 0 
L 1659 4041 
L 150 4041 
L 150 4581 
L 3781 4581 
L 3781 4041 
L 2266 4041 
L 2266 0 
L 1659 0 
z
" transform="scale(0.015625)"/>
       <path id="ArialMT-61" d="M 2588 409 
Q 2275 144 1986 34 
Q 1697 -75 1366 -75 
Q 819 -75 525 192 
Q 231 459 231 875 
Q 231 1119 342 1320 
Q 453 1522 633 1644 
Q 813 1766 1038 1828 
Q 1203 1872 1538 1913 
Q 2219 1994 2541 2106 
Q 2544 2222 2544 2253 
Q 2544 2597 2384 2738 
Q 2169 2928 1744 2928 
Q 1347 2928 1158 2789 
Q 969 2650 878 2297 
L 328 2372 
Q 403 2725 575 2942 
Q 747 3159 1072 3276 
Q 1397 3394 1825 3394 
Q 2250 3394 2515 3294 
Q 2781 3194 2906 3042 
Q 3031 2891 3081 2659 
Q 3109 2516 3109 2141 
L 3109 1391 
Q 3109 606 3145 398 
Q 3181 191 3288 0 
L 2700 0 
Q 2613 175 2588 409 
z
M 2541 1666 
Q 2234 1541 1622 1453 
Q 1275 1403 1131 1340 
Q 988 1278 909 1158 
Q 831 1038 831 891 
Q 831 666 1001 516 
Q 1172 366 1500 366 
Q 1825 366 2078 508 
Q 2331 650 2450 897 
Q 2541 1088 2541 1459 
L 2541 1666 
z
" transform="scale(0.015625)"/>
       <path id="ArialMT-67" d="M 319 -275 
L 866 -356 
Q 900 -609 1056 -725 
Q 1266 -881 1628 -881 
Q 2019 -881 2231 -725 
Q 2444 -569 2519 -288 
Q 2563 -116 2559 434 
Q 2191 0 1641 0 
Q 956 0 581 494 
Q 206 988 206 1678 
Q 206 2153 378 2554 
Q 550 2956 876 3175 
Q 1203 3394 1644 3394 
Q 2231 3394 2613 2919 
L 2613 3319 
L 3131 3319 
L 3131 450 
Q 3131 -325 2973 -648 
Q 2816 -972 2473 -1159 
Q 2131 -1347 1631 -1347 
Q 1038 -1347 672 -1080 
Q 306 -813 319 -275 
z
M 784 1719 
Q 784 1066 1043 766 
Q 1303 466 1694 466 
Q 2081 466 2343 764 
Q 2606 1063 2606 1700 
Q 2606 2309 2336 2618 
Q 2066 2928 1684 2928 
Q 1309 2928 1046 2623 
Q 784 2319 784 1719 
z
" transform="scale(0.015625)"/>
       <path id="ArialMT-3bc" d="M 3181 3319 
L 3181 0 
L 2678 0 
L 2678 394 
Q 2516 144 2356 50 
Q 2138 -78 1847 -78 
Q 1588 -78 1388 25 
Q 1238 103 1056 334 
L 1056 -1272 
L 500 -1272 
L 500 3319 
L 1056 3319 
L 1056 1913 
Q 1056 1147 1137 920 
Q 1219 694 1401 562 
Q 1584 431 1822 431 
Q 2072 431 2269 568 
Q 2466 706 2547 923 
Q 2628 1141 2628 1903 
L 2628 3319 
L 3181 3319 
z
" transform="scale(0.015625)"/>
       <path id="ArialMT-3d" d="M 3381 2694 
L 356 2694 
L 356 3219 
L 3381 3219 
L 3381 2694 
z
M 3381 1303 
L 356 1303 
L 356 1828 
L 3381 1828 
L 3381 1303 
z
" transform="scale(0.015625)"/>
       <path id="ArialMT-39" d="M 350 1059 
L 891 1109 
Q 959 728 1153 556 
Q 1347 384 1650 384 
Q 1909 384 2104 503 
Q 2300 622 2425 820 
Q 2550 1019 2634 1356 
Q 2719 1694 2719 2044 
Q 2719 2081 2716 2156 
Q 2547 1888 2255 1720 
Q 1963 1553 1622 1553 
Q 1053 1553 659 1965 
Q 266 2378 266 3053 
Q 266 3750 677 4175 
Q 1088 4600 1706 4600 
Q 2153 4600 2523 4359 
Q 2894 4119 3086 3673 
Q 3278 3228 3278 2384 
Q 3278 1506 3087 986 
Q 2897 466 2520 194 
Q 2144 -78 1638 -78 
Q 1100 -78 759 220 
Q 419 519 350 1059 
z
M 2653 3081 
Q 2653 3566 2395 3850 
Q 2138 4134 1775 4134 
Q 1400 4134 1122 3828 
Q 844 3522 844 3034 
Q 844 2597 1108 2323 
Q 1372 2050 1759 2050 
Q 2150 2050 2401 2323 
Q 2653 2597 2653 3081 
z
" transform="scale(0.015625)"/>
       <path id="ArialMT-37" d="M 303 3981 
L 303 4522 
L 3269 4522 
L 3269 4084 
Q 2831 3619 2401 2847 
Q 1972 2075 1738 1259 
Q 1569 684 1522 0 
L 944 0 
Q 953 541 1156 1306 
Q 1359 2072 1739 2783 
Q 2119 3494 2547 3981 
L 303 3981 
z
" transform="scale(0.015625)"/>
       <path id="ArialMT-2c" d="M 569 0 
L 569 641 
L 1209 641 
L 1209 0 
Q 1209 -353 1084 -570 
Q 959 -788 688 -906 
L 531 -666 
Q 709 -588 793 -436 
Q 878 -284 888 0 
L 569 0 
z
" transform="scale(0.015625)"/>
       <path id="ArialMT-3c3" d="M 3809 3319 
L 3809 2863 
L 2906 2863 
Q 3322 2475 3322 1656 
Q 3322 766 2867 345 
Q 2413 -75 1763 -75 
Q 1088 -75 650 362 
Q 213 800 213 1659 
Q 213 2544 667 2969 
Q 1122 3394 1763 3394 
Q 1997 3394 2294 3319 
L 3809 3319 
z
M 1753 2928 
Q 1344 2928 1067 2609 
Q 791 2291 791 1656 
Q 791 1025 1061 706 
Q 1331 388 1763 388 
Q 2216 388 2483 720 
Q 2750 1053 2750 1659 
Q 2750 2213 2504 2570 
Q 2259 2928 1753 2928 
z
" transform="scale(0.015625)"/>
      </defs>
      <use xlink:href="#ArialMT-54"/>
      <use xlink:href="#ArialMT-72" x="57.333984"/>
      <use xlink:href="#ArialMT-61" x="90.634766"/>
      <use xlink:href="#ArialMT-69" x="146.25"/>
      <use xlink:href="#ArialMT-6e" x="168.466797"/>
      <use xlink:href="#ArialMT-69" x="224.082031"/>
      <use xlink:href="#ArialMT-6e" x="246.298828"/>
      <use xlink:href="#ArialMT-67" x="301.914062"/>
      <use xlink:href="#ArialMT-20" x="357.529297"/>
      <use xlink:href="#ArialMT-28" x="385.3125"/>
      <use xlink:href="#ArialMT-3bc" x="418.613281"/>
      <use xlink:href="#ArialMT-3d" x="476.230469"/>
      <use xlink:href="#ArialMT-31" x="534.628906"/>
      <use xlink:href="#ArialMT-2e" x="590.244141"/>
      <use xlink:href="#ArialMT-39" x="618.027344"/>
      <use xlink:href="#ArialMT-37" x="673.642578"/>
      <use xlink:href="#ArialMT-25" x="729.257812"/>
      <use xlink:href="#ArialMT-2c" x="818.173828"/>
      <use xlink:href="#ArialMT-20" x="845.957031"/>
      <use xlink:href="#ArialMT-3c3" x="873.740234"/>
      <use xlink:href="#ArialMT-3d" x="935.458984"/>
      <use xlink:href="#ArialMT-31" x="993.857422"/>
      <use xlink:href="#ArialMT-2e" x="1049.472656"/>
      <use xlink:href="#ArialMT-31" x="1077.255859"/>
      <use xlink:href="#ArialMT-33" x="1132.871094"/>
      <use xlink:href="#ArialMT-25" x="1188.486328"/>
      <use xlink:href="#ArialMT-29" x="1277.402344"/>
     </g>
    </g>
    <g id="patch_7">
     <path d="M 499.60125 61.449375 
L 523.60125 61.449375 
L 523.60125 53.049375 
L 499.60125 53.049375 
z
" style="fill: #e74c3c; fill-opacity: 0.3; stroke: #e74c3c; stroke-linejoin: miter"/>
    </g>
    <g id="text_22">
     <!-- Testing (μ=1.10%, σ=0.81%) -->
     <g style="fill: #262626" transform="translate(533.20125 61.449375) scale(0.12 -0.12)">
      <defs>
       <path id="ArialMT-38" d="M 1131 2484 
Q 781 2613 612 2850 
Q 444 3088 444 3419 
Q 444 3919 803 4259 
Q 1163 4600 1759 4600 
Q 2359 4600 2725 4251 
Q 3091 3903 3091 3403 
Q 3091 3084 2923 2848 
Q 2756 2613 2416 2484 
Q 2838 2347 3058 2040 
Q 3278 1734 3278 1309 
Q 3278 722 2862 322 
Q 2447 -78 1769 -78 
Q 1091 -78 675 323 
Q 259 725 259 1325 
Q 259 1772 486 2073 
Q 713 2375 1131 2484 
z
M 1019 3438 
Q 1019 3113 1228 2906 
Q 1438 2700 1772 2700 
Q 2097 2700 2305 2904 
Q 2513 3109 2513 3406 
Q 2513 3716 2298 3927 
Q 2084 4138 1766 4138 
Q 1444 4138 1231 3931 
Q 1019 3725 1019 3438 
z
M 838 1322 
Q 838 1081 952 856 
Q 1066 631 1291 507 
Q 1516 384 1775 384 
Q 2178 384 2440 643 
Q 2703 903 2703 1303 
Q 2703 1709 2433 1975 
Q 2163 2241 1756 2241 
Q 1359 2241 1098 1978 
Q 838 1716 838 1322 
z
" transform="scale(0.015625)"/>
      </defs>
      <use xlink:href="#ArialMT-54"/>
      <use xlink:href="#ArialMT-65" x="49.958984"/>
      <use xlink:href="#ArialMT-73" x="105.574219"/>
      <use xlink:href="#ArialMT-74" x="155.574219"/>
      <use xlink:href="#ArialMT-69" x="183.357422"/>
      <use xlink:href="#ArialMT-6e" x="205.574219"/>
      <use xlink:href="#ArialMT-67" x="261.189453"/>
      <use xlink:href="#ArialMT-20" x="316.804688"/>
      <use xlink:href="#ArialMT-28" x="344.587891"/>
      <use xlink:href="#ArialMT-3bc" x="377.888672"/>
      <use xlink:href="#ArialMT-3d" x="435.505859"/>
      <use xlink:href="#ArialMT-31" x="493.904297"/>
      <use xlink:href="#ArialMT-2e" x="549.519531"/>
      <use xlink:href="#ArialMT-31" x="577.302734"/>
      <use xlink:href="#ArialMT-30" x="632.917969"/>
      <use xlink:href="#ArialMT-25" x="688.533203"/>
      <use xlink:href="#ArialMT-2c" x="777.449219"/>
      <use xlink:href="#ArialMT-20" x="805.232422"/>
      <use xlink:href="#ArialMT-3c3" x="833.015625"/>
      <use xlink:href="#ArialMT-3d" x="894.734375"/>
      <use xlink:href="#ArialMT-30" x="953.132812"/>
      <use xlink:href="#ArialMT-2e" x="1008.748047"/>
      <use xlink:href="#ArialMT-38" x="1036.53125"/>
      <use xlink:href="#ArialMT-31" x="1092.146484"/>
      <use xlink:href="#ArialMT-25" x="1147.761719"/>
      <use xlink:href="#ArialMT-29" x="1236.677734"/>
     </g>
    </g>
   </g>
  </g>
 </g>
 <defs>
  <clipPath id="p0669280be7">
   <rect x="60.520625" y="24.6525" width="640.759375" height="347.515"/>
  </clipPath>
 </defs>
</svg>
