<?xml version="1.0" encoding="utf-8" standalone="no"?>
<!DOCTYPE svg PUBLIC "-//W3C//DTD SVG 1.1//EN"
  "http://www.w3.org/Graphics/SVG/1.1/DTD/svg11.dtd">
<svg xmlns:xlink="http://www.w3.org/1999/xlink" width="852.405pt" height="851.6385pt" viewBox="0 0 852.405 851.6385" xmlns="http://www.w3.org/2000/svg" version="1.1">
 <metadata>
  <rdf:RDF xmlns:dc="http://purl.org/dc/elements/1.1/" xmlns:cc="http://creativecommons.org/ns#" xmlns:rdf="http://www.w3.org/1999/02/22-rdf-syntax-ns#">
   <cc:Work>
    <dc:type rdf:resource="http://purl.org/dc/dcmitype/StillImage"/>
    <dc:date>2025-01-07T20:27:20.454585</dc:date>
    <dc:format>image/svg+xml</dc:format>
    <dc:creator>
     <cc:Agent>
      <dc:title>Matplotlib v3.9.3, https://matplotlib.org/</dc:title>
     </cc:Agent>
    </dc:creator>
   </cc:Work>
  </rdf:RDF>
 </metadata>
 <defs>
  <style type="text/css">*{stroke-linejoin: round; stroke-linecap: butt}</style>
 </defs>
 <g id="figure_1">
  <g id="patch_1">
   <path d="M 0 851.6385 
L 852.405 851.6385 
L 852.405 0 
L 0 0 
z
" style="fill: #ffffff"/>
  </g>
  <g id="axes_1">
   <g id="patch_2">
    <path d="M 121.065 800.826 
L 845.205 800.826 
L 845.205 55.958 
L 121.065 55.958 
z
" style="fill: #ffffff"/>
   </g>
   <g id="matplotlib.axis_1">
    <g id="xtick_1">
     <g id="line2d_1">
      <path d="M 121.065 800.826 
L 121.065 55.958 
" clip-path="url(#pbdd9ed70b7)" style="fill: none; stroke-dasharray: 1.85,0.8; stroke-dashoffset: 0; stroke: #cccccc; stroke-opacity: 0.3; stroke-width: 0.5"/>
     </g>
     <g id="text_1">
      <!-- 0 -->
      <g style="fill: #262626" transform="translate(117.728437 818.915375) scale(0.12 -0.12)">
       <defs>
        <path id="ArialMT-30" d="M 266 2259 
Q 266 3072 433 3567 
Q 600 4063 929 4331 
Q 1259 4600 1759 4600 
Q 2128 4600 2406 4451 
Q 2684 4303 2865 4023 
Q 3047 3744 3150 3342 
Q 3253 2941 3253 2259 
Q 3253 1453 3087 958 
Q 2922 463 2592 192 
Q 2263 -78 1759 -78 
Q 1097 -78 719 397 
Q 266 969 266 2259 
z
M 844 2259 
Q 844 1131 1108 757 
Q 1372 384 1759 384 
Q 2147 384 2411 759 
Q 2675 1134 2675 2259 
Q 2675 3391 2411 3762 
Q 2147 4134 1753 4134 
Q 1366 4134 1134 3806 
Q 844 3388 844 2259 
z
" transform="scale(0.015625)"/>
       </defs>
       <use xlink:href="#ArialMT-30"/>
      </g>
     </g>
    </g>
    <g id="xtick_2">
     <g id="line2d_2">
      <path d="M 242.636767 800.826 
L 242.636767 55.958 
" clip-path="url(#pbdd9ed70b7)" style="fill: none; stroke-dasharray: 1.85,0.8; stroke-dashoffset: 0; stroke: #cccccc; stroke-opacity: 0.3; stroke-width: 0.5"/>
     </g>
     <g id="text_2">
      <!-- 1 -->
      <g style="fill: #262626" transform="translate(239.300205 818.915375) scale(0.12 -0.12)">
       <defs>
        <path id="ArialMT-31" d="M 2384 0 
L 1822 0 
L 1822 3584 
Q 1619 3391 1289 3197 
Q 959 3003 697 2906 
L 697 3450 
Q 1169 3672 1522 3987 
Q 1875 4303 2022 4600 
L 2384 4600 
L 2384 0 
z
" transform="scale(0.015625)"/>
       </defs>
       <use xlink:href="#ArialMT-31"/>
      </g>
     </g>
    </g>
    <g id="xtick_3">
     <g id="line2d_3">
      <path d="M 364.208535 800.826 
L 364.208535 55.958 
" clip-path="url(#pbdd9ed70b7)" style="fill: none; stroke-dasharray: 1.85,0.8; stroke-dashoffset: 0; stroke: #cccccc; stroke-opacity: 0.3; stroke-width: 0.5"/>
     </g>
     <g id="text_3">
      <!-- 2 -->
      <g style="fill: #262626" transform="translate(360.871972 818.915375) scale(0.12 -0.12)">
       <defs>
        <path id="ArialMT-32" d="M 3222 541 
L 3222 0 
L 194 0 
Q 188 203 259 391 
Q 375 700 629 1000 
Q 884 1300 1366 1694 
Q 2113 2306 2375 2664 
Q 2638 3022 2638 3341 
Q 2638 3675 2398 3904 
Q 2159 4134 1775 4134 
Q 1369 4134 1125 3890 
Q 881 3647 878 3216 
L 300 3275 
Q 359 3922 746 4261 
Q 1134 4600 1788 4600 
Q 2447 4600 2831 4234 
Q 3216 3869 3216 3328 
Q 3216 3053 3103 2787 
Q 2991 2522 2730 2228 
Q 2469 1934 1863 1422 
Q 1356 997 1212 845 
Q 1069 694 975 541 
L 3222 541 
z
" transform="scale(0.015625)"/>
       </defs>
       <use xlink:href="#ArialMT-32"/>
      </g>
     </g>
    </g>
    <g id="xtick_4">
     <g id="line2d_4">
      <path d="M 485.780302 800.826 
L 485.780302 55.958 
" clip-path="url(#pbdd9ed70b7)" style="fill: none; stroke-dasharray: 1.85,0.8; stroke-dashoffset: 0; stroke: #cccccc; stroke-opacity: 0.3; stroke-width: 0.5"/>
     </g>
     <g id="text_4">
      <!-- 3 -->
      <g style="fill: #262626" transform="translate(482.44374 818.915375) scale(0.12 -0.12)">
       <defs>
        <path id="ArialMT-33" d="M 269 1209 
L 831 1284 
Q 928 806 1161 595 
Q 1394 384 1728 384 
Q 2125 384 2398 659 
Q 2672 934 2672 1341 
Q 2672 1728 2419 1979 
Q 2166 2231 1775 2231 
Q 1616 2231 1378 2169 
L 1441 2663 
Q 1497 2656 1531 2656 
Q 1891 2656 2178 2843 
Q 2466 3031 2466 3422 
Q 2466 3731 2256 3934 
Q 2047 4138 1716 4138 
Q 1388 4138 1169 3931 
Q 950 3725 888 3313 
L 325 3413 
Q 428 3978 793 4289 
Q 1159 4600 1703 4600 
Q 2078 4600 2393 4439 
Q 2709 4278 2876 4000 
Q 3044 3722 3044 3409 
Q 3044 3113 2884 2869 
Q 2725 2625 2413 2481 
Q 2819 2388 3044 2092 
Q 3269 1797 3269 1353 
Q 3269 753 2831 336 
Q 2394 -81 1725 -81 
Q 1122 -81 723 278 
Q 325 638 269 1209 
z
" transform="scale(0.015625)"/>
       </defs>
       <use xlink:href="#ArialMT-33"/>
      </g>
     </g>
    </g>
    <g id="xtick_5">
     <g id="line2d_5">
      <path d="M 607.35207 800.826 
L 607.35207 55.958 
" clip-path="url(#pbdd9ed70b7)" style="fill: none; stroke-dasharray: 1.85,0.8; stroke-dashoffset: 0; stroke: #cccccc; stroke-opacity: 0.3; stroke-width: 0.5"/>
     </g>
     <g id="text_5">
      <!-- 4 -->
      <g style="fill: #262626" transform="translate(604.015507 818.915375) scale(0.12 -0.12)">
       <defs>
        <path id="ArialMT-34" d="M 2069 0 
L 2069 1097 
L 81 1097 
L 81 1613 
L 2172 4581 
L 2631 4581 
L 2631 1613 
L 3250 1613 
L 3250 1097 
L 2631 1097 
L 2631 0 
L 2069 0 
z
M 2069 1613 
L 2069 3678 
L 634 1613 
L 2069 1613 
z
" transform="scale(0.015625)"/>
       </defs>
       <use xlink:href="#ArialMT-34"/>
      </g>
     </g>
    </g>
    <g id="xtick_6">
     <g id="line2d_6">
      <path d="M 728.923837 800.826 
L 728.923837 55.958 
" clip-path="url(#pbdd9ed70b7)" style="fill: none; stroke-dasharray: 1.85,0.8; stroke-dashoffset: 0; stroke: #cccccc; stroke-opacity: 0.3; stroke-width: 0.5"/>
     </g>
     <g id="text_6">
      <!-- 5 -->
      <g style="fill: #262626" transform="translate(725.587275 818.915375) scale(0.12 -0.12)">
       <defs>
        <path id="ArialMT-35" d="M 266 1200 
L 856 1250 
Q 922 819 1161 601 
Q 1400 384 1738 384 
Q 2144 384 2425 690 
Q 2706 997 2706 1503 
Q 2706 1984 2436 2262 
Q 2166 2541 1728 2541 
Q 1456 2541 1237 2417 
Q 1019 2294 894 2097 
L 366 2166 
L 809 4519 
L 3088 4519 
L 3088 3981 
L 1259 3981 
L 1013 2750 
Q 1425 3038 1878 3038 
Q 2478 3038 2890 2622 
Q 3303 2206 3303 1553 
Q 3303 931 2941 478 
Q 2500 -78 1738 -78 
Q 1113 -78 717 272 
Q 322 622 266 1200 
z
" transform="scale(0.015625)"/>
       </defs>
       <use xlink:href="#ArialMT-35"/>
      </g>
     </g>
    </g>
    <g id="text_7">
     <!-- Predicted PCE (%) -->
     <g style="fill: #262626" transform="translate(424.395156 841.491937) scale(0.14 -0.14)">
      <defs>
       <path id="ArialMT-50" d="M 494 0 
L 494 4581 
L 2222 4581 
Q 2678 4581 2919 4538 
Q 3256 4481 3484 4323 
Q 3713 4166 3852 3881 
Q 3991 3597 3991 3256 
Q 3991 2672 3619 2267 
Q 3247 1863 2275 1863 
L 1100 1863 
L 1100 0 
L 494 0 
z
M 1100 2403 
L 2284 2403 
Q 2872 2403 3119 2622 
Q 3366 2841 3366 3238 
Q 3366 3525 3220 3729 
Q 3075 3934 2838 4000 
Q 2684 4041 2272 4041 
L 1100 4041 
L 1100 2403 
z
" transform="scale(0.015625)"/>
       <path id="ArialMT-72" d="M 416 0 
L 416 3319 
L 922 3319 
L 922 2816 
Q 1116 3169 1280 3281 
Q 1444 3394 1641 3394 
Q 1925 3394 2219 3213 
L 2025 2691 
Q 1819 2813 1613 2813 
Q 1428 2813 1281 2702 
Q 1134 2591 1072 2394 
Q 978 2094 978 1738 
L 978 0 
L 416 0 
z
" transform="scale(0.015625)"/>
       <path id="ArialMT-65" d="M 2694 1069 
L 3275 997 
Q 3138 488 2766 206 
Q 2394 -75 1816 -75 
Q 1088 -75 661 373 
Q 234 822 234 1631 
Q 234 2469 665 2931 
Q 1097 3394 1784 3394 
Q 2450 3394 2872 2941 
Q 3294 2488 3294 1666 
Q 3294 1616 3291 1516 
L 816 1516 
Q 847 969 1125 678 
Q 1403 388 1819 388 
Q 2128 388 2347 550 
Q 2566 713 2694 1069 
z
M 847 1978 
L 2700 1978 
Q 2663 2397 2488 2606 
Q 2219 2931 1791 2931 
Q 1403 2931 1139 2672 
Q 875 2413 847 1978 
z
" transform="scale(0.015625)"/>
       <path id="ArialMT-64" d="M 2575 0 
L 2575 419 
Q 2259 -75 1647 -75 
Q 1250 -75 917 144 
Q 584 363 401 755 
Q 219 1147 219 1656 
Q 219 2153 384 2558 
Q 550 2963 881 3178 
Q 1213 3394 1622 3394 
Q 1922 3394 2156 3267 
Q 2391 3141 2538 2938 
L 2538 4581 
L 3097 4581 
L 3097 0 
L 2575 0 
z
M 797 1656 
Q 797 1019 1065 703 
Q 1334 388 1700 388 
Q 2069 388 2326 689 
Q 2584 991 2584 1609 
Q 2584 2291 2321 2609 
Q 2059 2928 1675 2928 
Q 1300 2928 1048 2622 
Q 797 2316 797 1656 
z
" transform="scale(0.015625)"/>
       <path id="ArialMT-69" d="M 425 3934 
L 425 4581 
L 988 4581 
L 988 3934 
L 425 3934 
z
M 425 0 
L 425 3319 
L 988 3319 
L 988 0 
L 425 0 
z
" transform="scale(0.015625)"/>
       <path id="ArialMT-63" d="M 2588 1216 
L 3141 1144 
Q 3050 572 2676 248 
Q 2303 -75 1759 -75 
Q 1078 -75 664 370 
Q 250 816 250 1647 
Q 250 2184 428 2587 
Q 606 2991 970 3192 
Q 1334 3394 1763 3394 
Q 2303 3394 2647 3120 
Q 2991 2847 3088 2344 
L 2541 2259 
Q 2463 2594 2264 2762 
Q 2066 2931 1784 2931 
Q 1359 2931 1093 2626 
Q 828 2322 828 1663 
Q 828 994 1084 691 
Q 1341 388 1753 388 
Q 2084 388 2306 591 
Q 2528 794 2588 1216 
z
" transform="scale(0.015625)"/>
       <path id="ArialMT-74" d="M 1650 503 
L 1731 6 
Q 1494 -44 1306 -44 
Q 1000 -44 831 53 
Q 663 150 594 308 
Q 525 466 525 972 
L 525 2881 
L 113 2881 
L 113 3319 
L 525 3319 
L 525 4141 
L 1084 4478 
L 1084 3319 
L 1650 3319 
L 1650 2881 
L 1084 2881 
L 1084 941 
Q 1084 700 1114 631 
Q 1144 563 1211 522 
Q 1278 481 1403 481 
Q 1497 481 1650 503 
z
" transform="scale(0.015625)"/>
       <path id="ArialMT-20" transform="scale(0.015625)"/>
       <path id="ArialMT-43" d="M 3763 1606 
L 4369 1453 
Q 4178 706 3683 314 
Q 3188 -78 2472 -78 
Q 1731 -78 1267 223 
Q 803 525 561 1097 
Q 319 1669 319 2325 
Q 319 3041 592 3573 
Q 866 4106 1370 4382 
Q 1875 4659 2481 4659 
Q 3169 4659 3637 4309 
Q 4106 3959 4291 3325 
L 3694 3184 
Q 3534 3684 3231 3912 
Q 2928 4141 2469 4141 
Q 1941 4141 1586 3887 
Q 1231 3634 1087 3207 
Q 944 2781 944 2328 
Q 944 1744 1114 1308 
Q 1284 872 1643 656 
Q 2003 441 2422 441 
Q 2931 441 3284 734 
Q 3638 1028 3763 1606 
z
" transform="scale(0.015625)"/>
       <path id="ArialMT-45" d="M 506 0 
L 506 4581 
L 3819 4581 
L 3819 4041 
L 1113 4041 
L 1113 2638 
L 3647 2638 
L 3647 2100 
L 1113 2100 
L 1113 541 
L 3925 541 
L 3925 0 
L 506 0 
z
" transform="scale(0.015625)"/>
       <path id="ArialMT-28" d="M 1497 -1347 
Q 1031 -759 709 28 
Q 388 816 388 1659 
Q 388 2403 628 3084 
Q 909 3875 1497 4659 
L 1900 4659 
Q 1522 4009 1400 3731 
Q 1209 3300 1100 2831 
Q 966 2247 966 1656 
Q 966 153 1900 -1347 
L 1497 -1347 
z
" transform="scale(0.015625)"/>
       <path id="ArialMT-25" d="M 372 3481 
Q 372 3972 619 4315 
Q 866 4659 1334 4659 
Q 1766 4659 2048 4351 
Q 2331 4044 2331 3447 
Q 2331 2866 2045 2552 
Q 1759 2238 1341 2238 
Q 925 2238 648 2547 
Q 372 2856 372 3481 
z
M 1350 4272 
Q 1141 4272 1002 4090 
Q 863 3909 863 3425 
Q 863 2984 1003 2804 
Q 1144 2625 1350 2625 
Q 1563 2625 1702 2806 
Q 1841 2988 1841 3469 
Q 1841 3913 1700 4092 
Q 1559 4272 1350 4272 
z
M 1353 -169 
L 3859 4659 
L 4316 4659 
L 1819 -169 
L 1353 -169 
z
M 3334 1075 
Q 3334 1569 3581 1911 
Q 3828 2253 4300 2253 
Q 4731 2253 5014 1945 
Q 5297 1638 5297 1041 
Q 5297 459 5011 145 
Q 4725 -169 4303 -169 
Q 3888 -169 3611 142 
Q 3334 453 3334 1075 
z
M 4316 1866 
Q 4103 1866 3964 1684 
Q 3825 1503 3825 1019 
Q 3825 581 3965 400 
Q 4106 219 4313 219 
Q 4528 219 4667 400 
Q 4806 581 4806 1063 
Q 4806 1506 4665 1686 
Q 4525 1866 4316 1866 
z
" transform="scale(0.015625)"/>
       <path id="ArialMT-29" d="M 791 -1347 
L 388 -1347 
Q 1322 153 1322 1656 
Q 1322 2244 1188 2822 
Q 1081 3291 891 3722 
Q 769 4003 388 4659 
L 791 4659 
Q 1378 3875 1659 3084 
Q 1900 2403 1900 1659 
Q 1900 816 1576 28 
Q 1253 -759 791 -1347 
z
" transform="scale(0.015625)"/>
      </defs>
      <use xlink:href="#ArialMT-50"/>
      <use xlink:href="#ArialMT-72" x="66.699219"/>
      <use xlink:href="#ArialMT-65" x="100"/>
      <use xlink:href="#ArialMT-64" x="155.615234"/>
      <use xlink:href="#ArialMT-69" x="211.230469"/>
      <use xlink:href="#ArialMT-63" x="233.447266"/>
      <use xlink:href="#ArialMT-74" x="283.447266"/>
      <use xlink:href="#ArialMT-65" x="311.230469"/>
      <use xlink:href="#ArialMT-64" x="366.845703"/>
      <use xlink:href="#ArialMT-20" x="422.460938"/>
      <use xlink:href="#ArialMT-50" x="450.244141"/>
      <use xlink:href="#ArialMT-43" x="516.943359"/>
      <use xlink:href="#ArialMT-45" x="589.160156"/>
      <use xlink:href="#ArialMT-20" x="655.859375"/>
      <use xlink:href="#ArialMT-28" x="683.642578"/>
      <use xlink:href="#ArialMT-25" x="716.943359"/>
      <use xlink:href="#ArialMT-29" x="805.859375"/>
     </g>
    </g>
   </g>
   <g id="matplotlib.axis_2">
    <g id="ytick_1">
     <g id="line2d_7">
      <path d="M 121.065 760.162809 
L 845.205 760.162809 
" clip-path="url(#pbdd9ed70b7)" style="fill: none; stroke-dasharray: 1.85,0.8; stroke-dashoffset: 0; stroke: #cccccc; stroke-opacity: 0.3; stroke-width: 0.5"/>
     </g>
     <g id="text_8">
      <!-- dpaca -->
      <g style="fill: #262626" transform="translate(78.8725 764.457496) scale(0.12 -0.12)">
       <defs>
        <path id="ArialMT-70" d="M 422 -1272 
L 422 3319 
L 934 3319 
L 934 2888 
Q 1116 3141 1344 3267 
Q 1572 3394 1897 3394 
Q 2322 3394 2647 3175 
Q 2972 2956 3137 2557 
Q 3303 2159 3303 1684 
Q 3303 1175 3120 767 
Q 2938 359 2589 142 
Q 2241 -75 1856 -75 
Q 1575 -75 1351 44 
Q 1128 163 984 344 
L 984 -1272 
L 422 -1272 
z
M 931 1641 
Q 931 1000 1190 694 
Q 1450 388 1819 388 
Q 2194 388 2461 705 
Q 2728 1022 2728 1688 
Q 2728 2322 2467 2637 
Q 2206 2953 1844 2953 
Q 1484 2953 1207 2617 
Q 931 2281 931 1641 
z
" transform="scale(0.015625)"/>
        <path id="ArialMT-61" d="M 2588 409 
Q 2275 144 1986 34 
Q 1697 -75 1366 -75 
Q 819 -75 525 192 
Q 231 459 231 875 
Q 231 1119 342 1320 
Q 453 1522 633 1644 
Q 813 1766 1038 1828 
Q 1203 1872 1538 1913 
Q 2219 1994 2541 2106 
Q 2544 2222 2544 2253 
Q 2544 2597 2384 2738 
Q 2169 2928 1744 2928 
Q 1347 2928 1158 2789 
Q 969 2650 878 2297 
L 328 2372 
Q 403 2725 575 2942 
Q 747 3159 1072 3276 
Q 1397 3394 1825 3394 
Q 2250 3394 2515 3294 
Q 2781 3194 2906 3042 
Q 3031 2891 3081 2659 
Q 3109 2516 3109 2141 
L 3109 1391 
Q 3109 606 3145 398 
Q 3181 191 3288 0 
L 2700 0 
Q 2613 175 2588 409 
z
M 2541 1666 
Q 2234 1541 1622 1453 
Q 1275 1403 1131 1340 
Q 988 1278 909 1158 
Q 831 1038 831 891 
Q 831 666 1001 516 
Q 1172 366 1500 366 
Q 1825 366 2078 508 
Q 2331 650 2450 897 
Q 2541 1088 2541 1459 
L 2541 1666 
z
" transform="scale(0.015625)"/>
       </defs>
       <use xlink:href="#ArialMT-64"/>
       <use xlink:href="#ArialMT-70" x="55.615234"/>
       <use xlink:href="#ArialMT-61" x="111.230469"/>
       <use xlink:href="#ArialMT-63" x="166.845703"/>
       <use xlink:href="#ArialMT-61" x="216.845703"/>
      </g>
     </g>
    </g>
    <g id="ytick_2">
     <g id="line2d_8">
      <path d="M 121.065 743.148921 
L 845.205 743.148921 
" clip-path="url(#pbdd9ed70b7)" style="fill: none; stroke-dasharray: 1.85,0.8; stroke-dashoffset: 0; stroke: #cccccc; stroke-opacity: 0.3; stroke-width: 0.5"/>
     </g>
     <g id="text_9">
      <!-- ms-m -->
      <g style="fill: #262626" transform="translate(81.578125 747.443608) scale(0.12 -0.12)">
       <defs>
        <path id="ArialMT-6d" d="M 422 0 
L 422 3319 
L 925 3319 
L 925 2853 
Q 1081 3097 1340 3245 
Q 1600 3394 1931 3394 
Q 2300 3394 2536 3241 
Q 2772 3088 2869 2813 
Q 3263 3394 3894 3394 
Q 4388 3394 4653 3120 
Q 4919 2847 4919 2278 
L 4919 0 
L 4359 0 
L 4359 2091 
Q 4359 2428 4304 2576 
Q 4250 2725 4106 2815 
Q 3963 2906 3769 2906 
Q 3419 2906 3187 2673 
Q 2956 2441 2956 1928 
L 2956 0 
L 2394 0 
L 2394 2156 
Q 2394 2531 2256 2718 
Q 2119 2906 1806 2906 
Q 1569 2906 1367 2781 
Q 1166 2656 1075 2415 
Q 984 2175 984 1722 
L 984 0 
L 422 0 
z
" transform="scale(0.015625)"/>
        <path id="ArialMT-73" d="M 197 991 
L 753 1078 
Q 800 744 1014 566 
Q 1228 388 1613 388 
Q 2000 388 2187 545 
Q 2375 703 2375 916 
Q 2375 1106 2209 1216 
Q 2094 1291 1634 1406 
Q 1016 1563 777 1677 
Q 538 1791 414 1992 
Q 291 2194 291 2438 
Q 291 2659 392 2848 
Q 494 3038 669 3163 
Q 800 3259 1026 3326 
Q 1253 3394 1513 3394 
Q 1903 3394 2198 3281 
Q 2494 3169 2634 2976 
Q 2775 2784 2828 2463 
L 2278 2388 
Q 2241 2644 2061 2787 
Q 1881 2931 1553 2931 
Q 1166 2931 1000 2803 
Q 834 2675 834 2503 
Q 834 2394 903 2306 
Q 972 2216 1119 2156 
Q 1203 2125 1616 2013 
Q 2213 1853 2448 1751 
Q 2684 1650 2818 1456 
Q 2953 1263 2953 975 
Q 2953 694 2789 445 
Q 2625 197 2315 61 
Q 2006 -75 1616 -75 
Q 969 -75 630 194 
Q 291 463 197 991 
z
" transform="scale(0.015625)"/>
        <path id="ArialMT-2d" d="M 203 1375 
L 203 1941 
L 1931 1941 
L 1931 1375 
L 203 1375 
z
" transform="scale(0.015625)"/>
       </defs>
       <use xlink:href="#ArialMT-6d"/>
       <use xlink:href="#ArialMT-73" x="83.300781"/>
       <use xlink:href="#ArialMT-2d" x="133.300781"/>
       <use xlink:href="#ArialMT-6d" x="166.601562"/>
      </g>
     </g>
    </g>
    <g id="ytick_3">
     <g id="line2d_9">
      <path d="M 121.065 726.135033 
L 845.205 726.135033 
" clip-path="url(#pbdd9ed70b7)" style="fill: none; stroke-dasharray: 1.85,0.8; stroke-dashoffset: 0; stroke: #cccccc; stroke-opacity: 0.3; stroke-width: 0.5"/>
     </g>
     <g id="text_10">
      <!-- 20a -->
      <g style="fill: #262626" transform="translate(91.545625 730.429721) scale(0.12 -0.12)">
       <use xlink:href="#ArialMT-32"/>
       <use xlink:href="#ArialMT-30" x="55.615234"/>
       <use xlink:href="#ArialMT-61" x="111.230469"/>
      </g>
     </g>
    </g>
    <g id="ytick_4">
     <g id="line2d_10">
      <path d="M 121.065 709.121146 
L 845.205 709.121146 
" clip-path="url(#pbdd9ed70b7)" style="fill: none; stroke-dasharray: 1.85,0.8; stroke-dashoffset: 0; stroke: #cccccc; stroke-opacity: 0.3; stroke-width: 0.5"/>
     </g>
     <g id="text_11">
      <!-- imidazole1 -->
      <g style="fill: #262626" transform="translate(54.205 713.415833) scale(0.12 -0.12)">
       <defs>
        <path id="ArialMT-7a" d="M 125 0 
L 125 456 
L 2238 2881 
Q 1878 2863 1603 2863 
L 250 2863 
L 250 3319 
L 2963 3319 
L 2963 2947 
L 1166 841 
L 819 456 
Q 1197 484 1528 484 
L 3063 484 
L 3063 0 
L 125 0 
z
" transform="scale(0.015625)"/>
        <path id="ArialMT-6f" d="M 213 1659 
Q 213 2581 725 3025 
Q 1153 3394 1769 3394 
Q 2453 3394 2887 2945 
Q 3322 2497 3322 1706 
Q 3322 1066 3130 698 
Q 2938 331 2570 128 
Q 2203 -75 1769 -75 
Q 1072 -75 642 372 
Q 213 819 213 1659 
z
M 791 1659 
Q 791 1022 1069 705 
Q 1347 388 1769 388 
Q 2188 388 2466 706 
Q 2744 1025 2744 1678 
Q 2744 2294 2464 2611 
Q 2184 2928 1769 2928 
Q 1347 2928 1069 2612 
Q 791 2297 791 1659 
z
" transform="scale(0.015625)"/>
        <path id="ArialMT-6c" d="M 409 0 
L 409 4581 
L 972 4581 
L 972 0 
L 409 0 
z
" transform="scale(0.015625)"/>
       </defs>
       <use xlink:href="#ArialMT-69"/>
       <use xlink:href="#ArialMT-6d" x="22.216797"/>
       <use xlink:href="#ArialMT-69" x="105.517578"/>
       <use xlink:href="#ArialMT-64" x="127.734375"/>
       <use xlink:href="#ArialMT-61" x="183.349609"/>
       <use xlink:href="#ArialMT-7a" x="238.964844"/>
       <use xlink:href="#ArialMT-6f" x="288.964844"/>
       <use xlink:href="#ArialMT-6c" x="344.580078"/>
       <use xlink:href="#ArialMT-65" x="366.796875"/>
       <use xlink:href="#ArialMT-31" x="422.412109"/>
      </g>
     </g>
    </g>
    <g id="ytick_5">
     <g id="line2d_11">
      <path d="M 121.065 692.107258 
L 845.205 692.107258 
" clip-path="url(#pbdd9ed70b7)" style="fill: none; stroke-dasharray: 1.85,0.8; stroke-dashoffset: 0; stroke: #cccccc; stroke-opacity: 0.3; stroke-width: 0.5"/>
     </g>
     <g id="text_12">
      <!-- t1 -->
      <g style="fill: #262626" transform="translate(101.558125 696.401946) scale(0.12 -0.12)">
       <use xlink:href="#ArialMT-74"/>
       <use xlink:href="#ArialMT-31" x="27.783203"/>
      </g>
     </g>
    </g>
    <g id="ytick_6">
     <g id="line2d_12">
      <path d="M 121.065 675.09337 
L 845.205 675.09337 
" clip-path="url(#pbdd9ed70b7)" style="fill: none; stroke-dasharray: 1.85,0.8; stroke-dashoffset: 0; stroke: #cccccc; stroke-opacity: 0.3; stroke-width: 0.5"/>
     </g>
     <g id="text_13">
      <!-- 10d -->
      <g style="fill: #262626" transform="translate(91.545625 679.388058) scale(0.12 -0.12)">
       <use xlink:href="#ArialMT-31"/>
       <use xlink:href="#ArialMT-30" x="55.615234"/>
       <use xlink:href="#ArialMT-64" x="111.230469"/>
      </g>
     </g>
    </g>
    <g id="ytick_7">
     <g id="line2d_13">
      <path d="M 121.065 658.079483 
L 845.205 658.079483 
" clip-path="url(#pbdd9ed70b7)" style="fill: none; stroke-dasharray: 1.85,0.8; stroke-dashoffset: 0; stroke: #cccccc; stroke-opacity: 0.3; stroke-width: 0.5"/>
     </g>
     <g id="text_14">
      <!-- beetroot -->
      <g style="fill: #262626" transform="translate(67.53625 662.37417) scale(0.12 -0.12)">
       <defs>
        <path id="ArialMT-62" d="M 941 0 
L 419 0 
L 419 4581 
L 981 4581 
L 981 2947 
Q 1338 3394 1891 3394 
Q 2197 3394 2470 3270 
Q 2744 3147 2920 2923 
Q 3097 2700 3197 2384 
Q 3297 2069 3297 1709 
Q 3297 856 2875 390 
Q 2453 -75 1863 -75 
Q 1275 -75 941 416 
L 941 0 
z
M 934 1684 
Q 934 1088 1097 822 
Q 1363 388 1816 388 
Q 2184 388 2453 708 
Q 2722 1028 2722 1663 
Q 2722 2313 2464 2622 
Q 2206 2931 1841 2931 
Q 1472 2931 1203 2611 
Q 934 2291 934 1684 
z
" transform="scale(0.015625)"/>
       </defs>
       <use xlink:href="#ArialMT-62"/>
       <use xlink:href="#ArialMT-65" x="55.615234"/>
       <use xlink:href="#ArialMT-65" x="111.230469"/>
       <use xlink:href="#ArialMT-74" x="166.845703"/>
       <use xlink:href="#ArialMT-72" x="194.628906"/>
       <use xlink:href="#ArialMT-6f" x="227.929688"/>
       <use xlink:href="#ArialMT-6f" x="283.544922"/>
       <use xlink:href="#ArialMT-74" x="339.160156"/>
      </g>
     </g>
    </g>
    <g id="ytick_8">
     <g id="line2d_14">
      <path d="M 121.065 641.065595 
L 845.205 641.065595 
" clip-path="url(#pbdd9ed70b7)" style="fill: none; stroke-dasharray: 1.85,0.8; stroke-dashoffset: 0; stroke: #cccccc; stroke-opacity: 0.3; stroke-width: 0.5"/>
     </g>
     <g id="text_15">
      <!-- 12a -->
      <g style="fill: #262626" transform="translate(91.545625 645.360283) scale(0.12 -0.12)">
       <use xlink:href="#ArialMT-31"/>
       <use xlink:href="#ArialMT-32" x="55.615234"/>
       <use xlink:href="#ArialMT-61" x="111.230469"/>
      </g>
     </g>
    </g>
    <g id="ytick_9">
     <g id="line2d_15">
      <path d="M 121.065 624.051708 
L 845.205 624.051708 
" clip-path="url(#pbdd9ed70b7)" style="fill: none; stroke-dasharray: 1.85,0.8; stroke-dashoffset: 0; stroke: #cccccc; stroke-opacity: 0.3; stroke-width: 0.5"/>
     </g>
     <g id="text_16">
      <!-- t3 -->
      <g style="fill: #262626" transform="translate(101.558125 628.346395) scale(0.12 -0.12)">
       <use xlink:href="#ArialMT-74"/>
       <use xlink:href="#ArialMT-33" x="27.783203"/>
      </g>
     </g>
    </g>
    <g id="ytick_10">
     <g id="line2d_16">
      <path d="M 121.065 607.03782 
L 845.205 607.03782 
" clip-path="url(#pbdd9ed70b7)" style="fill: none; stroke-dasharray: 1.85,0.8; stroke-dashoffset: 0; stroke: #cccccc; stroke-opacity: 0.3; stroke-width: 0.5"/>
     </g>
     <g id="text_17">
      <!-- imidazole1-3 -->
      <g style="fill: #262626" transform="translate(43.53625 611.332508) scale(0.12 -0.12)">
       <use xlink:href="#ArialMT-69"/>
       <use xlink:href="#ArialMT-6d" x="22.216797"/>
       <use xlink:href="#ArialMT-69" x="105.517578"/>
       <use xlink:href="#ArialMT-64" x="127.734375"/>
       <use xlink:href="#ArialMT-61" x="183.349609"/>
       <use xlink:href="#ArialMT-7a" x="238.964844"/>
       <use xlink:href="#ArialMT-6f" x="288.964844"/>
       <use xlink:href="#ArialMT-6c" x="344.580078"/>
       <use xlink:href="#ArialMT-65" x="366.796875"/>
       <use xlink:href="#ArialMT-31" x="422.412109"/>
       <use xlink:href="#ArialMT-2d" x="478.027344"/>
       <use xlink:href="#ArialMT-33" x="511.328125"/>
      </g>
     </g>
    </g>
    <g id="ytick_11">
     <g id="line2d_17">
      <path d="M 121.065 590.023932 
L 845.205 590.023932 
" clip-path="url(#pbdd9ed70b7)" style="fill: none; stroke-dasharray: 1.85,0.8; stroke-dashoffset: 0; stroke: #cccccc; stroke-opacity: 0.3; stroke-width: 0.5"/>
     </g>
     <g id="text_18">
      <!-- phenothiazine3 -->
      <g style="fill: #262626" transform="translate(30.1675 594.336432) scale(0.12 -0.12)">
       <defs>
        <path id="ArialMT-68" d="M 422 0 
L 422 4581 
L 984 4581 
L 984 2938 
Q 1378 3394 1978 3394 
Q 2347 3394 2619 3248 
Q 2891 3103 3008 2847 
Q 3125 2591 3125 2103 
L 3125 0 
L 2563 0 
L 2563 2103 
Q 2563 2525 2380 2717 
Q 2197 2909 1863 2909 
Q 1613 2909 1392 2779 
Q 1172 2650 1078 2428 
Q 984 2206 984 1816 
L 984 0 
L 422 0 
z
" transform="scale(0.015625)"/>
        <path id="ArialMT-6e" d="M 422 0 
L 422 3319 
L 928 3319 
L 928 2847 
Q 1294 3394 1984 3394 
Q 2284 3394 2536 3286 
Q 2788 3178 2913 3003 
Q 3038 2828 3088 2588 
Q 3119 2431 3119 2041 
L 3119 0 
L 2556 0 
L 2556 2019 
Q 2556 2363 2490 2533 
Q 2425 2703 2258 2804 
Q 2091 2906 1866 2906 
Q 1506 2906 1245 2678 
Q 984 2450 984 1813 
L 984 0 
L 422 0 
z
" transform="scale(0.015625)"/>
       </defs>
       <use xlink:href="#ArialMT-70"/>
       <use xlink:href="#ArialMT-68" x="55.615234"/>
       <use xlink:href="#ArialMT-65" x="111.230469"/>
       <use xlink:href="#ArialMT-6e" x="166.845703"/>
       <use xlink:href="#ArialMT-6f" x="222.460938"/>
       <use xlink:href="#ArialMT-74" x="278.076172"/>
       <use xlink:href="#ArialMT-68" x="305.859375"/>
       <use xlink:href="#ArialMT-69" x="361.474609"/>
       <use xlink:href="#ArialMT-61" x="383.691406"/>
       <use xlink:href="#ArialMT-7a" x="439.306641"/>
       <use xlink:href="#ArialMT-69" x="489.306641"/>
       <use xlink:href="#ArialMT-6e" x="511.523438"/>
       <use xlink:href="#ArialMT-65" x="567.138672"/>
       <use xlink:href="#ArialMT-33" x="622.753906"/>
      </g>
     </g>
    </g>
    <g id="ytick_12">
     <g id="line2d_18">
      <path d="M 121.065 573.010045 
L 845.205 573.010045 
" clip-path="url(#pbdd9ed70b7)" style="fill: none; stroke-dasharray: 1.85,0.8; stroke-dashoffset: 0; stroke: #cccccc; stroke-opacity: 0.3; stroke-width: 0.5"/>
     </g>
     <g id="text_19">
      <!-- 21a -->
      <g style="fill: #262626" transform="translate(91.545625 577.304732) scale(0.12 -0.12)">
       <use xlink:href="#ArialMT-32"/>
       <use xlink:href="#ArialMT-31" x="55.615234"/>
       <use xlink:href="#ArialMT-61" x="111.230469"/>
      </g>
     </g>
    </g>
    <g id="ytick_13">
     <g id="line2d_19">
      <path d="M 121.065 555.996157 
L 845.205 555.996157 
" clip-path="url(#pbdd9ed70b7)" style="fill: none; stroke-dasharray: 1.85,0.8; stroke-dashoffset: 0; stroke: #cccccc; stroke-opacity: 0.3; stroke-width: 0.5"/>
     </g>
     <g id="text_20">
      <!-- phenothiazine4 -->
      <g style="fill: #262626" transform="translate(30.1675 560.290845) scale(0.12 -0.12)">
       <use xlink:href="#ArialMT-70"/>
       <use xlink:href="#ArialMT-68" x="55.615234"/>
       <use xlink:href="#ArialMT-65" x="111.230469"/>
       <use xlink:href="#ArialMT-6e" x="166.845703"/>
       <use xlink:href="#ArialMT-6f" x="222.460938"/>
       <use xlink:href="#ArialMT-74" x="278.076172"/>
       <use xlink:href="#ArialMT-68" x="305.859375"/>
       <use xlink:href="#ArialMT-69" x="361.474609"/>
       <use xlink:href="#ArialMT-61" x="383.691406"/>
       <use xlink:href="#ArialMT-7a" x="439.306641"/>
       <use xlink:href="#ArialMT-69" x="489.306641"/>
       <use xlink:href="#ArialMT-6e" x="511.523438"/>
       <use xlink:href="#ArialMT-65" x="567.138672"/>
       <use xlink:href="#ArialMT-34" x="622.753906"/>
      </g>
     </g>
    </g>
    <g id="ytick_14">
     <g id="line2d_20">
      <path d="M 121.065 538.98227 
L 845.205 538.98227 
" clip-path="url(#pbdd9ed70b7)" style="fill: none; stroke-dasharray: 1.85,0.8; stroke-dashoffset: 0; stroke: #cccccc; stroke-opacity: 0.3; stroke-width: 0.5"/>
     </g>
     <g id="text_21">
      <!-- 10c -->
      <g style="fill: #262626" transform="translate(92.21875 543.276957) scale(0.12 -0.12)">
       <use xlink:href="#ArialMT-31"/>
       <use xlink:href="#ArialMT-30" x="55.615234"/>
       <use xlink:href="#ArialMT-63" x="111.230469"/>
      </g>
     </g>
    </g>
    <g id="ytick_15">
     <g id="line2d_21">
      <path d="M 121.065 521.968382 
L 845.205 521.968382 
" clip-path="url(#pbdd9ed70b7)" style="fill: none; stroke-dasharray: 1.85,0.8; stroke-dashoffset: 0; stroke: #cccccc; stroke-opacity: 0.3; stroke-width: 0.5"/>
     </g>
     <g id="text_22">
      <!-- quercitin -->
      <g style="fill: #262626" transform="translate(66.210625 526.263069) scale(0.12 -0.12)">
       <defs>
        <path id="ArialMT-71" d="M 2538 -1272 
L 2538 353 
Q 2406 169 2170 47 
Q 1934 -75 1669 -75 
Q 1078 -75 651 397 
Q 225 869 225 1691 
Q 225 2191 398 2587 
Q 572 2984 901 3189 
Q 1231 3394 1625 3394 
Q 2241 3394 2594 2875 
L 2594 3319 
L 3100 3319 
L 3100 -1272 
L 2538 -1272 
z
M 803 1669 
Q 803 1028 1072 708 
Q 1341 388 1716 388 
Q 2075 388 2334 692 
Q 2594 997 2594 1619 
Q 2594 2281 2320 2615 
Q 2047 2950 1678 2950 
Q 1313 2950 1058 2639 
Q 803 2328 803 1669 
z
" transform="scale(0.015625)"/>
        <path id="ArialMT-75" d="M 2597 0 
L 2597 488 
Q 2209 -75 1544 -75 
Q 1250 -75 995 37 
Q 741 150 617 320 
Q 494 491 444 738 
Q 409 903 409 1263 
L 409 3319 
L 972 3319 
L 972 1478 
Q 972 1038 1006 884 
Q 1059 663 1231 536 
Q 1403 409 1656 409 
Q 1909 409 2131 539 
Q 2353 669 2445 892 
Q 2538 1116 2538 1541 
L 2538 3319 
L 3100 3319 
L 3100 0 
L 2597 0 
z
" transform="scale(0.015625)"/>
       </defs>
       <use xlink:href="#ArialMT-71"/>
       <use xlink:href="#ArialMT-75" x="55.615234"/>
       <use xlink:href="#ArialMT-65" x="111.230469"/>
       <use xlink:href="#ArialMT-72" x="166.845703"/>
       <use xlink:href="#ArialMT-63" x="200.146484"/>
       <use xlink:href="#ArialMT-69" x="250.146484"/>
       <use xlink:href="#ArialMT-74" x="272.363281"/>
       <use xlink:href="#ArialMT-69" x="300.146484"/>
       <use xlink:href="#ArialMT-6e" x="322.363281"/>
      </g>
     </g>
    </g>
    <g id="ytick_16">
     <g id="line2d_22">
      <path d="M 121.065 504.954494 
L 845.205 504.954494 
" clip-path="url(#pbdd9ed70b7)" style="fill: none; stroke-dasharray: 1.85,0.8; stroke-dashoffset: 0; stroke: #cccccc; stroke-opacity: 0.3; stroke-width: 0.5"/>
     </g>
     <g id="text_23">
      <!-- imidazole1-2 -->
      <g style="fill: #262626" transform="translate(43.53625 509.249182) scale(0.12 -0.12)">
       <use xlink:href="#ArialMT-69"/>
       <use xlink:href="#ArialMT-6d" x="22.216797"/>
       <use xlink:href="#ArialMT-69" x="105.517578"/>
       <use xlink:href="#ArialMT-64" x="127.734375"/>
       <use xlink:href="#ArialMT-61" x="183.349609"/>
       <use xlink:href="#ArialMT-7a" x="238.964844"/>
       <use xlink:href="#ArialMT-6f" x="288.964844"/>
       <use xlink:href="#ArialMT-6c" x="344.580078"/>
       <use xlink:href="#ArialMT-65" x="366.796875"/>
       <use xlink:href="#ArialMT-31" x="422.412109"/>
       <use xlink:href="#ArialMT-2d" x="478.027344"/>
       <use xlink:href="#ArialMT-32" x="511.328125"/>
      </g>
     </g>
    </g>
    <g id="ytick_17">
     <g id="line2d_23">
      <path d="M 121.065 487.940607 
L 845.205 487.940607 
" clip-path="url(#pbdd9ed70b7)" style="fill: none; stroke-dasharray: 1.85,0.8; stroke-dashoffset: 0; stroke: #cccccc; stroke-opacity: 0.3; stroke-width: 0.5"/>
     </g>
     <g id="text_24">
      <!-- rutin -->
      <g style="fill: #262626" transform="translate(88.223125 492.235294) scale(0.12 -0.12)">
       <use xlink:href="#ArialMT-72"/>
       <use xlink:href="#ArialMT-75" x="33.300781"/>
       <use xlink:href="#ArialMT-74" x="88.916016"/>
       <use xlink:href="#ArialMT-69" x="116.699219"/>
       <use xlink:href="#ArialMT-6e" x="138.916016"/>
      </g>
     </g>
    </g>
    <g id="ytick_18">
     <g id="line2d_24">
      <path d="M 121.065 470.926719 
L 845.205 470.926719 
" clip-path="url(#pbdd9ed70b7)" style="fill: none; stroke-dasharray: 1.85,0.8; stroke-dashoffset: 0; stroke: #cccccc; stroke-opacity: 0.3; stroke-width: 0.5"/>
     </g>
     <g id="text_25">
      <!-- aksq3 -->
      <g style="fill: #262626" transform="translate(79.545625 475.239219) scale(0.12 -0.12)">
       <defs>
        <path id="ArialMT-6b" d="M 425 0 
L 425 4581 
L 988 4581 
L 988 1969 
L 2319 3319 
L 3047 3319 
L 1778 2088 
L 3175 0 
L 2481 0 
L 1384 1697 
L 988 1316 
L 988 0 
L 425 0 
z
" transform="scale(0.015625)"/>
       </defs>
       <use xlink:href="#ArialMT-61"/>
       <use xlink:href="#ArialMT-6b" x="55.615234"/>
       <use xlink:href="#ArialMT-73" x="105.615234"/>
       <use xlink:href="#ArialMT-71" x="155.615234"/>
       <use xlink:href="#ArialMT-33" x="211.230469"/>
      </g>
     </g>
    </g>
    <g id="ytick_19">
     <g id="line2d_25">
      <path d="M 121.065 453.912831 
L 845.205 453.912831 
" clip-path="url(#pbdd9ed70b7)" style="fill: none; stroke-dasharray: 1.85,0.8; stroke-dashoffset: 0; stroke: #cccccc; stroke-opacity: 0.3; stroke-width: 0.5"/>
     </g>
     <g id="text_26">
      <!-- dpaa -->
      <g style="fill: #262626" transform="translate(84.8725 458.207519) scale(0.12 -0.12)">
       <use xlink:href="#ArialMT-64"/>
       <use xlink:href="#ArialMT-70" x="55.615234"/>
       <use xlink:href="#ArialMT-61" x="111.230469"/>
       <use xlink:href="#ArialMT-61" x="166.845703"/>
      </g>
     </g>
    </g>
    <g id="ytick_20">
     <g id="line2d_26">
      <path d="M 121.065 436.898944 
L 845.205 436.898944 
" clip-path="url(#pbdd9ed70b7)" style="fill: none; stroke-dasharray: 1.85,0.8; stroke-dashoffset: 0; stroke: #cccccc; stroke-opacity: 0.3; stroke-width: 0.5"/>
     </g>
     <g id="text_27">
      <!-- phenothiazine1 -->
      <g style="fill: #262626" transform="translate(30.1675 441.211444) scale(0.12 -0.12)">
       <use xlink:href="#ArialMT-70"/>
       <use xlink:href="#ArialMT-68" x="55.615234"/>
       <use xlink:href="#ArialMT-65" x="111.230469"/>
       <use xlink:href="#ArialMT-6e" x="166.845703"/>
       <use xlink:href="#ArialMT-6f" x="222.460938"/>
       <use xlink:href="#ArialMT-74" x="278.076172"/>
       <use xlink:href="#ArialMT-68" x="305.859375"/>
       <use xlink:href="#ArialMT-69" x="361.474609"/>
       <use xlink:href="#ArialMT-61" x="383.691406"/>
       <use xlink:href="#ArialMT-7a" x="439.306641"/>
       <use xlink:href="#ArialMT-69" x="489.306641"/>
       <use xlink:href="#ArialMT-6e" x="511.523438"/>
       <use xlink:href="#ArialMT-65" x="567.138672"/>
       <use xlink:href="#ArialMT-31" x="622.753906"/>
      </g>
     </g>
    </g>
    <g id="ytick_21">
     <g id="line2d_27">
      <path d="M 121.065 419.885056 
L 845.205 419.885056 
" clip-path="url(#pbdd9ed70b7)" style="fill: none; stroke-dasharray: 1.85,0.8; stroke-dashoffset: 0; stroke: #cccccc; stroke-opacity: 0.3; stroke-width: 0.5"/>
     </g>
     <g id="text_28">
      <!-- 22a -->
      <g style="fill: #262626" transform="translate(91.545625 424.179744) scale(0.12 -0.12)">
       <use xlink:href="#ArialMT-32"/>
       <use xlink:href="#ArialMT-32" x="55.615234"/>
       <use xlink:href="#ArialMT-61" x="111.230469"/>
      </g>
     </g>
    </g>
    <g id="ytick_22">
     <g id="line2d_28">
      <path d="M 121.065 402.871169 
L 845.205 402.871169 
" clip-path="url(#pbdd9ed70b7)" style="fill: none; stroke-dasharray: 1.85,0.8; stroke-dashoffset: 0; stroke: #cccccc; stroke-opacity: 0.3; stroke-width: 0.5"/>
     </g>
     <g id="text_29">
      <!-- 19a -->
      <g style="fill: #262626" transform="translate(91.545625 407.165856) scale(0.12 -0.12)">
       <defs>
        <path id="ArialMT-39" d="M 350 1059 
L 891 1109 
Q 959 728 1153 556 
Q 1347 384 1650 384 
Q 1909 384 2104 503 
Q 2300 622 2425 820 
Q 2550 1019 2634 1356 
Q 2719 1694 2719 2044 
Q 2719 2081 2716 2156 
Q 2547 1888 2255 1720 
Q 1963 1553 1622 1553 
Q 1053 1553 659 1965 
Q 266 2378 266 3053 
Q 266 3750 677 4175 
Q 1088 4600 1706 4600 
Q 2153 4600 2523 4359 
Q 2894 4119 3086 3673 
Q 3278 3228 3278 2384 
Q 3278 1506 3087 986 
Q 2897 466 2520 194 
Q 2144 -78 1638 -78 
Q 1100 -78 759 220 
Q 419 519 350 1059 
z
M 2653 3081 
Q 2653 3566 2395 3850 
Q 2138 4134 1775 4134 
Q 1400 4134 1122 3828 
Q 844 3522 844 3034 
Q 844 2597 1108 2323 
Q 1372 2050 1759 2050 
Q 2150 2050 2401 2323 
Q 2653 2597 2653 3081 
z
" transform="scale(0.015625)"/>
       </defs>
       <use xlink:href="#ArialMT-31"/>
       <use xlink:href="#ArialMT-39" x="55.615234"/>
       <use xlink:href="#ArialMT-61" x="111.230469"/>
      </g>
     </g>
    </g>
    <g id="ytick_23">
     <g id="line2d_29">
      <path d="M 121.065 385.857281 
L 845.205 385.857281 
" clip-path="url(#pbdd9ed70b7)" style="fill: none; stroke-dasharray: 1.85,0.8; stroke-dashoffset: 0; stroke: #cccccc; stroke-opacity: 0.3; stroke-width: 0.5"/>
     </g>
     <g id="text_30">
      <!-- d3 -->
      <g style="fill: #262626" transform="translate(98.21875 390.151968) scale(0.12 -0.12)">
       <use xlink:href="#ArialMT-64"/>
       <use xlink:href="#ArialMT-33" x="55.615234"/>
      </g>
     </g>
    </g>
    <g id="ytick_24">
     <g id="line2d_30">
      <path d="M 121.065 368.843393 
L 845.205 368.843393 
" clip-path="url(#pbdd9ed70b7)" style="fill: none; stroke-dasharray: 1.85,0.8; stroke-dashoffset: 0; stroke: #cccccc; stroke-opacity: 0.3; stroke-width: 0.5"/>
     </g>
     <g id="text_31">
      <!-- imidazole5 -->
      <g style="fill: #262626" transform="translate(54.205 373.138081) scale(0.12 -0.12)">
       <use xlink:href="#ArialMT-69"/>
       <use xlink:href="#ArialMT-6d" x="22.216797"/>
       <use xlink:href="#ArialMT-69" x="105.517578"/>
       <use xlink:href="#ArialMT-64" x="127.734375"/>
       <use xlink:href="#ArialMT-61" x="183.349609"/>
       <use xlink:href="#ArialMT-7a" x="238.964844"/>
       <use xlink:href="#ArialMT-6f" x="288.964844"/>
       <use xlink:href="#ArialMT-6c" x="344.580078"/>
       <use xlink:href="#ArialMT-65" x="366.796875"/>
       <use xlink:href="#ArialMT-35" x="422.412109"/>
      </g>
     </g>
    </g>
    <g id="ytick_25">
     <g id="line2d_31">
      <path d="M 121.065 351.829506 
L 845.205 351.829506 
" clip-path="url(#pbdd9ed70b7)" style="fill: none; stroke-dasharray: 1.85,0.8; stroke-dashoffset: 0; stroke: #cccccc; stroke-opacity: 0.3; stroke-width: 0.5"/>
     </g>
     <g id="text_32">
      <!-- 10b -->
      <g style="fill: #262626" transform="translate(91.545625 356.124193) scale(0.12 -0.12)">
       <use xlink:href="#ArialMT-31"/>
       <use xlink:href="#ArialMT-30" x="55.615234"/>
       <use xlink:href="#ArialMT-62" x="111.230469"/>
      </g>
     </g>
    </g>
    <g id="ytick_26">
     <g id="line2d_32">
      <path d="M 121.065 334.815618 
L 845.205 334.815618 
" clip-path="url(#pbdd9ed70b7)" style="fill: none; stroke-dasharray: 1.85,0.8; stroke-dashoffset: 0; stroke: #cccccc; stroke-opacity: 0.3; stroke-width: 0.5"/>
     </g>
     <g id="text_33">
      <!-- t4 -->
      <g style="fill: #262626" transform="translate(101.558125 339.110306) scale(0.12 -0.12)">
       <use xlink:href="#ArialMT-74"/>
       <use xlink:href="#ArialMT-34" x="27.783203"/>
      </g>
     </g>
    </g>
    <g id="ytick_27">
     <g id="line2d_33">
      <path d="M 121.065 317.80173 
L 845.205 317.80173 
" clip-path="url(#pbdd9ed70b7)" style="fill: none; stroke-dasharray: 1.85,0.8; stroke-dashoffset: 0; stroke: #cccccc; stroke-opacity: 0.3; stroke-width: 0.5"/>
     </g>
     <g id="text_34">
      <!-- imidazole3 -->
      <g style="fill: #262626" transform="translate(54.205 322.096418) scale(0.12 -0.12)">
       <use xlink:href="#ArialMT-69"/>
       <use xlink:href="#ArialMT-6d" x="22.216797"/>
       <use xlink:href="#ArialMT-69" x="105.517578"/>
       <use xlink:href="#ArialMT-64" x="127.734375"/>
       <use xlink:href="#ArialMT-61" x="183.349609"/>
       <use xlink:href="#ArialMT-7a" x="238.964844"/>
       <use xlink:href="#ArialMT-6f" x="288.964844"/>
       <use xlink:href="#ArialMT-6c" x="344.580078"/>
       <use xlink:href="#ArialMT-65" x="366.796875"/>
       <use xlink:href="#ArialMT-33" x="422.412109"/>
      </g>
     </g>
    </g>
    <g id="ytick_28">
     <g id="line2d_34">
      <path d="M 121.065 300.787843 
L 845.205 300.787843 
" clip-path="url(#pbdd9ed70b7)" style="fill: none; stroke-dasharray: 1.85,0.8; stroke-dashoffset: 0; stroke: #cccccc; stroke-opacity: 0.3; stroke-width: 0.5"/>
     </g>
     <g id="text_35">
      <!-- aksq1 -->
      <g style="fill: #262626" transform="translate(79.545625 305.100343) scale(0.12 -0.12)">
       <use xlink:href="#ArialMT-61"/>
       <use xlink:href="#ArialMT-6b" x="55.615234"/>
       <use xlink:href="#ArialMT-73" x="105.615234"/>
       <use xlink:href="#ArialMT-71" x="155.615234"/>
       <use xlink:href="#ArialMT-31" x="211.230469"/>
      </g>
     </g>
    </g>
    <g id="ytick_29">
     <g id="line2d_35">
      <path d="M 121.065 283.773955 
L 845.205 283.773955 
" clip-path="url(#pbdd9ed70b7)" style="fill: none; stroke-dasharray: 1.85,0.8; stroke-dashoffset: 0; stroke: #cccccc; stroke-opacity: 0.3; stroke-width: 0.5"/>
     </g>
     <g id="text_36">
      <!-- ms-f -->
      <g style="fill: #262626" transform="translate(88.24 288.068643) scale(0.12 -0.12)">
       <defs>
        <path id="ArialMT-66" d="M 556 0 
L 556 2881 
L 59 2881 
L 59 3319 
L 556 3319 
L 556 3672 
Q 556 4006 616 4169 
Q 697 4388 901 4523 
Q 1106 4659 1475 4659 
Q 1713 4659 2000 4603 
L 1916 4113 
Q 1741 4144 1584 4144 
Q 1328 4144 1222 4034 
Q 1116 3925 1116 3625 
L 1116 3319 
L 1763 3319 
L 1763 2881 
L 1116 2881 
L 1116 0 
L 556 0 
z
" transform="scale(0.015625)"/>
       </defs>
       <use xlink:href="#ArialMT-6d"/>
       <use xlink:href="#ArialMT-73" x="83.300781"/>
       <use xlink:href="#ArialMT-2d" x="133.300781"/>
       <use xlink:href="#ArialMT-66" x="166.601562"/>
      </g>
     </g>
    </g>
    <g id="ytick_30">
     <g id="line2d_36">
      <path d="M 121.065 266.760068 
L 845.205 266.760068 
" clip-path="url(#pbdd9ed70b7)" style="fill: none; stroke-dasharray: 1.85,0.8; stroke-dashoffset: 0; stroke: #cccccc; stroke-opacity: 0.3; stroke-width: 0.5"/>
     </g>
     <g id="text_37">
      <!-- 12b -->
      <g style="fill: #262626" transform="translate(91.545625 271.054755) scale(0.12 -0.12)">
       <use xlink:href="#ArialMT-31"/>
       <use xlink:href="#ArialMT-32" x="55.615234"/>
       <use xlink:href="#ArialMT-62" x="111.230469"/>
      </g>
     </g>
    </g>
    <g id="ytick_31">
     <g id="line2d_37">
      <path d="M 121.065 249.74618 
L 845.205 249.74618 
" clip-path="url(#pbdd9ed70b7)" style="fill: none; stroke-dasharray: 1.85,0.8; stroke-dashoffset: 0; stroke: #cccccc; stroke-opacity: 0.3; stroke-width: 0.5"/>
     </g>
     <g id="text_38">
      <!-- ms-c -->
      <g style="fill: #262626" transform="translate(85.57375 254.040867) scale(0.12 -0.12)">
       <use xlink:href="#ArialMT-6d"/>
       <use xlink:href="#ArialMT-73" x="83.300781"/>
       <use xlink:href="#ArialMT-2d" x="133.300781"/>
       <use xlink:href="#ArialMT-63" x="166.601562"/>
      </g>
     </g>
    </g>
    <g id="ytick_32">
     <g id="line2d_38">
      <path d="M 121.065 232.732292 
L 845.205 232.732292 
" clip-path="url(#pbdd9ed70b7)" style="fill: none; stroke-dasharray: 1.85,0.8; stroke-dashoffset: 0; stroke: #cccccc; stroke-opacity: 0.3; stroke-width: 0.5"/>
     </g>
     <g id="text_39">
      <!-- t2 -->
      <g style="fill: #262626" transform="translate(101.558125 237.02698) scale(0.12 -0.12)">
       <use xlink:href="#ArialMT-74"/>
       <use xlink:href="#ArialMT-32" x="27.783203"/>
      </g>
     </g>
    </g>
    <g id="ytick_33">
     <g id="line2d_39">
      <path d="M 121.065 215.718405 
L 845.205 215.718405 
" clip-path="url(#pbdd9ed70b7)" style="fill: none; stroke-dasharray: 1.85,0.8; stroke-dashoffset: 0; stroke: #cccccc; stroke-opacity: 0.3; stroke-width: 0.5"/>
     </g>
     <g id="text_40">
      <!-- phenothiazine2 -->
      <g style="fill: #262626" transform="translate(30.1675 220.030905) scale(0.12 -0.12)">
       <use xlink:href="#ArialMT-70"/>
       <use xlink:href="#ArialMT-68" x="55.615234"/>
       <use xlink:href="#ArialMT-65" x="111.230469"/>
       <use xlink:href="#ArialMT-6e" x="166.845703"/>
       <use xlink:href="#ArialMT-6f" x="222.460938"/>
       <use xlink:href="#ArialMT-74" x="278.076172"/>
       <use xlink:href="#ArialMT-68" x="305.859375"/>
       <use xlink:href="#ArialMT-69" x="361.474609"/>
       <use xlink:href="#ArialMT-61" x="383.691406"/>
       <use xlink:href="#ArialMT-7a" x="439.306641"/>
       <use xlink:href="#ArialMT-69" x="489.306641"/>
       <use xlink:href="#ArialMT-6e" x="511.523438"/>
       <use xlink:href="#ArialMT-65" x="567.138672"/>
       <use xlink:href="#ArialMT-32" x="622.753906"/>
      </g>
     </g>
    </g>
    <g id="ytick_34">
     <g id="line2d_40">
      <path d="M 121.065 198.704517 
L 845.205 198.704517 
" clip-path="url(#pbdd9ed70b7)" style="fill: none; stroke-dasharray: 1.85,0.8; stroke-dashoffset: 0; stroke: #cccccc; stroke-opacity: 0.3; stroke-width: 0.5"/>
     </g>
     <g id="text_41">
      <!-- d1 -->
      <g style="fill: #262626" transform="translate(98.21875 202.999205) scale(0.12 -0.12)">
       <use xlink:href="#ArialMT-64"/>
       <use xlink:href="#ArialMT-31" x="55.615234"/>
      </g>
     </g>
    </g>
    <g id="ytick_35">
     <g id="line2d_41">
      <path d="M 121.065 181.69063 
L 845.205 181.69063 
" clip-path="url(#pbdd9ed70b7)" style="fill: none; stroke-dasharray: 1.85,0.8; stroke-dashoffset: 0; stroke: #cccccc; stroke-opacity: 0.3; stroke-width: 0.5"/>
     </g>
     <g id="text_42">
      <!-- imidazole1-1 -->
      <g style="fill: #262626" transform="translate(43.53625 185.985317) scale(0.12 -0.12)">
       <use xlink:href="#ArialMT-69"/>
       <use xlink:href="#ArialMT-6d" x="22.216797"/>
       <use xlink:href="#ArialMT-69" x="105.517578"/>
       <use xlink:href="#ArialMT-64" x="127.734375"/>
       <use xlink:href="#ArialMT-61" x="183.349609"/>
       <use xlink:href="#ArialMT-7a" x="238.964844"/>
       <use xlink:href="#ArialMT-6f" x="288.964844"/>
       <use xlink:href="#ArialMT-6c" x="344.580078"/>
       <use xlink:href="#ArialMT-65" x="366.796875"/>
       <use xlink:href="#ArialMT-31" x="422.412109"/>
       <use xlink:href="#ArialMT-2d" x="478.027344"/>
       <use xlink:href="#ArialMT-31" x="511.328125"/>
      </g>
     </g>
    </g>
    <g id="ytick_36">
     <g id="line2d_42">
      <path d="M 121.065 164.676742 
L 845.205 164.676742 
" clip-path="url(#pbdd9ed70b7)" style="fill: none; stroke-dasharray: 1.85,0.8; stroke-dashoffset: 0; stroke: #cccccc; stroke-opacity: 0.3; stroke-width: 0.5"/>
     </g>
     <g id="text_43">
      <!-- imidazole4 -->
      <g style="fill: #262626" transform="translate(54.205 168.971429) scale(0.12 -0.12)">
       <use xlink:href="#ArialMT-69"/>
       <use xlink:href="#ArialMT-6d" x="22.216797"/>
       <use xlink:href="#ArialMT-69" x="105.517578"/>
       <use xlink:href="#ArialMT-64" x="127.734375"/>
       <use xlink:href="#ArialMT-61" x="183.349609"/>
       <use xlink:href="#ArialMT-7a" x="238.964844"/>
       <use xlink:href="#ArialMT-6f" x="288.964844"/>
       <use xlink:href="#ArialMT-6c" x="344.580078"/>
       <use xlink:href="#ArialMT-65" x="366.796875"/>
       <use xlink:href="#ArialMT-34" x="422.412109"/>
      </g>
     </g>
    </g>
    <g id="ytick_37">
     <g id="line2d_43">
      <path d="M 121.065 147.662854 
L 845.205 147.662854 
" clip-path="url(#pbdd9ed70b7)" style="fill: none; stroke-dasharray: 1.85,0.8; stroke-dashoffset: 0; stroke: #cccccc; stroke-opacity: 0.3; stroke-width: 0.5"/>
     </g>
     <g id="text_44">
      <!-- imidazole2 -->
      <g style="fill: #262626" transform="translate(54.205 151.957542) scale(0.12 -0.12)">
       <use xlink:href="#ArialMT-69"/>
       <use xlink:href="#ArialMT-6d" x="22.216797"/>
       <use xlink:href="#ArialMT-69" x="105.517578"/>
       <use xlink:href="#ArialMT-64" x="127.734375"/>
       <use xlink:href="#ArialMT-61" x="183.349609"/>
       <use xlink:href="#ArialMT-7a" x="238.964844"/>
       <use xlink:href="#ArialMT-6f" x="288.964844"/>
       <use xlink:href="#ArialMT-6c" x="344.580078"/>
       <use xlink:href="#ArialMT-65" x="366.796875"/>
       <use xlink:href="#ArialMT-32" x="422.412109"/>
      </g>
     </g>
    </g>
    <g id="ytick_38">
     <g id="line2d_44">
      <path d="M 121.065 130.648967 
L 845.205 130.648967 
" clip-path="url(#pbdd9ed70b7)" style="fill: none; stroke-dasharray: 1.85,0.8; stroke-dashoffset: 0; stroke: #cccccc; stroke-opacity: 0.3; stroke-width: 0.5"/>
     </g>
     <g id="text_45">
      <!-- aksq2 -->
      <g style="fill: #262626" transform="translate(79.545625 134.961467) scale(0.12 -0.12)">
       <use xlink:href="#ArialMT-61"/>
       <use xlink:href="#ArialMT-6b" x="55.615234"/>
       <use xlink:href="#ArialMT-73" x="105.615234"/>
       <use xlink:href="#ArialMT-71" x="155.615234"/>
       <use xlink:href="#ArialMT-32" x="211.230469"/>
      </g>
     </g>
    </g>
    <g id="ytick_39">
     <g id="line2d_45">
      <path d="M 121.065 113.635079 
L 845.205 113.635079 
" clip-path="url(#pbdd9ed70b7)" style="fill: none; stroke-dasharray: 1.85,0.8; stroke-dashoffset: 0; stroke: #cccccc; stroke-opacity: 0.3; stroke-width: 0.5"/>
     </g>
     <g id="text_46">
      <!-- aksq4 -->
      <g style="fill: #262626" transform="translate(79.545625 117.929767) scale(0.12 -0.12)">
       <use xlink:href="#ArialMT-61"/>
       <use xlink:href="#ArialMT-6b" x="55.615234"/>
       <use xlink:href="#ArialMT-73" x="105.615234"/>
       <use xlink:href="#ArialMT-71" x="155.615234"/>
       <use xlink:href="#ArialMT-34" x="211.230469"/>
      </g>
     </g>
    </g>
    <g id="ytick_40">
     <g id="line2d_46">
      <path d="M 121.065 96.621191 
L 845.205 96.621191 
" clip-path="url(#pbdd9ed70b7)" style="fill: none; stroke-dasharray: 1.85,0.8; stroke-dashoffset: 0; stroke: #cccccc; stroke-opacity: 0.3; stroke-width: 0.5"/>
     </g>
     <g id="text_47">
      <!-- d2 -->
      <g style="fill: #262626" transform="translate(98.21875 100.915879) scale(0.12 -0.12)">
       <use xlink:href="#ArialMT-64"/>
       <use xlink:href="#ArialMT-32" x="55.615234"/>
      </g>
     </g>
    </g>
    <g id="text_48">
     <!-- Dye -->
     <g style="fill: #262626" transform="translate(17.220938 440.839969) rotate(-90) scale(0.14 -0.14)">
      <defs>
       <path id="ArialMT-44" d="M 494 0 
L 494 4581 
L 2072 4581 
Q 2606 4581 2888 4516 
Q 3281 4425 3559 4188 
Q 3922 3881 4101 3404 
Q 4281 2928 4281 2316 
Q 4281 1794 4159 1391 
Q 4038 988 3847 723 
Q 3656 459 3429 307 
Q 3203 156 2883 78 
Q 2563 0 2147 0 
L 494 0 
z
M 1100 541 
L 2078 541 
Q 2531 541 2789 625 
Q 3047 709 3200 863 
Q 3416 1078 3536 1442 
Q 3656 1806 3656 2325 
Q 3656 3044 3420 3430 
Q 3184 3816 2847 3947 
Q 2603 4041 2063 4041 
L 1100 4041 
L 1100 541 
z
" transform="scale(0.015625)"/>
       <path id="ArialMT-79" d="M 397 -1278 
L 334 -750 
Q 519 -800 656 -800 
Q 844 -800 956 -737 
Q 1069 -675 1141 -563 
Q 1194 -478 1313 -144 
Q 1328 -97 1363 -6 
L 103 3319 
L 709 3319 
L 1400 1397 
Q 1534 1031 1641 628 
Q 1738 1016 1872 1384 
L 2581 3319 
L 3144 3319 
L 1881 -56 
Q 1678 -603 1566 -809 
Q 1416 -1088 1222 -1217 
Q 1028 -1347 759 -1347 
Q 597 -1347 397 -1278 
z
" transform="scale(0.015625)"/>
      </defs>
      <use xlink:href="#ArialMT-44"/>
      <use xlink:href="#ArialMT-79" x="72.216797"/>
      <use xlink:href="#ArialMT-65" x="122.216797"/>
     </g>
    </g>
   </g>
   <g id="patch_3">
    <path d="M 121.065 766.968364 
L 218.494529 766.968364 
L 218.494529 753.357254 
L 121.065 753.357254 
z
" clip-path="url(#pbdd9ed70b7)" style="fill: #2ecc71; opacity: 0.7; stroke: #ffffff; stroke-linejoin: miter"/>
   </g>
   <g id="patch_4">
    <path d="M 121.065 749.954476 
L 223.860924 749.954476 
L 223.860924 736.343366 
L 121.065 736.343366 
z
" clip-path="url(#pbdd9ed70b7)" style="fill: #2ecc71; opacity: 0.7; stroke: #ffffff; stroke-linejoin: miter"/>
   </g>
   <g id="patch_5">
    <path d="M 121.065 732.940588 
L 234.501491 732.940588 
L 234.501491 719.329478 
L 121.065 719.329478 
z
" clip-path="url(#pbdd9ed70b7)" style="fill: #2ecc71; opacity: 0.7; stroke: #ffffff; stroke-linejoin: miter"/>
   </g>
   <g id="patch_6">
    <path d="M 121.065 715.926701 
L 263.306545 715.926701 
L 263.306545 702.315591 
L 121.065 702.315591 
z
" clip-path="url(#pbdd9ed70b7)" style="fill: #2ecc71; opacity: 0.7; stroke: #ffffff; stroke-linejoin: miter"/>
   </g>
   <g id="patch_7">
    <path d="M 121.065 698.912813 
L 269.235831 698.912813 
L 269.235831 685.301703 
L 121.065 685.301703 
z
" clip-path="url(#pbdd9ed70b7)" style="fill: #e74c3c; opacity: 0.7; stroke: #ffffff; stroke-linejoin: miter"/>
   </g>
   <g id="patch_8">
    <path d="M 121.065 681.898926 
L 297.589759 681.898926 
L 297.589759 668.287815 
L 121.065 668.287815 
z
" clip-path="url(#pbdd9ed70b7)" style="fill: #2ecc71; opacity: 0.7; stroke: #ffffff; stroke-linejoin: miter"/>
   </g>
   <g id="patch_9">
    <path d="M 121.065 664.885038 
L 310.280982 664.885038 
L 310.280982 651.273928 
L 121.065 651.273928 
z
" clip-path="url(#pbdd9ed70b7)" style="fill: #2ecc71; opacity: 0.7; stroke: #ffffff; stroke-linejoin: miter"/>
   </g>
   <g id="patch_10">
    <path d="M 121.065 647.87115 
L 324.583523 647.87115 
L 324.583523 634.26004 
L 121.065 634.26004 
z
" clip-path="url(#pbdd9ed70b7)" style="fill: #2ecc71; opacity: 0.7; stroke: #ffffff; stroke-linejoin: miter"/>
   </g>
   <g id="patch_11">
    <path d="M 121.065 630.857263 
L 352.392363 630.857263 
L 352.392363 617.246153 
L 121.065 617.246153 
z
" clip-path="url(#pbdd9ed70b7)" style="fill: #e74c3c; opacity: 0.7; stroke: #ffffff; stroke-linejoin: miter"/>
   </g>
   <g id="patch_12">
    <path d="M 121.065 613.843375 
L 389.691914 613.843375 
L 389.691914 600.232265 
L 121.065 600.232265 
z
" clip-path="url(#pbdd9ed70b7)" style="fill: #2ecc71; opacity: 0.7; stroke: #ffffff; stroke-linejoin: miter"/>
   </g>
   <g id="patch_13">
    <path d="M 121.065 596.829487 
L 398.019795 596.829487 
L 398.019795 583.218377 
L 121.065 583.218377 
z
" clip-path="url(#pbdd9ed70b7)" style="fill: #2ecc71; opacity: 0.7; stroke: #ffffff; stroke-linejoin: miter"/>
   </g>
   <g id="patch_14">
    <path d="M 121.065 579.8156 
L 403.951666 579.8156 
L 403.951666 566.20449 
L 121.065 566.20449 
z
" clip-path="url(#pbdd9ed70b7)" style="fill: #2ecc71; opacity: 0.7; stroke: #ffffff; stroke-linejoin: miter"/>
   </g>
   <g id="patch_15">
    <path d="M 121.065 562.801712 
L 421.858636 562.801712 
L 421.858636 549.190602 
L 121.065 549.190602 
z
" clip-path="url(#pbdd9ed70b7)" style="fill: #2ecc71; opacity: 0.7; stroke: #ffffff; stroke-linejoin: miter"/>
   </g>
   <g id="patch_16">
    <path d="M 121.065 545.787825 
L 427.313475 545.787825 
L 427.313475 532.176714 
L 121.065 532.176714 
z
" clip-path="url(#pbdd9ed70b7)" style="fill: #2ecc71; opacity: 0.7; stroke: #ffffff; stroke-linejoin: miter"/>
   </g>
   <g id="patch_17">
    <path d="M 121.065 528.773937 
L 427.325954 528.773937 
L 427.325954 515.162827 
L 121.065 515.162827 
z
" clip-path="url(#pbdd9ed70b7)" style="fill: #2ecc71; opacity: 0.7; stroke: #ffffff; stroke-linejoin: miter"/>
   </g>
   <g id="patch_18">
    <path d="M 121.065 511.760049 
L 447.661496 511.760049 
L 447.661496 498.148939 
L 121.065 498.148939 
z
" clip-path="url(#pbdd9ed70b7)" style="fill: #2ecc71; opacity: 0.7; stroke: #ffffff; stroke-linejoin: miter"/>
   </g>
   <g id="patch_19">
    <path d="M 121.065 494.746162 
L 448.589025 494.746162 
L 448.589025 481.135052 
L 121.065 481.135052 
z
" clip-path="url(#pbdd9ed70b7)" style="fill: #2ecc71; opacity: 0.7; stroke: #ffffff; stroke-linejoin: miter"/>
   </g>
   <g id="patch_20">
    <path d="M 121.065 477.732274 
L 452.008462 477.732274 
L 452.008462 464.121164 
L 121.065 464.121164 
z
" clip-path="url(#pbdd9ed70b7)" style="fill: #2ecc71; opacity: 0.7; stroke: #ffffff; stroke-linejoin: miter"/>
   </g>
   <g id="patch_21">
    <path d="M 121.065 460.718386 
L 460.10965 460.718386 
L 460.10965 447.107276 
L 121.065 447.107276 
z
" clip-path="url(#pbdd9ed70b7)" style="fill: #2ecc71; opacity: 0.7; stroke: #ffffff; stroke-linejoin: miter"/>
   </g>
   <g id="patch_22">
    <path d="M 121.065 443.704499 
L 485.494249 443.704499 
L 485.494249 430.093389 
L 121.065 430.093389 
z
" clip-path="url(#pbdd9ed70b7)" style="fill: #2ecc71; opacity: 0.7; stroke: #ffffff; stroke-linejoin: miter"/>
   </g>
   <g id="patch_23">
    <path d="M 121.065 426.690611 
L 486.420541 426.690611 
L 486.420541 413.079501 
L 121.065 413.079501 
z
" clip-path="url(#pbdd9ed70b7)" style="fill: #2ecc71; opacity: 0.7; stroke: #ffffff; stroke-linejoin: miter"/>
   </g>
   <g id="patch_24">
    <path d="M 121.065 409.676724 
L 508.213768 409.676724 
L 508.213768 396.065614 
L 121.065 396.065614 
z
" clip-path="url(#pbdd9ed70b7)" style="fill: #2ecc71; opacity: 0.7; stroke: #ffffff; stroke-linejoin: miter"/>
   </g>
   <g id="patch_25">
    <path d="M 121.065 392.662836 
L 514.698388 392.662836 
L 514.698388 379.051726 
L 121.065 379.051726 
z
" clip-path="url(#pbdd9ed70b7)" style="fill: #2ecc71; opacity: 0.7; stroke: #ffffff; stroke-linejoin: miter"/>
   </g>
   <g id="patch_26">
    <path d="M 121.065 375.648948 
L 536.63738 375.648948 
L 536.63738 362.037838 
L 121.065 362.037838 
z
" clip-path="url(#pbdd9ed70b7)" style="fill: #2ecc71; opacity: 0.7; stroke: #ffffff; stroke-linejoin: miter"/>
   </g>
   <g id="patch_27">
    <path d="M 121.065 358.635061 
L 543.453729 358.635061 
L 543.453729 345.023951 
L 121.065 345.023951 
z
" clip-path="url(#pbdd9ed70b7)" style="fill: #2ecc71; opacity: 0.7; stroke: #ffffff; stroke-linejoin: miter"/>
   </g>
   <g id="patch_28">
    <path d="M 121.065 341.621173 
L 560.30103 341.621173 
L 560.30103 328.010063 
L 121.065 328.010063 
z
" clip-path="url(#pbdd9ed70b7)" style="fill: #e74c3c; opacity: 0.7; stroke: #ffffff; stroke-linejoin: miter"/>
   </g>
   <g id="patch_29">
    <path d="M 121.065 324.607286 
L 596.753128 324.607286 
L 596.753128 310.996175 
L 121.065 310.996175 
z
" clip-path="url(#pbdd9ed70b7)" style="fill: #2ecc71; opacity: 0.7; stroke: #ffffff; stroke-linejoin: miter"/>
   </g>
   <g id="patch_30">
    <path d="M 121.065 307.593398 
L 608.72228 307.593398 
L 608.72228 293.982288 
L 121.065 293.982288 
z
" clip-path="url(#pbdd9ed70b7)" style="fill: #2ecc71; opacity: 0.7; stroke: #ffffff; stroke-linejoin: miter"/>
   </g>
   <g id="patch_31">
    <path d="M 121.065 290.57951 
L 651.162369 290.57951 
L 651.162369 276.9684 
L 121.065 276.9684 
z
" clip-path="url(#pbdd9ed70b7)" style="fill: #2ecc71; opacity: 0.7; stroke: #ffffff; stroke-linejoin: miter"/>
   </g>
   <g id="patch_32">
    <path d="M 121.065 273.565623 
L 654.108217 273.565623 
L 654.108217 259.954513 
L 121.065 259.954513 
z
" clip-path="url(#pbdd9ed70b7)" style="fill: #2ecc71; opacity: 0.7; stroke: #ffffff; stroke-linejoin: miter"/>
   </g>
   <g id="patch_33">
    <path d="M 121.065 256.551735 
L 657.300991 256.551735 
L 657.300991 242.940625 
L 121.065 242.940625 
z
" clip-path="url(#pbdd9ed70b7)" style="fill: #2ecc71; opacity: 0.7; stroke: #ffffff; stroke-linejoin: miter"/>
   </g>
   <g id="patch_34">
    <path d="M 121.065 239.537847 
L 672.994067 239.537847 
L 672.994067 225.926737 
L 121.065 225.926737 
z
" clip-path="url(#pbdd9ed70b7)" style="fill: #e74c3c; opacity: 0.7; stroke: #ffffff; stroke-linejoin: miter"/>
   </g>
   <g id="patch_35">
    <path d="M 121.065 222.52396 
L 674.976045 222.52396 
L 674.976045 208.91285 
L 121.065 208.91285 
z
" clip-path="url(#pbdd9ed70b7)" style="fill: #2ecc71; opacity: 0.7; stroke: #ffffff; stroke-linejoin: miter"/>
   </g>
   <g id="patch_36">
    <path d="M 121.065 205.510072 
L 679.600111 205.510072 
L 679.600111 191.898962 
L 121.065 191.898962 
z
" clip-path="url(#pbdd9ed70b7)" style="fill: #2ecc71; opacity: 0.7; stroke: #ffffff; stroke-linejoin: miter"/>
   </g>
   <g id="patch_37">
    <path d="M 121.065 188.496185 
L 688.021281 188.496185 
L 688.021281 174.885074 
L 121.065 174.885074 
z
" clip-path="url(#pbdd9ed70b7)" style="fill: #2ecc71; opacity: 0.7; stroke: #ffffff; stroke-linejoin: miter"/>
   </g>
   <g id="patch_38">
    <path d="M 121.065 171.482297 
L 692.189144 171.482297 
L 692.189144 157.871187 
L 121.065 157.871187 
z
" clip-path="url(#pbdd9ed70b7)" style="fill: #f1c40f; opacity: 0.7; stroke: #ffffff; stroke-linejoin: miter"/>
   </g>
   <g id="patch_39">
    <path d="M 121.065 154.468409 
L 712.569943 154.468409 
L 712.569943 140.857299 
L 121.065 140.857299 
z
" clip-path="url(#pbdd9ed70b7)" style="fill: #f1c40f; opacity: 0.7; stroke: #ffffff; stroke-linejoin: miter"/>
   </g>
   <g id="patch_40">
    <path d="M 121.065 137.454522 
L 748.429219 137.454522 
L 748.429219 123.843412 
L 121.065 123.843412 
z
" clip-path="url(#pbdd9ed70b7)" style="fill: #f1c40f; opacity: 0.7; stroke: #ffffff; stroke-linejoin: miter"/>
   </g>
   <g id="patch_41">
    <path d="M 121.065 120.440634 
L 749.217782 120.440634 
L 749.217782 106.829524 
L 121.065 106.829524 
z
" clip-path="url(#pbdd9ed70b7)" style="fill: #f1c40f; opacity: 0.7; stroke: #ffffff; stroke-linejoin: miter"/>
   </g>
   <g id="patch_42">
    <path d="M 121.065 103.426746 
L 810.722143 103.426746 
L 810.722143 89.815636 
L 121.065 89.815636 
z
" clip-path="url(#pbdd9ed70b7)" style="fill: #f1c40f; opacity: 0.7; stroke: #ffffff; stroke-linejoin: miter"/>
   </g>
   <g id="patch_43">
    <path d="M 121.065 800.826 
L 121.065 55.958 
" style="fill: none; stroke: #cccccc; stroke-width: 1.5; stroke-linejoin: miter; stroke-linecap: square"/>
   </g>
   <g id="patch_44">
    <path d="M 121.065 800.826 
L 845.205 800.826 
" style="fill: none; stroke: #cccccc; stroke-width: 1.5; stroke-linejoin: miter; stroke-linecap: square"/>
   </g>
   <g id="text_49">
    <!-- 0.80% -->
    <g style="fill: #262626" transform="translate(218.494529 762.754996) scale(0.1 -0.1)">
     <defs>
      <path id="Arial-BoldMT-30" d="M 1756 4600 
Q 2422 4600 2797 4125 
Q 3244 3563 3244 2259 
Q 3244 959 2794 391 
Q 2422 -78 1756 -78 
Q 1088 -78 678 436 
Q 269 950 269 2269 
Q 269 3563 719 4131 
Q 1091 4600 1756 4600 
z
M 1756 3872 
Q 1597 3872 1472 3770 
Q 1347 3669 1278 3406 
Q 1188 3066 1188 2259 
Q 1188 1453 1269 1151 
Q 1350 850 1473 750 
Q 1597 650 1756 650 
Q 1916 650 2041 751 
Q 2166 853 2234 1116 
Q 2325 1453 2325 2259 
Q 2325 3066 2244 3367 
Q 2163 3669 2039 3770 
Q 1916 3872 1756 3872 
z
" transform="scale(0.015625)"/>
      <path id="Arial-BoldMT-2e" d="M 459 0 
L 459 878 
L 1338 878 
L 1338 0 
L 459 0 
z
" transform="scale(0.015625)"/>
      <path id="Arial-BoldMT-38" d="M 1025 2472 
Q 684 2616 529 2867 
Q 375 3119 375 3419 
Q 375 3931 733 4265 
Q 1091 4600 1750 4600 
Q 2403 4600 2764 4265 
Q 3125 3931 3125 3419 
Q 3125 3100 2959 2851 
Q 2794 2603 2494 2472 
Q 2875 2319 3073 2025 
Q 3272 1731 3272 1347 
Q 3272 713 2867 316 
Q 2463 -81 1791 -81 
Q 1166 -81 750 247 
Q 259 634 259 1309 
Q 259 1681 443 1992 
Q 628 2303 1025 2472 
z
M 1206 3356 
Q 1206 3094 1354 2947 
Q 1503 2800 1750 2800 
Q 2000 2800 2150 2948 
Q 2300 3097 2300 3359 
Q 2300 3606 2151 3754 
Q 2003 3903 1759 3903 
Q 1506 3903 1356 3753 
Q 1206 3603 1206 3356 
z
M 1125 1394 
Q 1125 1031 1311 828 
Q 1497 625 1775 625 
Q 2047 625 2225 820 
Q 2403 1016 2403 1384 
Q 2403 1706 2222 1901 
Q 2041 2097 1763 2097 
Q 1441 2097 1283 1875 
Q 1125 1653 1125 1394 
z
" transform="scale(0.015625)"/>
      <path id="Arial-BoldMT-25" d="M 278 3450 
Q 278 4066 548 4362 
Q 819 4659 1281 4659 
Q 1759 4659 2029 4364 
Q 2300 4069 2300 3450 
Q 2300 2834 2029 2537 
Q 1759 2241 1297 2241 
Q 819 2241 548 2536 
Q 278 2831 278 3450 
z
M 963 3456 
Q 963 3009 1066 2856 
Q 1144 2744 1281 2744 
Q 1422 2744 1500 2856 
Q 1600 3009 1600 3456 
Q 1600 3903 1500 4053 
Q 1422 4169 1281 4169 
Q 1144 4169 1066 4056 
Q 963 3903 963 3456 
z
M 1950 -175 
L 1300 -175 
L 3741 4659 
L 4372 4659 
L 1950 -175 
z
M 3369 1028 
Q 3369 1644 3639 1941 
Q 3909 2238 4378 2238 
Q 4850 2238 5120 1941 
Q 5391 1644 5391 1028 
Q 5391 409 5120 112 
Q 4850 -184 4388 -184 
Q 3909 -184 3639 112 
Q 3369 409 3369 1028 
z
M 4053 1031 
Q 4053 584 4156 434 
Q 4234 319 4372 319 
Q 4513 319 4588 431 
Q 4691 584 4691 1031 
Q 4691 1478 4591 1631 
Q 4513 1744 4372 1744 
Q 4231 1744 4156 1631 
Q 4053 1478 4053 1031 
z
" transform="scale(0.015625)"/>
     </defs>
     <use xlink:href="#Arial-BoldMT-30"/>
     <use xlink:href="#Arial-BoldMT-2e" x="55.615234"/>
     <use xlink:href="#Arial-BoldMT-38" x="83.398438"/>
     <use xlink:href="#Arial-BoldMT-30" x="139.013672"/>
     <use xlink:href="#Arial-BoldMT-25" x="194.628906"/>
    </g>
   </g>
   <g id="text_50">
    <!-- 0.85% -->
    <g style="fill: #262626" transform="translate(223.860924 745.741108) scale(0.1 -0.1)">
     <defs>
      <path id="Arial-BoldMT-35" d="M 284 1178 
L 1159 1269 
Q 1197 972 1381 798 
Q 1566 625 1806 625 
Q 2081 625 2272 848 
Q 2463 1072 2463 1522 
Q 2463 1944 2273 2155 
Q 2084 2366 1781 2366 
Q 1403 2366 1103 2031 
L 391 2134 
L 841 4519 
L 3163 4519 
L 3163 3697 
L 1506 3697 
L 1369 2919 
Q 1663 3066 1969 3066 
Q 2553 3066 2959 2641 
Q 3366 2216 3366 1538 
Q 3366 972 3038 528 
Q 2591 -78 1797 -78 
Q 1163 -78 763 262 
Q 363 603 284 1178 
z
" transform="scale(0.015625)"/>
     </defs>
     <use xlink:href="#Arial-BoldMT-30"/>
     <use xlink:href="#Arial-BoldMT-2e" x="55.615234"/>
     <use xlink:href="#Arial-BoldMT-38" x="83.398438"/>
     <use xlink:href="#Arial-BoldMT-35" x="139.013672"/>
     <use xlink:href="#Arial-BoldMT-25" x="194.628906"/>
    </g>
   </g>
   <g id="text_51">
    <!-- 0.93% -->
    <g style="fill: #262626" transform="translate(234.501491 728.727221) scale(0.1 -0.1)">
     <defs>
      <path id="Arial-BoldMT-39" d="M 291 1059 
L 1141 1153 
Q 1172 894 1303 769 
Q 1434 644 1650 644 
Q 1922 644 2112 894 
Q 2303 1144 2356 1931 
Q 2025 1547 1528 1547 
Q 988 1547 595 1964 
Q 203 2381 203 3050 
Q 203 3747 617 4173 
Q 1031 4600 1672 4600 
Q 2369 4600 2816 4061 
Q 3263 3522 3263 2288 
Q 3263 1031 2797 475 
Q 2331 -81 1584 -81 
Q 1047 -81 715 205 
Q 384 491 291 1059 
z
M 2278 2978 
Q 2278 3403 2083 3637 
Q 1888 3872 1631 3872 
Q 1388 3872 1227 3680 
Q 1066 3488 1066 3050 
Q 1066 2606 1241 2398 
Q 1416 2191 1678 2191 
Q 1931 2191 2104 2391 
Q 2278 2591 2278 2978 
z
" transform="scale(0.015625)"/>
      <path id="Arial-BoldMT-33" d="M 241 1216 
L 1091 1319 
Q 1131 994 1309 822 
Q 1488 650 1741 650 
Q 2013 650 2198 856 
Q 2384 1063 2384 1413 
Q 2384 1744 2206 1937 
Q 2028 2131 1772 2131 
Q 1603 2131 1369 2066 
L 1466 2781 
Q 1822 2772 2009 2936 
Q 2197 3100 2197 3372 
Q 2197 3603 2059 3740 
Q 1922 3878 1694 3878 
Q 1469 3878 1309 3722 
Q 1150 3566 1116 3266 
L 306 3403 
Q 391 3819 561 4067 
Q 731 4316 1036 4458 
Q 1341 4600 1719 4600 
Q 2366 4600 2756 4188 
Q 3078 3850 3078 3425 
Q 3078 2822 2419 2463 
Q 2813 2378 3048 2084 
Q 3284 1791 3284 1375 
Q 3284 772 2843 347 
Q 2403 -78 1747 -78 
Q 1125 -78 715 280 
Q 306 638 241 1216 
z
" transform="scale(0.015625)"/>
     </defs>
     <use xlink:href="#Arial-BoldMT-30"/>
     <use xlink:href="#Arial-BoldMT-2e" x="55.615234"/>
     <use xlink:href="#Arial-BoldMT-39" x="83.398438"/>
     <use xlink:href="#Arial-BoldMT-33" x="139.013672"/>
     <use xlink:href="#Arial-BoldMT-25" x="194.628906"/>
    </g>
   </g>
   <g id="text_52">
    <!-- 1.17% -->
    <g style="fill: #262626" transform="translate(263.306545 711.713333) scale(0.1 -0.1)">
     <defs>
      <path id="Arial-BoldMT-31" d="M 2519 0 
L 1641 0 
L 1641 3309 
Q 1159 2859 506 2644 
L 506 3441 
Q 850 3553 1253 3867 
Q 1656 4181 1806 4600 
L 2519 4600 
L 2519 0 
z
" transform="scale(0.015625)"/>
      <path id="Arial-BoldMT-37" d="M 272 3703 
L 272 4519 
L 3275 4519 
L 3275 3881 
Q 2903 3516 2518 2831 
Q 2134 2147 1932 1376 
Q 1731 606 1734 0 
L 888 0 
Q 909 950 1279 1937 
Q 1650 2925 2269 3703 
L 272 3703 
z
" transform="scale(0.015625)"/>
     </defs>
     <use xlink:href="#Arial-BoldMT-31"/>
     <use xlink:href="#Arial-BoldMT-2e" x="55.615234"/>
     <use xlink:href="#Arial-BoldMT-31" x="83.398438"/>
     <use xlink:href="#Arial-BoldMT-37" x="139.013672"/>
     <use xlink:href="#Arial-BoldMT-25" x="194.628906"/>
    </g>
   </g>
   <g id="text_53">
    <!-- 1.22% -->
    <g style="fill: #262626" transform="translate(269.235831 694.699446) scale(0.1 -0.1)">
     <defs>
      <path id="Arial-BoldMT-32" d="M 3238 816 
L 3238 0 
L 159 0 
Q 209 463 459 877 
Q 709 1291 1447 1975 
Q 2041 2528 2175 2725 
Q 2356 2997 2356 3263 
Q 2356 3556 2198 3714 
Q 2041 3872 1763 3872 
Q 1488 3872 1325 3706 
Q 1163 3541 1138 3156 
L 263 3244 
Q 341 3969 753 4284 
Q 1166 4600 1784 4600 
Q 2463 4600 2850 4234 
Q 3238 3869 3238 3325 
Q 3238 3016 3127 2736 
Q 3016 2456 2775 2150 
Q 2616 1947 2200 1565 
Q 1784 1184 1673 1059 
Q 1563 934 1494 816 
L 3238 816 
z
" transform="scale(0.015625)"/>
     </defs>
     <use xlink:href="#Arial-BoldMT-31"/>
     <use xlink:href="#Arial-BoldMT-2e" x="55.615234"/>
     <use xlink:href="#Arial-BoldMT-32" x="83.398438"/>
     <use xlink:href="#Arial-BoldMT-32" x="139.013672"/>
     <use xlink:href="#Arial-BoldMT-25" x="194.628906"/>
    </g>
   </g>
   <g id="text_54">
    <!-- 1.45% -->
    <g style="fill: #262626" transform="translate(297.589759 677.685558) scale(0.1 -0.1)">
     <defs>
      <path id="Arial-BoldMT-34" d="M 1994 0 
L 1994 922 
L 119 922 
L 119 1691 
L 2106 4600 
L 2844 4600 
L 2844 1694 
L 3413 1694 
L 3413 922 
L 2844 922 
L 2844 0 
L 1994 0 
z
M 1994 1694 
L 1994 3259 
L 941 1694 
L 1994 1694 
z
" transform="scale(0.015625)"/>
     </defs>
     <use xlink:href="#Arial-BoldMT-31"/>
     <use xlink:href="#Arial-BoldMT-2e" x="55.615234"/>
     <use xlink:href="#Arial-BoldMT-34" x="83.398438"/>
     <use xlink:href="#Arial-BoldMT-35" x="139.013672"/>
     <use xlink:href="#Arial-BoldMT-25" x="194.628906"/>
    </g>
   </g>
   <g id="text_55">
    <!-- 1.56% -->
    <g style="fill: #262626" transform="translate(310.280982 660.67167) scale(0.1 -0.1)">
     <defs>
      <path id="Arial-BoldMT-36" d="M 3247 3459 
L 2397 3366 
Q 2366 3628 2234 3753 
Q 2103 3878 1894 3878 
Q 1616 3878 1423 3628 
Q 1231 3378 1181 2588 
Q 1509 2975 1997 2975 
Q 2547 2975 2939 2556 
Q 3331 2138 3331 1475 
Q 3331 772 2918 347 
Q 2506 -78 1859 -78 
Q 1166 -78 719 461 
Q 272 1000 272 2228 
Q 272 3488 737 4044 
Q 1203 4600 1947 4600 
Q 2469 4600 2811 4308 
Q 3153 4016 3247 3459 
z
M 1256 1544 
Q 1256 1116 1453 883 
Q 1650 650 1903 650 
Q 2147 650 2309 840 
Q 2472 1031 2472 1466 
Q 2472 1913 2297 2120 
Q 2122 2328 1859 2328 
Q 1606 2328 1431 2129 
Q 1256 1931 1256 1544 
z
" transform="scale(0.015625)"/>
     </defs>
     <use xlink:href="#Arial-BoldMT-31"/>
     <use xlink:href="#Arial-BoldMT-2e" x="55.615234"/>
     <use xlink:href="#Arial-BoldMT-35" x="83.398438"/>
     <use xlink:href="#Arial-BoldMT-36" x="139.013672"/>
     <use xlink:href="#Arial-BoldMT-25" x="194.628906"/>
    </g>
   </g>
   <g id="text_56">
    <!-- 1.67% -->
    <g style="fill: #262626" transform="translate(324.583523 643.657783) scale(0.1 -0.1)">
     <use xlink:href="#Arial-BoldMT-31"/>
     <use xlink:href="#Arial-BoldMT-2e" x="55.615234"/>
     <use xlink:href="#Arial-BoldMT-36" x="83.398438"/>
     <use xlink:href="#Arial-BoldMT-37" x="139.013672"/>
     <use xlink:href="#Arial-BoldMT-25" x="194.628906"/>
    </g>
   </g>
   <g id="text_57">
    <!-- 1.90% -->
    <g style="fill: #262626" transform="translate(352.392363 626.643895) scale(0.1 -0.1)">
     <use xlink:href="#Arial-BoldMT-31"/>
     <use xlink:href="#Arial-BoldMT-2e" x="55.615234"/>
     <use xlink:href="#Arial-BoldMT-39" x="83.398438"/>
     <use xlink:href="#Arial-BoldMT-30" x="139.013672"/>
     <use xlink:href="#Arial-BoldMT-25" x="194.628906"/>
    </g>
   </g>
   <g id="text_58">
    <!-- 2.21% -->
    <g style="fill: #262626" transform="translate(389.691914 609.630008) scale(0.1 -0.1)">
     <use xlink:href="#Arial-BoldMT-32"/>
     <use xlink:href="#Arial-BoldMT-2e" x="55.615234"/>
     <use xlink:href="#Arial-BoldMT-32" x="83.398438"/>
     <use xlink:href="#Arial-BoldMT-31" x="139.013672"/>
     <use xlink:href="#Arial-BoldMT-25" x="194.628906"/>
    </g>
   </g>
   <g id="text_59">
    <!-- 2.28% -->
    <g style="fill: #262626" transform="translate(398.019795 592.61612) scale(0.1 -0.1)">
     <use xlink:href="#Arial-BoldMT-32"/>
     <use xlink:href="#Arial-BoldMT-2e" x="55.615234"/>
     <use xlink:href="#Arial-BoldMT-32" x="83.398438"/>
     <use xlink:href="#Arial-BoldMT-38" x="139.013672"/>
     <use xlink:href="#Arial-BoldMT-25" x="194.628906"/>
    </g>
   </g>
   <g id="text_60">
    <!-- 2.33% -->
    <g style="fill: #262626" transform="translate(403.951666 575.602232) scale(0.1 -0.1)">
     <use xlink:href="#Arial-BoldMT-32"/>
     <use xlink:href="#Arial-BoldMT-2e" x="55.615234"/>
     <use xlink:href="#Arial-BoldMT-33" x="83.398438"/>
     <use xlink:href="#Arial-BoldMT-33" x="139.013672"/>
     <use xlink:href="#Arial-BoldMT-25" x="194.628906"/>
    </g>
   </g>
   <g id="text_61">
    <!-- 2.47% -->
    <g style="fill: #262626" transform="translate(421.858636 558.588345) scale(0.1 -0.1)">
     <use xlink:href="#Arial-BoldMT-32"/>
     <use xlink:href="#Arial-BoldMT-2e" x="55.615234"/>
     <use xlink:href="#Arial-BoldMT-34" x="83.398438"/>
     <use xlink:href="#Arial-BoldMT-37" x="139.013672"/>
     <use xlink:href="#Arial-BoldMT-25" x="194.628906"/>
    </g>
   </g>
   <g id="text_62">
    <!-- 2.52% -->
    <g style="fill: #262626" transform="translate(427.313475 541.574457) scale(0.1 -0.1)">
     <use xlink:href="#Arial-BoldMT-32"/>
     <use xlink:href="#Arial-BoldMT-2e" x="55.615234"/>
     <use xlink:href="#Arial-BoldMT-35" x="83.398438"/>
     <use xlink:href="#Arial-BoldMT-32" x="139.013672"/>
     <use xlink:href="#Arial-BoldMT-25" x="194.628906"/>
    </g>
   </g>
   <g id="text_63">
    <!-- 2.52% -->
    <g style="fill: #262626" transform="translate(427.325954 524.560569) scale(0.1 -0.1)">
     <use xlink:href="#Arial-BoldMT-32"/>
     <use xlink:href="#Arial-BoldMT-2e" x="55.615234"/>
     <use xlink:href="#Arial-BoldMT-35" x="83.398438"/>
     <use xlink:href="#Arial-BoldMT-32" x="139.013672"/>
     <use xlink:href="#Arial-BoldMT-25" x="194.628906"/>
    </g>
   </g>
   <g id="text_64">
    <!-- 2.69% -->
    <g style="fill: #262626" transform="translate(447.661496 507.546682) scale(0.1 -0.1)">
     <use xlink:href="#Arial-BoldMT-32"/>
     <use xlink:href="#Arial-BoldMT-2e" x="55.615234"/>
     <use xlink:href="#Arial-BoldMT-36" x="83.398438"/>
     <use xlink:href="#Arial-BoldMT-39" x="139.013672"/>
     <use xlink:href="#Arial-BoldMT-25" x="194.628906"/>
    </g>
   </g>
   <g id="text_65">
    <!-- 2.69% -->
    <g style="fill: #262626" transform="translate(448.589025 490.532794) scale(0.1 -0.1)">
     <use xlink:href="#Arial-BoldMT-32"/>
     <use xlink:href="#Arial-BoldMT-2e" x="55.615234"/>
     <use xlink:href="#Arial-BoldMT-36" x="83.398438"/>
     <use xlink:href="#Arial-BoldMT-39" x="139.013672"/>
     <use xlink:href="#Arial-BoldMT-25" x="194.628906"/>
    </g>
   </g>
   <g id="text_66">
    <!-- 2.72% -->
    <g style="fill: #262626" transform="translate(452.008462 473.518907) scale(0.1 -0.1)">
     <use xlink:href="#Arial-BoldMT-32"/>
     <use xlink:href="#Arial-BoldMT-2e" x="55.615234"/>
     <use xlink:href="#Arial-BoldMT-37" x="83.398438"/>
     <use xlink:href="#Arial-BoldMT-32" x="139.013672"/>
     <use xlink:href="#Arial-BoldMT-25" x="194.628906"/>
    </g>
   </g>
   <g id="text_67">
    <!-- 2.79% -->
    <g style="fill: #262626" transform="translate(460.10965 456.505019) scale(0.1 -0.1)">
     <use xlink:href="#Arial-BoldMT-32"/>
     <use xlink:href="#Arial-BoldMT-2e" x="55.615234"/>
     <use xlink:href="#Arial-BoldMT-37" x="83.398438"/>
     <use xlink:href="#Arial-BoldMT-39" x="139.013672"/>
     <use xlink:href="#Arial-BoldMT-25" x="194.628906"/>
    </g>
   </g>
   <g id="text_68">
    <!-- 3.00% -->
    <g style="fill: #262626" transform="translate(485.494249 439.491131) scale(0.1 -0.1)">
     <use xlink:href="#Arial-BoldMT-33"/>
     <use xlink:href="#Arial-BoldMT-2e" x="55.615234"/>
     <use xlink:href="#Arial-BoldMT-30" x="83.398438"/>
     <use xlink:href="#Arial-BoldMT-30" x="139.013672"/>
     <use xlink:href="#Arial-BoldMT-25" x="194.628906"/>
    </g>
   </g>
   <g id="text_69">
    <!-- 3.01% -->
    <g style="fill: #262626" transform="translate(486.420541 422.477244) scale(0.1 -0.1)">
     <use xlink:href="#Arial-BoldMT-33"/>
     <use xlink:href="#Arial-BoldMT-2e" x="55.615234"/>
     <use xlink:href="#Arial-BoldMT-30" x="83.398438"/>
     <use xlink:href="#Arial-BoldMT-31" x="139.013672"/>
     <use xlink:href="#Arial-BoldMT-25" x="194.628906"/>
    </g>
   </g>
   <g id="text_70">
    <!-- 3.18% -->
    <g style="fill: #262626" transform="translate(508.213768 405.463356) scale(0.1 -0.1)">
     <use xlink:href="#Arial-BoldMT-33"/>
     <use xlink:href="#Arial-BoldMT-2e" x="55.615234"/>
     <use xlink:href="#Arial-BoldMT-31" x="83.398438"/>
     <use xlink:href="#Arial-BoldMT-38" x="139.013672"/>
     <use xlink:href="#Arial-BoldMT-25" x="194.628906"/>
    </g>
   </g>
   <g id="text_71">
    <!-- 3.24% -->
    <g style="fill: #262626" transform="translate(514.698388 388.449468) scale(0.1 -0.1)">
     <use xlink:href="#Arial-BoldMT-33"/>
     <use xlink:href="#Arial-BoldMT-2e" x="55.615234"/>
     <use xlink:href="#Arial-BoldMT-32" x="83.398438"/>
     <use xlink:href="#Arial-BoldMT-34" x="139.013672"/>
     <use xlink:href="#Arial-BoldMT-25" x="194.628906"/>
    </g>
   </g>
   <g id="text_72">
    <!-- 3.42% -->
    <g style="fill: #262626" transform="translate(536.63738 371.435581) scale(0.1 -0.1)">
     <use xlink:href="#Arial-BoldMT-33"/>
     <use xlink:href="#Arial-BoldMT-2e" x="55.615234"/>
     <use xlink:href="#Arial-BoldMT-34" x="83.398438"/>
     <use xlink:href="#Arial-BoldMT-32" x="139.013672"/>
     <use xlink:href="#Arial-BoldMT-25" x="194.628906"/>
    </g>
   </g>
   <g id="text_73">
    <!-- 3.47% -->
    <g style="fill: #262626" transform="translate(543.453729 354.421693) scale(0.1 -0.1)">
     <use xlink:href="#Arial-BoldMT-33"/>
     <use xlink:href="#Arial-BoldMT-2e" x="55.615234"/>
     <use xlink:href="#Arial-BoldMT-34" x="83.398438"/>
     <use xlink:href="#Arial-BoldMT-37" x="139.013672"/>
     <use xlink:href="#Arial-BoldMT-25" x="194.628906"/>
    </g>
   </g>
   <g id="text_74">
    <!-- 3.61% -->
    <g style="fill: #262626" transform="translate(560.30103 337.407806) scale(0.1 -0.1)">
     <use xlink:href="#Arial-BoldMT-33"/>
     <use xlink:href="#Arial-BoldMT-2e" x="55.615234"/>
     <use xlink:href="#Arial-BoldMT-36" x="83.398438"/>
     <use xlink:href="#Arial-BoldMT-31" x="139.013672"/>
     <use xlink:href="#Arial-BoldMT-25" x="194.628906"/>
    </g>
   </g>
   <g id="text_75">
    <!-- 3.91% -->
    <g style="fill: #262626" transform="translate(596.753128 320.393918) scale(0.1 -0.1)">
     <use xlink:href="#Arial-BoldMT-33"/>
     <use xlink:href="#Arial-BoldMT-2e" x="55.615234"/>
     <use xlink:href="#Arial-BoldMT-39" x="83.398438"/>
     <use xlink:href="#Arial-BoldMT-31" x="139.013672"/>
     <use xlink:href="#Arial-BoldMT-25" x="194.628906"/>
    </g>
   </g>
   <g id="text_76">
    <!-- 4.01% -->
    <g style="fill: #262626" transform="translate(608.72228 303.38003) scale(0.1 -0.1)">
     <use xlink:href="#Arial-BoldMT-34"/>
     <use xlink:href="#Arial-BoldMT-2e" x="55.615234"/>
     <use xlink:href="#Arial-BoldMT-30" x="83.398438"/>
     <use xlink:href="#Arial-BoldMT-31" x="139.013672"/>
     <use xlink:href="#Arial-BoldMT-25" x="194.628906"/>
    </g>
   </g>
   <g id="text_77">
    <!-- 4.36% -->
    <g style="fill: #262626" transform="translate(651.162369 286.366143) scale(0.1 -0.1)">
     <use xlink:href="#Arial-BoldMT-34"/>
     <use xlink:href="#Arial-BoldMT-2e" x="55.615234"/>
     <use xlink:href="#Arial-BoldMT-33" x="83.398438"/>
     <use xlink:href="#Arial-BoldMT-36" x="139.013672"/>
     <use xlink:href="#Arial-BoldMT-25" x="194.628906"/>
    </g>
   </g>
   <g id="text_78">
    <!-- 4.38% -->
    <g style="fill: #262626" transform="translate(654.108217 269.352255) scale(0.1 -0.1)">
     <use xlink:href="#Arial-BoldMT-34"/>
     <use xlink:href="#Arial-BoldMT-2e" x="55.615234"/>
     <use xlink:href="#Arial-BoldMT-33" x="83.398438"/>
     <use xlink:href="#Arial-BoldMT-38" x="139.013672"/>
     <use xlink:href="#Arial-BoldMT-25" x="194.628906"/>
    </g>
   </g>
   <g id="text_79">
    <!-- 4.41% -->
    <g style="fill: #262626" transform="translate(657.300991 252.338367) scale(0.1 -0.1)">
     <use xlink:href="#Arial-BoldMT-34"/>
     <use xlink:href="#Arial-BoldMT-2e" x="55.615234"/>
     <use xlink:href="#Arial-BoldMT-34" x="83.398438"/>
     <use xlink:href="#Arial-BoldMT-31" x="139.013672"/>
     <use xlink:href="#Arial-BoldMT-25" x="194.628906"/>
    </g>
   </g>
   <g id="text_80">
    <!-- 4.54% -->
    <g style="fill: #262626" transform="translate(672.994067 235.32448) scale(0.1 -0.1)">
     <use xlink:href="#Arial-BoldMT-34"/>
     <use xlink:href="#Arial-BoldMT-2e" x="55.615234"/>
     <use xlink:href="#Arial-BoldMT-35" x="83.398438"/>
     <use xlink:href="#Arial-BoldMT-34" x="139.013672"/>
     <use xlink:href="#Arial-BoldMT-25" x="194.628906"/>
    </g>
   </g>
   <g id="text_81">
    <!-- 4.56% -->
    <g style="fill: #262626" transform="translate(674.976045 218.310592) scale(0.1 -0.1)">
     <use xlink:href="#Arial-BoldMT-34"/>
     <use xlink:href="#Arial-BoldMT-2e" x="55.615234"/>
     <use xlink:href="#Arial-BoldMT-35" x="83.398438"/>
     <use xlink:href="#Arial-BoldMT-36" x="139.013672"/>
     <use xlink:href="#Arial-BoldMT-25" x="194.628906"/>
    </g>
   </g>
   <g id="text_82">
    <!-- 4.59% -->
    <g style="fill: #262626" transform="translate(679.600111 201.296705) scale(0.1 -0.1)">
     <use xlink:href="#Arial-BoldMT-34"/>
     <use xlink:href="#Arial-BoldMT-2e" x="55.615234"/>
     <use xlink:href="#Arial-BoldMT-35" x="83.398438"/>
     <use xlink:href="#Arial-BoldMT-39" x="139.013672"/>
     <use xlink:href="#Arial-BoldMT-25" x="194.628906"/>
    </g>
   </g>
   <g id="text_83">
    <!-- 4.66% -->
    <g style="fill: #262626" transform="translate(688.021281 184.282817) scale(0.1 -0.1)">
     <use xlink:href="#Arial-BoldMT-34"/>
     <use xlink:href="#Arial-BoldMT-2e" x="55.615234"/>
     <use xlink:href="#Arial-BoldMT-36" x="83.398438"/>
     <use xlink:href="#Arial-BoldMT-36" x="139.013672"/>
     <use xlink:href="#Arial-BoldMT-25" x="194.628906"/>
    </g>
   </g>
   <g id="text_84">
    <!-- 4.70% -->
    <g style="fill: #262626" transform="translate(692.189144 167.268929) scale(0.1 -0.1)">
     <use xlink:href="#Arial-BoldMT-34"/>
     <use xlink:href="#Arial-BoldMT-2e" x="55.615234"/>
     <use xlink:href="#Arial-BoldMT-37" x="83.398438"/>
     <use xlink:href="#Arial-BoldMT-30" x="139.013672"/>
     <use xlink:href="#Arial-BoldMT-25" x="194.628906"/>
    </g>
   </g>
   <g id="text_85">
    <!-- 4.87% -->
    <g style="fill: #262626" transform="translate(712.569943 150.255042) scale(0.1 -0.1)">
     <use xlink:href="#Arial-BoldMT-34"/>
     <use xlink:href="#Arial-BoldMT-2e" x="55.615234"/>
     <use xlink:href="#Arial-BoldMT-38" x="83.398438"/>
     <use xlink:href="#Arial-BoldMT-37" x="139.013672"/>
     <use xlink:href="#Arial-BoldMT-25" x="194.628906"/>
    </g>
   </g>
   <g id="text_86">
    <!-- 5.16% -->
    <g style="fill: #262626" transform="translate(748.429219 133.241154) scale(0.1 -0.1)">
     <use xlink:href="#Arial-BoldMT-35"/>
     <use xlink:href="#Arial-BoldMT-2e" x="55.615234"/>
     <use xlink:href="#Arial-BoldMT-31" x="83.398438"/>
     <use xlink:href="#Arial-BoldMT-36" x="139.013672"/>
     <use xlink:href="#Arial-BoldMT-25" x="194.628906"/>
    </g>
   </g>
   <g id="text_87">
    <!-- 5.17% -->
    <g style="fill: #262626" transform="translate(749.217782 116.227267) scale(0.1 -0.1)">
     <use xlink:href="#Arial-BoldMT-35"/>
     <use xlink:href="#Arial-BoldMT-2e" x="55.615234"/>
     <use xlink:href="#Arial-BoldMT-31" x="83.398438"/>
     <use xlink:href="#Arial-BoldMT-37" x="139.013672"/>
     <use xlink:href="#Arial-BoldMT-25" x="194.628906"/>
    </g>
   </g>
   <g id="text_88">
    <!-- 5.67% -->
    <g style="fill: #262626" transform="translate(810.722143 99.213379) scale(0.1 -0.1)">
     <use xlink:href="#Arial-BoldMT-35"/>
     <use xlink:href="#Arial-BoldMT-2e" x="55.615234"/>
     <use xlink:href="#Arial-BoldMT-36" x="83.398438"/>
     <use xlink:href="#Arial-BoldMT-37" x="139.013672"/>
     <use xlink:href="#Arial-BoldMT-25" x="194.628906"/>
    </g>
   </g>
   <g id="text_89">
    <!-- Ranking of Dyes by Predicted PCE -->
    <g style="fill: #262626" transform="translate(359.08125 18.8475) scale(0.16 -0.16)">
     <defs>
      <path id="ArialMT-52" d="M 503 0 
L 503 4581 
L 2534 4581 
Q 3147 4581 3465 4457 
Q 3784 4334 3975 4021 
Q 4166 3709 4166 3331 
Q 4166 2844 3850 2509 
Q 3534 2175 2875 2084 
Q 3116 1969 3241 1856 
Q 3506 1613 3744 1247 
L 4541 0 
L 3778 0 
L 3172 953 
Q 2906 1366 2734 1584 
Q 2563 1803 2427 1890 
Q 2291 1978 2150 2013 
Q 2047 2034 1813 2034 
L 1109 2034 
L 1109 0 
L 503 0 
z
M 1109 2559 
L 2413 2559 
Q 2828 2559 3062 2645 
Q 3297 2731 3419 2920 
Q 3541 3109 3541 3331 
Q 3541 3656 3305 3865 
Q 3069 4075 2559 4075 
L 1109 4075 
L 1109 2559 
z
" transform="scale(0.015625)"/>
      <path id="ArialMT-67" d="M 319 -275 
L 866 -356 
Q 900 -609 1056 -725 
Q 1266 -881 1628 -881 
Q 2019 -881 2231 -725 
Q 2444 -569 2519 -288 
Q 2563 -116 2559 434 
Q 2191 0 1641 0 
Q 956 0 581 494 
Q 206 988 206 1678 
Q 206 2153 378 2554 
Q 550 2956 876 3175 
Q 1203 3394 1644 3394 
Q 2231 3394 2613 2919 
L 2613 3319 
L 3131 3319 
L 3131 450 
Q 3131 -325 2973 -648 
Q 2816 -972 2473 -1159 
Q 2131 -1347 1631 -1347 
Q 1038 -1347 672 -1080 
Q 306 -813 319 -275 
z
M 784 1719 
Q 784 1066 1043 766 
Q 1303 466 1694 466 
Q 2081 466 2343 764 
Q 2606 1063 2606 1700 
Q 2606 2309 2336 2618 
Q 2066 2928 1684 2928 
Q 1309 2928 1046 2623 
Q 784 2319 784 1719 
z
" transform="scale(0.015625)"/>
     </defs>
     <use xlink:href="#ArialMT-52"/>
     <use xlink:href="#ArialMT-61" x="72.216797"/>
     <use xlink:href="#ArialMT-6e" x="127.832031"/>
     <use xlink:href="#ArialMT-6b" x="183.447266"/>
     <use xlink:href="#ArialMT-69" x="233.447266"/>
     <use xlink:href="#ArialMT-6e" x="255.664062"/>
     <use xlink:href="#ArialMT-67" x="311.279297"/>
     <use xlink:href="#ArialMT-20" x="366.894531"/>
     <use xlink:href="#ArialMT-6f" x="394.677734"/>
     <use xlink:href="#ArialMT-66" x="450.292969"/>
     <use xlink:href="#ArialMT-20" x="478.076172"/>
     <use xlink:href="#ArialMT-44" x="505.859375"/>
     <use xlink:href="#ArialMT-79" x="578.076172"/>
     <use xlink:href="#ArialMT-65" x="628.076172"/>
     <use xlink:href="#ArialMT-73" x="683.691406"/>
     <use xlink:href="#ArialMT-20" x="733.691406"/>
     <use xlink:href="#ArialMT-62" x="761.474609"/>
     <use xlink:href="#ArialMT-79" x="817.089844"/>
     <use xlink:href="#ArialMT-20" x="867.089844"/>
     <use xlink:href="#ArialMT-50" x="894.873047"/>
     <use xlink:href="#ArialMT-72" x="961.572266"/>
     <use xlink:href="#ArialMT-65" x="994.873047"/>
     <use xlink:href="#ArialMT-64" x="1050.488281"/>
     <use xlink:href="#ArialMT-69" x="1106.103516"/>
     <use xlink:href="#ArialMT-63" x="1128.320312"/>
     <use xlink:href="#ArialMT-74" x="1178.320312"/>
     <use xlink:href="#ArialMT-65" x="1206.103516"/>
     <use xlink:href="#ArialMT-64" x="1261.71875"/>
     <use xlink:href="#ArialMT-20" x="1317.333984"/>
     <use xlink:href="#ArialMT-50" x="1345.117188"/>
     <use xlink:href="#ArialMT-43" x="1411.816406"/>
     <use xlink:href="#ArialMT-45" x="1484.033203"/>
    </g>
    <!-- ENSEMBLE -->
    <g style="fill: #262626" transform="translate(439.56375 35.958) scale(0.16 -0.16)">
     <defs>
      <path id="ArialMT-4e" d="M 488 0 
L 488 4581 
L 1109 4581 
L 3516 984 
L 3516 4581 
L 4097 4581 
L 4097 0 
L 3475 0 
L 1069 3600 
L 1069 0 
L 488 0 
z
" transform="scale(0.015625)"/>
      <path id="ArialMT-53" d="M 288 1472 
L 859 1522 
Q 900 1178 1048 958 
Q 1197 738 1509 602 
Q 1822 466 2213 466 
Q 2559 466 2825 569 
Q 3091 672 3220 851 
Q 3350 1031 3350 1244 
Q 3350 1459 3225 1620 
Q 3100 1781 2813 1891 
Q 2628 1963 1997 2114 
Q 1366 2266 1113 2400 
Q 784 2572 623 2826 
Q 463 3081 463 3397 
Q 463 3744 659 4045 
Q 856 4347 1234 4503 
Q 1613 4659 2075 4659 
Q 2584 4659 2973 4495 
Q 3363 4331 3572 4012 
Q 3781 3694 3797 3291 
L 3216 3247 
Q 3169 3681 2898 3903 
Q 2628 4125 2100 4125 
Q 1550 4125 1298 3923 
Q 1047 3722 1047 3438 
Q 1047 3191 1225 3031 
Q 1400 2872 2139 2705 
Q 2878 2538 3153 2413 
Q 3553 2228 3743 1945 
Q 3934 1663 3934 1294 
Q 3934 928 3725 604 
Q 3516 281 3123 101 
Q 2731 -78 2241 -78 
Q 1619 -78 1198 103 
Q 778 284 539 648 
Q 300 1013 288 1472 
z
" transform="scale(0.015625)"/>
      <path id="ArialMT-4d" d="M 475 0 
L 475 4581 
L 1388 4581 
L 2472 1338 
Q 2622 884 2691 659 
Q 2769 909 2934 1394 
L 4031 4581 
L 4847 4581 
L 4847 0 
L 4263 0 
L 4263 3834 
L 2931 0 
L 2384 0 
L 1059 3900 
L 1059 0 
L 475 0 
z
" transform="scale(0.015625)"/>
      <path id="ArialMT-42" d="M 469 0 
L 469 4581 
L 2188 4581 
Q 2713 4581 3030 4442 
Q 3347 4303 3526 4014 
Q 3706 3725 3706 3409 
Q 3706 3116 3547 2856 
Q 3388 2597 3066 2438 
Q 3481 2316 3704 2022 
Q 3928 1728 3928 1328 
Q 3928 1006 3792 729 
Q 3656 453 3456 303 
Q 3256 153 2954 76 
Q 2653 0 2216 0 
L 469 0 
z
M 1075 2656 
L 2066 2656 
Q 2469 2656 2644 2709 
Q 2875 2778 2992 2937 
Q 3109 3097 3109 3338 
Q 3109 3566 3000 3739 
Q 2891 3913 2687 3977 
Q 2484 4041 1991 4041 
L 1075 4041 
L 1075 2656 
z
M 1075 541 
L 2216 541 
Q 2509 541 2628 563 
Q 2838 600 2978 687 
Q 3119 775 3209 942 
Q 3300 1109 3300 1328 
Q 3300 1584 3169 1773 
Q 3038 1963 2805 2039 
Q 2572 2116 2134 2116 
L 1075 2116 
L 1075 541 
z
" transform="scale(0.015625)"/>
      <path id="ArialMT-4c" d="M 469 0 
L 469 4581 
L 1075 4581 
L 1075 541 
L 3331 541 
L 3331 0 
L 469 0 
z
" transform="scale(0.015625)"/>
     </defs>
     <use xlink:href="#ArialMT-45"/>
     <use xlink:href="#ArialMT-4e" x="66.699219"/>
     <use xlink:href="#ArialMT-53" x="138.916016"/>
     <use xlink:href="#ArialMT-45" x="205.615234"/>
     <use xlink:href="#ArialMT-4d" x="272.314453"/>
     <use xlink:href="#ArialMT-42" x="355.615234"/>
     <use xlink:href="#ArialMT-4c" x="422.314453"/>
     <use xlink:href="#ArialMT-45" x="477.929688"/>
    </g>
   </g>
   <g id="legend_1">
    <g id="patch_45">
     <path d="M 734.16 794.826 
L 836.805 794.826 
Q 839.205 794.826 839.205 792.426 
L 839.205 742.129125 
Q 839.205 739.729125 836.805 739.729125 
L 734.16 739.729125 
Q 731.76 739.729125 731.76 742.129125 
L 731.76 792.426 
Q 731.76 794.826 734.16 794.826 
z
" style="fill: #ffffff; opacity: 0.8; stroke: #cccccc; stroke-linejoin: miter"/>
    </g>
    <g id="patch_46">
     <path d="M 736.56 753.26475 
L 760.56 753.26475 
L 760.56 744.86475 
L 736.56 744.86475 
z
" style="fill: #2ecc71; opacity: 0.7; stroke: #ffffff; stroke-linejoin: miter"/>
    </g>
    <g id="text_90">
     <!-- Training Set -->
     <g style="fill: #262626" transform="translate(770.16 753.26475) scale(0.12 -0.12)">
      <defs>
       <path id="ArialMT-54" d="M 1659 0 
L 1659 4041 
L 150 4041 
L 150 4581 
L 3781 4581 
L 3781 4041 
L 2266 4041 
L 2266 0 
L 1659 0 
z
" transform="scale(0.015625)"/>
      </defs>
      <use xlink:href="#ArialMT-54"/>
      <use xlink:href="#ArialMT-72" x="57.333984"/>
      <use xlink:href="#ArialMT-61" x="90.634766"/>
      <use xlink:href="#ArialMT-69" x="146.25"/>
      <use xlink:href="#ArialMT-6e" x="168.466797"/>
      <use xlink:href="#ArialMT-69" x="224.082031"/>
      <use xlink:href="#ArialMT-6e" x="246.298828"/>
      <use xlink:href="#ArialMT-67" x="301.914062"/>
      <use xlink:href="#ArialMT-20" x="357.529297"/>
      <use xlink:href="#ArialMT-53" x="385.3125"/>
      <use xlink:href="#ArialMT-65" x="452.011719"/>
      <use xlink:href="#ArialMT-74" x="507.626953"/>
     </g>
    </g>
    <g id="patch_47">
     <path d="M 736.56 770.526 
L 760.56 770.526 
L 760.56 762.126 
L 736.56 762.126 
z
" style="fill: #e74c3c; opacity: 0.7; stroke: #ffffff; stroke-linejoin: miter"/>
    </g>
    <g id="text_91">
     <!-- Testing Set -->
     <g style="fill: #262626" transform="translate(770.16 770.526) scale(0.12 -0.12)">
      <use xlink:href="#ArialMT-54"/>
      <use xlink:href="#ArialMT-65" x="49.958984"/>
      <use xlink:href="#ArialMT-73" x="105.574219"/>
      <use xlink:href="#ArialMT-74" x="155.574219"/>
      <use xlink:href="#ArialMT-69" x="183.357422"/>
      <use xlink:href="#ArialMT-6e" x="205.574219"/>
      <use xlink:href="#ArialMT-67" x="261.189453"/>
      <use xlink:href="#ArialMT-20" x="316.804688"/>
      <use xlink:href="#ArialMT-53" x="344.587891"/>
      <use xlink:href="#ArialMT-65" x="411.287109"/>
      <use xlink:href="#ArialMT-74" x="466.902344"/>
     </g>
    </g>
    <g id="patch_48">
     <path d="M 736.56 787.641 
L 760.56 787.641 
L 760.56 779.241 
L 736.56 779.241 
z
" style="fill: #f1c40f; opacity: 0.7; stroke: #ffffff; stroke-linejoin: miter"/>
    </g>
    <g id="text_92">
     <!-- Top 5 -->
     <g style="fill: #262626" transform="translate(770.16 787.641) scale(0.12 -0.12)">
      <use xlink:href="#ArialMT-54"/>
      <use xlink:href="#ArialMT-6f" x="49.958984"/>
      <use xlink:href="#ArialMT-70" x="105.574219"/>
      <use xlink:href="#ArialMT-20" x="161.189453"/>
      <use xlink:href="#ArialMT-35" x="188.972656"/>
     </g>
    </g>
   </g>
  </g>
 </g>
 <defs>
  <clipPath id="pbdd9ed70b7">
   <rect x="121.065" y="55.958" width="724.14" height="744.868"/>
  </clipPath>
 </defs>
</svg>
