<?xml version="1.0" encoding="utf-8" standalone="no"?>
<!DOCTYPE svg PUBLIC "-//W3C//DTD SVG 1.1//EN"
  "http://www.w3.org/Graphics/SVG/1.1/DTD/svg11.dtd">
<svg xmlns:xlink="http://www.w3.org/1999/xlink" width="708.48pt" height="420.48pt" viewBox="0 0 708.48 420.48" xmlns="http://www.w3.org/2000/svg" version="1.1">
 <metadata>
  <rdf:RDF xmlns:dc="http://purl.org/dc/elements/1.1/" xmlns:cc="http://creativecommons.org/ns#" xmlns:rdf="http://www.w3.org/1999/02/22-rdf-syntax-ns#">
   <cc:Work>
    <dc:type rdf:resource="http://purl.org/dc/dcmitype/StillImage"/>
    <dc:date>2025-01-07T20:08:04.552541</dc:date>
    <dc:format>image/svg+xml</dc:format>
    <dc:creator>
     <cc:Agent>
      <dc:title>Matplotlib v3.9.3, https://matplotlib.org/</dc:title>
     </cc:Agent>
    </dc:creator>
   </cc:Work>
  </rdf:RDF>
 </metadata>
 <defs>
  <style type="text/css">*{stroke-linejoin: round; stroke-linecap: butt}</style>
 </defs>
 <g id="figure_1">
  <g id="patch_1">
   <path d="M 0 420.48 
L 708.48 420.48 
L 708.48 -0 
L 0 -0 
z
" style="fill: #ffffff"/>
  </g>
  <g id="axes_1">
   <g id="patch_2">
    <path d="M 60.520625 372.1675 
L 701.28 372.1675 
L 701.28 24.6525 
L 60.520625 24.6525 
z
" style="fill: #ffffff"/>
   </g>
   <g id="matplotlib.axis_1">
    <g id="xtick_1">
     <g id="line2d_1">
      <path d="M 82.446827 372.1675 
L 82.446827 24.6525 
" clip-path="url(#p14ad1a95c4)" style="fill: none; stroke: #cccccc; stroke-opacity: 0.3; stroke-width: 0.5; stroke-linecap: round"/>
     </g>
     <g id="text_1">
      <!-- −4 -->
      <g style="fill: #262626" transform="translate(75.60589 387.756875) scale(0.12 -0.12)">
       <defs>
        <path id="ArialMT-2212" d="M 3381 1997 
L 356 1997 
L 356 2522 
L 3381 2522 
L 3381 1997 
z
" transform="scale(0.015625)"/>
        <path id="ArialMT-34" d="M 2069 0 
L 2069 1097 
L 81 1097 
L 81 1613 
L 2172 4581 
L 2631 4581 
L 2631 1613 
L 3250 1613 
L 3250 1097 
L 2631 1097 
L 2631 0 
L 2069 0 
z
M 2069 1613 
L 2069 3678 
L 634 1613 
L 2069 1613 
z
" transform="scale(0.015625)"/>
       </defs>
       <use xlink:href="#ArialMT-2212"/>
       <use xlink:href="#ArialMT-34" x="58.398438"/>
      </g>
     </g>
    </g>
    <g id="xtick_2">
     <g id="line2d_2">
      <path d="M 179.546802 372.1675 
L 179.546802 24.6525 
" clip-path="url(#p14ad1a95c4)" style="fill: none; stroke: #cccccc; stroke-opacity: 0.3; stroke-width: 0.5; stroke-linecap: round"/>
     </g>
     <g id="text_2">
      <!-- −2 -->
      <g style="fill: #262626" transform="translate(172.705864 387.756875) scale(0.12 -0.12)">
       <defs>
        <path id="ArialMT-32" d="M 3222 541 
L 3222 0 
L 194 0 
Q 188 203 259 391 
Q 375 700 629 1000 
Q 884 1300 1366 1694 
Q 2113 2306 2375 2664 
Q 2638 3022 2638 3341 
Q 2638 3675 2398 3904 
Q 2159 4134 1775 4134 
Q 1369 4134 1125 3890 
Q 881 3647 878 3216 
L 300 3275 
Q 359 3922 746 4261 
Q 1134 4600 1788 4600 
Q 2447 4600 2831 4234 
Q 3216 3869 3216 3328 
Q 3216 3053 3103 2787 
Q 2991 2522 2730 2228 
Q 2469 1934 1863 1422 
Q 1356 997 1212 845 
Q 1069 694 975 541 
L 3222 541 
z
" transform="scale(0.015625)"/>
       </defs>
       <use xlink:href="#ArialMT-2212"/>
       <use xlink:href="#ArialMT-32" x="58.398438"/>
      </g>
     </g>
    </g>
    <g id="xtick_3">
     <g id="line2d_3">
      <path d="M 276.646777 372.1675 
L 276.646777 24.6525 
" clip-path="url(#p14ad1a95c4)" style="fill: none; stroke: #cccccc; stroke-opacity: 0.3; stroke-width: 0.5; stroke-linecap: round"/>
     </g>
     <g id="text_3">
      <!-- 0 -->
      <g style="fill: #262626" transform="translate(273.310214 387.756875) scale(0.12 -0.12)">
       <defs>
        <path id="ArialMT-30" d="M 266 2259 
Q 266 3072 433 3567 
Q 600 4063 929 4331 
Q 1259 4600 1759 4600 
Q 2128 4600 2406 4451 
Q 2684 4303 2865 4023 
Q 3047 3744 3150 3342 
Q 3253 2941 3253 2259 
Q 3253 1453 3087 958 
Q 2922 463 2592 192 
Q 2263 -78 1759 -78 
Q 1097 -78 719 397 
Q 266 969 266 2259 
z
M 844 2259 
Q 844 1131 1108 757 
Q 1372 384 1759 384 
Q 2147 384 2411 759 
Q 2675 1134 2675 2259 
Q 2675 3391 2411 3762 
Q 2147 4134 1753 4134 
Q 1366 4134 1134 3806 
Q 844 3388 844 2259 
z
" transform="scale(0.015625)"/>
       </defs>
       <use xlink:href="#ArialMT-30"/>
      </g>
     </g>
    </g>
    <g id="xtick_4">
     <g id="line2d_4">
      <path d="M 373.746751 372.1675 
L 373.746751 24.6525 
" clip-path="url(#p14ad1a95c4)" style="fill: none; stroke: #cccccc; stroke-opacity: 0.3; stroke-width: 0.5; stroke-linecap: round"/>
     </g>
     <g id="text_4">
      <!-- 2 -->
      <g style="fill: #262626" transform="translate(370.410189 387.756875) scale(0.12 -0.12)">
       <use xlink:href="#ArialMT-32"/>
      </g>
     </g>
    </g>
    <g id="xtick_5">
     <g id="line2d_5">
      <path d="M 470.846726 372.1675 
L 470.846726 24.6525 
" clip-path="url(#p14ad1a95c4)" style="fill: none; stroke: #cccccc; stroke-opacity: 0.3; stroke-width: 0.5; stroke-linecap: round"/>
     </g>
     <g id="text_5">
      <!-- 4 -->
      <g style="fill: #262626" transform="translate(467.510164 387.756875) scale(0.12 -0.12)">
       <use xlink:href="#ArialMT-34"/>
      </g>
     </g>
    </g>
    <g id="xtick_6">
     <g id="line2d_6">
      <path d="M 567.946701 372.1675 
L 567.946701 24.6525 
" clip-path="url(#p14ad1a95c4)" style="fill: none; stroke: #cccccc; stroke-opacity: 0.3; stroke-width: 0.5; stroke-linecap: round"/>
     </g>
     <g id="text_6">
      <!-- 6 -->
      <g style="fill: #262626" transform="translate(564.610138 387.756875) scale(0.12 -0.12)">
       <defs>
        <path id="ArialMT-36" d="M 3184 3459 
L 2625 3416 
Q 2550 3747 2413 3897 
Q 2184 4138 1850 4138 
Q 1581 4138 1378 3988 
Q 1113 3794 959 3422 
Q 806 3050 800 2363 
Q 1003 2672 1297 2822 
Q 1591 2972 1913 2972 
Q 2475 2972 2870 2558 
Q 3266 2144 3266 1488 
Q 3266 1056 3080 686 
Q 2894 316 2569 119 
Q 2244 -78 1831 -78 
Q 1128 -78 684 439 
Q 241 956 241 2144 
Q 241 3472 731 4075 
Q 1159 4600 1884 4600 
Q 2425 4600 2770 4297 
Q 3116 3994 3184 3459 
z
M 888 1484 
Q 888 1194 1011 928 
Q 1134 663 1356 523 
Q 1578 384 1822 384 
Q 2178 384 2434 671 
Q 2691 959 2691 1453 
Q 2691 1928 2437 2201 
Q 2184 2475 1800 2475 
Q 1419 2475 1153 2201 
Q 888 1928 888 1484 
z
" transform="scale(0.015625)"/>
       </defs>
       <use xlink:href="#ArialMT-36"/>
      </g>
     </g>
    </g>
    <g id="xtick_7">
     <g id="line2d_7">
      <path d="M 665.046676 372.1675 
L 665.046676 24.6525 
" clip-path="url(#p14ad1a95c4)" style="fill: none; stroke: #cccccc; stroke-opacity: 0.3; stroke-width: 0.5; stroke-linecap: round"/>
     </g>
     <g id="text_7">
      <!-- 8 -->
      <g style="fill: #262626" transform="translate(661.710113 387.756875) scale(0.12 -0.12)">
       <defs>
        <path id="ArialMT-38" d="M 1131 2484 
Q 781 2613 612 2850 
Q 444 3088 444 3419 
Q 444 3919 803 4259 
Q 1163 4600 1759 4600 
Q 2359 4600 2725 4251 
Q 3091 3903 3091 3403 
Q 3091 3084 2923 2848 
Q 2756 2613 2416 2484 
Q 2838 2347 3058 2040 
Q 3278 1734 3278 1309 
Q 3278 722 2862 322 
Q 2447 -78 1769 -78 
Q 1091 -78 675 323 
Q 259 725 259 1325 
Q 259 1772 486 2073 
Q 713 2375 1131 2484 
z
M 1019 3438 
Q 1019 3113 1228 2906 
Q 1438 2700 1772 2700 
Q 2097 2700 2305 2904 
Q 2513 3109 2513 3406 
Q 2513 3716 2298 3927 
Q 2084 4138 1766 4138 
Q 1444 4138 1231 3931 
Q 1019 3725 1019 3438 
z
M 838 1322 
Q 838 1081 952 856 
Q 1066 631 1291 507 
Q 1516 384 1775 384 
Q 2178 384 2440 643 
Q 2703 903 2703 1303 
Q 2703 1709 2433 1975 
Q 2163 2241 1756 2241 
Q 1359 2241 1098 1978 
Q 838 1716 838 1322 
z
" transform="scale(0.015625)"/>
       </defs>
       <use xlink:href="#ArialMT-38"/>
      </g>
     </g>
    </g>
    <g id="text_8">
     <!-- Error (%) -->
     <g style="fill: #262626" transform="translate(352.515312 410.333438) scale(0.14 -0.14)">
      <defs>
       <path id="ArialMT-45" d="M 506 0 
L 506 4581 
L 3819 4581 
L 3819 4041 
L 1113 4041 
L 1113 2638 
L 3647 2638 
L 3647 2100 
L 1113 2100 
L 1113 541 
L 3925 541 
L 3925 0 
L 506 0 
z
" transform="scale(0.015625)"/>
       <path id="ArialMT-72" d="M 416 0 
L 416 3319 
L 922 3319 
L 922 2816 
Q 1116 3169 1280 3281 
Q 1444 3394 1641 3394 
Q 1925 3394 2219 3213 
L 2025 2691 
Q 1819 2813 1613 2813 
Q 1428 2813 1281 2702 
Q 1134 2591 1072 2394 
Q 978 2094 978 1738 
L 978 0 
L 416 0 
z
" transform="scale(0.015625)"/>
       <path id="ArialMT-6f" d="M 213 1659 
Q 213 2581 725 3025 
Q 1153 3394 1769 3394 
Q 2453 3394 2887 2945 
Q 3322 2497 3322 1706 
Q 3322 1066 3130 698 
Q 2938 331 2570 128 
Q 2203 -75 1769 -75 
Q 1072 -75 642 372 
Q 213 819 213 1659 
z
M 791 1659 
Q 791 1022 1069 705 
Q 1347 388 1769 388 
Q 2188 388 2466 706 
Q 2744 1025 2744 1678 
Q 2744 2294 2464 2611 
Q 2184 2928 1769 2928 
Q 1347 2928 1069 2612 
Q 791 2297 791 1659 
z
" transform="scale(0.015625)"/>
       <path id="ArialMT-20" transform="scale(0.015625)"/>
       <path id="ArialMT-28" d="M 1497 -1347 
Q 1031 -759 709 28 
Q 388 816 388 1659 
Q 388 2403 628 3084 
Q 909 3875 1497 4659 
L 1900 4659 
Q 1522 4009 1400 3731 
Q 1209 3300 1100 2831 
Q 966 2247 966 1656 
Q 966 153 1900 -1347 
L 1497 -1347 
z
" transform="scale(0.015625)"/>
       <path id="ArialMT-25" d="M 372 3481 
Q 372 3972 619 4315 
Q 866 4659 1334 4659 
Q 1766 4659 2048 4351 
Q 2331 4044 2331 3447 
Q 2331 2866 2045 2552 
Q 1759 2238 1341 2238 
Q 925 2238 648 2547 
Q 372 2856 372 3481 
z
M 1350 4272 
Q 1141 4272 1002 4090 
Q 863 3909 863 3425 
Q 863 2984 1003 2804 
Q 1144 2625 1350 2625 
Q 1563 2625 1702 2806 
Q 1841 2988 1841 3469 
Q 1841 3913 1700 4092 
Q 1559 4272 1350 4272 
z
M 1353 -169 
L 3859 4659 
L 4316 4659 
L 1819 -169 
L 1353 -169 
z
M 3334 1075 
Q 3334 1569 3581 1911 
Q 3828 2253 4300 2253 
Q 4731 2253 5014 1945 
Q 5297 1638 5297 1041 
Q 5297 459 5011 145 
Q 4725 -169 4303 -169 
Q 3888 -169 3611 142 
Q 3334 453 3334 1075 
z
M 4316 1866 
Q 4103 1866 3964 1684 
Q 3825 1503 3825 1019 
Q 3825 581 3965 400 
Q 4106 219 4313 219 
Q 4528 219 4667 400 
Q 4806 581 4806 1063 
Q 4806 1506 4665 1686 
Q 4525 1866 4316 1866 
z
" transform="scale(0.015625)"/>
       <path id="ArialMT-29" d="M 791 -1347 
L 388 -1347 
Q 1322 153 1322 1656 
Q 1322 2244 1188 2822 
Q 1081 3291 891 3722 
Q 769 4003 388 4659 
L 791 4659 
Q 1378 3875 1659 3084 
Q 1900 2403 1900 1659 
Q 1900 816 1576 28 
Q 1253 -759 791 -1347 
z
" transform="scale(0.015625)"/>
      </defs>
      <use xlink:href="#ArialMT-45"/>
      <use xlink:href="#ArialMT-72" x="66.699219"/>
      <use xlink:href="#ArialMT-72" x="100"/>
      <use xlink:href="#ArialMT-6f" x="133.300781"/>
      <use xlink:href="#ArialMT-72" x="188.916016"/>
      <use xlink:href="#ArialMT-20" x="222.216797"/>
      <use xlink:href="#ArialMT-28" x="250"/>
      <use xlink:href="#ArialMT-25" x="283.300781"/>
      <use xlink:href="#ArialMT-29" x="372.216797"/>
     </g>
    </g>
   </g>
   <g id="matplotlib.axis_2">
    <g id="ytick_1">
     <g id="line2d_8">
      <path d="M 60.520625 372.1675 
L 701.28 372.1675 
" clip-path="url(#p14ad1a95c4)" style="fill: none; stroke: #cccccc; stroke-opacity: 0.3; stroke-width: 0.5; stroke-linecap: round"/>
     </g>
     <g id="text_9">
      <!-- 0.00 -->
      <g style="fill: #262626" transform="translate(30.1675 376.462188) scale(0.12 -0.12)">
       <defs>
        <path id="ArialMT-2e" d="M 581 0 
L 581 641 
L 1222 641 
L 1222 0 
L 581 0 
z
" transform="scale(0.015625)"/>
       </defs>
       <use xlink:href="#ArialMT-30"/>
       <use xlink:href="#ArialMT-2e" x="55.615234"/>
       <use xlink:href="#ArialMT-30" x="83.398438"/>
       <use xlink:href="#ArialMT-30" x="139.013672"/>
      </g>
     </g>
    </g>
    <g id="ytick_2">
     <g id="line2d_9">
      <path d="M 60.520625 320.741365 
L 701.28 320.741365 
" clip-path="url(#p14ad1a95c4)" style="fill: none; stroke: #cccccc; stroke-opacity: 0.3; stroke-width: 0.5; stroke-linecap: round"/>
     </g>
     <g id="text_10">
      <!-- 0.05 -->
      <g style="fill: #262626" transform="translate(30.1675 325.036052) scale(0.12 -0.12)">
       <defs>
        <path id="ArialMT-35" d="M 266 1200 
L 856 1250 
Q 922 819 1161 601 
Q 1400 384 1738 384 
Q 2144 384 2425 690 
Q 2706 997 2706 1503 
Q 2706 1984 2436 2262 
Q 2166 2541 1728 2541 
Q 1456 2541 1237 2417 
Q 1019 2294 894 2097 
L 366 2166 
L 809 4519 
L 3088 4519 
L 3088 3981 
L 1259 3981 
L 1013 2750 
Q 1425 3038 1878 3038 
Q 2478 3038 2890 2622 
Q 3303 2206 3303 1553 
Q 3303 931 2941 478 
Q 2500 -78 1738 -78 
Q 1113 -78 717 272 
Q 322 622 266 1200 
z
" transform="scale(0.015625)"/>
       </defs>
       <use xlink:href="#ArialMT-30"/>
       <use xlink:href="#ArialMT-2e" x="55.615234"/>
       <use xlink:href="#ArialMT-30" x="83.398438"/>
       <use xlink:href="#ArialMT-35" x="139.013672"/>
      </g>
     </g>
    </g>
    <g id="ytick_3">
     <g id="line2d_10">
      <path d="M 60.520625 269.315229 
L 701.28 269.315229 
" clip-path="url(#p14ad1a95c4)" style="fill: none; stroke: #cccccc; stroke-opacity: 0.3; stroke-width: 0.5; stroke-linecap: round"/>
     </g>
     <g id="text_11">
      <!-- 0.10 -->
      <g style="fill: #262626" transform="translate(30.1675 273.609917) scale(0.12 -0.12)">
       <defs>
        <path id="ArialMT-31" d="M 2384 0 
L 1822 0 
L 1822 3584 
Q 1619 3391 1289 3197 
Q 959 3003 697 2906 
L 697 3450 
Q 1169 3672 1522 3987 
Q 1875 4303 2022 4600 
L 2384 4600 
L 2384 0 
z
" transform="scale(0.015625)"/>
       </defs>
       <use xlink:href="#ArialMT-30"/>
       <use xlink:href="#ArialMT-2e" x="55.615234"/>
       <use xlink:href="#ArialMT-31" x="83.398438"/>
       <use xlink:href="#ArialMT-30" x="139.013672"/>
      </g>
     </g>
    </g>
    <g id="ytick_4">
     <g id="line2d_11">
      <path d="M 60.520625 217.889094 
L 701.28 217.889094 
" clip-path="url(#p14ad1a95c4)" style="fill: none; stroke: #cccccc; stroke-opacity: 0.3; stroke-width: 0.5; stroke-linecap: round"/>
     </g>
     <g id="text_12">
      <!-- 0.15 -->
      <g style="fill: #262626" transform="translate(30.1675 222.183781) scale(0.12 -0.12)">
       <use xlink:href="#ArialMT-30"/>
       <use xlink:href="#ArialMT-2e" x="55.615234"/>
       <use xlink:href="#ArialMT-31" x="83.398438"/>
       <use xlink:href="#ArialMT-35" x="139.013672"/>
      </g>
     </g>
    </g>
    <g id="ytick_5">
     <g id="line2d_12">
      <path d="M 60.520625 166.462958 
L 701.28 166.462958 
" clip-path="url(#p14ad1a95c4)" style="fill: none; stroke: #cccccc; stroke-opacity: 0.3; stroke-width: 0.5; stroke-linecap: round"/>
     </g>
     <g id="text_13">
      <!-- 0.20 -->
      <g style="fill: #262626" transform="translate(30.1675 170.757646) scale(0.12 -0.12)">
       <use xlink:href="#ArialMT-30"/>
       <use xlink:href="#ArialMT-2e" x="55.615234"/>
       <use xlink:href="#ArialMT-32" x="83.398438"/>
       <use xlink:href="#ArialMT-30" x="139.013672"/>
      </g>
     </g>
    </g>
    <g id="ytick_6">
     <g id="line2d_13">
      <path d="M 60.520625 115.036823 
L 701.28 115.036823 
" clip-path="url(#p14ad1a95c4)" style="fill: none; stroke: #cccccc; stroke-opacity: 0.3; stroke-width: 0.5; stroke-linecap: round"/>
     </g>
     <g id="text_14">
      <!-- 0.25 -->
      <g style="fill: #262626" transform="translate(30.1675 119.331511) scale(0.12 -0.12)">
       <use xlink:href="#ArialMT-30"/>
       <use xlink:href="#ArialMT-2e" x="55.615234"/>
       <use xlink:href="#ArialMT-32" x="83.398438"/>
       <use xlink:href="#ArialMT-35" x="139.013672"/>
      </g>
     </g>
    </g>
    <g id="ytick_7">
     <g id="line2d_14">
      <path d="M 60.520625 63.610688 
L 701.28 63.610688 
" clip-path="url(#p14ad1a95c4)" style="fill: none; stroke: #cccccc; stroke-opacity: 0.3; stroke-width: 0.5; stroke-linecap: round"/>
     </g>
     <g id="text_15">
      <!-- 0.30 -->
      <g style="fill: #262626" transform="translate(30.1675 67.905375) scale(0.12 -0.12)">
       <defs>
        <path id="ArialMT-33" d="M 269 1209 
L 831 1284 
Q 928 806 1161 595 
Q 1394 384 1728 384 
Q 2125 384 2398 659 
Q 2672 934 2672 1341 
Q 2672 1728 2419 1979 
Q 2166 2231 1775 2231 
Q 1616 2231 1378 2169 
L 1441 2663 
Q 1497 2656 1531 2656 
Q 1891 2656 2178 2843 
Q 2466 3031 2466 3422 
Q 2466 3731 2256 3934 
Q 2047 4138 1716 4138 
Q 1388 4138 1169 3931 
Q 950 3725 888 3313 
L 325 3413 
Q 428 3978 793 4289 
Q 1159 4600 1703 4600 
Q 2078 4600 2393 4439 
Q 2709 4278 2876 4000 
Q 3044 3722 3044 3409 
Q 3044 3113 2884 2869 
Q 2725 2625 2413 2481 
Q 2819 2388 3044 2092 
Q 3269 1797 3269 1353 
Q 3269 753 2831 336 
Q 2394 -81 1725 -81 
Q 1122 -81 723 278 
Q 325 638 269 1209 
z
" transform="scale(0.015625)"/>
       </defs>
       <use xlink:href="#ArialMT-30"/>
       <use xlink:href="#ArialMT-2e" x="55.615234"/>
       <use xlink:href="#ArialMT-33" x="83.398438"/>
       <use xlink:href="#ArialMT-30" x="139.013672"/>
      </g>
     </g>
    </g>
    <g id="text_16">
     <!-- Density -->
     <g style="fill: #262626" transform="translate(17.220938 221.750625) rotate(-90) scale(0.14 -0.14)">
      <defs>
       <path id="ArialMT-44" d="M 494 0 
L 494 4581 
L 2072 4581 
Q 2606 4581 2888 4516 
Q 3281 4425 3559 4188 
Q 3922 3881 4101 3404 
Q 4281 2928 4281 2316 
Q 4281 1794 4159 1391 
Q 4038 988 3847 723 
Q 3656 459 3429 307 
Q 3203 156 2883 78 
Q 2563 0 2147 0 
L 494 0 
z
M 1100 541 
L 2078 541 
Q 2531 541 2789 625 
Q 3047 709 3200 863 
Q 3416 1078 3536 1442 
Q 3656 1806 3656 2325 
Q 3656 3044 3420 3430 
Q 3184 3816 2847 3947 
Q 2603 4041 2063 4041 
L 1100 4041 
L 1100 541 
z
" transform="scale(0.015625)"/>
       <path id="ArialMT-65" d="M 2694 1069 
L 3275 997 
Q 3138 488 2766 206 
Q 2394 -75 1816 -75 
Q 1088 -75 661 373 
Q 234 822 234 1631 
Q 234 2469 665 2931 
Q 1097 3394 1784 3394 
Q 2450 3394 2872 2941 
Q 3294 2488 3294 1666 
Q 3294 1616 3291 1516 
L 816 1516 
Q 847 969 1125 678 
Q 1403 388 1819 388 
Q 2128 388 2347 550 
Q 2566 713 2694 1069 
z
M 847 1978 
L 2700 1978 
Q 2663 2397 2488 2606 
Q 2219 2931 1791 2931 
Q 1403 2931 1139 2672 
Q 875 2413 847 1978 
z
" transform="scale(0.015625)"/>
       <path id="ArialMT-6e" d="M 422 0 
L 422 3319 
L 928 3319 
L 928 2847 
Q 1294 3394 1984 3394 
Q 2284 3394 2536 3286 
Q 2788 3178 2913 3003 
Q 3038 2828 3088 2588 
Q 3119 2431 3119 2041 
L 3119 0 
L 2556 0 
L 2556 2019 
Q 2556 2363 2490 2533 
Q 2425 2703 2258 2804 
Q 2091 2906 1866 2906 
Q 1506 2906 1245 2678 
Q 984 2450 984 1813 
L 984 0 
L 422 0 
z
" transform="scale(0.015625)"/>
       <path id="ArialMT-73" d="M 197 991 
L 753 1078 
Q 800 744 1014 566 
Q 1228 388 1613 388 
Q 2000 388 2187 545 
Q 2375 703 2375 916 
Q 2375 1106 2209 1216 
Q 2094 1291 1634 1406 
Q 1016 1563 777 1677 
Q 538 1791 414 1992 
Q 291 2194 291 2438 
Q 291 2659 392 2848 
Q 494 3038 669 3163 
Q 800 3259 1026 3326 
Q 1253 3394 1513 3394 
Q 1903 3394 2198 3281 
Q 2494 3169 2634 2976 
Q 2775 2784 2828 2463 
L 2278 2388 
Q 2241 2644 2061 2787 
Q 1881 2931 1553 2931 
Q 1166 2931 1000 2803 
Q 834 2675 834 2503 
Q 834 2394 903 2306 
Q 972 2216 1119 2156 
Q 1203 2125 1616 2013 
Q 2213 1853 2448 1751 
Q 2684 1650 2818 1456 
Q 2953 1263 2953 975 
Q 2953 694 2789 445 
Q 2625 197 2315 61 
Q 2006 -75 1616 -75 
Q 969 -75 630 194 
Q 291 463 197 991 
z
" transform="scale(0.015625)"/>
       <path id="ArialMT-69" d="M 425 3934 
L 425 4581 
L 988 4581 
L 988 3934 
L 425 3934 
z
M 425 0 
L 425 3319 
L 988 3319 
L 988 0 
L 425 0 
z
" transform="scale(0.015625)"/>
       <path id="ArialMT-74" d="M 1650 503 
L 1731 6 
Q 1494 -44 1306 -44 
Q 1000 -44 831 53 
Q 663 150 594 308 
Q 525 466 525 972 
L 525 2881 
L 113 2881 
L 113 3319 
L 525 3319 
L 525 4141 
L 1084 4478 
L 1084 3319 
L 1650 3319 
L 1650 2881 
L 1084 2881 
L 1084 941 
Q 1084 700 1114 631 
Q 1144 563 1211 522 
Q 1278 481 1403 481 
Q 1497 481 1650 503 
z
" transform="scale(0.015625)"/>
       <path id="ArialMT-79" d="M 397 -1278 
L 334 -750 
Q 519 -800 656 -800 
Q 844 -800 956 -737 
Q 1069 -675 1141 -563 
Q 1194 -478 1313 -144 
Q 1328 -97 1363 -6 
L 103 3319 
L 709 3319 
L 1400 1397 
Q 1534 1031 1641 628 
Q 1738 1016 1872 1384 
L 2581 3319 
L 3144 3319 
L 1881 -56 
Q 1678 -603 1566 -809 
Q 1416 -1088 1222 -1217 
Q 1028 -1347 759 -1347 
Q 597 -1347 397 -1278 
z
" transform="scale(0.015625)"/>
      </defs>
      <use xlink:href="#ArialMT-44"/>
      <use xlink:href="#ArialMT-65" x="72.216797"/>
      <use xlink:href="#ArialMT-6e" x="127.832031"/>
      <use xlink:href="#ArialMT-73" x="183.447266"/>
      <use xlink:href="#ArialMT-69" x="233.447266"/>
      <use xlink:href="#ArialMT-74" x="255.664062"/>
      <use xlink:href="#ArialMT-79" x="283.447266"/>
     </g>
    </g>
   </g>
   <g id="PolyCollection_1">
    <defs>
     <path id="ma380423a7c" d="M 209.719025 -48.7212 
L 209.719025 -48.3125 
L 211.586422 -48.3125 
L 213.453819 -48.3125 
L 215.321215 -48.3125 
L 217.188612 -48.3125 
L 219.056009 -48.3125 
L 220.923405 -48.3125 
L 222.790802 -48.3125 
L 224.658199 -48.3125 
L 226.525595 -48.3125 
L 228.392992 -48.3125 
L 230.260389 -48.3125 
L 232.127785 -48.3125 
L 233.995182 -48.3125 
L 235.862579 -48.3125 
L 237.729975 -48.3125 
L 239.597372 -48.3125 
L 241.464769 -48.3125 
L 243.332165 -48.3125 
L 245.199562 -48.3125 
L 247.066959 -48.3125 
L 248.934355 -48.3125 
L 250.801752 -48.3125 
L 252.669149 -48.3125 
L 254.536545 -48.3125 
L 256.403942 -48.3125 
L 258.271339 -48.3125 
L 260.138735 -48.3125 
L 262.006132 -48.3125 
L 263.873528 -48.3125 
L 265.740925 -48.3125 
L 267.608322 -48.3125 
L 269.475718 -48.3125 
L 271.343115 -48.3125 
L 273.210512 -48.3125 
L 275.077908 -48.3125 
L 276.945305 -48.3125 
L 278.812702 -48.3125 
L 280.680098 -48.3125 
L 282.547495 -48.3125 
L 284.414892 -48.3125 
L 286.282288 -48.3125 
L 288.149685 -48.3125 
L 290.017082 -48.3125 
L 291.884478 -48.3125 
L 293.751875 -48.3125 
L 295.619272 -48.3125 
L 297.486668 -48.3125 
L 299.354065 -48.3125 
L 301.221462 -48.3125 
L 303.088858 -48.3125 
L 304.956255 -48.3125 
L 306.823652 -48.3125 
L 308.691048 -48.3125 
L 310.558445 -48.3125 
L 312.425842 -48.3125 
L 314.293238 -48.3125 
L 316.160635 -48.3125 
L 318.028032 -48.3125 
L 319.895428 -48.3125 
L 321.762825 -48.3125 
L 323.630222 -48.3125 
L 325.497618 -48.3125 
L 327.365015 -48.3125 
L 329.232412 -48.3125 
L 331.099808 -48.3125 
L 332.967205 -48.3125 
L 334.834602 -48.3125 
L 336.701998 -48.3125 
L 338.569395 -48.3125 
L 340.436792 -48.3125 
L 342.304188 -48.3125 
L 344.171585 -48.3125 
L 346.038982 -48.3125 
L 347.906378 -48.3125 
L 349.773775 -48.3125 
L 351.641172 -48.3125 
L 353.508568 -48.3125 
L 355.375965 -48.3125 
L 357.243361 -48.3125 
L 359.110758 -48.3125 
L 360.978155 -48.3125 
L 362.845551 -48.3125 
L 364.712948 -48.3125 
L 366.580345 -48.3125 
L 368.447741 -48.3125 
L 370.315138 -48.3125 
L 372.182535 -48.3125 
L 374.049931 -48.3125 
L 375.917328 -48.3125 
L 377.784725 -48.3125 
L 379.652121 -48.3125 
L 381.519518 -48.3125 
L 383.386915 -48.3125 
L 385.254311 -48.3125 
L 387.121708 -48.3125 
L 388.989105 -48.3125 
L 390.856501 -48.3125 
L 392.723898 -48.3125 
L 394.591295 -48.3125 
L 396.458691 -48.3125 
L 398.326088 -48.3125 
L 400.193485 -48.3125 
L 402.060881 -48.3125 
L 403.928278 -48.3125 
L 405.795675 -48.3125 
L 407.663071 -48.3125 
L 409.530468 -48.3125 
L 411.397865 -48.3125 
L 413.265261 -48.3125 
L 415.132658 -48.3125 
L 417.000055 -48.3125 
L 418.867451 -48.3125 
L 420.734848 -48.3125 
L 422.602245 -48.3125 
L 424.469641 -48.3125 
L 426.337038 -48.3125 
L 428.204435 -48.3125 
L 430.071831 -48.3125 
L 431.939228 -48.3125 
L 433.806625 -48.3125 
L 435.674021 -48.3125 
L 437.541418 -48.3125 
L 439.408815 -48.3125 
L 441.276211 -48.3125 
L 443.143608 -48.3125 
L 445.011005 -48.3125 
L 446.878401 -48.3125 
L 448.745798 -48.3125 
L 450.613194 -48.3125 
L 452.480591 -48.3125 
L 454.347988 -48.3125 
L 456.215384 -48.3125 
L 458.082781 -48.3125 
L 459.950178 -48.3125 
L 461.817574 -48.3125 
L 463.684971 -48.3125 
L 465.552368 -48.3125 
L 467.419764 -48.3125 
L 469.287161 -48.3125 
L 471.154558 -48.3125 
L 473.021954 -48.3125 
L 474.889351 -48.3125 
L 476.756748 -48.3125 
L 478.624144 -48.3125 
L 480.491541 -48.3125 
L 482.358938 -48.3125 
L 484.226334 -48.3125 
L 486.093731 -48.3125 
L 487.961128 -48.3125 
L 489.828524 -48.3125 
L 491.695921 -48.3125 
L 493.563318 -48.3125 
L 495.430714 -48.3125 
L 497.298111 -48.3125 
L 499.165508 -48.3125 
L 501.032904 -48.3125 
L 502.900301 -48.3125 
L 504.767698 -48.3125 
L 506.635094 -48.3125 
L 508.502491 -48.3125 
L 510.369888 -48.3125 
L 512.237284 -48.3125 
L 514.104681 -48.3125 
L 515.972078 -48.3125 
L 517.839474 -48.3125 
L 519.706871 -48.3125 
L 521.574268 -48.3125 
L 523.441664 -48.3125 
L 525.309061 -48.3125 
L 527.176458 -48.3125 
L 529.043854 -48.3125 
L 530.911251 -48.3125 
L 532.778648 -48.3125 
L 534.646044 -48.3125 
L 536.513441 -48.3125 
L 538.380838 -48.3125 
L 540.248234 -48.3125 
L 542.115631 -48.3125 
L 543.983027 -48.3125 
L 545.850424 -48.3125 
L 547.717821 -48.3125 
L 549.585217 -48.3125 
L 551.452614 -48.3125 
L 553.320011 -48.3125 
L 555.187407 -48.3125 
L 557.054804 -48.3125 
L 558.922201 -48.3125 
L 560.789597 -48.3125 
L 562.656994 -48.3125 
L 564.524391 -48.3125 
L 566.391787 -48.3125 
L 568.259184 -48.3125 
L 570.126581 -48.3125 
L 571.993977 -48.3125 
L 573.861374 -48.3125 
L 575.728771 -48.3125 
L 577.596167 -48.3125 
L 579.463564 -48.3125 
L 581.330961 -48.3125 
L 581.330961 -48.569132 
L 581.330961 -48.569132 
L 579.463564 -48.633727 
L 577.596167 -48.712278 
L 575.728771 -48.807189 
L 573.861374 -48.921126 
L 571.993977 -49.057017 
L 570.126581 -49.218033 
L 568.259184 -49.407566 
L 566.391787 -49.629186 
L 564.524391 -49.886594 
L 562.656994 -50.183552 
L 560.789597 -50.523801 
L 558.922201 -50.910968 
L 557.054804 -51.348451 
L 555.187407 -51.8393 
L 553.320011 -52.386081 
L 551.452614 -52.990736 
L 549.585217 -53.654447 
L 547.717821 -54.377492 
L 545.850424 -55.159115 
L 543.983027 -55.997415 
L 542.115631 -56.889248 
L 540.248234 -57.830163 
L 538.380838 -58.814369 
L 536.513441 -59.834746 
L 534.646044 -60.882899 
L 532.778648 -61.949255 
L 530.911251 -63.023222 
L 529.043854 -64.093388 
L 527.176458 -65.147774 
L 525.309061 -66.174132 
L 523.441664 -67.160279 
L 521.574268 -68.094468 
L 519.706871 -68.965776 
L 517.839474 -69.764506 
L 515.972078 -70.482588 
L 514.104681 -71.113962 
L 512.237284 -71.654943 
L 510.369888 -72.104539 
L 508.502491 -72.464725 
L 506.635094 -72.74065 
L 504.767698 -72.940784 
L 502.900301 -73.076974 
L 501.032904 -73.164438 
L 499.165508 -73.221657 
L 497.298111 -73.270198 
L 495.430714 -73.33445 
L 493.563318 -73.441279 
L 491.695921 -73.619629 
L 489.828524 -73.900039 
L 487.961128 -74.31413 
L 486.093731 -74.894037 
L 484.226334 -75.671818 
L 482.358938 -76.67885 
L 480.491541 -77.945219 
L 478.624144 -79.499126 
L 476.756748 -81.366319 
L 474.889351 -83.569568 
L 473.021954 -86.128189 
L 471.154558 -89.05764 
L 469.287161 -92.369197 
L 467.419764 -96.069715 
L 465.552368 -100.161489 
L 463.684971 -104.642219 
L 461.817574 -109.50508 
L 459.950178 -114.738901 
L 458.082781 -120.328443 
L 456.215384 -126.254779 
L 454.347988 -132.495752 
L 452.480591 -139.026511 
L 450.613194 -145.820096 
L 448.745798 -152.848059 
L 446.878401 -160.081095 
L 445.011005 -167.489661 
L 443.143608 -175.044563 
L 441.276211 -182.71748 
L 439.408815 -190.481418 
L 437.541418 -198.31106 
L 435.674021 -206.183018 
L 433.806625 -214.075963 
L 431.939228 -221.970633 
L 430.071831 -229.849735 
L 428.204435 -237.697724 
L 426.337038 -245.500502 
L 424.469641 -253.245028 
L 422.602245 -260.918879 
L 420.734848 -268.509784 
L 418.867451 -276.005146 
L 417.000055 -283.3916 
L 415.132658 -290.654613 
L 413.265261 -297.778164 
L 411.397865 -304.744517 
L 409.530468 -311.534116 
L 407.663071 -318.125594 
L 405.795675 -324.495929 
L 403.928278 -330.620725 
L 402.060881 -336.474627 
L 400.193485 -342.031853 
L 398.326088 -347.266829 
L 396.458691 -352.15491 
L 394.591295 -356.673149 
L 392.723898 -360.8011 
L 390.856501 -364.521614 
L 388.989105 -367.821597 
L 387.121708 -370.6927 
L 385.254311 -373.131908 
L 383.386915 -375.141989 
L 381.519518 -376.731795 
L 379.652121 -377.916379 
L 377.784725 -378.71691 
L 375.917328 -379.160392 
L 374.049931 -379.279167 
L 372.182535 -379.110218 
L 370.315138 -378.694285 
L 368.447741 -378.074811 
L 366.580345 -377.296748 
L 364.712948 -376.405264 
L 362.845551 -375.444379 
L 360.978155 -374.455599 
L 359.110758 -373.476563 
L 357.243361 -372.539785 
L 355.375965 -371.67151 
L 353.508568 -370.890747 
L 351.641172 -370.208514 
L 349.773775 -369.627309 
L 347.906378 -369.140865 
L 346.038982 -368.734161 
L 344.171585 -368.383727 
L 342.304188 -368.058214 
L 340.436792 -367.719223 
L 338.569395 -367.322356 
L 336.701998 -366.818456 
L 334.834602 -366.155002 
L 332.967205 -365.277594 
L 331.099808 -364.13149 
L 329.232412 -362.663139 
L 327.365015 -360.821661 
L 325.497618 -358.560221 
L 323.630222 -355.837271 
L 321.762825 -352.617604 
L 319.895428 -348.873218 
L 318.028032 -344.583954 
L 316.160635 -339.737908 
L 314.293238 -334.331617 
L 312.425842 -328.370028 
L 310.558445 -321.866263 
L 308.691048 -314.841203 
L 306.823652 -307.322917 
L 304.956255 -299.345964 
L 303.088858 -290.950599 
L 301.221462 -282.181911 
L 299.354065 -273.088919 
L 297.486668 -263.72366 
L 295.619272 -254.140283 
L 293.751875 -244.394171 
L 291.884478 -234.541109 
L 290.017082 -224.636503 
L 288.149685 -214.734671 
L 286.282288 -204.888193 
L 284.414892 -195.147342 
L 282.547495 -185.559576 
L 280.680098 -176.169116 
L 278.812702 -167.016579 
L 276.945305 -158.138692 
L 275.077908 -149.568065 
L 273.210512 -141.333028 
L 271.343115 -133.45753 
L 269.475718 -125.961106 
L 267.608322 -118.858884 
L 265.740925 -112.161668 
L 263.873528 -105.876058 
L 262.006132 -100.004628 
L 260.138735 -94.546149 
L 258.271339 -89.495851 
L 256.403942 -84.845724 
L 254.536545 -80.58485 
L 252.669149 -76.699751 
L 250.801752 -73.174764 
L 248.934355 -69.992417 
L 247.066959 -67.133811 
L 245.199562 -64.578988 
L 243.332165 -62.307292 
L 241.464769 -60.297711 
L 239.597372 -58.529187 
L 237.729975 -56.980902 
L 235.862579 -55.632528 
L 233.995182 -54.46444 
L 232.127785 -53.457896 
L 230.260389 -52.595178 
L 228.392992 -51.859695 
L 226.525595 -51.236058 
L 224.658199 -50.710118 
L 222.790802 -50.26898 
L 220.923405 -49.900988 
L 219.056009 -49.595694 
L 217.188612 -49.343806 
L 215.321215 -49.137127 
L 213.453819 -48.968481 
L 211.586422 -48.831631 
L 209.719025 -48.7212 
z
" style="stroke: #2ecc71"/>
    </defs>
    <g clip-path="url(#p14ad1a95c4)">
     <use xlink:href="#ma380423a7c" x="0" y="420.48" style="fill: #2ecc71; fill-opacity: 0.3; stroke: #2ecc71"/>
    </g>
   </g>
   <g id="PolyCollection_2">
    <defs>
     <path id="mf71e3c3a28" d="M 89.646051 -49.236532 
L 89.646051 -48.3125 
L 92.57323 -48.3125 
L 95.500408 -48.3125 
L 98.427587 -48.3125 
L 101.354765 -48.3125 
L 104.281944 -48.3125 
L 107.209122 -48.3125 
L 110.136301 -48.3125 
L 113.063479 -48.3125 
L 115.990658 -48.3125 
L 118.917836 -48.3125 
L 121.845015 -48.3125 
L 124.772193 -48.3125 
L 127.699372 -48.3125 
L 130.62655 -48.3125 
L 133.553729 -48.3125 
L 136.480907 -48.3125 
L 139.408086 -48.3125 
L 142.335264 -48.3125 
L 145.262443 -48.3125 
L 148.189621 -48.3125 
L 151.1168 -48.3125 
L 154.043978 -48.3125 
L 156.971157 -48.3125 
L 159.898335 -48.3125 
L 162.825514 -48.3125 
L 165.752692 -48.3125 
L 168.679871 -48.3125 
L 171.607049 -48.3125 
L 174.534228 -48.3125 
L 177.461406 -48.3125 
L 180.388585 -48.3125 
L 183.315763 -48.3125 
L 186.242942 -48.3125 
L 189.17012 -48.3125 
L 192.097299 -48.3125 
L 195.024477 -48.3125 
L 197.951656 -48.3125 
L 200.878834 -48.3125 
L 203.806013 -48.3125 
L 206.733191 -48.3125 
L 209.66037 -48.3125 
L 212.587548 -48.3125 
L 215.514727 -48.3125 
L 218.441905 -48.3125 
L 221.369084 -48.3125 
L 224.296262 -48.3125 
L 227.223441 -48.3125 
L 230.150619 -48.3125 
L 233.077798 -48.3125 
L 236.004976 -48.3125 
L 238.932155 -48.3125 
L 241.859333 -48.3125 
L 244.786512 -48.3125 
L 247.71369 -48.3125 
L 250.640869 -48.3125 
L 253.568047 -48.3125 
L 256.495226 -48.3125 
L 259.422404 -48.3125 
L 262.349583 -48.3125 
L 265.276762 -48.3125 
L 268.20394 -48.3125 
L 271.131119 -48.3125 
L 274.058297 -48.3125 
L 276.985476 -48.3125 
L 279.912654 -48.3125 
L 282.839833 -48.3125 
L 285.767011 -48.3125 
L 288.69419 -48.3125 
L 291.621368 -48.3125 
L 294.548547 -48.3125 
L 297.475725 -48.3125 
L 300.402904 -48.3125 
L 303.330082 -48.3125 
L 306.257261 -48.3125 
L 309.184439 -48.3125 
L 312.111618 -48.3125 
L 315.038796 -48.3125 
L 317.965975 -48.3125 
L 320.893153 -48.3125 
L 323.820332 -48.3125 
L 326.74751 -48.3125 
L 329.674689 -48.3125 
L 332.601867 -48.3125 
L 335.529046 -48.3125 
L 338.456224 -48.3125 
L 341.383403 -48.3125 
L 344.310581 -48.3125 
L 347.23776 -48.3125 
L 350.164938 -48.3125 
L 353.092117 -48.3125 
L 356.019295 -48.3125 
L 358.946474 -48.3125 
L 361.873652 -48.3125 
L 364.800831 -48.3125 
L 367.728009 -48.3125 
L 370.655188 -48.3125 
L 373.582366 -48.3125 
L 376.509545 -48.3125 
L 379.436723 -48.3125 
L 382.363902 -48.3125 
L 385.29108 -48.3125 
L 388.218259 -48.3125 
L 391.145437 -48.3125 
L 394.072616 -48.3125 
L 396.999794 -48.3125 
L 399.926973 -48.3125 
L 402.854151 -48.3125 
L 405.78133 -48.3125 
L 408.708508 -48.3125 
L 411.635687 -48.3125 
L 414.562865 -48.3125 
L 417.490044 -48.3125 
L 420.417222 -48.3125 
L 423.344401 -48.3125 
L 426.271579 -48.3125 
L 429.198758 -48.3125 
L 432.125936 -48.3125 
L 435.053115 -48.3125 
L 437.980293 -48.3125 
L 440.907472 -48.3125 
L 443.83465 -48.3125 
L 446.761829 -48.3125 
L 449.689007 -48.3125 
L 452.616186 -48.3125 
L 455.543364 -48.3125 
L 458.470543 -48.3125 
L 461.397721 -48.3125 
L 464.3249 -48.3125 
L 467.252078 -48.3125 
L 470.179257 -48.3125 
L 473.106435 -48.3125 
L 476.033614 -48.3125 
L 478.960792 -48.3125 
L 481.887971 -48.3125 
L 484.815149 -48.3125 
L 487.742328 -48.3125 
L 490.669506 -48.3125 
L 493.596685 -48.3125 
L 496.523863 -48.3125 
L 499.451042 -48.3125 
L 502.378221 -48.3125 
L 505.305399 -48.3125 
L 508.232578 -48.3125 
L 511.159756 -48.3125 
L 514.086935 -48.3125 
L 517.014113 -48.3125 
L 519.941292 -48.3125 
L 522.86847 -48.3125 
L 525.795649 -48.3125 
L 528.722827 -48.3125 
L 531.650006 -48.3125 
L 534.577184 -48.3125 
L 537.504363 -48.3125 
L 540.431541 -48.3125 
L 543.35872 -48.3125 
L 546.285898 -48.3125 
L 549.213077 -48.3125 
L 552.140255 -48.3125 
L 555.067434 -48.3125 
L 557.994612 -48.3125 
L 560.921791 -48.3125 
L 563.848969 -48.3125 
L 566.776148 -48.3125 
L 569.703326 -48.3125 
L 572.630505 -48.3125 
L 575.557683 -48.3125 
L 578.484862 -48.3125 
L 581.41204 -48.3125 
L 584.339219 -48.3125 
L 587.266397 -48.3125 
L 590.193576 -48.3125 
L 593.120754 -48.3125 
L 596.047933 -48.3125 
L 598.975111 -48.3125 
L 601.90229 -48.3125 
L 604.829468 -48.3125 
L 607.756647 -48.3125 
L 610.683825 -48.3125 
L 613.611004 -48.3125 
L 616.538182 -48.3125 
L 619.465361 -48.3125 
L 622.392539 -48.3125 
L 625.319718 -48.3125 
L 628.246896 -48.3125 
L 631.174075 -48.3125 
L 634.101253 -48.3125 
L 637.028432 -48.3125 
L 639.95561 -48.3125 
L 642.882789 -48.3125 
L 645.809967 -48.3125 
L 648.737146 -48.3125 
L 651.664324 -48.3125 
L 654.591503 -48.3125 
L 657.518681 -48.3125 
L 660.44586 -48.3125 
L 663.373038 -48.3125 
L 666.300217 -48.3125 
L 669.227395 -48.3125 
L 672.154574 -48.3125 
L 672.154574 -49.179191 
L 672.154574 -49.179191 
L 669.227395 -49.305724 
L 666.300217 -49.448379 
L 663.373038 -49.608841 
L 660.44586 -49.78892 
L 657.518681 -49.990549 
L 654.591503 -50.215785 
L 651.664324 -50.466811 
L 648.737146 -50.745932 
L 645.809967 -51.055573 
L 642.882789 -51.39827 
L 639.95561 -51.776669 
L 637.028432 -52.193511 
L 634.101253 -52.651626 
L 631.174075 -53.153917 
L 628.246896 -53.703346 
L 625.319718 -54.302918 
L 622.392539 -54.955658 
L 619.465361 -55.664594 
L 616.538182 -56.432731 
L 613.611004 -57.263026 
L 610.683825 -58.15836 
L 607.756647 -59.121509 
L 604.829468 -60.155119 
L 601.90229 -61.261666 
L 598.975111 -62.443433 
L 596.047933 -63.702472 
L 593.120754 -65.040575 
L 590.193576 -66.459242 
L 587.266397 -67.95965 
L 584.339219 -69.542628 
L 581.41204 -71.208625 
L 578.484862 -72.957691 
L 575.557683 -74.789452 
L 572.630505 -76.703098 
L 569.703326 -78.697365 
L 566.776148 -80.770531 
L 563.848969 -82.92041 
L 560.921791 -85.144354 
L 557.994612 -87.439263 
L 555.067434 -89.801598 
L 552.140255 -92.227399 
L 549.213077 -94.71231 
L 546.285898 -97.251615 
L 543.35872 -99.840268 
L 540.431541 -102.472943 
L 537.504363 -105.144077 
L 534.577184 -107.847922 
L 531.650006 -110.578604 
L 528.722827 -113.330179 
L 525.795649 -116.096696 
L 522.86847 -118.872262 
L 519.941292 -121.651103 
L 517.014113 -124.427627 
L 514.086935 -127.196488 
L 511.159756 -129.952648 
L 508.232578 -132.691426 
L 505.305399 -135.408555 
L 502.378221 -138.10023 
L 499.451042 -140.763143 
L 496.523863 -143.394518 
L 493.596685 -145.99214 
L 490.669506 -148.554367 
L 487.742328 -151.08014 
L 484.815149 -153.568984 
L 481.887971 -156.020996 
L 478.960792 -158.436826 
L 476.033614 -160.81765 
L 473.106435 -163.16513 
L 470.179257 -165.481374 
L 467.252078 -167.768875 
L 464.3249 -170.03046 
L 461.397721 -172.269217 
L 458.470543 -174.488427 
L 455.543364 -176.691491 
L 452.616186 -178.881847 
L 449.689007 -181.062897 
L 446.761829 -183.237923 
L 443.83465 -185.41001 
L 440.907472 -187.581968 
L 437.980293 -189.756261 
L 435.053115 -191.934937 
L 432.125936 -194.119561 
L 429.198758 -196.311163 
L 426.271579 -198.510184 
L 423.344401 -200.716437 
L 420.417222 -202.929068 
L 417.490044 -205.146535 
L 414.562865 -207.36659 
L 411.635687 -209.586271 
L 408.708508 -211.801909 
L 405.78133 -214.009131 
L 402.854151 -216.202888 
L 399.926973 -218.377476 
L 396.999794 -220.52658 
L 394.072616 -222.643308 
L 391.145437 -224.72025 
L 388.218259 -226.749525 
L 385.29108 -228.72285 
L 382.363902 -230.631598 
L 379.436723 -232.466871 
L 376.509545 -234.219568 
L 373.582366 -235.88046 
L 370.655188 -237.440263 
L 367.728009 -238.889714 
L 364.800831 -240.219639 
L 361.873652 -241.421033 
L 358.946474 -242.485127 
L 356.019295 -243.403457 
L 353.092117 -244.167931 
L 350.164938 -244.770894 
L 347.23776 -245.205181 
L 344.310581 -245.464181 
L 341.383403 -245.541884 
L 338.456224 -245.432927 
L 335.529046 -245.132642 
L 332.601867 -244.63709 
L 329.674689 -243.943096 
L 326.74751 -243.048276 
L 323.820332 -241.951062 
L 320.893153 -240.650723 
L 317.965975 -239.147371 
L 315.038796 -237.441977 
L 312.111618 -235.536369 
L 309.184439 -233.433232 
L 306.257261 -231.136098 
L 303.330082 -228.649338 
L 300.402904 -225.978138 
L 297.475725 -223.128481 
L 294.548547 -220.107114 
L 291.621368 -216.92152 
L 288.69419 -213.579875 
L 285.767011 -210.09101 
L 282.839833 -206.464358 
L 279.912654 -202.709907 
L 276.985476 -198.838145 
L 274.058297 -194.859996 
L 271.131119 -190.786765 
L 268.20394 -186.630065 
L 265.276762 -182.401758 
L 262.349583 -178.113882 
L 259.422404 -173.77858 
L 256.495226 -169.408031 
L 253.568047 -165.014382 
L 250.640869 -160.609673 
L 247.71369 -156.205771 
L 244.786512 -151.814305 
L 241.859333 -147.446599 
L 238.932155 -143.113609 
L 236.004976 -138.825872 
L 233.077798 -134.593445 
L 230.150619 -130.425861 
L 227.223441 -126.332084 
L 224.296262 -122.320468 
L 221.369084 -118.398727 
L 218.441905 -114.573907 
L 215.514727 -110.852363 
L 212.587548 -107.239749 
L 209.66037 -103.741002 
L 206.733191 -100.360344 
L 203.806013 -97.101284 
L 200.878834 -93.966626 
L 197.951656 -90.958481 
L 195.024477 -88.07829 
L 192.097299 -85.326842 
L 189.17012 -82.704306 
L 186.242942 -80.210262 
L 183.315763 -77.843731 
L 180.388585 -75.60322 
L 177.461406 -73.486753 
L 174.534228 -71.49192 
L 171.607049 -69.615913 
L 168.679871 -67.855576 
L 165.752692 -66.207439 
L 162.825514 -64.667772 
L 159.898335 -63.232618 
L 156.971157 -61.897841 
L 154.043978 -60.659161 
L 151.1168 -59.512197 
L 148.189621 -58.452497 
L 145.262443 -57.47558 
L 142.335264 -56.57696 
L 139.408086 -55.752179 
L 136.480907 -54.996834 
L 133.553729 -54.306599 
L 130.62655 -53.677244 
L 127.699372 -53.10466 
L 124.772193 -52.584866 
L 121.845015 -52.11403 
L 118.917836 -51.688473 
L 115.990658 -51.304684 
L 113.063479 -50.959321 
L 110.136301 -50.649214 
L 107.209122 -50.371374 
L 104.281944 -50.122986 
L 101.354765 -49.901414 
L 98.427587 -49.704194 
L 95.500408 -49.529032 
L 92.57323 -49.373801 
L 89.646051 -49.236532 
z
" style="stroke: #e74c3c"/>
    </defs>
    <g clip-path="url(#p14ad1a95c4)">
     <use xlink:href="#mf71e3c3a28" x="0" y="420.48" style="fill: #e74c3c; fill-opacity: 0.3; stroke: #e74c3c"/>
    </g>
   </g>
   <g id="patch_3">
    <path d="M 60.520625 372.1675 
L 60.520625 24.6525 
" style="fill: none; stroke: #cccccc; stroke-width: 1.5; stroke-linejoin: miter; stroke-linecap: square"/>
   </g>
   <g id="patch_4">
    <path d="M 60.520625 372.1675 
L 701.28 372.1675 
" style="fill: none; stroke: #cccccc; stroke-width: 1.5; stroke-linejoin: miter; stroke-linecap: square"/>
   </g>
   <g id="text_17">
    <!-- Distribution of Absolute Errors -->
    <g style="fill: #262626" transform="translate(275.080312 18.6525) scale(0.16 -0.16)">
     <defs>
      <path id="ArialMT-62" d="M 941 0 
L 419 0 
L 419 4581 
L 981 4581 
L 981 2947 
Q 1338 3394 1891 3394 
Q 2197 3394 2470 3270 
Q 2744 3147 2920 2923 
Q 3097 2700 3197 2384 
Q 3297 2069 3297 1709 
Q 3297 856 2875 390 
Q 2453 -75 1863 -75 
Q 1275 -75 941 416 
L 941 0 
z
M 934 1684 
Q 934 1088 1097 822 
Q 1363 388 1816 388 
Q 2184 388 2453 708 
Q 2722 1028 2722 1663 
Q 2722 2313 2464 2622 
Q 2206 2931 1841 2931 
Q 1472 2931 1203 2611 
Q 934 2291 934 1684 
z
" transform="scale(0.015625)"/>
      <path id="ArialMT-75" d="M 2597 0 
L 2597 488 
Q 2209 -75 1544 -75 
Q 1250 -75 995 37 
Q 741 150 617 320 
Q 494 491 444 738 
Q 409 903 409 1263 
L 409 3319 
L 972 3319 
L 972 1478 
Q 972 1038 1006 884 
Q 1059 663 1231 536 
Q 1403 409 1656 409 
Q 1909 409 2131 539 
Q 2353 669 2445 892 
Q 2538 1116 2538 1541 
L 2538 3319 
L 3100 3319 
L 3100 0 
L 2597 0 
z
" transform="scale(0.015625)"/>
      <path id="ArialMT-66" d="M 556 0 
L 556 2881 
L 59 2881 
L 59 3319 
L 556 3319 
L 556 3672 
Q 556 4006 616 4169 
Q 697 4388 901 4523 
Q 1106 4659 1475 4659 
Q 1713 4659 2000 4603 
L 1916 4113 
Q 1741 4144 1584 4144 
Q 1328 4144 1222 4034 
Q 1116 3925 1116 3625 
L 1116 3319 
L 1763 3319 
L 1763 2881 
L 1116 2881 
L 1116 0 
L 556 0 
z
" transform="scale(0.015625)"/>
      <path id="ArialMT-41" d="M -9 0 
L 1750 4581 
L 2403 4581 
L 4278 0 
L 3588 0 
L 3053 1388 
L 1138 1388 
L 634 0 
L -9 0 
z
M 1313 1881 
L 2866 1881 
L 2388 3150 
Q 2169 3728 2063 4100 
Q 1975 3659 1816 3225 
L 1313 1881 
z
" transform="scale(0.015625)"/>
      <path id="ArialMT-6c" d="M 409 0 
L 409 4581 
L 972 4581 
L 972 0 
L 409 0 
z
" transform="scale(0.015625)"/>
     </defs>
     <use xlink:href="#ArialMT-44"/>
     <use xlink:href="#ArialMT-69" x="72.216797"/>
     <use xlink:href="#ArialMT-73" x="94.433594"/>
     <use xlink:href="#ArialMT-74" x="144.433594"/>
     <use xlink:href="#ArialMT-72" x="172.216797"/>
     <use xlink:href="#ArialMT-69" x="205.517578"/>
     <use xlink:href="#ArialMT-62" x="227.734375"/>
     <use xlink:href="#ArialMT-75" x="283.349609"/>
     <use xlink:href="#ArialMT-74" x="338.964844"/>
     <use xlink:href="#ArialMT-69" x="366.748047"/>
     <use xlink:href="#ArialMT-6f" x="388.964844"/>
     <use xlink:href="#ArialMT-6e" x="444.580078"/>
     <use xlink:href="#ArialMT-20" x="500.195312"/>
     <use xlink:href="#ArialMT-6f" x="527.978516"/>
     <use xlink:href="#ArialMT-66" x="583.59375"/>
     <use xlink:href="#ArialMT-20" x="611.376953"/>
     <use xlink:href="#ArialMT-41" x="633.660156"/>
     <use xlink:href="#ArialMT-62" x="700.359375"/>
     <use xlink:href="#ArialMT-73" x="755.974609"/>
     <use xlink:href="#ArialMT-6f" x="805.974609"/>
     <use xlink:href="#ArialMT-6c" x="861.589844"/>
     <use xlink:href="#ArialMT-75" x="883.806641"/>
     <use xlink:href="#ArialMT-74" x="939.421875"/>
     <use xlink:href="#ArialMT-65" x="967.205078"/>
     <use xlink:href="#ArialMT-20" x="1022.820312"/>
     <use xlink:href="#ArialMT-45" x="1050.603516"/>
     <use xlink:href="#ArialMT-72" x="1117.302734"/>
     <use xlink:href="#ArialMT-72" x="1150.603516"/>
     <use xlink:href="#ArialMT-6f" x="1183.904297"/>
     <use xlink:href="#ArialMT-72" x="1239.519531"/>
     <use xlink:href="#ArialMT-73" x="1272.820312"/>
    </g>
   </g>
   <g id="legend_1">
    <g id="patch_5">
     <path d="M 497.20125 68.775 
L 692.88 68.775 
Q 695.28 68.775 695.28 66.375 
L 695.28 33.0525 
Q 695.28 30.6525 692.88 30.6525 
L 497.20125 30.6525 
Q 494.80125 30.6525 494.80125 33.0525 
L 494.80125 66.375 
Q 494.80125 68.775 497.20125 68.775 
z
" style="fill: #ffffff; opacity: 0.8; stroke: #cccccc; stroke-linejoin: miter"/>
    </g>
    <g id="patch_6">
     <path d="M 499.60125 44.188125 
L 523.60125 44.188125 
L 523.60125 35.788125 
L 499.60125 35.788125 
z
" style="fill: #2ecc71; fill-opacity: 0.3; stroke: #2ecc71; stroke-linejoin: miter"/>
    </g>
    <g id="text_18">
     <!-- Training (μ=1.83%, σ=1.03%) -->
     <g style="fill: #262626" transform="translate(533.20125 44.188125) scale(0.12 -0.12)">
      <defs>
       <path id="ArialMT-54" d="M 1659 0 
L 1659 4041 
L 150 4041 
L 150 4581 
L 3781 4581 
L 3781 4041 
L 2266 4041 
L 2266 0 
L 1659 0 
z
" transform="scale(0.015625)"/>
       <path id="ArialMT-61" d="M 2588 409 
Q 2275 144 1986 34 
Q 1697 -75 1366 -75 
Q 819 -75 525 192 
Q 231 459 231 875 
Q 231 1119 342 1320 
Q 453 1522 633 1644 
Q 813 1766 1038 1828 
Q 1203 1872 1538 1913 
Q 2219 1994 2541 2106 
Q 2544 2222 2544 2253 
Q 2544 2597 2384 2738 
Q 2169 2928 1744 2928 
Q 1347 2928 1158 2789 
Q 969 2650 878 2297 
L 328 2372 
Q 403 2725 575 2942 
Q 747 3159 1072 3276 
Q 1397 3394 1825 3394 
Q 2250 3394 2515 3294 
Q 2781 3194 2906 3042 
Q 3031 2891 3081 2659 
Q 3109 2516 3109 2141 
L 3109 1391 
Q 3109 606 3145 398 
Q 3181 191 3288 0 
L 2700 0 
Q 2613 175 2588 409 
z
M 2541 1666 
Q 2234 1541 1622 1453 
Q 1275 1403 1131 1340 
Q 988 1278 909 1158 
Q 831 1038 831 891 
Q 831 666 1001 516 
Q 1172 366 1500 366 
Q 1825 366 2078 508 
Q 2331 650 2450 897 
Q 2541 1088 2541 1459 
L 2541 1666 
z
" transform="scale(0.015625)"/>
       <path id="ArialMT-67" d="M 319 -275 
L 866 -356 
Q 900 -609 1056 -725 
Q 1266 -881 1628 -881 
Q 2019 -881 2231 -725 
Q 2444 -569 2519 -288 
Q 2563 -116 2559 434 
Q 2191 0 1641 0 
Q 956 0 581 494 
Q 206 988 206 1678 
Q 206 2153 378 2554 
Q 550 2956 876 3175 
Q 1203 3394 1644 3394 
Q 2231 3394 2613 2919 
L 2613 3319 
L 3131 3319 
L 3131 450 
Q 3131 -325 2973 -648 
Q 2816 -972 2473 -1159 
Q 2131 -1347 1631 -1347 
Q 1038 -1347 672 -1080 
Q 306 -813 319 -275 
z
M 784 1719 
Q 784 1066 1043 766 
Q 1303 466 1694 466 
Q 2081 466 2343 764 
Q 2606 1063 2606 1700 
Q 2606 2309 2336 2618 
Q 2066 2928 1684 2928 
Q 1309 2928 1046 2623 
Q 784 2319 784 1719 
z
" transform="scale(0.015625)"/>
       <path id="ArialMT-3bc" d="M 3181 3319 
L 3181 0 
L 2678 0 
L 2678 394 
Q 2516 144 2356 50 
Q 2138 -78 1847 -78 
Q 1588 -78 1388 25 
Q 1238 103 1056 334 
L 1056 -1272 
L 500 -1272 
L 500 3319 
L 1056 3319 
L 1056 1913 
Q 1056 1147 1137 920 
Q 1219 694 1401 562 
Q 1584 431 1822 431 
Q 2072 431 2269 568 
Q 2466 706 2547 923 
Q 2628 1141 2628 1903 
L 2628 3319 
L 3181 3319 
z
" transform="scale(0.015625)"/>
       <path id="ArialMT-3d" d="M 3381 2694 
L 356 2694 
L 356 3219 
L 3381 3219 
L 3381 2694 
z
M 3381 1303 
L 356 1303 
L 356 1828 
L 3381 1828 
L 3381 1303 
z
" transform="scale(0.015625)"/>
       <path id="ArialMT-2c" d="M 569 0 
L 569 641 
L 1209 641 
L 1209 0 
Q 1209 -353 1084 -570 
Q 959 -788 688 -906 
L 531 -666 
Q 709 -588 793 -436 
Q 878 -284 888 0 
L 569 0 
z
" transform="scale(0.015625)"/>
       <path id="ArialMT-3c3" d="M 3809 3319 
L 3809 2863 
L 2906 2863 
Q 3322 2475 3322 1656 
Q 3322 766 2867 345 
Q 2413 -75 1763 -75 
Q 1088 -75 650 362 
Q 213 800 213 1659 
Q 213 2544 667 2969 
Q 1122 3394 1763 3394 
Q 1997 3394 2294 3319 
L 3809 3319 
z
M 1753 2928 
Q 1344 2928 1067 2609 
Q 791 2291 791 1656 
Q 791 1025 1061 706 
Q 1331 388 1763 388 
Q 2216 388 2483 720 
Q 2750 1053 2750 1659 
Q 2750 2213 2504 2570 
Q 2259 2928 1753 2928 
z
" transform="scale(0.015625)"/>
      </defs>
      <use xlink:href="#ArialMT-54"/>
      <use xlink:href="#ArialMT-72" x="57.333984"/>
      <use xlink:href="#ArialMT-61" x="90.634766"/>
      <use xlink:href="#ArialMT-69" x="146.25"/>
      <use xlink:href="#ArialMT-6e" x="168.466797"/>
      <use xlink:href="#ArialMT-69" x="224.082031"/>
      <use xlink:href="#ArialMT-6e" x="246.298828"/>
      <use xlink:href="#ArialMT-67" x="301.914062"/>
      <use xlink:href="#ArialMT-20" x="357.529297"/>
      <use xlink:href="#ArialMT-28" x="385.3125"/>
      <use xlink:href="#ArialMT-3bc" x="418.613281"/>
      <use xlink:href="#ArialMT-3d" x="476.230469"/>
      <use xlink:href="#ArialMT-31" x="534.628906"/>
      <use xlink:href="#ArialMT-2e" x="590.244141"/>
      <use xlink:href="#ArialMT-38" x="618.027344"/>
      <use xlink:href="#ArialMT-33" x="673.642578"/>
      <use xlink:href="#ArialMT-25" x="729.257812"/>
      <use xlink:href="#ArialMT-2c" x="818.173828"/>
      <use xlink:href="#ArialMT-20" x="845.957031"/>
      <use xlink:href="#ArialMT-3c3" x="873.740234"/>
      <use xlink:href="#ArialMT-3d" x="935.458984"/>
      <use xlink:href="#ArialMT-31" x="993.857422"/>
      <use xlink:href="#ArialMT-2e" x="1049.472656"/>
      <use xlink:href="#ArialMT-30" x="1077.255859"/>
      <use xlink:href="#ArialMT-33" x="1132.871094"/>
      <use xlink:href="#ArialMT-25" x="1188.486328"/>
      <use xlink:href="#ArialMT-29" x="1277.402344"/>
     </g>
    </g>
    <g id="patch_7">
     <path d="M 499.60125 61.449375 
L 523.60125 61.449375 
L 523.60125 53.049375 
L 499.60125 53.049375 
z
" style="fill: #e74c3c; fill-opacity: 0.3; stroke: #e74c3c; stroke-linejoin: miter"/>
    </g>
    <g id="text_19">
     <!-- Testing (μ=1.92%, σ=1.74%) -->
     <g style="fill: #262626" transform="translate(533.20125 61.449375) scale(0.12 -0.12)">
      <defs>
       <path id="ArialMT-39" d="M 350 1059 
L 891 1109 
Q 959 728 1153 556 
Q 1347 384 1650 384 
Q 1909 384 2104 503 
Q 2300 622 2425 820 
Q 2550 1019 2634 1356 
Q 2719 1694 2719 2044 
Q 2719 2081 2716 2156 
Q 2547 1888 2255 1720 
Q 1963 1553 1622 1553 
Q 1053 1553 659 1965 
Q 266 2378 266 3053 
Q 266 3750 677 4175 
Q 1088 4600 1706 4600 
Q 2153 4600 2523 4359 
Q 2894 4119 3086 3673 
Q 3278 3228 3278 2384 
Q 3278 1506 3087 986 
Q 2897 466 2520 194 
Q 2144 -78 1638 -78 
Q 1100 -78 759 220 
Q 419 519 350 1059 
z
M 2653 3081 
Q 2653 3566 2395 3850 
Q 2138 4134 1775 4134 
Q 1400 4134 1122 3828 
Q 844 3522 844 3034 
Q 844 2597 1108 2323 
Q 1372 2050 1759 2050 
Q 2150 2050 2401 2323 
Q 2653 2597 2653 3081 
z
" transform="scale(0.015625)"/>
       <path id="ArialMT-37" d="M 303 3981 
L 303 4522 
L 3269 4522 
L 3269 4084 
Q 2831 3619 2401 2847 
Q 1972 2075 1738 1259 
Q 1569 684 1522 0 
L 944 0 
Q 953 541 1156 1306 
Q 1359 2072 1739 2783 
Q 2119 3494 2547 3981 
L 303 3981 
z
" transform="scale(0.015625)"/>
      </defs>
      <use xlink:href="#ArialMT-54"/>
      <use xlink:href="#ArialMT-65" x="49.958984"/>
      <use xlink:href="#ArialMT-73" x="105.574219"/>
      <use xlink:href="#ArialMT-74" x="155.574219"/>
      <use xlink:href="#ArialMT-69" x="183.357422"/>
      <use xlink:href="#ArialMT-6e" x="205.574219"/>
      <use xlink:href="#ArialMT-67" x="261.189453"/>
      <use xlink:href="#ArialMT-20" x="316.804688"/>
      <use xlink:href="#ArialMT-28" x="344.587891"/>
      <use xlink:href="#ArialMT-3bc" x="377.888672"/>
      <use xlink:href="#ArialMT-3d" x="435.505859"/>
      <use xlink:href="#ArialMT-31" x="493.904297"/>
      <use xlink:href="#ArialMT-2e" x="549.519531"/>
      <use xlink:href="#ArialMT-39" x="577.302734"/>
      <use xlink:href="#ArialMT-32" x="632.917969"/>
      <use xlink:href="#ArialMT-25" x="688.533203"/>
      <use xlink:href="#ArialMT-2c" x="777.449219"/>
      <use xlink:href="#ArialMT-20" x="805.232422"/>
      <use xlink:href="#ArialMT-3c3" x="833.015625"/>
      <use xlink:href="#ArialMT-3d" x="894.734375"/>
      <use xlink:href="#ArialMT-31" x="953.132812"/>
      <use xlink:href="#ArialMT-2e" x="1008.748047"/>
      <use xlink:href="#ArialMT-37" x="1036.53125"/>
      <use xlink:href="#ArialMT-34" x="1092.146484"/>
      <use xlink:href="#ArialMT-25" x="1147.761719"/>
      <use xlink:href="#ArialMT-29" x="1236.677734"/>
     </g>
    </g>
   </g>
  </g>
 </g>
 <defs>
  <clipPath id="p14ad1a95c4">
   <rect x="60.520625" y="24.6525" width="640.759375" height="347.515"/>
  </clipPath>
 </defs>
</svg>
