<?xml version="1.0" encoding="utf-8" standalone="no"?>
<!DOCTYPE svg PUBLIC "-//W3C//DTD SVG 1.1//EN"
  "http://www.w3.org/Graphics/SVG/1.1/DTD/svg11.dtd">
<svg xmlns:xlink="http://www.w3.org/1999/xlink" width="708.48pt" height="420.48pt" viewBox="0 0 708.48 420.48" xmlns="http://www.w3.org/2000/svg" version="1.1">
 <metadata>
  <rdf:RDF xmlns:dc="http://purl.org/dc/elements/1.1/" xmlns:cc="http://creativecommons.org/ns#" xmlns:rdf="http://www.w3.org/1999/02/22-rdf-syntax-ns#">
   <cc:Work>
    <dc:type rdf:resource="http://purl.org/dc/dcmitype/StillImage"/>
    <dc:date>2025-01-07T20:09:20.463248</dc:date>
    <dc:format>image/svg+xml</dc:format>
    <dc:creator>
     <cc:Agent>
      <dc:title>Matplotlib v3.9.3, https://matplotlib.org/</dc:title>
     </cc:Agent>
    </dc:creator>
   </cc:Work>
  </rdf:RDF>
 </metadata>
 <defs>
  <style type="text/css">*{stroke-linejoin: round; stroke-linecap: butt}</style>
 </defs>
 <g id="figure_1">
  <g id="patch_1">
   <path d="M 0 420.48 
L 708.48 420.48 
L 708.48 -0 
L 0 -0 
z
" style="fill: #ffffff"/>
  </g>
  <g id="axes_1">
   <g id="patch_2">
    <path d="M 60.520625 372.1675 
L 701.28 372.1675 
L 701.28 24.6525 
L 60.520625 24.6525 
z
" style="fill: #ffffff"/>
   </g>
   <g id="matplotlib.axis_1">
    <g id="xtick_1">
     <g id="line2d_1">
      <path d="M 97.63734 372.1675 
L 97.63734 24.6525 
" clip-path="url(#p361f9a6e8b)" style="fill: none; stroke: #cccccc; stroke-opacity: 0.3; stroke-width: 0.5; stroke-linecap: round"/>
     </g>
     <g id="text_1">
      <!-- −2 -->
      <g style="fill: #262626" transform="translate(90.796402 387.756875) scale(0.12 -0.12)">
       <defs>
        <path id="ArialMT-2212" d="M 3381 1997 
L 356 1997 
L 356 2522 
L 3381 2522 
L 3381 1997 
z
" transform="scale(0.015625)"/>
        <path id="ArialMT-32" d="M 3222 541 
L 3222 0 
L 194 0 
Q 188 203 259 391 
Q 375 700 629 1000 
Q 884 1300 1366 1694 
Q 2113 2306 2375 2664 
Q 2638 3022 2638 3341 
Q 2638 3675 2398 3904 
Q 2159 4134 1775 4134 
Q 1369 4134 1125 3890 
Q 881 3647 878 3216 
L 300 3275 
Q 359 3922 746 4261 
Q 1134 4600 1788 4600 
Q 2447 4600 2831 4234 
Q 3216 3869 3216 3328 
Q 3216 3053 3103 2787 
Q 2991 2522 2730 2228 
Q 2469 1934 1863 1422 
Q 1356 997 1212 845 
Q 1069 694 975 541 
L 3222 541 
z
" transform="scale(0.015625)"/>
       </defs>
       <use xlink:href="#ArialMT-2212"/>
       <use xlink:href="#ArialMT-32" x="58.398438"/>
      </g>
     </g>
    </g>
    <g id="xtick_2">
     <g id="line2d_2">
      <path d="M 233.422055 372.1675 
L 233.422055 24.6525 
" clip-path="url(#p361f9a6e8b)" style="fill: none; stroke: #cccccc; stroke-opacity: 0.3; stroke-width: 0.5; stroke-linecap: round"/>
     </g>
     <g id="text_2">
      <!-- 0 -->
      <g style="fill: #262626" transform="translate(230.085493 387.756875) scale(0.12 -0.12)">
       <defs>
        <path id="ArialMT-30" d="M 266 2259 
Q 266 3072 433 3567 
Q 600 4063 929 4331 
Q 1259 4600 1759 4600 
Q 2128 4600 2406 4451 
Q 2684 4303 2865 4023 
Q 3047 3744 3150 3342 
Q 3253 2941 3253 2259 
Q 3253 1453 3087 958 
Q 2922 463 2592 192 
Q 2263 -78 1759 -78 
Q 1097 -78 719 397 
Q 266 969 266 2259 
z
M 844 2259 
Q 844 1131 1108 757 
Q 1372 384 1759 384 
Q 2147 384 2411 759 
Q 2675 1134 2675 2259 
Q 2675 3391 2411 3762 
Q 2147 4134 1753 4134 
Q 1366 4134 1134 3806 
Q 844 3388 844 2259 
z
" transform="scale(0.015625)"/>
       </defs>
       <use xlink:href="#ArialMT-30"/>
      </g>
     </g>
    </g>
    <g id="xtick_3">
     <g id="line2d_3">
      <path d="M 369.206771 372.1675 
L 369.206771 24.6525 
" clip-path="url(#p361f9a6e8b)" style="fill: none; stroke: #cccccc; stroke-opacity: 0.3; stroke-width: 0.5; stroke-linecap: round"/>
     </g>
     <g id="text_3">
      <!-- 2 -->
      <g style="fill: #262626" transform="translate(365.870209 387.756875) scale(0.12 -0.12)">
       <use xlink:href="#ArialMT-32"/>
      </g>
     </g>
    </g>
    <g id="xtick_4">
     <g id="line2d_4">
      <path d="M 504.991487 372.1675 
L 504.991487 24.6525 
" clip-path="url(#p361f9a6e8b)" style="fill: none; stroke: #cccccc; stroke-opacity: 0.3; stroke-width: 0.5; stroke-linecap: round"/>
     </g>
     <g id="text_4">
      <!-- 4 -->
      <g style="fill: #262626" transform="translate(501.654924 387.756875) scale(0.12 -0.12)">
       <defs>
        <path id="ArialMT-34" d="M 2069 0 
L 2069 1097 
L 81 1097 
L 81 1613 
L 2172 4581 
L 2631 4581 
L 2631 1613 
L 3250 1613 
L 3250 1097 
L 2631 1097 
L 2631 0 
L 2069 0 
z
M 2069 1613 
L 2069 3678 
L 634 1613 
L 2069 1613 
z
" transform="scale(0.015625)"/>
       </defs>
       <use xlink:href="#ArialMT-34"/>
      </g>
     </g>
    </g>
    <g id="xtick_5">
     <g id="line2d_5">
      <path d="M 640.776202 372.1675 
L 640.776202 24.6525 
" clip-path="url(#p361f9a6e8b)" style="fill: none; stroke: #cccccc; stroke-opacity: 0.3; stroke-width: 0.5; stroke-linecap: round"/>
     </g>
     <g id="text_5">
      <!-- 6 -->
      <g style="fill: #262626" transform="translate(637.43964 387.756875) scale(0.12 -0.12)">
       <defs>
        <path id="ArialMT-36" d="M 3184 3459 
L 2625 3416 
Q 2550 3747 2413 3897 
Q 2184 4138 1850 4138 
Q 1581 4138 1378 3988 
Q 1113 3794 959 3422 
Q 806 3050 800 2363 
Q 1003 2672 1297 2822 
Q 1591 2972 1913 2972 
Q 2475 2972 2870 2558 
Q 3266 2144 3266 1488 
Q 3266 1056 3080 686 
Q 2894 316 2569 119 
Q 2244 -78 1831 -78 
Q 1128 -78 684 439 
Q 241 956 241 2144 
Q 241 3472 731 4075 
Q 1159 4600 1884 4600 
Q 2425 4600 2770 4297 
Q 3116 3994 3184 3459 
z
M 888 1484 
Q 888 1194 1011 928 
Q 1134 663 1356 523 
Q 1578 384 1822 384 
Q 2178 384 2434 671 
Q 2691 959 2691 1453 
Q 2691 1928 2437 2201 
Q 2184 2475 1800 2475 
Q 1419 2475 1153 2201 
Q 888 1928 888 1484 
z
" transform="scale(0.015625)"/>
       </defs>
       <use xlink:href="#ArialMT-36"/>
      </g>
     </g>
    </g>
    <g id="text_6">
     <!-- Error (%) -->
     <g style="fill: #262626" transform="translate(352.515312 410.333438) scale(0.14 -0.14)">
      <defs>
       <path id="ArialMT-45" d="M 506 0 
L 506 4581 
L 3819 4581 
L 3819 4041 
L 1113 4041 
L 1113 2638 
L 3647 2638 
L 3647 2100 
L 1113 2100 
L 1113 541 
L 3925 541 
L 3925 0 
L 506 0 
z
" transform="scale(0.015625)"/>
       <path id="ArialMT-72" d="M 416 0 
L 416 3319 
L 922 3319 
L 922 2816 
Q 1116 3169 1280 3281 
Q 1444 3394 1641 3394 
Q 1925 3394 2219 3213 
L 2025 2691 
Q 1819 2813 1613 2813 
Q 1428 2813 1281 2702 
Q 1134 2591 1072 2394 
Q 978 2094 978 1738 
L 978 0 
L 416 0 
z
" transform="scale(0.015625)"/>
       <path id="ArialMT-6f" d="M 213 1659 
Q 213 2581 725 3025 
Q 1153 3394 1769 3394 
Q 2453 3394 2887 2945 
Q 3322 2497 3322 1706 
Q 3322 1066 3130 698 
Q 2938 331 2570 128 
Q 2203 -75 1769 -75 
Q 1072 -75 642 372 
Q 213 819 213 1659 
z
M 791 1659 
Q 791 1022 1069 705 
Q 1347 388 1769 388 
Q 2188 388 2466 706 
Q 2744 1025 2744 1678 
Q 2744 2294 2464 2611 
Q 2184 2928 1769 2928 
Q 1347 2928 1069 2612 
Q 791 2297 791 1659 
z
" transform="scale(0.015625)"/>
       <path id="ArialMT-20" transform="scale(0.015625)"/>
       <path id="ArialMT-28" d="M 1497 -1347 
Q 1031 -759 709 28 
Q 388 816 388 1659 
Q 388 2403 628 3084 
Q 909 3875 1497 4659 
L 1900 4659 
Q 1522 4009 1400 3731 
Q 1209 3300 1100 2831 
Q 966 2247 966 1656 
Q 966 153 1900 -1347 
L 1497 -1347 
z
" transform="scale(0.015625)"/>
       <path id="ArialMT-25" d="M 372 3481 
Q 372 3972 619 4315 
Q 866 4659 1334 4659 
Q 1766 4659 2048 4351 
Q 2331 4044 2331 3447 
Q 2331 2866 2045 2552 
Q 1759 2238 1341 2238 
Q 925 2238 648 2547 
Q 372 2856 372 3481 
z
M 1350 4272 
Q 1141 4272 1002 4090 
Q 863 3909 863 3425 
Q 863 2984 1003 2804 
Q 1144 2625 1350 2625 
Q 1563 2625 1702 2806 
Q 1841 2988 1841 3469 
Q 1841 3913 1700 4092 
Q 1559 4272 1350 4272 
z
M 1353 -169 
L 3859 4659 
L 4316 4659 
L 1819 -169 
L 1353 -169 
z
M 3334 1075 
Q 3334 1569 3581 1911 
Q 3828 2253 4300 2253 
Q 4731 2253 5014 1945 
Q 5297 1638 5297 1041 
Q 5297 459 5011 145 
Q 4725 -169 4303 -169 
Q 3888 -169 3611 142 
Q 3334 453 3334 1075 
z
M 4316 1866 
Q 4103 1866 3964 1684 
Q 3825 1503 3825 1019 
Q 3825 581 3965 400 
Q 4106 219 4313 219 
Q 4528 219 4667 400 
Q 4806 581 4806 1063 
Q 4806 1506 4665 1686 
Q 4525 1866 4316 1866 
z
" transform="scale(0.015625)"/>
       <path id="ArialMT-29" d="M 791 -1347 
L 388 -1347 
Q 1322 153 1322 1656 
Q 1322 2244 1188 2822 
Q 1081 3291 891 3722 
Q 769 4003 388 4659 
L 791 4659 
Q 1378 3875 1659 3084 
Q 1900 2403 1900 1659 
Q 1900 816 1576 28 
Q 1253 -759 791 -1347 
z
" transform="scale(0.015625)"/>
      </defs>
      <use xlink:href="#ArialMT-45"/>
      <use xlink:href="#ArialMT-72" x="66.699219"/>
      <use xlink:href="#ArialMT-72" x="100"/>
      <use xlink:href="#ArialMT-6f" x="133.300781"/>
      <use xlink:href="#ArialMT-72" x="188.916016"/>
      <use xlink:href="#ArialMT-20" x="222.216797"/>
      <use xlink:href="#ArialMT-28" x="250"/>
      <use xlink:href="#ArialMT-25" x="283.300781"/>
      <use xlink:href="#ArialMT-29" x="372.216797"/>
     </g>
    </g>
   </g>
   <g id="matplotlib.axis_2">
    <g id="ytick_1">
     <g id="line2d_6">
      <path d="M 60.520625 372.1675 
L 701.28 372.1675 
" clip-path="url(#p361f9a6e8b)" style="fill: none; stroke: #cccccc; stroke-opacity: 0.3; stroke-width: 0.5; stroke-linecap: round"/>
     </g>
     <g id="text_7">
      <!-- 0.00 -->
      <g style="fill: #262626" transform="translate(30.1675 376.462188) scale(0.12 -0.12)">
       <defs>
        <path id="ArialMT-2e" d="M 581 0 
L 581 641 
L 1222 641 
L 1222 0 
L 581 0 
z
" transform="scale(0.015625)"/>
       </defs>
       <use xlink:href="#ArialMT-30"/>
       <use xlink:href="#ArialMT-2e" x="55.615234"/>
       <use xlink:href="#ArialMT-30" x="83.398438"/>
       <use xlink:href="#ArialMT-30" x="139.013672"/>
      </g>
     </g>
    </g>
    <g id="ytick_2">
     <g id="line2d_7">
      <path d="M 60.520625 326.867167 
L 701.28 326.867167 
" clip-path="url(#p361f9a6e8b)" style="fill: none; stroke: #cccccc; stroke-opacity: 0.3; stroke-width: 0.5; stroke-linecap: round"/>
     </g>
     <g id="text_8">
      <!-- 0.05 -->
      <g style="fill: #262626" transform="translate(30.1675 331.161854) scale(0.12 -0.12)">
       <defs>
        <path id="ArialMT-35" d="M 266 1200 
L 856 1250 
Q 922 819 1161 601 
Q 1400 384 1738 384 
Q 2144 384 2425 690 
Q 2706 997 2706 1503 
Q 2706 1984 2436 2262 
Q 2166 2541 1728 2541 
Q 1456 2541 1237 2417 
Q 1019 2294 894 2097 
L 366 2166 
L 809 4519 
L 3088 4519 
L 3088 3981 
L 1259 3981 
L 1013 2750 
Q 1425 3038 1878 3038 
Q 2478 3038 2890 2622 
Q 3303 2206 3303 1553 
Q 3303 931 2941 478 
Q 2500 -78 1738 -78 
Q 1113 -78 717 272 
Q 322 622 266 1200 
z
" transform="scale(0.015625)"/>
       </defs>
       <use xlink:href="#ArialMT-30"/>
       <use xlink:href="#ArialMT-2e" x="55.615234"/>
       <use xlink:href="#ArialMT-30" x="83.398438"/>
       <use xlink:href="#ArialMT-35" x="139.013672"/>
      </g>
     </g>
    </g>
    <g id="ytick_3">
     <g id="line2d_8">
      <path d="M 60.520625 281.566833 
L 701.28 281.566833 
" clip-path="url(#p361f9a6e8b)" style="fill: none; stroke: #cccccc; stroke-opacity: 0.3; stroke-width: 0.5; stroke-linecap: round"/>
     </g>
     <g id="text_9">
      <!-- 0.10 -->
      <g style="fill: #262626" transform="translate(30.1675 285.861521) scale(0.12 -0.12)">
       <defs>
        <path id="ArialMT-31" d="M 2384 0 
L 1822 0 
L 1822 3584 
Q 1619 3391 1289 3197 
Q 959 3003 697 2906 
L 697 3450 
Q 1169 3672 1522 3987 
Q 1875 4303 2022 4600 
L 2384 4600 
L 2384 0 
z
" transform="scale(0.015625)"/>
       </defs>
       <use xlink:href="#ArialMT-30"/>
       <use xlink:href="#ArialMT-2e" x="55.615234"/>
       <use xlink:href="#ArialMT-31" x="83.398438"/>
       <use xlink:href="#ArialMT-30" x="139.013672"/>
      </g>
     </g>
    </g>
    <g id="ytick_4">
     <g id="line2d_9">
      <path d="M 60.520625 236.2665 
L 701.28 236.2665 
" clip-path="url(#p361f9a6e8b)" style="fill: none; stroke: #cccccc; stroke-opacity: 0.3; stroke-width: 0.5; stroke-linecap: round"/>
     </g>
     <g id="text_10">
      <!-- 0.15 -->
      <g style="fill: #262626" transform="translate(30.1675 240.561187) scale(0.12 -0.12)">
       <use xlink:href="#ArialMT-30"/>
       <use xlink:href="#ArialMT-2e" x="55.615234"/>
       <use xlink:href="#ArialMT-31" x="83.398438"/>
       <use xlink:href="#ArialMT-35" x="139.013672"/>
      </g>
     </g>
    </g>
    <g id="ytick_5">
     <g id="line2d_10">
      <path d="M 60.520625 190.966166 
L 701.28 190.966166 
" clip-path="url(#p361f9a6e8b)" style="fill: none; stroke: #cccccc; stroke-opacity: 0.3; stroke-width: 0.5; stroke-linecap: round"/>
     </g>
     <g id="text_11">
      <!-- 0.20 -->
      <g style="fill: #262626" transform="translate(30.1675 195.260854) scale(0.12 -0.12)">
       <use xlink:href="#ArialMT-30"/>
       <use xlink:href="#ArialMT-2e" x="55.615234"/>
       <use xlink:href="#ArialMT-32" x="83.398438"/>
       <use xlink:href="#ArialMT-30" x="139.013672"/>
      </g>
     </g>
    </g>
    <g id="ytick_6">
     <g id="line2d_11">
      <path d="M 60.520625 145.665833 
L 701.28 145.665833 
" clip-path="url(#p361f9a6e8b)" style="fill: none; stroke: #cccccc; stroke-opacity: 0.3; stroke-width: 0.5; stroke-linecap: round"/>
     </g>
     <g id="text_12">
      <!-- 0.25 -->
      <g style="fill: #262626" transform="translate(30.1675 149.96052) scale(0.12 -0.12)">
       <use xlink:href="#ArialMT-30"/>
       <use xlink:href="#ArialMT-2e" x="55.615234"/>
       <use xlink:href="#ArialMT-32" x="83.398438"/>
       <use xlink:href="#ArialMT-35" x="139.013672"/>
      </g>
     </g>
    </g>
    <g id="ytick_7">
     <g id="line2d_12">
      <path d="M 60.520625 100.365499 
L 701.28 100.365499 
" clip-path="url(#p361f9a6e8b)" style="fill: none; stroke: #cccccc; stroke-opacity: 0.3; stroke-width: 0.5; stroke-linecap: round"/>
     </g>
     <g id="text_13">
      <!-- 0.30 -->
      <g style="fill: #262626" transform="translate(30.1675 104.660187) scale(0.12 -0.12)">
       <defs>
        <path id="ArialMT-33" d="M 269 1209 
L 831 1284 
Q 928 806 1161 595 
Q 1394 384 1728 384 
Q 2125 384 2398 659 
Q 2672 934 2672 1341 
Q 2672 1728 2419 1979 
Q 2166 2231 1775 2231 
Q 1616 2231 1378 2169 
L 1441 2663 
Q 1497 2656 1531 2656 
Q 1891 2656 2178 2843 
Q 2466 3031 2466 3422 
Q 2466 3731 2256 3934 
Q 2047 4138 1716 4138 
Q 1388 4138 1169 3931 
Q 950 3725 888 3313 
L 325 3413 
Q 428 3978 793 4289 
Q 1159 4600 1703 4600 
Q 2078 4600 2393 4439 
Q 2709 4278 2876 4000 
Q 3044 3722 3044 3409 
Q 3044 3113 2884 2869 
Q 2725 2625 2413 2481 
Q 2819 2388 3044 2092 
Q 3269 1797 3269 1353 
Q 3269 753 2831 336 
Q 2394 -81 1725 -81 
Q 1122 -81 723 278 
Q 325 638 269 1209 
z
" transform="scale(0.015625)"/>
       </defs>
       <use xlink:href="#ArialMT-30"/>
       <use xlink:href="#ArialMT-2e" x="55.615234"/>
       <use xlink:href="#ArialMT-33" x="83.398438"/>
       <use xlink:href="#ArialMT-30" x="139.013672"/>
      </g>
     </g>
    </g>
    <g id="ytick_8">
     <g id="line2d_13">
      <path d="M 60.520625 55.065166 
L 701.28 55.065166 
" clip-path="url(#p361f9a6e8b)" style="fill: none; stroke: #cccccc; stroke-opacity: 0.3; stroke-width: 0.5; stroke-linecap: round"/>
     </g>
     <g id="text_14">
      <!-- 0.35 -->
      <g style="fill: #262626" transform="translate(30.1675 59.359853) scale(0.12 -0.12)">
       <use xlink:href="#ArialMT-30"/>
       <use xlink:href="#ArialMT-2e" x="55.615234"/>
       <use xlink:href="#ArialMT-33" x="83.398438"/>
       <use xlink:href="#ArialMT-35" x="139.013672"/>
      </g>
     </g>
    </g>
    <g id="text_15">
     <!-- Density -->
     <g style="fill: #262626" transform="translate(17.220938 221.750625) rotate(-90) scale(0.14 -0.14)">
      <defs>
       <path id="ArialMT-44" d="M 494 0 
L 494 4581 
L 2072 4581 
Q 2606 4581 2888 4516 
Q 3281 4425 3559 4188 
Q 3922 3881 4101 3404 
Q 4281 2928 4281 2316 
Q 4281 1794 4159 1391 
Q 4038 988 3847 723 
Q 3656 459 3429 307 
Q 3203 156 2883 78 
Q 2563 0 2147 0 
L 494 0 
z
M 1100 541 
L 2078 541 
Q 2531 541 2789 625 
Q 3047 709 3200 863 
Q 3416 1078 3536 1442 
Q 3656 1806 3656 2325 
Q 3656 3044 3420 3430 
Q 3184 3816 2847 3947 
Q 2603 4041 2063 4041 
L 1100 4041 
L 1100 541 
z
" transform="scale(0.015625)"/>
       <path id="ArialMT-65" d="M 2694 1069 
L 3275 997 
Q 3138 488 2766 206 
Q 2394 -75 1816 -75 
Q 1088 -75 661 373 
Q 234 822 234 1631 
Q 234 2469 665 2931 
Q 1097 3394 1784 3394 
Q 2450 3394 2872 2941 
Q 3294 2488 3294 1666 
Q 3294 1616 3291 1516 
L 816 1516 
Q 847 969 1125 678 
Q 1403 388 1819 388 
Q 2128 388 2347 550 
Q 2566 713 2694 1069 
z
M 847 1978 
L 2700 1978 
Q 2663 2397 2488 2606 
Q 2219 2931 1791 2931 
Q 1403 2931 1139 2672 
Q 875 2413 847 1978 
z
" transform="scale(0.015625)"/>
       <path id="ArialMT-6e" d="M 422 0 
L 422 3319 
L 928 3319 
L 928 2847 
Q 1294 3394 1984 3394 
Q 2284 3394 2536 3286 
Q 2788 3178 2913 3003 
Q 3038 2828 3088 2588 
Q 3119 2431 3119 2041 
L 3119 0 
L 2556 0 
L 2556 2019 
Q 2556 2363 2490 2533 
Q 2425 2703 2258 2804 
Q 2091 2906 1866 2906 
Q 1506 2906 1245 2678 
Q 984 2450 984 1813 
L 984 0 
L 422 0 
z
" transform="scale(0.015625)"/>
       <path id="ArialMT-73" d="M 197 991 
L 753 1078 
Q 800 744 1014 566 
Q 1228 388 1613 388 
Q 2000 388 2187 545 
Q 2375 703 2375 916 
Q 2375 1106 2209 1216 
Q 2094 1291 1634 1406 
Q 1016 1563 777 1677 
Q 538 1791 414 1992 
Q 291 2194 291 2438 
Q 291 2659 392 2848 
Q 494 3038 669 3163 
Q 800 3259 1026 3326 
Q 1253 3394 1513 3394 
Q 1903 3394 2198 3281 
Q 2494 3169 2634 2976 
Q 2775 2784 2828 2463 
L 2278 2388 
Q 2241 2644 2061 2787 
Q 1881 2931 1553 2931 
Q 1166 2931 1000 2803 
Q 834 2675 834 2503 
Q 834 2394 903 2306 
Q 972 2216 1119 2156 
Q 1203 2125 1616 2013 
Q 2213 1853 2448 1751 
Q 2684 1650 2818 1456 
Q 2953 1263 2953 975 
Q 2953 694 2789 445 
Q 2625 197 2315 61 
Q 2006 -75 1616 -75 
Q 969 -75 630 194 
Q 291 463 197 991 
z
" transform="scale(0.015625)"/>
       <path id="ArialMT-69" d="M 425 3934 
L 425 4581 
L 988 4581 
L 988 3934 
L 425 3934 
z
M 425 0 
L 425 3319 
L 988 3319 
L 988 0 
L 425 0 
z
" transform="scale(0.015625)"/>
       <path id="ArialMT-74" d="M 1650 503 
L 1731 6 
Q 1494 -44 1306 -44 
Q 1000 -44 831 53 
Q 663 150 594 308 
Q 525 466 525 972 
L 525 2881 
L 113 2881 
L 113 3319 
L 525 3319 
L 525 4141 
L 1084 4478 
L 1084 3319 
L 1650 3319 
L 1650 2881 
L 1084 2881 
L 1084 941 
Q 1084 700 1114 631 
Q 1144 563 1211 522 
Q 1278 481 1403 481 
Q 1497 481 1650 503 
z
" transform="scale(0.015625)"/>
       <path id="ArialMT-79" d="M 397 -1278 
L 334 -750 
Q 519 -800 656 -800 
Q 844 -800 956 -737 
Q 1069 -675 1141 -563 
Q 1194 -478 1313 -144 
Q 1328 -97 1363 -6 
L 103 3319 
L 709 3319 
L 1400 1397 
Q 1534 1031 1641 628 
Q 1738 1016 1872 1384 
L 2581 3319 
L 3144 3319 
L 1881 -56 
Q 1678 -603 1566 -809 
Q 1416 -1088 1222 -1217 
Q 1028 -1347 759 -1347 
Q 597 -1347 397 -1278 
z
" transform="scale(0.015625)"/>
      </defs>
      <use xlink:href="#ArialMT-44"/>
      <use xlink:href="#ArialMT-65" x="72.216797"/>
      <use xlink:href="#ArialMT-6e" x="127.832031"/>
      <use xlink:href="#ArialMT-73" x="183.447266"/>
      <use xlink:href="#ArialMT-69" x="233.447266"/>
      <use xlink:href="#ArialMT-74" x="255.664062"/>
      <use xlink:href="#ArialMT-79" x="283.447266"/>
     </g>
    </g>
   </g>
   <g id="PolyCollection_1">
    <defs>
     <path id="m78a9e48910" d="M 99.668402 -48.858861 
L 99.668402 -48.3125 
L 102.545217 -48.3125 
L 105.422032 -48.3125 
L 108.298847 -48.3125 
L 111.175662 -48.3125 
L 114.052477 -48.3125 
L 116.929292 -48.3125 
L 119.806107 -48.3125 
L 122.682921 -48.3125 
L 125.559736 -48.3125 
L 128.436551 -48.3125 
L 131.313366 -48.3125 
L 134.190181 -48.3125 
L 137.066996 -48.3125 
L 139.943811 -48.3125 
L 142.820626 -48.3125 
L 145.697441 -48.3125 
L 148.574256 -48.3125 
L 151.451071 -48.3125 
L 154.327886 -48.3125 
L 157.204701 -48.3125 
L 160.081516 -48.3125 
L 162.958331 -48.3125 
L 165.835145 -48.3125 
L 168.71196 -48.3125 
L 171.588775 -48.3125 
L 174.46559 -48.3125 
L 177.342405 -48.3125 
L 180.21922 -48.3125 
L 183.096035 -48.3125 
L 185.97285 -48.3125 
L 188.849665 -48.3125 
L 191.72648 -48.3125 
L 194.603295 -48.3125 
L 197.48011 -48.3125 
L 200.356925 -48.3125 
L 203.23374 -48.3125 
L 206.110555 -48.3125 
L 208.987369 -48.3125 
L 211.864184 -48.3125 
L 214.740999 -48.3125 
L 217.617814 -48.3125 
L 220.494629 -48.3125 
L 223.371444 -48.3125 
L 226.248259 -48.3125 
L 229.125074 -48.3125 
L 232.001889 -48.3125 
L 234.878704 -48.3125 
L 237.755519 -48.3125 
L 240.632334 -48.3125 
L 243.509149 -48.3125 
L 246.385964 -48.3125 
L 249.262779 -48.3125 
L 252.139594 -48.3125 
L 255.016408 -48.3125 
L 257.893223 -48.3125 
L 260.770038 -48.3125 
L 263.646853 -48.3125 
L 266.523668 -48.3125 
L 269.400483 -48.3125 
L 272.277298 -48.3125 
L 275.154113 -48.3125 
L 278.030928 -48.3125 
L 280.907743 -48.3125 
L 283.784558 -48.3125 
L 286.661373 -48.3125 
L 289.538188 -48.3125 
L 292.415003 -48.3125 
L 295.291818 -48.3125 
L 298.168632 -48.3125 
L 301.045447 -48.3125 
L 303.922262 -48.3125 
L 306.799077 -48.3125 
L 309.675892 -48.3125 
L 312.552707 -48.3125 
L 315.429522 -48.3125 
L 318.306337 -48.3125 
L 321.183152 -48.3125 
L 324.059967 -48.3125 
L 326.936782 -48.3125 
L 329.813597 -48.3125 
L 332.690412 -48.3125 
L 335.567227 -48.3125 
L 338.444042 -48.3125 
L 341.320856 -48.3125 
L 344.197671 -48.3125 
L 347.074486 -48.3125 
L 349.951301 -48.3125 
L 352.828116 -48.3125 
L 355.704931 -48.3125 
L 358.581746 -48.3125 
L 361.458561 -48.3125 
L 364.335376 -48.3125 
L 367.212191 -48.3125 
L 370.089006 -48.3125 
L 372.965821 -48.3125 
L 375.842636 -48.3125 
L 378.719451 -48.3125 
L 381.596266 -48.3125 
L 384.47308 -48.3125 
L 387.349895 -48.3125 
L 390.22671 -48.3125 
L 393.103525 -48.3125 
L 395.98034 -48.3125 
L 398.857155 -48.3125 
L 401.73397 -48.3125 
L 404.610785 -48.3125 
L 407.4876 -48.3125 
L 410.364415 -48.3125 
L 413.24123 -48.3125 
L 416.118045 -48.3125 
L 418.99486 -48.3125 
L 421.871675 -48.3125 
L 424.74849 -48.3125 
L 427.625304 -48.3125 
L 430.502119 -48.3125 
L 433.378934 -48.3125 
L 436.255749 -48.3125 
L 439.132564 -48.3125 
L 442.009379 -48.3125 
L 444.886194 -48.3125 
L 447.763009 -48.3125 
L 450.639824 -48.3125 
L 453.516639 -48.3125 
L 456.393454 -48.3125 
L 459.270269 -48.3125 
L 462.147084 -48.3125 
L 465.023899 -48.3125 
L 467.900714 -48.3125 
L 470.777528 -48.3125 
L 473.654343 -48.3125 
L 476.531158 -48.3125 
L 479.407973 -48.3125 
L 482.284788 -48.3125 
L 485.161603 -48.3125 
L 488.038418 -48.3125 
L 490.915233 -48.3125 
L 493.792048 -48.3125 
L 496.668863 -48.3125 
L 499.545678 -48.3125 
L 502.422493 -48.3125 
L 505.299308 -48.3125 
L 508.176123 -48.3125 
L 511.052938 -48.3125 
L 513.929752 -48.3125 
L 516.806567 -48.3125 
L 519.683382 -48.3125 
L 522.560197 -48.3125 
L 525.437012 -48.3125 
L 528.313827 -48.3125 
L 531.190642 -48.3125 
L 534.067457 -48.3125 
L 536.944272 -48.3125 
L 539.821087 -48.3125 
L 542.697902 -48.3125 
L 545.574717 -48.3125 
L 548.451532 -48.3125 
L 551.328347 -48.3125 
L 554.205162 -48.3125 
L 557.081977 -48.3125 
L 559.958791 -48.3125 
L 562.835606 -48.3125 
L 565.712421 -48.3125 
L 568.589236 -48.3125 
L 571.466051 -48.3125 
L 574.342866 -48.3125 
L 577.219681 -48.3125 
L 580.096496 -48.3125 
L 582.973311 -48.3125 
L 585.850126 -48.3125 
L 588.726941 -48.3125 
L 591.603756 -48.3125 
L 594.480571 -48.3125 
L 597.357386 -48.3125 
L 600.234201 -48.3125 
L 603.111015 -48.3125 
L 605.98783 -48.3125 
L 608.864645 -48.3125 
L 611.74146 -48.3125 
L 614.618275 -48.3125 
L 617.49509 -48.3125 
L 620.371905 -48.3125 
L 623.24872 -48.3125 
L 626.125535 -48.3125 
L 629.00235 -48.3125 
L 631.879165 -48.3125 
L 634.75598 -48.3125 
L 637.632795 -48.3125 
L 640.50961 -48.3125 
L 643.386425 -48.3125 
L 646.263239 -48.3125 
L 649.140054 -48.3125 
L 652.016869 -48.3125 
L 654.893684 -48.3125 
L 657.770499 -48.3125 
L 660.647314 -48.3125 
L 663.524129 -48.3125 
L 666.400944 -48.3125 
L 669.277759 -48.3125 
L 672.154574 -48.3125 
L 672.154574 -48.589744 
L 672.154574 -48.589744 
L 669.277759 -48.651386 
L 666.400944 -48.725195 
L 663.524129 -48.813215 
L 660.647314 -48.917761 
L 657.770499 -49.041437 
L 654.893684 -49.187153 
L 652.016869 -49.358147 
L 649.140054 -49.557993 
L 646.263239 -49.790621 
L 643.386425 -50.060315 
L 640.50961 -50.371721 
L 637.632795 -50.729839 
L 634.75598 -51.140012 
L 631.879165 -51.607912 
L 629.00235 -52.139506 
L 626.125535 -52.741023 
L 623.24872 -53.41891 
L 620.371905 -54.179773 
L 617.49509 -55.030316 
L 614.618275 -55.977264 
L 611.74146 -57.027281 
L 608.864645 -58.186878 
L 605.98783 -59.462318 
L 603.111015 -60.859509 
L 600.234201 -62.3839 
L 597.357386 -64.040373 
L 594.480571 -65.833137 
L 591.603756 -67.765624 
L 588.726941 -69.840391 
L 585.850126 -72.059039 
L 582.973311 -74.42213 
L 580.096496 -76.929131 
L 577.219681 -79.578372 
L 574.342866 -82.367017 
L 571.466051 -85.291067 
L 568.589236 -88.345375 
L 565.712421 -91.523687 
L 562.835606 -94.818712 
L 559.958791 -98.222203 
L 557.081977 -101.725067 
L 554.205162 -105.317489 
L 551.328347 -108.989074 
L 548.451532 -112.728999 
L 545.574717 -116.526174 
L 542.697902 -120.369405 
L 539.821087 -124.24756 
L 536.944272 -128.149724 
L 534.067457 -132.065347 
L 531.190642 -135.984377 
L 528.313827 -139.897373 
L 525.437012 -143.795594 
L 522.560197 -147.671069 
L 519.683382 -151.516635 
L 516.806567 -155.325944 
L 513.929752 -159.093456 
L 511.052938 -162.81439 
L 508.176123 -166.484659 
L 505.299308 -170.100781 
L 502.422493 -173.659775 
L 499.545678 -177.159037 
L 496.668863 -180.596216 
L 493.792048 -183.969081 
L 490.915233 -187.275389 
L 488.038418 -190.512762 
L 485.161603 -193.678579 
L 482.284788 -196.769875 
L 479.407973 -199.783271 
L 476.531158 -202.714917 
L 473.654343 -205.560466 
L 470.777528 -208.31507 
L 467.900714 -210.973409 
L 465.023899 -213.529739 
L 462.147084 -215.97797 
L 459.270269 -218.311761 
L 456.393454 -220.524646 
L 453.516639 -222.610163 
L 450.639824 -224.562012 
L 447.763009 -226.374207 
L 444.886194 -228.041249 
L 442.009379 -229.558289 
L 439.132564 -230.921296 
L 436.255749 -232.12722 
L 433.378934 -233.174141 
L 430.502119 -234.061405 
L 427.625304 -234.789755 
L 424.74849 -235.361428 
L 421.871675 -235.780239 
L 418.99486 -236.051646 
L 416.118045 -236.182777 
L 413.24123 -236.182439 
L 410.364415 -236.061095 
L 407.4876 -235.830811 
L 404.610785 -235.505168 
L 401.73397 -235.099153 
L 398.857155 -234.629008 
L 395.98034 -234.112053 
L 393.103525 -233.566483 
L 390.22671 -233.011137 
L 387.349895 -232.465239 
L 384.47308 -231.948125 
L 381.596266 -231.478949 
L 378.719451 -231.076382 
L 375.842636 -230.7583 
L 372.965821 -230.541479 
L 370.089006 -230.441285 
L 367.212191 -230.471388 
L 364.335376 -230.643486 
L 361.458561 -230.967056 
L 358.581746 -231.449131 
L 355.704931 -232.094119 
L 352.828116 -232.903651 
L 349.951301 -233.876477 
L 347.074486 -235.008405 
L 344.197671 -236.292283 
L 341.320856 -237.718031 
L 338.444042 -239.272712 
L 335.567227 -240.940653 
L 332.690412 -242.703602 
L 329.813597 -244.540925 
L 326.936782 -246.429833 
L 324.059967 -248.345644 
L 321.183152 -250.262067 
L 318.306337 -252.151502 
L 315.429522 -253.98536 
L 312.552707 -255.734393 
L 309.675892 -257.369031 
L 306.799077 -258.859715 
L 303.922262 -260.177237 
L 301.045447 -261.293069 
L 298.168632 -262.179687 
L 295.291818 -262.810888 
L 292.415003 -263.162083 
L 289.538188 -263.210588 
L 286.661373 -262.935893 
L 283.784558 -262.319906 
L 280.907743 -261.347184 
L 278.030928 -260.005135 
L 275.154113 -258.284197 
L 272.277298 -256.177988 
L 269.400483 -253.683421 
L 266.523668 -250.800787 
L 263.646853 -247.53381 
L 260.770038 -243.889648 
L 257.893223 -239.878867 
L 255.016408 -235.515367 
L 252.139594 -230.816262 
L 249.262779 -225.801728 
L 246.385964 -220.494792 
L 243.509149 -214.921098 
L 240.632334 -209.108615 
L 237.755519 -203.087329 
L 234.878704 -196.888888 
L 232.001889 -190.546232 
L 229.125074 -184.093198 
L 226.248259 -177.564115 
L 223.371444 -170.993394 
L 220.494629 -164.415114 
L 217.617814 -157.862628 
L 214.740999 -151.368177 
L 211.864184 -144.962533 
L 208.987369 -138.674674 
L 206.110555 -132.531487 
L 203.23374 -126.557525 
L 200.356925 -120.774799 
L 197.48011 -115.20262 
L 194.603295 -109.857496 
L 191.72648 -104.753069 
L 188.849665 -99.900106 
L 185.97285 -95.306536 
L 183.096035 -90.977527 
L 180.21922 -86.915605 
L 177.342405 -83.120807 
L 174.46559 -79.590861 
L 171.588775 -76.321391 
L 168.71196 -73.306143 
L 165.835145 -70.537215 
L 162.958331 -68.005302 
L 160.081516 -65.699936 
L 157.204701 -63.609729 
L 154.327886 -61.722598 
L 151.451071 -60.025987 
L 148.574256 -58.507072 
L 145.697441 -57.152944 
L 142.820626 -55.950779 
L 139.943811 -54.887983 
L 137.066996 -53.952317 
L 134.190181 -53.132006 
L 131.313366 -52.415819 
L 128.436551 -51.793135 
L 125.559736 -51.253993 
L 122.682921 -50.789117 
L 119.806107 -50.389936 
L 116.929292 -50.048582 
L 114.052477 -49.757883 
L 111.175662 -49.511343 
L 108.298847 -49.303115 
L 105.422032 -49.127969 
L 102.545217 -48.981254 
L 99.668402 -48.858861 
z
" style="stroke: #2ecc71"/>
    </defs>
    <g clip-path="url(#p361f9a6e8b)">
     <use xlink:href="#m78a9e48910" x="0" y="420.48" style="fill: #2ecc71; fill-opacity: 0.3; stroke: #2ecc71"/>
    </g>
   </g>
   <g id="PolyCollection_2">
    <defs>
     <path id="md836b68b02" d="M 89.646051 -49.916903 
L 89.646051 -48.3125 
L 92.083069 -48.3125 
L 94.520087 -48.3125 
L 96.957105 -48.3125 
L 99.394124 -48.3125 
L 101.831142 -48.3125 
L 104.26816 -48.3125 
L 106.705178 -48.3125 
L 109.142196 -48.3125 
L 111.579214 -48.3125 
L 114.016232 -48.3125 
L 116.45325 -48.3125 
L 118.890269 -48.3125 
L 121.327287 -48.3125 
L 123.764305 -48.3125 
L 126.201323 -48.3125 
L 128.638341 -48.3125 
L 131.075359 -48.3125 
L 133.512377 -48.3125 
L 135.949395 -48.3125 
L 138.386413 -48.3125 
L 140.823432 -48.3125 
L 143.26045 -48.3125 
L 145.697468 -48.3125 
L 148.134486 -48.3125 
L 150.571504 -48.3125 
L 153.008522 -48.3125 
L 155.44554 -48.3125 
L 157.882558 -48.3125 
L 160.319576 -48.3125 
L 162.756595 -48.3125 
L 165.193613 -48.3125 
L 167.630631 -48.3125 
L 170.067649 -48.3125 
L 172.504667 -48.3125 
L 174.941685 -48.3125 
L 177.378703 -48.3125 
L 179.815721 -48.3125 
L 182.25274 -48.3125 
L 184.689758 -48.3125 
L 187.126776 -48.3125 
L 189.563794 -48.3125 
L 192.000812 -48.3125 
L 194.43783 -48.3125 
L 196.874848 -48.3125 
L 199.311866 -48.3125 
L 201.748884 -48.3125 
L 204.185903 -48.3125 
L 206.622921 -48.3125 
L 209.059939 -48.3125 
L 211.496957 -48.3125 
L 213.933975 -48.3125 
L 216.370993 -48.3125 
L 218.808011 -48.3125 
L 221.245029 -48.3125 
L 223.682047 -48.3125 
L 226.119066 -48.3125 
L 228.556084 -48.3125 
L 230.993102 -48.3125 
L 233.43012 -48.3125 
L 235.867138 -48.3125 
L 238.304156 -48.3125 
L 240.741174 -48.3125 
L 243.178192 -48.3125 
L 245.615211 -48.3125 
L 248.052229 -48.3125 
L 250.489247 -48.3125 
L 252.926265 -48.3125 
L 255.363283 -48.3125 
L 257.800301 -48.3125 
L 260.237319 -48.3125 
L 262.674337 -48.3125 
L 265.111355 -48.3125 
L 267.548374 -48.3125 
L 269.985392 -48.3125 
L 272.42241 -48.3125 
L 274.859428 -48.3125 
L 277.296446 -48.3125 
L 279.733464 -48.3125 
L 282.170482 -48.3125 
L 284.6075 -48.3125 
L 287.044518 -48.3125 
L 289.481537 -48.3125 
L 291.918555 -48.3125 
L 294.355573 -48.3125 
L 296.792591 -48.3125 
L 299.229609 -48.3125 
L 301.666627 -48.3125 
L 304.103645 -48.3125 
L 306.540663 -48.3125 
L 308.977682 -48.3125 
L 311.4147 -48.3125 
L 313.851718 -48.3125 
L 316.288736 -48.3125 
L 318.725754 -48.3125 
L 321.162772 -48.3125 
L 323.59979 -48.3125 
L 326.036808 -48.3125 
L 328.473826 -48.3125 
L 330.910845 -48.3125 
L 333.347863 -48.3125 
L 335.784881 -48.3125 
L 338.221899 -48.3125 
L 340.658917 -48.3125 
L 343.095935 -48.3125 
L 345.532953 -48.3125 
L 347.969971 -48.3125 
L 350.40699 -48.3125 
L 352.844008 -48.3125 
L 355.281026 -48.3125 
L 357.718044 -48.3125 
L 360.155062 -48.3125 
L 362.59208 -48.3125 
L 365.029098 -48.3125 
L 367.466116 -48.3125 
L 369.903134 -48.3125 
L 372.340153 -48.3125 
L 374.777171 -48.3125 
L 377.214189 -48.3125 
L 379.651207 -48.3125 
L 382.088225 -48.3125 
L 384.525243 -48.3125 
L 386.962261 -48.3125 
L 389.399279 -48.3125 
L 391.836297 -48.3125 
L 394.273316 -48.3125 
L 396.710334 -48.3125 
L 399.147352 -48.3125 
L 401.58437 -48.3125 
L 404.021388 -48.3125 
L 406.458406 -48.3125 
L 408.895424 -48.3125 
L 411.332442 -48.3125 
L 413.769461 -48.3125 
L 416.206479 -48.3125 
L 418.643497 -48.3125 
L 421.080515 -48.3125 
L 423.517533 -48.3125 
L 425.954551 -48.3125 
L 428.391569 -48.3125 
L 430.828587 -48.3125 
L 433.265605 -48.3125 
L 435.702624 -48.3125 
L 438.139642 -48.3125 
L 440.57666 -48.3125 
L 443.013678 -48.3125 
L 445.450696 -48.3125 
L 447.887714 -48.3125 
L 450.324732 -48.3125 
L 452.76175 -48.3125 
L 455.198768 -48.3125 
L 457.635787 -48.3125 
L 460.072805 -48.3125 
L 462.509823 -48.3125 
L 464.946841 -48.3125 
L 467.383859 -48.3125 
L 469.820877 -48.3125 
L 472.257895 -48.3125 
L 474.694913 -48.3125 
L 477.131932 -48.3125 
L 479.56895 -48.3125 
L 482.005968 -48.3125 
L 484.442986 -48.3125 
L 486.880004 -48.3125 
L 489.317022 -48.3125 
L 491.75404 -48.3125 
L 494.191058 -48.3125 
L 496.628076 -48.3125 
L 499.065095 -48.3125 
L 501.502113 -48.3125 
L 503.939131 -48.3125 
L 506.376149 -48.3125 
L 508.813167 -48.3125 
L 511.250185 -48.3125 
L 513.687203 -48.3125 
L 516.124221 -48.3125 
L 518.561239 -48.3125 
L 520.998258 -48.3125 
L 523.435276 -48.3125 
L 525.872294 -48.3125 
L 528.309312 -48.3125 
L 530.74633 -48.3125 
L 533.183348 -48.3125 
L 535.620366 -48.3125 
L 538.057384 -48.3125 
L 540.494403 -48.3125 
L 542.931421 -48.3125 
L 545.368439 -48.3125 
L 547.805457 -48.3125 
L 550.242475 -48.3125 
L 552.679493 -48.3125 
L 555.116511 -48.3125 
L 557.553529 -48.3125 
L 559.990547 -48.3125 
L 562.427566 -48.3125 
L 564.864584 -48.3125 
L 567.301602 -48.3125 
L 569.73862 -48.3125 
L 572.175638 -48.3125 
L 574.612656 -48.3125 
L 574.612656 -49.574735 
L 574.612656 -49.574735 
L 572.175638 -49.756288 
L 569.73862 -49.960597 
L 567.301602 -50.189993 
L 564.864584 -50.446969 
L 562.427566 -50.734186 
L 559.990547 -51.054465 
L 557.553529 -51.410794 
L 555.116511 -51.806314 
L 552.679493 -52.244319 
L 550.242475 -52.728247 
L 547.805457 -53.261663 
L 545.368439 -53.84825 
L 542.931421 -54.491789 
L 540.494403 -55.196139 
L 538.057384 -55.965213 
L 535.620366 -56.802952 
L 533.183348 -57.713294 
L 530.74633 -58.700142 
L 528.309312 -59.767324 
L 525.872294 -60.918558 
L 523.435276 -62.157408 
L 520.998258 -63.48724 
L 518.561239 -64.911175 
L 516.124221 -66.43204 
L 513.687203 -68.05232 
L 511.250185 -69.77411 
L 508.813167 -71.599059 
L 506.376149 -73.528328 
L 503.939131 -75.562538 
L 501.502113 -77.701726 
L 499.065095 -79.945302 
L 496.628076 -82.292011 
L 494.191058 -84.739901 
L 491.75404 -87.286293 
L 489.317022 -89.927761 
L 486.880004 -92.660118 
L 484.442986 -95.478409 
L 482.005968 -98.376917 
L 479.56895 -101.349172 
L 477.131932 -104.387979 
L 474.694913 -107.485444 
L 472.257895 -110.633026 
L 469.820877 -113.821584 
L 467.383859 -117.041451 
L 464.946841 -120.282504 
L 462.509823 -123.534255 
L 460.072805 -126.785947 
L 457.635787 -130.02666 
L 455.198768 -133.245427 
L 452.76175 -136.431352 
L 450.324732 -139.573744 
L 447.887714 -142.662244 
L 445.450696 -145.686966 
L 443.013678 -148.638628 
L 440.57666 -151.508694 
L 438.139642 -154.289507 
L 435.702624 -156.974417 
L 433.265605 -159.557908 
L 430.828587 -162.035712 
L 428.391569 -164.404918 
L 425.954551 -166.66406 
L 423.517533 -168.813203 
L 421.080515 -170.854004 
L 418.643497 -172.789759 
L 416.206479 -174.625432 
L 413.769461 -176.367663 
L 411.332442 -178.024759 
L 408.895424 -179.606654 
L 406.458406 -181.124862 
L 404.021388 -182.59239 
L 401.58437 -184.023647 
L 399.147352 -185.434317 
L 396.710334 -186.841217 
L 394.273316 -188.262139 
L 391.836297 -189.715667 
L 389.399279 -191.220979 
L 386.962261 -192.797635 
L 384.525243 -194.465352 
L 382.088225 -196.243771 
L 379.651207 -198.152207 
L 377.214189 -200.209406 
L 374.777171 -202.433292 
L 372.340153 -204.840717 
L 369.903134 -207.447212 
L 367.466116 -210.26675 
L 365.029098 -213.311518 
L 362.59208 -216.591696 
L 360.155062 -220.11526 
L 357.718044 -223.887797 
L 355.281026 -227.912351 
L 352.844008 -232.189278 
L 350.40699 -236.716143 
L 347.969971 -241.487636 
L 345.532953 -246.495515 
L 343.095935 -251.728592 
L 340.658917 -257.172737 
L 338.221899 -262.810921 
L 335.784881 -268.623296 
L 333.347863 -274.587294 
L 330.910845 -280.677772 
L 328.473826 -286.867179 
L 326.036808 -293.125751 
L 323.59979 -299.42174 
L 321.162772 -305.721663 
L 318.725754 -311.990571 
L 316.288736 -318.192345 
L 313.851718 -324.290004 
L 311.4147 -330.246023 
L 308.977682 -336.022667 
L 306.540663 -341.582327 
L 304.103645 -346.887859 
L 301.666627 -351.902918 
L 299.229609 -356.592297 
L 296.792591 -360.92224 
L 294.355573 -364.86076 
L 291.918555 -368.377925 
L 289.481537 -371.446133 
L 287.044518 -374.040363 
L 284.6075 -376.1384 
L 282.170482 -377.721028 
L 279.733464 -378.772199 
L 277.296446 -379.279167 
L 274.859428 -379.232588 
L 272.42241 -378.62659 
L 269.985392 -377.458804 
L 267.548374 -375.73036 
L 265.111355 -373.445859 
L 262.674337 -370.613299 
L 260.237319 -367.243976 
L 257.800301 -363.352356 
L 255.363283 -358.955915 
L 252.926265 -354.074953 
L 250.489247 -348.732393 
L 248.052229 -342.953545 
L 245.615211 -336.765869 
L 243.178192 -330.198708 
L 240.741174 -323.283022 
L 238.304156 -316.051107 
L 235.867138 -308.536314 
L 233.43012 -300.772763 
L 230.993102 -292.79506 
L 228.556084 -284.638023 
L 226.119066 -276.336407 
L 223.682047 -267.924649 
L 221.245029 -259.436617 
L 218.808011 -250.905382 
L 216.370993 -242.363001 
L 213.933975 -233.840323 
L 211.496957 -225.366807 
L 209.059939 -216.970373 
L 206.622921 -208.677262 
L 204.185903 -200.511926 
L 201.748884 -192.496937 
L 199.311866 -184.652919 
L 196.874848 -176.998497 
L 194.43783 -169.550274 
L 192.000812 -162.322823 
L 189.563794 -155.328697 
L 187.126776 -148.578461 
L 184.689758 -142.080733 
L 182.25274 -135.842248 
L 179.815721 -129.867928 
L 177.378703 -124.160969 
L 174.941685 -118.722932 
L 172.504667 -113.553846 
L 170.067649 -108.652316 
L 167.630631 -104.015637 
L 165.193613 -99.639911 
L 162.756595 -95.520163 
L 160.319576 -91.650461 
L 157.882558 -88.024032 
L 155.44554 -84.63338 
L 153.008522 -81.470398 
L 150.571504 -78.526472 
L 148.134486 -75.792593 
L 145.697468 -73.259446 
L 143.26045 -70.917509 
L 140.823432 -68.757134 
L 138.386413 -66.768629 
L 135.949395 -64.942327 
L 133.512377 -63.268655 
L 131.075359 -61.738186 
L 128.638341 -60.341693 
L 126.201323 -59.070194 
L 123.764305 -57.914989 
L 121.327287 -56.867686 
L 118.890269 -55.920235 
L 116.45325 -55.064938 
L 114.016232 -54.294473 
L 111.579214 -53.601895 
L 109.142196 -52.980645 
L 106.705178 -52.424553 
L 104.26816 -51.927831 
L 101.831142 -51.485074 
L 99.394124 -51.091246 
L 96.957105 -50.741673 
L 94.520087 -50.432031 
L 92.083069 -50.15833 
L 89.646051 -49.916903 
z
" style="stroke: #e74c3c"/>
    </defs>
    <g clip-path="url(#p361f9a6e8b)">
     <use xlink:href="#md836b68b02" x="0" y="420.48" style="fill: #e74c3c; fill-opacity: 0.3; stroke: #e74c3c"/>
    </g>
   </g>
   <g id="patch_3">
    <path d="M 60.520625 372.1675 
L 60.520625 24.6525 
" style="fill: none; stroke: #cccccc; stroke-width: 1.5; stroke-linejoin: miter; stroke-linecap: square"/>
   </g>
   <g id="patch_4">
    <path d="M 60.520625 372.1675 
L 701.28 372.1675 
" style="fill: none; stroke: #cccccc; stroke-width: 1.5; stroke-linejoin: miter; stroke-linecap: square"/>
   </g>
   <g id="text_16">
    <!-- Distribution of Absolute Errors -->
    <g style="fill: #262626" transform="translate(275.080312 18.6525) scale(0.16 -0.16)">
     <defs>
      <path id="ArialMT-62" d="M 941 0 
L 419 0 
L 419 4581 
L 981 4581 
L 981 2947 
Q 1338 3394 1891 3394 
Q 2197 3394 2470 3270 
Q 2744 3147 2920 2923 
Q 3097 2700 3197 2384 
Q 3297 2069 3297 1709 
Q 3297 856 2875 390 
Q 2453 -75 1863 -75 
Q 1275 -75 941 416 
L 941 0 
z
M 934 1684 
Q 934 1088 1097 822 
Q 1363 388 1816 388 
Q 2184 388 2453 708 
Q 2722 1028 2722 1663 
Q 2722 2313 2464 2622 
Q 2206 2931 1841 2931 
Q 1472 2931 1203 2611 
Q 934 2291 934 1684 
z
" transform="scale(0.015625)"/>
      <path id="ArialMT-75" d="M 2597 0 
L 2597 488 
Q 2209 -75 1544 -75 
Q 1250 -75 995 37 
Q 741 150 617 320 
Q 494 491 444 738 
Q 409 903 409 1263 
L 409 3319 
L 972 3319 
L 972 1478 
Q 972 1038 1006 884 
Q 1059 663 1231 536 
Q 1403 409 1656 409 
Q 1909 409 2131 539 
Q 2353 669 2445 892 
Q 2538 1116 2538 1541 
L 2538 3319 
L 3100 3319 
L 3100 0 
L 2597 0 
z
" transform="scale(0.015625)"/>
      <path id="ArialMT-66" d="M 556 0 
L 556 2881 
L 59 2881 
L 59 3319 
L 556 3319 
L 556 3672 
Q 556 4006 616 4169 
Q 697 4388 901 4523 
Q 1106 4659 1475 4659 
Q 1713 4659 2000 4603 
L 1916 4113 
Q 1741 4144 1584 4144 
Q 1328 4144 1222 4034 
Q 1116 3925 1116 3625 
L 1116 3319 
L 1763 3319 
L 1763 2881 
L 1116 2881 
L 1116 0 
L 556 0 
z
" transform="scale(0.015625)"/>
      <path id="ArialMT-41" d="M -9 0 
L 1750 4581 
L 2403 4581 
L 4278 0 
L 3588 0 
L 3053 1388 
L 1138 1388 
L 634 0 
L -9 0 
z
M 1313 1881 
L 2866 1881 
L 2388 3150 
Q 2169 3728 2063 4100 
Q 1975 3659 1816 3225 
L 1313 1881 
z
" transform="scale(0.015625)"/>
      <path id="ArialMT-6c" d="M 409 0 
L 409 4581 
L 972 4581 
L 972 0 
L 409 0 
z
" transform="scale(0.015625)"/>
     </defs>
     <use xlink:href="#ArialMT-44"/>
     <use xlink:href="#ArialMT-69" x="72.216797"/>
     <use xlink:href="#ArialMT-73" x="94.433594"/>
     <use xlink:href="#ArialMT-74" x="144.433594"/>
     <use xlink:href="#ArialMT-72" x="172.216797"/>
     <use xlink:href="#ArialMT-69" x="205.517578"/>
     <use xlink:href="#ArialMT-62" x="227.734375"/>
     <use xlink:href="#ArialMT-75" x="283.349609"/>
     <use xlink:href="#ArialMT-74" x="338.964844"/>
     <use xlink:href="#ArialMT-69" x="366.748047"/>
     <use xlink:href="#ArialMT-6f" x="388.964844"/>
     <use xlink:href="#ArialMT-6e" x="444.580078"/>
     <use xlink:href="#ArialMT-20" x="500.195312"/>
     <use xlink:href="#ArialMT-6f" x="527.978516"/>
     <use xlink:href="#ArialMT-66" x="583.59375"/>
     <use xlink:href="#ArialMT-20" x="611.376953"/>
     <use xlink:href="#ArialMT-41" x="633.660156"/>
     <use xlink:href="#ArialMT-62" x="700.359375"/>
     <use xlink:href="#ArialMT-73" x="755.974609"/>
     <use xlink:href="#ArialMT-6f" x="805.974609"/>
     <use xlink:href="#ArialMT-6c" x="861.589844"/>
     <use xlink:href="#ArialMT-75" x="883.806641"/>
     <use xlink:href="#ArialMT-74" x="939.421875"/>
     <use xlink:href="#ArialMT-65" x="967.205078"/>
     <use xlink:href="#ArialMT-20" x="1022.820312"/>
     <use xlink:href="#ArialMT-45" x="1050.603516"/>
     <use xlink:href="#ArialMT-72" x="1117.302734"/>
     <use xlink:href="#ArialMT-72" x="1150.603516"/>
     <use xlink:href="#ArialMT-6f" x="1183.904297"/>
     <use xlink:href="#ArialMT-72" x="1239.519531"/>
     <use xlink:href="#ArialMT-73" x="1272.820312"/>
    </g>
   </g>
   <g id="legend_1">
    <g id="patch_5">
     <path d="M 497.20125 68.775 
L 692.88 68.775 
Q 695.28 68.775 695.28 66.375 
L 695.28 33.0525 
Q 695.28 30.6525 692.88 30.6525 
L 497.20125 30.6525 
Q 494.80125 30.6525 494.80125 33.0525 
L 494.80125 66.375 
Q 494.80125 68.775 497.20125 68.775 
z
" style="fill: #ffffff; opacity: 0.8; stroke: #cccccc; stroke-linejoin: miter"/>
    </g>
    <g id="patch_6">
     <path d="M 499.60125 44.188125 
L 523.60125 44.188125 
L 523.60125 35.788125 
L 499.60125 35.788125 
z
" style="fill: #2ecc71; fill-opacity: 0.3; stroke: #2ecc71; stroke-linejoin: miter"/>
    </g>
    <g id="text_17">
     <!-- Training (μ=1.97%, σ=1.36%) -->
     <g style="fill: #262626" transform="translate(533.20125 44.188125) scale(0.12 -0.12)">
      <defs>
       <path id="ArialMT-54" d="M 1659 0 
L 1659 4041 
L 150 4041 
L 150 4581 
L 3781 4581 
L 3781 4041 
L 2266 4041 
L 2266 0 
L 1659 0 
z
" transform="scale(0.015625)"/>
       <path id="ArialMT-61" d="M 2588 409 
Q 2275 144 1986 34 
Q 1697 -75 1366 -75 
Q 819 -75 525 192 
Q 231 459 231 875 
Q 231 1119 342 1320 
Q 453 1522 633 1644 
Q 813 1766 1038 1828 
Q 1203 1872 1538 1913 
Q 2219 1994 2541 2106 
Q 2544 2222 2544 2253 
Q 2544 2597 2384 2738 
Q 2169 2928 1744 2928 
Q 1347 2928 1158 2789 
Q 969 2650 878 2297 
L 328 2372 
Q 403 2725 575 2942 
Q 747 3159 1072 3276 
Q 1397 3394 1825 3394 
Q 2250 3394 2515 3294 
Q 2781 3194 2906 3042 
Q 3031 2891 3081 2659 
Q 3109 2516 3109 2141 
L 3109 1391 
Q 3109 606 3145 398 
Q 3181 191 3288 0 
L 2700 0 
Q 2613 175 2588 409 
z
M 2541 1666 
Q 2234 1541 1622 1453 
Q 1275 1403 1131 1340 
Q 988 1278 909 1158 
Q 831 1038 831 891 
Q 831 666 1001 516 
Q 1172 366 1500 366 
Q 1825 366 2078 508 
Q 2331 650 2450 897 
Q 2541 1088 2541 1459 
L 2541 1666 
z
" transform="scale(0.015625)"/>
       <path id="ArialMT-67" d="M 319 -275 
L 866 -356 
Q 900 -609 1056 -725 
Q 1266 -881 1628 -881 
Q 2019 -881 2231 -725 
Q 2444 -569 2519 -288 
Q 2563 -116 2559 434 
Q 2191 0 1641 0 
Q 956 0 581 494 
Q 206 988 206 1678 
Q 206 2153 378 2554 
Q 550 2956 876 3175 
Q 1203 3394 1644 3394 
Q 2231 3394 2613 2919 
L 2613 3319 
L 3131 3319 
L 3131 450 
Q 3131 -325 2973 -648 
Q 2816 -972 2473 -1159 
Q 2131 -1347 1631 -1347 
Q 1038 -1347 672 -1080 
Q 306 -813 319 -275 
z
M 784 1719 
Q 784 1066 1043 766 
Q 1303 466 1694 466 
Q 2081 466 2343 764 
Q 2606 1063 2606 1700 
Q 2606 2309 2336 2618 
Q 2066 2928 1684 2928 
Q 1309 2928 1046 2623 
Q 784 2319 784 1719 
z
" transform="scale(0.015625)"/>
       <path id="ArialMT-3bc" d="M 3181 3319 
L 3181 0 
L 2678 0 
L 2678 394 
Q 2516 144 2356 50 
Q 2138 -78 1847 -78 
Q 1588 -78 1388 25 
Q 1238 103 1056 334 
L 1056 -1272 
L 500 -1272 
L 500 3319 
L 1056 3319 
L 1056 1913 
Q 1056 1147 1137 920 
Q 1219 694 1401 562 
Q 1584 431 1822 431 
Q 2072 431 2269 568 
Q 2466 706 2547 923 
Q 2628 1141 2628 1903 
L 2628 3319 
L 3181 3319 
z
" transform="scale(0.015625)"/>
       <path id="ArialMT-3d" d="M 3381 2694 
L 356 2694 
L 356 3219 
L 3381 3219 
L 3381 2694 
z
M 3381 1303 
L 356 1303 
L 356 1828 
L 3381 1828 
L 3381 1303 
z
" transform="scale(0.015625)"/>
       <path id="ArialMT-39" d="M 350 1059 
L 891 1109 
Q 959 728 1153 556 
Q 1347 384 1650 384 
Q 1909 384 2104 503 
Q 2300 622 2425 820 
Q 2550 1019 2634 1356 
Q 2719 1694 2719 2044 
Q 2719 2081 2716 2156 
Q 2547 1888 2255 1720 
Q 1963 1553 1622 1553 
Q 1053 1553 659 1965 
Q 266 2378 266 3053 
Q 266 3750 677 4175 
Q 1088 4600 1706 4600 
Q 2153 4600 2523 4359 
Q 2894 4119 3086 3673 
Q 3278 3228 3278 2384 
Q 3278 1506 3087 986 
Q 2897 466 2520 194 
Q 2144 -78 1638 -78 
Q 1100 -78 759 220 
Q 419 519 350 1059 
z
M 2653 3081 
Q 2653 3566 2395 3850 
Q 2138 4134 1775 4134 
Q 1400 4134 1122 3828 
Q 844 3522 844 3034 
Q 844 2597 1108 2323 
Q 1372 2050 1759 2050 
Q 2150 2050 2401 2323 
Q 2653 2597 2653 3081 
z
" transform="scale(0.015625)"/>
       <path id="ArialMT-37" d="M 303 3981 
L 303 4522 
L 3269 4522 
L 3269 4084 
Q 2831 3619 2401 2847 
Q 1972 2075 1738 1259 
Q 1569 684 1522 0 
L 944 0 
Q 953 541 1156 1306 
Q 1359 2072 1739 2783 
Q 2119 3494 2547 3981 
L 303 3981 
z
" transform="scale(0.015625)"/>
       <path id="ArialMT-2c" d="M 569 0 
L 569 641 
L 1209 641 
L 1209 0 
Q 1209 -353 1084 -570 
Q 959 -788 688 -906 
L 531 -666 
Q 709 -588 793 -436 
Q 878 -284 888 0 
L 569 0 
z
" transform="scale(0.015625)"/>
       <path id="ArialMT-3c3" d="M 3809 3319 
L 3809 2863 
L 2906 2863 
Q 3322 2475 3322 1656 
Q 3322 766 2867 345 
Q 2413 -75 1763 -75 
Q 1088 -75 650 362 
Q 213 800 213 1659 
Q 213 2544 667 2969 
Q 1122 3394 1763 3394 
Q 1997 3394 2294 3319 
L 3809 3319 
z
M 1753 2928 
Q 1344 2928 1067 2609 
Q 791 2291 791 1656 
Q 791 1025 1061 706 
Q 1331 388 1763 388 
Q 2216 388 2483 720 
Q 2750 1053 2750 1659 
Q 2750 2213 2504 2570 
Q 2259 2928 1753 2928 
z
" transform="scale(0.015625)"/>
      </defs>
      <use xlink:href="#ArialMT-54"/>
      <use xlink:href="#ArialMT-72" x="57.333984"/>
      <use xlink:href="#ArialMT-61" x="90.634766"/>
      <use xlink:href="#ArialMT-69" x="146.25"/>
      <use xlink:href="#ArialMT-6e" x="168.466797"/>
      <use xlink:href="#ArialMT-69" x="224.082031"/>
      <use xlink:href="#ArialMT-6e" x="246.298828"/>
      <use xlink:href="#ArialMT-67" x="301.914062"/>
      <use xlink:href="#ArialMT-20" x="357.529297"/>
      <use xlink:href="#ArialMT-28" x="385.3125"/>
      <use xlink:href="#ArialMT-3bc" x="418.613281"/>
      <use xlink:href="#ArialMT-3d" x="476.230469"/>
      <use xlink:href="#ArialMT-31" x="534.628906"/>
      <use xlink:href="#ArialMT-2e" x="590.244141"/>
      <use xlink:href="#ArialMT-39" x="618.027344"/>
      <use xlink:href="#ArialMT-37" x="673.642578"/>
      <use xlink:href="#ArialMT-25" x="729.257812"/>
      <use xlink:href="#ArialMT-2c" x="818.173828"/>
      <use xlink:href="#ArialMT-20" x="845.957031"/>
      <use xlink:href="#ArialMT-3c3" x="873.740234"/>
      <use xlink:href="#ArialMT-3d" x="935.458984"/>
      <use xlink:href="#ArialMT-31" x="993.857422"/>
      <use xlink:href="#ArialMT-2e" x="1049.472656"/>
      <use xlink:href="#ArialMT-33" x="1077.255859"/>
      <use xlink:href="#ArialMT-36" x="1132.871094"/>
      <use xlink:href="#ArialMT-25" x="1188.486328"/>
      <use xlink:href="#ArialMT-29" x="1277.402344"/>
     </g>
    </g>
    <g id="patch_7">
     <path d="M 499.60125 61.449375 
L 523.60125 61.449375 
L 523.60125 53.049375 
L 499.60125 53.049375 
z
" style="fill: #e74c3c; fill-opacity: 0.3; stroke: #e74c3c; stroke-linejoin: miter"/>
    </g>
    <g id="text_18">
     <!-- Testing (μ=1.10%, σ=1.05%) -->
     <g style="fill: #262626" transform="translate(533.20125 61.449375) scale(0.12 -0.12)">
      <use xlink:href="#ArialMT-54"/>
      <use xlink:href="#ArialMT-65" x="49.958984"/>
      <use xlink:href="#ArialMT-73" x="105.574219"/>
      <use xlink:href="#ArialMT-74" x="155.574219"/>
      <use xlink:href="#ArialMT-69" x="183.357422"/>
      <use xlink:href="#ArialMT-6e" x="205.574219"/>
      <use xlink:href="#ArialMT-67" x="261.189453"/>
      <use xlink:href="#ArialMT-20" x="316.804688"/>
      <use xlink:href="#ArialMT-28" x="344.587891"/>
      <use xlink:href="#ArialMT-3bc" x="377.888672"/>
      <use xlink:href="#ArialMT-3d" x="435.505859"/>
      <use xlink:href="#ArialMT-31" x="493.904297"/>
      <use xlink:href="#ArialMT-2e" x="549.519531"/>
      <use xlink:href="#ArialMT-31" x="577.302734"/>
      <use xlink:href="#ArialMT-30" x="632.917969"/>
      <use xlink:href="#ArialMT-25" x="688.533203"/>
      <use xlink:href="#ArialMT-2c" x="777.449219"/>
      <use xlink:href="#ArialMT-20" x="805.232422"/>
      <use xlink:href="#ArialMT-3c3" x="833.015625"/>
      <use xlink:href="#ArialMT-3d" x="894.734375"/>
      <use xlink:href="#ArialMT-31" x="953.132812"/>
      <use xlink:href="#ArialMT-2e" x="1008.748047"/>
      <use xlink:href="#ArialMT-30" x="1036.53125"/>
      <use xlink:href="#ArialMT-35" x="1092.146484"/>
      <use xlink:href="#ArialMT-25" x="1147.761719"/>
      <use xlink:href="#ArialMT-29" x="1236.677734"/>
     </g>
    </g>
   </g>
  </g>
 </g>
 <defs>
  <clipPath id="p361f9a6e8b">
   <rect x="60.520625" y="24.6525" width="640.759375" height="347.515"/>
  </clipPath>
 </defs>
</svg>
