<?xml version="1.0" encoding="utf-8" standalone="no"?>
<!DOCTYPE svg PUBLIC "-//W3C//DTD SVG 1.1//EN"
  "http://www.w3.org/Graphics/SVG/1.1/DTD/svg11.dtd">
<svg xmlns:xlink="http://www.w3.org/1999/xlink" width="708.48pt" height="420.48pt" viewBox="0 0 708.48 420.48" xmlns="http://www.w3.org/2000/svg" version="1.1">
 <metadata>
  <rdf:RDF xmlns:dc="http://purl.org/dc/elements/1.1/" xmlns:cc="http://creativecommons.org/ns#" xmlns:rdf="http://www.w3.org/1999/02/22-rdf-syntax-ns#">
   <cc:Work>
    <dc:type rdf:resource="http://purl.org/dc/dcmitype/StillImage"/>
    <dc:date>2025-01-07T20:44:22.696338</dc:date>
    <dc:format>image/svg+xml</dc:format>
    <dc:creator>
     <cc:Agent>
      <dc:title>Matplotlib v3.9.3, https://matplotlib.org/</dc:title>
     </cc:Agent>
    </dc:creator>
   </cc:Work>
  </rdf:RDF>
 </metadata>
 <defs>
  <style type="text/css">*{stroke-linejoin: round; stroke-linecap: butt}</style>
 </defs>
 <g id="figure_1">
  <g id="patch_1">
   <path d="M 0 420.48 
L 708.48 420.48 
L 708.48 -0 
L 0 -0 
z
" style="fill: #ffffff"/>
  </g>
  <g id="axes_1">
   <g id="patch_2">
    <path d="M 60.520625 372.1675 
L 701.28 372.1675 
L 701.28 24.6525 
L 60.520625 24.6525 
z
" style="fill: #ffffff"/>
   </g>
   <g id="matplotlib.axis_1">
    <g id="xtick_1">
     <g id="line2d_1">
      <path d="M 106.402497 372.1675 
L 106.402497 24.6525 
" clip-path="url(#pbcc1eca799)" style="fill: none; stroke: #cccccc; stroke-opacity: 0.3; stroke-width: 0.5; stroke-linecap: round"/>
     </g>
     <g id="text_1">
      <!-- −2 -->
      <g style="fill: #262626" transform="translate(99.561559 387.756875) scale(0.12 -0.12)">
       <defs>
        <path id="ArialMT-2212" d="M 3381 1997 
L 356 1997 
L 356 2522 
L 3381 2522 
L 3381 1997 
z
" transform="scale(0.015625)"/>
        <path id="ArialMT-32" d="M 3222 541 
L 3222 0 
L 194 0 
Q 188 203 259 391 
Q 375 700 629 1000 
Q 884 1300 1366 1694 
Q 2113 2306 2375 2664 
Q 2638 3022 2638 3341 
Q 2638 3675 2398 3904 
Q 2159 4134 1775 4134 
Q 1369 4134 1125 3890 
Q 881 3647 878 3216 
L 300 3275 
Q 359 3922 746 4261 
Q 1134 4600 1788 4600 
Q 2447 4600 2831 4234 
Q 3216 3869 3216 3328 
Q 3216 3053 3103 2787 
Q 2991 2522 2730 2228 
Q 2469 1934 1863 1422 
Q 1356 997 1212 845 
Q 1069 694 975 541 
L 3222 541 
z
" transform="scale(0.015625)"/>
       </defs>
       <use xlink:href="#ArialMT-2212"/>
       <use xlink:href="#ArialMT-32" x="58.398438"/>
      </g>
     </g>
    </g>
    <g id="xtick_2">
     <g id="line2d_2">
      <path d="M 240.165632 372.1675 
L 240.165632 24.6525 
" clip-path="url(#pbcc1eca799)" style="fill: none; stroke: #cccccc; stroke-opacity: 0.3; stroke-width: 0.5; stroke-linecap: round"/>
     </g>
     <g id="text_2">
      <!-- 0 -->
      <g style="fill: #262626" transform="translate(236.829069 387.756875) scale(0.12 -0.12)">
       <defs>
        <path id="ArialMT-30" d="M 266 2259 
Q 266 3072 433 3567 
Q 600 4063 929 4331 
Q 1259 4600 1759 4600 
Q 2128 4600 2406 4451 
Q 2684 4303 2865 4023 
Q 3047 3744 3150 3342 
Q 3253 2941 3253 2259 
Q 3253 1453 3087 958 
Q 2922 463 2592 192 
Q 2263 -78 1759 -78 
Q 1097 -78 719 397 
Q 266 969 266 2259 
z
M 844 2259 
Q 844 1131 1108 757 
Q 1372 384 1759 384 
Q 2147 384 2411 759 
Q 2675 1134 2675 2259 
Q 2675 3391 2411 3762 
Q 2147 4134 1753 4134 
Q 1366 4134 1134 3806 
Q 844 3388 844 2259 
z
" transform="scale(0.015625)"/>
       </defs>
       <use xlink:href="#ArialMT-30"/>
      </g>
     </g>
    </g>
    <g id="xtick_3">
     <g id="line2d_3">
      <path d="M 373.928767 372.1675 
L 373.928767 24.6525 
" clip-path="url(#pbcc1eca799)" style="fill: none; stroke: #cccccc; stroke-opacity: 0.3; stroke-width: 0.5; stroke-linecap: round"/>
     </g>
     <g id="text_3">
      <!-- 2 -->
      <g style="fill: #262626" transform="translate(370.592205 387.756875) scale(0.12 -0.12)">
       <use xlink:href="#ArialMT-32"/>
      </g>
     </g>
    </g>
    <g id="xtick_4">
     <g id="line2d_4">
      <path d="M 507.691902 372.1675 
L 507.691902 24.6525 
" clip-path="url(#pbcc1eca799)" style="fill: none; stroke: #cccccc; stroke-opacity: 0.3; stroke-width: 0.5; stroke-linecap: round"/>
     </g>
     <g id="text_4">
      <!-- 4 -->
      <g style="fill: #262626" transform="translate(504.35534 387.756875) scale(0.12 -0.12)">
       <defs>
        <path id="ArialMT-34" d="M 2069 0 
L 2069 1097 
L 81 1097 
L 81 1613 
L 2172 4581 
L 2631 4581 
L 2631 1613 
L 3250 1613 
L 3250 1097 
L 2631 1097 
L 2631 0 
L 2069 0 
z
M 2069 1613 
L 2069 3678 
L 634 1613 
L 2069 1613 
z
" transform="scale(0.015625)"/>
       </defs>
       <use xlink:href="#ArialMT-34"/>
      </g>
     </g>
    </g>
    <g id="xtick_5">
     <g id="line2d_5">
      <path d="M 641.455037 372.1675 
L 641.455037 24.6525 
" clip-path="url(#pbcc1eca799)" style="fill: none; stroke: #cccccc; stroke-opacity: 0.3; stroke-width: 0.5; stroke-linecap: round"/>
     </g>
     <g id="text_5">
      <!-- 6 -->
      <g style="fill: #262626" transform="translate(638.118475 387.756875) scale(0.12 -0.12)">
       <defs>
        <path id="ArialMT-36" d="M 3184 3459 
L 2625 3416 
Q 2550 3747 2413 3897 
Q 2184 4138 1850 4138 
Q 1581 4138 1378 3988 
Q 1113 3794 959 3422 
Q 806 3050 800 2363 
Q 1003 2672 1297 2822 
Q 1591 2972 1913 2972 
Q 2475 2972 2870 2558 
Q 3266 2144 3266 1488 
Q 3266 1056 3080 686 
Q 2894 316 2569 119 
Q 2244 -78 1831 -78 
Q 1128 -78 684 439 
Q 241 956 241 2144 
Q 241 3472 731 4075 
Q 1159 4600 1884 4600 
Q 2425 4600 2770 4297 
Q 3116 3994 3184 3459 
z
M 888 1484 
Q 888 1194 1011 928 
Q 1134 663 1356 523 
Q 1578 384 1822 384 
Q 2178 384 2434 671 
Q 2691 959 2691 1453 
Q 2691 1928 2437 2201 
Q 2184 2475 1800 2475 
Q 1419 2475 1153 2201 
Q 888 1928 888 1484 
z
" transform="scale(0.015625)"/>
       </defs>
       <use xlink:href="#ArialMT-36"/>
      </g>
     </g>
    </g>
    <g id="text_6">
     <!-- Error (%) -->
     <g style="fill: #262626" transform="translate(352.515312 410.333438) scale(0.14 -0.14)">
      <defs>
       <path id="ArialMT-45" d="M 506 0 
L 506 4581 
L 3819 4581 
L 3819 4041 
L 1113 4041 
L 1113 2638 
L 3647 2638 
L 3647 2100 
L 1113 2100 
L 1113 541 
L 3925 541 
L 3925 0 
L 506 0 
z
" transform="scale(0.015625)"/>
       <path id="ArialMT-72" d="M 416 0 
L 416 3319 
L 922 3319 
L 922 2816 
Q 1116 3169 1280 3281 
Q 1444 3394 1641 3394 
Q 1925 3394 2219 3213 
L 2025 2691 
Q 1819 2813 1613 2813 
Q 1428 2813 1281 2702 
Q 1134 2591 1072 2394 
Q 978 2094 978 1738 
L 978 0 
L 416 0 
z
" transform="scale(0.015625)"/>
       <path id="ArialMT-6f" d="M 213 1659 
Q 213 2581 725 3025 
Q 1153 3394 1769 3394 
Q 2453 3394 2887 2945 
Q 3322 2497 3322 1706 
Q 3322 1066 3130 698 
Q 2938 331 2570 128 
Q 2203 -75 1769 -75 
Q 1072 -75 642 372 
Q 213 819 213 1659 
z
M 791 1659 
Q 791 1022 1069 705 
Q 1347 388 1769 388 
Q 2188 388 2466 706 
Q 2744 1025 2744 1678 
Q 2744 2294 2464 2611 
Q 2184 2928 1769 2928 
Q 1347 2928 1069 2612 
Q 791 2297 791 1659 
z
" transform="scale(0.015625)"/>
       <path id="ArialMT-20" transform="scale(0.015625)"/>
       <path id="ArialMT-28" d="M 1497 -1347 
Q 1031 -759 709 28 
Q 388 816 388 1659 
Q 388 2403 628 3084 
Q 909 3875 1497 4659 
L 1900 4659 
Q 1522 4009 1400 3731 
Q 1209 3300 1100 2831 
Q 966 2247 966 1656 
Q 966 153 1900 -1347 
L 1497 -1347 
z
" transform="scale(0.015625)"/>
       <path id="ArialMT-25" d="M 372 3481 
Q 372 3972 619 4315 
Q 866 4659 1334 4659 
Q 1766 4659 2048 4351 
Q 2331 4044 2331 3447 
Q 2331 2866 2045 2552 
Q 1759 2238 1341 2238 
Q 925 2238 648 2547 
Q 372 2856 372 3481 
z
M 1350 4272 
Q 1141 4272 1002 4090 
Q 863 3909 863 3425 
Q 863 2984 1003 2804 
Q 1144 2625 1350 2625 
Q 1563 2625 1702 2806 
Q 1841 2988 1841 3469 
Q 1841 3913 1700 4092 
Q 1559 4272 1350 4272 
z
M 1353 -169 
L 3859 4659 
L 4316 4659 
L 1819 -169 
L 1353 -169 
z
M 3334 1075 
Q 3334 1569 3581 1911 
Q 3828 2253 4300 2253 
Q 4731 2253 5014 1945 
Q 5297 1638 5297 1041 
Q 5297 459 5011 145 
Q 4725 -169 4303 -169 
Q 3888 -169 3611 142 
Q 3334 453 3334 1075 
z
M 4316 1866 
Q 4103 1866 3964 1684 
Q 3825 1503 3825 1019 
Q 3825 581 3965 400 
Q 4106 219 4313 219 
Q 4528 219 4667 400 
Q 4806 581 4806 1063 
Q 4806 1506 4665 1686 
Q 4525 1866 4316 1866 
z
" transform="scale(0.015625)"/>
       <path id="ArialMT-29" d="M 791 -1347 
L 388 -1347 
Q 1322 153 1322 1656 
Q 1322 2244 1188 2822 
Q 1081 3291 891 3722 
Q 769 4003 388 4659 
L 791 4659 
Q 1378 3875 1659 3084 
Q 1900 2403 1900 1659 
Q 1900 816 1576 28 
Q 1253 -759 791 -1347 
z
" transform="scale(0.015625)"/>
      </defs>
      <use xlink:href="#ArialMT-45"/>
      <use xlink:href="#ArialMT-72" x="66.699219"/>
      <use xlink:href="#ArialMT-72" x="100"/>
      <use xlink:href="#ArialMT-6f" x="133.300781"/>
      <use xlink:href="#ArialMT-72" x="188.916016"/>
      <use xlink:href="#ArialMT-20" x="222.216797"/>
      <use xlink:href="#ArialMT-28" x="250"/>
      <use xlink:href="#ArialMT-25" x="283.300781"/>
      <use xlink:href="#ArialMT-29" x="372.216797"/>
     </g>
    </g>
   </g>
   <g id="matplotlib.axis_2">
    <g id="ytick_1">
     <g id="line2d_6">
      <path d="M 60.520625 372.1675 
L 701.28 372.1675 
" clip-path="url(#pbcc1eca799)" style="fill: none; stroke: #cccccc; stroke-opacity: 0.3; stroke-width: 0.5; stroke-linecap: round"/>
     </g>
     <g id="text_7">
      <!-- 0.00 -->
      <g style="fill: #262626" transform="translate(30.1675 376.462188) scale(0.12 -0.12)">
       <defs>
        <path id="ArialMT-2e" d="M 581 0 
L 581 641 
L 1222 641 
L 1222 0 
L 581 0 
z
" transform="scale(0.015625)"/>
       </defs>
       <use xlink:href="#ArialMT-30"/>
       <use xlink:href="#ArialMT-2e" x="55.615234"/>
       <use xlink:href="#ArialMT-30" x="83.398438"/>
       <use xlink:href="#ArialMT-30" x="139.013672"/>
      </g>
     </g>
    </g>
    <g id="ytick_2">
     <g id="line2d_7">
      <path d="M 60.520625 316.950163 
L 701.28 316.950163 
" clip-path="url(#pbcc1eca799)" style="fill: none; stroke: #cccccc; stroke-opacity: 0.3; stroke-width: 0.5; stroke-linecap: round"/>
     </g>
     <g id="text_8">
      <!-- 0.05 -->
      <g style="fill: #262626" transform="translate(30.1675 321.244851) scale(0.12 -0.12)">
       <defs>
        <path id="ArialMT-35" d="M 266 1200 
L 856 1250 
Q 922 819 1161 601 
Q 1400 384 1738 384 
Q 2144 384 2425 690 
Q 2706 997 2706 1503 
Q 2706 1984 2436 2262 
Q 2166 2541 1728 2541 
Q 1456 2541 1237 2417 
Q 1019 2294 894 2097 
L 366 2166 
L 809 4519 
L 3088 4519 
L 3088 3981 
L 1259 3981 
L 1013 2750 
Q 1425 3038 1878 3038 
Q 2478 3038 2890 2622 
Q 3303 2206 3303 1553 
Q 3303 931 2941 478 
Q 2500 -78 1738 -78 
Q 1113 -78 717 272 
Q 322 622 266 1200 
z
" transform="scale(0.015625)"/>
       </defs>
       <use xlink:href="#ArialMT-30"/>
       <use xlink:href="#ArialMT-2e" x="55.615234"/>
       <use xlink:href="#ArialMT-30" x="83.398438"/>
       <use xlink:href="#ArialMT-35" x="139.013672"/>
      </g>
     </g>
    </g>
    <g id="ytick_3">
     <g id="line2d_8">
      <path d="M 60.520625 261.732827 
L 701.28 261.732827 
" clip-path="url(#pbcc1eca799)" style="fill: none; stroke: #cccccc; stroke-opacity: 0.3; stroke-width: 0.5; stroke-linecap: round"/>
     </g>
     <g id="text_9">
      <!-- 0.10 -->
      <g style="fill: #262626" transform="translate(30.1675 266.027514) scale(0.12 -0.12)">
       <defs>
        <path id="ArialMT-31" d="M 2384 0 
L 1822 0 
L 1822 3584 
Q 1619 3391 1289 3197 
Q 959 3003 697 2906 
L 697 3450 
Q 1169 3672 1522 3987 
Q 1875 4303 2022 4600 
L 2384 4600 
L 2384 0 
z
" transform="scale(0.015625)"/>
       </defs>
       <use xlink:href="#ArialMT-30"/>
       <use xlink:href="#ArialMT-2e" x="55.615234"/>
       <use xlink:href="#ArialMT-31" x="83.398438"/>
       <use xlink:href="#ArialMT-30" x="139.013672"/>
      </g>
     </g>
    </g>
    <g id="ytick_4">
     <g id="line2d_9">
      <path d="M 60.520625 206.51549 
L 701.28 206.51549 
" clip-path="url(#pbcc1eca799)" style="fill: none; stroke: #cccccc; stroke-opacity: 0.3; stroke-width: 0.5; stroke-linecap: round"/>
     </g>
     <g id="text_10">
      <!-- 0.15 -->
      <g style="fill: #262626" transform="translate(30.1675 210.810177) scale(0.12 -0.12)">
       <use xlink:href="#ArialMT-30"/>
       <use xlink:href="#ArialMT-2e" x="55.615234"/>
       <use xlink:href="#ArialMT-31" x="83.398438"/>
       <use xlink:href="#ArialMT-35" x="139.013672"/>
      </g>
     </g>
    </g>
    <g id="ytick_5">
     <g id="line2d_10">
      <path d="M 60.520625 151.298153 
L 701.28 151.298153 
" clip-path="url(#pbcc1eca799)" style="fill: none; stroke: #cccccc; stroke-opacity: 0.3; stroke-width: 0.5; stroke-linecap: round"/>
     </g>
     <g id="text_11">
      <!-- 0.20 -->
      <g style="fill: #262626" transform="translate(30.1675 155.592841) scale(0.12 -0.12)">
       <use xlink:href="#ArialMT-30"/>
       <use xlink:href="#ArialMT-2e" x="55.615234"/>
       <use xlink:href="#ArialMT-32" x="83.398438"/>
       <use xlink:href="#ArialMT-30" x="139.013672"/>
      </g>
     </g>
    </g>
    <g id="ytick_6">
     <g id="line2d_11">
      <path d="M 60.520625 96.080817 
L 701.28 96.080817 
" clip-path="url(#pbcc1eca799)" style="fill: none; stroke: #cccccc; stroke-opacity: 0.3; stroke-width: 0.5; stroke-linecap: round"/>
     </g>
     <g id="text_12">
      <!-- 0.25 -->
      <g style="fill: #262626" transform="translate(30.1675 100.375504) scale(0.12 -0.12)">
       <use xlink:href="#ArialMT-30"/>
       <use xlink:href="#ArialMT-2e" x="55.615234"/>
       <use xlink:href="#ArialMT-32" x="83.398438"/>
       <use xlink:href="#ArialMT-35" x="139.013672"/>
      </g>
     </g>
    </g>
    <g id="ytick_7">
     <g id="line2d_12">
      <path d="M 60.520625 40.86348 
L 701.28 40.86348 
" clip-path="url(#pbcc1eca799)" style="fill: none; stroke: #cccccc; stroke-opacity: 0.3; stroke-width: 0.5; stroke-linecap: round"/>
     </g>
     <g id="text_13">
      <!-- 0.30 -->
      <g style="fill: #262626" transform="translate(30.1675 45.158167) scale(0.12 -0.12)">
       <defs>
        <path id="ArialMT-33" d="M 269 1209 
L 831 1284 
Q 928 806 1161 595 
Q 1394 384 1728 384 
Q 2125 384 2398 659 
Q 2672 934 2672 1341 
Q 2672 1728 2419 1979 
Q 2166 2231 1775 2231 
Q 1616 2231 1378 2169 
L 1441 2663 
Q 1497 2656 1531 2656 
Q 1891 2656 2178 2843 
Q 2466 3031 2466 3422 
Q 2466 3731 2256 3934 
Q 2047 4138 1716 4138 
Q 1388 4138 1169 3931 
Q 950 3725 888 3313 
L 325 3413 
Q 428 3978 793 4289 
Q 1159 4600 1703 4600 
Q 2078 4600 2393 4439 
Q 2709 4278 2876 4000 
Q 3044 3722 3044 3409 
Q 3044 3113 2884 2869 
Q 2725 2625 2413 2481 
Q 2819 2388 3044 2092 
Q 3269 1797 3269 1353 
Q 3269 753 2831 336 
Q 2394 -81 1725 -81 
Q 1122 -81 723 278 
Q 325 638 269 1209 
z
" transform="scale(0.015625)"/>
       </defs>
       <use xlink:href="#ArialMT-30"/>
       <use xlink:href="#ArialMT-2e" x="55.615234"/>
       <use xlink:href="#ArialMT-33" x="83.398438"/>
       <use xlink:href="#ArialMT-30" x="139.013672"/>
      </g>
     </g>
    </g>
    <g id="text_14">
     <!-- Density -->
     <g style="fill: #262626" transform="translate(17.220938 221.750625) rotate(-90) scale(0.14 -0.14)">
      <defs>
       <path id="ArialMT-44" d="M 494 0 
L 494 4581 
L 2072 4581 
Q 2606 4581 2888 4516 
Q 3281 4425 3559 4188 
Q 3922 3881 4101 3404 
Q 4281 2928 4281 2316 
Q 4281 1794 4159 1391 
Q 4038 988 3847 723 
Q 3656 459 3429 307 
Q 3203 156 2883 78 
Q 2563 0 2147 0 
L 494 0 
z
M 1100 541 
L 2078 541 
Q 2531 541 2789 625 
Q 3047 709 3200 863 
Q 3416 1078 3536 1442 
Q 3656 1806 3656 2325 
Q 3656 3044 3420 3430 
Q 3184 3816 2847 3947 
Q 2603 4041 2063 4041 
L 1100 4041 
L 1100 541 
z
" transform="scale(0.015625)"/>
       <path id="ArialMT-65" d="M 2694 1069 
L 3275 997 
Q 3138 488 2766 206 
Q 2394 -75 1816 -75 
Q 1088 -75 661 373 
Q 234 822 234 1631 
Q 234 2469 665 2931 
Q 1097 3394 1784 3394 
Q 2450 3394 2872 2941 
Q 3294 2488 3294 1666 
Q 3294 1616 3291 1516 
L 816 1516 
Q 847 969 1125 678 
Q 1403 388 1819 388 
Q 2128 388 2347 550 
Q 2566 713 2694 1069 
z
M 847 1978 
L 2700 1978 
Q 2663 2397 2488 2606 
Q 2219 2931 1791 2931 
Q 1403 2931 1139 2672 
Q 875 2413 847 1978 
z
" transform="scale(0.015625)"/>
       <path id="ArialMT-6e" d="M 422 0 
L 422 3319 
L 928 3319 
L 928 2847 
Q 1294 3394 1984 3394 
Q 2284 3394 2536 3286 
Q 2788 3178 2913 3003 
Q 3038 2828 3088 2588 
Q 3119 2431 3119 2041 
L 3119 0 
L 2556 0 
L 2556 2019 
Q 2556 2363 2490 2533 
Q 2425 2703 2258 2804 
Q 2091 2906 1866 2906 
Q 1506 2906 1245 2678 
Q 984 2450 984 1813 
L 984 0 
L 422 0 
z
" transform="scale(0.015625)"/>
       <path id="ArialMT-73" d="M 197 991 
L 753 1078 
Q 800 744 1014 566 
Q 1228 388 1613 388 
Q 2000 388 2187 545 
Q 2375 703 2375 916 
Q 2375 1106 2209 1216 
Q 2094 1291 1634 1406 
Q 1016 1563 777 1677 
Q 538 1791 414 1992 
Q 291 2194 291 2438 
Q 291 2659 392 2848 
Q 494 3038 669 3163 
Q 800 3259 1026 3326 
Q 1253 3394 1513 3394 
Q 1903 3394 2198 3281 
Q 2494 3169 2634 2976 
Q 2775 2784 2828 2463 
L 2278 2388 
Q 2241 2644 2061 2787 
Q 1881 2931 1553 2931 
Q 1166 2931 1000 2803 
Q 834 2675 834 2503 
Q 834 2394 903 2306 
Q 972 2216 1119 2156 
Q 1203 2125 1616 2013 
Q 2213 1853 2448 1751 
Q 2684 1650 2818 1456 
Q 2953 1263 2953 975 
Q 2953 694 2789 445 
Q 2625 197 2315 61 
Q 2006 -75 1616 -75 
Q 969 -75 630 194 
Q 291 463 197 991 
z
" transform="scale(0.015625)"/>
       <path id="ArialMT-69" d="M 425 3934 
L 425 4581 
L 988 4581 
L 988 3934 
L 425 3934 
z
M 425 0 
L 425 3319 
L 988 3319 
L 988 0 
L 425 0 
z
" transform="scale(0.015625)"/>
       <path id="ArialMT-74" d="M 1650 503 
L 1731 6 
Q 1494 -44 1306 -44 
Q 1000 -44 831 53 
Q 663 150 594 308 
Q 525 466 525 972 
L 525 2881 
L 113 2881 
L 113 3319 
L 525 3319 
L 525 4141 
L 1084 4478 
L 1084 3319 
L 1650 3319 
L 1650 2881 
L 1084 2881 
L 1084 941 
Q 1084 700 1114 631 
Q 1144 563 1211 522 
Q 1278 481 1403 481 
Q 1497 481 1650 503 
z
" transform="scale(0.015625)"/>
       <path id="ArialMT-79" d="M 397 -1278 
L 334 -750 
Q 519 -800 656 -800 
Q 844 -800 956 -737 
Q 1069 -675 1141 -563 
Q 1194 -478 1313 -144 
Q 1328 -97 1363 -6 
L 103 3319 
L 709 3319 
L 1400 1397 
Q 1534 1031 1641 628 
Q 1738 1016 1872 1384 
L 2581 3319 
L 3144 3319 
L 1881 -56 
Q 1678 -603 1566 -809 
Q 1416 -1088 1222 -1217 
Q 1028 -1347 759 -1347 
Q 597 -1347 397 -1278 
z
" transform="scale(0.015625)"/>
      </defs>
      <use xlink:href="#ArialMT-44"/>
      <use xlink:href="#ArialMT-65" x="72.216797"/>
      <use xlink:href="#ArialMT-6e" x="127.832031"/>
      <use xlink:href="#ArialMT-73" x="183.447266"/>
      <use xlink:href="#ArialMT-69" x="233.447266"/>
      <use xlink:href="#ArialMT-74" x="255.664062"/>
      <use xlink:href="#ArialMT-79" x="283.447266"/>
     </g>
    </g>
   </g>
   <g id="PolyCollection_1">
    <defs>
     <path id="m47d2500044" d="M 130.609436 -49.014365 
L 130.609436 -48.3125 
L 133.330769 -48.3125 
L 136.052101 -48.3125 
L 138.773433 -48.3125 
L 141.494766 -48.3125 
L 144.216098 -48.3125 
L 146.93743 -48.3125 
L 149.658763 -48.3125 
L 152.380095 -48.3125 
L 155.101428 -48.3125 
L 157.82276 -48.3125 
L 160.544092 -48.3125 
L 163.265425 -48.3125 
L 165.986757 -48.3125 
L 168.708089 -48.3125 
L 171.429422 -48.3125 
L 174.150754 -48.3125 
L 176.872086 -48.3125 
L 179.593419 -48.3125 
L 182.314751 -48.3125 
L 185.036083 -48.3125 
L 187.757416 -48.3125 
L 190.478748 -48.3125 
L 193.20008 -48.3125 
L 195.921413 -48.3125 
L 198.642745 -48.3125 
L 201.364077 -48.3125 
L 204.08541 -48.3125 
L 206.806742 -48.3125 
L 209.528074 -48.3125 
L 212.249407 -48.3125 
L 214.970739 -48.3125 
L 217.692072 -48.3125 
L 220.413404 -48.3125 
L 223.134736 -48.3125 
L 225.856069 -48.3125 
L 228.577401 -48.3125 
L 231.298733 -48.3125 
L 234.020066 -48.3125 
L 236.741398 -48.3125 
L 239.46273 -48.3125 
L 242.184063 -48.3125 
L 244.905395 -48.3125 
L 247.626727 -48.3125 
L 250.34806 -48.3125 
L 253.069392 -48.3125 
L 255.790724 -48.3125 
L 258.512057 -48.3125 
L 261.233389 -48.3125 
L 263.954721 -48.3125 
L 266.676054 -48.3125 
L 269.397386 -48.3125 
L 272.118719 -48.3125 
L 274.840051 -48.3125 
L 277.561383 -48.3125 
L 280.282716 -48.3125 
L 283.004048 -48.3125 
L 285.72538 -48.3125 
L 288.446713 -48.3125 
L 291.168045 -48.3125 
L 293.889377 -48.3125 
L 296.61071 -48.3125 
L 299.332042 -48.3125 
L 302.053374 -48.3125 
L 304.774707 -48.3125 
L 307.496039 -48.3125 
L 310.217371 -48.3125 
L 312.938704 -48.3125 
L 315.660036 -48.3125 
L 318.381368 -48.3125 
L 321.102701 -48.3125 
L 323.824033 -48.3125 
L 326.545366 -48.3125 
L 329.266698 -48.3125 
L 331.98803 -48.3125 
L 334.709363 -48.3125 
L 337.430695 -48.3125 
L 340.152027 -48.3125 
L 342.87336 -48.3125 
L 345.594692 -48.3125 
L 348.316024 -48.3125 
L 351.037357 -48.3125 
L 353.758689 -48.3125 
L 356.480021 -48.3125 
L 359.201354 -48.3125 
L 361.922686 -48.3125 
L 364.644018 -48.3125 
L 367.365351 -48.3125 
L 370.086683 -48.3125 
L 372.808015 -48.3125 
L 375.529348 -48.3125 
L 378.25068 -48.3125 
L 380.972012 -48.3125 
L 383.693345 -48.3125 
L 386.414677 -48.3125 
L 389.13601 -48.3125 
L 391.857342 -48.3125 
L 394.578674 -48.3125 
L 397.300007 -48.3125 
L 400.021339 -48.3125 
L 402.742671 -48.3125 
L 405.464004 -48.3125 
L 408.185336 -48.3125 
L 410.906668 -48.3125 
L 413.628001 -48.3125 
L 416.349333 -48.3125 
L 419.070665 -48.3125 
L 421.791998 -48.3125 
L 424.51333 -48.3125 
L 427.234662 -48.3125 
L 429.955995 -48.3125 
L 432.677327 -48.3125 
L 435.398659 -48.3125 
L 438.119992 -48.3125 
L 440.841324 -48.3125 
L 443.562657 -48.3125 
L 446.283989 -48.3125 
L 449.005321 -48.3125 
L 451.726654 -48.3125 
L 454.447986 -48.3125 
L 457.169318 -48.3125 
L 459.890651 -48.3125 
L 462.611983 -48.3125 
L 465.333315 -48.3125 
L 468.054648 -48.3125 
L 470.77598 -48.3125 
L 473.497312 -48.3125 
L 476.218645 -48.3125 
L 478.939977 -48.3125 
L 481.661309 -48.3125 
L 484.382642 -48.3125 
L 487.103974 -48.3125 
L 489.825306 -48.3125 
L 492.546639 -48.3125 
L 495.267971 -48.3125 
L 497.989304 -48.3125 
L 500.710636 -48.3125 
L 503.431968 -48.3125 
L 506.153301 -48.3125 
L 508.874633 -48.3125 
L 511.595965 -48.3125 
L 514.317298 -48.3125 
L 517.03863 -48.3125 
L 519.759962 -48.3125 
L 522.481295 -48.3125 
L 525.202627 -48.3125 
L 527.923959 -48.3125 
L 530.645292 -48.3125 
L 533.366624 -48.3125 
L 536.087956 -48.3125 
L 538.809289 -48.3125 
L 541.530621 -48.3125 
L 544.251953 -48.3125 
L 546.973286 -48.3125 
L 549.694618 -48.3125 
L 552.41595 -48.3125 
L 555.137283 -48.3125 
L 557.858615 -48.3125 
L 560.579948 -48.3125 
L 563.30128 -48.3125 
L 566.022612 -48.3125 
L 568.743945 -48.3125 
L 571.465277 -48.3125 
L 574.186609 -48.3125 
L 576.907942 -48.3125 
L 579.629274 -48.3125 
L 582.350606 -48.3125 
L 585.071939 -48.3125 
L 587.793271 -48.3125 
L 590.514603 -48.3125 
L 593.235936 -48.3125 
L 595.957268 -48.3125 
L 598.6786 -48.3125 
L 601.399933 -48.3125 
L 604.121265 -48.3125 
L 606.842597 -48.3125 
L 609.56393 -48.3125 
L 612.285262 -48.3125 
L 615.006595 -48.3125 
L 617.727927 -48.3125 
L 620.449259 -48.3125 
L 623.170592 -48.3125 
L 625.891924 -48.3125 
L 628.613256 -48.3125 
L 631.334589 -48.3125 
L 634.055921 -48.3125 
L 636.777253 -48.3125 
L 639.498586 -48.3125 
L 642.219918 -48.3125 
L 644.94125 -48.3125 
L 647.662583 -48.3125 
L 650.383915 -48.3125 
L 653.105247 -48.3125 
L 655.82658 -48.3125 
L 658.547912 -48.3125 
L 661.269244 -48.3125 
L 663.990577 -48.3125 
L 666.711909 -48.3125 
L 669.433242 -48.3125 
L 672.154574 -48.3125 
L 672.154574 -48.557823 
L 672.154574 -48.557823 
L 669.433242 -48.614433 
L 666.711909 -48.682456 
L 663.990577 -48.763798 
L 661.269244 -48.860598 
L 658.547912 -48.975239 
L 655.82658 -49.11036 
L 653.105247 -49.268853 
L 650.383915 -49.453876 
L 647.662583 -49.668839 
L 644.94125 -49.917401 
L 642.219918 -50.203455 
L 639.498586 -50.531106 
L 636.777253 -50.904642 
L 634.055921 -51.328506 
L 631.334589 -51.807248 
L 628.613256 -52.345486 
L 625.891924 -52.94785 
L 623.170592 -53.618928 
L 620.449259 -54.363205 
L 617.727927 -55.185003 
L 615.006595 -56.088419 
L 612.285262 -57.077263 
L 609.56393 -58.155 
L 606.842597 -59.324697 
L 604.121265 -60.588977 
L 601.399933 -61.949975 
L 598.6786 -63.409316 
L 595.957268 -64.968087 
L 593.235936 -66.626834 
L 590.514603 -68.385563 
L 587.793271 -70.243753 
L 585.071939 -72.200385 
L 582.350606 -74.253971 
L 579.629274 -76.402603 
L 576.907942 -78.644 
L 574.186609 -80.975564 
L 571.465277 -83.394433 
L 568.743945 -85.897543 
L 566.022612 -88.481681 
L 563.30128 -91.143532 
L 560.579948 -93.879727 
L 557.858615 -96.686873 
L 555.137283 -99.561589 
L 552.41595 -102.500513 
L 549.694618 -105.500318 
L 546.973286 -108.557707 
L 544.251953 -111.66941 
L 541.530621 -114.832165 
L 538.809289 -118.042704 
L 536.087956 -121.297735 
L 533.366624 -124.593924 
L 530.645292 -127.927882 
L 527.923959 -131.296154 
L 525.202627 -134.695225 
L 522.481295 -138.121524 
L 519.759962 -141.571443 
L 517.03863 -145.041368 
L 514.317298 -148.527711 
L 511.595965 -152.026961 
L 508.874633 -155.535732 
L 506.153301 -159.050815 
L 503.431968 -162.569235 
L 500.710636 -166.088299 
L 497.989304 -169.605643 
L 495.267971 -173.119268 
L 492.546639 -176.627559 
L 489.825306 -180.129302 
L 487.103974 -183.62367 
L 484.382642 -187.11021 
L 481.661309 -190.588802 
L 478.939977 -194.059611 
L 476.218645 -197.523024 
L 473.497312 -200.979585 
L 470.77598 -204.429919 
L 468.054648 -207.874659 
L 465.333315 -211.314376 
L 462.611983 -214.749524 
L 459.890651 -218.180386 
L 457.169318 -221.607046 
L 454.447986 -225.029379 
L 451.726654 -228.447053 
L 449.005321 -231.859564 
L 446.283989 -235.266281 
L 443.562657 -238.666514 
L 440.841324 -242.059594 
L 438.119992 -245.444969 
L 435.398659 -248.822299 
L 432.677327 -252.191554 
L 429.955995 -255.55311 
L 427.234662 -258.907827 
L 424.51333 -262.257116 
L 421.791998 -265.602979 
L 419.070665 -268.948022 
L 416.349333 -272.295448 
L 413.628001 -275.649001 
L 410.906668 -279.012892 
L 408.185336 -282.391685 
L 405.464004 -285.790155 
L 402.742671 -289.213112 
L 400.021339 -292.66521 
L 397.300007 -296.150729 
L 394.578674 -299.673346 
L 391.857342 -303.235898 
L 389.13601 -306.840146 
L 386.414677 -310.486545 
L 383.693345 -314.174019 
L 380.972012 -317.899768 
L 378.25068 -321.659089 
L 375.529348 -325.445233 
L 372.808015 -329.249299 
L 370.086683 -333.060159 
L 367.365351 -336.864436 
L 364.644018 -340.64652 
L 361.922686 -344.388632 
L 359.201354 -348.07093 
L 356.480021 -351.671666 
L 353.758689 -355.16738 
L 351.037357 -358.533133 
L 348.316024 -361.742774 
L 345.594692 -364.769244 
L 342.87336 -367.584893 
L 340.152027 -370.161818 
L 337.430695 -372.472214 
L 334.709363 -374.488724 
L 331.98803 -376.184784 
L 329.266698 -377.534957 
L 326.545366 -378.51525 
L 323.824033 -379.103407 
L 321.102701 -379.279167 
L 318.381368 -379.024495 
L 315.660036 -378.323777 
L 312.938704 -377.163972 
L 310.217371 -375.534731 
L 307.496039 -373.428481 
L 304.774707 -370.840472 
L 302.053374 -367.76879 
L 299.332042 -364.214356 
L 296.61071 -360.180883 
L 293.889377 -355.674837 
L 291.168045 -350.705366 
L 288.446713 -345.284232 
L 285.72538 -339.42573 
L 283.004048 -333.146607 
L 280.282716 -326.465979 
L 277.561383 -319.40524 
L 274.840051 -311.987976 
L 272.118719 -304.239866 
L 269.397386 -296.188584 
L 266.676054 -287.863677 
L 263.954721 -279.296437 
L 261.233389 -270.519754 
L 258.512057 -261.567935 
L 255.790724 -252.47651 
L 253.069392 -243.281999 
L 250.34806 -234.021658 
L 247.626727 -224.733191 
L 244.905395 -215.454435 
L 242.184063 -206.22303 
L 239.46273 -197.076057 
L 236.741398 -188.049682 
L 234.020066 -179.178778 
L 231.298733 -170.496567 
L 228.577401 -162.034265 
L 225.856069 -153.820756 
L 223.134736 -145.882287 
L 220.413404 -138.242214 
L 217.692072 -130.920785 
L 214.970739 -123.934975 
L 212.249407 -117.29838 
L 209.528074 -111.021165 
L 206.806742 -105.110069 
L 204.08541 -99.568472 
L 201.364077 -94.396516 
L 198.642745 -89.591265 
L 195.921413 -85.146928 
L 193.20008 -81.0551 
L 190.478748 -77.30505 
L 187.757416 -73.884018 
L 185.036083 -70.777534 
L 182.314751 -67.969741 
L 179.593419 -65.443713 
L 176.872086 -63.18177 
L 174.150754 -61.165774 
L 171.429422 -59.377407 
L 168.708089 -57.798424 
L 165.986757 -56.410875 
L 163.265425 -55.197305 
L 160.544092 -54.140918 
L 157.82276 -53.225709 
L 155.101428 -52.43657 
L 152.380095 -51.759366 
L 149.658763 -51.180981 
L 146.93743 -50.689346 
L 144.216098 -50.273438 
L 141.494766 -49.923271 
L 138.773433 -49.629858 
L 136.052101 -49.385174 
L 133.330769 -49.1821 
L 130.609436 -49.014365 
z
" style="stroke: #2ecc71"/>
    </defs>
    <g clip-path="url(#pbcc1eca799)">
     <use xlink:href="#m47d2500044" x="0" y="420.48" style="fill: #2ecc71; fill-opacity: 0.3; stroke: #2ecc71"/>
    </g>
   </g>
   <g id="PolyCollection_2">
    <defs>
     <path id="m327137edac" d="M 89.646051 -49.594011 
L 89.646051 -48.3125 
L 92.522199 -48.3125 
L 95.398346 -48.3125 
L 98.274494 -48.3125 
L 101.150641 -48.3125 
L 104.026789 -48.3125 
L 106.902936 -48.3125 
L 109.779084 -48.3125 
L 112.655231 -48.3125 
L 115.531379 -48.3125 
L 118.407526 -48.3125 
L 121.283674 -48.3125 
L 124.159821 -48.3125 
L 127.035969 -48.3125 
L 129.912116 -48.3125 
L 132.788264 -48.3125 
L 135.664411 -48.3125 
L 138.540559 -48.3125 
L 141.416706 -48.3125 
L 144.292854 -48.3125 
L 147.169001 -48.3125 
L 150.045149 -48.3125 
L 152.921296 -48.3125 
L 155.797444 -48.3125 
L 158.673591 -48.3125 
L 161.549739 -48.3125 
L 164.425886 -48.3125 
L 167.302034 -48.3125 
L 170.178181 -48.3125 
L 173.054329 -48.3125 
L 175.930477 -48.3125 
L 178.806624 -48.3125 
L 181.682772 -48.3125 
L 184.558919 -48.3125 
L 187.435067 -48.3125 
L 190.311214 -48.3125 
L 193.187362 -48.3125 
L 196.063509 -48.3125 
L 198.939657 -48.3125 
L 201.815804 -48.3125 
L 204.691952 -48.3125 
L 207.568099 -48.3125 
L 210.444247 -48.3125 
L 213.320394 -48.3125 
L 216.196542 -48.3125 
L 219.072689 -48.3125 
L 221.948837 -48.3125 
L 224.824984 -48.3125 
L 227.701132 -48.3125 
L 230.577279 -48.3125 
L 233.453427 -48.3125 
L 236.329574 -48.3125 
L 239.205722 -48.3125 
L 242.081869 -48.3125 
L 244.958017 -48.3125 
L 247.834164 -48.3125 
L 250.710312 -48.3125 
L 253.586459 -48.3125 
L 256.462607 -48.3125 
L 259.338754 -48.3125 
L 262.214902 -48.3125 
L 265.091049 -48.3125 
L 267.967197 -48.3125 
L 270.843344 -48.3125 
L 273.719492 -48.3125 
L 276.595639 -48.3125 
L 279.471787 -48.3125 
L 282.347934 -48.3125 
L 285.224082 -48.3125 
L 288.100229 -48.3125 
L 290.976377 -48.3125 
L 293.852525 -48.3125 
L 296.728672 -48.3125 
L 299.60482 -48.3125 
L 302.480967 -48.3125 
L 305.357115 -48.3125 
L 308.233262 -48.3125 
L 311.10941 -48.3125 
L 313.985557 -48.3125 
L 316.861705 -48.3125 
L 319.737852 -48.3125 
L 322.614 -48.3125 
L 325.490147 -48.3125 
L 328.366295 -48.3125 
L 331.242442 -48.3125 
L 334.11859 -48.3125 
L 336.994737 -48.3125 
L 339.870885 -48.3125 
L 342.747032 -48.3125 
L 345.62318 -48.3125 
L 348.499327 -48.3125 
L 351.375475 -48.3125 
L 354.251622 -48.3125 
L 357.12777 -48.3125 
L 360.003917 -48.3125 
L 362.880065 -48.3125 
L 365.756212 -48.3125 
L 368.63236 -48.3125 
L 371.508507 -48.3125 
L 374.384655 -48.3125 
L 377.260802 -48.3125 
L 380.13695 -48.3125 
L 383.013097 -48.3125 
L 385.889245 -48.3125 
L 388.765392 -48.3125 
L 391.64154 -48.3125 
L 394.517687 -48.3125 
L 397.393835 -48.3125 
L 400.269982 -48.3125 
L 403.14613 -48.3125 
L 406.022277 -48.3125 
L 408.898425 -48.3125 
L 411.774573 -48.3125 
L 414.65072 -48.3125 
L 417.526868 -48.3125 
L 420.403015 -48.3125 
L 423.279163 -48.3125 
L 426.15531 -48.3125 
L 429.031458 -48.3125 
L 431.907605 -48.3125 
L 434.783753 -48.3125 
L 437.6599 -48.3125 
L 440.536048 -48.3125 
L 443.412195 -48.3125 
L 446.288343 -48.3125 
L 449.16449 -48.3125 
L 452.040638 -48.3125 
L 454.916785 -48.3125 
L 457.792933 -48.3125 
L 460.66908 -48.3125 
L 463.545228 -48.3125 
L 466.421375 -48.3125 
L 469.297523 -48.3125 
L 472.17367 -48.3125 
L 475.049818 -48.3125 
L 477.925965 -48.3125 
L 480.802113 -48.3125 
L 483.67826 -48.3125 
L 486.554408 -48.3125 
L 489.430555 -48.3125 
L 492.306703 -48.3125 
L 495.18285 -48.3125 
L 498.058998 -48.3125 
L 500.935145 -48.3125 
L 503.811293 -48.3125 
L 506.68744 -48.3125 
L 509.563588 -48.3125 
L 512.439735 -48.3125 
L 515.315883 -48.3125 
L 518.19203 -48.3125 
L 521.068178 -48.3125 
L 523.944325 -48.3125 
L 526.820473 -48.3125 
L 529.696621 -48.3125 
L 532.572768 -48.3125 
L 535.448916 -48.3125 
L 538.325063 -48.3125 
L 541.201211 -48.3125 
L 544.077358 -48.3125 
L 546.953506 -48.3125 
L 549.829653 -48.3125 
L 552.705801 -48.3125 
L 555.581948 -48.3125 
L 558.458096 -48.3125 
L 561.334243 -48.3125 
L 564.210391 -48.3125 
L 567.086538 -48.3125 
L 569.962686 -48.3125 
L 572.838833 -48.3125 
L 575.714981 -48.3125 
L 578.591128 -48.3125 
L 581.467276 -48.3125 
L 584.343423 -48.3125 
L 587.219571 -48.3125 
L 590.095718 -48.3125 
L 592.971866 -48.3125 
L 595.848013 -48.3125 
L 598.724161 -48.3125 
L 601.600308 -48.3125 
L 604.476456 -48.3125 
L 607.352603 -48.3125 
L 610.228751 -48.3125 
L 613.104898 -48.3125 
L 615.981046 -48.3125 
L 618.857193 -48.3125 
L 621.733341 -48.3125 
L 624.609488 -48.3125 
L 627.485636 -48.3125 
L 630.361783 -48.3125 
L 633.237931 -48.3125 
L 636.114078 -48.3125 
L 638.990226 -48.3125 
L 641.866373 -48.3125 
L 644.742521 -48.3125 
L 647.618669 -48.3125 
L 650.494816 -48.3125 
L 653.370964 -48.3125 
L 656.247111 -48.3125 
L 659.123259 -48.3125 
L 661.999406 -48.3125 
L 661.999406 -50.226738 
L 661.999406 -50.226738 
L 659.123259 -50.503582 
L 656.247111 -50.815621 
L 653.370964 -51.166577 
L 650.494816 -51.560457 
L 647.618669 -52.001563 
L 644.742521 -52.494492 
L 641.866373 -53.044142 
L 638.990226 -53.655713 
L 636.114078 -54.334702 
L 633.237931 -55.086897 
L 630.361783 -55.918368 
L 627.485636 -56.835455 
L 624.609488 -57.844745 
L 621.733341 -58.953054 
L 618.857193 -60.167396 
L 615.981046 -61.494953 
L 613.104898 -62.943034 
L 610.228751 -64.519034 
L 607.352603 -66.230384 
L 604.476456 -68.084495 
L 601.600308 -70.088703 
L 598.724161 -72.250201 
L 595.848013 -74.575968 
L 592.971866 -77.072699 
L 590.095718 -79.746726 
L 587.219571 -82.603934 
L 584.343423 -85.649682 
L 581.467276 -88.888711 
L 578.591128 -92.325065 
L 575.714981 -95.961998 
L 572.838833 -99.801893 
L 569.962686 -103.846173 
L 567.086538 -108.09523 
L 564.210391 -112.548343 
L 561.334243 -117.203611 
L 558.458096 -122.057892 
L 555.581948 -127.106749 
L 552.705801 -132.344408 
L 549.829653 -137.763725 
L 546.953506 -143.356163 
L 544.077358 -149.11179 
L 541.201211 -155.019283 
L 538.325063 -161.065948 
L 535.448916 -167.237761 
L 532.572768 -173.519414 
L 529.696621 -179.894389 
L 526.820473 -186.345038 
L 523.944325 -192.852684 
L 521.068178 -199.39773 
L 518.19203 -205.959795 
L 515.315883 -212.517846 
L 512.439735 -219.050356 
L 509.563588 -225.535461 
L 506.68744 -231.951139 
L 503.811293 -238.275379 
L 500.935145 -244.486367 
L 498.058998 -250.562672 
L 495.18285 -256.483429 
L 492.306703 -262.228517 
L 489.430555 -267.778746 
L 486.554408 -273.116018 
L 483.67826 -278.223496 
L 480.802113 -283.085749 
L 477.925965 -287.688888 
L 475.049818 -292.020691 
L 472.17367 -296.0707 
L 469.297523 -299.830311 
L 466.421375 -303.292832 
L 463.545228 -306.453533 
L 460.66908 -309.309662 
L 457.792933 -311.860444 
L 454.916785 -314.107062 
L 452.040638 -316.052609 
L 449.16449 -317.702024 
L 446.288343 -319.062004 
L 443.412195 -320.140901 
L 440.536048 -320.948596 
L 437.6599 -321.496365 
L 434.783753 -321.796725 
L 431.907605 -321.863267 
L 429.031458 -321.71049 
L 426.15531 -321.353616 
L 423.279163 -320.808405 
L 420.403015 -320.090974 
L 417.526868 -319.217605 
L 414.65072 -318.204567 
L 411.774573 -317.067938 
L 408.898425 -315.823429 
L 406.022277 -314.486233 
L 403.14613 -313.070865 
L 400.269982 -311.591035 
L 397.393835 -310.059517 
L 394.517687 -308.488048 
L 391.64154 -306.887232 
L 388.765392 -305.266471 
L 385.889245 -303.6339 
L 383.013097 -301.996357 
L 380.13695 -300.359351 
L 377.260802 -298.727063 
L 374.384655 -297.10235 
L 371.508507 -295.486774 
L 368.63236 -293.880644 
L 365.756212 -292.283062 
L 362.880065 -290.691999 
L 360.003917 -289.104363 
L 357.12777 -287.51609 
L 354.251622 -285.922238 
L 351.375475 -284.317087 
L 348.499327 -282.69425 
L 345.62318 -281.04678 
L 342.747032 -279.367287 
L 339.870885 -277.648051 
L 336.994737 -275.881139 
L 334.11859 -274.05852 
L 331.242442 -272.172175 
L 328.366295 -270.214208 
L 325.490147 -268.17695 
L 322.614 -266.05306 
L 319.737852 -263.835617 
L 316.861705 -261.518208 
L 313.985557 -259.09501 
L 311.10941 -256.56086 
L 308.233262 -253.911322 
L 305.357115 -251.14274 
L 302.480967 -248.25229 
L 299.60482 -245.238013 
L 296.728672 -242.098847 
L 293.852525 -238.834645 
L 290.976377 -235.446191 
L 288.100229 -231.935195 
L 285.224082 -228.30429 
L 282.347934 -224.557013 
L 279.471787 -220.697786 
L 276.595639 -216.731877 
L 273.719492 -212.665366 
L 270.843344 -208.505093 
L 267.967197 -204.258608 
L 265.091049 -199.934109 
L 262.214902 -195.540377 
L 259.338754 -191.086709 
L 256.462607 -186.582841 
L 253.586459 -182.038872 
L 250.710312 -177.465189 
L 247.834164 -172.872379 
L 244.958017 -168.271155 
L 242.081869 -163.672272 
L 239.205722 -159.086447 
L 236.329574 -154.524282 
L 233.453427 -149.996188 
L 230.577279 -145.512311 
L 227.701132 -141.082468 
L 224.824984 -136.716078 
L 221.948837 -132.422108 
L 219.072689 -128.209018 
L 216.196542 -124.084716 
L 213.320394 -120.056515 
L 210.444247 -116.131098 
L 207.568099 -112.314498 
L 204.691952 -108.612068 
L 201.815804 -105.028476 
L 198.939657 -101.567689 
L 196.063509 -98.232983 
L 193.187362 -95.02694 
L 190.311214 -91.951461 
L 187.435067 -89.007789 
L 184.558919 -86.196521 
L 181.682772 -83.517645 
L 178.806624 -80.970563 
L 175.930477 -78.554127 
L 173.054329 -76.266679 
L 170.178181 -74.106085 
L 167.302034 -72.069783 
L 164.425886 -70.154818 
L 161.549739 -68.357892 
L 158.673591 -66.675402 
L 155.797444 -65.103488 
L 152.921296 -63.638072 
L 150.045149 -62.274898 
L 147.169001 -61.00958 
L 144.292854 -59.83763 
L 141.416706 -58.7545 
L 138.540559 -57.755616 
L 135.664411 -56.836406 
L 132.788264 -55.992332 
L 129.912116 -55.218915 
L 127.035969 -54.511758 
L 124.159821 -53.866568 
L 121.283674 -53.27917 
L 118.407526 -52.74553 
L 115.531379 -52.26176 
L 112.655231 -51.824132 
L 109.779084 -51.429086 
L 106.902936 -51.073237 
L 104.026789 -50.753373 
L 101.150641 -50.466465 
L 98.274494 -50.20966 
L 95.398346 -49.980286 
L 92.522199 -49.775845 
L 89.646051 -49.594011 
z
" style="stroke: #e74c3c"/>
    </defs>
    <g clip-path="url(#pbcc1eca799)">
     <use xlink:href="#m327137edac" x="0" y="420.48" style="fill: #e74c3c; fill-opacity: 0.3; stroke: #e74c3c"/>
    </g>
   </g>
   <g id="patch_3">
    <path d="M 60.520625 372.1675 
L 60.520625 24.6525 
" style="fill: none; stroke: #cccccc; stroke-width: 1.5; stroke-linejoin: miter; stroke-linecap: square"/>
   </g>
   <g id="patch_4">
    <path d="M 60.520625 372.1675 
L 701.28 372.1675 
" style="fill: none; stroke: #cccccc; stroke-width: 1.5; stroke-linejoin: miter; stroke-linecap: square"/>
   </g>
   <g id="text_15">
    <!-- Distribution of Absolute Errors -->
    <g style="fill: #262626" transform="translate(275.080312 18.6525) scale(0.16 -0.16)">
     <defs>
      <path id="ArialMT-62" d="M 941 0 
L 419 0 
L 419 4581 
L 981 4581 
L 981 2947 
Q 1338 3394 1891 3394 
Q 2197 3394 2470 3270 
Q 2744 3147 2920 2923 
Q 3097 2700 3197 2384 
Q 3297 2069 3297 1709 
Q 3297 856 2875 390 
Q 2453 -75 1863 -75 
Q 1275 -75 941 416 
L 941 0 
z
M 934 1684 
Q 934 1088 1097 822 
Q 1363 388 1816 388 
Q 2184 388 2453 708 
Q 2722 1028 2722 1663 
Q 2722 2313 2464 2622 
Q 2206 2931 1841 2931 
Q 1472 2931 1203 2611 
Q 934 2291 934 1684 
z
" transform="scale(0.015625)"/>
      <path id="ArialMT-75" d="M 2597 0 
L 2597 488 
Q 2209 -75 1544 -75 
Q 1250 -75 995 37 
Q 741 150 617 320 
Q 494 491 444 738 
Q 409 903 409 1263 
L 409 3319 
L 972 3319 
L 972 1478 
Q 972 1038 1006 884 
Q 1059 663 1231 536 
Q 1403 409 1656 409 
Q 1909 409 2131 539 
Q 2353 669 2445 892 
Q 2538 1116 2538 1541 
L 2538 3319 
L 3100 3319 
L 3100 0 
L 2597 0 
z
" transform="scale(0.015625)"/>
      <path id="ArialMT-66" d="M 556 0 
L 556 2881 
L 59 2881 
L 59 3319 
L 556 3319 
L 556 3672 
Q 556 4006 616 4169 
Q 697 4388 901 4523 
Q 1106 4659 1475 4659 
Q 1713 4659 2000 4603 
L 1916 4113 
Q 1741 4144 1584 4144 
Q 1328 4144 1222 4034 
Q 1116 3925 1116 3625 
L 1116 3319 
L 1763 3319 
L 1763 2881 
L 1116 2881 
L 1116 0 
L 556 0 
z
" transform="scale(0.015625)"/>
      <path id="ArialMT-41" d="M -9 0 
L 1750 4581 
L 2403 4581 
L 4278 0 
L 3588 0 
L 3053 1388 
L 1138 1388 
L 634 0 
L -9 0 
z
M 1313 1881 
L 2866 1881 
L 2388 3150 
Q 2169 3728 2063 4100 
Q 1975 3659 1816 3225 
L 1313 1881 
z
" transform="scale(0.015625)"/>
      <path id="ArialMT-6c" d="M 409 0 
L 409 4581 
L 972 4581 
L 972 0 
L 409 0 
z
" transform="scale(0.015625)"/>
     </defs>
     <use xlink:href="#ArialMT-44"/>
     <use xlink:href="#ArialMT-69" x="72.216797"/>
     <use xlink:href="#ArialMT-73" x="94.433594"/>
     <use xlink:href="#ArialMT-74" x="144.433594"/>
     <use xlink:href="#ArialMT-72" x="172.216797"/>
     <use xlink:href="#ArialMT-69" x="205.517578"/>
     <use xlink:href="#ArialMT-62" x="227.734375"/>
     <use xlink:href="#ArialMT-75" x="283.349609"/>
     <use xlink:href="#ArialMT-74" x="338.964844"/>
     <use xlink:href="#ArialMT-69" x="366.748047"/>
     <use xlink:href="#ArialMT-6f" x="388.964844"/>
     <use xlink:href="#ArialMT-6e" x="444.580078"/>
     <use xlink:href="#ArialMT-20" x="500.195312"/>
     <use xlink:href="#ArialMT-6f" x="527.978516"/>
     <use xlink:href="#ArialMT-66" x="583.59375"/>
     <use xlink:href="#ArialMT-20" x="611.376953"/>
     <use xlink:href="#ArialMT-41" x="633.660156"/>
     <use xlink:href="#ArialMT-62" x="700.359375"/>
     <use xlink:href="#ArialMT-73" x="755.974609"/>
     <use xlink:href="#ArialMT-6f" x="805.974609"/>
     <use xlink:href="#ArialMT-6c" x="861.589844"/>
     <use xlink:href="#ArialMT-75" x="883.806641"/>
     <use xlink:href="#ArialMT-74" x="939.421875"/>
     <use xlink:href="#ArialMT-65" x="967.205078"/>
     <use xlink:href="#ArialMT-20" x="1022.820312"/>
     <use xlink:href="#ArialMT-45" x="1050.603516"/>
     <use xlink:href="#ArialMT-72" x="1117.302734"/>
     <use xlink:href="#ArialMT-72" x="1150.603516"/>
     <use xlink:href="#ArialMT-6f" x="1183.904297"/>
     <use xlink:href="#ArialMT-72" x="1239.519531"/>
     <use xlink:href="#ArialMT-73" x="1272.820312"/>
    </g>
   </g>
   <g id="legend_1">
    <g id="patch_5">
     <path d="M 497.20125 68.775 
L 692.88 68.775 
Q 695.28 68.775 695.28 66.375 
L 695.28 33.0525 
Q 695.28 30.6525 692.88 30.6525 
L 497.20125 30.6525 
Q 494.80125 30.6525 494.80125 33.0525 
L 494.80125 66.375 
Q 494.80125 68.775 497.20125 68.775 
z
" style="fill: #ffffff; opacity: 0.8; stroke: #cccccc; stroke-linejoin: miter"/>
    </g>
    <g id="patch_6">
     <path d="M 499.60125 44.188125 
L 523.60125 44.188125 
L 523.60125 35.788125 
L 499.60125 35.788125 
z
" style="fill: #2ecc71; fill-opacity: 0.3; stroke: #2ecc71; stroke-linejoin: miter"/>
    </g>
    <g id="text_16">
     <!-- Training (μ=1.87%, σ=1.21%) -->
     <g style="fill: #262626" transform="translate(533.20125 44.188125) scale(0.12 -0.12)">
      <defs>
       <path id="ArialMT-54" d="M 1659 0 
L 1659 4041 
L 150 4041 
L 150 4581 
L 3781 4581 
L 3781 4041 
L 2266 4041 
L 2266 0 
L 1659 0 
z
" transform="scale(0.015625)"/>
       <path id="ArialMT-61" d="M 2588 409 
Q 2275 144 1986 34 
Q 1697 -75 1366 -75 
Q 819 -75 525 192 
Q 231 459 231 875 
Q 231 1119 342 1320 
Q 453 1522 633 1644 
Q 813 1766 1038 1828 
Q 1203 1872 1538 1913 
Q 2219 1994 2541 2106 
Q 2544 2222 2544 2253 
Q 2544 2597 2384 2738 
Q 2169 2928 1744 2928 
Q 1347 2928 1158 2789 
Q 969 2650 878 2297 
L 328 2372 
Q 403 2725 575 2942 
Q 747 3159 1072 3276 
Q 1397 3394 1825 3394 
Q 2250 3394 2515 3294 
Q 2781 3194 2906 3042 
Q 3031 2891 3081 2659 
Q 3109 2516 3109 2141 
L 3109 1391 
Q 3109 606 3145 398 
Q 3181 191 3288 0 
L 2700 0 
Q 2613 175 2588 409 
z
M 2541 1666 
Q 2234 1541 1622 1453 
Q 1275 1403 1131 1340 
Q 988 1278 909 1158 
Q 831 1038 831 891 
Q 831 666 1001 516 
Q 1172 366 1500 366 
Q 1825 366 2078 508 
Q 2331 650 2450 897 
Q 2541 1088 2541 1459 
L 2541 1666 
z
" transform="scale(0.015625)"/>
       <path id="ArialMT-67" d="M 319 -275 
L 866 -356 
Q 900 -609 1056 -725 
Q 1266 -881 1628 -881 
Q 2019 -881 2231 -725 
Q 2444 -569 2519 -288 
Q 2563 -116 2559 434 
Q 2191 0 1641 0 
Q 956 0 581 494 
Q 206 988 206 1678 
Q 206 2153 378 2554 
Q 550 2956 876 3175 
Q 1203 3394 1644 3394 
Q 2231 3394 2613 2919 
L 2613 3319 
L 3131 3319 
L 3131 450 
Q 3131 -325 2973 -648 
Q 2816 -972 2473 -1159 
Q 2131 -1347 1631 -1347 
Q 1038 -1347 672 -1080 
Q 306 -813 319 -275 
z
M 784 1719 
Q 784 1066 1043 766 
Q 1303 466 1694 466 
Q 2081 466 2343 764 
Q 2606 1063 2606 1700 
Q 2606 2309 2336 2618 
Q 2066 2928 1684 2928 
Q 1309 2928 1046 2623 
Q 784 2319 784 1719 
z
" transform="scale(0.015625)"/>
       <path id="ArialMT-3bc" d="M 3181 3319 
L 3181 0 
L 2678 0 
L 2678 394 
Q 2516 144 2356 50 
Q 2138 -78 1847 -78 
Q 1588 -78 1388 25 
Q 1238 103 1056 334 
L 1056 -1272 
L 500 -1272 
L 500 3319 
L 1056 3319 
L 1056 1913 
Q 1056 1147 1137 920 
Q 1219 694 1401 562 
Q 1584 431 1822 431 
Q 2072 431 2269 568 
Q 2466 706 2547 923 
Q 2628 1141 2628 1903 
L 2628 3319 
L 3181 3319 
z
" transform="scale(0.015625)"/>
       <path id="ArialMT-3d" d="M 3381 2694 
L 356 2694 
L 356 3219 
L 3381 3219 
L 3381 2694 
z
M 3381 1303 
L 356 1303 
L 356 1828 
L 3381 1828 
L 3381 1303 
z
" transform="scale(0.015625)"/>
       <path id="ArialMT-38" d="M 1131 2484 
Q 781 2613 612 2850 
Q 444 3088 444 3419 
Q 444 3919 803 4259 
Q 1163 4600 1759 4600 
Q 2359 4600 2725 4251 
Q 3091 3903 3091 3403 
Q 3091 3084 2923 2848 
Q 2756 2613 2416 2484 
Q 2838 2347 3058 2040 
Q 3278 1734 3278 1309 
Q 3278 722 2862 322 
Q 2447 -78 1769 -78 
Q 1091 -78 675 323 
Q 259 725 259 1325 
Q 259 1772 486 2073 
Q 713 2375 1131 2484 
z
M 1019 3438 
Q 1019 3113 1228 2906 
Q 1438 2700 1772 2700 
Q 2097 2700 2305 2904 
Q 2513 3109 2513 3406 
Q 2513 3716 2298 3927 
Q 2084 4138 1766 4138 
Q 1444 4138 1231 3931 
Q 1019 3725 1019 3438 
z
M 838 1322 
Q 838 1081 952 856 
Q 1066 631 1291 507 
Q 1516 384 1775 384 
Q 2178 384 2440 643 
Q 2703 903 2703 1303 
Q 2703 1709 2433 1975 
Q 2163 2241 1756 2241 
Q 1359 2241 1098 1978 
Q 838 1716 838 1322 
z
" transform="scale(0.015625)"/>
       <path id="ArialMT-37" d="M 303 3981 
L 303 4522 
L 3269 4522 
L 3269 4084 
Q 2831 3619 2401 2847 
Q 1972 2075 1738 1259 
Q 1569 684 1522 0 
L 944 0 
Q 953 541 1156 1306 
Q 1359 2072 1739 2783 
Q 2119 3494 2547 3981 
L 303 3981 
z
" transform="scale(0.015625)"/>
       <path id="ArialMT-2c" d="M 569 0 
L 569 641 
L 1209 641 
L 1209 0 
Q 1209 -353 1084 -570 
Q 959 -788 688 -906 
L 531 -666 
Q 709 -588 793 -436 
Q 878 -284 888 0 
L 569 0 
z
" transform="scale(0.015625)"/>
       <path id="ArialMT-3c3" d="M 3809 3319 
L 3809 2863 
L 2906 2863 
Q 3322 2475 3322 1656 
Q 3322 766 2867 345 
Q 2413 -75 1763 -75 
Q 1088 -75 650 362 
Q 213 800 213 1659 
Q 213 2544 667 2969 
Q 1122 3394 1763 3394 
Q 1997 3394 2294 3319 
L 3809 3319 
z
M 1753 2928 
Q 1344 2928 1067 2609 
Q 791 2291 791 1656 
Q 791 1025 1061 706 
Q 1331 388 1763 388 
Q 2216 388 2483 720 
Q 2750 1053 2750 1659 
Q 2750 2213 2504 2570 
Q 2259 2928 1753 2928 
z
" transform="scale(0.015625)"/>
      </defs>
      <use xlink:href="#ArialMT-54"/>
      <use xlink:href="#ArialMT-72" x="57.333984"/>
      <use xlink:href="#ArialMT-61" x="90.634766"/>
      <use xlink:href="#ArialMT-69" x="146.25"/>
      <use xlink:href="#ArialMT-6e" x="168.466797"/>
      <use xlink:href="#ArialMT-69" x="224.082031"/>
      <use xlink:href="#ArialMT-6e" x="246.298828"/>
      <use xlink:href="#ArialMT-67" x="301.914062"/>
      <use xlink:href="#ArialMT-20" x="357.529297"/>
      <use xlink:href="#ArialMT-28" x="385.3125"/>
      <use xlink:href="#ArialMT-3bc" x="418.613281"/>
      <use xlink:href="#ArialMT-3d" x="476.230469"/>
      <use xlink:href="#ArialMT-31" x="534.628906"/>
      <use xlink:href="#ArialMT-2e" x="590.244141"/>
      <use xlink:href="#ArialMT-38" x="618.027344"/>
      <use xlink:href="#ArialMT-37" x="673.642578"/>
      <use xlink:href="#ArialMT-25" x="729.257812"/>
      <use xlink:href="#ArialMT-2c" x="818.173828"/>
      <use xlink:href="#ArialMT-20" x="845.957031"/>
      <use xlink:href="#ArialMT-3c3" x="873.740234"/>
      <use xlink:href="#ArialMT-3d" x="935.458984"/>
      <use xlink:href="#ArialMT-31" x="993.857422"/>
      <use xlink:href="#ArialMT-2e" x="1049.472656"/>
      <use xlink:href="#ArialMT-32" x="1077.255859"/>
      <use xlink:href="#ArialMT-31" x="1132.871094"/>
      <use xlink:href="#ArialMT-25" x="1188.486328"/>
      <use xlink:href="#ArialMT-29" x="1277.402344"/>
     </g>
    </g>
    <g id="patch_7">
     <path d="M 499.60125 61.449375 
L 523.60125 61.449375 
L 523.60125 53.049375 
L 499.60125 53.049375 
z
" style="fill: #e74c3c; fill-opacity: 0.3; stroke: #e74c3c; stroke-linejoin: miter"/>
    </g>
    <g id="text_17">
     <!-- Testing (μ=2.25%, σ=1.28%) -->
     <g style="fill: #262626" transform="translate(533.20125 61.449375) scale(0.12 -0.12)">
      <use xlink:href="#ArialMT-54"/>
      <use xlink:href="#ArialMT-65" x="49.958984"/>
      <use xlink:href="#ArialMT-73" x="105.574219"/>
      <use xlink:href="#ArialMT-74" x="155.574219"/>
      <use xlink:href="#ArialMT-69" x="183.357422"/>
      <use xlink:href="#ArialMT-6e" x="205.574219"/>
      <use xlink:href="#ArialMT-67" x="261.189453"/>
      <use xlink:href="#ArialMT-20" x="316.804688"/>
      <use xlink:href="#ArialMT-28" x="344.587891"/>
      <use xlink:href="#ArialMT-3bc" x="377.888672"/>
      <use xlink:href="#ArialMT-3d" x="435.505859"/>
      <use xlink:href="#ArialMT-32" x="493.904297"/>
      <use xlink:href="#ArialMT-2e" x="549.519531"/>
      <use xlink:href="#ArialMT-32" x="577.302734"/>
      <use xlink:href="#ArialMT-35" x="632.917969"/>
      <use xlink:href="#ArialMT-25" x="688.533203"/>
      <use xlink:href="#ArialMT-2c" x="777.449219"/>
      <use xlink:href="#ArialMT-20" x="805.232422"/>
      <use xlink:href="#ArialMT-3c3" x="833.015625"/>
      <use xlink:href="#ArialMT-3d" x="894.734375"/>
      <use xlink:href="#ArialMT-31" x="953.132812"/>
      <use xlink:href="#ArialMT-2e" x="1008.748047"/>
      <use xlink:href="#ArialMT-32" x="1036.53125"/>
      <use xlink:href="#ArialMT-38" x="1092.146484"/>
      <use xlink:href="#ArialMT-25" x="1147.761719"/>
      <use xlink:href="#ArialMT-29" x="1236.677734"/>
     </g>
    </g>
   </g>
  </g>
 </g>
 <defs>
  <clipPath id="pbcc1eca799">
   <rect x="60.520625" y="24.6525" width="640.759375" height="347.515"/>
  </clipPath>
 </defs>
</svg>
