<?xml version="1.0" encoding="utf-8" standalone="no"?>
<!DOCTYPE svg PUBLIC "-//W3C//DTD SVG 1.1//EN"
  "http://www.w3.org/Graphics/SVG/1.1/DTD/svg11.dtd">
<svg xmlns:xlink="http://www.w3.org/1999/xlink" width="708.48pt" height="420.48pt" viewBox="0 0 708.48 420.48" xmlns="http://www.w3.org/2000/svg" version="1.1">
 <metadata>
  <rdf:RDF xmlns:dc="http://purl.org/dc/elements/1.1/" xmlns:cc="http://creativecommons.org/ns#" xmlns:rdf="http://www.w3.org/1999/02/22-rdf-syntax-ns#">
   <cc:Work>
    <dc:type rdf:resource="http://purl.org/dc/dcmitype/StillImage"/>
    <dc:date>2025-01-07T20:42:13.869465</dc:date>
    <dc:format>image/svg+xml</dc:format>
    <dc:creator>
     <cc:Agent>
      <dc:title>Matplotlib v3.9.3, https://matplotlib.org/</dc:title>
     </cc:Agent>
    </dc:creator>
   </cc:Work>
  </rdf:RDF>
 </metadata>
 <defs>
  <style type="text/css">*{stroke-linejoin: round; stroke-linecap: butt}</style>
 </defs>
 <g id="figure_1">
  <g id="patch_1">
   <path d="M 0 420.48 
L 708.48 420.48 
L 708.48 -0 
L 0 -0 
z
" style="fill: #ffffff"/>
  </g>
  <g id="axes_1">
   <g id="patch_2">
    <path d="M 60.520625 372.1675 
L 701.28 372.1675 
L 701.28 24.6525 
L 60.520625 24.6525 
z
" style="fill: #ffffff"/>
   </g>
   <g id="matplotlib.axis_1">
    <g id="xtick_1">
     <g id="line2d_1">
      <path d="M 63.022493 372.1675 
L 63.022493 24.6525 
" clip-path="url(#pe36516ad44)" style="fill: none; stroke: #cccccc; stroke-opacity: 0.3; stroke-width: 0.5; stroke-linecap: round"/>
     </g>
     <g id="text_1">
      <!-- −2 -->
      <g style="fill: #262626" transform="translate(56.181556 387.756875) scale(0.12 -0.12)">
       <defs>
        <path id="ArialMT-2212" d="M 3381 1997 
L 356 1997 
L 356 2522 
L 3381 2522 
L 3381 1997 
z
" transform="scale(0.015625)"/>
        <path id="ArialMT-32" d="M 3222 541 
L 3222 0 
L 194 0 
Q 188 203 259 391 
Q 375 700 629 1000 
Q 884 1300 1366 1694 
Q 2113 2306 2375 2664 
Q 2638 3022 2638 3341 
Q 2638 3675 2398 3904 
Q 2159 4134 1775 4134 
Q 1369 4134 1125 3890 
Q 881 3647 878 3216 
L 300 3275 
Q 359 3922 746 4261 
Q 1134 4600 1788 4600 
Q 2447 4600 2831 4234 
Q 3216 3869 3216 3328 
Q 3216 3053 3103 2787 
Q 2991 2522 2730 2228 
Q 2469 1934 1863 1422 
Q 1356 997 1212 845 
Q 1069 694 975 541 
L 3222 541 
z
" transform="scale(0.015625)"/>
       </defs>
       <use xlink:href="#ArialMT-2212"/>
       <use xlink:href="#ArialMT-32" x="58.398438"/>
      </g>
     </g>
    </g>
    <g id="xtick_2">
     <g id="line2d_2">
      <path d="M 140.873312 372.1675 
L 140.873312 24.6525 
" clip-path="url(#pe36516ad44)" style="fill: none; stroke: #cccccc; stroke-opacity: 0.3; stroke-width: 0.5; stroke-linecap: round"/>
     </g>
     <g id="text_2">
      <!-- −1 -->
      <g style="fill: #262626" transform="translate(134.032374 387.756875) scale(0.12 -0.12)">
       <defs>
        <path id="ArialMT-31" d="M 2384 0 
L 1822 0 
L 1822 3584 
Q 1619 3391 1289 3197 
Q 959 3003 697 2906 
L 697 3450 
Q 1169 3672 1522 3987 
Q 1875 4303 2022 4600 
L 2384 4600 
L 2384 0 
z
" transform="scale(0.015625)"/>
       </defs>
       <use xlink:href="#ArialMT-2212"/>
       <use xlink:href="#ArialMT-31" x="58.398438"/>
      </g>
     </g>
    </g>
    <g id="xtick_3">
     <g id="line2d_3">
      <path d="M 218.724131 372.1675 
L 218.724131 24.6525 
" clip-path="url(#pe36516ad44)" style="fill: none; stroke: #cccccc; stroke-opacity: 0.3; stroke-width: 0.5; stroke-linecap: round"/>
     </g>
     <g id="text_3">
      <!-- 0 -->
      <g style="fill: #262626" transform="translate(215.387568 387.756875) scale(0.12 -0.12)">
       <defs>
        <path id="ArialMT-30" d="M 266 2259 
Q 266 3072 433 3567 
Q 600 4063 929 4331 
Q 1259 4600 1759 4600 
Q 2128 4600 2406 4451 
Q 2684 4303 2865 4023 
Q 3047 3744 3150 3342 
Q 3253 2941 3253 2259 
Q 3253 1453 3087 958 
Q 2922 463 2592 192 
Q 2263 -78 1759 -78 
Q 1097 -78 719 397 
Q 266 969 266 2259 
z
M 844 2259 
Q 844 1131 1108 757 
Q 1372 384 1759 384 
Q 2147 384 2411 759 
Q 2675 1134 2675 2259 
Q 2675 3391 2411 3762 
Q 2147 4134 1753 4134 
Q 1366 4134 1134 3806 
Q 844 3388 844 2259 
z
" transform="scale(0.015625)"/>
       </defs>
       <use xlink:href="#ArialMT-30"/>
      </g>
     </g>
    </g>
    <g id="xtick_4">
     <g id="line2d_4">
      <path d="M 296.57495 372.1675 
L 296.57495 24.6525 
" clip-path="url(#pe36516ad44)" style="fill: none; stroke: #cccccc; stroke-opacity: 0.3; stroke-width: 0.5; stroke-linecap: round"/>
     </g>
     <g id="text_4">
      <!-- 1 -->
      <g style="fill: #262626" transform="translate(293.238387 387.756875) scale(0.12 -0.12)">
       <use xlink:href="#ArialMT-31"/>
      </g>
     </g>
    </g>
    <g id="xtick_5">
     <g id="line2d_5">
      <path d="M 374.425768 372.1675 
L 374.425768 24.6525 
" clip-path="url(#pe36516ad44)" style="fill: none; stroke: #cccccc; stroke-opacity: 0.3; stroke-width: 0.5; stroke-linecap: round"/>
     </g>
     <g id="text_5">
      <!-- 2 -->
      <g style="fill: #262626" transform="translate(371.089206 387.756875) scale(0.12 -0.12)">
       <use xlink:href="#ArialMT-32"/>
      </g>
     </g>
    </g>
    <g id="xtick_6">
     <g id="line2d_6">
      <path d="M 452.276587 372.1675 
L 452.276587 24.6525 
" clip-path="url(#pe36516ad44)" style="fill: none; stroke: #cccccc; stroke-opacity: 0.3; stroke-width: 0.5; stroke-linecap: round"/>
     </g>
     <g id="text_6">
      <!-- 3 -->
      <g style="fill: #262626" transform="translate(448.940025 387.756875) scale(0.12 -0.12)">
       <defs>
        <path id="ArialMT-33" d="M 269 1209 
L 831 1284 
Q 928 806 1161 595 
Q 1394 384 1728 384 
Q 2125 384 2398 659 
Q 2672 934 2672 1341 
Q 2672 1728 2419 1979 
Q 2166 2231 1775 2231 
Q 1616 2231 1378 2169 
L 1441 2663 
Q 1497 2656 1531 2656 
Q 1891 2656 2178 2843 
Q 2466 3031 2466 3422 
Q 2466 3731 2256 3934 
Q 2047 4138 1716 4138 
Q 1388 4138 1169 3931 
Q 950 3725 888 3313 
L 325 3413 
Q 428 3978 793 4289 
Q 1159 4600 1703 4600 
Q 2078 4600 2393 4439 
Q 2709 4278 2876 4000 
Q 3044 3722 3044 3409 
Q 3044 3113 2884 2869 
Q 2725 2625 2413 2481 
Q 2819 2388 3044 2092 
Q 3269 1797 3269 1353 
Q 3269 753 2831 336 
Q 2394 -81 1725 -81 
Q 1122 -81 723 278 
Q 325 638 269 1209 
z
" transform="scale(0.015625)"/>
       </defs>
       <use xlink:href="#ArialMT-33"/>
      </g>
     </g>
    </g>
    <g id="xtick_7">
     <g id="line2d_7">
      <path d="M 530.127406 372.1675 
L 530.127406 24.6525 
" clip-path="url(#pe36516ad44)" style="fill: none; stroke: #cccccc; stroke-opacity: 0.3; stroke-width: 0.5; stroke-linecap: round"/>
     </g>
     <g id="text_7">
      <!-- 4 -->
      <g style="fill: #262626" transform="translate(526.790844 387.756875) scale(0.12 -0.12)">
       <defs>
        <path id="ArialMT-34" d="M 2069 0 
L 2069 1097 
L 81 1097 
L 81 1613 
L 2172 4581 
L 2631 4581 
L 2631 1613 
L 3250 1613 
L 3250 1097 
L 2631 1097 
L 2631 0 
L 2069 0 
z
M 2069 1613 
L 2069 3678 
L 634 1613 
L 2069 1613 
z
" transform="scale(0.015625)"/>
       </defs>
       <use xlink:href="#ArialMT-34"/>
      </g>
     </g>
    </g>
    <g id="xtick_8">
     <g id="line2d_8">
      <path d="M 607.978225 372.1675 
L 607.978225 24.6525 
" clip-path="url(#pe36516ad44)" style="fill: none; stroke: #cccccc; stroke-opacity: 0.3; stroke-width: 0.5; stroke-linecap: round"/>
     </g>
     <g id="text_8">
      <!-- 5 -->
      <g style="fill: #262626" transform="translate(604.641663 387.756875) scale(0.12 -0.12)">
       <defs>
        <path id="ArialMT-35" d="M 266 1200 
L 856 1250 
Q 922 819 1161 601 
Q 1400 384 1738 384 
Q 2144 384 2425 690 
Q 2706 997 2706 1503 
Q 2706 1984 2436 2262 
Q 2166 2541 1728 2541 
Q 1456 2541 1237 2417 
Q 1019 2294 894 2097 
L 366 2166 
L 809 4519 
L 3088 4519 
L 3088 3981 
L 1259 3981 
L 1013 2750 
Q 1425 3038 1878 3038 
Q 2478 3038 2890 2622 
Q 3303 2206 3303 1553 
Q 3303 931 2941 478 
Q 2500 -78 1738 -78 
Q 1113 -78 717 272 
Q 322 622 266 1200 
z
" transform="scale(0.015625)"/>
       </defs>
       <use xlink:href="#ArialMT-35"/>
      </g>
     </g>
    </g>
    <g id="xtick_9">
     <g id="line2d_9">
      <path d="M 685.829044 372.1675 
L 685.829044 24.6525 
" clip-path="url(#pe36516ad44)" style="fill: none; stroke: #cccccc; stroke-opacity: 0.3; stroke-width: 0.5; stroke-linecap: round"/>
     </g>
     <g id="text_9">
      <!-- 6 -->
      <g style="fill: #262626" transform="translate(682.492481 387.756875) scale(0.12 -0.12)">
       <defs>
        <path id="ArialMT-36" d="M 3184 3459 
L 2625 3416 
Q 2550 3747 2413 3897 
Q 2184 4138 1850 4138 
Q 1581 4138 1378 3988 
Q 1113 3794 959 3422 
Q 806 3050 800 2363 
Q 1003 2672 1297 2822 
Q 1591 2972 1913 2972 
Q 2475 2972 2870 2558 
Q 3266 2144 3266 1488 
Q 3266 1056 3080 686 
Q 2894 316 2569 119 
Q 2244 -78 1831 -78 
Q 1128 -78 684 439 
Q 241 956 241 2144 
Q 241 3472 731 4075 
Q 1159 4600 1884 4600 
Q 2425 4600 2770 4297 
Q 3116 3994 3184 3459 
z
M 888 1484 
Q 888 1194 1011 928 
Q 1134 663 1356 523 
Q 1578 384 1822 384 
Q 2178 384 2434 671 
Q 2691 959 2691 1453 
Q 2691 1928 2437 2201 
Q 2184 2475 1800 2475 
Q 1419 2475 1153 2201 
Q 888 1928 888 1484 
z
" transform="scale(0.015625)"/>
       </defs>
       <use xlink:href="#ArialMT-36"/>
      </g>
     </g>
    </g>
    <g id="text_10">
     <!-- Error (%) -->
     <g style="fill: #262626" transform="translate(352.515312 410.333438) scale(0.14 -0.14)">
      <defs>
       <path id="ArialMT-45" d="M 506 0 
L 506 4581 
L 3819 4581 
L 3819 4041 
L 1113 4041 
L 1113 2638 
L 3647 2638 
L 3647 2100 
L 1113 2100 
L 1113 541 
L 3925 541 
L 3925 0 
L 506 0 
z
" transform="scale(0.015625)"/>
       <path id="ArialMT-72" d="M 416 0 
L 416 3319 
L 922 3319 
L 922 2816 
Q 1116 3169 1280 3281 
Q 1444 3394 1641 3394 
Q 1925 3394 2219 3213 
L 2025 2691 
Q 1819 2813 1613 2813 
Q 1428 2813 1281 2702 
Q 1134 2591 1072 2394 
Q 978 2094 978 1738 
L 978 0 
L 416 0 
z
" transform="scale(0.015625)"/>
       <path id="ArialMT-6f" d="M 213 1659 
Q 213 2581 725 3025 
Q 1153 3394 1769 3394 
Q 2453 3394 2887 2945 
Q 3322 2497 3322 1706 
Q 3322 1066 3130 698 
Q 2938 331 2570 128 
Q 2203 -75 1769 -75 
Q 1072 -75 642 372 
Q 213 819 213 1659 
z
M 791 1659 
Q 791 1022 1069 705 
Q 1347 388 1769 388 
Q 2188 388 2466 706 
Q 2744 1025 2744 1678 
Q 2744 2294 2464 2611 
Q 2184 2928 1769 2928 
Q 1347 2928 1069 2612 
Q 791 2297 791 1659 
z
" transform="scale(0.015625)"/>
       <path id="ArialMT-20" transform="scale(0.015625)"/>
       <path id="ArialMT-28" d="M 1497 -1347 
Q 1031 -759 709 28 
Q 388 816 388 1659 
Q 388 2403 628 3084 
Q 909 3875 1497 4659 
L 1900 4659 
Q 1522 4009 1400 3731 
Q 1209 3300 1100 2831 
Q 966 2247 966 1656 
Q 966 153 1900 -1347 
L 1497 -1347 
z
" transform="scale(0.015625)"/>
       <path id="ArialMT-25" d="M 372 3481 
Q 372 3972 619 4315 
Q 866 4659 1334 4659 
Q 1766 4659 2048 4351 
Q 2331 4044 2331 3447 
Q 2331 2866 2045 2552 
Q 1759 2238 1341 2238 
Q 925 2238 648 2547 
Q 372 2856 372 3481 
z
M 1350 4272 
Q 1141 4272 1002 4090 
Q 863 3909 863 3425 
Q 863 2984 1003 2804 
Q 1144 2625 1350 2625 
Q 1563 2625 1702 2806 
Q 1841 2988 1841 3469 
Q 1841 3913 1700 4092 
Q 1559 4272 1350 4272 
z
M 1353 -169 
L 3859 4659 
L 4316 4659 
L 1819 -169 
L 1353 -169 
z
M 3334 1075 
Q 3334 1569 3581 1911 
Q 3828 2253 4300 2253 
Q 4731 2253 5014 1945 
Q 5297 1638 5297 1041 
Q 5297 459 5011 145 
Q 4725 -169 4303 -169 
Q 3888 -169 3611 142 
Q 3334 453 3334 1075 
z
M 4316 1866 
Q 4103 1866 3964 1684 
Q 3825 1503 3825 1019 
Q 3825 581 3965 400 
Q 4106 219 4313 219 
Q 4528 219 4667 400 
Q 4806 581 4806 1063 
Q 4806 1506 4665 1686 
Q 4525 1866 4316 1866 
z
" transform="scale(0.015625)"/>
       <path id="ArialMT-29" d="M 791 -1347 
L 388 -1347 
Q 1322 153 1322 1656 
Q 1322 2244 1188 2822 
Q 1081 3291 891 3722 
Q 769 4003 388 4659 
L 791 4659 
Q 1378 3875 1659 3084 
Q 1900 2403 1900 1659 
Q 1900 816 1576 28 
Q 1253 -759 791 -1347 
z
" transform="scale(0.015625)"/>
      </defs>
      <use xlink:href="#ArialMT-45"/>
      <use xlink:href="#ArialMT-72" x="66.699219"/>
      <use xlink:href="#ArialMT-72" x="100"/>
      <use xlink:href="#ArialMT-6f" x="133.300781"/>
      <use xlink:href="#ArialMT-72" x="188.916016"/>
      <use xlink:href="#ArialMT-20" x="222.216797"/>
      <use xlink:href="#ArialMT-28" x="250"/>
      <use xlink:href="#ArialMT-25" x="283.300781"/>
      <use xlink:href="#ArialMT-29" x="372.216797"/>
     </g>
    </g>
   </g>
   <g id="matplotlib.axis_2">
    <g id="ytick_1">
     <g id="line2d_10">
      <path d="M 60.520625 372.1675 
L 701.28 372.1675 
" clip-path="url(#pe36516ad44)" style="fill: none; stroke: #cccccc; stroke-opacity: 0.3; stroke-width: 0.5; stroke-linecap: round"/>
     </g>
     <g id="text_11">
      <!-- 0.00 -->
      <g style="fill: #262626" transform="translate(30.1675 376.462188) scale(0.12 -0.12)">
       <defs>
        <path id="ArialMT-2e" d="M 581 0 
L 581 641 
L 1222 641 
L 1222 0 
L 581 0 
z
" transform="scale(0.015625)"/>
       </defs>
       <use xlink:href="#ArialMT-30"/>
       <use xlink:href="#ArialMT-2e" x="55.615234"/>
       <use xlink:href="#ArialMT-30" x="83.398438"/>
       <use xlink:href="#ArialMT-30" x="139.013672"/>
      </g>
     </g>
    </g>
    <g id="ytick_2">
     <g id="line2d_11">
      <path d="M 60.520625 327.249573 
L 701.28 327.249573 
" clip-path="url(#pe36516ad44)" style="fill: none; stroke: #cccccc; stroke-opacity: 0.3; stroke-width: 0.5; stroke-linecap: round"/>
     </g>
     <g id="text_12">
      <!-- 0.05 -->
      <g style="fill: #262626" transform="translate(30.1675 331.544261) scale(0.12 -0.12)">
       <use xlink:href="#ArialMT-30"/>
       <use xlink:href="#ArialMT-2e" x="55.615234"/>
       <use xlink:href="#ArialMT-30" x="83.398438"/>
       <use xlink:href="#ArialMT-35" x="139.013672"/>
      </g>
     </g>
    </g>
    <g id="ytick_3">
     <g id="line2d_12">
      <path d="M 60.520625 282.331647 
L 701.28 282.331647 
" clip-path="url(#pe36516ad44)" style="fill: none; stroke: #cccccc; stroke-opacity: 0.3; stroke-width: 0.5; stroke-linecap: round"/>
     </g>
     <g id="text_13">
      <!-- 0.10 -->
      <g style="fill: #262626" transform="translate(30.1675 286.626334) scale(0.12 -0.12)">
       <use xlink:href="#ArialMT-30"/>
       <use xlink:href="#ArialMT-2e" x="55.615234"/>
       <use xlink:href="#ArialMT-31" x="83.398438"/>
       <use xlink:href="#ArialMT-30" x="139.013672"/>
      </g>
     </g>
    </g>
    <g id="ytick_4">
     <g id="line2d_13">
      <path d="M 60.520625 237.41372 
L 701.28 237.41372 
" clip-path="url(#pe36516ad44)" style="fill: none; stroke: #cccccc; stroke-opacity: 0.3; stroke-width: 0.5; stroke-linecap: round"/>
     </g>
     <g id="text_14">
      <!-- 0.15 -->
      <g style="fill: #262626" transform="translate(30.1675 241.708407) scale(0.12 -0.12)">
       <use xlink:href="#ArialMT-30"/>
       <use xlink:href="#ArialMT-2e" x="55.615234"/>
       <use xlink:href="#ArialMT-31" x="83.398438"/>
       <use xlink:href="#ArialMT-35" x="139.013672"/>
      </g>
     </g>
    </g>
    <g id="ytick_5">
     <g id="line2d_14">
      <path d="M 60.520625 192.495793 
L 701.28 192.495793 
" clip-path="url(#pe36516ad44)" style="fill: none; stroke: #cccccc; stroke-opacity: 0.3; stroke-width: 0.5; stroke-linecap: round"/>
     </g>
     <g id="text_15">
      <!-- 0.20 -->
      <g style="fill: #262626" transform="translate(30.1675 196.790481) scale(0.12 -0.12)">
       <use xlink:href="#ArialMT-30"/>
       <use xlink:href="#ArialMT-2e" x="55.615234"/>
       <use xlink:href="#ArialMT-32" x="83.398438"/>
       <use xlink:href="#ArialMT-30" x="139.013672"/>
      </g>
     </g>
    </g>
    <g id="ytick_6">
     <g id="line2d_15">
      <path d="M 60.520625 147.577866 
L 701.28 147.577866 
" clip-path="url(#pe36516ad44)" style="fill: none; stroke: #cccccc; stroke-opacity: 0.3; stroke-width: 0.5; stroke-linecap: round"/>
     </g>
     <g id="text_16">
      <!-- 0.25 -->
      <g style="fill: #262626" transform="translate(30.1675 151.872554) scale(0.12 -0.12)">
       <use xlink:href="#ArialMT-30"/>
       <use xlink:href="#ArialMT-2e" x="55.615234"/>
       <use xlink:href="#ArialMT-32" x="83.398438"/>
       <use xlink:href="#ArialMT-35" x="139.013672"/>
      </g>
     </g>
    </g>
    <g id="ytick_7">
     <g id="line2d_16">
      <path d="M 60.520625 102.65994 
L 701.28 102.65994 
" clip-path="url(#pe36516ad44)" style="fill: none; stroke: #cccccc; stroke-opacity: 0.3; stroke-width: 0.5; stroke-linecap: round"/>
     </g>
     <g id="text_17">
      <!-- 0.30 -->
      <g style="fill: #262626" transform="translate(30.1675 106.954627) scale(0.12 -0.12)">
       <use xlink:href="#ArialMT-30"/>
       <use xlink:href="#ArialMT-2e" x="55.615234"/>
       <use xlink:href="#ArialMT-33" x="83.398438"/>
       <use xlink:href="#ArialMT-30" x="139.013672"/>
      </g>
     </g>
    </g>
    <g id="ytick_8">
     <g id="line2d_17">
      <path d="M 60.520625 57.742013 
L 701.28 57.742013 
" clip-path="url(#pe36516ad44)" style="fill: none; stroke: #cccccc; stroke-opacity: 0.3; stroke-width: 0.5; stroke-linecap: round"/>
     </g>
     <g id="text_18">
      <!-- 0.35 -->
      <g style="fill: #262626" transform="translate(30.1675 62.0367) scale(0.12 -0.12)">
       <use xlink:href="#ArialMT-30"/>
       <use xlink:href="#ArialMT-2e" x="55.615234"/>
       <use xlink:href="#ArialMT-33" x="83.398438"/>
       <use xlink:href="#ArialMT-35" x="139.013672"/>
      </g>
     </g>
    </g>
    <g id="text_19">
     <!-- Density -->
     <g style="fill: #262626" transform="translate(17.220938 221.750625) rotate(-90) scale(0.14 -0.14)">
      <defs>
       <path id="ArialMT-44" d="M 494 0 
L 494 4581 
L 2072 4581 
Q 2606 4581 2888 4516 
Q 3281 4425 3559 4188 
Q 3922 3881 4101 3404 
Q 4281 2928 4281 2316 
Q 4281 1794 4159 1391 
Q 4038 988 3847 723 
Q 3656 459 3429 307 
Q 3203 156 2883 78 
Q 2563 0 2147 0 
L 494 0 
z
M 1100 541 
L 2078 541 
Q 2531 541 2789 625 
Q 3047 709 3200 863 
Q 3416 1078 3536 1442 
Q 3656 1806 3656 2325 
Q 3656 3044 3420 3430 
Q 3184 3816 2847 3947 
Q 2603 4041 2063 4041 
L 1100 4041 
L 1100 541 
z
" transform="scale(0.015625)"/>
       <path id="ArialMT-65" d="M 2694 1069 
L 3275 997 
Q 3138 488 2766 206 
Q 2394 -75 1816 -75 
Q 1088 -75 661 373 
Q 234 822 234 1631 
Q 234 2469 665 2931 
Q 1097 3394 1784 3394 
Q 2450 3394 2872 2941 
Q 3294 2488 3294 1666 
Q 3294 1616 3291 1516 
L 816 1516 
Q 847 969 1125 678 
Q 1403 388 1819 388 
Q 2128 388 2347 550 
Q 2566 713 2694 1069 
z
M 847 1978 
L 2700 1978 
Q 2663 2397 2488 2606 
Q 2219 2931 1791 2931 
Q 1403 2931 1139 2672 
Q 875 2413 847 1978 
z
" transform="scale(0.015625)"/>
       <path id="ArialMT-6e" d="M 422 0 
L 422 3319 
L 928 3319 
L 928 2847 
Q 1294 3394 1984 3394 
Q 2284 3394 2536 3286 
Q 2788 3178 2913 3003 
Q 3038 2828 3088 2588 
Q 3119 2431 3119 2041 
L 3119 0 
L 2556 0 
L 2556 2019 
Q 2556 2363 2490 2533 
Q 2425 2703 2258 2804 
Q 2091 2906 1866 2906 
Q 1506 2906 1245 2678 
Q 984 2450 984 1813 
L 984 0 
L 422 0 
z
" transform="scale(0.015625)"/>
       <path id="ArialMT-73" d="M 197 991 
L 753 1078 
Q 800 744 1014 566 
Q 1228 388 1613 388 
Q 2000 388 2187 545 
Q 2375 703 2375 916 
Q 2375 1106 2209 1216 
Q 2094 1291 1634 1406 
Q 1016 1563 777 1677 
Q 538 1791 414 1992 
Q 291 2194 291 2438 
Q 291 2659 392 2848 
Q 494 3038 669 3163 
Q 800 3259 1026 3326 
Q 1253 3394 1513 3394 
Q 1903 3394 2198 3281 
Q 2494 3169 2634 2976 
Q 2775 2784 2828 2463 
L 2278 2388 
Q 2241 2644 2061 2787 
Q 1881 2931 1553 2931 
Q 1166 2931 1000 2803 
Q 834 2675 834 2503 
Q 834 2394 903 2306 
Q 972 2216 1119 2156 
Q 1203 2125 1616 2013 
Q 2213 1853 2448 1751 
Q 2684 1650 2818 1456 
Q 2953 1263 2953 975 
Q 2953 694 2789 445 
Q 2625 197 2315 61 
Q 2006 -75 1616 -75 
Q 969 -75 630 194 
Q 291 463 197 991 
z
" transform="scale(0.015625)"/>
       <path id="ArialMT-69" d="M 425 3934 
L 425 4581 
L 988 4581 
L 988 3934 
L 425 3934 
z
M 425 0 
L 425 3319 
L 988 3319 
L 988 0 
L 425 0 
z
" transform="scale(0.015625)"/>
       <path id="ArialMT-74" d="M 1650 503 
L 1731 6 
Q 1494 -44 1306 -44 
Q 1000 -44 831 53 
Q 663 150 594 308 
Q 525 466 525 972 
L 525 2881 
L 113 2881 
L 113 3319 
L 525 3319 
L 525 4141 
L 1084 4478 
L 1084 3319 
L 1650 3319 
L 1650 2881 
L 1084 2881 
L 1084 941 
Q 1084 700 1114 631 
Q 1144 563 1211 522 
Q 1278 481 1403 481 
Q 1497 481 1650 503 
z
" transform="scale(0.015625)"/>
       <path id="ArialMT-79" d="M 397 -1278 
L 334 -750 
Q 519 -800 656 -800 
Q 844 -800 956 -737 
Q 1069 -675 1141 -563 
Q 1194 -478 1313 -144 
Q 1328 -97 1363 -6 
L 103 3319 
L 709 3319 
L 1400 1397 
Q 1534 1031 1641 628 
Q 1738 1016 1872 1384 
L 2581 3319 
L 3144 3319 
L 1881 -56 
Q 1678 -603 1566 -809 
Q 1416 -1088 1222 -1217 
Q 1028 -1347 759 -1347 
Q 597 -1347 397 -1278 
z
" transform="scale(0.015625)"/>
      </defs>
      <use xlink:href="#ArialMT-44"/>
      <use xlink:href="#ArialMT-65" x="72.216797"/>
      <use xlink:href="#ArialMT-6e" x="127.832031"/>
      <use xlink:href="#ArialMT-73" x="183.447266"/>
      <use xlink:href="#ArialMT-69" x="233.447266"/>
      <use xlink:href="#ArialMT-74" x="255.664062"/>
      <use xlink:href="#ArialMT-79" x="283.447266"/>
     </g>
    </g>
   </g>
   <g id="PolyCollection_1">
    <defs>
     <path id="mda786fba52" d="M 118.819922 -48.898381 
L 118.819922 -48.3125 
L 121.600498 -48.3125 
L 124.381074 -48.3125 
L 127.16165 -48.3125 
L 129.942226 -48.3125 
L 132.722803 -48.3125 
L 135.503379 -48.3125 
L 138.283955 -48.3125 
L 141.064531 -48.3125 
L 143.845107 -48.3125 
L 146.625683 -48.3125 
L 149.406259 -48.3125 
L 152.186836 -48.3125 
L 154.967412 -48.3125 
L 157.747988 -48.3125 
L 160.528564 -48.3125 
L 163.30914 -48.3125 
L 166.089716 -48.3125 
L 168.870292 -48.3125 
L 171.650869 -48.3125 
L 174.431445 -48.3125 
L 177.212021 -48.3125 
L 179.992597 -48.3125 
L 182.773173 -48.3125 
L 185.553749 -48.3125 
L 188.334325 -48.3125 
L 191.114902 -48.3125 
L 193.895478 -48.3125 
L 196.676054 -48.3125 
L 199.45663 -48.3125 
L 202.237206 -48.3125 
L 205.017782 -48.3125 
L 207.798358 -48.3125 
L 210.578935 -48.3125 
L 213.359511 -48.3125 
L 216.140087 -48.3125 
L 218.920663 -48.3125 
L 221.701239 -48.3125 
L 224.481815 -48.3125 
L 227.262391 -48.3125 
L 230.042968 -48.3125 
L 232.823544 -48.3125 
L 235.60412 -48.3125 
L 238.384696 -48.3125 
L 241.165272 -48.3125 
L 243.945848 -48.3125 
L 246.726424 -48.3125 
L 249.507001 -48.3125 
L 252.287577 -48.3125 
L 255.068153 -48.3125 
L 257.848729 -48.3125 
L 260.629305 -48.3125 
L 263.409881 -48.3125 
L 266.190457 -48.3125 
L 268.971034 -48.3125 
L 271.75161 -48.3125 
L 274.532186 -48.3125 
L 277.312762 -48.3125 
L 280.093338 -48.3125 
L 282.873914 -48.3125 
L 285.65449 -48.3125 
L 288.435066 -48.3125 
L 291.215643 -48.3125 
L 293.996219 -48.3125 
L 296.776795 -48.3125 
L 299.557371 -48.3125 
L 302.337947 -48.3125 
L 305.118523 -48.3125 
L 307.899099 -48.3125 
L 310.679676 -48.3125 
L 313.460252 -48.3125 
L 316.240828 -48.3125 
L 319.021404 -48.3125 
L 321.80198 -48.3125 
L 324.582556 -48.3125 
L 327.363132 -48.3125 
L 330.143709 -48.3125 
L 332.924285 -48.3125 
L 335.704861 -48.3125 
L 338.485437 -48.3125 
L 341.266013 -48.3125 
L 344.046589 -48.3125 
L 346.827165 -48.3125 
L 349.607742 -48.3125 
L 352.388318 -48.3125 
L 355.168894 -48.3125 
L 357.94947 -48.3125 
L 360.730046 -48.3125 
L 363.510622 -48.3125 
L 366.291198 -48.3125 
L 369.071775 -48.3125 
L 371.852351 -48.3125 
L 374.632927 -48.3125 
L 377.413503 -48.3125 
L 380.194079 -48.3125 
L 382.974655 -48.3125 
L 385.755231 -48.3125 
L 388.535808 -48.3125 
L 391.316384 -48.3125 
L 394.09696 -48.3125 
L 396.877536 -48.3125 
L 399.658112 -48.3125 
L 402.438688 -48.3125 
L 405.219264 -48.3125 
L 407.999841 -48.3125 
L 410.780417 -48.3125 
L 413.560993 -48.3125 
L 416.341569 -48.3125 
L 419.122145 -48.3125 
L 421.902721 -48.3125 
L 424.683297 -48.3125 
L 427.463874 -48.3125 
L 430.24445 -48.3125 
L 433.025026 -48.3125 
L 435.805602 -48.3125 
L 438.586178 -48.3125 
L 441.366754 -48.3125 
L 444.14733 -48.3125 
L 446.927906 -48.3125 
L 449.708483 -48.3125 
L 452.489059 -48.3125 
L 455.269635 -48.3125 
L 458.050211 -48.3125 
L 460.830787 -48.3125 
L 463.611363 -48.3125 
L 466.391939 -48.3125 
L 469.172516 -48.3125 
L 471.953092 -48.3125 
L 474.733668 -48.3125 
L 477.514244 -48.3125 
L 480.29482 -48.3125 
L 483.075396 -48.3125 
L 485.855972 -48.3125 
L 488.636549 -48.3125 
L 491.417125 -48.3125 
L 494.197701 -48.3125 
L 496.978277 -48.3125 
L 499.758853 -48.3125 
L 502.539429 -48.3125 
L 505.320005 -48.3125 
L 508.100582 -48.3125 
L 510.881158 -48.3125 
L 513.661734 -48.3125 
L 516.44231 -48.3125 
L 519.222886 -48.3125 
L 522.003462 -48.3125 
L 524.784038 -48.3125 
L 527.564615 -48.3125 
L 530.345191 -48.3125 
L 533.125767 -48.3125 
L 535.906343 -48.3125 
L 538.686919 -48.3125 
L 541.467495 -48.3125 
L 544.248071 -48.3125 
L 547.028648 -48.3125 
L 549.809224 -48.3125 
L 552.5898 -48.3125 
L 555.370376 -48.3125 
L 558.150952 -48.3125 
L 560.931528 -48.3125 
L 563.712104 -48.3125 
L 566.492681 -48.3125 
L 569.273257 -48.3125 
L 572.053833 -48.3125 
L 574.834409 -48.3125 
L 577.614985 -48.3125 
L 580.395561 -48.3125 
L 583.176137 -48.3125 
L 585.956714 -48.3125 
L 588.73729 -48.3125 
L 591.517866 -48.3125 
L 594.298442 -48.3125 
L 597.079018 -48.3125 
L 599.859594 -48.3125 
L 602.64017 -48.3125 
L 605.420746 -48.3125 
L 608.201323 -48.3125 
L 610.981899 -48.3125 
L 613.762475 -48.3125 
L 616.543051 -48.3125 
L 619.323627 -48.3125 
L 622.104203 -48.3125 
L 624.884779 -48.3125 
L 627.665356 -48.3125 
L 630.445932 -48.3125 
L 633.226508 -48.3125 
L 636.007084 -48.3125 
L 638.78766 -48.3125 
L 641.568236 -48.3125 
L 644.348812 -48.3125 
L 647.129389 -48.3125 
L 649.909965 -48.3125 
L 652.690541 -48.3125 
L 655.471117 -48.3125 
L 658.251693 -48.3125 
L 661.032269 -48.3125 
L 663.812845 -48.3125 
L 666.593422 -48.3125 
L 669.373998 -48.3125 
L 672.154574 -48.3125 
L 672.154574 -48.631772 
L 672.154574 -48.631772 
L 669.373998 -48.703432 
L 666.593422 -48.78929 
L 663.812845 -48.891721 
L 661.032269 -49.013402 
L 658.251693 -49.157335 
L 655.471117 -49.326862 
L 652.690541 -49.525684 
L 649.909965 -49.757873 
L 647.129389 -50.027874 
L 644.348812 -50.340512 
L 641.568236 -50.700987 
L 638.78766 -51.114856 
L 636.007084 -51.588021 
L 633.226508 -52.126697 
L 630.445932 -52.737373 
L 627.665356 -53.426767 
L 624.884779 -54.20177 
L 622.104203 -55.069379 
L 619.323627 -56.036622 
L 616.543051 -57.110478 
L 613.762475 -58.297785 
L 610.981899 -59.605148 
L 608.201323 -61.038834 
L 605.420746 -62.604677 
L 602.64017 -64.307973 
L 599.859594 -66.153383 
L 597.079018 -68.144836 
L 594.298442 -70.285441 
L 591.517866 -72.57741 
L 588.73729 -75.02199 
L 585.956714 -77.619406 
L 583.176137 -80.368821 
L 580.395561 -83.268313 
L 577.614985 -86.314866 
L 574.834409 -89.504375 
L 572.053833 -92.831675 
L 569.273257 -96.290579 
L 566.492681 -99.873931 
L 563.712104 -103.573675 
L 560.931528 -107.380932 
L 558.150952 -111.286086 
L 555.370376 -115.278878 
L 552.5898 -119.3485 
L 549.809224 -123.483693 
L 547.028648 -127.672843 
L 544.248071 -131.904074 
L 541.467495 -136.165337 
L 538.686919 -140.444493 
L 535.906343 -144.729387 
L 533.125767 -149.007919 
L 530.345191 -153.268109 
L 527.564615 -157.498149 
L 524.784038 -161.68646 
L 522.003462 -165.821741 
L 519.222886 -169.893016 
L 516.44231 -173.88968 
L 513.661734 -177.801553 
L 510.881158 -181.618928 
L 508.100582 -185.33263 
L 505.320005 -188.934078 
L 502.539429 -192.41535 
L 499.758853 -195.769255 
L 496.978277 -198.989407 
L 494.197701 -202.070308 
L 491.417125 -205.007419 
L 488.636549 -207.797245 
L 485.855972 -210.437403 
L 483.075396 -212.926693 
L 480.29482 -215.265151 
L 477.514244 -217.4541 
L 474.733668 -219.496178 
L 471.953092 -221.395352 
L 469.172516 -223.156916 
L 466.391939 -224.787471 
L 463.611363 -226.294877 
L 460.830787 -227.688197 
L 458.050211 -228.977612 
L 455.269635 -230.174327 
L 452.489059 -231.290452 
L 449.708483 -232.338877 
L 446.927906 -233.333133 
L 444.14733 -234.287243 
L 441.366754 -235.215569 
L 438.586178 -236.13265 
L 435.805602 -237.053051 
L 433.025026 -237.991197 
L 430.24445 -238.961225 
L 427.463874 -239.976829 
L 424.683297 -241.051119 
L 421.902721 -242.196482 
L 419.122145 -243.424452 
L 416.341569 -244.74559 
L 413.560993 -246.169368 
L 410.780417 -247.704062 
L 407.999841 -249.356661 
L 405.219264 -251.132775 
L 402.438688 -253.036557 
L 399.658112 -255.070637 
L 396.877536 -257.236059 
L 394.09696 -259.532242 
L 391.316384 -261.956937 
L 388.535808 -264.506213 
L 385.755231 -267.174446 
L 382.974655 -269.954329 
L 380.194079 -272.836892 
L 377.413503 -275.811548 
L 374.632927 -278.866142 
L 371.852351 -281.987029 
L 369.071775 -285.15916 
L 366.291198 -288.366182 
L 363.510622 -291.590556 
L 360.730046 -294.813682 
L 357.94947 -298.016035 
L 355.168894 -301.177305 
L 352.388318 -304.276548 
L 349.607742 -307.292333 
L 346.827165 -310.20289 
L 344.046589 -312.986258 
L 341.266013 -315.620428 
L 338.485437 -318.083478 
L 335.704861 -320.353711 
L 332.924285 -322.409774 
L 330.143709 -324.230785 
L 327.363132 -325.79644 
L 324.582556 -327.087129 
L 321.80198 -328.084044 
L 319.021404 -328.769282 
L 316.240828 -329.125957 
L 313.460252 -329.138308 
L 310.679676 -328.791815 
L 307.899099 -328.073316 
L 305.118523 -326.971135 
L 302.337947 -325.475215 
L 299.557371 -323.577249 
L 296.776795 -321.270827 
L 293.996219 -318.55158 
L 291.215643 -315.417316 
L 288.435066 -311.868166 
L 285.65449 -307.90671 
L 282.873914 -303.538095 
L 280.093338 -298.770136 
L 277.312762 -293.613393 
L 274.532186 -288.081215 
L 271.75161 -282.189766 
L 268.971034 -275.957994 
L 266.190457 -269.407582 
L 263.409881 -262.562836 
L 260.629305 -255.450545 
L 257.848729 -248.099784 
L 255.068153 -240.541686 
L 252.287577 -232.809159 
L 249.507001 -224.936577 
L 246.726424 -216.959433 
L 243.945848 -208.913962 
L 241.165272 -200.836752 
L 238.384696 -192.764332 
L 235.60412 -184.732766 
L 232.823544 -176.777243 
L 230.042968 -168.931685 
L 227.262391 -161.228371 
L 224.481815 -153.697594 
L 221.701239 -146.36735 
L 218.920663 -139.263071 
L 216.140087 -132.407402 
L 213.359511 -125.820029 
L 210.578935 -119.517562 
L 207.798358 -113.513462 
L 205.017782 -107.818036 
L 202.237206 -102.438467 
L 199.45663 -97.378904 
L 196.676054 -92.640586 
L 193.895478 -88.222015 
L 191.114902 -84.119155 
L 188.334325 -80.325659 
L 185.553749 -76.833122 
L 182.773173 -73.631345 
L 179.992597 -70.708601 
L 177.212021 -68.051916 
L 174.431445 -65.647335 
L 171.650869 -63.480185 
L 168.870292 -61.53532 
L 166.089716 -59.797356 
L 163.30914 -58.250878 
L 160.528564 -56.880634 
L 157.747988 -55.671695 
L 154.967412 -54.609601 
L 152.186836 -53.680475 
L 149.406259 -52.87112 
L 146.625683 -52.169087 
L 143.845107 -51.562729 
L 141.064531 -51.041228 
L 138.283955 -50.59461 
L 135.503379 -50.213744 
L 132.722803 -49.890326 
L 129.942226 -49.616855 
L 127.16165 -49.386596 
L 124.381074 -49.193544 
L 121.600498 -49.03237 
L 118.819922 -48.898381 
z
" style="stroke: #2ecc71"/>
    </defs>
    <g clip-path="url(#pe36516ad44)">
     <use xlink:href="#mda786fba52" x="0" y="420.48" style="fill: #2ecc71; fill-opacity: 0.3; stroke: #2ecc71"/>
    </g>
   </g>
   <g id="PolyCollection_2">
    <defs>
     <path id="m89ffdd4dab" d="M 89.646051 -50.052739 
L 89.646051 -48.3125 
L 91.769261 -48.3125 
L 93.892471 -48.3125 
L 96.015681 -48.3125 
L 98.138891 -48.3125 
L 100.262101 -48.3125 
L 102.385311 -48.3125 
L 104.508522 -48.3125 
L 106.631732 -48.3125 
L 108.754942 -48.3125 
L 110.878152 -48.3125 
L 113.001362 -48.3125 
L 115.124572 -48.3125 
L 117.247782 -48.3125 
L 119.370992 -48.3125 
L 121.494202 -48.3125 
L 123.617412 -48.3125 
L 125.740622 -48.3125 
L 127.863832 -48.3125 
L 129.987042 -48.3125 
L 132.110252 -48.3125 
L 134.233462 -48.3125 
L 136.356672 -48.3125 
L 138.479882 -48.3125 
L 140.603093 -48.3125 
L 142.726303 -48.3125 
L 144.849513 -48.3125 
L 146.972723 -48.3125 
L 149.095933 -48.3125 
L 151.219143 -48.3125 
L 153.342353 -48.3125 
L 155.465563 -48.3125 
L 157.588773 -48.3125 
L 159.711983 -48.3125 
L 161.835193 -48.3125 
L 163.958403 -48.3125 
L 166.081613 -48.3125 
L 168.204823 -48.3125 
L 170.328033 -48.3125 
L 172.451243 -48.3125 
L 174.574453 -48.3125 
L 176.697664 -48.3125 
L 178.820874 -48.3125 
L 180.944084 -48.3125 
L 183.067294 -48.3125 
L 185.190504 -48.3125 
L 187.313714 -48.3125 
L 189.436924 -48.3125 
L 191.560134 -48.3125 
L 193.683344 -48.3125 
L 195.806554 -48.3125 
L 197.929764 -48.3125 
L 200.052974 -48.3125 
L 202.176184 -48.3125 
L 204.299394 -48.3125 
L 206.422604 -48.3125 
L 208.545814 -48.3125 
L 210.669024 -48.3125 
L 212.792235 -48.3125 
L 214.915445 -48.3125 
L 217.038655 -48.3125 
L 219.161865 -48.3125 
L 221.285075 -48.3125 
L 223.408285 -48.3125 
L 225.531495 -48.3125 
L 227.654705 -48.3125 
L 229.777915 -48.3125 
L 231.901125 -48.3125 
L 234.024335 -48.3125 
L 236.147545 -48.3125 
L 238.270755 -48.3125 
L 240.393965 -48.3125 
L 242.517175 -48.3125 
L 244.640385 -48.3125 
L 246.763595 -48.3125 
L 248.886806 -48.3125 
L 251.010016 -48.3125 
L 253.133226 -48.3125 
L 255.256436 -48.3125 
L 257.379646 -48.3125 
L 259.502856 -48.3125 
L 261.626066 -48.3125 
L 263.749276 -48.3125 
L 265.872486 -48.3125 
L 267.995696 -48.3125 
L 270.118906 -48.3125 
L 272.242116 -48.3125 
L 274.365326 -48.3125 
L 276.488536 -48.3125 
L 278.611746 -48.3125 
L 280.734956 -48.3125 
L 282.858166 -48.3125 
L 284.981377 -48.3125 
L 287.104587 -48.3125 
L 289.227797 -48.3125 
L 291.351007 -48.3125 
L 293.474217 -48.3125 
L 295.597427 -48.3125 
L 297.720637 -48.3125 
L 299.843847 -48.3125 
L 301.967057 -48.3125 
L 304.090267 -48.3125 
L 306.213477 -48.3125 
L 308.336687 -48.3125 
L 310.459897 -48.3125 
L 312.583107 -48.3125 
L 314.706317 -48.3125 
L 316.829527 -48.3125 
L 318.952737 -48.3125 
L 321.075948 -48.3125 
L 323.199158 -48.3125 
L 325.322368 -48.3125 
L 327.445578 -48.3125 
L 329.568788 -48.3125 
L 331.691998 -48.3125 
L 333.815208 -48.3125 
L 335.938418 -48.3125 
L 338.061628 -48.3125 
L 340.184838 -48.3125 
L 342.308048 -48.3125 
L 344.431258 -48.3125 
L 346.554468 -48.3125 
L 348.677678 -48.3125 
L 350.800888 -48.3125 
L 352.924098 -48.3125 
L 355.047308 -48.3125 
L 357.170519 -48.3125 
L 359.293729 -48.3125 
L 361.416939 -48.3125 
L 363.540149 -48.3125 
L 365.663359 -48.3125 
L 367.786569 -48.3125 
L 369.909779 -48.3125 
L 372.032989 -48.3125 
L 374.156199 -48.3125 
L 376.279409 -48.3125 
L 378.402619 -48.3125 
L 380.525829 -48.3125 
L 382.649039 -48.3125 
L 384.772249 -48.3125 
L 386.895459 -48.3125 
L 389.018669 -48.3125 
L 391.141879 -48.3125 
L 393.26509 -48.3125 
L 395.3883 -48.3125 
L 397.51151 -48.3125 
L 399.63472 -48.3125 
L 401.75793 -48.3125 
L 403.88114 -48.3125 
L 406.00435 -48.3125 
L 408.12756 -48.3125 
L 410.25077 -48.3125 
L 412.37398 -48.3125 
L 414.49719 -48.3125 
L 416.6204 -48.3125 
L 418.74361 -48.3125 
L 420.86682 -48.3125 
L 422.99003 -48.3125 
L 425.11324 -48.3125 
L 427.23645 -48.3125 
L 429.359661 -48.3125 
L 431.482871 -48.3125 
L 433.606081 -48.3125 
L 435.729291 -48.3125 
L 437.852501 -48.3125 
L 439.975711 -48.3125 
L 442.098921 -48.3125 
L 444.222131 -48.3125 
L 446.345341 -48.3125 
L 448.468551 -48.3125 
L 450.591761 -48.3125 
L 452.714971 -48.3125 
L 454.838181 -48.3125 
L 456.961391 -48.3125 
L 459.084601 -48.3125 
L 461.207811 -48.3125 
L 463.331021 -48.3125 
L 465.454232 -48.3125 
L 467.577442 -48.3125 
L 469.700652 -48.3125 
L 471.823862 -48.3125 
L 473.947072 -48.3125 
L 476.070282 -48.3125 
L 478.193492 -48.3125 
L 480.316702 -48.3125 
L 482.439912 -48.3125 
L 484.563122 -48.3125 
L 486.686332 -48.3125 
L 488.809542 -48.3125 
L 490.932752 -48.3125 
L 493.055962 -48.3125 
L 495.179172 -48.3125 
L 497.302382 -48.3125 
L 499.425592 -48.3125 
L 501.548803 -48.3125 
L 503.672013 -48.3125 
L 505.795223 -48.3125 
L 507.918433 -48.3125 
L 510.041643 -48.3125 
L 512.164853 -48.3125 
L 512.164853 -50.184127 
L 512.164853 -50.184127 
L 510.041643 -50.456688 
L 507.918433 -50.764271 
L 505.795223 -51.110651 
L 503.672013 -51.499904 
L 501.548803 -51.936421 
L 499.425592 -52.424912 
L 497.302382 -52.970414 
L 495.179172 -53.578297 
L 493.055962 -54.254263 
L 490.932752 -55.004345 
L 488.809542 -55.834901 
L 486.686332 -56.75261 
L 484.563122 -57.764452 
L 482.439912 -58.877696 
L 480.316702 -60.099876 
L 478.193492 -61.438763 
L 476.070282 -62.902335 
L 473.947072 -64.498739 
L 471.823862 -66.236244 
L 469.700652 -68.123197 
L 467.577442 -70.167963 
L 465.454232 -72.378869 
L 463.331021 -74.764133 
L 461.207811 -77.331798 
L 459.084601 -80.089651 
L 456.961391 -83.045145 
L 454.838181 -86.205311 
L 452.714971 -89.576673 
L 450.591761 -93.165155 
L 448.468551 -96.975988 
L 446.345341 -101.013619 
L 444.222131 -105.281614 
L 442.098921 -109.782567 
L 439.975711 -114.518014 
L 437.852501 -119.488342 
L 435.729291 -124.69271 
L 433.606081 -130.12898 
L 431.482871 -135.793641 
L 429.359661 -141.68176 
L 427.23645 -147.786931 
L 425.11324 -154.101241 
L 422.99003 -160.615247 
L 420.86682 -167.317967 
L 418.74361 -174.196891 
L 416.6204 -181.237994 
L 414.49719 -188.425785 
L 412.37398 -195.743355 
L 410.25077 -203.172451 
L 408.12756 -210.693567 
L 406.00435 -218.28605 
L 403.88114 -225.928219 
L 401.75793 -233.597509 
L 399.63472 -241.27062 
L 397.51151 -248.923684 
L 395.3883 -256.532445 
L 393.26509 -264.072448 
L 391.141879 -271.519234 
L 389.018669 -278.848547 
L 386.895459 -286.03654 
L 384.772249 -293.059985 
L 382.649039 -299.896482 
L 380.525829 -306.524662 
L 378.402619 -312.92439 
L 376.279409 -319.07695 
L 374.156199 -324.965229 
L 372.032989 -330.573876 
L 369.909779 -335.889455 
L 367.786569 -340.90057 
L 365.663359 -345.597978 
L 363.540149 -349.974669 
L 361.416939 -354.025933 
L 359.293729 -357.749396 
L 357.170519 -361.145024 
L 355.047308 -364.215114 
L 352.924098 -366.964243 
L 350.800888 -369.399203 
L 348.677678 -371.528898 
L 346.554468 -373.364224 
L 344.431258 -374.917924 
L 342.308048 -376.204414 
L 340.184838 -377.239598 
L 338.061628 -378.040657 
L 335.938418 -378.625827 
L 333.815208 -379.014162 
L 331.691998 -379.225292 
L 329.568788 -379.279167 
L 327.445578 -379.195801 
L 325.322368 -378.995025 
L 323.199158 -378.696225 
L 321.075948 -378.318107 
L 318.952737 -377.878458 
L 316.829527 -377.393927 
L 314.706317 -376.879818 
L 312.583107 -376.349908 
L 310.459897 -375.81628 
L 308.336687 -375.289181 
L 306.213477 -374.776907 
L 304.090267 -374.285715 
L 301.967057 -373.819757 
L 299.843847 -373.381049 
L 297.720637 -372.969464 
L 295.597427 -372.582754 
L 293.474217 -372.216602 
L 291.351007 -371.864699 
L 289.227797 -371.518844 
L 287.104587 -371.169072 
L 284.981377 -370.803804 
L 282.858166 -370.410013 
L 280.734956 -369.973412 
L 278.611746 -369.478651 
L 276.488536 -368.909533 
L 274.365326 -368.249236 
L 272.242116 -367.480536 
L 270.118906 -366.586044 
L 267.995696 -365.548432 
L 265.872486 -364.350667 
L 263.749276 -362.976227 
L 261.626066 -361.409323 
L 259.502856 -359.635098 
L 257.379646 -357.639816 
L 255.256436 -355.411045 
L 253.133226 -352.937807 
L 251.010016 -350.210722 
L 248.886806 -347.222125 
L 246.763595 -343.966166 
L 244.640385 -340.438887 
L 242.517175 -336.638271 
L 240.393965 -332.56428 
L 238.270755 -328.218857 
L 236.147545 -323.60592 
L 234.024335 -318.731324 
L 231.901125 -313.602803 
L 229.777915 -308.229904 
L 227.654705 -302.62389 
L 225.531495 -296.79763 
L 223.408285 -290.765482 
L 221.285075 -284.543152 
L 219.161865 -278.147551 
L 217.038655 -271.596638 
L 214.915445 -264.909256 
L 212.792235 -258.104968 
L 210.669024 -251.203884 
L 208.545814 -244.226492 
L 206.422604 -237.193486 
L 204.299394 -230.125604 
L 202.176184 -223.043457 
L 200.052974 -215.967384 
L 197.929764 -208.917295 
L 195.806554 -201.912535 
L 193.683344 -194.97176 
L 191.560134 -188.112812 
L 189.436924 -181.352619 
L 187.313714 -174.707099 
L 185.190504 -168.191084 
L 183.067294 -161.818253 
L 180.944084 -155.601075 
L 178.820874 -149.550776 
L 176.697664 -143.67731 
L 174.574453 -137.989345 
L 172.451243 -132.494263 
L 170.328033 -127.198169 
L 168.204823 -122.105916 
L 166.081613 -117.221132 
L 163.958403 -112.546262 
L 161.835193 -108.082618 
L 159.711983 -103.830433 
L 157.588773 -99.788922 
L 155.465563 -95.956353 
L 153.342353 -92.330113 
L 151.219143 -88.906785 
L 149.095933 -85.682223 
L 146.972723 -82.651628 
L 144.849513 -79.809627 
L 142.726303 -77.150351 
L 140.603093 -74.667506 
L 138.479882 -72.354451 
L 136.356672 -70.204263 
L 134.233462 -68.209813 
L 132.110252 -66.36382 
L 129.987042 -64.658919 
L 127.863832 -63.087713 
L 125.740622 -61.642822 
L 123.617412 -60.316934 
L 121.494202 -59.102847 
L 119.370992 -57.9935 
L 117.247782 -56.982012 
L 115.124572 -56.061707 
L 113.001362 -55.226138 
L 110.878152 -54.469107 
L 108.754942 -53.784678 
L 106.631732 -53.167194 
L 104.508522 -52.611277 
L 102.385311 -52.111842 
L 100.262101 -51.664089 
L 98.138891 -51.263513 
L 96.015681 -50.905892 
L 93.892471 -50.587288 
L 91.769261 -50.304036 
L 89.646051 -50.052739 
z
" style="stroke: #e74c3c"/>
    </defs>
    <g clip-path="url(#pe36516ad44)">
     <use xlink:href="#m89ffdd4dab" x="0" y="420.48" style="fill: #e74c3c; fill-opacity: 0.3; stroke: #e74c3c"/>
    </g>
   </g>
   <g id="patch_3">
    <path d="M 60.520625 372.1675 
L 60.520625 24.6525 
" style="fill: none; stroke: #cccccc; stroke-width: 1.5; stroke-linejoin: miter; stroke-linecap: square"/>
   </g>
   <g id="patch_4">
    <path d="M 60.520625 372.1675 
L 701.28 372.1675 
" style="fill: none; stroke: #cccccc; stroke-width: 1.5; stroke-linejoin: miter; stroke-linecap: square"/>
   </g>
   <g id="text_20">
    <!-- Distribution of Absolute Errors -->
    <g style="fill: #262626" transform="translate(275.080312 18.6525) scale(0.16 -0.16)">
     <defs>
      <path id="ArialMT-62" d="M 941 0 
L 419 0 
L 419 4581 
L 981 4581 
L 981 2947 
Q 1338 3394 1891 3394 
Q 2197 3394 2470 3270 
Q 2744 3147 2920 2923 
Q 3097 2700 3197 2384 
Q 3297 2069 3297 1709 
Q 3297 856 2875 390 
Q 2453 -75 1863 -75 
Q 1275 -75 941 416 
L 941 0 
z
M 934 1684 
Q 934 1088 1097 822 
Q 1363 388 1816 388 
Q 2184 388 2453 708 
Q 2722 1028 2722 1663 
Q 2722 2313 2464 2622 
Q 2206 2931 1841 2931 
Q 1472 2931 1203 2611 
Q 934 2291 934 1684 
z
" transform="scale(0.015625)"/>
      <path id="ArialMT-75" d="M 2597 0 
L 2597 488 
Q 2209 -75 1544 -75 
Q 1250 -75 995 37 
Q 741 150 617 320 
Q 494 491 444 738 
Q 409 903 409 1263 
L 409 3319 
L 972 3319 
L 972 1478 
Q 972 1038 1006 884 
Q 1059 663 1231 536 
Q 1403 409 1656 409 
Q 1909 409 2131 539 
Q 2353 669 2445 892 
Q 2538 1116 2538 1541 
L 2538 3319 
L 3100 3319 
L 3100 0 
L 2597 0 
z
" transform="scale(0.015625)"/>
      <path id="ArialMT-66" d="M 556 0 
L 556 2881 
L 59 2881 
L 59 3319 
L 556 3319 
L 556 3672 
Q 556 4006 616 4169 
Q 697 4388 901 4523 
Q 1106 4659 1475 4659 
Q 1713 4659 2000 4603 
L 1916 4113 
Q 1741 4144 1584 4144 
Q 1328 4144 1222 4034 
Q 1116 3925 1116 3625 
L 1116 3319 
L 1763 3319 
L 1763 2881 
L 1116 2881 
L 1116 0 
L 556 0 
z
" transform="scale(0.015625)"/>
      <path id="ArialMT-41" d="M -9 0 
L 1750 4581 
L 2403 4581 
L 4278 0 
L 3588 0 
L 3053 1388 
L 1138 1388 
L 634 0 
L -9 0 
z
M 1313 1881 
L 2866 1881 
L 2388 3150 
Q 2169 3728 2063 4100 
Q 1975 3659 1816 3225 
L 1313 1881 
z
" transform="scale(0.015625)"/>
      <path id="ArialMT-6c" d="M 409 0 
L 409 4581 
L 972 4581 
L 972 0 
L 409 0 
z
" transform="scale(0.015625)"/>
     </defs>
     <use xlink:href="#ArialMT-44"/>
     <use xlink:href="#ArialMT-69" x="72.216797"/>
     <use xlink:href="#ArialMT-73" x="94.433594"/>
     <use xlink:href="#ArialMT-74" x="144.433594"/>
     <use xlink:href="#ArialMT-72" x="172.216797"/>
     <use xlink:href="#ArialMT-69" x="205.517578"/>
     <use xlink:href="#ArialMT-62" x="227.734375"/>
     <use xlink:href="#ArialMT-75" x="283.349609"/>
     <use xlink:href="#ArialMT-74" x="338.964844"/>
     <use xlink:href="#ArialMT-69" x="366.748047"/>
     <use xlink:href="#ArialMT-6f" x="388.964844"/>
     <use xlink:href="#ArialMT-6e" x="444.580078"/>
     <use xlink:href="#ArialMT-20" x="500.195312"/>
     <use xlink:href="#ArialMT-6f" x="527.978516"/>
     <use xlink:href="#ArialMT-66" x="583.59375"/>
     <use xlink:href="#ArialMT-20" x="611.376953"/>
     <use xlink:href="#ArialMT-41" x="633.660156"/>
     <use xlink:href="#ArialMT-62" x="700.359375"/>
     <use xlink:href="#ArialMT-73" x="755.974609"/>
     <use xlink:href="#ArialMT-6f" x="805.974609"/>
     <use xlink:href="#ArialMT-6c" x="861.589844"/>
     <use xlink:href="#ArialMT-75" x="883.806641"/>
     <use xlink:href="#ArialMT-74" x="939.421875"/>
     <use xlink:href="#ArialMT-65" x="967.205078"/>
     <use xlink:href="#ArialMT-20" x="1022.820312"/>
     <use xlink:href="#ArialMT-45" x="1050.603516"/>
     <use xlink:href="#ArialMT-72" x="1117.302734"/>
     <use xlink:href="#ArialMT-72" x="1150.603516"/>
     <use xlink:href="#ArialMT-6f" x="1183.904297"/>
     <use xlink:href="#ArialMT-72" x="1239.519531"/>
     <use xlink:href="#ArialMT-73" x="1272.820312"/>
    </g>
   </g>
   <g id="legend_1">
    <g id="patch_5">
     <path d="M 497.20125 68.775 
L 692.88 68.775 
Q 695.28 68.775 695.28 66.375 
L 695.28 33.0525 
Q 695.28 30.6525 692.88 30.6525 
L 497.20125 30.6525 
Q 494.80125 30.6525 494.80125 33.0525 
L 494.80125 66.375 
Q 494.80125 68.775 497.20125 68.775 
z
" style="fill: #ffffff; opacity: 0.8; stroke: #cccccc; stroke-linejoin: miter"/>
    </g>
    <g id="patch_6">
     <path d="M 499.60125 44.188125 
L 523.60125 44.188125 
L 523.60125 35.788125 
L 499.60125 35.788125 
z
" style="fill: #2ecc71; fill-opacity: 0.3; stroke: #2ecc71; stroke-linejoin: miter"/>
    </g>
    <g id="text_21">
     <!-- Training (μ=1.97%, σ=1.13%) -->
     <g style="fill: #262626" transform="translate(533.20125 44.188125) scale(0.12 -0.12)">
      <defs>
       <path id="ArialMT-54" d="M 1659 0 
L 1659 4041 
L 150 4041 
L 150 4581 
L 3781 4581 
L 3781 4041 
L 2266 4041 
L 2266 0 
L 1659 0 
z
" transform="scale(0.015625)"/>
       <path id="ArialMT-61" d="M 2588 409 
Q 2275 144 1986 34 
Q 1697 -75 1366 -75 
Q 819 -75 525 192 
Q 231 459 231 875 
Q 231 1119 342 1320 
Q 453 1522 633 1644 
Q 813 1766 1038 1828 
Q 1203 1872 1538 1913 
Q 2219 1994 2541 2106 
Q 2544 2222 2544 2253 
Q 2544 2597 2384 2738 
Q 2169 2928 1744 2928 
Q 1347 2928 1158 2789 
Q 969 2650 878 2297 
L 328 2372 
Q 403 2725 575 2942 
Q 747 3159 1072 3276 
Q 1397 3394 1825 3394 
Q 2250 3394 2515 3294 
Q 2781 3194 2906 3042 
Q 3031 2891 3081 2659 
Q 3109 2516 3109 2141 
L 3109 1391 
Q 3109 606 3145 398 
Q 3181 191 3288 0 
L 2700 0 
Q 2613 175 2588 409 
z
M 2541 1666 
Q 2234 1541 1622 1453 
Q 1275 1403 1131 1340 
Q 988 1278 909 1158 
Q 831 1038 831 891 
Q 831 666 1001 516 
Q 1172 366 1500 366 
Q 1825 366 2078 508 
Q 2331 650 2450 897 
Q 2541 1088 2541 1459 
L 2541 1666 
z
" transform="scale(0.015625)"/>
       <path id="ArialMT-67" d="M 319 -275 
L 866 -356 
Q 900 -609 1056 -725 
Q 1266 -881 1628 -881 
Q 2019 -881 2231 -725 
Q 2444 -569 2519 -288 
Q 2563 -116 2559 434 
Q 2191 0 1641 0 
Q 956 0 581 494 
Q 206 988 206 1678 
Q 206 2153 378 2554 
Q 550 2956 876 3175 
Q 1203 3394 1644 3394 
Q 2231 3394 2613 2919 
L 2613 3319 
L 3131 3319 
L 3131 450 
Q 3131 -325 2973 -648 
Q 2816 -972 2473 -1159 
Q 2131 -1347 1631 -1347 
Q 1038 -1347 672 -1080 
Q 306 -813 319 -275 
z
M 784 1719 
Q 784 1066 1043 766 
Q 1303 466 1694 466 
Q 2081 466 2343 764 
Q 2606 1063 2606 1700 
Q 2606 2309 2336 2618 
Q 2066 2928 1684 2928 
Q 1309 2928 1046 2623 
Q 784 2319 784 1719 
z
" transform="scale(0.015625)"/>
       <path id="ArialMT-3bc" d="M 3181 3319 
L 3181 0 
L 2678 0 
L 2678 394 
Q 2516 144 2356 50 
Q 2138 -78 1847 -78 
Q 1588 -78 1388 25 
Q 1238 103 1056 334 
L 1056 -1272 
L 500 -1272 
L 500 3319 
L 1056 3319 
L 1056 1913 
Q 1056 1147 1137 920 
Q 1219 694 1401 562 
Q 1584 431 1822 431 
Q 2072 431 2269 568 
Q 2466 706 2547 923 
Q 2628 1141 2628 1903 
L 2628 3319 
L 3181 3319 
z
" transform="scale(0.015625)"/>
       <path id="ArialMT-3d" d="M 3381 2694 
L 356 2694 
L 356 3219 
L 3381 3219 
L 3381 2694 
z
M 3381 1303 
L 356 1303 
L 356 1828 
L 3381 1828 
L 3381 1303 
z
" transform="scale(0.015625)"/>
       <path id="ArialMT-39" d="M 350 1059 
L 891 1109 
Q 959 728 1153 556 
Q 1347 384 1650 384 
Q 1909 384 2104 503 
Q 2300 622 2425 820 
Q 2550 1019 2634 1356 
Q 2719 1694 2719 2044 
Q 2719 2081 2716 2156 
Q 2547 1888 2255 1720 
Q 1963 1553 1622 1553 
Q 1053 1553 659 1965 
Q 266 2378 266 3053 
Q 266 3750 677 4175 
Q 1088 4600 1706 4600 
Q 2153 4600 2523 4359 
Q 2894 4119 3086 3673 
Q 3278 3228 3278 2384 
Q 3278 1506 3087 986 
Q 2897 466 2520 194 
Q 2144 -78 1638 -78 
Q 1100 -78 759 220 
Q 419 519 350 1059 
z
M 2653 3081 
Q 2653 3566 2395 3850 
Q 2138 4134 1775 4134 
Q 1400 4134 1122 3828 
Q 844 3522 844 3034 
Q 844 2597 1108 2323 
Q 1372 2050 1759 2050 
Q 2150 2050 2401 2323 
Q 2653 2597 2653 3081 
z
" transform="scale(0.015625)"/>
       <path id="ArialMT-37" d="M 303 3981 
L 303 4522 
L 3269 4522 
L 3269 4084 
Q 2831 3619 2401 2847 
Q 1972 2075 1738 1259 
Q 1569 684 1522 0 
L 944 0 
Q 953 541 1156 1306 
Q 1359 2072 1739 2783 
Q 2119 3494 2547 3981 
L 303 3981 
z
" transform="scale(0.015625)"/>
       <path id="ArialMT-2c" d="M 569 0 
L 569 641 
L 1209 641 
L 1209 0 
Q 1209 -353 1084 -570 
Q 959 -788 688 -906 
L 531 -666 
Q 709 -588 793 -436 
Q 878 -284 888 0 
L 569 0 
z
" transform="scale(0.015625)"/>
       <path id="ArialMT-3c3" d="M 3809 3319 
L 3809 2863 
L 2906 2863 
Q 3322 2475 3322 1656 
Q 3322 766 2867 345 
Q 2413 -75 1763 -75 
Q 1088 -75 650 362 
Q 213 800 213 1659 
Q 213 2544 667 2969 
Q 1122 3394 1763 3394 
Q 1997 3394 2294 3319 
L 3809 3319 
z
M 1753 2928 
Q 1344 2928 1067 2609 
Q 791 2291 791 1656 
Q 791 1025 1061 706 
Q 1331 388 1763 388 
Q 2216 388 2483 720 
Q 2750 1053 2750 1659 
Q 2750 2213 2504 2570 
Q 2259 2928 1753 2928 
z
" transform="scale(0.015625)"/>
      </defs>
      <use xlink:href="#ArialMT-54"/>
      <use xlink:href="#ArialMT-72" x="57.333984"/>
      <use xlink:href="#ArialMT-61" x="90.634766"/>
      <use xlink:href="#ArialMT-69" x="146.25"/>
      <use xlink:href="#ArialMT-6e" x="168.466797"/>
      <use xlink:href="#ArialMT-69" x="224.082031"/>
      <use xlink:href="#ArialMT-6e" x="246.298828"/>
      <use xlink:href="#ArialMT-67" x="301.914062"/>
      <use xlink:href="#ArialMT-20" x="357.529297"/>
      <use xlink:href="#ArialMT-28" x="385.3125"/>
      <use xlink:href="#ArialMT-3bc" x="418.613281"/>
      <use xlink:href="#ArialMT-3d" x="476.230469"/>
      <use xlink:href="#ArialMT-31" x="534.628906"/>
      <use xlink:href="#ArialMT-2e" x="590.244141"/>
      <use xlink:href="#ArialMT-39" x="618.027344"/>
      <use xlink:href="#ArialMT-37" x="673.642578"/>
      <use xlink:href="#ArialMT-25" x="729.257812"/>
      <use xlink:href="#ArialMT-2c" x="818.173828"/>
      <use xlink:href="#ArialMT-20" x="845.957031"/>
      <use xlink:href="#ArialMT-3c3" x="873.740234"/>
      <use xlink:href="#ArialMT-3d" x="935.458984"/>
      <use xlink:href="#ArialMT-31" x="993.857422"/>
      <use xlink:href="#ArialMT-2e" x="1049.472656"/>
      <use xlink:href="#ArialMT-31" x="1077.255859"/>
      <use xlink:href="#ArialMT-33" x="1132.871094"/>
      <use xlink:href="#ArialMT-25" x="1188.486328"/>
      <use xlink:href="#ArialMT-29" x="1277.402344"/>
     </g>
    </g>
    <g id="patch_7">
     <path d="M 499.60125 61.449375 
L 523.60125 61.449375 
L 523.60125 53.049375 
L 499.60125 53.049375 
z
" style="fill: #e74c3c; fill-opacity: 0.3; stroke: #e74c3c; stroke-linejoin: miter"/>
    </g>
    <g id="text_22">
     <!-- Testing (μ=1.09%, σ=0.81%) -->
     <g style="fill: #262626" transform="translate(533.20125 61.449375) scale(0.12 -0.12)">
      <defs>
       <path id="ArialMT-38" d="M 1131 2484 
Q 781 2613 612 2850 
Q 444 3088 444 3419 
Q 444 3919 803 4259 
Q 1163 4600 1759 4600 
Q 2359 4600 2725 4251 
Q 3091 3903 3091 3403 
Q 3091 3084 2923 2848 
Q 2756 2613 2416 2484 
Q 2838 2347 3058 2040 
Q 3278 1734 3278 1309 
Q 3278 722 2862 322 
Q 2447 -78 1769 -78 
Q 1091 -78 675 323 
Q 259 725 259 1325 
Q 259 1772 486 2073 
Q 713 2375 1131 2484 
z
M 1019 3438 
Q 1019 3113 1228 2906 
Q 1438 2700 1772 2700 
Q 2097 2700 2305 2904 
Q 2513 3109 2513 3406 
Q 2513 3716 2298 3927 
Q 2084 4138 1766 4138 
Q 1444 4138 1231 3931 
Q 1019 3725 1019 3438 
z
M 838 1322 
Q 838 1081 952 856 
Q 1066 631 1291 507 
Q 1516 384 1775 384 
Q 2178 384 2440 643 
Q 2703 903 2703 1303 
Q 2703 1709 2433 1975 
Q 2163 2241 1756 2241 
Q 1359 2241 1098 1978 
Q 838 1716 838 1322 
z
" transform="scale(0.015625)"/>
      </defs>
      <use xlink:href="#ArialMT-54"/>
      <use xlink:href="#ArialMT-65" x="49.958984"/>
      <use xlink:href="#ArialMT-73" x="105.574219"/>
      <use xlink:href="#ArialMT-74" x="155.574219"/>
      <use xlink:href="#ArialMT-69" x="183.357422"/>
      <use xlink:href="#ArialMT-6e" x="205.574219"/>
      <use xlink:href="#ArialMT-67" x="261.189453"/>
      <use xlink:href="#ArialMT-20" x="316.804688"/>
      <use xlink:href="#ArialMT-28" x="344.587891"/>
      <use xlink:href="#ArialMT-3bc" x="377.888672"/>
      <use xlink:href="#ArialMT-3d" x="435.505859"/>
      <use xlink:href="#ArialMT-31" x="493.904297"/>
      <use xlink:href="#ArialMT-2e" x="549.519531"/>
      <use xlink:href="#ArialMT-30" x="577.302734"/>
      <use xlink:href="#ArialMT-39" x="632.917969"/>
      <use xlink:href="#ArialMT-25" x="688.533203"/>
      <use xlink:href="#ArialMT-2c" x="777.449219"/>
      <use xlink:href="#ArialMT-20" x="805.232422"/>
      <use xlink:href="#ArialMT-3c3" x="833.015625"/>
      <use xlink:href="#ArialMT-3d" x="894.734375"/>
      <use xlink:href="#ArialMT-30" x="953.132812"/>
      <use xlink:href="#ArialMT-2e" x="1008.748047"/>
      <use xlink:href="#ArialMT-38" x="1036.53125"/>
      <use xlink:href="#ArialMT-31" x="1092.146484"/>
      <use xlink:href="#ArialMT-25" x="1147.761719"/>
      <use xlink:href="#ArialMT-29" x="1236.677734"/>
     </g>
    </g>
   </g>
  </g>
 </g>
 <defs>
  <clipPath id="pe36516ad44">
   <rect x="60.520625" y="24.6525" width="640.759375" height="347.515"/>
  </clipPath>
 </defs>
</svg>
