<?xml version="1.0" encoding="utf-8" standalone="no"?>
<!DOCTYPE svg PUBLIC "-//W3C//DTD SVG 1.1//EN"
  "http://www.w3.org/Graphics/SVG/1.1/DTD/svg11.dtd">
<svg xmlns:xlink="http://www.w3.org/1999/xlink" width="708.48pt" height="420.48pt" viewBox="0 0 708.48 420.48" xmlns="http://www.w3.org/2000/svg" version="1.1">
 <metadata>
  <rdf:RDF xmlns:dc="http://purl.org/dc/elements/1.1/" xmlns:cc="http://creativecommons.org/ns#" xmlns:rdf="http://www.w3.org/1999/02/22-rdf-syntax-ns#">
   <cc:Work>
    <dc:type rdf:resource="http://purl.org/dc/dcmitype/StillImage"/>
    <dc:date>2025-01-07T20:37:39.277472</dc:date>
    <dc:format>image/svg+xml</dc:format>
    <dc:creator>
     <cc:Agent>
      <dc:title>Matplotlib v3.9.3, https://matplotlib.org/</dc:title>
     </cc:Agent>
    </dc:creator>
   </cc:Work>
  </rdf:RDF>
 </metadata>
 <defs>
  <style type="text/css">*{stroke-linejoin: round; stroke-linecap: butt}</style>
 </defs>
 <g id="figure_1">
  <g id="patch_1">
   <path d="M 0 420.48 
L 708.48 420.48 
L 708.48 -0 
L 0 -0 
z
" style="fill: #ffffff"/>
  </g>
  <g id="axes_1">
   <g id="patch_2">
    <path d="M 53.8475 372.1675 
L 701.28 372.1675 
L 701.28 24.6525 
L 53.8475 24.6525 
z
" style="fill: #ffffff"/>
   </g>
   <g id="matplotlib.axis_1">
    <g id="xtick_1">
     <g id="line2d_1">
      <path d="M 87.221208 372.1675 
L 87.221208 24.6525 
" clip-path="url(#p312eac50f7)" style="fill: none; stroke: #cccccc; stroke-opacity: 0.3; stroke-width: 0.5; stroke-linecap: round"/>
     </g>
     <g id="text_1">
      <!-- −1 -->
      <g style="fill: #262626" transform="translate(80.38027 387.756875) scale(0.12 -0.12)">
       <defs>
        <path id="ArialMT-2212" d="M 3381 1997 
L 356 1997 
L 356 2522 
L 3381 2522 
L 3381 1997 
z
" transform="scale(0.015625)"/>
        <path id="ArialMT-31" d="M 2384 0 
L 1822 0 
L 1822 3584 
Q 1619 3391 1289 3197 
Q 959 3003 697 2906 
L 697 3450 
Q 1169 3672 1522 3987 
Q 1875 4303 2022 4600 
L 2384 4600 
L 2384 0 
z
" transform="scale(0.015625)"/>
       </defs>
       <use xlink:href="#ArialMT-2212"/>
       <use xlink:href="#ArialMT-31" x="58.398438"/>
      </g>
     </g>
    </g>
    <g id="xtick_2">
     <g id="line2d_2">
      <path d="M 186.151374 372.1675 
L 186.151374 24.6525 
" clip-path="url(#p312eac50f7)" style="fill: none; stroke: #cccccc; stroke-opacity: 0.3; stroke-width: 0.5; stroke-linecap: round"/>
     </g>
     <g id="text_2">
      <!-- 0 -->
      <g style="fill: #262626" transform="translate(182.814812 387.756875) scale(0.12 -0.12)">
       <defs>
        <path id="ArialMT-30" d="M 266 2259 
Q 266 3072 433 3567 
Q 600 4063 929 4331 
Q 1259 4600 1759 4600 
Q 2128 4600 2406 4451 
Q 2684 4303 2865 4023 
Q 3047 3744 3150 3342 
Q 3253 2941 3253 2259 
Q 3253 1453 3087 958 
Q 2922 463 2592 192 
Q 2263 -78 1759 -78 
Q 1097 -78 719 397 
Q 266 969 266 2259 
z
M 844 2259 
Q 844 1131 1108 757 
Q 1372 384 1759 384 
Q 2147 384 2411 759 
Q 2675 1134 2675 2259 
Q 2675 3391 2411 3762 
Q 2147 4134 1753 4134 
Q 1366 4134 1134 3806 
Q 844 3388 844 2259 
z
" transform="scale(0.015625)"/>
       </defs>
       <use xlink:href="#ArialMT-30"/>
      </g>
     </g>
    </g>
    <g id="xtick_3">
     <g id="line2d_3">
      <path d="M 285.081541 372.1675 
L 285.081541 24.6525 
" clip-path="url(#p312eac50f7)" style="fill: none; stroke: #cccccc; stroke-opacity: 0.3; stroke-width: 0.5; stroke-linecap: round"/>
     </g>
     <g id="text_3">
      <!-- 1 -->
      <g style="fill: #262626" transform="translate(281.744978 387.756875) scale(0.12 -0.12)">
       <use xlink:href="#ArialMT-31"/>
      </g>
     </g>
    </g>
    <g id="xtick_4">
     <g id="line2d_4">
      <path d="M 384.011707 372.1675 
L 384.011707 24.6525 
" clip-path="url(#p312eac50f7)" style="fill: none; stroke: #cccccc; stroke-opacity: 0.3; stroke-width: 0.5; stroke-linecap: round"/>
     </g>
     <g id="text_4">
      <!-- 2 -->
      <g style="fill: #262626" transform="translate(380.675145 387.756875) scale(0.12 -0.12)">
       <defs>
        <path id="ArialMT-32" d="M 3222 541 
L 3222 0 
L 194 0 
Q 188 203 259 391 
Q 375 700 629 1000 
Q 884 1300 1366 1694 
Q 2113 2306 2375 2664 
Q 2638 3022 2638 3341 
Q 2638 3675 2398 3904 
Q 2159 4134 1775 4134 
Q 1369 4134 1125 3890 
Q 881 3647 878 3216 
L 300 3275 
Q 359 3922 746 4261 
Q 1134 4600 1788 4600 
Q 2447 4600 2831 4234 
Q 3216 3869 3216 3328 
Q 3216 3053 3103 2787 
Q 2991 2522 2730 2228 
Q 2469 1934 1863 1422 
Q 1356 997 1212 845 
Q 1069 694 975 541 
L 3222 541 
z
" transform="scale(0.015625)"/>
       </defs>
       <use xlink:href="#ArialMT-32"/>
      </g>
     </g>
    </g>
    <g id="xtick_5">
     <g id="line2d_5">
      <path d="M 482.941874 372.1675 
L 482.941874 24.6525 
" clip-path="url(#p312eac50f7)" style="fill: none; stroke: #cccccc; stroke-opacity: 0.3; stroke-width: 0.5; stroke-linecap: round"/>
     </g>
     <g id="text_5">
      <!-- 3 -->
      <g style="fill: #262626" transform="translate(479.605311 387.756875) scale(0.12 -0.12)">
       <defs>
        <path id="ArialMT-33" d="M 269 1209 
L 831 1284 
Q 928 806 1161 595 
Q 1394 384 1728 384 
Q 2125 384 2398 659 
Q 2672 934 2672 1341 
Q 2672 1728 2419 1979 
Q 2166 2231 1775 2231 
Q 1616 2231 1378 2169 
L 1441 2663 
Q 1497 2656 1531 2656 
Q 1891 2656 2178 2843 
Q 2466 3031 2466 3422 
Q 2466 3731 2256 3934 
Q 2047 4138 1716 4138 
Q 1388 4138 1169 3931 
Q 950 3725 888 3313 
L 325 3413 
Q 428 3978 793 4289 
Q 1159 4600 1703 4600 
Q 2078 4600 2393 4439 
Q 2709 4278 2876 4000 
Q 3044 3722 3044 3409 
Q 3044 3113 2884 2869 
Q 2725 2625 2413 2481 
Q 2819 2388 3044 2092 
Q 3269 1797 3269 1353 
Q 3269 753 2831 336 
Q 2394 -81 1725 -81 
Q 1122 -81 723 278 
Q 325 638 269 1209 
z
" transform="scale(0.015625)"/>
       </defs>
       <use xlink:href="#ArialMT-33"/>
      </g>
     </g>
    </g>
    <g id="xtick_6">
     <g id="line2d_6">
      <path d="M 581.87204 372.1675 
L 581.87204 24.6525 
" clip-path="url(#p312eac50f7)" style="fill: none; stroke: #cccccc; stroke-opacity: 0.3; stroke-width: 0.5; stroke-linecap: round"/>
     </g>
     <g id="text_6">
      <!-- 4 -->
      <g style="fill: #262626" transform="translate(578.535478 387.756875) scale(0.12 -0.12)">
       <defs>
        <path id="ArialMT-34" d="M 2069 0 
L 2069 1097 
L 81 1097 
L 81 1613 
L 2172 4581 
L 2631 4581 
L 2631 1613 
L 3250 1613 
L 3250 1097 
L 2631 1097 
L 2631 0 
L 2069 0 
z
M 2069 1613 
L 2069 3678 
L 634 1613 
L 2069 1613 
z
" transform="scale(0.015625)"/>
       </defs>
       <use xlink:href="#ArialMT-34"/>
      </g>
     </g>
    </g>
    <g id="xtick_7">
     <g id="line2d_7">
      <path d="M 680.802207 372.1675 
L 680.802207 24.6525 
" clip-path="url(#p312eac50f7)" style="fill: none; stroke: #cccccc; stroke-opacity: 0.3; stroke-width: 0.5; stroke-linecap: round"/>
     </g>
     <g id="text_7">
      <!-- 5 -->
      <g style="fill: #262626" transform="translate(677.465644 387.756875) scale(0.12 -0.12)">
       <defs>
        <path id="ArialMT-35" d="M 266 1200 
L 856 1250 
Q 922 819 1161 601 
Q 1400 384 1738 384 
Q 2144 384 2425 690 
Q 2706 997 2706 1503 
Q 2706 1984 2436 2262 
Q 2166 2541 1728 2541 
Q 1456 2541 1237 2417 
Q 1019 2294 894 2097 
L 366 2166 
L 809 4519 
L 3088 4519 
L 3088 3981 
L 1259 3981 
L 1013 2750 
Q 1425 3038 1878 3038 
Q 2478 3038 2890 2622 
Q 3303 2206 3303 1553 
Q 3303 931 2941 478 
Q 2500 -78 1738 -78 
Q 1113 -78 717 272 
Q 322 622 266 1200 
z
" transform="scale(0.015625)"/>
       </defs>
       <use xlink:href="#ArialMT-35"/>
      </g>
     </g>
    </g>
    <g id="text_8">
     <!-- Error (%) -->
     <g style="fill: #262626" transform="translate(349.17875 410.333438) scale(0.14 -0.14)">
      <defs>
       <path id="ArialMT-45" d="M 506 0 
L 506 4581 
L 3819 4581 
L 3819 4041 
L 1113 4041 
L 1113 2638 
L 3647 2638 
L 3647 2100 
L 1113 2100 
L 1113 541 
L 3925 541 
L 3925 0 
L 506 0 
z
" transform="scale(0.015625)"/>
       <path id="ArialMT-72" d="M 416 0 
L 416 3319 
L 922 3319 
L 922 2816 
Q 1116 3169 1280 3281 
Q 1444 3394 1641 3394 
Q 1925 3394 2219 3213 
L 2025 2691 
Q 1819 2813 1613 2813 
Q 1428 2813 1281 2702 
Q 1134 2591 1072 2394 
Q 978 2094 978 1738 
L 978 0 
L 416 0 
z
" transform="scale(0.015625)"/>
       <path id="ArialMT-6f" d="M 213 1659 
Q 213 2581 725 3025 
Q 1153 3394 1769 3394 
Q 2453 3394 2887 2945 
Q 3322 2497 3322 1706 
Q 3322 1066 3130 698 
Q 2938 331 2570 128 
Q 2203 -75 1769 -75 
Q 1072 -75 642 372 
Q 213 819 213 1659 
z
M 791 1659 
Q 791 1022 1069 705 
Q 1347 388 1769 388 
Q 2188 388 2466 706 
Q 2744 1025 2744 1678 
Q 2744 2294 2464 2611 
Q 2184 2928 1769 2928 
Q 1347 2928 1069 2612 
Q 791 2297 791 1659 
z
" transform="scale(0.015625)"/>
       <path id="ArialMT-20" transform="scale(0.015625)"/>
       <path id="ArialMT-28" d="M 1497 -1347 
Q 1031 -759 709 28 
Q 388 816 388 1659 
Q 388 2403 628 3084 
Q 909 3875 1497 4659 
L 1900 4659 
Q 1522 4009 1400 3731 
Q 1209 3300 1100 2831 
Q 966 2247 966 1656 
Q 966 153 1900 -1347 
L 1497 -1347 
z
" transform="scale(0.015625)"/>
       <path id="ArialMT-25" d="M 372 3481 
Q 372 3972 619 4315 
Q 866 4659 1334 4659 
Q 1766 4659 2048 4351 
Q 2331 4044 2331 3447 
Q 2331 2866 2045 2552 
Q 1759 2238 1341 2238 
Q 925 2238 648 2547 
Q 372 2856 372 3481 
z
M 1350 4272 
Q 1141 4272 1002 4090 
Q 863 3909 863 3425 
Q 863 2984 1003 2804 
Q 1144 2625 1350 2625 
Q 1563 2625 1702 2806 
Q 1841 2988 1841 3469 
Q 1841 3913 1700 4092 
Q 1559 4272 1350 4272 
z
M 1353 -169 
L 3859 4659 
L 4316 4659 
L 1819 -169 
L 1353 -169 
z
M 3334 1075 
Q 3334 1569 3581 1911 
Q 3828 2253 4300 2253 
Q 4731 2253 5014 1945 
Q 5297 1638 5297 1041 
Q 5297 459 5011 145 
Q 4725 -169 4303 -169 
Q 3888 -169 3611 142 
Q 3334 453 3334 1075 
z
M 4316 1866 
Q 4103 1866 3964 1684 
Q 3825 1503 3825 1019 
Q 3825 581 3965 400 
Q 4106 219 4313 219 
Q 4528 219 4667 400 
Q 4806 581 4806 1063 
Q 4806 1506 4665 1686 
Q 4525 1866 4316 1866 
z
" transform="scale(0.015625)"/>
       <path id="ArialMT-29" d="M 791 -1347 
L 388 -1347 
Q 1322 153 1322 1656 
Q 1322 2244 1188 2822 
Q 1081 3291 891 3722 
Q 769 4003 388 4659 
L 791 4659 
Q 1378 3875 1659 3084 
Q 1900 2403 1900 1659 
Q 1900 816 1576 28 
Q 1253 -759 791 -1347 
z
" transform="scale(0.015625)"/>
      </defs>
      <use xlink:href="#ArialMT-45"/>
      <use xlink:href="#ArialMT-72" x="66.699219"/>
      <use xlink:href="#ArialMT-72" x="100"/>
      <use xlink:href="#ArialMT-6f" x="133.300781"/>
      <use xlink:href="#ArialMT-72" x="188.916016"/>
      <use xlink:href="#ArialMT-20" x="222.216797"/>
      <use xlink:href="#ArialMT-28" x="250"/>
      <use xlink:href="#ArialMT-25" x="283.300781"/>
      <use xlink:href="#ArialMT-29" x="372.216797"/>
     </g>
    </g>
   </g>
   <g id="matplotlib.axis_2">
    <g id="ytick_1">
     <g id="line2d_8">
      <path d="M 53.8475 372.1675 
L 701.28 372.1675 
" clip-path="url(#p312eac50f7)" style="fill: none; stroke: #cccccc; stroke-opacity: 0.3; stroke-width: 0.5; stroke-linecap: round"/>
     </g>
     <g id="text_9">
      <!-- 0.0 -->
      <g style="fill: #262626" transform="translate(30.1675 376.462188) scale(0.12 -0.12)">
       <defs>
        <path id="ArialMT-2e" d="M 581 0 
L 581 641 
L 1222 641 
L 1222 0 
L 581 0 
z
" transform="scale(0.015625)"/>
       </defs>
       <use xlink:href="#ArialMT-30"/>
       <use xlink:href="#ArialMT-2e" x="55.615234"/>
       <use xlink:href="#ArialMT-30" x="83.398438"/>
      </g>
     </g>
    </g>
    <g id="ytick_2">
     <g id="line2d_9">
      <path d="M 53.8475 303.077226 
L 701.28 303.077226 
" clip-path="url(#p312eac50f7)" style="fill: none; stroke: #cccccc; stroke-opacity: 0.3; stroke-width: 0.5; stroke-linecap: round"/>
     </g>
     <g id="text_10">
      <!-- 0.1 -->
      <g style="fill: #262626" transform="translate(30.1675 307.371913) scale(0.12 -0.12)">
       <use xlink:href="#ArialMT-30"/>
       <use xlink:href="#ArialMT-2e" x="55.615234"/>
       <use xlink:href="#ArialMT-31" x="83.398438"/>
      </g>
     </g>
    </g>
    <g id="ytick_3">
     <g id="line2d_10">
      <path d="M 53.8475 233.986951 
L 701.28 233.986951 
" clip-path="url(#p312eac50f7)" style="fill: none; stroke: #cccccc; stroke-opacity: 0.3; stroke-width: 0.5; stroke-linecap: round"/>
     </g>
     <g id="text_11">
      <!-- 0.2 -->
      <g style="fill: #262626" transform="translate(30.1675 238.281639) scale(0.12 -0.12)">
       <use xlink:href="#ArialMT-30"/>
       <use xlink:href="#ArialMT-2e" x="55.615234"/>
       <use xlink:href="#ArialMT-32" x="83.398438"/>
      </g>
     </g>
    </g>
    <g id="ytick_4">
     <g id="line2d_11">
      <path d="M 53.8475 164.896677 
L 701.28 164.896677 
" clip-path="url(#p312eac50f7)" style="fill: none; stroke: #cccccc; stroke-opacity: 0.3; stroke-width: 0.5; stroke-linecap: round"/>
     </g>
     <g id="text_12">
      <!-- 0.3 -->
      <g style="fill: #262626" transform="translate(30.1675 169.191365) scale(0.12 -0.12)">
       <use xlink:href="#ArialMT-30"/>
       <use xlink:href="#ArialMT-2e" x="55.615234"/>
       <use xlink:href="#ArialMT-33" x="83.398438"/>
      </g>
     </g>
    </g>
    <g id="ytick_5">
     <g id="line2d_12">
      <path d="M 53.8475 95.806403 
L 701.28 95.806403 
" clip-path="url(#p312eac50f7)" style="fill: none; stroke: #cccccc; stroke-opacity: 0.3; stroke-width: 0.5; stroke-linecap: round"/>
     </g>
     <g id="text_13">
      <!-- 0.4 -->
      <g style="fill: #262626" transform="translate(30.1675 100.10109) scale(0.12 -0.12)">
       <use xlink:href="#ArialMT-30"/>
       <use xlink:href="#ArialMT-2e" x="55.615234"/>
       <use xlink:href="#ArialMT-34" x="83.398438"/>
      </g>
     </g>
    </g>
    <g id="ytick_6">
     <g id="line2d_13">
      <path d="M 53.8475 26.716129 
L 701.28 26.716129 
" clip-path="url(#p312eac50f7)" style="fill: none; stroke: #cccccc; stroke-opacity: 0.3; stroke-width: 0.5; stroke-linecap: round"/>
     </g>
     <g id="text_14">
      <!-- 0.5 -->
      <g style="fill: #262626" transform="translate(30.1675 31.010816) scale(0.12 -0.12)">
       <use xlink:href="#ArialMT-30"/>
       <use xlink:href="#ArialMT-2e" x="55.615234"/>
       <use xlink:href="#ArialMT-35" x="83.398438"/>
      </g>
     </g>
    </g>
    <g id="text_15">
     <!-- Density -->
     <g style="fill: #262626" transform="translate(17.220938 221.750625) rotate(-90) scale(0.14 -0.14)">
      <defs>
       <path id="ArialMT-44" d="M 494 0 
L 494 4581 
L 2072 4581 
Q 2606 4581 2888 4516 
Q 3281 4425 3559 4188 
Q 3922 3881 4101 3404 
Q 4281 2928 4281 2316 
Q 4281 1794 4159 1391 
Q 4038 988 3847 723 
Q 3656 459 3429 307 
Q 3203 156 2883 78 
Q 2563 0 2147 0 
L 494 0 
z
M 1100 541 
L 2078 541 
Q 2531 541 2789 625 
Q 3047 709 3200 863 
Q 3416 1078 3536 1442 
Q 3656 1806 3656 2325 
Q 3656 3044 3420 3430 
Q 3184 3816 2847 3947 
Q 2603 4041 2063 4041 
L 1100 4041 
L 1100 541 
z
" transform="scale(0.015625)"/>
       <path id="ArialMT-65" d="M 2694 1069 
L 3275 997 
Q 3138 488 2766 206 
Q 2394 -75 1816 -75 
Q 1088 -75 661 373 
Q 234 822 234 1631 
Q 234 2469 665 2931 
Q 1097 3394 1784 3394 
Q 2450 3394 2872 2941 
Q 3294 2488 3294 1666 
Q 3294 1616 3291 1516 
L 816 1516 
Q 847 969 1125 678 
Q 1403 388 1819 388 
Q 2128 388 2347 550 
Q 2566 713 2694 1069 
z
M 847 1978 
L 2700 1978 
Q 2663 2397 2488 2606 
Q 2219 2931 1791 2931 
Q 1403 2931 1139 2672 
Q 875 2413 847 1978 
z
" transform="scale(0.015625)"/>
       <path id="ArialMT-6e" d="M 422 0 
L 422 3319 
L 928 3319 
L 928 2847 
Q 1294 3394 1984 3394 
Q 2284 3394 2536 3286 
Q 2788 3178 2913 3003 
Q 3038 2828 3088 2588 
Q 3119 2431 3119 2041 
L 3119 0 
L 2556 0 
L 2556 2019 
Q 2556 2363 2490 2533 
Q 2425 2703 2258 2804 
Q 2091 2906 1866 2906 
Q 1506 2906 1245 2678 
Q 984 2450 984 1813 
L 984 0 
L 422 0 
z
" transform="scale(0.015625)"/>
       <path id="ArialMT-73" d="M 197 991 
L 753 1078 
Q 800 744 1014 566 
Q 1228 388 1613 388 
Q 2000 388 2187 545 
Q 2375 703 2375 916 
Q 2375 1106 2209 1216 
Q 2094 1291 1634 1406 
Q 1016 1563 777 1677 
Q 538 1791 414 1992 
Q 291 2194 291 2438 
Q 291 2659 392 2848 
Q 494 3038 669 3163 
Q 800 3259 1026 3326 
Q 1253 3394 1513 3394 
Q 1903 3394 2198 3281 
Q 2494 3169 2634 2976 
Q 2775 2784 2828 2463 
L 2278 2388 
Q 2241 2644 2061 2787 
Q 1881 2931 1553 2931 
Q 1166 2931 1000 2803 
Q 834 2675 834 2503 
Q 834 2394 903 2306 
Q 972 2216 1119 2156 
Q 1203 2125 1616 2013 
Q 2213 1853 2448 1751 
Q 2684 1650 2818 1456 
Q 2953 1263 2953 975 
Q 2953 694 2789 445 
Q 2625 197 2315 61 
Q 2006 -75 1616 -75 
Q 969 -75 630 194 
Q 291 463 197 991 
z
" transform="scale(0.015625)"/>
       <path id="ArialMT-69" d="M 425 3934 
L 425 4581 
L 988 4581 
L 988 3934 
L 425 3934 
z
M 425 0 
L 425 3319 
L 988 3319 
L 988 0 
L 425 0 
z
" transform="scale(0.015625)"/>
       <path id="ArialMT-74" d="M 1650 503 
L 1731 6 
Q 1494 -44 1306 -44 
Q 1000 -44 831 53 
Q 663 150 594 308 
Q 525 466 525 972 
L 525 2881 
L 113 2881 
L 113 3319 
L 525 3319 
L 525 4141 
L 1084 4478 
L 1084 3319 
L 1650 3319 
L 1650 2881 
L 1084 2881 
L 1084 941 
Q 1084 700 1114 631 
Q 1144 563 1211 522 
Q 1278 481 1403 481 
Q 1497 481 1650 503 
z
" transform="scale(0.015625)"/>
       <path id="ArialMT-79" d="M 397 -1278 
L 334 -750 
Q 519 -800 656 -800 
Q 844 -800 956 -737 
Q 1069 -675 1141 -563 
Q 1194 -478 1313 -144 
Q 1328 -97 1363 -6 
L 103 3319 
L 709 3319 
L 1400 1397 
Q 1534 1031 1641 628 
Q 1738 1016 1872 1384 
L 2581 3319 
L 3144 3319 
L 1881 -56 
Q 1678 -603 1566 -809 
Q 1416 -1088 1222 -1217 
Q 1028 -1347 759 -1347 
Q 597 -1347 397 -1278 
z
" transform="scale(0.015625)"/>
      </defs>
      <use xlink:href="#ArialMT-44"/>
      <use xlink:href="#ArialMT-65" x="72.216797"/>
      <use xlink:href="#ArialMT-6e" x="127.832031"/>
      <use xlink:href="#ArialMT-73" x="183.447266"/>
      <use xlink:href="#ArialMT-69" x="233.447266"/>
      <use xlink:href="#ArialMT-74" x="255.664062"/>
      <use xlink:href="#ArialMT-79" x="283.447266"/>
     </g>
    </g>
   </g>
   <g id="PolyCollection_1">
    <defs>
     <path id="m03223eb15e" d="M 83.27625 -48.957519 
L 83.27625 -48.3125 
L 86.233913 -48.3125 
L 89.191577 -48.3125 
L 92.14924 -48.3125 
L 95.106903 -48.3125 
L 98.064567 -48.3125 
L 101.02223 -48.3125 
L 103.979893 -48.3125 
L 106.937557 -48.3125 
L 109.89522 -48.3125 
L 112.852883 -48.3125 
L 115.810546 -48.3125 
L 118.76821 -48.3125 
L 121.725873 -48.3125 
L 124.683536 -48.3125 
L 127.6412 -48.3125 
L 130.598863 -48.3125 
L 133.556526 -48.3125 
L 136.51419 -48.3125 
L 139.471853 -48.3125 
L 142.429516 -48.3125 
L 145.38718 -48.3125 
L 148.344843 -48.3125 
L 151.302506 -48.3125 
L 154.26017 -48.3125 
L 157.217833 -48.3125 
L 160.175496 -48.3125 
L 163.13316 -48.3125 
L 166.090823 -48.3125 
L 169.048486 -48.3125 
L 172.006149 -48.3125 
L 174.963813 -48.3125 
L 177.921476 -48.3125 
L 180.879139 -48.3125 
L 183.836803 -48.3125 
L 186.794466 -48.3125 
L 189.752129 -48.3125 
L 192.709793 -48.3125 
L 195.667456 -48.3125 
L 198.625119 -48.3125 
L 201.582783 -48.3125 
L 204.540446 -48.3125 
L 207.498109 -48.3125 
L 210.455773 -48.3125 
L 213.413436 -48.3125 
L 216.371099 -48.3125 
L 219.328763 -48.3125 
L 222.286426 -48.3125 
L 225.244089 -48.3125 
L 228.201753 -48.3125 
L 231.159416 -48.3125 
L 234.117079 -48.3125 
L 237.074742 -48.3125 
L 240.032406 -48.3125 
L 242.990069 -48.3125 
L 245.947732 -48.3125 
L 248.905396 -48.3125 
L 251.863059 -48.3125 
L 254.820722 -48.3125 
L 257.778386 -48.3125 
L 260.736049 -48.3125 
L 263.693712 -48.3125 
L 266.651376 -48.3125 
L 269.609039 -48.3125 
L 272.566702 -48.3125 
L 275.524366 -48.3125 
L 278.482029 -48.3125 
L 281.439692 -48.3125 
L 284.397356 -48.3125 
L 287.355019 -48.3125 
L 290.312682 -48.3125 
L 293.270345 -48.3125 
L 296.228009 -48.3125 
L 299.185672 -48.3125 
L 302.143335 -48.3125 
L 305.100999 -48.3125 
L 308.058662 -48.3125 
L 311.016325 -48.3125 
L 313.973989 -48.3125 
L 316.931652 -48.3125 
L 319.889315 -48.3125 
L 322.846979 -48.3125 
L 325.804642 -48.3125 
L 328.762305 -48.3125 
L 331.719969 -48.3125 
L 334.677632 -48.3125 
L 337.635295 -48.3125 
L 340.592959 -48.3125 
L 343.550622 -48.3125 
L 346.508285 -48.3125 
L 349.465948 -48.3125 
L 352.423612 -48.3125 
L 355.381275 -48.3125 
L 358.338938 -48.3125 
L 361.296602 -48.3125 
L 364.254265 -48.3125 
L 367.211928 -48.3125 
L 370.169592 -48.3125 
L 373.127255 -48.3125 
L 376.084918 -48.3125 
L 379.042582 -48.3125 
L 382.000245 -48.3125 
L 384.957908 -48.3125 
L 387.915572 -48.3125 
L 390.873235 -48.3125 
L 393.830898 -48.3125 
L 396.788562 -48.3125 
L 399.746225 -48.3125 
L 402.703888 -48.3125 
L 405.661552 -48.3125 
L 408.619215 -48.3125 
L 411.576878 -48.3125 
L 414.534541 -48.3125 
L 417.492205 -48.3125 
L 420.449868 -48.3125 
L 423.407531 -48.3125 
L 426.365195 -48.3125 
L 429.322858 -48.3125 
L 432.280521 -48.3125 
L 435.238185 -48.3125 
L 438.195848 -48.3125 
L 441.153511 -48.3125 
L 444.111175 -48.3125 
L 447.068838 -48.3125 
L 450.026501 -48.3125 
L 452.984165 -48.3125 
L 455.941828 -48.3125 
L 458.899491 -48.3125 
L 461.857155 -48.3125 
L 464.814818 -48.3125 
L 467.772481 -48.3125 
L 470.730144 -48.3125 
L 473.687808 -48.3125 
L 476.645471 -48.3125 
L 479.603134 -48.3125 
L 482.560798 -48.3125 
L 485.518461 -48.3125 
L 488.476124 -48.3125 
L 491.433788 -48.3125 
L 494.391451 -48.3125 
L 497.349114 -48.3125 
L 500.306778 -48.3125 
L 503.264441 -48.3125 
L 506.222104 -48.3125 
L 509.179768 -48.3125 
L 512.137431 -48.3125 
L 515.095094 -48.3125 
L 518.052758 -48.3125 
L 521.010421 -48.3125 
L 523.968084 -48.3125 
L 526.925747 -48.3125 
L 529.883411 -48.3125 
L 532.841074 -48.3125 
L 535.798737 -48.3125 
L 538.756401 -48.3125 
L 541.714064 -48.3125 
L 544.671727 -48.3125 
L 547.629391 -48.3125 
L 550.587054 -48.3125 
L 553.544717 -48.3125 
L 556.502381 -48.3125 
L 559.460044 -48.3125 
L 562.417707 -48.3125 
L 565.375371 -48.3125 
L 568.333034 -48.3125 
L 571.290697 -48.3125 
L 574.248361 -48.3125 
L 577.206024 -48.3125 
L 580.163687 -48.3125 
L 583.121351 -48.3125 
L 586.079014 -48.3125 
L 589.036677 -48.3125 
L 591.99434 -48.3125 
L 594.952004 -48.3125 
L 597.909667 -48.3125 
L 600.86733 -48.3125 
L 603.824994 -48.3125 
L 606.782657 -48.3125 
L 609.74032 -48.3125 
L 612.697984 -48.3125 
L 615.655647 -48.3125 
L 618.61331 -48.3125 
L 621.570974 -48.3125 
L 624.528637 -48.3125 
L 627.4863 -48.3125 
L 630.443964 -48.3125 
L 633.401627 -48.3125 
L 636.35929 -48.3125 
L 639.316954 -48.3125 
L 642.274617 -48.3125 
L 645.23228 -48.3125 
L 648.189943 -48.3125 
L 651.147607 -48.3125 
L 654.10527 -48.3125 
L 657.062933 -48.3125 
L 660.020597 -48.3125 
L 662.97826 -48.3125 
L 665.935923 -48.3125 
L 668.893587 -48.3125 
L 671.85125 -48.3125 
L 671.85125 -48.583048 
L 671.85125 -48.583048 
L 668.893587 -48.643263 
L 665.935923 -48.715373 
L 662.97826 -48.80138 
L 660.020597 -48.90355 
L 657.062933 -49.024433 
L 654.10527 -49.166881 
L 651.147607 -49.334069 
L 648.189943 -49.529505 
L 645.23228 -49.757049 
L 642.274617 -50.020913 
L 639.316954 -50.325671 
L 636.35929 -50.676255 
L 633.401627 -51.077945 
L 630.443964 -51.536355 
L 627.4863 -52.057411 
L 624.528637 -52.647318 
L 621.570974 -53.312521 
L 618.61331 -54.059655 
L 615.655647 -54.895488 
L 612.697984 -55.826854 
L 609.74032 -56.860579 
L 606.782657 -58.003394 
L 603.824994 -59.261848 
L 600.86733 -60.642212 
L 597.909667 -62.150379 
L 594.952004 -63.791758 
L 591.99434 -65.571175 
L 589.036677 -67.492765 
L 586.079014 -69.559878 
L 583.121351 -71.774981 
L 580.163687 -74.139573 
L 577.206024 -76.65411 
L 574.248361 -79.317936 
L 571.290697 -82.129233 
L 568.333034 -85.084985 
L 565.375371 -88.180953 
L 562.417707 -91.411675 
L 559.460044 -94.770472 
L 556.502381 -98.24948 
L 553.544717 -101.839694 
L 550.587054 -105.531029 
L 547.629391 -109.312393 
L 544.671727 -113.171774 
L 541.714064 -117.096337 
L 538.756401 -121.072532 
L 535.798737 -125.086207 
L 532.841074 -129.122725 
L 529.883411 -133.167087 
L 526.925747 -137.204054 
L 523.968084 -141.218268 
L 521.010421 -145.194375 
L 518.052758 -149.117145 
L 515.095094 -152.971588 
L 512.137431 -156.743068 
L 509.179768 -160.417418 
L 506.222104 -163.981048 
L 503.264441 -167.421056 
L 500.306778 -170.725336 
L 497.349114 -173.882688 
L 494.391451 -176.882929 
L 491.433788 -179.717002 
L 488.476124 -182.377087 
L 485.518461 -184.856713 
L 482.560798 -187.150867 
L 479.603134 -189.256099 
L 476.645471 -191.170623 
L 473.687808 -192.894409 
L 470.730144 -194.429261 
L 467.772481 -195.778879 
L 464.814818 -196.948905 
L 461.857155 -197.946939 
L 458.899491 -198.78253 
L 455.941828 -199.467137 
L 452.984165 -200.014053 
L 450.026501 -200.438294 
L 447.068838 -200.756453 
L 444.111175 -200.986514 
L 441.153511 -201.147634 
L 438.195848 -201.259889 
L 435.238185 -201.343994 
L 432.280521 -201.421007 
L 429.322858 -201.512002 
L 426.365195 -201.637752 
L 423.407531 -201.818402 
L 420.449868 -202.073151 
L 417.492205 -202.419962 
L 414.534541 -202.875289 
L 411.576878 -203.453844 
L 408.619215 -204.168412 
L 405.661552 -205.029702 
L 402.703888 -206.046265 
L 399.746225 -207.224456 
L 396.788562 -208.568459 
L 393.830898 -210.080361 
L 390.873235 -211.760277 
L 387.915572 -213.60652 
L 384.957908 -215.61581 
L 382.000245 -217.783501 
L 379.042582 -220.10384 
L 376.084918 -222.570214 
L 373.127255 -225.175407 
L 370.169592 -227.911833 
L 367.211928 -230.77174 
L 364.254265 -233.747383 
L 361.296602 -236.831146 
L 358.338938 -240.015622 
L 355.381275 -243.293624 
L 352.423612 -246.658156 
L 349.465948 -250.102316 
L 346.508285 -253.619155 
L 343.550622 -257.201485 
L 340.592959 -260.841653 
L 337.635295 -264.531283 
L 334.677632 -268.261005 
L 331.719969 -272.020174 
L 328.762305 -275.796608 
L 325.804642 -279.576334 
L 322.846979 -283.343379 
L 319.889315 -287.079603 
L 316.931652 -290.764588 
L 313.973989 -294.375595 
L 311.016325 -297.887588 
L 308.058662 -301.273338 
L 305.100999 -304.503599 
L 302.143335 -307.547367 
L 299.185672 -310.372205 
L 296.228009 -312.944642 
L 293.270345 -315.230621 
L 290.312682 -317.196007 
L 287.355019 -318.807124 
L 284.397356 -320.031318 
L 281.439692 -320.837537 
L 278.482029 -321.196894 
L 275.524366 -321.083231 
L 272.566702 -320.473633 
L 269.609039 -319.348915 
L 266.651376 -317.694044 
L 263.693712 -315.498501 
L 260.736049 -312.756563 
L 257.778386 -309.467517 
L 254.820722 -305.635774 
L 251.863059 -301.270912 
L 248.905396 -296.387617 
L 245.947732 -291.005551 
L 242.990069 -285.149128 
L 240.032406 -278.847219 
L 237.074742 -272.132779 
L 234.117079 -265.042425 
L 231.159416 -257.615946 
L 228.201753 -249.895776 
L 225.244089 -241.92644 
L 222.286426 -233.753969 
L 219.328763 -225.425311 
L 216.371099 -216.987741 
L 213.413436 -208.488278 
L 210.455773 -199.973136 
L 207.498109 -191.487186 
L 204.540446 -183.073478 
L 201.582783 -174.772788 
L 198.625119 -166.623237 
L 195.667456 -158.659947 
L 192.709793 -150.914776 
L 189.752129 -143.416097 
L 186.794466 -136.188654 
L 183.836803 -129.25347 
L 180.879139 -122.627819 
L 177.921476 -116.325256 
L 174.963813 -110.355699 
L 172.006149 -104.725559 
L 169.048486 -99.437913 
L 166.090823 -94.492716 
L 163.13316 -89.887039 
L 160.175496 -85.615336 
L 157.217833 -81.669729 
L 154.26017 -78.040295 
L 151.302506 -74.715373 
L 148.344843 -71.681854 
L 145.38718 -68.925479 
L 142.429516 -66.431115 
L 139.471853 -64.183023 
L 136.51419 -62.165109 
L 133.556526 -60.361145 
L 130.598863 -58.754977 
L 127.6412 -57.330706 
L 124.683536 -56.072843 
L 121.725873 -54.966438 
L 118.76821 -53.99719 
L 115.810546 -53.151532 
L 112.852883 -52.416689 
L 109.89522 -51.780724 
L 106.937557 -51.23256 
L 103.979893 -50.761988 
L 101.02223 -50.359662 
L 98.064567 -50.017077 
L 95.106903 -49.726545 
L 92.14924 -49.481158 
L 89.191577 -49.27474 
L 86.233913 -49.101808 
L 83.27625 -48.957519 
z
" style="stroke: #2ecc71"/>
    </defs>
    <g clip-path="url(#p312eac50f7)">
     <use xlink:href="#m03223eb15e" x="0" y="420.48" style="fill: #2ecc71; fill-opacity: 0.3; stroke: #2ecc71"/>
    </g>
   </g>
   <g id="PolyCollection_2">
    <defs>
     <path id="m8fd04fa51e" d="M 185.252335 -49.78586 
L 185.252335 -48.3125 
L 187.627716 -48.3125 
L 190.003098 -48.3125 
L 192.37848 -48.3125 
L 194.753862 -48.3125 
L 197.129243 -48.3125 
L 199.504625 -48.3125 
L 201.880007 -48.3125 
L 204.255389 -48.3125 
L 206.63077 -48.3125 
L 209.006152 -48.3125 
L 211.381534 -48.3125 
L 213.756916 -48.3125 
L 216.132297 -48.3125 
L 218.507679 -48.3125 
L 220.883061 -48.3125 
L 223.258442 -48.3125 
L 225.633824 -48.3125 
L 228.009206 -48.3125 
L 230.384588 -48.3125 
L 232.759969 -48.3125 
L 235.135351 -48.3125 
L 237.510733 -48.3125 
L 239.886115 -48.3125 
L 242.261496 -48.3125 
L 244.636878 -48.3125 
L 247.01226 -48.3125 
L 249.387642 -48.3125 
L 251.763023 -48.3125 
L 254.138405 -48.3125 
L 256.513787 -48.3125 
L 258.889169 -48.3125 
L 261.26455 -48.3125 
L 263.639932 -48.3125 
L 266.015314 -48.3125 
L 268.390695 -48.3125 
L 270.766077 -48.3125 
L 273.141459 -48.3125 
L 275.516841 -48.3125 
L 277.892222 -48.3125 
L 280.267604 -48.3125 
L 282.642986 -48.3125 
L 285.018368 -48.3125 
L 287.393749 -48.3125 
L 289.769131 -48.3125 
L 292.144513 -48.3125 
L 294.519895 -48.3125 
L 296.895276 -48.3125 
L 299.270658 -48.3125 
L 301.64604 -48.3125 
L 304.021422 -48.3125 
L 306.396803 -48.3125 
L 308.772185 -48.3125 
L 311.147567 -48.3125 
L 313.522948 -48.3125 
L 315.89833 -48.3125 
L 318.273712 -48.3125 
L 320.649094 -48.3125 
L 323.024475 -48.3125 
L 325.399857 -48.3125 
L 327.775239 -48.3125 
L 330.150621 -48.3125 
L 332.526002 -48.3125 
L 334.901384 -48.3125 
L 337.276766 -48.3125 
L 339.652148 -48.3125 
L 342.027529 -48.3125 
L 344.402911 -48.3125 
L 346.778293 -48.3125 
L 349.153675 -48.3125 
L 351.529056 -48.3125 
L 353.904438 -48.3125 
L 356.27982 -48.3125 
L 358.655201 -48.3125 
L 361.030583 -48.3125 
L 363.405965 -48.3125 
L 365.781347 -48.3125 
L 368.156728 -48.3125 
L 370.53211 -48.3125 
L 372.907492 -48.3125 
L 375.282874 -48.3125 
L 377.658255 -48.3125 
L 380.033637 -48.3125 
L 382.409019 -48.3125 
L 384.784401 -48.3125 
L 387.159782 -48.3125 
L 389.535164 -48.3125 
L 391.910546 -48.3125 
L 394.285928 -48.3125 
L 396.661309 -48.3125 
L 399.036691 -48.3125 
L 401.412073 -48.3125 
L 403.787454 -48.3125 
L 406.162836 -48.3125 
L 408.538218 -48.3125 
L 410.9136 -48.3125 
L 413.288981 -48.3125 
L 415.664363 -48.3125 
L 418.039745 -48.3125 
L 420.415127 -48.3125 
L 422.790508 -48.3125 
L 425.16589 -48.3125 
L 427.541272 -48.3125 
L 429.916654 -48.3125 
L 432.292035 -48.3125 
L 434.667417 -48.3125 
L 437.042799 -48.3125 
L 439.418181 -48.3125 
L 441.793562 -48.3125 
L 444.168944 -48.3125 
L 446.544326 -48.3125 
L 448.919707 -48.3125 
L 451.295089 -48.3125 
L 453.670471 -48.3125 
L 456.045853 -48.3125 
L 458.421234 -48.3125 
L 460.796616 -48.3125 
L 463.171998 -48.3125 
L 465.54738 -48.3125 
L 467.922761 -48.3125 
L 470.298143 -48.3125 
L 472.673525 -48.3125 
L 475.048907 -48.3125 
L 477.424288 -48.3125 
L 479.79967 -48.3125 
L 482.175052 -48.3125 
L 484.550434 -48.3125 
L 486.925815 -48.3125 
L 489.301197 -48.3125 
L 491.676579 -48.3125 
L 494.051961 -48.3125 
L 496.427342 -48.3125 
L 498.802724 -48.3125 
L 501.178106 -48.3125 
L 503.553487 -48.3125 
L 505.928869 -48.3125 
L 508.304251 -48.3125 
L 510.679633 -48.3125 
L 513.055014 -48.3125 
L 515.430396 -48.3125 
L 517.805778 -48.3125 
L 520.18116 -48.3125 
L 522.556541 -48.3125 
L 524.931923 -48.3125 
L 527.307305 -48.3125 
L 529.682687 -48.3125 
L 532.058068 -48.3125 
L 534.43345 -48.3125 
L 536.808832 -48.3125 
L 539.184214 -48.3125 
L 541.559595 -48.3125 
L 543.934977 -48.3125 
L 546.310359 -48.3125 
L 548.68574 -48.3125 
L 551.061122 -48.3125 
L 553.436504 -48.3125 
L 555.811886 -48.3125 
L 558.187267 -48.3125 
L 560.562649 -48.3125 
L 562.938031 -48.3125 
L 565.313413 -48.3125 
L 567.688794 -48.3125 
L 570.064176 -48.3125 
L 572.439558 -48.3125 
L 574.81494 -48.3125 
L 577.190321 -48.3125 
L 579.565703 -48.3125 
L 581.941085 -48.3125 
L 584.316467 -48.3125 
L 586.691848 -48.3125 
L 589.06723 -48.3125 
L 591.442612 -48.3125 
L 593.817993 -48.3125 
L 596.193375 -48.3125 
L 598.568757 -48.3125 
L 600.944139 -48.3125 
L 603.31952 -48.3125 
L 605.694902 -48.3125 
L 608.070284 -48.3125 
L 610.445666 -48.3125 
L 612.821047 -48.3125 
L 615.196429 -48.3125 
L 617.571811 -48.3125 
L 619.947193 -48.3125 
L 622.322574 -48.3125 
L 624.697956 -48.3125 
L 627.073338 -48.3125 
L 629.44872 -48.3125 
L 631.824101 -48.3125 
L 634.199483 -48.3125 
L 636.574865 -48.3125 
L 638.950246 -48.3125 
L 641.325628 -48.3125 
L 643.70101 -48.3125 
L 646.076392 -48.3125 
L 648.451773 -48.3125 
L 650.827155 -48.3125 
L 653.202537 -48.3125 
L 655.577919 -48.3125 
L 657.9533 -48.3125 
L 657.9533 -49.816851 
L 657.9533 -49.816851 
L 655.577919 -50.039868 
L 653.202537 -50.291884 
L 650.827155 -50.576031 
L 648.451773 -50.895684 
L 646.076392 -51.254472 
L 643.70101 -51.65628 
L 641.325628 -52.105253 
L 638.950246 -52.605797 
L 636.574865 -53.16258 
L 634.199483 -53.780525 
L 631.824101 -54.464806 
L 629.44872 -55.220835 
L 627.073338 -56.054253 
L 624.697956 -56.970911 
L 622.322574 -57.97685 
L 619.947193 -59.078279 
L 617.571811 -60.281545 
L 615.196429 -61.593102 
L 612.821047 -63.019478 
L 610.445666 -64.567233 
L 608.070284 -66.242917 
L 605.694902 -68.053028 
L 603.31952 -70.003958 
L 600.944139 -72.101942 
L 598.568757 -74.353008 
L 596.193375 -76.762919 
L 593.817993 -79.337113 
L 591.442612 -82.080651 
L 589.06723 -84.998155 
L 586.691848 -88.093753 
L 584.316467 -91.371023 
L 581.941085 -94.832939 
L 579.565703 -98.481818 
L 577.190321 -102.319276 
L 574.81494 -106.346182 
L 572.439558 -110.562624 
L 570.064176 -114.967867 
L 567.688794 -119.560335 
L 565.313413 -124.337585 
L 562.938031 -129.296296 
L 560.562649 -134.43226 
L 558.187267 -139.740382 
L 555.811886 -145.214692 
L 553.436504 -150.848354 
L 551.061122 -156.633694 
L 548.68574 -162.562224 
L 546.310359 -168.624683 
L 543.934977 -174.811074 
L 541.559595 -181.11071 
L 539.184214 -187.512273 
L 536.808832 -194.003861 
L 534.43345 -200.573052 
L 532.058068 -207.206964 
L 529.682687 -213.892318 
L 527.307305 -220.615501 
L 524.931923 -227.362632 
L 522.556541 -234.11962 
L 520.18116 -240.872231 
L 517.805778 -247.606144 
L 515.430396 -254.30701 
L 513.055014 -260.960504 
L 510.679633 -267.552375 
L 508.304251 -274.068496 
L 505.928869 -280.494908 
L 503.553487 -286.817857 
L 501.178106 -293.023833 
L 498.802724 -299.099606 
L 496.427342 -305.032256 
L 494.051961 -310.809205 
L 491.676579 -316.418241 
L 489.301197 -321.84755 
L 486.925815 -327.085742 
L 484.550434 -332.121878 
L 482.175052 -336.945494 
L 479.79967 -341.546636 
L 477.424288 -345.915887 
L 475.048907 -350.044399 
L 472.673525 -353.923928 
L 470.298143 -357.546867 
L 467.922761 -360.906289 
L 465.54738 -363.995977 
L 463.171998 -366.810474 
L 460.796616 -369.345113 
L 458.421234 -371.596065 
L 456.045853 -373.56037 
L 453.670471 -375.235979 
L 451.295089 -376.621784 
L 448.919707 -377.717645 
L 446.544326 -378.524418 
L 444.168944 -379.043965 
L 441.793562 -379.279167 
L 439.418181 -379.233921 
L 437.042799 -378.913134 
L 434.667417 -378.3227 
L 432.292035 -377.46947 
L 429.916654 -376.361211 
L 427.541272 -375.006551 
L 425.16589 -373.414917 
L 422.790508 -371.596455 
L 420.415127 -369.561951 
L 418.039745 -367.322726 
L 415.664363 -364.890542 
L 413.288981 -362.277485 
L 410.9136 -359.495849 
L 408.538218 -356.558017 
L 406.162836 -353.47634 
L 403.787454 -350.263009 
L 401.412073 -346.92994 
L 399.036691 -343.488657 
L 396.661309 -339.950176 
L 394.285928 -336.324911 
L 391.910546 -332.622573 
L 389.535164 -328.852096 
L 387.159782 -325.021566 
L 384.784401 -321.138168 
L 382.409019 -317.208149 
L 380.033637 -313.236795 
L 377.658255 -309.22843 
L 375.282874 -305.186422 
L 372.907492 -301.113218 
L 370.53211 -297.010383 
L 368.156728 -292.878662 
L 365.781347 -288.718057 
L 363.405965 -284.527906 
L 361.030583 -280.306987 
L 358.655201 -276.053621 
L 356.27982 -271.765786 
L 353.904438 -267.441236 
L 351.529056 -263.07762 
L 349.153675 -258.672604 
L 346.778293 -254.223991 
L 344.402911 -249.729834 
L 342.027529 -245.188545 
L 339.652148 -240.598996 
L 337.276766 -235.960608 
L 334.901384 -231.273431 
L 332.526002 -226.538209 
L 330.150621 -221.756432 
L 327.775239 -216.930373 
L 325.399857 -212.06311 
L 323.024475 -207.158534 
L 320.649094 -202.221339 
L 318.273712 -197.257003 
L 315.89833 -192.271746 
L 313.522948 -187.272484 
L 311.147567 -182.266767 
L 308.772185 -177.262705 
L 306.396803 -172.268889 
L 304.021422 -167.294302 
L 301.64604 -162.348224 
L 299.270658 -157.440133 
L 296.895276 -152.579608 
L 294.519895 -147.776225 
L 292.144513 -143.039459 
L 289.769131 -138.378585 
L 287.393749 -133.80259 
L 285.018368 -129.32008 
L 282.642986 -124.939206 
L 280.267604 -120.667584 
L 277.892222 -116.512241 
L 275.516841 -112.479551 
L 273.141459 -108.575195 
L 270.766077 -104.804126 
L 268.390695 -101.170541 
L 266.015314 -97.677869 
L 263.639932 -94.328763 
L 261.26455 -91.125104 
L 258.889169 -88.068016 
L 256.513787 -85.157881 
L 254.138405 -82.394373 
L 251.763023 -79.776484 
L 249.387642 -77.302574 
L 247.01226 -74.970404 
L 244.636878 -72.777193 
L 242.261496 -70.719665 
L 239.886115 -68.794103 
L 237.510733 -66.996404 
L 235.135351 -65.322132 
L 232.759969 -63.766573 
L 230.384588 -62.32479 
L 228.009206 -60.991672 
L 225.633824 -59.761986 
L 223.258442 -58.630422 
L 220.883061 -57.591638 
L 218.507679 -56.6403 
L 216.132297 -55.771119 
L 213.756916 -54.978886 
L 211.381534 -54.258498 
L 209.006152 -53.60499 
L 206.63077 -53.01355 
L 204.255389 -52.479543 
L 201.880007 -51.998525 
L 199.504625 -51.566254 
L 197.129243 -51.178698 
L 194.753862 -50.832043 
L 192.37848 -50.522695 
L 190.003098 -50.247282 
L 187.627716 -50.002649 
L 185.252335 -49.78586 
z
" style="stroke: #e74c3c"/>
    </defs>
    <g clip-path="url(#p312eac50f7)">
     <use xlink:href="#m8fd04fa51e" x="0" y="420.48" style="fill: #e74c3c; fill-opacity: 0.3; stroke: #e74c3c"/>
    </g>
   </g>
   <g id="patch_3">
    <path d="M 53.8475 372.1675 
L 53.8475 24.6525 
" style="fill: none; stroke: #cccccc; stroke-width: 1.5; stroke-linejoin: miter; stroke-linecap: square"/>
   </g>
   <g id="patch_4">
    <path d="M 53.8475 372.1675 
L 701.28 372.1675 
" style="fill: none; stroke: #cccccc; stroke-width: 1.5; stroke-linejoin: miter; stroke-linecap: square"/>
   </g>
   <g id="text_16">
    <!-- Distribution of Absolute Errors -->
    <g style="fill: #262626" transform="translate(271.74375 18.6525) scale(0.16 -0.16)">
     <defs>
      <path id="ArialMT-62" d="M 941 0 
L 419 0 
L 419 4581 
L 981 4581 
L 981 2947 
Q 1338 3394 1891 3394 
Q 2197 3394 2470 3270 
Q 2744 3147 2920 2923 
Q 3097 2700 3197 2384 
Q 3297 2069 3297 1709 
Q 3297 856 2875 390 
Q 2453 -75 1863 -75 
Q 1275 -75 941 416 
L 941 0 
z
M 934 1684 
Q 934 1088 1097 822 
Q 1363 388 1816 388 
Q 2184 388 2453 708 
Q 2722 1028 2722 1663 
Q 2722 2313 2464 2622 
Q 2206 2931 1841 2931 
Q 1472 2931 1203 2611 
Q 934 2291 934 1684 
z
" transform="scale(0.015625)"/>
      <path id="ArialMT-75" d="M 2597 0 
L 2597 488 
Q 2209 -75 1544 -75 
Q 1250 -75 995 37 
Q 741 150 617 320 
Q 494 491 444 738 
Q 409 903 409 1263 
L 409 3319 
L 972 3319 
L 972 1478 
Q 972 1038 1006 884 
Q 1059 663 1231 536 
Q 1403 409 1656 409 
Q 1909 409 2131 539 
Q 2353 669 2445 892 
Q 2538 1116 2538 1541 
L 2538 3319 
L 3100 3319 
L 3100 0 
L 2597 0 
z
" transform="scale(0.015625)"/>
      <path id="ArialMT-66" d="M 556 0 
L 556 2881 
L 59 2881 
L 59 3319 
L 556 3319 
L 556 3672 
Q 556 4006 616 4169 
Q 697 4388 901 4523 
Q 1106 4659 1475 4659 
Q 1713 4659 2000 4603 
L 1916 4113 
Q 1741 4144 1584 4144 
Q 1328 4144 1222 4034 
Q 1116 3925 1116 3625 
L 1116 3319 
L 1763 3319 
L 1763 2881 
L 1116 2881 
L 1116 0 
L 556 0 
z
" transform="scale(0.015625)"/>
      <path id="ArialMT-41" d="M -9 0 
L 1750 4581 
L 2403 4581 
L 4278 0 
L 3588 0 
L 3053 1388 
L 1138 1388 
L 634 0 
L -9 0 
z
M 1313 1881 
L 2866 1881 
L 2388 3150 
Q 2169 3728 2063 4100 
Q 1975 3659 1816 3225 
L 1313 1881 
z
" transform="scale(0.015625)"/>
      <path id="ArialMT-6c" d="M 409 0 
L 409 4581 
L 972 4581 
L 972 0 
L 409 0 
z
" transform="scale(0.015625)"/>
     </defs>
     <use xlink:href="#ArialMT-44"/>
     <use xlink:href="#ArialMT-69" x="72.216797"/>
     <use xlink:href="#ArialMT-73" x="94.433594"/>
     <use xlink:href="#ArialMT-74" x="144.433594"/>
     <use xlink:href="#ArialMT-72" x="172.216797"/>
     <use xlink:href="#ArialMT-69" x="205.517578"/>
     <use xlink:href="#ArialMT-62" x="227.734375"/>
     <use xlink:href="#ArialMT-75" x="283.349609"/>
     <use xlink:href="#ArialMT-74" x="338.964844"/>
     <use xlink:href="#ArialMT-69" x="366.748047"/>
     <use xlink:href="#ArialMT-6f" x="388.964844"/>
     <use xlink:href="#ArialMT-6e" x="444.580078"/>
     <use xlink:href="#ArialMT-20" x="500.195312"/>
     <use xlink:href="#ArialMT-6f" x="527.978516"/>
     <use xlink:href="#ArialMT-66" x="583.59375"/>
     <use xlink:href="#ArialMT-20" x="611.376953"/>
     <use xlink:href="#ArialMT-41" x="633.660156"/>
     <use xlink:href="#ArialMT-62" x="700.359375"/>
     <use xlink:href="#ArialMT-73" x="755.974609"/>
     <use xlink:href="#ArialMT-6f" x="805.974609"/>
     <use xlink:href="#ArialMT-6c" x="861.589844"/>
     <use xlink:href="#ArialMT-75" x="883.806641"/>
     <use xlink:href="#ArialMT-74" x="939.421875"/>
     <use xlink:href="#ArialMT-65" x="967.205078"/>
     <use xlink:href="#ArialMT-20" x="1022.820312"/>
     <use xlink:href="#ArialMT-45" x="1050.603516"/>
     <use xlink:href="#ArialMT-72" x="1117.302734"/>
     <use xlink:href="#ArialMT-72" x="1150.603516"/>
     <use xlink:href="#ArialMT-6f" x="1183.904297"/>
     <use xlink:href="#ArialMT-72" x="1239.519531"/>
     <use xlink:href="#ArialMT-73" x="1272.820312"/>
    </g>
   </g>
   <g id="legend_1">
    <g id="patch_5">
     <path d="M 497.20125 68.775 
L 692.88 68.775 
Q 695.28 68.775 695.28 66.375 
L 695.28 33.0525 
Q 695.28 30.6525 692.88 30.6525 
L 497.20125 30.6525 
Q 494.80125 30.6525 494.80125 33.0525 
L 494.80125 66.375 
Q 494.80125 68.775 497.20125 68.775 
z
" style="fill: #ffffff; opacity: 0.8; stroke: #cccccc; stroke-linejoin: miter"/>
    </g>
    <g id="patch_6">
     <path d="M 499.60125 44.188125 
L 523.60125 44.188125 
L 523.60125 35.788125 
L 499.60125 35.788125 
z
" style="fill: #2ecc71; fill-opacity: 0.3; stroke: #2ecc71; stroke-linejoin: miter"/>
    </g>
    <g id="text_17">
     <!-- Training (μ=1.62%, σ=0.96%) -->
     <g style="fill: #262626" transform="translate(533.20125 44.188125) scale(0.12 -0.12)">
      <defs>
       <path id="ArialMT-54" d="M 1659 0 
L 1659 4041 
L 150 4041 
L 150 4581 
L 3781 4581 
L 3781 4041 
L 2266 4041 
L 2266 0 
L 1659 0 
z
" transform="scale(0.015625)"/>
       <path id="ArialMT-61" d="M 2588 409 
Q 2275 144 1986 34 
Q 1697 -75 1366 -75 
Q 819 -75 525 192 
Q 231 459 231 875 
Q 231 1119 342 1320 
Q 453 1522 633 1644 
Q 813 1766 1038 1828 
Q 1203 1872 1538 1913 
Q 2219 1994 2541 2106 
Q 2544 2222 2544 2253 
Q 2544 2597 2384 2738 
Q 2169 2928 1744 2928 
Q 1347 2928 1158 2789 
Q 969 2650 878 2297 
L 328 2372 
Q 403 2725 575 2942 
Q 747 3159 1072 3276 
Q 1397 3394 1825 3394 
Q 2250 3394 2515 3294 
Q 2781 3194 2906 3042 
Q 3031 2891 3081 2659 
Q 3109 2516 3109 2141 
L 3109 1391 
Q 3109 606 3145 398 
Q 3181 191 3288 0 
L 2700 0 
Q 2613 175 2588 409 
z
M 2541 1666 
Q 2234 1541 1622 1453 
Q 1275 1403 1131 1340 
Q 988 1278 909 1158 
Q 831 1038 831 891 
Q 831 666 1001 516 
Q 1172 366 1500 366 
Q 1825 366 2078 508 
Q 2331 650 2450 897 
Q 2541 1088 2541 1459 
L 2541 1666 
z
" transform="scale(0.015625)"/>
       <path id="ArialMT-67" d="M 319 -275 
L 866 -356 
Q 900 -609 1056 -725 
Q 1266 -881 1628 -881 
Q 2019 -881 2231 -725 
Q 2444 -569 2519 -288 
Q 2563 -116 2559 434 
Q 2191 0 1641 0 
Q 956 0 581 494 
Q 206 988 206 1678 
Q 206 2153 378 2554 
Q 550 2956 876 3175 
Q 1203 3394 1644 3394 
Q 2231 3394 2613 2919 
L 2613 3319 
L 3131 3319 
L 3131 450 
Q 3131 -325 2973 -648 
Q 2816 -972 2473 -1159 
Q 2131 -1347 1631 -1347 
Q 1038 -1347 672 -1080 
Q 306 -813 319 -275 
z
M 784 1719 
Q 784 1066 1043 766 
Q 1303 466 1694 466 
Q 2081 466 2343 764 
Q 2606 1063 2606 1700 
Q 2606 2309 2336 2618 
Q 2066 2928 1684 2928 
Q 1309 2928 1046 2623 
Q 784 2319 784 1719 
z
" transform="scale(0.015625)"/>
       <path id="ArialMT-3bc" d="M 3181 3319 
L 3181 0 
L 2678 0 
L 2678 394 
Q 2516 144 2356 50 
Q 2138 -78 1847 -78 
Q 1588 -78 1388 25 
Q 1238 103 1056 334 
L 1056 -1272 
L 500 -1272 
L 500 3319 
L 1056 3319 
L 1056 1913 
Q 1056 1147 1137 920 
Q 1219 694 1401 562 
Q 1584 431 1822 431 
Q 2072 431 2269 568 
Q 2466 706 2547 923 
Q 2628 1141 2628 1903 
L 2628 3319 
L 3181 3319 
z
" transform="scale(0.015625)"/>
       <path id="ArialMT-3d" d="M 3381 2694 
L 356 2694 
L 356 3219 
L 3381 3219 
L 3381 2694 
z
M 3381 1303 
L 356 1303 
L 356 1828 
L 3381 1828 
L 3381 1303 
z
" transform="scale(0.015625)"/>
       <path id="ArialMT-36" d="M 3184 3459 
L 2625 3416 
Q 2550 3747 2413 3897 
Q 2184 4138 1850 4138 
Q 1581 4138 1378 3988 
Q 1113 3794 959 3422 
Q 806 3050 800 2363 
Q 1003 2672 1297 2822 
Q 1591 2972 1913 2972 
Q 2475 2972 2870 2558 
Q 3266 2144 3266 1488 
Q 3266 1056 3080 686 
Q 2894 316 2569 119 
Q 2244 -78 1831 -78 
Q 1128 -78 684 439 
Q 241 956 241 2144 
Q 241 3472 731 4075 
Q 1159 4600 1884 4600 
Q 2425 4600 2770 4297 
Q 3116 3994 3184 3459 
z
M 888 1484 
Q 888 1194 1011 928 
Q 1134 663 1356 523 
Q 1578 384 1822 384 
Q 2178 384 2434 671 
Q 2691 959 2691 1453 
Q 2691 1928 2437 2201 
Q 2184 2475 1800 2475 
Q 1419 2475 1153 2201 
Q 888 1928 888 1484 
z
" transform="scale(0.015625)"/>
       <path id="ArialMT-2c" d="M 569 0 
L 569 641 
L 1209 641 
L 1209 0 
Q 1209 -353 1084 -570 
Q 959 -788 688 -906 
L 531 -666 
Q 709 -588 793 -436 
Q 878 -284 888 0 
L 569 0 
z
" transform="scale(0.015625)"/>
       <path id="ArialMT-3c3" d="M 3809 3319 
L 3809 2863 
L 2906 2863 
Q 3322 2475 3322 1656 
Q 3322 766 2867 345 
Q 2413 -75 1763 -75 
Q 1088 -75 650 362 
Q 213 800 213 1659 
Q 213 2544 667 2969 
Q 1122 3394 1763 3394 
Q 1997 3394 2294 3319 
L 3809 3319 
z
M 1753 2928 
Q 1344 2928 1067 2609 
Q 791 2291 791 1656 
Q 791 1025 1061 706 
Q 1331 388 1763 388 
Q 2216 388 2483 720 
Q 2750 1053 2750 1659 
Q 2750 2213 2504 2570 
Q 2259 2928 1753 2928 
z
" transform="scale(0.015625)"/>
       <path id="ArialMT-39" d="M 350 1059 
L 891 1109 
Q 959 728 1153 556 
Q 1347 384 1650 384 
Q 1909 384 2104 503 
Q 2300 622 2425 820 
Q 2550 1019 2634 1356 
Q 2719 1694 2719 2044 
Q 2719 2081 2716 2156 
Q 2547 1888 2255 1720 
Q 1963 1553 1622 1553 
Q 1053 1553 659 1965 
Q 266 2378 266 3053 
Q 266 3750 677 4175 
Q 1088 4600 1706 4600 
Q 2153 4600 2523 4359 
Q 2894 4119 3086 3673 
Q 3278 3228 3278 2384 
Q 3278 1506 3087 986 
Q 2897 466 2520 194 
Q 2144 -78 1638 -78 
Q 1100 -78 759 220 
Q 419 519 350 1059 
z
M 2653 3081 
Q 2653 3566 2395 3850 
Q 2138 4134 1775 4134 
Q 1400 4134 1122 3828 
Q 844 3522 844 3034 
Q 844 2597 1108 2323 
Q 1372 2050 1759 2050 
Q 2150 2050 2401 2323 
Q 2653 2597 2653 3081 
z
" transform="scale(0.015625)"/>
      </defs>
      <use xlink:href="#ArialMT-54"/>
      <use xlink:href="#ArialMT-72" x="57.333984"/>
      <use xlink:href="#ArialMT-61" x="90.634766"/>
      <use xlink:href="#ArialMT-69" x="146.25"/>
      <use xlink:href="#ArialMT-6e" x="168.466797"/>
      <use xlink:href="#ArialMT-69" x="224.082031"/>
      <use xlink:href="#ArialMT-6e" x="246.298828"/>
      <use xlink:href="#ArialMT-67" x="301.914062"/>
      <use xlink:href="#ArialMT-20" x="357.529297"/>
      <use xlink:href="#ArialMT-28" x="385.3125"/>
      <use xlink:href="#ArialMT-3bc" x="418.613281"/>
      <use xlink:href="#ArialMT-3d" x="476.230469"/>
      <use xlink:href="#ArialMT-31" x="534.628906"/>
      <use xlink:href="#ArialMT-2e" x="590.244141"/>
      <use xlink:href="#ArialMT-36" x="618.027344"/>
      <use xlink:href="#ArialMT-32" x="673.642578"/>
      <use xlink:href="#ArialMT-25" x="729.257812"/>
      <use xlink:href="#ArialMT-2c" x="818.173828"/>
      <use xlink:href="#ArialMT-20" x="845.957031"/>
      <use xlink:href="#ArialMT-3c3" x="873.740234"/>
      <use xlink:href="#ArialMT-3d" x="935.458984"/>
      <use xlink:href="#ArialMT-30" x="993.857422"/>
      <use xlink:href="#ArialMT-2e" x="1049.472656"/>
      <use xlink:href="#ArialMT-39" x="1077.255859"/>
      <use xlink:href="#ArialMT-36" x="1132.871094"/>
      <use xlink:href="#ArialMT-25" x="1188.486328"/>
      <use xlink:href="#ArialMT-29" x="1277.402344"/>
     </g>
    </g>
    <g id="patch_7">
     <path d="M 499.60125 61.449375 
L 523.60125 61.449375 
L 523.60125 53.049375 
L 499.60125 53.049375 
z
" style="fill: #e74c3c; fill-opacity: 0.3; stroke: #e74c3c; stroke-linejoin: miter"/>
    </g>
    <g id="text_18">
     <!-- Testing (μ=2.43%, σ=0.69%) -->
     <g style="fill: #262626" transform="translate(533.20125 61.449375) scale(0.12 -0.12)">
      <use xlink:href="#ArialMT-54"/>
      <use xlink:href="#ArialMT-65" x="49.958984"/>
      <use xlink:href="#ArialMT-73" x="105.574219"/>
      <use xlink:href="#ArialMT-74" x="155.574219"/>
      <use xlink:href="#ArialMT-69" x="183.357422"/>
      <use xlink:href="#ArialMT-6e" x="205.574219"/>
      <use xlink:href="#ArialMT-67" x="261.189453"/>
      <use xlink:href="#ArialMT-20" x="316.804688"/>
      <use xlink:href="#ArialMT-28" x="344.587891"/>
      <use xlink:href="#ArialMT-3bc" x="377.888672"/>
      <use xlink:href="#ArialMT-3d" x="435.505859"/>
      <use xlink:href="#ArialMT-32" x="493.904297"/>
      <use xlink:href="#ArialMT-2e" x="549.519531"/>
      <use xlink:href="#ArialMT-34" x="577.302734"/>
      <use xlink:href="#ArialMT-33" x="632.917969"/>
      <use xlink:href="#ArialMT-25" x="688.533203"/>
      <use xlink:href="#ArialMT-2c" x="777.449219"/>
      <use xlink:href="#ArialMT-20" x="805.232422"/>
      <use xlink:href="#ArialMT-3c3" x="833.015625"/>
      <use xlink:href="#ArialMT-3d" x="894.734375"/>
      <use xlink:href="#ArialMT-30" x="953.132812"/>
      <use xlink:href="#ArialMT-2e" x="1008.748047"/>
      <use xlink:href="#ArialMT-36" x="1036.53125"/>
      <use xlink:href="#ArialMT-39" x="1092.146484"/>
      <use xlink:href="#ArialMT-25" x="1147.761719"/>
      <use xlink:href="#ArialMT-29" x="1236.677734"/>
     </g>
    </g>
   </g>
  </g>
 </g>
 <defs>
  <clipPath id="p312eac50f7">
   <rect x="53.8475" y="24.6525" width="647.4325" height="347.515"/>
  </clipPath>
 </defs>
</svg>
