<?xml version="1.0" encoding="utf-8" standalone="no"?>
<!DOCTYPE svg PUBLIC "-//W3C//DTD SVG 1.1//EN"
  "http://www.w3.org/Graphics/SVG/1.1/DTD/svg11.dtd">
<svg xmlns:xlink="http://www.w3.org/1999/xlink" width="708.48pt" height="420.48pt" viewBox="0 0 708.48 420.48" xmlns="http://www.w3.org/2000/svg" version="1.1">
 <metadata>
  <rdf:RDF xmlns:dc="http://purl.org/dc/elements/1.1/" xmlns:cc="http://creativecommons.org/ns#" xmlns:rdf="http://www.w3.org/1999/02/22-rdf-syntax-ns#">
   <cc:Work>
    <dc:type rdf:resource="http://purl.org/dc/dcmitype/StillImage"/>
    <dc:date>2025-01-07T20:35:13.387811</dc:date>
    <dc:format>image/svg+xml</dc:format>
    <dc:creator>
     <cc:Agent>
      <dc:title>Matplotlib v3.9.3, https://matplotlib.org/</dc:title>
     </cc:Agent>
    </dc:creator>
   </cc:Work>
  </rdf:RDF>
 </metadata>
 <defs>
  <style type="text/css">*{stroke-linejoin: round; stroke-linecap: butt}</style>
 </defs>
 <g id="figure_1">
  <g id="patch_1">
   <path d="M 0 420.48 
L 708.48 420.48 
L 708.48 -0 
L 0 -0 
z
" style="fill: #ffffff"/>
  </g>
  <g id="axes_1">
   <g id="patch_2">
    <path d="M 60.520625 372.1675 
L 701.28 372.1675 
L 701.28 24.6525 
L 60.520625 24.6525 
z
" style="fill: #ffffff"/>
   </g>
   <g id="matplotlib.axis_1">
    <g id="xtick_1">
     <g id="line2d_1">
      <path d="M 80.894928 372.1675 
L 80.894928 24.6525 
" clip-path="url(#pf7cded94dc)" style="fill: none; stroke: #cccccc; stroke-opacity: 0.3; stroke-width: 0.5; stroke-linecap: round"/>
     </g>
     <g id="text_1">
      <!-- −2 -->
      <g style="fill: #262626" transform="translate(74.053991 387.756875) scale(0.12 -0.12)">
       <defs>
        <path id="ArialMT-2212" d="M 3381 1997 
L 356 1997 
L 356 2522 
L 3381 2522 
L 3381 1997 
z
" transform="scale(0.015625)"/>
        <path id="ArialMT-32" d="M 3222 541 
L 3222 0 
L 194 0 
Q 188 203 259 391 
Q 375 700 629 1000 
Q 884 1300 1366 1694 
Q 2113 2306 2375 2664 
Q 2638 3022 2638 3341 
Q 2638 3675 2398 3904 
Q 2159 4134 1775 4134 
Q 1369 4134 1125 3890 
Q 881 3647 878 3216 
L 300 3275 
Q 359 3922 746 4261 
Q 1134 4600 1788 4600 
Q 2447 4600 2831 4234 
Q 3216 3869 3216 3328 
Q 3216 3053 3103 2787 
Q 2991 2522 2730 2228 
Q 2469 1934 1863 1422 
Q 1356 997 1212 845 
Q 1069 694 975 541 
L 3222 541 
z
" transform="scale(0.015625)"/>
       </defs>
       <use xlink:href="#ArialMT-2212"/>
       <use xlink:href="#ArialMT-32" x="58.398438"/>
      </g>
     </g>
    </g>
    <g id="xtick_2">
     <g id="line2d_2">
      <path d="M 155.295565 372.1675 
L 155.295565 24.6525 
" clip-path="url(#pf7cded94dc)" style="fill: none; stroke: #cccccc; stroke-opacity: 0.3; stroke-width: 0.5; stroke-linecap: round"/>
     </g>
     <g id="text_2">
      <!-- −1 -->
      <g style="fill: #262626" transform="translate(148.454627 387.756875) scale(0.12 -0.12)">
       <defs>
        <path id="ArialMT-31" d="M 2384 0 
L 1822 0 
L 1822 3584 
Q 1619 3391 1289 3197 
Q 959 3003 697 2906 
L 697 3450 
Q 1169 3672 1522 3987 
Q 1875 4303 2022 4600 
L 2384 4600 
L 2384 0 
z
" transform="scale(0.015625)"/>
       </defs>
       <use xlink:href="#ArialMT-2212"/>
       <use xlink:href="#ArialMT-31" x="58.398438"/>
      </g>
     </g>
    </g>
    <g id="xtick_3">
     <g id="line2d_3">
      <path d="M 229.696202 372.1675 
L 229.696202 24.6525 
" clip-path="url(#pf7cded94dc)" style="fill: none; stroke: #cccccc; stroke-opacity: 0.3; stroke-width: 0.5; stroke-linecap: round"/>
     </g>
     <g id="text_3">
      <!-- 0 -->
      <g style="fill: #262626" transform="translate(226.359639 387.756875) scale(0.12 -0.12)">
       <defs>
        <path id="ArialMT-30" d="M 266 2259 
Q 266 3072 433 3567 
Q 600 4063 929 4331 
Q 1259 4600 1759 4600 
Q 2128 4600 2406 4451 
Q 2684 4303 2865 4023 
Q 3047 3744 3150 3342 
Q 3253 2941 3253 2259 
Q 3253 1453 3087 958 
Q 2922 463 2592 192 
Q 2263 -78 1759 -78 
Q 1097 -78 719 397 
Q 266 969 266 2259 
z
M 844 2259 
Q 844 1131 1108 757 
Q 1372 384 1759 384 
Q 2147 384 2411 759 
Q 2675 1134 2675 2259 
Q 2675 3391 2411 3762 
Q 2147 4134 1753 4134 
Q 1366 4134 1134 3806 
Q 844 3388 844 2259 
z
" transform="scale(0.015625)"/>
       </defs>
       <use xlink:href="#ArialMT-30"/>
      </g>
     </g>
    </g>
    <g id="xtick_4">
     <g id="line2d_4">
      <path d="M 304.096838 372.1675 
L 304.096838 24.6525 
" clip-path="url(#pf7cded94dc)" style="fill: none; stroke: #cccccc; stroke-opacity: 0.3; stroke-width: 0.5; stroke-linecap: round"/>
     </g>
     <g id="text_4">
      <!-- 1 -->
      <g style="fill: #262626" transform="translate(300.760276 387.756875) scale(0.12 -0.12)">
       <use xlink:href="#ArialMT-31"/>
      </g>
     </g>
    </g>
    <g id="xtick_5">
     <g id="line2d_5">
      <path d="M 378.497475 372.1675 
L 378.497475 24.6525 
" clip-path="url(#pf7cded94dc)" style="fill: none; stroke: #cccccc; stroke-opacity: 0.3; stroke-width: 0.5; stroke-linecap: round"/>
     </g>
     <g id="text_5">
      <!-- 2 -->
      <g style="fill: #262626" transform="translate(375.160913 387.756875) scale(0.12 -0.12)">
       <use xlink:href="#ArialMT-32"/>
      </g>
     </g>
    </g>
    <g id="xtick_6">
     <g id="line2d_6">
      <path d="M 452.898112 372.1675 
L 452.898112 24.6525 
" clip-path="url(#pf7cded94dc)" style="fill: none; stroke: #cccccc; stroke-opacity: 0.3; stroke-width: 0.5; stroke-linecap: round"/>
     </g>
     <g id="text_6">
      <!-- 3 -->
      <g style="fill: #262626" transform="translate(449.561549 387.756875) scale(0.12 -0.12)">
       <defs>
        <path id="ArialMT-33" d="M 269 1209 
L 831 1284 
Q 928 806 1161 595 
Q 1394 384 1728 384 
Q 2125 384 2398 659 
Q 2672 934 2672 1341 
Q 2672 1728 2419 1979 
Q 2166 2231 1775 2231 
Q 1616 2231 1378 2169 
L 1441 2663 
Q 1497 2656 1531 2656 
Q 1891 2656 2178 2843 
Q 2466 3031 2466 3422 
Q 2466 3731 2256 3934 
Q 2047 4138 1716 4138 
Q 1388 4138 1169 3931 
Q 950 3725 888 3313 
L 325 3413 
Q 428 3978 793 4289 
Q 1159 4600 1703 4600 
Q 2078 4600 2393 4439 
Q 2709 4278 2876 4000 
Q 3044 3722 3044 3409 
Q 3044 3113 2884 2869 
Q 2725 2625 2413 2481 
Q 2819 2388 3044 2092 
Q 3269 1797 3269 1353 
Q 3269 753 2831 336 
Q 2394 -81 1725 -81 
Q 1122 -81 723 278 
Q 325 638 269 1209 
z
" transform="scale(0.015625)"/>
       </defs>
       <use xlink:href="#ArialMT-33"/>
      </g>
     </g>
    </g>
    <g id="xtick_7">
     <g id="line2d_7">
      <path d="M 527.298749 372.1675 
L 527.298749 24.6525 
" clip-path="url(#pf7cded94dc)" style="fill: none; stroke: #cccccc; stroke-opacity: 0.3; stroke-width: 0.5; stroke-linecap: round"/>
     </g>
     <g id="text_7">
      <!-- 4 -->
      <g style="fill: #262626" transform="translate(523.962186 387.756875) scale(0.12 -0.12)">
       <defs>
        <path id="ArialMT-34" d="M 2069 0 
L 2069 1097 
L 81 1097 
L 81 1613 
L 2172 4581 
L 2631 4581 
L 2631 1613 
L 3250 1613 
L 3250 1097 
L 2631 1097 
L 2631 0 
L 2069 0 
z
M 2069 1613 
L 2069 3678 
L 634 1613 
L 2069 1613 
z
" transform="scale(0.015625)"/>
       </defs>
       <use xlink:href="#ArialMT-34"/>
      </g>
     </g>
    </g>
    <g id="xtick_8">
     <g id="line2d_8">
      <path d="M 601.699385 372.1675 
L 601.699385 24.6525 
" clip-path="url(#pf7cded94dc)" style="fill: none; stroke: #cccccc; stroke-opacity: 0.3; stroke-width: 0.5; stroke-linecap: round"/>
     </g>
     <g id="text_8">
      <!-- 5 -->
      <g style="fill: #262626" transform="translate(598.362823 387.756875) scale(0.12 -0.12)">
       <defs>
        <path id="ArialMT-35" d="M 266 1200 
L 856 1250 
Q 922 819 1161 601 
Q 1400 384 1738 384 
Q 2144 384 2425 690 
Q 2706 997 2706 1503 
Q 2706 1984 2436 2262 
Q 2166 2541 1728 2541 
Q 1456 2541 1237 2417 
Q 1019 2294 894 2097 
L 366 2166 
L 809 4519 
L 3088 4519 
L 3088 3981 
L 1259 3981 
L 1013 2750 
Q 1425 3038 1878 3038 
Q 2478 3038 2890 2622 
Q 3303 2206 3303 1553 
Q 3303 931 2941 478 
Q 2500 -78 1738 -78 
Q 1113 -78 717 272 
Q 322 622 266 1200 
z
" transform="scale(0.015625)"/>
       </defs>
       <use xlink:href="#ArialMT-35"/>
      </g>
     </g>
    </g>
    <g id="xtick_9">
     <g id="line2d_9">
      <path d="M 676.100022 372.1675 
L 676.100022 24.6525 
" clip-path="url(#pf7cded94dc)" style="fill: none; stroke: #cccccc; stroke-opacity: 0.3; stroke-width: 0.5; stroke-linecap: round"/>
     </g>
     <g id="text_9">
      <!-- 6 -->
      <g style="fill: #262626" transform="translate(672.763459 387.756875) scale(0.12 -0.12)">
       <defs>
        <path id="ArialMT-36" d="M 3184 3459 
L 2625 3416 
Q 2550 3747 2413 3897 
Q 2184 4138 1850 4138 
Q 1581 4138 1378 3988 
Q 1113 3794 959 3422 
Q 806 3050 800 2363 
Q 1003 2672 1297 2822 
Q 1591 2972 1913 2972 
Q 2475 2972 2870 2558 
Q 3266 2144 3266 1488 
Q 3266 1056 3080 686 
Q 2894 316 2569 119 
Q 2244 -78 1831 -78 
Q 1128 -78 684 439 
Q 241 956 241 2144 
Q 241 3472 731 4075 
Q 1159 4600 1884 4600 
Q 2425 4600 2770 4297 
Q 3116 3994 3184 3459 
z
M 888 1484 
Q 888 1194 1011 928 
Q 1134 663 1356 523 
Q 1578 384 1822 384 
Q 2178 384 2434 671 
Q 2691 959 2691 1453 
Q 2691 1928 2437 2201 
Q 2184 2475 1800 2475 
Q 1419 2475 1153 2201 
Q 888 1928 888 1484 
z
" transform="scale(0.015625)"/>
       </defs>
       <use xlink:href="#ArialMT-36"/>
      </g>
     </g>
    </g>
    <g id="text_10">
     <!-- Error (%) -->
     <g style="fill: #262626" transform="translate(352.515312 410.333438) scale(0.14 -0.14)">
      <defs>
       <path id="ArialMT-45" d="M 506 0 
L 506 4581 
L 3819 4581 
L 3819 4041 
L 1113 4041 
L 1113 2638 
L 3647 2638 
L 3647 2100 
L 1113 2100 
L 1113 541 
L 3925 541 
L 3925 0 
L 506 0 
z
" transform="scale(0.015625)"/>
       <path id="ArialMT-72" d="M 416 0 
L 416 3319 
L 922 3319 
L 922 2816 
Q 1116 3169 1280 3281 
Q 1444 3394 1641 3394 
Q 1925 3394 2219 3213 
L 2025 2691 
Q 1819 2813 1613 2813 
Q 1428 2813 1281 2702 
Q 1134 2591 1072 2394 
Q 978 2094 978 1738 
L 978 0 
L 416 0 
z
" transform="scale(0.015625)"/>
       <path id="ArialMT-6f" d="M 213 1659 
Q 213 2581 725 3025 
Q 1153 3394 1769 3394 
Q 2453 3394 2887 2945 
Q 3322 2497 3322 1706 
Q 3322 1066 3130 698 
Q 2938 331 2570 128 
Q 2203 -75 1769 -75 
Q 1072 -75 642 372 
Q 213 819 213 1659 
z
M 791 1659 
Q 791 1022 1069 705 
Q 1347 388 1769 388 
Q 2188 388 2466 706 
Q 2744 1025 2744 1678 
Q 2744 2294 2464 2611 
Q 2184 2928 1769 2928 
Q 1347 2928 1069 2612 
Q 791 2297 791 1659 
z
" transform="scale(0.015625)"/>
       <path id="ArialMT-20" transform="scale(0.015625)"/>
       <path id="ArialMT-28" d="M 1497 -1347 
Q 1031 -759 709 28 
Q 388 816 388 1659 
Q 388 2403 628 3084 
Q 909 3875 1497 4659 
L 1900 4659 
Q 1522 4009 1400 3731 
Q 1209 3300 1100 2831 
Q 966 2247 966 1656 
Q 966 153 1900 -1347 
L 1497 -1347 
z
" transform="scale(0.015625)"/>
       <path id="ArialMT-25" d="M 372 3481 
Q 372 3972 619 4315 
Q 866 4659 1334 4659 
Q 1766 4659 2048 4351 
Q 2331 4044 2331 3447 
Q 2331 2866 2045 2552 
Q 1759 2238 1341 2238 
Q 925 2238 648 2547 
Q 372 2856 372 3481 
z
M 1350 4272 
Q 1141 4272 1002 4090 
Q 863 3909 863 3425 
Q 863 2984 1003 2804 
Q 1144 2625 1350 2625 
Q 1563 2625 1702 2806 
Q 1841 2988 1841 3469 
Q 1841 3913 1700 4092 
Q 1559 4272 1350 4272 
z
M 1353 -169 
L 3859 4659 
L 4316 4659 
L 1819 -169 
L 1353 -169 
z
M 3334 1075 
Q 3334 1569 3581 1911 
Q 3828 2253 4300 2253 
Q 4731 2253 5014 1945 
Q 5297 1638 5297 1041 
Q 5297 459 5011 145 
Q 4725 -169 4303 -169 
Q 3888 -169 3611 142 
Q 3334 453 3334 1075 
z
M 4316 1866 
Q 4103 1866 3964 1684 
Q 3825 1503 3825 1019 
Q 3825 581 3965 400 
Q 4106 219 4313 219 
Q 4528 219 4667 400 
Q 4806 581 4806 1063 
Q 4806 1506 4665 1686 
Q 4525 1866 4316 1866 
z
" transform="scale(0.015625)"/>
       <path id="ArialMT-29" d="M 791 -1347 
L 388 -1347 
Q 1322 153 1322 1656 
Q 1322 2244 1188 2822 
Q 1081 3291 891 3722 
Q 769 4003 388 4659 
L 791 4659 
Q 1378 3875 1659 3084 
Q 1900 2403 1900 1659 
Q 1900 816 1576 28 
Q 1253 -759 791 -1347 
z
" transform="scale(0.015625)"/>
      </defs>
      <use xlink:href="#ArialMT-45"/>
      <use xlink:href="#ArialMT-72" x="66.699219"/>
      <use xlink:href="#ArialMT-72" x="100"/>
      <use xlink:href="#ArialMT-6f" x="133.300781"/>
      <use xlink:href="#ArialMT-72" x="188.916016"/>
      <use xlink:href="#ArialMT-20" x="222.216797"/>
      <use xlink:href="#ArialMT-28" x="250"/>
      <use xlink:href="#ArialMT-25" x="283.300781"/>
      <use xlink:href="#ArialMT-29" x="372.216797"/>
     </g>
    </g>
   </g>
   <g id="matplotlib.axis_2">
    <g id="ytick_1">
     <g id="line2d_10">
      <path d="M 60.520625 372.1675 
L 701.28 372.1675 
" clip-path="url(#pf7cded94dc)" style="fill: none; stroke: #cccccc; stroke-opacity: 0.3; stroke-width: 0.5; stroke-linecap: round"/>
     </g>
     <g id="text_11">
      <!-- 0.00 -->
      <g style="fill: #262626" transform="translate(30.1675 376.462188) scale(0.12 -0.12)">
       <defs>
        <path id="ArialMT-2e" d="M 581 0 
L 581 641 
L 1222 641 
L 1222 0 
L 581 0 
z
" transform="scale(0.015625)"/>
       </defs>
       <use xlink:href="#ArialMT-30"/>
       <use xlink:href="#ArialMT-2e" x="55.615234"/>
       <use xlink:href="#ArialMT-30" x="83.398438"/>
       <use xlink:href="#ArialMT-30" x="139.013672"/>
      </g>
     </g>
    </g>
    <g id="ytick_2">
     <g id="line2d_11">
      <path d="M 60.520625 325.787852 
L 701.28 325.787852 
" clip-path="url(#pf7cded94dc)" style="fill: none; stroke: #cccccc; stroke-opacity: 0.3; stroke-width: 0.5; stroke-linecap: round"/>
     </g>
     <g id="text_12">
      <!-- 0.05 -->
      <g style="fill: #262626" transform="translate(30.1675 330.08254) scale(0.12 -0.12)">
       <use xlink:href="#ArialMT-30"/>
       <use xlink:href="#ArialMT-2e" x="55.615234"/>
       <use xlink:href="#ArialMT-30" x="83.398438"/>
       <use xlink:href="#ArialMT-35" x="139.013672"/>
      </g>
     </g>
    </g>
    <g id="ytick_3">
     <g id="line2d_12">
      <path d="M 60.520625 279.408205 
L 701.28 279.408205 
" clip-path="url(#pf7cded94dc)" style="fill: none; stroke: #cccccc; stroke-opacity: 0.3; stroke-width: 0.5; stroke-linecap: round"/>
     </g>
     <g id="text_13">
      <!-- 0.10 -->
      <g style="fill: #262626" transform="translate(30.1675 283.702892) scale(0.12 -0.12)">
       <use xlink:href="#ArialMT-30"/>
       <use xlink:href="#ArialMT-2e" x="55.615234"/>
       <use xlink:href="#ArialMT-31" x="83.398438"/>
       <use xlink:href="#ArialMT-30" x="139.013672"/>
      </g>
     </g>
    </g>
    <g id="ytick_4">
     <g id="line2d_13">
      <path d="M 60.520625 233.028557 
L 701.28 233.028557 
" clip-path="url(#pf7cded94dc)" style="fill: none; stroke: #cccccc; stroke-opacity: 0.3; stroke-width: 0.5; stroke-linecap: round"/>
     </g>
     <g id="text_14">
      <!-- 0.15 -->
      <g style="fill: #262626" transform="translate(30.1675 237.323244) scale(0.12 -0.12)">
       <use xlink:href="#ArialMT-30"/>
       <use xlink:href="#ArialMT-2e" x="55.615234"/>
       <use xlink:href="#ArialMT-31" x="83.398438"/>
       <use xlink:href="#ArialMT-35" x="139.013672"/>
      </g>
     </g>
    </g>
    <g id="ytick_5">
     <g id="line2d_14">
      <path d="M 60.520625 186.648909 
L 701.28 186.648909 
" clip-path="url(#pf7cded94dc)" style="fill: none; stroke: #cccccc; stroke-opacity: 0.3; stroke-width: 0.5; stroke-linecap: round"/>
     </g>
     <g id="text_15">
      <!-- 0.20 -->
      <g style="fill: #262626" transform="translate(30.1675 190.943597) scale(0.12 -0.12)">
       <use xlink:href="#ArialMT-30"/>
       <use xlink:href="#ArialMT-2e" x="55.615234"/>
       <use xlink:href="#ArialMT-32" x="83.398438"/>
       <use xlink:href="#ArialMT-30" x="139.013672"/>
      </g>
     </g>
    </g>
    <g id="ytick_6">
     <g id="line2d_15">
      <path d="M 60.520625 140.269261 
L 701.28 140.269261 
" clip-path="url(#pf7cded94dc)" style="fill: none; stroke: #cccccc; stroke-opacity: 0.3; stroke-width: 0.5; stroke-linecap: round"/>
     </g>
     <g id="text_16">
      <!-- 0.25 -->
      <g style="fill: #262626" transform="translate(30.1675 144.563949) scale(0.12 -0.12)">
       <use xlink:href="#ArialMT-30"/>
       <use xlink:href="#ArialMT-2e" x="55.615234"/>
       <use xlink:href="#ArialMT-32" x="83.398438"/>
       <use xlink:href="#ArialMT-35" x="139.013672"/>
      </g>
     </g>
    </g>
    <g id="ytick_7">
     <g id="line2d_16">
      <path d="M 60.520625 93.889614 
L 701.28 93.889614 
" clip-path="url(#pf7cded94dc)" style="fill: none; stroke: #cccccc; stroke-opacity: 0.3; stroke-width: 0.5; stroke-linecap: round"/>
     </g>
     <g id="text_17">
      <!-- 0.30 -->
      <g style="fill: #262626" transform="translate(30.1675 98.184301) scale(0.12 -0.12)">
       <use xlink:href="#ArialMT-30"/>
       <use xlink:href="#ArialMT-2e" x="55.615234"/>
       <use xlink:href="#ArialMT-33" x="83.398438"/>
       <use xlink:href="#ArialMT-30" x="139.013672"/>
      </g>
     </g>
    </g>
    <g id="ytick_8">
     <g id="line2d_17">
      <path d="M 60.520625 47.509966 
L 701.28 47.509966 
" clip-path="url(#pf7cded94dc)" style="fill: none; stroke: #cccccc; stroke-opacity: 0.3; stroke-width: 0.5; stroke-linecap: round"/>
     </g>
     <g id="text_18">
      <!-- 0.35 -->
      <g style="fill: #262626" transform="translate(30.1675 51.804654) scale(0.12 -0.12)">
       <use xlink:href="#ArialMT-30"/>
       <use xlink:href="#ArialMT-2e" x="55.615234"/>
       <use xlink:href="#ArialMT-33" x="83.398438"/>
       <use xlink:href="#ArialMT-35" x="139.013672"/>
      </g>
     </g>
    </g>
    <g id="text_19">
     <!-- Density -->
     <g style="fill: #262626" transform="translate(17.220938 221.750625) rotate(-90) scale(0.14 -0.14)">
      <defs>
       <path id="ArialMT-44" d="M 494 0 
L 494 4581 
L 2072 4581 
Q 2606 4581 2888 4516 
Q 3281 4425 3559 4188 
Q 3922 3881 4101 3404 
Q 4281 2928 4281 2316 
Q 4281 1794 4159 1391 
Q 4038 988 3847 723 
Q 3656 459 3429 307 
Q 3203 156 2883 78 
Q 2563 0 2147 0 
L 494 0 
z
M 1100 541 
L 2078 541 
Q 2531 541 2789 625 
Q 3047 709 3200 863 
Q 3416 1078 3536 1442 
Q 3656 1806 3656 2325 
Q 3656 3044 3420 3430 
Q 3184 3816 2847 3947 
Q 2603 4041 2063 4041 
L 1100 4041 
L 1100 541 
z
" transform="scale(0.015625)"/>
       <path id="ArialMT-65" d="M 2694 1069 
L 3275 997 
Q 3138 488 2766 206 
Q 2394 -75 1816 -75 
Q 1088 -75 661 373 
Q 234 822 234 1631 
Q 234 2469 665 2931 
Q 1097 3394 1784 3394 
Q 2450 3394 2872 2941 
Q 3294 2488 3294 1666 
Q 3294 1616 3291 1516 
L 816 1516 
Q 847 969 1125 678 
Q 1403 388 1819 388 
Q 2128 388 2347 550 
Q 2566 713 2694 1069 
z
M 847 1978 
L 2700 1978 
Q 2663 2397 2488 2606 
Q 2219 2931 1791 2931 
Q 1403 2931 1139 2672 
Q 875 2413 847 1978 
z
" transform="scale(0.015625)"/>
       <path id="ArialMT-6e" d="M 422 0 
L 422 3319 
L 928 3319 
L 928 2847 
Q 1294 3394 1984 3394 
Q 2284 3394 2536 3286 
Q 2788 3178 2913 3003 
Q 3038 2828 3088 2588 
Q 3119 2431 3119 2041 
L 3119 0 
L 2556 0 
L 2556 2019 
Q 2556 2363 2490 2533 
Q 2425 2703 2258 2804 
Q 2091 2906 1866 2906 
Q 1506 2906 1245 2678 
Q 984 2450 984 1813 
L 984 0 
L 422 0 
z
" transform="scale(0.015625)"/>
       <path id="ArialMT-73" d="M 197 991 
L 753 1078 
Q 800 744 1014 566 
Q 1228 388 1613 388 
Q 2000 388 2187 545 
Q 2375 703 2375 916 
Q 2375 1106 2209 1216 
Q 2094 1291 1634 1406 
Q 1016 1563 777 1677 
Q 538 1791 414 1992 
Q 291 2194 291 2438 
Q 291 2659 392 2848 
Q 494 3038 669 3163 
Q 800 3259 1026 3326 
Q 1253 3394 1513 3394 
Q 1903 3394 2198 3281 
Q 2494 3169 2634 2976 
Q 2775 2784 2828 2463 
L 2278 2388 
Q 2241 2644 2061 2787 
Q 1881 2931 1553 2931 
Q 1166 2931 1000 2803 
Q 834 2675 834 2503 
Q 834 2394 903 2306 
Q 972 2216 1119 2156 
Q 1203 2125 1616 2013 
Q 2213 1853 2448 1751 
Q 2684 1650 2818 1456 
Q 2953 1263 2953 975 
Q 2953 694 2789 445 
Q 2625 197 2315 61 
Q 2006 -75 1616 -75 
Q 969 -75 630 194 
Q 291 463 197 991 
z
" transform="scale(0.015625)"/>
       <path id="ArialMT-69" d="M 425 3934 
L 425 4581 
L 988 4581 
L 988 3934 
L 425 3934 
z
M 425 0 
L 425 3319 
L 988 3319 
L 988 0 
L 425 0 
z
" transform="scale(0.015625)"/>
       <path id="ArialMT-74" d="M 1650 503 
L 1731 6 
Q 1494 -44 1306 -44 
Q 1000 -44 831 53 
Q 663 150 594 308 
Q 525 466 525 972 
L 525 2881 
L 113 2881 
L 113 3319 
L 525 3319 
L 525 4141 
L 1084 4478 
L 1084 3319 
L 1650 3319 
L 1650 2881 
L 1084 2881 
L 1084 941 
Q 1084 700 1114 631 
Q 1144 563 1211 522 
Q 1278 481 1403 481 
Q 1497 481 1650 503 
z
" transform="scale(0.015625)"/>
       <path id="ArialMT-79" d="M 397 -1278 
L 334 -750 
Q 519 -800 656 -800 
Q 844 -800 956 -737 
Q 1069 -675 1141 -563 
Q 1194 -478 1313 -144 
Q 1328 -97 1363 -6 
L 103 3319 
L 709 3319 
L 1400 1397 
Q 1534 1031 1641 628 
Q 1738 1016 1872 1384 
L 2581 3319 
L 3144 3319 
L 1881 -56 
Q 1678 -603 1566 -809 
Q 1416 -1088 1222 -1217 
Q 1028 -1347 759 -1347 
Q 597 -1347 397 -1278 
z
" transform="scale(0.015625)"/>
      </defs>
      <use xlink:href="#ArialMT-44"/>
      <use xlink:href="#ArialMT-65" x="72.216797"/>
      <use xlink:href="#ArialMT-6e" x="127.832031"/>
      <use xlink:href="#ArialMT-73" x="183.447266"/>
      <use xlink:href="#ArialMT-69" x="233.447266"/>
      <use xlink:href="#ArialMT-74" x="255.664062"/>
      <use xlink:href="#ArialMT-79" x="283.447266"/>
     </g>
    </g>
   </g>
   <g id="PolyCollection_1">
    <defs>
     <path id="mc8344fec08" d="M 122.344157 -48.72909 
L 122.344157 -48.3125 
L 125.107023 -48.3125 
L 127.869889 -48.3125 
L 130.632756 -48.3125 
L 133.395622 -48.3125 
L 136.158489 -48.3125 
L 138.921355 -48.3125 
L 141.684222 -48.3125 
L 144.447088 -48.3125 
L 147.209954 -48.3125 
L 149.972821 -48.3125 
L 152.735687 -48.3125 
L 155.498554 -48.3125 
L 158.26142 -48.3125 
L 161.024286 -48.3125 
L 163.787153 -48.3125 
L 166.550019 -48.3125 
L 169.312886 -48.3125 
L 172.075752 -48.3125 
L 174.838619 -48.3125 
L 177.601485 -48.3125 
L 180.364351 -48.3125 
L 183.127218 -48.3125 
L 185.890084 -48.3125 
L 188.652951 -48.3125 
L 191.415817 -48.3125 
L 194.178683 -48.3125 
L 196.94155 -48.3125 
L 199.704416 -48.3125 
L 202.467283 -48.3125 
L 205.230149 -48.3125 
L 207.993016 -48.3125 
L 210.755882 -48.3125 
L 213.518748 -48.3125 
L 216.281615 -48.3125 
L 219.044481 -48.3125 
L 221.807348 -48.3125 
L 224.570214 -48.3125 
L 227.33308 -48.3125 
L 230.095947 -48.3125 
L 232.858813 -48.3125 
L 235.62168 -48.3125 
L 238.384546 -48.3125 
L 241.147413 -48.3125 
L 243.910279 -48.3125 
L 246.673145 -48.3125 
L 249.436012 -48.3125 
L 252.198878 -48.3125 
L 254.961745 -48.3125 
L 257.724611 -48.3125 
L 260.487478 -48.3125 
L 263.250344 -48.3125 
L 266.01321 -48.3125 
L 268.776077 -48.3125 
L 271.538943 -48.3125 
L 274.30181 -48.3125 
L 277.064676 -48.3125 
L 279.827542 -48.3125 
L 282.590409 -48.3125 
L 285.353275 -48.3125 
L 288.116142 -48.3125 
L 290.879008 -48.3125 
L 293.641875 -48.3125 
L 296.404741 -48.3125 
L 299.167607 -48.3125 
L 301.930474 -48.3125 
L 304.69334 -48.3125 
L 307.456207 -48.3125 
L 310.219073 -48.3125 
L 312.981939 -48.3125 
L 315.744806 -48.3125 
L 318.507672 -48.3125 
L 321.270539 -48.3125 
L 324.033405 -48.3125 
L 326.796272 -48.3125 
L 329.559138 -48.3125 
L 332.322004 -48.3125 
L 335.084871 -48.3125 
L 337.847737 -48.3125 
L 340.610604 -48.3125 
L 343.37347 -48.3125 
L 346.136336 -48.3125 
L 348.899203 -48.3125 
L 351.662069 -48.3125 
L 354.424936 -48.3125 
L 357.187802 -48.3125 
L 359.950669 -48.3125 
L 362.713535 -48.3125 
L 365.476401 -48.3125 
L 368.239268 -48.3125 
L 371.002134 -48.3125 
L 373.765001 -48.3125 
L 376.527867 -48.3125 
L 379.290734 -48.3125 
L 382.0536 -48.3125 
L 384.816466 -48.3125 
L 387.579333 -48.3125 
L 390.342199 -48.3125 
L 393.105066 -48.3125 
L 395.867932 -48.3125 
L 398.630798 -48.3125 
L 401.393665 -48.3125 
L 404.156531 -48.3125 
L 406.919398 -48.3125 
L 409.682264 -48.3125 
L 412.445131 -48.3125 
L 415.207997 -48.3125 
L 417.970863 -48.3125 
L 420.73373 -48.3125 
L 423.496596 -48.3125 
L 426.259463 -48.3125 
L 429.022329 -48.3125 
L 431.785195 -48.3125 
L 434.548062 -48.3125 
L 437.310928 -48.3125 
L 440.073795 -48.3125 
L 442.836661 -48.3125 
L 445.599528 -48.3125 
L 448.362394 -48.3125 
L 451.12526 -48.3125 
L 453.888127 -48.3125 
L 456.650993 -48.3125 
L 459.41386 -48.3125 
L 462.176726 -48.3125 
L 464.939592 -48.3125 
L 467.702459 -48.3125 
L 470.465325 -48.3125 
L 473.228192 -48.3125 
L 475.991058 -48.3125 
L 478.753925 -48.3125 
L 481.516791 -48.3125 
L 484.279657 -48.3125 
L 487.042524 -48.3125 
L 489.80539 -48.3125 
L 492.568257 -48.3125 
L 495.331123 -48.3125 
L 498.09399 -48.3125 
L 500.856856 -48.3125 
L 503.619722 -48.3125 
L 506.382589 -48.3125 
L 509.145455 -48.3125 
L 511.908322 -48.3125 
L 514.671188 -48.3125 
L 517.434054 -48.3125 
L 520.196921 -48.3125 
L 522.959787 -48.3125 
L 525.722654 -48.3125 
L 528.48552 -48.3125 
L 531.248387 -48.3125 
L 534.011253 -48.3125 
L 536.774119 -48.3125 
L 539.536986 -48.3125 
L 542.299852 -48.3125 
L 545.062719 -48.3125 
L 547.825585 -48.3125 
L 550.588451 -48.3125 
L 553.351318 -48.3125 
L 556.114184 -48.3125 
L 558.877051 -48.3125 
L 561.639917 -48.3125 
L 564.402784 -48.3125 
L 567.16565 -48.3125 
L 569.928516 -48.3125 
L 572.691383 -48.3125 
L 575.454249 -48.3125 
L 578.217116 -48.3125 
L 580.979982 -48.3125 
L 583.742848 -48.3125 
L 586.505715 -48.3125 
L 589.268581 -48.3125 
L 592.031448 -48.3125 
L 594.794314 -48.3125 
L 597.557181 -48.3125 
L 600.320047 -48.3125 
L 603.082913 -48.3125 
L 605.84578 -48.3125 
L 608.608646 -48.3125 
L 611.371513 -48.3125 
L 614.134379 -48.3125 
L 616.897245 -48.3125 
L 619.660112 -48.3125 
L 622.422978 -48.3125 
L 625.185845 -48.3125 
L 627.948711 -48.3125 
L 630.711578 -48.3125 
L 633.474444 -48.3125 
L 636.23731 -48.3125 
L 639.000177 -48.3125 
L 641.763043 -48.3125 
L 644.52591 -48.3125 
L 647.288776 -48.3125 
L 650.051643 -48.3125 
L 652.814509 -48.3125 
L 655.577375 -48.3125 
L 658.340242 -48.3125 
L 661.103108 -48.3125 
L 663.865975 -48.3125 
L 666.628841 -48.3125 
L 669.391707 -48.3125 
L 672.154574 -48.3125 
L 672.154574 -48.609673 
L 672.154574 -48.609673 
L 669.391707 -48.677556 
L 666.628841 -48.759129 
L 663.865975 -48.856723 
L 661.103108 -48.972971 
L 658.340242 -49.110834 
L 655.577375 -49.273615 
L 652.814509 -49.464977 
L 650.051643 -49.688958 
L 647.288776 -49.949975 
L 644.52591 -50.252828 
L 641.763043 -50.602696 
L 639.000177 -51.005126 
L 636.23731 -51.466012 
L 633.474444 -51.991569 
L 630.711578 -52.588293 
L 627.948711 -53.262918 
L 625.185845 -54.022353 
L 622.422978 -54.873624 
L 619.660112 -55.823794 
L 616.897245 -56.879883 
L 614.134379 -58.048776 
L 611.371513 -59.337133 
L 608.608646 -60.751287 
L 605.84578 -62.297143 
L 603.082913 -63.980083 
L 600.320047 -65.804863 
L 597.557181 -67.775526 
L 594.794314 -69.895314 
L 592.031448 -72.166598 
L 589.268581 -74.590807 
L 586.505715 -77.168385 
L 583.742848 -79.898754 
L 580.979982 -82.780292 
L 578.217116 -85.810331 
L 575.454249 -88.985172 
L 572.691383 -92.300106 
L 569.928516 -95.749464 
L 567.16565 -99.326664 
L 564.402784 -103.024281 
L 561.639917 -106.834117 
L 558.877051 -110.747282 
L 556.114184 -114.754274 
L 553.351318 -118.845061 
L 550.588451 -123.009164 
L 547.825585 -127.235728 
L 545.062719 -131.513598 
L 542.299852 -135.831379 
L 539.536986 -140.177494 
L 536.774119 -144.540232 
L 534.011253 -148.907792 
L 531.248387 -153.268321 
L 528.48552 -157.609944 
L 525.722654 -161.920804 
L 522.959787 -166.189093 
L 520.196921 -170.403093 
L 517.434054 -174.551221 
L 514.671188 -178.622086 
L 511.908322 -182.604557 
L 509.145455 -186.487841 
L 506.382589 -190.261578 
L 503.619722 -193.915951 
L 500.856856 -197.4418 
L 498.09399 -200.830755 
L 495.331123 -204.075376 
L 492.568257 -207.169294 
L 489.80539 -210.107352 
L 487.042524 -212.885745 
L 484.279657 -215.502147 
L 481.516791 -217.955826 
L 478.753925 -220.247736 
L 475.991058 -222.380586 
L 473.228192 -224.358881 
L 470.465325 -226.188929 
L 467.702459 -227.878817 
L 464.939592 -229.438348 
L 462.176726 -230.878944 
L 459.41386 -232.213513 
L 456.650993 -233.456282 
L 453.888127 -234.622609 
L 451.12526 -235.728756 
L 448.362394 -236.791652 
L 445.599528 -237.828639 
L 442.836661 -238.857207 
L 440.073795 -239.894727 
L 437.310928 -240.95819 
L 434.548062 -242.063951 
L 431.785195 -243.227488 
L 429.022329 -244.463186 
L 426.259463 -245.784131 
L 423.496596 -247.201943 
L 420.73373 -248.72663 
L 417.970863 -250.366469 
L 415.207997 -252.12792 
L 412.445131 -254.015571 
L 409.682264 -256.032101 
L 406.919398 -258.178279 
L 404.156531 -260.45298 
L 401.393665 -262.853221 
L 398.630798 -265.374221 
L 395.867932 -268.009472 
L 393.105066 -270.750819 
L 390.342199 -273.58856 
L 387.579333 -276.51154 
L 384.816466 -279.507266 
L 382.0536 -282.562013 
L 379.290734 -285.660935 
L 376.527867 -288.788188 
L 373.765001 -291.927038 
L 371.002134 -295.059979 
L 368.239268 -298.168848 
L 365.476401 -301.234939 
L 362.713535 -304.239113 
L 359.950669 -307.161914 
L 357.187802 -309.983673 
L 354.424936 -312.684622 
L 351.662069 -315.244994 
L 348.899203 -317.645131 
L 346.136336 -319.865583 
L 343.37347 -321.887206 
L 340.610604 -323.691261 
L 337.847737 -325.259504 
L 335.084871 -326.57428 
L 332.322004 -327.618609 
L 329.559138 -328.376279 
L 326.796272 -328.83193 
L 324.033405 -328.971141 
L 321.270539 -328.780522 
L 318.507672 -328.247802 
L 315.744806 -327.361922 
L 312.981939 -326.113134 
L 310.219073 -324.493103 
L 307.456207 -322.495006 
L 304.69334 -320.113646 
L 301.930474 -317.345562 
L 299.167607 -314.18914 
L 296.404741 -310.644728 
L 293.641875 -306.714741 
L 290.879008 -302.403769 
L 288.116142 -297.718667 
L 285.353275 -292.668635 
L 282.590409 -287.265279 
L 279.827542 -281.522652 
L 277.064676 -275.457264 
L 274.30181 -269.088068 
L 271.538943 -262.436401 
L 268.776077 -255.525905 
L 266.01321 -248.382389 
L 263.250344 -241.03367 
L 260.487478 -233.509362 
L 257.724611 -225.840633 
L 254.961745 -218.059923 
L 252.198878 -210.200632 
L 249.436012 -202.296782 
L 246.673145 -194.382659 
L 243.910279 -186.492437 
L 241.147413 -178.6598 
L 238.384546 -170.917564 
L 235.62168 -163.297311 
L 232.858813 -155.829038 
L 230.095947 -148.540831 
L 227.33308 -141.458575 
L 224.570214 -134.605699 
L 221.807348 -128.002966 
L 219.044481 -121.668312 
L 216.281615 -115.616729 
L 213.518748 -109.860208 
L 210.755882 -104.407723 
L 207.993016 -99.265271 
L 205.230149 -94.435958 
L 202.467283 -89.920123 
L 199.704416 -85.715503 
L 196.94155 -81.817435 
L 194.178683 -78.219073 
L 191.415817 -74.911637 
L 188.652951 -71.884667 
L 185.890084 -69.12629 
L 183.127218 -66.623484 
L 180.364351 -64.362343 
L 177.601485 -62.328324 
L 174.838619 -60.506493 
L 172.075752 -58.881742 
L 169.312886 -57.438993 
L 166.550019 -56.163378 
L 163.787153 -55.040394 
L 161.024286 -54.056037 
L 158.26142 -53.196911 
L 155.498554 -52.450313 
L 152.735687 -51.804301 
L 149.972821 -51.247728 
L 147.209954 -50.770276 
L 144.447088 -50.362462 
L 141.684222 -50.015627 
L 138.921355 -49.721922 
L 136.158489 -49.474278 
L 133.395622 -49.26637 
L 130.632756 -49.092572 
L 127.869889 -48.947913 
L 125.107023 -48.828023 
L 122.344157 -48.72909 
z
" style="stroke: #2ecc71"/>
    </defs>
    <g clip-path="url(#pf7cded94dc)">
     <use xlink:href="#mc8344fec08" x="0" y="420.48" style="fill: #2ecc71; fill-opacity: 0.3; stroke: #2ecc71"/>
    </g>
   </g>
   <g id="PolyCollection_2">
    <defs>
     <path id="m86d6d6fe54" d="M 89.646051 -49.970963 
L 89.646051 -48.3125 
L 91.785117 -48.3125 
L 93.924183 -48.3125 
L 96.063249 -48.3125 
L 98.202315 -48.3125 
L 100.341381 -48.3125 
L 102.480447 -48.3125 
L 104.619512 -48.3125 
L 106.758578 -48.3125 
L 108.897644 -48.3125 
L 111.03671 -48.3125 
L 113.175776 -48.3125 
L 115.314842 -48.3125 
L 117.453908 -48.3125 
L 119.592974 -48.3125 
L 121.73204 -48.3125 
L 123.871106 -48.3125 
L 126.010171 -48.3125 
L 128.149237 -48.3125 
L 130.288303 -48.3125 
L 132.427369 -48.3125 
L 134.566435 -48.3125 
L 136.705501 -48.3125 
L 138.844567 -48.3125 
L 140.983633 -48.3125 
L 143.122699 -48.3125 
L 145.261765 -48.3125 
L 147.400831 -48.3125 
L 149.539896 -48.3125 
L 151.678962 -48.3125 
L 153.818028 -48.3125 
L 155.957094 -48.3125 
L 158.09616 -48.3125 
L 160.235226 -48.3125 
L 162.374292 -48.3125 
L 164.513358 -48.3125 
L 166.652424 -48.3125 
L 168.79149 -48.3125 
L 170.930555 -48.3125 
L 173.069621 -48.3125 
L 175.208687 -48.3125 
L 177.347753 -48.3125 
L 179.486819 -48.3125 
L 181.625885 -48.3125 
L 183.764951 -48.3125 
L 185.904017 -48.3125 
L 188.043083 -48.3125 
L 190.182149 -48.3125 
L 192.321214 -48.3125 
L 194.46028 -48.3125 
L 196.599346 -48.3125 
L 198.738412 -48.3125 
L 200.877478 -48.3125 
L 203.016544 -48.3125 
L 205.15561 -48.3125 
L 207.294676 -48.3125 
L 209.433742 -48.3125 
L 211.572808 -48.3125 
L 213.711874 -48.3125 
L 215.850939 -48.3125 
L 217.990005 -48.3125 
L 220.129071 -48.3125 
L 222.268137 -48.3125 
L 224.407203 -48.3125 
L 226.546269 -48.3125 
L 228.685335 -48.3125 
L 230.824401 -48.3125 
L 232.963467 -48.3125 
L 235.102533 -48.3125 
L 237.241598 -48.3125 
L 239.380664 -48.3125 
L 241.51973 -48.3125 
L 243.658796 -48.3125 
L 245.797862 -48.3125 
L 247.936928 -48.3125 
L 250.075994 -48.3125 
L 252.21506 -48.3125 
L 254.354126 -48.3125 
L 256.493192 -48.3125 
L 258.632257 -48.3125 
L 260.771323 -48.3125 
L 262.910389 -48.3125 
L 265.049455 -48.3125 
L 267.188521 -48.3125 
L 269.327587 -48.3125 
L 271.466653 -48.3125 
L 273.605719 -48.3125 
L 275.744785 -48.3125 
L 277.883851 -48.3125 
L 280.022917 -48.3125 
L 282.161982 -48.3125 
L 284.301048 -48.3125 
L 286.440114 -48.3125 
L 288.57918 -48.3125 
L 290.718246 -48.3125 
L 292.857312 -48.3125 
L 294.996378 -48.3125 
L 297.135444 -48.3125 
L 299.27451 -48.3125 
L 301.413576 -48.3125 
L 303.552641 -48.3125 
L 305.691707 -48.3125 
L 307.830773 -48.3125 
L 309.969839 -48.3125 
L 312.108905 -48.3125 
L 314.247971 -48.3125 
L 316.387037 -48.3125 
L 318.526103 -48.3125 
L 320.665169 -48.3125 
L 322.804235 -48.3125 
L 324.9433 -48.3125 
L 327.082366 -48.3125 
L 329.221432 -48.3125 
L 331.360498 -48.3125 
L 333.499564 -48.3125 
L 335.63863 -48.3125 
L 337.777696 -48.3125 
L 339.916762 -48.3125 
L 342.055828 -48.3125 
L 344.194894 -48.3125 
L 346.33396 -48.3125 
L 348.473025 -48.3125 
L 350.612091 -48.3125 
L 352.751157 -48.3125 
L 354.890223 -48.3125 
L 357.029289 -48.3125 
L 359.168355 -48.3125 
L 361.307421 -48.3125 
L 363.446487 -48.3125 
L 365.585553 -48.3125 
L 367.724619 -48.3125 
L 369.863684 -48.3125 
L 372.00275 -48.3125 
L 374.141816 -48.3125 
L 376.280882 -48.3125 
L 378.419948 -48.3125 
L 380.559014 -48.3125 
L 382.69808 -48.3125 
L 384.837146 -48.3125 
L 386.976212 -48.3125 
L 389.115278 -48.3125 
L 391.254343 -48.3125 
L 393.393409 -48.3125 
L 395.532475 -48.3125 
L 397.671541 -48.3125 
L 399.810607 -48.3125 
L 401.949673 -48.3125 
L 404.088739 -48.3125 
L 406.227805 -48.3125 
L 408.366871 -48.3125 
L 410.505937 -48.3125 
L 412.645002 -48.3125 
L 414.784068 -48.3125 
L 416.923134 -48.3125 
L 419.0622 -48.3125 
L 421.201266 -48.3125 
L 423.340332 -48.3125 
L 425.479398 -48.3125 
L 427.618464 -48.3125 
L 429.75753 -48.3125 
L 431.896596 -48.3125 
L 434.035662 -48.3125 
L 436.174727 -48.3125 
L 438.313793 -48.3125 
L 440.452859 -48.3125 
L 442.591925 -48.3125 
L 444.730991 -48.3125 
L 446.870057 -48.3125 
L 449.009123 -48.3125 
L 451.148189 -48.3125 
L 453.287255 -48.3125 
L 455.426321 -48.3125 
L 457.565386 -48.3125 
L 459.704452 -48.3125 
L 461.843518 -48.3125 
L 463.982584 -48.3125 
L 466.12165 -48.3125 
L 468.260716 -48.3125 
L 470.399782 -48.3125 
L 472.538848 -48.3125 
L 474.677914 -48.3125 
L 476.81698 -48.3125 
L 478.956045 -48.3125 
L 481.095111 -48.3125 
L 483.234177 -48.3125 
L 485.373243 -48.3125 
L 487.512309 -48.3125 
L 489.651375 -48.3125 
L 491.790441 -48.3125 
L 493.929507 -48.3125 
L 496.068573 -48.3125 
L 498.207639 -48.3125 
L 500.346705 -48.3125 
L 502.48577 -48.3125 
L 504.624836 -48.3125 
L 506.763902 -48.3125 
L 508.902968 -48.3125 
L 511.042034 -48.3125 
L 513.1811 -48.3125 
L 515.320166 -48.3125 
L 515.320166 -50.286423 
L 515.320166 -50.286423 
L 513.1811 -50.574508 
L 511.042034 -50.899688 
L 508.902968 -51.265964 
L 506.763902 -51.677662 
L 504.624836 -52.139437 
L 502.48577 -52.65628 
L 500.346705 -53.233533 
L 498.207639 -53.876883 
L 496.068573 -54.592368 
L 493.929507 -55.386372 
L 491.790441 -56.265623 
L 489.651375 -57.237176 
L 487.512309 -58.308403 
L 485.373243 -59.48697 
L 483.234177 -60.780816 
L 481.095111 -62.198116 
L 478.956045 -63.747252 
L 476.81698 -65.436765 
L 474.677914 -67.275308 
L 472.538848 -69.271594 
L 470.399782 -71.434329 
L 468.260716 -73.772154 
L 466.12165 -76.293562 
L 463.982584 -79.006827 
L 461.843518 -81.919917 
L 459.704452 -85.040406 
L 457.565386 -88.375381 
L 455.426321 -91.931348 
L 453.287255 -95.71413 
L 451.148189 -99.72877 
L 449.009123 -103.97943 
L 446.870057 -108.469291 
L 444.730991 -113.200458 
L 442.591925 -118.17386 
L 440.452859 -123.389167 
L 438.313793 -128.844704 
L 436.174727 -134.537378 
L 434.035662 -140.462606 
L 431.896596 -146.614267 
L 429.75753 -152.984656 
L 427.618464 -159.564451 
L 425.479398 -166.342703 
L 423.340332 -173.306831 
L 421.201266 -180.442646 
L 419.0622 -187.734378 
L 416.923134 -195.164734 
L 414.784068 -202.714966 
L 412.645002 -210.364962 
L 410.505937 -218.093354 
L 408.366871 -225.877642 
L 406.227805 -233.694336 
L 404.088739 -241.519119 
L 401.949673 -249.327015 
L 399.810607 -257.092579 
L 397.671541 -264.790097 
L 395.532475 -272.393788 
L 393.393409 -279.878025 
L 391.254343 -287.217554 
L 389.115278 -294.38771 
L 386.976212 -301.364646 
L 384.837146 -308.125546 
L 382.69808 -314.648835 
L 380.559014 -320.914388 
L 378.419948 -326.90371 
L 376.280882 -332.60012 
L 374.141816 -337.988903 
L 372.00275 -343.057453 
L 369.863684 -347.795383 
L 367.724619 -352.194623 
L 365.585553 -356.249484 
L 363.446487 -359.956698 
L 361.307421 -363.315433 
L 359.168355 -366.327277 
L 357.029289 -368.996191 
L 354.890223 -371.328444 
L 352.751157 -373.332511 
L 350.612091 -375.018949 
L 348.473025 -376.400251 
L 346.33396 -377.490672 
L 344.194894 -378.306038 
L 342.055828 -378.86354 
L 339.916762 -379.181506 
L 337.777696 -379.279167 
L 335.63863 -379.176408 
L 333.499564 -378.893524 
L 331.360498 -378.45096 
L 329.221432 -377.869064 
L 327.082366 -377.167835 
L 324.9433 -376.366688 
L 322.804235 -375.48422 
L 320.665169 -374.538 
L 318.526103 -373.544367 
L 316.387037 -372.518248 
L 314.247971 -371.473006 
L 312.108905 -370.420297 
L 309.969839 -369.369964 
L 307.830773 -368.329945 
L 305.691707 -367.306218 
L 303.552641 -366.302765 
L 301.413576 -365.321565 
L 299.27451 -364.362614 
L 297.135444 -363.423966 
L 294.996378 -362.501806 
L 292.857312 -361.59054 
L 290.718246 -360.682903 
L 288.57918 -359.7701 
L 286.440114 -358.841947 
L 284.301048 -357.887039 
L 282.161982 -356.892927 
L 280.022917 -355.846306 
L 277.883851 -354.733204 
L 275.744785 -353.539191 
L 273.605719 -352.249571 
L 271.466653 -350.849589 
L 269.327587 -349.324631 
L 267.188521 -347.660415 
L 265.049455 -345.843178 
L 262.910389 -343.859859 
L 260.771323 -341.698258 
L 258.632257 -339.347198 
L 256.493192 -336.796657 
L 254.354126 -334.0379 
L 252.21506 -331.063582 
L 250.075994 -327.867839 
L 247.936928 -324.446363 
L 245.797862 -320.796455 
L 243.658796 -316.917061 
L 241.51973 -312.808792 
L 239.380664 -308.47392 
L 237.241598 -303.916365 
L 235.102533 -299.141656 
L 232.963467 -294.156886 
L 230.824401 -288.970641 
L 228.685335 -283.592924 
L 226.546269 -278.035063 
L 224.407203 -272.309605 
L 222.268137 -266.430206 
L 220.129071 -260.411508 
L 217.990005 -254.269008 
L 215.850939 -248.01893 
L 213.711874 -241.67808 
L 211.572808 -235.263712 
L 209.433742 -228.793385 
L 207.294676 -222.284824 
L 205.15561 -215.755779 
L 203.016544 -209.223897 
L 200.877478 -202.70659 
L 198.738412 -196.220911 
L 196.599346 -189.783439 
L 194.46028 -183.410173 
L 192.321214 -177.11643 
L 190.182149 -170.916758 
L 188.043083 -164.824856 
L 185.904017 -158.853504 
L 183.764951 -153.014509 
L 181.625885 -147.318654 
L 179.486819 -141.775662 
L 177.347753 -136.394176 
L 175.208687 -131.181737 
L 173.069621 -126.144786 
L 170.930555 -121.288668 
L 168.79149 -116.617643 
L 166.652424 -112.134916 
L 164.513358 -107.842662 
L 162.374292 -103.74207 
L 160.235226 -99.833384 
L 158.09616 -96.115955 
L 155.957094 -92.588298 
L 153.818028 -89.248147 
L 151.678962 -86.092522 
L 149.539896 -83.117789 
L 147.400831 -80.31973 
L 145.261765 -77.693603 
L 143.122699 -75.234217 
L 140.983633 -72.935989 
L 138.844567 -70.793013 
L 136.705501 -68.799122 
L 134.566435 -66.947943 
L 132.427369 -65.232961 
L 130.288303 -63.647565 
L 128.149237 -62.185104 
L 126.010171 -60.838931 
L 123.871106 -59.602443 
L 121.73204 -58.469124 
L 119.592974 -57.432575 
L 117.453908 -56.486547 
L 115.314842 -55.624966 
L 113.175776 -54.841955 
L 111.03671 -54.131854 
L 108.897644 -53.489235 
L 106.758578 -52.908911 
L 104.619512 -52.385949 
L 102.480447 -51.915668 
L 100.341381 -51.493653 
L 98.202315 -51.115744 
L 96.063249 -50.778042 
L 93.924183 -50.476902 
L 91.785117 -50.208927 
L 89.646051 -49.970963 
z
" style="stroke: #e74c3c"/>
    </defs>
    <g clip-path="url(#pf7cded94dc)">
     <use xlink:href="#m86d6d6fe54" x="0" y="420.48" style="fill: #e74c3c; fill-opacity: 0.3; stroke: #e74c3c"/>
    </g>
   </g>
   <g id="patch_3">
    <path d="M 60.520625 372.1675 
L 60.520625 24.6525 
" style="fill: none; stroke: #cccccc; stroke-width: 1.5; stroke-linejoin: miter; stroke-linecap: square"/>
   </g>
   <g id="patch_4">
    <path d="M 60.520625 372.1675 
L 701.28 372.1675 
" style="fill: none; stroke: #cccccc; stroke-width: 1.5; stroke-linejoin: miter; stroke-linecap: square"/>
   </g>
   <g id="text_20">
    <!-- Distribution of Absolute Errors -->
    <g style="fill: #262626" transform="translate(275.080312 18.6525) scale(0.16 -0.16)">
     <defs>
      <path id="ArialMT-62" d="M 941 0 
L 419 0 
L 419 4581 
L 981 4581 
L 981 2947 
Q 1338 3394 1891 3394 
Q 2197 3394 2470 3270 
Q 2744 3147 2920 2923 
Q 3097 2700 3197 2384 
Q 3297 2069 3297 1709 
Q 3297 856 2875 390 
Q 2453 -75 1863 -75 
Q 1275 -75 941 416 
L 941 0 
z
M 934 1684 
Q 934 1088 1097 822 
Q 1363 388 1816 388 
Q 2184 388 2453 708 
Q 2722 1028 2722 1663 
Q 2722 2313 2464 2622 
Q 2206 2931 1841 2931 
Q 1472 2931 1203 2611 
Q 934 2291 934 1684 
z
" transform="scale(0.015625)"/>
      <path id="ArialMT-75" d="M 2597 0 
L 2597 488 
Q 2209 -75 1544 -75 
Q 1250 -75 995 37 
Q 741 150 617 320 
Q 494 491 444 738 
Q 409 903 409 1263 
L 409 3319 
L 972 3319 
L 972 1478 
Q 972 1038 1006 884 
Q 1059 663 1231 536 
Q 1403 409 1656 409 
Q 1909 409 2131 539 
Q 2353 669 2445 892 
Q 2538 1116 2538 1541 
L 2538 3319 
L 3100 3319 
L 3100 0 
L 2597 0 
z
" transform="scale(0.015625)"/>
      <path id="ArialMT-66" d="M 556 0 
L 556 2881 
L 59 2881 
L 59 3319 
L 556 3319 
L 556 3672 
Q 556 4006 616 4169 
Q 697 4388 901 4523 
Q 1106 4659 1475 4659 
Q 1713 4659 2000 4603 
L 1916 4113 
Q 1741 4144 1584 4144 
Q 1328 4144 1222 4034 
Q 1116 3925 1116 3625 
L 1116 3319 
L 1763 3319 
L 1763 2881 
L 1116 2881 
L 1116 0 
L 556 0 
z
" transform="scale(0.015625)"/>
      <path id="ArialMT-41" d="M -9 0 
L 1750 4581 
L 2403 4581 
L 4278 0 
L 3588 0 
L 3053 1388 
L 1138 1388 
L 634 0 
L -9 0 
z
M 1313 1881 
L 2866 1881 
L 2388 3150 
Q 2169 3728 2063 4100 
Q 1975 3659 1816 3225 
L 1313 1881 
z
" transform="scale(0.015625)"/>
      <path id="ArialMT-6c" d="M 409 0 
L 409 4581 
L 972 4581 
L 972 0 
L 409 0 
z
" transform="scale(0.015625)"/>
     </defs>
     <use xlink:href="#ArialMT-44"/>
     <use xlink:href="#ArialMT-69" x="72.216797"/>
     <use xlink:href="#ArialMT-73" x="94.433594"/>
     <use xlink:href="#ArialMT-74" x="144.433594"/>
     <use xlink:href="#ArialMT-72" x="172.216797"/>
     <use xlink:href="#ArialMT-69" x="205.517578"/>
     <use xlink:href="#ArialMT-62" x="227.734375"/>
     <use xlink:href="#ArialMT-75" x="283.349609"/>
     <use xlink:href="#ArialMT-74" x="338.964844"/>
     <use xlink:href="#ArialMT-69" x="366.748047"/>
     <use xlink:href="#ArialMT-6f" x="388.964844"/>
     <use xlink:href="#ArialMT-6e" x="444.580078"/>
     <use xlink:href="#ArialMT-20" x="500.195312"/>
     <use xlink:href="#ArialMT-6f" x="527.978516"/>
     <use xlink:href="#ArialMT-66" x="583.59375"/>
     <use xlink:href="#ArialMT-20" x="611.376953"/>
     <use xlink:href="#ArialMT-41" x="633.660156"/>
     <use xlink:href="#ArialMT-62" x="700.359375"/>
     <use xlink:href="#ArialMT-73" x="755.974609"/>
     <use xlink:href="#ArialMT-6f" x="805.974609"/>
     <use xlink:href="#ArialMT-6c" x="861.589844"/>
     <use xlink:href="#ArialMT-75" x="883.806641"/>
     <use xlink:href="#ArialMT-74" x="939.421875"/>
     <use xlink:href="#ArialMT-65" x="967.205078"/>
     <use xlink:href="#ArialMT-20" x="1022.820312"/>
     <use xlink:href="#ArialMT-45" x="1050.603516"/>
     <use xlink:href="#ArialMT-72" x="1117.302734"/>
     <use xlink:href="#ArialMT-72" x="1150.603516"/>
     <use xlink:href="#ArialMT-6f" x="1183.904297"/>
     <use xlink:href="#ArialMT-72" x="1239.519531"/>
     <use xlink:href="#ArialMT-73" x="1272.820312"/>
    </g>
   </g>
   <g id="legend_1">
    <g id="patch_5">
     <path d="M 497.20125 68.775 
L 692.88 68.775 
Q 695.28 68.775 695.28 66.375 
L 695.28 33.0525 
Q 695.28 30.6525 692.88 30.6525 
L 497.20125 30.6525 
Q 494.80125 30.6525 494.80125 33.0525 
L 494.80125 66.375 
Q 494.80125 68.775 497.20125 68.775 
z
" style="fill: #ffffff; opacity: 0.8; stroke: #cccccc; stroke-linejoin: miter"/>
    </g>
    <g id="patch_6">
     <path d="M 499.60125 44.188125 
L 523.60125 44.188125 
L 523.60125 35.788125 
L 499.60125 35.788125 
z
" style="fill: #2ecc71; fill-opacity: 0.3; stroke: #2ecc71; stroke-linejoin: miter"/>
    </g>
    <g id="text_21">
     <!-- Training (μ=1.98%, σ=1.15%) -->
     <g style="fill: #262626" transform="translate(533.20125 44.188125) scale(0.12 -0.12)">
      <defs>
       <path id="ArialMT-54" d="M 1659 0 
L 1659 4041 
L 150 4041 
L 150 4581 
L 3781 4581 
L 3781 4041 
L 2266 4041 
L 2266 0 
L 1659 0 
z
" transform="scale(0.015625)"/>
       <path id="ArialMT-61" d="M 2588 409 
Q 2275 144 1986 34 
Q 1697 -75 1366 -75 
Q 819 -75 525 192 
Q 231 459 231 875 
Q 231 1119 342 1320 
Q 453 1522 633 1644 
Q 813 1766 1038 1828 
Q 1203 1872 1538 1913 
Q 2219 1994 2541 2106 
Q 2544 2222 2544 2253 
Q 2544 2597 2384 2738 
Q 2169 2928 1744 2928 
Q 1347 2928 1158 2789 
Q 969 2650 878 2297 
L 328 2372 
Q 403 2725 575 2942 
Q 747 3159 1072 3276 
Q 1397 3394 1825 3394 
Q 2250 3394 2515 3294 
Q 2781 3194 2906 3042 
Q 3031 2891 3081 2659 
Q 3109 2516 3109 2141 
L 3109 1391 
Q 3109 606 3145 398 
Q 3181 191 3288 0 
L 2700 0 
Q 2613 175 2588 409 
z
M 2541 1666 
Q 2234 1541 1622 1453 
Q 1275 1403 1131 1340 
Q 988 1278 909 1158 
Q 831 1038 831 891 
Q 831 666 1001 516 
Q 1172 366 1500 366 
Q 1825 366 2078 508 
Q 2331 650 2450 897 
Q 2541 1088 2541 1459 
L 2541 1666 
z
" transform="scale(0.015625)"/>
       <path id="ArialMT-67" d="M 319 -275 
L 866 -356 
Q 900 -609 1056 -725 
Q 1266 -881 1628 -881 
Q 2019 -881 2231 -725 
Q 2444 -569 2519 -288 
Q 2563 -116 2559 434 
Q 2191 0 1641 0 
Q 956 0 581 494 
Q 206 988 206 1678 
Q 206 2153 378 2554 
Q 550 2956 876 3175 
Q 1203 3394 1644 3394 
Q 2231 3394 2613 2919 
L 2613 3319 
L 3131 3319 
L 3131 450 
Q 3131 -325 2973 -648 
Q 2816 -972 2473 -1159 
Q 2131 -1347 1631 -1347 
Q 1038 -1347 672 -1080 
Q 306 -813 319 -275 
z
M 784 1719 
Q 784 1066 1043 766 
Q 1303 466 1694 466 
Q 2081 466 2343 764 
Q 2606 1063 2606 1700 
Q 2606 2309 2336 2618 
Q 2066 2928 1684 2928 
Q 1309 2928 1046 2623 
Q 784 2319 784 1719 
z
" transform="scale(0.015625)"/>
       <path id="ArialMT-3bc" d="M 3181 3319 
L 3181 0 
L 2678 0 
L 2678 394 
Q 2516 144 2356 50 
Q 2138 -78 1847 -78 
Q 1588 -78 1388 25 
Q 1238 103 1056 334 
L 1056 -1272 
L 500 -1272 
L 500 3319 
L 1056 3319 
L 1056 1913 
Q 1056 1147 1137 920 
Q 1219 694 1401 562 
Q 1584 431 1822 431 
Q 2072 431 2269 568 
Q 2466 706 2547 923 
Q 2628 1141 2628 1903 
L 2628 3319 
L 3181 3319 
z
" transform="scale(0.015625)"/>
       <path id="ArialMT-3d" d="M 3381 2694 
L 356 2694 
L 356 3219 
L 3381 3219 
L 3381 2694 
z
M 3381 1303 
L 356 1303 
L 356 1828 
L 3381 1828 
L 3381 1303 
z
" transform="scale(0.015625)"/>
       <path id="ArialMT-39" d="M 350 1059 
L 891 1109 
Q 959 728 1153 556 
Q 1347 384 1650 384 
Q 1909 384 2104 503 
Q 2300 622 2425 820 
Q 2550 1019 2634 1356 
Q 2719 1694 2719 2044 
Q 2719 2081 2716 2156 
Q 2547 1888 2255 1720 
Q 1963 1553 1622 1553 
Q 1053 1553 659 1965 
Q 266 2378 266 3053 
Q 266 3750 677 4175 
Q 1088 4600 1706 4600 
Q 2153 4600 2523 4359 
Q 2894 4119 3086 3673 
Q 3278 3228 3278 2384 
Q 3278 1506 3087 986 
Q 2897 466 2520 194 
Q 2144 -78 1638 -78 
Q 1100 -78 759 220 
Q 419 519 350 1059 
z
M 2653 3081 
Q 2653 3566 2395 3850 
Q 2138 4134 1775 4134 
Q 1400 4134 1122 3828 
Q 844 3522 844 3034 
Q 844 2597 1108 2323 
Q 1372 2050 1759 2050 
Q 2150 2050 2401 2323 
Q 2653 2597 2653 3081 
z
" transform="scale(0.015625)"/>
       <path id="ArialMT-38" d="M 1131 2484 
Q 781 2613 612 2850 
Q 444 3088 444 3419 
Q 444 3919 803 4259 
Q 1163 4600 1759 4600 
Q 2359 4600 2725 4251 
Q 3091 3903 3091 3403 
Q 3091 3084 2923 2848 
Q 2756 2613 2416 2484 
Q 2838 2347 3058 2040 
Q 3278 1734 3278 1309 
Q 3278 722 2862 322 
Q 2447 -78 1769 -78 
Q 1091 -78 675 323 
Q 259 725 259 1325 
Q 259 1772 486 2073 
Q 713 2375 1131 2484 
z
M 1019 3438 
Q 1019 3113 1228 2906 
Q 1438 2700 1772 2700 
Q 2097 2700 2305 2904 
Q 2513 3109 2513 3406 
Q 2513 3716 2298 3927 
Q 2084 4138 1766 4138 
Q 1444 4138 1231 3931 
Q 1019 3725 1019 3438 
z
M 838 1322 
Q 838 1081 952 856 
Q 1066 631 1291 507 
Q 1516 384 1775 384 
Q 2178 384 2440 643 
Q 2703 903 2703 1303 
Q 2703 1709 2433 1975 
Q 2163 2241 1756 2241 
Q 1359 2241 1098 1978 
Q 838 1716 838 1322 
z
" transform="scale(0.015625)"/>
       <path id="ArialMT-2c" d="M 569 0 
L 569 641 
L 1209 641 
L 1209 0 
Q 1209 -353 1084 -570 
Q 959 -788 688 -906 
L 531 -666 
Q 709 -588 793 -436 
Q 878 -284 888 0 
L 569 0 
z
" transform="scale(0.015625)"/>
       <path id="ArialMT-3c3" d="M 3809 3319 
L 3809 2863 
L 2906 2863 
Q 3322 2475 3322 1656 
Q 3322 766 2867 345 
Q 2413 -75 1763 -75 
Q 1088 -75 650 362 
Q 213 800 213 1659 
Q 213 2544 667 2969 
Q 1122 3394 1763 3394 
Q 1997 3394 2294 3319 
L 3809 3319 
z
M 1753 2928 
Q 1344 2928 1067 2609 
Q 791 2291 791 1656 
Q 791 1025 1061 706 
Q 1331 388 1763 388 
Q 2216 388 2483 720 
Q 2750 1053 2750 1659 
Q 2750 2213 2504 2570 
Q 2259 2928 1753 2928 
z
" transform="scale(0.015625)"/>
      </defs>
      <use xlink:href="#ArialMT-54"/>
      <use xlink:href="#ArialMT-72" x="57.333984"/>
      <use xlink:href="#ArialMT-61" x="90.634766"/>
      <use xlink:href="#ArialMT-69" x="146.25"/>
      <use xlink:href="#ArialMT-6e" x="168.466797"/>
      <use xlink:href="#ArialMT-69" x="224.082031"/>
      <use xlink:href="#ArialMT-6e" x="246.298828"/>
      <use xlink:href="#ArialMT-67" x="301.914062"/>
      <use xlink:href="#ArialMT-20" x="357.529297"/>
      <use xlink:href="#ArialMT-28" x="385.3125"/>
      <use xlink:href="#ArialMT-3bc" x="418.613281"/>
      <use xlink:href="#ArialMT-3d" x="476.230469"/>
      <use xlink:href="#ArialMT-31" x="534.628906"/>
      <use xlink:href="#ArialMT-2e" x="590.244141"/>
      <use xlink:href="#ArialMT-39" x="618.027344"/>
      <use xlink:href="#ArialMT-38" x="673.642578"/>
      <use xlink:href="#ArialMT-25" x="729.257812"/>
      <use xlink:href="#ArialMT-2c" x="818.173828"/>
      <use xlink:href="#ArialMT-20" x="845.957031"/>
      <use xlink:href="#ArialMT-3c3" x="873.740234"/>
      <use xlink:href="#ArialMT-3d" x="935.458984"/>
      <use xlink:href="#ArialMT-31" x="993.857422"/>
      <use xlink:href="#ArialMT-2e" x="1049.472656"/>
      <use xlink:href="#ArialMT-31" x="1077.255859"/>
      <use xlink:href="#ArialMT-35" x="1132.871094"/>
      <use xlink:href="#ArialMT-25" x="1188.486328"/>
      <use xlink:href="#ArialMT-29" x="1277.402344"/>
     </g>
    </g>
    <g id="patch_7">
     <path d="M 499.60125 61.449375 
L 523.60125 61.449375 
L 523.60125 53.049375 
L 499.60125 53.049375 
z
" style="fill: #e74c3c; fill-opacity: 0.3; stroke: #e74c3c; stroke-linejoin: miter"/>
    </g>
    <g id="text_22">
     <!-- Testing (μ=1.05%, σ=0.85%) -->
     <g style="fill: #262626" transform="translate(533.20125 61.449375) scale(0.12 -0.12)">
      <use xlink:href="#ArialMT-54"/>
      <use xlink:href="#ArialMT-65" x="49.958984"/>
      <use xlink:href="#ArialMT-73" x="105.574219"/>
      <use xlink:href="#ArialMT-74" x="155.574219"/>
      <use xlink:href="#ArialMT-69" x="183.357422"/>
      <use xlink:href="#ArialMT-6e" x="205.574219"/>
      <use xlink:href="#ArialMT-67" x="261.189453"/>
      <use xlink:href="#ArialMT-20" x="316.804688"/>
      <use xlink:href="#ArialMT-28" x="344.587891"/>
      <use xlink:href="#ArialMT-3bc" x="377.888672"/>
      <use xlink:href="#ArialMT-3d" x="435.505859"/>
      <use xlink:href="#ArialMT-31" x="493.904297"/>
      <use xlink:href="#ArialMT-2e" x="549.519531"/>
      <use xlink:href="#ArialMT-30" x="577.302734"/>
      <use xlink:href="#ArialMT-35" x="632.917969"/>
      <use xlink:href="#ArialMT-25" x="688.533203"/>
      <use xlink:href="#ArialMT-2c" x="777.449219"/>
      <use xlink:href="#ArialMT-20" x="805.232422"/>
      <use xlink:href="#ArialMT-3c3" x="833.015625"/>
      <use xlink:href="#ArialMT-3d" x="894.734375"/>
      <use xlink:href="#ArialMT-30" x="953.132812"/>
      <use xlink:href="#ArialMT-2e" x="1008.748047"/>
      <use xlink:href="#ArialMT-38" x="1036.53125"/>
      <use xlink:href="#ArialMT-35" x="1092.146484"/>
      <use xlink:href="#ArialMT-25" x="1147.761719"/>
      <use xlink:href="#ArialMT-29" x="1236.677734"/>
     </g>
    </g>
   </g>
  </g>
 </g>
 <defs>
  <clipPath id="pf7cded94dc">
   <rect x="60.520625" y="24.6525" width="640.759375" height="347.515"/>
  </clipPath>
 </defs>
</svg>
